<svg xmlns="http://www.w3.org/2000/svg" xmlns:xlink="http://www.w3.org/1999/xlink" width="596.099" height="1044.612" viewBox="0 0 596.099 1044.612">
  <defs>
    <clipPath id="clip-path">
      <rect id="Rectangle_36" data-name="Rectangle 36" width="596.099" height="1044.612" transform="translate(0 -0.002)" fill="none"/>
    </clipPath>
  </defs>
  <g id="Léo" transform="translate(0 0.002)">
    <g id="Groupe_30" data-name="Groupe 30" clip-path="url(#clip-path)">
      <path id="Tracé_4267" data-name="Tracé 4267" d="M413.532,407.7l-145.1,24.718a32.509,32.509,0,0,1-37.506-26.588l-24.457-206.09a62.176,62.176,0,0,1,50.852-71.735l66.51-11.33a62.175,62.175,0,0,1,71.735,50.852L440.12,370.2A32.509,32.509,0,0,1,413.532,407.7" fill="#4dc494"/>
      <path id="Tracé_4268" data-name="Tracé 4268" d="M413.532,407.7l-145.1,24.718a32.509,32.509,0,0,1-37.506-26.588l-24.457-206.09a62.176,62.176,0,0,1,50.852-71.735l66.51-11.33a62.175,62.175,0,0,1,71.735,50.852L440.12,370.2A32.509,32.509,0,0,1,413.532,407.7Z" fill="none" stroke="#3d4550" stroke-width="2.9"/>
      <rect id="Rectangle_16" data-name="Rectangle 16" width="48.011" height="57.033" transform="matrix(0.986, -0.168, 0.168, 0.986, 241.111, 91.478)" fill="#fff"/>
      <line id="Ligne_1" data-name="Ligne 1" x1="8.365" y1="56.271" transform="translate(242.47 95.876)" fill="none" stroke="#3d4550" stroke-linecap="round" stroke-linejoin="round" stroke-width="1.567"/>
      <line id="Ligne_2" data-name="Ligne 2" x2="2.088" y2="12.259" transform="translate(264.088 115.783)" fill="none" stroke="#3d4550" stroke-linecap="round" stroke-linejoin="round" stroke-width="1.567"/>
      <path id="Tracé_4269" data-name="Tracé 4269" d="M85.138,214.865,66.875,187.432a5.632,5.632,0,1,1,9.376-6.242l17.963,26.982" fill="#fff"/>
      <path id="Tracé_4270" data-name="Tracé 4270" d="M85.138,214.865,66.875,187.432a5.632,5.632,0,1,1,9.376-6.242l17.963,26.982" fill="none" stroke="#3d4550" stroke-width="1.744"/>
      <path id="Tracé_4271" data-name="Tracé 4271" d="M75.238,199.873l16.518,36.365L122,247.836s2.646-22.006,2.046-32.7a92.351,92.351,0,0,0-7.345-31.3" fill="#fff"/>
      <path id="Tracé_4272" data-name="Tracé 4272" d="M75.238,199.873l16.518,36.365L122,247.836s2.646-22.006,2.046-32.7a92.351,92.351,0,0,0-7.345-31.3" fill="none" stroke="#3d4550" stroke-width="1.901"/>
      <path id="Tracé_4273" data-name="Tracé 4273" d="M83.251,198.91,69.736,165.624a6.139,6.139,0,0,1,11.377-4.619c.149.368,10.786,26.567,13.293,32.739" fill="#fff"/>
      <path id="Tracé_4274" data-name="Tracé 4274" d="M83.251,198.91,69.736,165.624a6.139,6.139,0,0,1,11.377-4.619c.149.368,10.786,26.567,13.293,32.739" fill="none" stroke="#3d4550" stroke-width="1.901"/>
      <path id="Tracé_4275" data-name="Tracé 4275" d="M94.4,193.744,79.513,157.067a6.139,6.139,0,0,1,11.377-4.619c.149.368,12.608,31.052,15.114,37.224" fill="#fff"/>
      <path id="Tracé_4276" data-name="Tracé 4276" d="M94.4,193.744,79.513,157.067a6.139,6.139,0,0,1,11.377-4.619c.149.368,12.608,31.052,15.114,37.224" fill="none" stroke="#3d4550" stroke-width="1.901"/>
      <path id="Tracé_4277" data-name="Tracé 4277" d="M106,189.672,92.489,156.386a6.139,6.139,0,0,1,11.377-4.619c.149.368,10.787,26.567,13.293,32.739" fill="#fff"/>
      <path id="Tracé_4278" data-name="Tracé 4278" d="M106,189.672,92.489,156.386a6.139,6.139,0,0,1,11.377-4.619c.149.368,10.787,26.567,13.293,32.739" fill="none" stroke="#3d4550" stroke-width="1.901"/>
      <path id="Tracé_4279" data-name="Tracé 4279" d="M21.243,194.9l15.786,36.061a2.406,2.406,0,0,0,3.457,1.089L94.834,198.9a2.4,2.4,0,0,0,.951-3.019l-9.4-21.474a2.406,2.406,0,0,0-2.907-1.336L22.744,191.638a2.4,2.4,0,0,0-1.5,3.265" fill="#242930"/>
      <path id="Tracé_4280" data-name="Tracé 4280" d="M21.243,194.9l15.786,36.061a2.406,2.406,0,0,0,3.457,1.089L94.834,198.9a2.4,2.4,0,0,0,.951-3.019l-9.4-21.474a2.406,2.406,0,0,0-2.907-1.336L22.744,191.638A2.4,2.4,0,0,0,21.243,194.9Z" fill="none" stroke="#242930" stroke-width="2.024"/>
      <path id="Tracé_4281" data-name="Tracé 4281" d="M1.3,150.985,16.15,184.913a3.385,3.385,0,0,0,4.864,1.533l52.725-32.161a3.387,3.387,0,0,0,1.372-4.168l-7.483-18.36a3.385,3.385,0,0,0-4.036-1.985L3.5,146.364a3.385,3.385,0,0,0-2.2,4.621" fill="#242930"/>
      <path id="Tracé_4282" data-name="Tracé 4282" d="M1.3,150.985,16.15,184.913a3.385,3.385,0,0,0,4.864,1.533l52.725-32.161a3.387,3.387,0,0,0,1.372-4.168l-7.483-18.36a3.385,3.385,0,0,0-4.036-1.985L3.5,146.364A3.385,3.385,0,0,0,1.3,150.985Z" fill="none" stroke="#242930" stroke-width="2.024"/>
      <path id="Tracé_4283" data-name="Tracé 4283" d="M52.509,128.257,87.93,209.17a5.6,5.6,0,0,0,7.379,2.886l19.927-8.723a5.6,5.6,0,0,0,2.885-7.38L82.7,115.04a5.6,5.6,0,0,0-7.379-2.885L55.4,120.878a5.6,5.6,0,0,0-2.886,7.379" fill="#242930"/>
      <path id="Tracé_4284" data-name="Tracé 4284" d="M52.509,128.257,87.93,209.17a5.6,5.6,0,0,0,7.379,2.886l19.927-8.723a5.6,5.6,0,0,0,2.885-7.38L82.7,115.04a5.6,5.6,0,0,0-7.379-2.885L55.4,120.878A5.6,5.6,0,0,0,52.509,128.257Z" fill="none" stroke="#242930" stroke-width="2.024"/>
      <path id="Tracé_4285" data-name="Tracé 4285" d="M104.358,167.8l7.137,16.3a1.318,1.318,0,0,0,1.736.679l17.511-7.665a1.319,1.319,0,0,0,.679-1.737l-7.137-16.3a1.318,1.318,0,0,0-1.736-.679l-17.511,7.666a1.318,1.318,0,0,0-.679,1.736" fill="#242930"/>
      <path id="Rectangle_17" data-name="Rectangle 17" d="M1.318,0H20.433a1.318,1.318,0,0,1,1.318,1.318v17.8a1.319,1.319,0,0,1-1.319,1.319H1.318A1.318,1.318,0,0,1,0,19.115V1.318A1.318,1.318,0,0,1,1.318,0Z" transform="matrix(0.916, -0.401, 0.401, 0.916, 103.829, 166.592)" fill="none" stroke="#242930" stroke-width="2.024"/>
      <path id="Tracé_4286" data-name="Tracé 4286" d="M84.364,128.7l5.815,13.284a2.966,2.966,0,0,0,3.907,1.528l16.3-7.137a2.966,2.966,0,0,0,1.528-3.907L106.1,119.187a2.966,2.966,0,0,0-3.907-1.528l-16.3,7.137a2.966,2.966,0,0,0-1.528,3.907" fill="#242930"/>
      <path id="Rectangle_18" data-name="Rectangle 18" d="M2.966,0h17.8A2.966,2.966,0,0,1,23.73,2.966v14.5a2.967,2.967,0,0,1-2.967,2.967H2.966A2.966,2.966,0,0,1,0,17.468V2.966A2.966,2.966,0,0,1,2.966,0Z" transform="translate(83.175 125.985) rotate(-23.641)" fill="none" stroke="#242930" stroke-width="2.024"/>
      <rect id="Rectangle_19" data-name="Rectangle 19" width="3.296" height="24.389" transform="matrix(0.916, -0.401, 0.401, 0.916, 54.461, 162.3)" fill="#242930"/>
      <rect id="Rectangle_20" data-name="Rectangle 20" width="3.296" height="24.389" transform="matrix(0.916, -0.401, 0.401, 0.916, 54.461, 162.3)" fill="none" stroke="#242930" stroke-width="2.024"/>
      <rect id="Rectangle_21" data-name="Rectangle 21" width="1.977" height="32.957" transform="translate(103.03 136.002) rotate(-23.643)" fill="#242930"/>
      <rect id="Rectangle_22" data-name="Rectangle 22" width="1.977" height="32.957" transform="translate(103.03 136.002) rotate(-23.643)" fill="none" stroke="#242930" stroke-width="2.024"/>
      <rect id="Rectangle_23" data-name="Rectangle 23" width="61.301" height="8.569" transform="matrix(0.916, -0.401, 0.401, 0.916, 56.5, 168.602)" fill="#242930"/>
      <rect id="Rectangle_24" data-name="Rectangle 24" width="61.301" height="8.569" transform="matrix(0.916, -0.401, 0.401, 0.916, 56.5, 168.602)" fill="none" stroke="#242930" stroke-width="2.024"/>
      <path id="Tracé_4287" data-name="Tracé 4287" d="M123.766,211.472s-3.026-28.144-17.65-43.952c0,0-4.059-5.887-9.145-3.179s-.8,9.886.4,11.761a28.314,28.314,0,0,1,4.257,15.466c.017,8.353-8.344,15.208-4.707,28.56" fill="#fff"/>
      <path id="Tracé_4288" data-name="Tracé 4288" d="M123.766,211.472s-3.026-28.144-17.65-43.952c0,0-4.059-5.887-9.145-3.179s-.8,9.886.4,11.761a28.314,28.314,0,0,1,4.257,15.466c.017,8.353-8.344,15.208-4.707,28.56" fill="none" stroke="#3d4550" stroke-width="2.177"/>
      <path id="Tracé_4289" data-name="Tracé 4289" d="M482.177,908.517l18.863,26.47,22.249-19.081-17.437-26.087Z" fill="#4dc494"/>
      <path id="Tracé_4290" data-name="Tracé 4290" d="M482.177,908.517l18.863,26.47,22.249-19.081-17.437-26.087Z" fill="none" stroke="#3d4550" stroke-width="2.386"/>
      <path id="Tracé_4291" data-name="Tracé 4291" d="M478.132,1036.869s40.8-8.044,59.971-26.919,47.051-47.571,47.051-47.571l-60.946-62.287L488.663,936.93s18,50.829,9.779,57.261c-3.678,2.878-27.879,21.871-20.31,42.678" fill="#fff"/>
      <path id="Tracé_4292" data-name="Tracé 4292" d="M478.132,1036.869s40.8-8.044,59.971-26.919,47.051-47.571,47.051-47.571l-60.946-62.287L488.663,936.93s18,50.829,9.779,57.261C494.764,997.069,470.563,1016.062,478.132,1036.869Z" fill="none" stroke="#3d4550" stroke-width="2.774"/>
      <path id="Tracé_4293" data-name="Tracé 4293" d="M478.064,1035.716l.434,7.413,22.224-1.55-2.106-6.323,19.406-7.335,3.327,6,20.539-11.019-3.962-5.46,12.527-12.529,4.711,5.353,13.3-13.473-4.9-5.367,11.732-11.786,5.069,5.25,13.767-13.77-14.733-14.43s-30.159,41.134-42.031,50.094-59.3,28.928-59.3,28.928" fill="#fff"/>
      <path id="Tracé_4294" data-name="Tracé 4294" d="M478.064,1035.716l.434,7.413,22.224-1.55-2.106-6.323,19.406-7.335,3.327,6,20.539-11.019-3.962-5.46,12.527-12.529,4.711,5.353,13.3-13.473-4.9-5.367,11.732-11.786,5.069,5.25,13.767-13.77-14.733-14.43s-30.159,41.134-42.031,50.094S478.064,1035.716,478.064,1035.716Z" fill="none" stroke="#3d4550" stroke-width="2.774"/>
      <path id="Tracé_4295" data-name="Tracé 4295" d="M476.37,1029.369l50.582-28.518a60.5,60.5,0,0,0,15.137-16.42l25.432-39.557" fill="#fff"/>
      <path id="Tracé_4296" data-name="Tracé 4296" d="M476.37,1029.369l50.582-28.518a60.5,60.5,0,0,0,15.137-16.42l25.432-39.557" fill="none" stroke="#3d4550" stroke-width="2.774"/>
      <path id="Tracé_4297" data-name="Tracé 4297" d="M512.476,930.44a3.589,3.589,0,1,1-5.076,0,3.589,3.589,0,0,1,5.076,0" fill="#fff"/>
      <path id="Tracé_4298" data-name="Tracé 4298" d="M512.476,930.44a3.589,3.589,0,1,1-5.076,0A3.589,3.589,0,0,1,512.476,930.44Z" fill="none" stroke="#3d4550" stroke-width="2.267"/>
      <path id="Tracé_4299" data-name="Tracé 4299" d="M521.578,949.866a3.589,3.589,0,1,1-5.076,0,3.59,3.59,0,0,1,5.076,0" fill="#fff"/>
      <path id="Tracé_4300" data-name="Tracé 4300" d="M521.578,949.866a3.589,3.589,0,1,1-5.076,0A3.59,3.59,0,0,1,521.578,949.866Z" fill="none" stroke="#3d4550" stroke-width="2.267"/>
      <path id="Tracé_4301" data-name="Tracé 4301" d="M523.856,973.144a3.589,3.589,0,1,1-5.076,0,3.59,3.59,0,0,1,5.076,0" fill="#fff"/>
      <path id="Tracé_4302" data-name="Tracé 4302" d="M523.856,973.144a3.589,3.589,0,1,1-5.076,0A3.59,3.59,0,0,1,523.856,973.144Z" fill="none" stroke="#3d4550" stroke-width="2.267"/>
      <path id="Tracé_4303" data-name="Tracé 4303" d="M516.508,995.2a3.589,3.589,0,1,1-5.076,0,3.589,3.589,0,0,1,5.076,0" fill="#fff"/>
      <path id="Tracé_4304" data-name="Tracé 4304" d="M516.508,995.2a3.589,3.589,0,1,1-5.076,0A3.589,3.589,0,0,1,516.508,995.2Z" fill="none" stroke="#3d4550" stroke-width="2.267"/>
      <path id="Tracé_4305" data-name="Tracé 4305" d="M497.168,994.237l14.177,2.624-12.078-11.725,19.427-9.278L496.773,968.5l20.343-15.223-25.561-3.315,16.458-15.586-18.4,7.766" fill="none" stroke="#4dc494" stroke-linejoin="round" stroke-width="2.267"/>
      <path id="Tracé_4306" data-name="Tracé 4306" d="M513.378,912.792l15.808,16.763a10.545,10.545,0,0,0,14.972.374l3.759-3.606" fill="none" stroke="#4dc494" stroke-linejoin="round" stroke-width="2.267"/>
      <rect id="Rectangle_25" data-name="Rectangle 25" width="32.204" height="25.579" transform="matrix(0.26, -0.966, 0.966, 0.26, 171.394, 931.204)" fill="#4dc494"/>
      <rect id="Rectangle_26" data-name="Rectangle 26" width="32.204" height="25.579" transform="matrix(0.26, -0.966, 0.966, 0.26, 171.394, 931.204)" fill="none" stroke="#3d4550" stroke-width="2.92"/>
      <path id="Tracé_4307" data-name="Tracé 4307" d="M45.471,992.042l135.046,35.549,25.428-90.554-53.6-13.4s-9.789,37.648-63.234,43.27c-26.4,2.777-28.256,6.851-43.64,25.138" fill="#fff"/>
      <path id="Tracé_4308" data-name="Tracé 4308" d="M45.471,992.042l135.046,35.549,25.428-90.554-53.6-13.4s-9.789,37.648-63.234,43.27C62.714,969.681,60.855,973.755,45.471,992.042Z" fill="none" stroke="#3d4550" stroke-width="2.994"/>
      <path id="Tracé_4309" data-name="Tracé 4309" d="M50.853,985.921l-14.32,16.755,22.437,6.4,4.546-6.27,17.046,4.585-3.246,6.405,23.285,5.925,2.973-6.647,18.466,4.968-2.469,7.29,19.763,5.178,2.38-7.475,17.342,4.626-2.18,7.568,20.295,5.459,5.56-21.552Z" fill="#fff"/>
      <path id="Tracé_4310" data-name="Tracé 4310" d="M50.853,985.921l-14.32,16.755,22.437,6.4,4.546-6.27,17.046,4.585-3.246,6.405,23.285,5.925,2.973-6.647,18.466,4.968-2.469,7.29,19.763,5.178,2.38-7.475,17.342,4.626-2.18,7.568,20.295,5.459,5.56-21.552Z" fill="none" stroke="#3d4550" stroke-width="2.994"/>
      <path id="Tracé_4311" data-name="Tracé 4311" d="M64.4,972.456l48.788,21.42a65.3,65.3,0,0,0,23.51,5.314l50.7,2.48" fill="#fff"/>
      <path id="Tracé_4312" data-name="Tracé 4312" d="M64.4,972.456l48.788,21.42a65.3,65.3,0,0,0,23.51,5.314l50.7,2.48" fill="none" stroke="#3d4550" stroke-width="2.994"/>
      <path id="Tracé_4313" data-name="Tracé 4313" d="M171.241,942.41a3.874,3.874,0,1,1-2.734-4.747,3.873,3.873,0,0,1,2.734,4.747" fill="#fff"/>
      <path id="Tracé_4314" data-name="Tracé 4314" d="M171.241,942.41a3.874,3.874,0,1,1-2.734-4.747A3.873,3.873,0,0,1,171.241,942.41Z" fill="none" stroke="#3d4550" stroke-width="2.447"/>
      <path id="Tracé_4315" data-name="Tracé 4315" d="M157.975,961.388a3.874,3.874,0,1,1-2.734-4.747,3.873,3.873,0,0,1,2.734,4.747" fill="#fff"/>
      <path id="Tracé_4316" data-name="Tracé 4316" d="M157.975,961.388a3.874,3.874,0,1,1-2.734-4.747A3.873,3.873,0,0,1,157.975,961.388Z" fill="none" stroke="#3d4550" stroke-width="2.447"/>
      <path id="Tracé_4317" data-name="Tracé 4317" d="M137.43,976.057a3.874,3.874,0,1,1-2.734-4.747,3.873,3.873,0,0,1,2.734,4.747" fill="#fff"/>
      <path id="Tracé_4318" data-name="Tracé 4318" d="M137.43,976.057a3.874,3.874,0,1,1-2.734-4.747A3.873,3.873,0,0,1,137.43,976.057Z" fill="none" stroke="#3d4550" stroke-width="2.447"/>
      <path id="Tracé_4319" data-name="Tracé 4319" d="M112.967,979.023a3.874,3.874,0,1,1-3.884-3.864,3.875,3.875,0,0,1,3.884,3.864" fill="#fff"/>
      <path id="Tracé_4320" data-name="Tracé 4320" d="M112.967,979.023a3.874,3.874,0,1,1-3.884-3.864A3.875,3.875,0,0,1,112.967,979.023Z" fill="none" stroke="#3d4550" stroke-width="2.447"/>
      <path id="Tracé_4321" data-name="Tracé 4321" d="M103.327,962.456l5.182,14.673,4.461-17.612,19.142,13.172-2.4-21.946,22.663,8.31L145.1,934.686l20.053,5.671L148.92,927.691" fill="none" stroke="#4dc494" stroke-linejoin="round" stroke-width="2.447"/>
      <path id="Tracé_4322" data-name="Tracé 4322" d="M188.234,933.748l-7.163,23.815a11.382,11.382,0,0,0,7.714,14.205l5.4,1.573" fill="none" stroke="#4dc494" stroke-linejoin="round" stroke-width="2.447"/>
      <path id="Tracé_4323" data-name="Tracé 4323" d="M263.99,672.368c-5.687,21.843-8.263,37.547-8.7,54.194-2.15,81.058-43.366,187.364-43.366,187.364l-56.105-16.074L219.979,655.78s10.334-29.632,31.874-23.1c21.523,6.527,12.137,39.686,12.137,39.686" fill="#3d4550"/>
      <path id="Tracé_4324" data-name="Tracé 4324" d="M263.99,672.368c-5.687,21.843-8.263,37.547-8.7,54.194-2.15,81.058-43.366,187.364-43.366,187.364l-56.105-16.074L219.979,655.78s10.334-29.632,31.874-23.1C273.376,639.209,263.99,672.368,263.99,672.368Z" fill="none" stroke="#3d4550" stroke-width="2.498"/>
      <path id="Tracé_4325" data-name="Tracé 4325" d="M322.335,388.772c-38.71-14.349-50.171,39.618-50.171,39.618l-50.1,220.755s-4.017,30.774,18.8,32.7c21.927,1.846,25.973-20.725,28.052-28.558,18.507-83.253,62.365-182.036,62.365-182.036s29.758-68.125-8.952-82.474" fill="#3d4550"/>
      <path id="Tracé_4326" data-name="Tracé 4326" d="M322.335,388.772c-38.71-14.349-50.171,39.618-50.171,39.618l-50.1,220.755s-4.017,30.774,18.8,32.7c21.927,1.846,25.973-20.725,28.052-28.558,18.507-83.253,62.365-182.036,62.365-182.036S361.045,403.121,322.335,388.772Z" fill="none" stroke="#3d4550" stroke-width="2.498"/>
      <path id="Tracé_4327" data-name="Tracé 4327" d="M408.327,685.343c10.419,20.012,19.086,33.491,30.054,46.4,53.406,62.848,93.587,168.409,93.587,168.409l-54.554,21.6L362.828,699.265s-12.1-28.727,9.092-36.746c21.174-8.012,36.407,22.824,36.407,22.824" fill="#3d4550"/>
      <path id="Tracé_4328" data-name="Tracé 4328" d="M408.327,685.343c10.419,20.012,19.086,33.491,30.054,46.4,53.406,62.848,93.587,168.409,93.587,168.409l-54.554,21.6L362.828,699.265s-12.1-28.727,9.092-36.746C393.094,654.507,408.327,685.343,408.327,685.343Z" fill="none" stroke="#3d4550" stroke-width="2.498"/>
      <path id="Tracé_4329" data-name="Tracé 4329" d="M380.744,406.45c-41.419-6.053-37.165,48.976-37.165,48.976l14.3,225.761s4.855,30.862,27.417,28.048c21.68-2.7,19.179-25.564,18.962-33.636-5.764-85.062,8.522-190.489,8.522-190.489s9.382-72.607-32.037-78.66" fill="#3d4550"/>
      <path id="Tracé_4330" data-name="Tracé 4330" d="M380.744,406.45c-41.419-6.053-37.165,48.976-37.165,48.976l14.3,225.761s4.855,30.862,27.417,28.048c21.68-2.7,19.179-25.564,18.962-33.636-5.764-85.062,8.522-190.489,8.522-190.489S422.163,412.5,380.744,406.45Z" fill="none" stroke="#3d4550" stroke-width="2.498"/>
      <rect id="Rectangle_27" data-name="Rectangle 27" width="137.063" height="38.641" transform="translate(269.5 426.441) rotate(-3.352)" fill="#3d4550"/>
      <path id="Tracé_4331" data-name="Tracé 4331" d="M363.367,409.394a11.468,11.468,0,1,0,12.119,10.778,11.467,11.467,0,0,0-12.119-10.778m1.1,19.418a8.175,8.175,0,1,1,7.683-8.639,8.175,8.175,0,0,1-7.683,8.639" fill="#fff"/>
      <path id="Tracé_4332" data-name="Tracé 4332" d="M363.367,409.394a11.468,11.468,0,1,0,12.119,10.778A11.467,11.467,0,0,0,363.367,409.394Zm1.1,19.418a8.175,8.175,0,1,1,7.683-8.639A8.175,8.175,0,0,1,364.466,428.812Z" fill="none" stroke="#3d4550" stroke-width="0.983"/>
      <path id="Tracé_4333" data-name="Tracé 4333" d="M391.993,459.489A26.036,26.036,0,1,1,364.48,435.02a26.035,26.035,0,0,1,27.513,24.469" fill="#fff"/>
      <path id="Tracé_4334" data-name="Tracé 4334" d="M391.993,459.489A26.036,26.036,0,1,1,364.48,435.02,26.035,26.035,0,0,1,391.993,459.489Z" fill="none" stroke="#3d4550" stroke-width="2.177"/>
      <path id="Tracé_4335" data-name="Tracé 4335" d="M384.559,459.528a18.466,18.466,0,1,1-19.514-17.354,18.466,18.466,0,0,1,19.514,17.354" fill="#fff"/>
      <path id="Tracé_4336" data-name="Tracé 4336" d="M384.559,459.528a18.466,18.466,0,1,1-19.514-17.354A18.466,18.466,0,0,1,384.559,459.528Z" fill="none" stroke="#3d4550" stroke-width="1.697"/>
      <path id="Tracé_4337" data-name="Tracé 4337" d="M373.941,452.02l-9.774,6.758,3.365,3.313Z" fill="#dc2832"/>
      <path id="Tracé_4338" data-name="Tracé 4338" d="M357.7,468.8l9.82-6.691-3.342-3.336Z" fill="#546470"/>
      <line id="Ligne_3" data-name="Ligne 3" y1="0.299" x2="6.541" transform="translate(344.113 462.018)" fill="#dc2832"/>
      <line id="Ligne_4" data-name="Ligne 4" y1="0.299" x2="6.541" transform="translate(344.113 462.018)" fill="none" stroke="#3d4550" stroke-width="1.697"/>
      <line id="Ligne_5" data-name="Ligne 5" y1="0.299" x2="6.541" transform="translate(381.126 459.472)" fill="#dc2832"/>
      <line id="Ligne_6" data-name="Ligne 6" y1="0.299" x2="6.541" transform="translate(381.126 459.472)" fill="none" stroke="#3d4550" stroke-width="1.697"/>
      <line id="Ligne_7" data-name="Ligne 7" x2="0.147" y2="6.546" transform="translate(365.14 438.891)" fill="#dc2832"/>
      <line id="Ligne_8" data-name="Ligne 8" x2="0.147" y2="6.546" transform="translate(365.14 438.891)" fill="none" stroke="#3d4550" stroke-width="1.697"/>
      <line id="Ligne_9" data-name="Ligne 9" x2="0.147" y2="6.546" transform="translate(366.895 476.035)" fill="#dc2832"/>
      <line id="Ligne_10" data-name="Ligne 10" x2="0.147" y2="6.546" transform="translate(366.895 476.035)" fill="none" stroke="#3d4550" stroke-width="1.697"/>
      <path id="Tracé_4339" data-name="Tracé 4339" d="M368.066,435.276l-6.5.381-.48-8.2a3.255,3.255,0,0,1,6.5-.381Z" fill="#fff"/>
      <path id="Tracé_4340" data-name="Tracé 4340" d="M368.066,435.276l-6.5.381-.48-8.2a3.255,3.255,0,0,1,6.5-.381Z" fill="none" stroke="#3d4550" stroke-width="0.983"/>
      <path id="Tracé_4341" data-name="Tracé 4341" d="M270.355,155.169a82.173,82.173,0,0,0-101.828,55.676c-17.12,58.138-37.535,127.47-37.917,128.781a42.206,42.206,0,0,0,81.038,23.627c.66-2.264,59.964-207.717,59.964-207.717Z" fill="#fff"/>
      <path id="Tracé_4342" data-name="Tracé 4342" d="M270.355,155.169a82.173,82.173,0,0,0-101.828,55.676c-17.12,58.138-37.535,127.47-37.917,128.781a42.206,42.206,0,0,0,81.038,23.627c.66-2.264,59.964-207.717,59.964-207.717Z" fill="none" stroke="#3d4550" stroke-width="2.177"/>
      <line id="Ligne_11" data-name="Ligne 11" x2="9.352" y2="54.896" transform="translate(288.948 86.395)" fill="none" stroke="#3d4550" stroke-linecap="round" stroke-linejoin="round" stroke-width="1.225"/>
      <rect id="Rectangle_28" data-name="Rectangle 28" width="55.627" height="12.583" transform="matrix(0.986, -0.168, 0.168, 0.986, 246.154, 141.094)" fill="#3d4550"/>
      <rect id="Rectangle_29" data-name="Rectangle 29" width="55.627" height="12.583" transform="matrix(0.986, -0.168, 0.168, 0.986, 246.154, 141.094)" fill="none" stroke="#3d4550" stroke-linecap="round" stroke-linejoin="round" stroke-width="1.318"/>
      <path id="Tracé_4343" data-name="Tracé 4343" d="M407.784,244.938l11.7,168.3-160.725,27.38L207.009,279.56" fill="#fff"/>
      <path id="Tracé_4344" data-name="Tracé 4344" d="M407.784,244.938l11.7,168.3-160.725,27.38L207.009,279.56" fill="none" stroke="#3d4550" stroke-width="1.567"/>
      <path id="Tracé_4345" data-name="Tracé 4345" d="M246.639,152.914l-42.853,75.743,18.6,77.21,181.29-30.884-5.126-84.227-77.908-48.831Z" fill="#fff"/>
      <rect id="Rectangle_30" data-name="Rectangle 30" width="60.133" height="23.562" transform="matrix(0.882, -0.471, 0.471, 0.882, 80.265, 235.214)" fill="#4dc494"/>
      <rect id="Rectangle_31" data-name="Rectangle 31" width="60.133" height="23.562" transform="matrix(0.882, -0.471, 0.471, 0.882, 80.265, 235.214)" fill="none" stroke="#3d4550" stroke-width="2.538"/>
      <path id="Tracé_4346" data-name="Tracé 4346" d="M208.291,328.918s-20.081-51.543-62.252-113.094l-59.62,40.615L131.41,367.061" fill="#fff"/>
      <path id="Tracé_4347" data-name="Tracé 4347" d="M208.291,328.918s-20.081-51.543-62.252-113.094l-59.62,40.615L131.41,367.061" fill="none" stroke="#3d4550" stroke-width="2.538"/>
      <path id="Tracé_4348" data-name="Tracé 4348" d="M218.3,313.53s31.795-10.953,19.949-76.986c-8.531-47.553-13.137-70.245-15.046-79.222-.579-2.72.764-5.341,3-5.871l13.561-3.21c2.286-.541,4.614,1.321,5.149,4.116l15.507,81.134s20.31,88.238-34.65,108.478Z" fill="#3d4550"/>
      <path id="Tracé_4349" data-name="Tracé 4349" d="M218.3,313.53s31.795-10.953,19.949-76.986c-8.531-47.553-13.137-70.245-15.046-79.222-.579-2.72.764-5.341,3-5.871l13.561-3.21c2.286-.541,4.614,1.321,5.149,4.116l15.507,81.134s20.31,88.238-34.65,108.478Z" fill="none" stroke="#3d4550" stroke-width="2.653"/>
      <path id="Tracé_4350" data-name="Tracé 4350" d="M207.87,161.137s35.248,130.413,3.746,133.207" fill="none" stroke="#3d4550" stroke-width="1.712"/>
      <path id="Tracé_4351" data-name="Tracé 4351" d="M246.743,410.28l20.649-3.518c20.918-3.563,32.2-37.773,27.149-64.765l-35.85-191.625" fill="none" stroke="#3d4550" stroke-width="1.748"/>
      <path id="Tracé_4352" data-name="Tracé 4352" d="M413.078,377.347l-36.321,6.187c-34.527,5.882-64.659-16.675-68.546-43.865L280.618,146.637" fill="none" stroke="#3d4550" stroke-width="2.246"/>
      <path id="Tracé_4353" data-name="Tracé 4353" d="M357.559,135.183s5.38,130.5,50.545,125.76" fill="none" stroke="#3d4550" stroke-width="2.059"/>
      <path id="Tracé_4354" data-name="Tracé 4354" d="M269.6,387.806l-25.442,7.95-13.682-43.784,25.443-7.95a19.525,19.525,0,0,1,24.461,12.814l2.034,6.508A19.526,19.526,0,0,1,269.6,387.806" fill="#3d4550"/>
      <path id="Tracé_4355" data-name="Tracé 4355" d="M269.6,387.806l-25.442,7.95-13.682-43.784,25.443-7.95a19.525,19.525,0,0,1,24.461,12.814l2.034,6.508A19.526,19.526,0,0,1,269.6,387.806Z" fill="none" stroke="#3d4550" stroke-width="2.732"/>
      <path id="Tracé_4356" data-name="Tracé 4356" d="M387.859,366.793l26.609-1.573-2.707-45.792L385.152,321a19.527,19.527,0,0,0-18.341,20.645l.4,6.807a19.527,19.527,0,0,0,20.645,18.34" fill="#3d4550"/>
      <path id="Tracé_4357" data-name="Tracé 4357" d="M387.859,366.793l26.609-1.573-2.707-45.792L385.152,321a19.527,19.527,0,0,0-18.341,20.645l.4,6.807A19.527,19.527,0,0,0,387.859,366.793Z" fill="none" stroke="#3d4550" stroke-width="2.732"/>
      <rect id="Rectangle_32" data-name="Rectangle 32" width="106.312" height="7.439" transform="matrix(0.986, -0.168, 0.168, 0.986, 281.814, 358.354)" fill="#3d4550"/>
      <rect id="Rectangle_33" data-name="Rectangle 33" width="106.312" height="7.439" transform="matrix(0.986, -0.168, 0.168, 0.986, 281.814, 358.354)" fill="none" stroke="#3d4550" stroke-width="3.392"/>
      <line id="Ligne_12" data-name="Ligne 12" x1="2.043" y1="34.883" transform="translate(321.468 411.787)" fill="none" stroke="#fff" stroke-width="1.567"/>
      <line id="Ligne_13" data-name="Ligne 13" transform="translate(298.523 151.026)" fill="#fff"/>
      <line id="Ligne_14" data-name="Ligne 14" transform="translate(298.523 151.026)" fill="none" stroke="#3d4550" stroke-width="2.177"/>
      <path id="Tracé_4358" data-name="Tracé 4358" d="M307.35,156.777c34.458-29.244,72.467-27.445,104.8,4.279,43.263,42.447,94.856,93.068,95.828,94.027a42.206,42.206,0,0,1,.408,59.687c-16.37,16.6-49.146,9.411-65.74-6.958-.588-.579-33.712-29.748-57.147-52.772" fill="#fff"/>
      <path id="Tracé_4359" data-name="Tracé 4359" d="M307.35,156.777c34.458-29.244,72.467-27.445,104.8,4.279,43.263,42.447,94.856,93.068,95.828,94.027a42.206,42.206,0,0,1,.408,59.687c-16.37,16.6-49.146,9.411-65.74-6.958-.588-.579-33.712-29.748-57.147-52.772" fill="none" stroke="#3d4550" stroke-width="2.177"/>
      <path id="Tracé_4360" data-name="Tracé 4360" d="M409.119,294.344s-52.079-9.984-62.473-76.265c-7.484-47.731-10.29-70.73-11.274-79.864-.3-2.769-3.31-4.648-6.732-4.213l-20.764,2.637c-3.5.444-6.065,3.14-5.672,5.959l11.406,81.833s9.948,91.709,97.1,87.74Z" fill="#3d4550"/>
      <path id="Tracé_4361" data-name="Tracé 4361" d="M409.119,294.344s-52.079-9.984-62.473-76.265c-7.484-47.731-10.29-70.73-11.274-79.864-.3-2.769-3.31-4.648-6.732-4.213l-20.764,2.637c-3.5.444-6.065,3.14-5.672,5.959l11.406,81.833s9.948,91.709,97.1,87.74Z" fill="none" stroke="#3d4550" stroke-width="3.253"/>
      <path id="Tracé_4362" data-name="Tracé 4362" d="M527.72,423.442l.729,39.476s.187,8.5,6.389,8.8,6.317-4.9,6.565-8.5.666-26.208.666-26.208" fill="#fff"/>
      <path id="Tracé_4363" data-name="Tracé 4363" d="M527.72,423.442l.729,39.476s.187,8.5,6.389,8.8,6.317-4.9,6.565-8.5.666-26.208.666-26.208" fill="none" stroke="#3d4550" stroke-width="1.744"/>
      <path id="Tracé_4364" data-name="Tracé 4364" d="M568.094,423.694l20.054,26.152a5.632,5.632,0,1,1-8.938,6.855l-19.725-25.723" fill="#fff"/>
      <path id="Tracé_4365" data-name="Tracé 4365" d="M568.094,423.694l20.054,26.152a5.632,5.632,0,1,1-8.938,6.855l-19.725-25.723" fill="none" stroke="#3d4550" stroke-width="1.744"/>
      <path id="Tracé_4366" data-name="Tracé 4366" d="M578.973,437.992l-24.907-37.031L520.81,419.1l17.86,37.665" fill="#fff"/>
      <path id="Tracé_4367" data-name="Tracé 4367" d="M578.973,437.992l-24.907-37.031L520.81,419.1l17.86,37.665" fill="none" stroke="#3d4550" stroke-width="1.901"/>
      <path id="Tracé_4368" data-name="Tracé 4368" d="M571.043,439.487c2.336,4.8,15.528,31.94,15.708,32.309a6.139,6.139,0,0,1-11.043,5.368c-.174-.356-12.537-25.787-15.45-31.777" fill="#fff"/>
      <path id="Tracé_4369" data-name="Tracé 4369" d="M571.043,439.487c2.336,4.8,15.528,31.94,15.708,32.309a6.139,6.139,0,0,1-11.043,5.368c-.174-.356-12.537-25.787-15.45-31.777" fill="none" stroke="#3d4550" stroke-width="1.901"/>
      <path id="Tracé_4370" data-name="Tracé 4370" d="M560.259,445.387l17.308,35.6a6.14,6.14,0,0,1-11.043,5.369c-.173-.357-14.653-30.14-17.566-36.131" fill="#fff"/>
      <path id="Tracé_4371" data-name="Tracé 4371" d="M560.259,445.387l17.308,35.6a6.14,6.14,0,0,1-11.043,5.369c-.173-.357-14.653-30.14-17.566-36.131" fill="none" stroke="#3d4550" stroke-width="1.901"/>
      <path id="Tracé_4372" data-name="Tracé 4372" d="M548.958,450.225l15.707,32.309a6.139,6.139,0,1,1-11.042,5.368c-.174-.356-12.537-25.787-15.45-31.777" fill="#fff"/>
      <path id="Tracé_4373" data-name="Tracé 4373" d="M548.958,450.225l15.707,32.309a6.139,6.139,0,1,1-11.042,5.368c-.174-.356-12.537-25.787-15.45-31.777" fill="none" stroke="#3d4550" stroke-width="1.901"/>
      <rect id="Rectangle_34" data-name="Rectangle 34" width="60.133" height="23.562" transform="translate(503.546 399.806) rotate(-13.635)" fill="#4dc494"/>
      <rect id="Rectangle_35" data-name="Rectangle 35" width="60.133" height="23.562" transform="translate(503.546 399.806) rotate(-13.635)" fill="none" stroke="#3d4550" stroke-width="2.538"/>
      <path id="Tracé_4374" data-name="Tracé 4374" d="M515.894,265.684s28.757,48.874,51.915,119.8l-68.517,22.573L436.336,302.176" fill="#fff"/>
      <path id="Tracé_4375" data-name="Tracé 4375" d="M515.894,265.684s28.757,48.874,51.915,119.8l-68.517,22.573L436.336,302.176" fill="none" stroke="#3d4550" stroke-width="2.538"/>
      <path id="Tracé_4376" data-name="Tracé 4376" d="M257.047,107.754l36.577,7.8L290.578,99.5l-3.457,3.13Z" fill="#3d4550"/>
      <path id="Tracé_4377" data-name="Tracé 4377" d="M257.047,107.754l36.577,7.8L290.578,99.5l-3.457,3.13Z" fill="none" stroke="#3d4550" stroke-linecap="round" stroke-linejoin="round" stroke-width="1.318"/>
      <path id="Tracé_4378" data-name="Tracé 4378" d="M226.389,63.7l.648,23.458a22.557,22.557,0,0,0,23.171,21.922l23.935-.663A21.244,21.244,0,0,0,294.8,86.809l-.555-31.287s3.617-27.461-16.416-26.939-39.347-4.191-48.744-.008S226.389,63.7,226.389,63.7" fill="#fff"/>
      <path id="Tracé_4379" data-name="Tracé 4379" d="M226.389,63.7l.648,23.458a22.557,22.557,0,0,0,23.171,21.922l23.935-.663A21.244,21.244,0,0,0,294.8,86.809l-.555-31.287s3.617-27.461-16.416-26.939-39.347-4.191-48.744-.008S226.389,63.7,226.389,63.7" fill="none" stroke="#3d4550" stroke-linecap="round" stroke-linejoin="round" stroke-width="1.686"/>
      <line id="Ligne_15" data-name="Ligne 15" x2="2.692" y2="3.017" transform="translate(256.697 91.466)" fill="none" stroke="#3d4550" stroke-linecap="round" stroke-linejoin="round" stroke-width="0.843"/>
      <line id="Ligne_16" data-name="Ligne 16" y1="3.161" x2="2.521" transform="translate(256.783 91.394)" fill="none" stroke="#3d4550" stroke-linecap="round" stroke-linejoin="round" stroke-width="0.843"/>
      <path id="Tracé_4380" data-name="Tracé 4380" d="M226.739,74.154C226.578,74.166,226.9,74.149,226.739,74.154Z" fill="none" stroke="#3d4550" stroke-linecap="round" stroke-linejoin="round" stroke-width="1.359"/>
      <path id="Tracé_4381" data-name="Tracé 4381" d="M219.711,56.562h0a10.083,10.083,0,0,0,7.028,17.591c-.008-.275.013-.551.016-.827h0c.029-2.646-.3-6.98-.367-9.623C226.359,62.491,219.878,56.412,219.711,56.562Z" fill="none" stroke="#3d4550" stroke-linecap="round" stroke-linejoin="round" stroke-width="1.686"/>
      <path id="Tracé_4382" data-name="Tracé 4382" d="M234.947,30.725s-7.431,12.471-7.94,36.483l-7.862-6.043s-6.586-3.947-2.225-14.409c2.462-5.907,1.884-8.926-.859-16.936a15.379,15.379,0,0,1-.351-9.555c2.024-6.265,8.263-11.378,17.973-6.323,0,0,1.918-18.182,22.794-13.021,0,0,6.134,1.787,14.5,10.293,0,0,1.729,1.3,11.865-.2,11.6-1.712,23.974,9.436,21.793,24.886S293.94,64.851,293.94,64.851l-2.267-17.387s-.887-10.061-6.761-11.811c-4.821-1.437-7.592,1.781-14.99,3.5-7.516,1.75-25.7,6.193-34.975-8.431" fill="#3d4550"/>
      <path id="Tracé_4383" data-name="Tracé 4383" d="M245.381,51.825a1.672,1.672,0,1,1-1.718-1.625,1.672,1.672,0,0,1,1.718,1.625" fill="#3d4550"/>
      <path id="Tracé_4384" data-name="Tracé 4384" d="M256.512,49.437c.018.652-2.185,24.71-2.185,24.71l4.518-1.69" fill="none" stroke="#3d4550" stroke-linecap="round" stroke-linejoin="round" stroke-width="1.686"/>
      <path id="Tracé_4385" data-name="Tracé 4385" d="M250.011,79.482s5.962-.4,16.766-1.489c0,0-.219,7.2-7.616,8.24C251.451,87.317,250.011,79.482,250.011,79.482Z" fill="none" stroke="#3d4550" stroke-linecap="round" stroke-linejoin="round" stroke-width="1.686"/>
      <line id="Ligne_17" data-name="Ligne 17" y1="2.92" x2="6.749" transform="translate(241.913 56.454)" fill="none" stroke="#3d4550" stroke-linecap="round" stroke-linejoin="round" stroke-width="0.989"/>
      <path id="Tracé_4386" data-name="Tracé 4386" d="M234.631,48.32A15.7,15.7,0,0,1,250.8,46.486" fill="none" stroke="#3d4550" stroke-linejoin="round" stroke-width="3.373"/>
      <path id="Tracé_4387" data-name="Tracé 4387" d="M280.542,47.884s-6.372-7.165-16.324-1.126" fill="none" stroke="#3d4550" stroke-linejoin="round" stroke-width="3.373"/>
      <path id="Tracé_4388" data-name="Tracé 4388" d="M298.624,51.271s.284.84,2.168,2.142a10.083,10.083,0,0,1-6.045,17.953c-.007-.275-.144-7.812-.227-10.454C294.482,59.7,298.449,51.13,298.624,51.271Z" fill="none" stroke="#3d4550" stroke-linecap="round" stroke-linejoin="round" stroke-width="1.686"/>
      <path id="Tracé_4389" data-name="Tracé 4389" d="M273.594,50.816a1.672,1.672,0,1,1-1.718-1.625,1.672,1.672,0,0,1,1.718,1.625" fill="#3d4550"/>
      <path id="Tracé_4390" data-name="Tracé 4390" d="M220.726,60.115a9.033,9.033,0,0,0-.416,5.323,6.924,6.924,0,0,0,3.814,4.364" fill="none" stroke="#3d4550" stroke-linecap="round" stroke-linejoin="round" stroke-width="1.686"/>
      <path id="Tracé_4391" data-name="Tracé 4391" d="M297.864,66.943s3-1.779,2.866-6.405c-.052-1.789-.126-4.542-4.26-6.251" fill="none" stroke="#3d4550" stroke-linecap="round" stroke-linejoin="round" stroke-width="1.686"/>
      <path id="Tracé_4392" data-name="Tracé 4392" d="M268.06,55.074s4.632-1.441,7.693.631" fill="none" stroke="#3d4550" stroke-linecap="round" stroke-linejoin="round" stroke-width="0.989"/>
    </g>
  </g>
</svg>
