<svg xmlns="http://www.w3.org/2000/svg" xmlns:xlink="http://www.w3.org/1999/xlink" width="3809.792" height="1083.722" viewBox="0 0 3809.792 1083.722">
  <defs>
    <clipPath id="clip-path">
      <rect id="Rectangle_52" data-name="Rectangle 52" width="3809.792" height="1083.722" transform="translate(0 -0.002)" fill="none"/>
    </clipPath>
    <clipPath id="clip-path-2">
      <path id="Tracé_11022" data-name="Tracé 11022" d="M1674.152,346.543c-57.565,43.081-202.018,121.376-206.3,131.148l-197.106,75.748L2441.131,752.015l-58.723-198.576c-2.3-6.584-22.283-15.948-28.813-13.5L2055.087,651.743,1816.515,360.72a263.845,263.845,0,0,0-47.259-44.937l-29.038-21.452c-2.614-3.167-5.61-4.537-8.861-4.536-19.687.006-48.611,50.315-57.205,56.748" fill="none"/>
    </clipPath>
    <clipPath id="clip-path-4">
      <path id="Tracé_11025" data-name="Tracé 11025" d="M1089.357,19.514c1.154,7.99-452.265,753.821-444.728,755.178s790.157-66.271,790.157-66.271S1092.167,19.5,1089.371,19.446c-.016,0-.021.023-.014.068" fill="none"/>
    </clipPath>
    <clipPath id="clip-path-8">
      <path id="Tracé_11265" data-name="Tracé 11265" d="M1781.448,531.241s-31.344-66.346-72.106-61.438a235.069,235.069,0,0,1-30.466,1.521c-17.628-.014-27.012-.029-42.194,16.357-22.083,23.834-69.4,94.99-89.907,119.527s-49.952,43.9-86.757,58.753-93.24,45.429-93.24,45.429a480.59,480.59,0,0,1,51.5,12.637c27.014,8.318-9.791,29.668-51.5,39.85s-38.959,13.108-62.419,19.006-35.728,9.612-35.728,9.612l53.981,34.143-47.846,23.687,92.012,41.1L1523.8,986.12c24.636,4.54,96.937,13.128,115.475,12.542,6.923-.219,20.308.324,37.454.868,28.768.911,68.122,1.822,105.293-.868,22.964-1.662,56.317-1.57,91.026-1.478,54.951.147,113.3.293,139.214-6.524,42.278-11.124,119.638-30.647,104.055-34.6,0,0-114.039-97.81,3.738-110.463s110.629-15.6,90.785-26.948-41.712-13.078-41.712-13.078l34.352-31.694,54.1-10V731.488s2.256-15.079,9.658-18.153,37.9-14.557,37.9-14.557l27.993-27.254S2230.042,554.886,2191,495.169s-66.035-37.35-110.2-47.307c-23.431-5.282-39.861,13.113-50.882,31.507-9.753,16.279-15.269,32.558-17.652,32.426-5.076-.28.032-100.88-25.831-122.964a139.231,139.231,0,0,0-49.167-27.6,160.368,160.368,0,0,0-36.011-6.754c-.354-.028-.705-.041-1.063-.041-31.56.012-82.35,106.54-118.742,176.8" fill="none"/>
    </clipPath>
  </defs>
  <g id="Groupe_85" data-name="Groupe 85" transform="translate(0 0.002)">
    <g id="Groupe_68" data-name="Groupe 68">
      <g id="Groupe_67" data-name="Groupe 67" clip-path="url(#clip-path)">
        <path id="Tracé_11019" data-name="Tracé 11019" d="M1467.853,477.691c4.28-9.772,148.734-88.067,206.3-131.148,10.014-7.495,47.62-74.553,66.066-52.212l29.038,21.453a263.777,263.777,0,0,1,47.26,44.936l238.572,291.023,298.507-111.8c6.531-2.447,26.514,6.917,28.814,13.5l58.722,198.576L1270.747,553.439Z" fill="#c1c4c7"/>
      </g>
    </g>
    <g id="Groupe_70" data-name="Groupe 70">
      <g id="Groupe_69" data-name="Groupe 69" clip-path="url(#clip-path-2)">
        <path id="Tracé_11020" data-name="Tracé 11020" d="M1594.5,370.353s77.617-22.187,87.83-21.734,11.337,46.184,19.456,43.921,21.4-42.11,29.565-41.2,48,38.94,48,38.94,4.085-43.029,14.3-41.664,67.4,32.155,67.4,32.155L1748.714,264.4Z" fill="#f5f5f6"/>
        <path id="Tracé_11021" data-name="Tracé 11021" d="M2292.987,541.084s39.061,8.134,43.426,10.68-5.656,22.813-1.583,23.689,19.04-13.507,22.407-11.232,12.051,28.071,12.051,28.071,11.678-17.888,15.833-14.943,22.1,29.563,22.1,29.563l-22.406-76.738Z" fill="#f5f5f6"/>
      </g>
    </g>
    <g id="Groupe_72" data-name="Groupe 72">
      <g id="Groupe_71" data-name="Groupe 71" clip-path="url(#clip-path)">
        <path id="Tracé_11023" data-name="Tracé 11023" d="M1434.786,708.421S1088.2,11.523,1089.356,19.514,637.092,773.334,644.629,774.692s790.157-66.271,790.157-66.271" fill="#c1c4c7"/>
      </g>
    </g>
    <g id="Groupe_74" data-name="Groupe 74">
      <g id="Groupe_73" data-name="Groupe 73" clip-path="url(#clip-path-4)">
        <path id="Tracé_11024" data-name="Tracé 11024" d="M944.96,190.578s77.617-39.908,87.83-39.094,11.337,83.074,19.456,79,21.4-75.744,29.565-74.115,48,70.043,48,70.043,4.085-77.4,14.3-74.942,67.4,57.838,67.4,57.838L1099.173,0Z" fill="#f5f5f6"/>
      </g>
    </g>
    <g id="Groupe_76" data-name="Groupe 76">
      <g id="Groupe_75" data-name="Groupe 75" clip-path="url(#clip-path)">
        <path id="Tracé_11026" data-name="Tracé 11026" d="M1052.246,578.841c4.51-6.359,168.424-266.344,266.5-408.98,35.173-51.153,34.723-85.787,66.434-94.5,48.4-13.3,48.546,78.383,113.31,167.572,119.525,164.6,293.75,388.513,290.025,387.3L2135.4,378.852c11.137-8.072,25.492,36.318,34.071,47.07L2484.16,776.538Z" fill="#d1d1d1"/>
      </g>
    </g>
    <g id="Groupe_78" data-name="Groupe 78">
      <g id="Groupe_77" data-name="Groupe 77" clip-path="url(#clip-path)">
        <path id="Tracé_11027" data-name="Tracé 11027" d="M1546.775,963.814s6.4-24.57,55.594-34.181,26.029-47.281,73.876-59.437,62.122-40.274,95.246-34.028,84.979-61.292,84.979-61.292l44.783-26.768s-85.453-31.221-111.217-48.852-80.971-115.358-150.9-133.188-135.479-20.52-190.686-36.89-195.658,23.088-258.227-5.613-379.171-39.229-379.171-39.229c-133-2.653-705.892-143.739-808.5-148.015L77.84,963.814" fill="#fff"/>
        <path id="Tracé_11028" data-name="Tracé 11028" d="M1546.775,963.814s6.4-24.57,55.594-34.181,26.029-47.281,73.876-59.437,62.122-40.274,95.246-34.028,84.979-61.292,84.979-61.292l44.783-26.768s-85.453-31.221-111.217-48.852-80.971-115.358-150.9-133.188-135.479-20.52-190.686-36.89-195.658,23.088-258.227-5.613-379.171-39.229-379.171-39.229c-133-2.653-705.892-143.739-808.5-148.015L77.84,963.814" fill="none" stroke="#616d78" stroke-width="4.503"/>
        <path id="Tracé_11029" data-name="Tracé 11029" d="M3807.606,1030.28,3739.2,751.9s-209.491,24.781-277.9,21.979-239.419-39.951-320.65-49.805-175.289-7.247-267.873,22.249c0,0-140.962,39.6-263.993,7.544-66.971-17.45-123.031-33.126-275.661-82.343l-75.549,16.655s-323.2,4.869-356.324,35.428-141.887,84.8-141.887,84.8,313.292,262.019,640.857,273.061" fill="#fff"/>
        <path id="Tracé_11030" data-name="Tracé 11030" d="M3807.606,1030.28,3739.2,751.9s-209.491,24.781-277.9,21.979-239.419-39.951-320.65-49.805-175.289-7.247-267.873,22.249c0,0-140.962,39.6-263.993,7.544-66.971-17.45-123.031-33.126-275.661-82.343l-75.549,16.655s-323.2,4.869-356.324,35.428-141.887,84.8-141.887,84.8,313.292,262.019,640.857,273.061" fill="none" stroke="#616d78" stroke-width="4.503"/>
        <path id="Tracé_11031" data-name="Tracé 11031" d="M1564.194,913.967c33.37,7.173,71.374,22.931,79.716,24.785s34.3,25.062,34.3,25.062" fill="none" stroke="#616d78" stroke-width="4.503"/>
      </g>
    </g>
    <g id="Groupe_80" data-name="Groupe 80">
      <g id="Groupe_79" data-name="Groupe 79" clip-path="url(#clip-path)">
        <path id="Tracé_11032" data-name="Tracé 11032" d="M1587.493,845.423c.29-.2,0-.115-.18-.179Z" fill="#737d87"/>
        <path id="Tracé_11033" data-name="Tracé 11033" d="M1587.312,845.243l-.127-.127a.172.172,0,0,0,.127.127" fill="#737d87"/>
        <path id="Tracé_11034" data-name="Tracé 11034" d="M1586.018,844.252c.445-.033.66.486,1.049.266-.213-.385-.76-.588-1.049-.266" fill="#737d87"/>
        <path id="Tracé_11035" data-name="Tracé 11035" d="M1586.38,844.744l.143-.159-.443.122Z" fill="#737d87"/>
        <path id="Tracé_11036" data-name="Tracé 11036" d="M1586.488,845.027l0-.09-.547-.067Z" fill="#737d87"/>
        <path id="Tracé_11037" data-name="Tracé 11037" d="M1585,843.5l.351.134c.162.421-.39.22-.282.5.4.229.433-.438.89-.068.092-.257-.807-.459-.517-.78-.357-.357-.144.205-.442.212" fill="#737d87"/>
        <path id="Tracé_11038" data-name="Tracé 11038" d="M1564.719,833.583a.411.411,0,0,0-.022-.062c-.008.049-.008.088.022.062" fill="#737d87"/>
        <path id="Tracé_11039" data-name="Tracé 11039" d="M1559.465,830.317a.986.986,0,0,0-.158-.215.392.392,0,0,0,.016.151Z" fill="#737d87"/>
        <path id="Tracé_11040" data-name="Tracé 11040" d="M1568.378,835.056a1.548,1.548,0,0,0,.146.222.294.294,0,0,0-.146-.222" fill="#737d87"/>
        <path id="Tracé_11041" data-name="Tracé 11041" d="M1538.062,810.3a.321.321,0,0,0,.1-.073l0-.014-.125.042Z" fill="#737d87"/>
        <path id="Tracé_11042" data-name="Tracé 11042" d="M1553.462,826.791a1.079,1.079,0,0,0-.252-.13c.127.1.2.135.252.13" fill="#737d87"/>
        <path id="Tracé_11043" data-name="Tracé 11043" d="M1570.252,836.251l-.077-.052a.556.556,0,0,0,.074.1l.007-.044Z" fill="#737d87"/>
        <path id="Tracé_11044" data-name="Tracé 11044" d="M1560.8,831.937a.685.685,0,0,0-.156-.17.612.612,0,0,0,.156.17" fill="#737d87"/>
        <path id="Tracé_11045" data-name="Tracé 11045" d="M1580.334,840.229a.289.289,0,0,0-.25-.107c.024.089.092.143.25.107" fill="#737d87"/>
        <path id="Tracé_11046" data-name="Tracé 11046" d="M1578.435,839.139l.012.005c.016-.05.005-.044-.012-.005" fill="#737d87"/>
        <path id="Tracé_11047" data-name="Tracé 11047" d="M1577.256,838.384l.027,0c.005-.04,0-.05-.027,0" fill="#737d87"/>
        <path id="Tracé_11048" data-name="Tracé 11048" d="M1580.084,840.123c-.07-.237.159-.725-.343-.341v.092c-.051-.188-.348-.1-.5-.164a.681.681,0,0,0-.023.153,2.45,2.45,0,0,1,.274.236c.106.208.361.034.59.024" fill="#737d87"/>
        <path id="Tracé_11049" data-name="Tracé 11049" d="M1564.8,833.507c-.043.1.112.137,0,0" fill="#737d87"/>
        <path id="Tracé_11050" data-name="Tracé 11050" d="M1566.63,834.191l-.147-.119a.265.265,0,0,0,.147.119" fill="#737d87"/>
        <path id="Tracé_11051" data-name="Tracé 11051" d="M1572.557,838.217l-.016-.038c-.041.046-.013.053.016.038" fill="#737d87"/>
        <path id="Tracé_11052" data-name="Tracé 11052" d="M1566.343,833.973c.049.03.095.065.141.1a.2.2,0,0,0-.141-.1" fill="#737d87"/>
        <path id="Tracé_11053" data-name="Tracé 11053" d="M1570.911,836.8c-.007-.01-.01-.023-.017-.029a.041.041,0,0,0,.017.029" fill="#737d87"/>
        <path id="Tracé_11054" data-name="Tracé 11054" d="M1518.21,788.844c.136.069.082.235.142.364.49-.052-.425-.454.128-.379a.689.689,0,0,0-.312-.166l-.133.389c.286.093-.033-.212.175-.208" fill="#737d87"/>
        <path id="Tracé_11055" data-name="Tracé 11055" d="M1537.224,808.553l.023.065c.079-.154.142-.168.024-.389-.318.061-.336.554-.785.537a.384.384,0,0,1,.186.188c.043-.267.306-.353.552-.4" fill="#737d87"/>
        <path id="Tracé_11056" data-name="Tracé 11056" d="M1536.673,808.954l-.005.021a.457.457,0,0,0-.021.1.283.283,0,0,1,.078.123.387.387,0,0,0-.052-.246" fill="#737d87"/>
        <path id="Tracé_11057" data-name="Tracé 11057" d="M1521.373,792.358l.088.137c0-.1-.038-.137-.088-.137" fill="#737d87"/>
        <path id="Tracé_11058" data-name="Tracé 11058" d="M1556.6,823.292a1.819,1.819,0,0,0,.222.02.261.261,0,0,0-.222-.02" fill="#737d87"/>
        <path id="Tracé_11059" data-name="Tracé 11059" d="M1539.533,811.046a.6.6,0,0,0,.093.152l.093.056Z" fill="#737d87"/>
        <path id="Tracé_11060" data-name="Tracé 11060" d="M1528.719,806.176c.373-.225-.092-.038-.108-.38l-.318.012a1.363,1.363,0,0,0,.426.368" fill="#737d87"/>
        <path id="Tracé_11061" data-name="Tracé 11061" d="M1518.178,788.632l-.029.024.019.006Z" fill="#737d87"/>
        <path id="Tracé_11062" data-name="Tracé 11062" d="M1523.778,801.658c-.014-.042-.027-.078-.04-.116a.21.21,0,0,0,.04.116" fill="#737d87"/>
        <path id="Tracé_11063" data-name="Tracé 11063" d="M1537.556,809.961l.627.579-.12-.241c-.225.078-.254-.45-.507-.338" fill="#737d87"/>
        <path id="Tracé_11064" data-name="Tracé 11064" d="M1531.273,808.832l-.112.24c.987.182,1.221,1.4,2.237,1.283.2,1.355,1.042-.15,1.238,1.079l.059-.117c2.253,2.2,4.54,4.681,7.073,6.237l-.117.133c1.74,1.621,3.6,3.053,5.445,4.485,1.876,1.4,3.769,2.758,5.6,4.238.453.126.473-.344.9-.282.123.109.436.31.307.487-.328-.09-.3.171-.437.176.441.293.843.9,1.383.961l-.153-.461c.219.013.4.247.53.356-.142.075-.129.467-.286.438,1.219.018.451.7,1.293.971.487-.389,1.621-.172,2.426-.116l.2.337c-.39-.281-.247.364-.714-.009.3.438.833.485,1.163.833a.27.27,0,0,1,.339-.27c.19.232.037.493.291.707l-.376-.033c.051.31.377.175.566.262-.09.243.29.563.058.742.562-.027.581.221,1.1.317-.258-.5.294-.2.367-.4l-.517-.239c.554.589-.237-.11-.433.275-.193-.374.822-.287.273-.588.735.245.755.493,1.581.635-.422-.2.23-.18.1-.428.487.318.033.206.025.535.267.171.225.438.643.344.349.4-.245.221-.13.513-.323.135-.969-1.116-1.388-.261-.226-.145-.7-.036-1.009-.274.208.3.43.826.9.888l.318-.424c.269.17.526-.09.687.08-.186.057-.133.366.1.476-.017-.1-.111-.147-.036-.208.411.238.669-.024,1.187.214a4.366,4.366,0,0,1-.518-1c.306-.241.281.129.515.237-.059.02-.109,0-.089.1l.324.007c.384.461-.363.4-.072.823.1.44.474.1.586.391l.011-.1a.511.511,0,0,1,.091.091.074.074,0,0,1,.011-.024c.285.124.543.331.77.148-.043.123.244.118.375.1.205,0,.727-.046.691.466-.007,0-.01-.007-.017-.008.288.255.459.536.308.616l.452.433-.254.266c.522.228.592.021,1.117-.078a1.822,1.822,0,0,0,1.193.679.5.5,0,0,0,.188.12l-.117-.248c.357.253.414.068.659.22-.033-.06-.029-.082.077.052l.125.111c-.033.024-.084-.015-.129-.066l-.021.13c.088.51.572.1.815.416a.391.391,0,0,1-.132-.042c.125.194.1.786.347.57.019.059.116.046.219.019l.1.128a.819.819,0,0,1-.1-.128c.137-.036.283-.1.252-.024l.42.341a.431.431,0,0,0,.321.151l0,.176c.177.085.131.162.089.184.3.8,1.031.336,1.413,1.111.251-.137.054-.4.106-.522a2.666,2.666,0,0,1,.894-.029c.093.47.782,1.263.386,1.6.5.345,0-.359.35-.35l.049.053a.87.87,0,0,1-.2-.614c.1-.25.6-.041.7.108l-.3.268c.548.173.749-.378,1.246-.528.3.358-.1.524-.2.865l.449.159-.15.246c.3.091.5-.1.8.21-.4.076.4.554-.147.65.15.2.495-.239.4.151.3-.18-.1-.239-.151-.382.146-.428.548.082.846.127-.1.208-.3.135-.094.435a.262.262,0,0,1,.447.157c.148-.247.35.143.5.254-.152-.157-.3-.494-.059-.638a.832.832,0,0,1,.648.233l-.151-.248c.494-.2.3.539.751.651a2.713,2.713,0,0,0-.594.091,6.874,6.874,0,0,1,1.042.066l.11.55c.147-.159.355.225.5-.024.305.4-.5.114-.646.273.411.454.647-.183.911.475l-.3.14c.152.109.553.161.506.289.049-.083-.052-.1-.153-.154.388-.442.949.078,1.186-.472l-.2-.161c.4.095.843-.116,1,.216.106.281-.342.269-.539.334.3.217.586-.417.941-.149-.154-.2-.01-.36.186-.423-.2-.161-.607-.523-.65-.26l.051.1c-.1.122-.246.1-.345.135-.3-.174-.007-.314-.01-.449-.456-.369-.338.492-.79.212l0-.134c-.3.006-.653-.172-.9.109-.009-.448-.6-.167-.708-.492.385-.753.757.5,1.252.25-.155-.289.342-.27.539-.379l-.947-.12c0-.135-.014-.626-.308-.44l.05.051c-.351-.09-.444.255-.645,0,0-.09.147-.159.195-.2-.2-.21-.3.046-.494.016-.2-.208.295-.226.144-.427-.443.115-.4-.329-.648-.456-.142.474-1.287-.011-.985.663l-.744-.066c-.052-.322.741-.338.788-.78l.449.29c.23-.557-1.159-.242-1.121-1-.23-.169-.214-.061-.523-.593l-.2.5a.691.691,0,0,1-.065-.634,1.253,1.253,0,0,1-.4-.241.323.323,0,0,1,.261-.051c-.027-.36-.137-.3-.281-.2-.168.056-.307-.048-.454-.143l.238-.087c-.114-.017-.257-.036-.317.04a.487.487,0,0,0-.2-.067,1.126,1.126,0,0,0,.073.675c-.447-.515-.948-.673-1.184-1.348.1-.12.4-.159.346-.213a.453.453,0,0,0-.691.063.655.655,0,0,1-.141-.063c.025-.141.045-.3-.055-.386a.242.242,0,0,0-.091-.185c-.3.309-.641-.155-.84-.053a1.074,1.074,0,0,0,.354.254c-.338.12-.679.286-.7,0,.494-.006-.141-.609.45-.374-.087-.689-.4.2-.691-.207l-.142-.339c.2-.236.494.129.5-.006l-.2-.078c.3-.084.884.465,1.476.43l-.73-.664c-1.23-.343-2.293-1.513-3.537-1.5l.042.016a.655.655,0,0,0-.146.149l0-.089-.3.085c-.04-.37-.373-.661-.559-1.058.091.288.091.288-.015.494-.207.233-.308.322-.536.034.116-.184.292-.061.173-.348.052.163-.131.226-.273.166-.086-.227-.341-.432-.224-.618.108,0,.128.1.161.164.108,0-.2-.368.124-.369l-.329-.143c-.071-.267.272-.165.268-.308-.57-.2-1.1.053-1.624-.117a3.487,3.487,0,0,0,.276-.372c-.259-.348-1.025-.043-1.436-.268.138-.082.251.062.407.082a15.758,15.758,0,0,1-2.88-2.748l-.569.215-.1-.474a10.4,10.4,0,0,0-3.225-2.054c-.361-.211,0-.429-.079-.658-.7-.582-1.214-.254-1.984-.675.187-.054.6-.284.314-.521-.141.076-.311.234-.45.022l.187-.054c-.042-.309-.336-.26-.641-.6a3.53,3.53,0,0,0-2.32-.553c-.535-.453.38-.39.337-.556.29.438.33.13.519.054-.3-.039-.6-.155-.5-.522a1.416,1.416,0,0,0-.86-.327c.215.012.224.26-.008.288-.162-.28-.846-.63-.544-.962-1.421-.972-2.9-2.213-4.372-3.314-.385-.011.131.216-.1.239-.539-.044-.184-.345-.614-.382l.267-.1c-.4-.364-1.124-.365-1.672-.514.239-.164-.193-.448.249-.307-.229-.123.3-1.29-.009-1.212l-.5,1.085c-.082.08-.318-.2-.338-.115-.032-.318-.078-.7-.2-.794.124-.275.387.015.548.152.329-.363-.362-.689.157-.848-.4-.22-.106.236-.431.208l-.244-.328.137.318c-.35-.091-.672.128-.846-.36l-.658.086c.206-.329-.217-.264-.345-.48l.271-.1a.824.824,0,0,1-.37-.545c.351-.153.17.24.432.038l-.2-.3c-.137.171-.416.168-.307.424a1.259,1.259,0,0,1-1.451-.271c-.041-.521.509-.007.628-.389-.537-.654-1.4.1-1.744-.247-.379-.516-.572-.227-1.072-.612.317-.068-.163-.492-.1-.751l.36-.044c-.2-.062-.275-.256-.112-.361-.194.286-.833-.276-1.272-.428l-.131.273a2.753,2.753,0,0,1-1.033-.591c-.471-.273-.543,0-1.064-.027a.949.949,0,0,1,.488-.767c.011.208.251.3.37.525.681.245,1.487.106,1.911.647.682-.357-.4-.228-.493-.629a.078.078,0,0,1,.086-.011.167.167,0,0,1-.049-.068c.241.088.616.253.9.017-.356-.2-.682.355-.87-.2-.414-.086-.285-.706-.424-.888-.358.04-.737.467-1.125-.018l.46-.127c-.514-.459-.624.231-1.094-.2.139.184-.419.154-.1.443a1.1,1.1,0,0,1-.862-.568c-.108-.014-.1.09-.2.181.109.463.635.2.613.706l.482-.15c.169.353-.029.64-.3.624.087.053.193.066.2.171-.375.532-.175-.457-.626-.123l.221.132c-.19.39-.687-.11-.915-.348-.15-.392-.358-.668-.178-.914l.46.227c-.035-.353-.571-.308-.781-.507a.222.222,0,0,0,0-.125.17.17,0,0,1-.037.079.265.265,0,0,1-.041-.2c-.18-.178-.583-.283-.7-.511l-.157.224.125-.094c.168.16.3.493.029.53-.519-.2-.254-.665-.192-.925.366-.233.383.339.677.406.15-.414-.372-.381-.6-.94.46-.2.467.416.831.18-.277-.343-.574-.176-.843-.563.183-.118.531.159.687-.062l-.136-.289c.559.452.277-.5.772-.219-.077-.313-.522.034-.615-.427-.052.216-.062.682-.451.578l-.219-.367c.017-.275.639-.081.561-.393l-.422-.165c-.079.11.03.3-.189.35-.089-.27-.65.123-1,.081-.164-.162-.281-.307-.237-.48-.7-.1-1.234-.6-1.886-.685.453.047.3-.351.273-.65.35.242.636-.069.8-.29-.22-.139-.636.071-.635.263-.2-.417-.416.018-.5-.447-.082-.272.371-.226.416-.4-.329-.326-.439.3-.744-.117.058-.023.1-.005.127-.09a.517.517,0,0,0-.675-.183c.159-.6-.642-.505-.238-.86-.582-.336-.126.281-.348.331-.36-.006-.6-.484-.653-.651.128.1.338.093.4.259l.15-.366c-.42-.746-.962.275-1.313-.506.427.138.29-.113.615-.166-.152-.016-.528-.518-.451-.053a3.017,3.017,0,0,1-.4-.608,1.7,1.7,0,0,0-.844-.127,1.731,1.731,0,0,1-.347-.972c-.817-.406-1.083-1.292-1.947-1.719l.034.063c-.469-.541-.115.573-.643.053.389-.26-.107-.527-.113-.865-.483-.8-1.347-.869-1.727-1.677a.225.225,0,0,1,.313,0,8.545,8.545,0,0,0-1.171-1.272l.057-.022c-.393-.911-1.3-1.186-2.056-1.784.1.015.232-.092.318-.092-.266-.413-.747-1.016-1.28-.968-.074-.725-.36-.178-.557-1.01.028-.086.1,0,.15.024a3.394,3.394,0,0,0-.567-.816c-.767-.379-1.33-.118-1.853-.915.416-.462.511.308.882-.017-.208-.058-.412-.087-.484-.375.282-.055.133-.08.371-.159-.018-.254-1.019-.128-.974-.166-.094.075-.1.168.046.29-.429.1-.663-.64-1.078-.873.092.116.318.54-.013.613-.318-.538-.89-.28-1.359-.427-.177-.605.661-.049.906-.424.052-.177.153-.58.437-.522-.274-.434-.791-.447-1.166-.714l.1-.074c-.462-.427-1.312-.557-1.487-1.112l.086.3c-.125-.026-.313-.283-.616-.243.163-.124.021-.549.259-.539-.672.234-1.262-.784-1.934-.6.01-.236.3-.312.44-.373.227.33.223.516.558.494-.231-.237-.27-.527-.125-.589-.527.03-1.162-.458-1.577-.311-.008-.317-.078-.563.231-.725-.828-.621-.449,1.072-1.2.207-.1-.61.669.088.277-.527l.127.064c.31-.969-.707.139-1.075-.323.3-.374.525.083.512-.447-.446-.325-1.132-.038-1.375-.544l.208-.069c-.257-.235-.627-.8-.883-1.036.06-.073.083-.027.146.005-.285-.6-.36-.041-.456-.646l-.273.038c.049.3.208.836.632.907-.424-.071-.111.784-.525.927l.167-.058a7.341,7.341,0,0,0,1.257,3.011c.823.2.638,1.019,1.382,1.356.49-.284.177.029.694.426-.282-.2-.341.254-.251.462a.9.9,0,0,1,.474.151c-.053.223.166,1.121.645,1.084.133.408-.194.053-.336.068-.1.309.38.084.327.308a.132.132,0,0,1-.1.025,9.541,9.541,0,0,1,.929,1.292c.434-.333.565.311.9.382-.19.054.088.4.133.6l.521-.031c.474.007.133.5.566.684V790.3c.335.113.666.928.667,1.351,2.771,1.331,2.641,3.65,5.023,5.582.256.023.092-.3.374-.36a2.761,2.761,0,0,1,.5.431c-.073-.279-.172-.122-.043-.207l-.413-.194c.013-.043.058-.021.084-.105a1.065,1.065,0,0,1-.447-.26c.289.087.626-.145.776.22-.059.019-.1,0-.2-.044.19.234.337.108.422.342.132.258.172.122.074.271l.455.758c.641-.04.693.657.76.787-.318.191-.481-.322-.879-.218l.035.406.215-.192.258.367-.057.022c.116-.044.233-.086.243.065-.014.042-.039.129-.086.106l.335.108c-.338.085.134.259-.139.473.61.847,1.265.571,1.591,1.535.006-.218.584-.194.742.043.057.171.033.255-.132.28l.386.123c-.041.7.521.761.88,1.355l-.13.087a1.135,1.135,0,0,1,.826.418l-.257.174c.185.469.689-.225.92.263.221-.241.106-.581.282-.84-.141.323.216.731.286.472.453.247.245.245.223.332l.351.054c.249.247-.208.389-.431.438.481-.037.577.385.815.677l-.211.006.323.373a1.258,1.258,0,0,1,.966.692l-.5.125c.063.36.21-.01.316-.012.481.154.356.435.373.778.843.162.61,1.508,1.507,1.453m41.246,29.12-.023-.091c.169.02.28.007.023.091m-3.315-2.263c.494.126.255.212.221.332-.332-.361-.628-.393-.9-.743a.739.739,0,0,1-.064.284.443.443,0,0,1-.145-.495c.41-.247.927.947.89.622m8.747,3a.938.938,0,0,1-.1.053l0,0Zm-2.226-.915a.309.309,0,0,0-.045-.239c-.023.121-.037.225.045.239m-3.714-2.974c.005-.209-.234-.3-.41-.358a2.043,2.043,0,0,0,.41.358m-24.34-17.186c.156.035.478.061.367-.195-.188.048-.2-.3-.424-.181a.184.184,0,0,1-.007-.032,1.608,1.608,0,0,0,.064.408m-11.733-7.866c.136-.116.342-.191.378-.337l.021.037c.013-.069.023-.126.07-.137-.064-.1-.126-.212-.221-.227-.408.409-.652.319-.248.664" fill="#737d87"/>
        <path id="Tracé_11065" data-name="Tracé 11065" d="M1541.032,811.009c-.047-.028-.077-.058-.109-.073a.807.807,0,0,0,.109.073" fill="#737d87"/>
        <path id="Tracé_11066" data-name="Tracé 11066" d="M1536.2,809.1c-.032.021.032.153.114.31.022-.076,0-.173-.114-.31" fill="#737d87"/>
        <path id="Tracé_11067" data-name="Tracé 11067" d="M1583.633,844.307l-.15-.019.157.289a.951.951,0,0,0,.887-.334c-.5.027-.651-.217-1.156-.415Z" fill="#737d87"/>
        <path id="Tracé_11068" data-name="Tracé 11068" d="M1584.384,842.526c0-.09-.007-.314-.058-.365l-.147.117Z" fill="#737d87"/>
        <path id="Tracé_11069" data-name="Tracé 11069" d="M1580.084,839.022l.3.357c.2-.06-.1-.553-.3-.357" fill="#737d87"/>
        <path id="Tracé_11070" data-name="Tracé 11070" d="M1580.208,842.638l.3-.046c-.1-.24-.352-.368-.5-.21.3.045,0,.135.2.256" fill="#737d87"/>
        <path id="Tracé_11071" data-name="Tracé 11071" d="M1579.093,838.383c-.3.226-.3-.358-.544-.125.149-.022.346.41.544.125" fill="#737d87"/>
        <path id="Tracé_11072" data-name="Tracé 11072" d="M1577.658,841.354c-.048.352.3.225.5.436-.2-.121-.3-.585-.5-.436" fill="#737d87"/>
        <path id="Tracé_11073" data-name="Tracé 11073" d="M1576.562,838.005c.148-.2.3-.088.447.069-.1.029-.2.1-.3.088a3.747,3.747,0,0,1,.7.106c-.147-.291-.446-.6-.246-.841-.3.093-.693.246-.6.578" fill="#737d87"/>
        <path id="Tracé_11074" data-name="Tracé 11074" d="M1577.058,841.04c.151.2.152.47.4.6a.418.418,0,0,0-.205-.569l.25-.186c-.151-.338-.1.388-.448.156" fill="#737d87"/>
        <path id="Tracé_11075" data-name="Tracé 11075" d="M1575.837,836.756l.048.187c.4-.022.686.3,1.032.084a1.986,1.986,0,0,0-1.08-.271" fill="#737d87"/>
        <path id="Tracé_11076" data-name="Tracé 11076" d="M1576.355,839.992l-.248.321c.25.216.05-.128.2-.149.049.1.15.2.249.171-.349-.141.149-.29-.2-.343" fill="#737d87"/>
        <path id="Tracé_11077" data-name="Tracé 11077" d="M1575.207,839.813l-.445-.077.046.55c.495.131.151-.2.4-.473" fill="#737d87"/>
        <path id="Tracé_11078" data-name="Tracé 11078" d="M1574.914,839.31v-.091l-.845.171a2.31,2.31,0,0,0,.844-.08" fill="#737d87"/>
        <path id="Tracé_11079" data-name="Tracé 11079" d="M1569.94,833.025c-.153.106.033.487.009.24.136-.081-.146-.537-.009-.24" fill="#737d87"/>
        <path id="Tracé_11080" data-name="Tracé 11080" d="M1569.423,836.556c-.078-.208-.7-.326-.98-.369.3.1.888.589.98.369" fill="#737d87"/>
        <path id="Tracé_11081" data-name="Tracé 11081" d="M1568.33,836.168l.113.019a.254.254,0,0,0-.113-.019" fill="#737d87"/>
        <path id="Tracé_11082" data-name="Tracé 11082" d="M1558.874,830.818a.133.133,0,0,0-.091-.007l.091.007" fill="#737d87"/>
        <path id="Tracé_11083" data-name="Tracé 11083" d="M1559.144,830.883a.538.538,0,0,0,.612.141,3.418,3.418,0,0,0-.883-.206c.112.052.158.244.271.065" fill="#737d87"/>
        <path id="Tracé_11084" data-name="Tracé 11084" d="M1557.167,829.369c.169-.013.279.137.341-.026-.015-.1-.342-.12-.341.026" fill="#737d87"/>
        <path id="Tracé_11085" data-name="Tracé 11085" d="M1546.981,815.3c-.127-.217-.279-.25-.387-.014.209.162.19-.045.387.014" fill="#737d87"/>
        <path id="Tracé_11086" data-name="Tracé 11086" d="M1546.324,815.136l.054-.117v-.246Z" fill="#737d87"/>
        <path id="Tracé_11087" data-name="Tracé 11087" d="M1545.291,813.833a.215.215,0,0,1,.144-.022c-.092-.032-.174-.055-.144.022" fill="#737d87"/>
        <path id="Tracé_11088" data-name="Tracé 11088" d="M1545.481,813.829a.207.207,0,0,0-.046-.017Z" fill="#737d87"/>
        <path id="Tracé_11089" data-name="Tracé 11089" d="M1545.512,813.959l.1-.092a.6.6,0,0,1-.13-.038.089.089,0,0,1,.031.13" fill="#737d87"/>
        <path id="Tracé_11090" data-name="Tracé 11090" d="M1544.945,813.487l-.005.495c.366.06-.157-.387.345-.5Z" fill="#737d87"/>
        <path id="Tracé_11091" data-name="Tracé 11091" d="M1544.049,812.879c-.147-.285-.86-.094-.7-.55-.795-.353-.335.706-1.182.223.548.761.913-.376,1.37.333-.119-.465.342-.005.511-.006" fill="#737d87"/>
        <path id="Tracé_11092" data-name="Tracé 11092" d="M1543.674,813.558c.181-.145-.094-.4-.281-.359.068.089.011.455.281.359" fill="#737d87"/>
        <path id="Tracé_11093" data-name="Tracé 11093" d="M1542.662,811.988l-.084-.3-.145.069Z" fill="#737d87"/>
        <path id="Tracé_11094" data-name="Tracé 11094" d="M1541.974,811.3l.361-.042c-.129.026-.4-.229-.361.042" fill="#737d87"/>
        <path id="Tracé_11095" data-name="Tracé 11095" d="M1541.148,810.181c-.122-.218-.679.11-.213.326l-.071-.09c.083-.054.017-.388.284-.236" fill="#737d87"/>
        <path id="Tracé_11096" data-name="Tracé 11096" d="M1538.157,808.862c.113.116.308.183.365.066l-.415-.2Z" fill="#737d87"/>
        <path id="Tracé_11097" data-name="Tracé 11097" d="M1537.238,810.023c-.129.378.335.252.478.539-.207-.275-.143-.287-.478-.539" fill="#737d87"/>
        <path id="Tracé_11098" data-name="Tracé 11098" d="M1538.12,808.133c.19-.037.265.159.332.251.1-.195-.167-.354-.332-.251" fill="#737d87"/>
        <path id="Tracé_11099" data-name="Tracé 11099" d="M1537.5,807.765c-.01-.208.16-.135.145-.283a.649.649,0,0,0-.652-.489c-.042.172-.24.567-.46.622.461.228,1.1-.121.939.434l.735-.214c-.23-.339-.525.14-.707-.07" fill="#737d87"/>
        <path id="Tracé_11100" data-name="Tracé 11100" d="M1537.457,809.348l-.059-.338c-.1.193-.274.088-.426.047-.257.4.352.212.485.291" fill="#737d87"/>
        <path id="Tracé_11101" data-name="Tracé 11101" d="M1535.243,806.172l-.492-.3.118.143Z" fill="#737d87"/>
        <path id="Tracé_11102" data-name="Tracé 11102" d="M1535.074,805.818l.08-.112-.486-.1Z" fill="#737d87"/>
        <path id="Tracé_11103" data-name="Tracé 11103" d="M1534.745,805.3l.035.061.324.134Z" fill="#737d87"/>
        <path id="Tracé_11104" data-name="Tracé 11104" d="M1533.938,804.443l-.056.217c.14.057.2.415.362.2a.4.4,0,0,1-.306-.414" fill="#737d87"/>
        <path id="Tracé_11105" data-name="Tracé 11105" d="M1527.632,805.529c.166-.027.2-.154.234-.282l-.352.137c.048.02.142.061.118.145" fill="#737d87"/>
        <path id="Tracé_11106" data-name="Tracé 11106" d="M1527.5,804.661l-.571-.01c.313.382.573.2.928.446-.05-.212-.426-.177-.52-.411Z" fill="#737d87"/>
        <path id="Tracé_11107" data-name="Tracé 11107" d="M1521.578,798.568c.2-.15.109-.193.445-.086a4.618,4.618,0,0,1-1.015-.816c-.05.171-.5.1-.321.189l.5.283-.178.062c.141.408.375-.019.573.368" fill="#737d87"/>
        <path id="Tracé_11108" data-name="Tracé 11108" d="M1508.35,780.714c.124-.041.163-.163.2-.284-.316-.156-.138.316-.2.284" fill="#737d87"/>
        <path id="Tracé_11109" data-name="Tracé 11109" d="M1672.111,764.4c.409-.042.009-.135-.249-.332Z" fill="#737d87"/>
        <path id="Tracé_11110" data-name="Tracé 11110" d="M1671.862,764.063l-.176-.236a.429.429,0,0,0,.176.236" fill="#737d87"/>
        <path id="Tracé_11111" data-name="Tracé 11111" d="M1670.069,762.027c.622.254.915,1.015,1.463,1.011-.292-.6-1.057-1.206-1.463-1.011" fill="#737d87"/>
        <path id="Tracé_11112" data-name="Tracé 11112" d="M1670.568,762.854l.2-.095-.62-.146Z" fill="#737d87"/>
        <path id="Tracé_11113" data-name="Tracé 11113" d="M1670.714,763.262l0-.109-.762-.44Z" fill="#737d87"/>
        <path id="Tracé_11114" data-name="Tracé 11114" d="M1668.661,760.456l.489.392c.221.611-.545.008-.4.417.562.539.608-.241,1.242.5.132-.247-1.122-1.082-.716-1.276-.5-.665-.2.151-.617-.036" fill="#737d87"/>
        <path id="Tracé_11115" data-name="Tracé 11115" d="M1639.481,736.806c-.012-.035-.028-.059-.04-.088,0,.057,0,.1.04.088" fill="#737d87"/>
        <path id="Tracé_11116" data-name="Tracé 11116" d="M1631.491,730.376a2.428,2.428,0,0,0-.263-.338.535.535,0,0,0,.052.195Z" fill="#737d87"/>
        <path id="Tracé_11117" data-name="Tracé 11117" d="M1644.831,740.446a3.609,3.609,0,0,0,.235.346.65.65,0,0,0-.235-.346" fill="#737d87"/>
        <path id="Tracé_11118" data-name="Tracé 11118" d="M1594.779,698.279a.241.241,0,0,0,.116-.068l-.01-.018-.159.026Z" fill="#737d87"/>
        <path id="Tracé_11119" data-name="Tracé 11119" d="M1622.239,723.564a2.856,2.856,0,0,0-.384-.26,1.106,1.106,0,0,0,.384.26" fill="#737d87"/>
        <path id="Tracé_11120" data-name="Tracé 11120" d="M1647.631,742.87l-.113-.106a1.283,1.283,0,0,0,.113.161l.006-.05Z" fill="#737d87"/>
        <path id="Tracé_11121" data-name="Tracé 11121" d="M1633.672,732.978a1.721,1.721,0,0,0-.25-.279,1.5,1.5,0,0,0,.25.279" fill="#737d87"/>
        <path id="Tracé_11122" data-name="Tracé 11122" d="M1662.082,753.528a.767.767,0,0,0-.357-.283.433.433,0,0,0,.357.283" fill="#737d87"/>
        <path id="Tracé_11123" data-name="Tracé 11123" d="M1659.364,751.043l.017.013c.019-.052,0-.051-.017-.013" fill="#737d87"/>
        <path id="Tracé_11124" data-name="Tracé 11124" d="M1657.672,749.407l.037.021c.005-.046,0-.061-.037-.021" fill="#737d87"/>
        <path id="Tracé_11125" data-name="Tracé 11125" d="M1661.725,753.245c-.108-.33.192-.783-.5-.623l0,.111c-.08-.259-.493-.33-.7-.5a.587.587,0,0,0-.026.172c.1.1.218.236.4.455.158.317.508.26.83.388" fill="#737d87"/>
        <path id="Tracé_11126" data-name="Tracé 11126" d="M1639.581,736.75c-.045.1.177.225,0,0" fill="#737d87"/>
        <path id="Tracé_11127" data-name="Tracé 11127" d="M1642.246,738.5l-.222-.219a.714.714,0,0,0,.222.219" fill="#737d87"/>
        <path id="Tracé_11128" data-name="Tracé 11128" d="M1651.045,746.547c-.01-.02-.017-.036-.026-.056-.054.034-.013.058.026.056" fill="#737d87"/>
        <path id="Tracé_11129" data-name="Tracé 11129" d="M1641.812,738.092l.212.193a.534.534,0,0,0-.212-.193" fill="#737d87"/>
        <path id="Tracé_11130" data-name="Tracé 11130" d="M1648.606,743.906a.26.26,0,0,0-.026-.045.093.093,0,0,0,.026.045" fill="#737d87"/>
        <path id="Tracé_11131" data-name="Tracé 11131" d="M1555.086,669.167c.231.086.269.292.437.453.639-.057-.887-.569-.076-.467a1.786,1.786,0,0,0-.541-.213l.079.483c.453.117-.188-.265.1-.256" fill="#737d87"/>
        <path id="Tracé_11132" data-name="Tracé 11132" d="M1592.807,695.91l.064.087c.041-.177.123-.182-.144-.485-.422.01-.222.627-.863.512a1.073,1.073,0,0,1,.348.275c-.062-.327.27-.38.595-.389" fill="#737d87"/>
        <path id="Tracé_11133" data-name="Tracé 11133" d="M1592.212,696.3a.2.2,0,0,1,0,.026.469.469,0,0,0,.016.124.74.74,0,0,1,.166.17.71.71,0,0,0-.184-.32" fill="#737d87"/>
        <path id="Tracé_11134" data-name="Tracé 11134" d="M1561.763,673.574l.206.176c-.072-.131-.137-.173-.206-.176" fill="#737d87"/>
        <path id="Tracé_11135" data-name="Tracé 11135" d="M1625.763,720.411c.113.046.227.088.322.116a.528.528,0,0,0-.322-.116" fill="#737d87"/>
        <path id="Tracé_11136" data-name="Tracé 11136" d="M1597.2,699.533a1.563,1.563,0,0,0,.194.217l.154.094Z" fill="#737d87"/>
        <path id="Tracé_11137" data-name="Tracé 11137" d="M1579.766,691.446c.4-.227-.146-.061-.338-.49l-.433-.031a3.689,3.689,0,0,0,.771.521" fill="#737d87"/>
        <path id="Tracé_11138" data-name="Tracé 11138" d="M1554.9,668.9a.18.18,0,0,1-.024.03l.03.007Z" fill="#737d87"/>
        <path id="Tracé_11139" data-name="Tracé 11139" d="M1570.571,685.284l-.118-.149a.433.433,0,0,0,.118.149" fill="#737d87"/>
        <path id="Tracé_11140" data-name="Tracé 11140" d="M1593.912,697.749l1.146.858-.278-.327c-.283.05-.559-.618-.868-.531" fill="#737d87"/>
        <path id="Tracé_11141" data-name="Tracé 11141" d="M1584.606,695.127l-.042.28c1.479.363,2.343,1.952,3.7,2,.88,1.734,1.383.016,2.2,1.59l.031-.134c4.156,3.143,8.281,6.843,12.438,9.41l-.116.135c3.033,2.489,6.089,4.86,9.173,7.182,3.05,2.366,6.094,4.727,9.086,7.205.664.333.573-.25,1.181-.006.2.184.688.558.552.73-.482-.241-.376.1-.568.05a10.541,10.541,0,0,0,2.171,1.739l-.325-.633a2.813,2.813,0,0,1,.829.652c-.181.038-.069.53-.3.432,1.718.5.8,1.049,2.045,1.715.6-.287,2.25.437,3.408.836l.361.5c-.609-.517-.268.343-1.012-.309.53.653,1.272.959,1.807,1.537-.018-.214.138-.34.421-.188.313.374.15.632.548,1.01l-.533-.207c.132.409.562.385.844.576-.078.263.515.828.224.947.783.217.857.533,1.6.882-.458-.737.375-.114.44-.333L1634,732.2c.891.978-.355-.242-.557.148-.342-.551,1.1.011.271-.608a19.957,19.957,0,0,0,2.351,1.5c-.634-.434.292-.118.065-.483.748.615.086.27.135.673.409.332.4.642.974.717.567.651-.307.16-.092.572-.433.02-1.574-1.815-2.008-.949-.345-.28-.993-.358-1.469-.788.346.457.755,1.21,1.422,1.495l.371-.381c.409.331.726.128.984.409-.253-.014-.122.391.229.632-.043-.135-.183-.231-.087-.271.622.477.941.273,1.717.8a9.689,9.689,0,0,1-.913-1.468c.391-.157.423.288.775.529-.081,0-.155-.053-.108.084l.46.157c.627.744-.442.329.042.979.207.6.677.362.877.772,0-.043,0-.09,0-.125a1.511,1.511,0,0,1,.14.158.067.067,0,0,1,.012-.024c.418.294.809.678,1.1.563-.042.131.359.267.541.312.287.1,1.014.3,1.038.921-.011,0-.016-.014-.025-.019.442.46.721.891.519.913l.7.76-.322.2c.766.542.836.323,1.564.465a4.889,4.889,0,0,0,1.774,1.434,1.344,1.344,0,0,0,.282.243l-.2-.363c.536.493.6.288.957.611-.052-.092-.049-.117.112.106l.187.205c-.043.012-.119-.064-.187-.151l-.015.149c.176.678.808.438,1.179.956a.923.923,0,0,1-.188-.124c.194.308.224,1.026.54.891.033.084.167.12.308.143l.154.213a2.13,2.13,0,0,1-.151-.211c.188.03.387.036.35.107l.619.649a1.149,1.149,0,0,0,.464.361l.012.214c.257.2.2.27.142.274.488,1.146,1.475.978,2.077,2.132.342-.028.044-.451.106-.576a5.392,5.392,0,0,1,1.258.463c.171.62,1.2,1.969.66,2.158.709.717-.02-.44.465-.223l.071.094a1.559,1.559,0,0,1-.313-.865c.129-.252.834.3.979.541l-.4.152c.77.536,1.02-.019,1.7.1.438.618-.11.581-.229.94l.633.461-.2.211c.421.289.69.173,1.124.734-.554-.147.583.913-.177.7.218.336.68.006.563.422.407-.041-.15-.35-.227-.555.185-.431.768.429,1.187.663-.128.194-.411-.016-.115.47a.567.567,0,0,1,.63.458c.2-.209.495.384.71.609-.217-.281-.442-.779-.1-.8a2.159,2.159,0,0,1,.916.673l-.22-.39c.687.064.445.834,1.077,1.241a4.994,4.994,0,0,0-.832-.252,15.251,15.251,0,0,1,1.466.715l.16.735c.2-.1.491.5.69.292.424.678-.687-.183-.889-.083.568.813.892.193,1.258,1.16l-.408-.021c.209.228.763.55.7.674.067-.07-.072-.15-.212-.285.536-.284,1.311.706,1.641.2l-.282-.326c.553.373,1.17.409,1.388.911.147.408-.476.1-.748.052.418.457.815-.121,1.307.435-.213-.34-.012-.44.262-.388-.281-.326-.846-1.029-.906-.74l.072.15c-.135.083-.343-.038-.48-.063-.421-.406-.01-.383-.014-.548-.635-.745-.469.374-1.1-.259l0-.164c-.415-.187-.9-.631-1.242-.449-.014-.549-.831-.59-.98-1.052.524-.669,1.05,1.093,1.732,1.111-.216-.45.472-.105.746-.108l-1.315-.762c-.005-.165-.025-.771-.43-.734l.07.094c-.487-.337-.613.024-.9-.406,0-.109.2-.1.27-.116-.288-.375-.416-.126-.7-.284-.289-.374.409-.091.189-.426-.62-.133-.573-.641-.929-.947-.184.484-1.81-.8-1.36.2l-1.045-.53c-.085-.422,1.025.039,1.074-.468l.643.626c.3-.536-1.638-1-1.617-1.891a2.793,2.793,0,0,1-.763-1.042l-.25.5a.833.833,0,0,1-.123-.813,3.546,3.546,0,0,1-.568-.535.524.524,0,0,1,.362.1c-.058-.458-.208-.448-.406-.417a1.363,1.363,0,0,1-.643-.449l.329.036c-.162-.09-.362-.2-.442-.142a1.3,1.3,0,0,0-.287-.2,1.436,1.436,0,0,0,.14.872,12.2,12.2,0,0,1-1.75-2.35c.13-.09.549.031.475-.062-.295-.371-.852-.514-.977-.315a2.062,2.062,0,0,1-.207-.157.558.558,0,0,0-.111-.5.479.479,0,0,0-.146-.277c-.4.206-.922-.552-1.2-.54a3.011,3.011,0,0,0,.525.511c-.469-.045-.935-.032-1-.395.7.271-.256-.825.6-.205-.188-.893-.545.025-1-.641l-.233-.5c.264-.176.71.437.7.272l-.287-.207c.416.065,1.3,1.068,2.135,1.361l-1.1-1.227c-1.776-1.116-3.4-3.16-5.152-3.834l.061.043c-.043,0-.092.035-.188.106l-.007-.111-.412-.06a8.7,8.7,0,0,0-.939-1.59c.169.4.169.4.046.6-.264.179-.4.236-.76-.235.14-.167.408.075.2-.339.1.227-.155.211-.365.064-.153-.324-.546-.708-.406-.878.154.057.2.194.253.287.153.056-.336-.557.124-.393l-.489-.346c-.141-.366.364-.063.338-.242-.844-.543-1.557-.5-2.328-.979a2.144,2.144,0,0,0,.336-.32c-.421-.566-1.461-.577-2.076-1.065.182-.032.364.205.589.308a62.153,62.153,0,0,1-4.574-4.83l-.772,0-.232-.635a29.362,29.362,0,0,0-5.007-4.057c-.555-.431-.1-.538-.262-.859-1.153-1.023-1.805-.827-3.01-1.673.254.01.795-.1.321-.522-.184.037-.388.163-.639-.159l.254.01c-.138-.405-.545-.465-1.067-1.02a8.4,8.4,0,0,0-3.441-1.643c-.878-.789.434-.341.33-.567.526.671.5.3.752.279-.43-.17-.9-.441-.845-.863a3.427,3.427,0,0,0-1.315-.756c.315.1.4.41.072.357-.314-.409-1.4-1.1-1.062-1.4-2.328-1.744-4.811-3.846-7.259-5.769-.557-.141.259.315-.069.265-.788-.231-.381-.491-1.011-.676l.35-.038a10.255,10.255,0,0,0-2.574-1.177c.286-.131-.431-.624.249-.308-.368-.226-.021-1.528-.441-1.53l-.324,1.212c-.089.075-.523-.349-.523-.251a2.95,2.95,0,0,0-.565-1.063c.078-.31.558.14.837.363.341-.353-.765-.985-.08-1.023-.657-.406-.066.266-.54.128l-.467-.492.31.446c-.533-.226-.91-.048-1.335-.72l-.9-.094c.172-.354-.4-.4-.664-.716l.347-.043a2.112,2.112,0,0,1-.726-.806c.442-.088.331.357.626.18l-.391-.446c-.131.176-.528.086-.278.446a2.714,2.714,0,0,1-2.175-.749c-.264-.664.726.129.746-.317-1.03-.967-1.96-.252-2.589-.778-.746-.748-.905-.436-1.768-1.051.422,0-.431-.662-.442-.973l.493.039c-.305-.129-.494-.4-.307-.486-.157.312-1.294-.566-1.977-.871l-.072.312a7.42,7.42,0,0,1-1.7-1.01c-.78-.46-.772-.124-1.522-.274a.653.653,0,0,1,.358-.851c.107.263.49.431.757.736,1.066.472,2.141.508,2.967,1.3.819-.276-.663-.393-.957-.924a.11.11,0,0,1,.117.008.445.445,0,0,1-.1-.1c.379.174.978.481,1.283.255-.59-.35-.818.275-1.316-.478-.622-.215-.7-.974-.976-1.239-.5-.031-.848.419-1.617-.273l.6-.057c-.939-.69-.787.151-1.65-.495.279.26-.528.1.05.532a2.93,2.93,0,0,1-1.478-.9c-.16-.04-.106.091-.208.184.362.6.988.382,1.184,1.015l.618-.083c.4.478.242.793-.156.714.147.085.3.124.359.257-.3.582-.45-.609-.942-.288l.372.211c-.1.447-1.022-.283-1.448-.627-.386-.522-.8-.913-.66-1.183l.752.381c-.207-.449-.946-.507-1.331-.8a.3.3,0,0,0-.054-.156.12.12,0,0,1-.018.091.488.488,0,0,1-.147-.261,8.7,8.7,0,0,1-1.214-.787l-.119.249.133-.093c.309.237.639.681.282.673-.821-.36-.659-.889-.691-1.2.407-.22.693.505,1.138.651.022-.491-.7-.558-1.276-1.311.557-.155.849.622,1.254.4-.547-.491-.889-.343-1.446-.886.2-.113.821.31.937.063l-.325-.4c1,.69.155-.581.987-.115-.254-.413-.72-.067-1.069-.672.029.264.232.853-.364.641l-.48-.511c-.106-.346.861.029.6-.384l-.673-.3c-.058.124.182.381-.1.4-.253-.361-.855.024-1.367-.1-.312-.233-.55-.433-.572-.64-1.035-.238-2.047-.962-3.006-1.17.661.132.245-.391.058-.769.616.36.863.017.979-.233-.382-.211-.864-.017-.766.225-.493-.556-.577-.046-.934-.643-.254-.356.408-.224.383-.436-.63-.463-.469.3-1.107-.268.07-.02.143.01.133-.092a1.069,1.069,0,0,0-1.042-.339c-.085-.732-1.16-.738-.777-1.123-.989-.517-.031.335-.317.363a2.51,2.51,0,0,1-1.249-.924c.231.146.52.17.688.389l.02-.44c-.982-1.005-1.188.184-2.108-.825.677.224.348-.1.778-.131-.223-.038-1.028-.708-.666-.121a8.263,8.263,0,0,1-.894-.8,3.369,3.369,0,0,0-1.257-.258,3.874,3.874,0,0,1-1.025-1.254c-1.371-.6-2.241-1.743-3.685-2.374l.082.083c-.959-.731.166.709-.862,0,.392-.286-.449-.675-.651-1.1-1.152-1.037-2.4-1.172-3.416-2.2.062-.073.2-.118.436.021a24.648,24.648,0,0,0-2.4-1.661l.066-.023c-1.1-1.162-2.533-1.564-3.944-2.354.141.023.262-.1.38-.1a4.535,4.535,0,0,0-2.4-1.229c-.576-.893-.614-.226-1.432-1.255-.018-.106.144,0,.223.032a9.515,9.515,0,0,0-1.322-1.02c-1.308-.482-1.9-.165-3.15-1.159.259-.569.9.389,1.195-.01a1.368,1.368,0,0,1-.915-.472c.35-.066.129-.1.4-.194-.2-.316-1.48-.17-1.443-.216-.078.092-.016.208.258.36-.514.126-1.331-.806-2.07-1.068.207.138.813.649.408.745-.811-.646-1.415-.317-2.157-.48-.662-.731.869-.081.944-.543-.052-.217-.2-.711.233-.648a8.584,8.584,0,0,0-2.1-.839l.082-.093c-.934-.509-2.18-.639-2.812-1.313l.33.365c-.186-.028-.625-.336-1.006-.275.133-.159-.363-.675-.035-.672-.74.314-2.264-.915-3.034-.657-.161-.284.171-.4.321-.481.543.4.67.626,1.1.585-.48-.282-.743-.638-.593-.721-.684.056-1.914-.471-2.362-.265-.247-.381-.525-.672-.23-.891-1.58-.684.2,1.326-1.465.346-.59-.728.966.051-.022-.659l.22.067c-.312-1.194-.846.225-1.686-.3.127-.477.768.057.35-.583-.844-.356-1.541.051-2.247-.54l.225-.1c-.52-.261-1.444-.916-1.961-1.176.023-.1.089-.04.2-.007-.832-.7-.507-.016-1.1-.743l-.332.072a2.664,2.664,0,0,0,1.529,1.043c-.615-.047.449.961.008,1.171l.177-.085a18.407,18.407,0,0,0,3.915,3.512c1.248.169,1.6,1.166,2.845,1.507.452-.378.257.025,1.227.484-.519-.235-.275.327-.009.577a1.86,1.86,0,0,1,.739.161c.087.275,1.005,1.357,1.62,1.29.463.49-.222.074-.4.1.078.38.567.084.653.36a.129.129,0,0,1-.113.034,25.715,25.715,0,0,1,2.139,1.526c.357-.421.975.353,1.47.426-.22.073.39.476.587.717l.685-.057c.65-.007.526.6,1.223.822l-.094-.175a4.489,4.489,0,0,1,1.781,1.663c4.61,1.66,5.959,4.421,10.316,6.951.364.041-.05-.363.3-.426a7.512,7.512,0,0,1,.942.559c-.265-.348-.309-.16-.182-.258l-.682-.262c-.007-.052.068-.023.054-.125a2.657,2.657,0,0,1-.767-.345c.447.123.77-.146,1.193.313-.069.021-.144-.008-.3-.065.4.3.526.151.782.446.335.325.309.16.263.338l1.073.96c.859-.014,1.34.847,1.508,1.01-.328.216-.851-.423-1.338-.318l.284.5.184-.224.569.466-.065.023c.134-.046.271-.091.372.094.005.051.021.156-.056.125l.524.153c-.419.083.334.324.08.569,1.325,1.075,2.052.819,3.033,2.042-.111-.271.7-.186,1.042.123.173.219.185.321-.028.336l.6.191c.325.869,1.129.995,1.943,1.766l-.132.094a2.8,2.8,0,0,1,1.366.6l-.264.187c.5.6.836-.2,1.416.422.181-.272-.159-.7-.052-1-.025.384.688.925.649.613.763.355.472.329.486.434l.514.113c.469.348-.09.459-.372.49.645.022.99.565,1.465.964l-.289-.022.632.513a3.27,3.27,0,0,1,1.681,1.005l-.632.082c.265.458.287.019.433.032.741.262.708.6.9,1.023,1.253.329,1.576,1.96,2.8,2.028m66.361,51.074-.04-.123c.238.116.392.162.04.123m-4.885-4.56c.717.406.39.389.357.518-.517-.61-.939-.8-1.373-1.366a.6.6,0,0,1-.052.316.733.733,0,0,1-.271-.681c.546-.095,1.436,1.63,1.339,1.213m12.58,8.559a.854.854,0,0,1-.134.005l0,0Zm-3.191-2.431a.438.438,0,0,0-.084-.316c-.023.134-.035.252.084.316m-5.534-5.733c-.017-.257-.363-.5-.617-.672a5.764,5.764,0,0,0,.617.672m-38.661-31.957c.234.092.7.226.455-.13-.251,0-.392-.445-.668-.362a.163.163,0,0,1-.02-.041,2.673,2.673,0,0,0,.233.533m-19.74-12.935c.138-.118.394-.17.38-.345l.047.051c-.013-.084-.025-.154.035-.158a1.132,1.132,0,0,0-.412-.331c-.39.43-.772.268-.05.783" fill="#737d87"/>
        <path id="Tracé_11142" data-name="Tracé 11142" d="M1599.3,699.867l-.184-.12c.048.036.1.072.184.12" fill="#737d87"/>
        <path id="Tracé_11143" data-name="Tracé 11143" d="M1591.616,696.385c-.035.02.115.2.3.413,0-.091-.079-.217-.3-.413" fill="#737d87"/>
        <path id="Tracé_11144" data-name="Tracé 11144" d="M1666.754,760.536l-.208-.12.216.448a1.234,1.234,0,0,0,1.232.175c-.689-.29-.9-.684-1.6-1.25Z" fill="#737d87"/>
        <path id="Tracé_11145" data-name="Tracé 11145" d="M1667.8,758.879a1.141,1.141,0,0,0-.081-.479l-.2.045Z" fill="#737d87"/>
        <path id="Tracé_11146" data-name="Tracé 11146" d="M1661.675,751.906l.437.618c.275.049-.168-.736-.437-.618" fill="#737d87"/>
        <path id="Tracé_11147" data-name="Tracé 11147" d="M1661.992,756.359l.416.125c-.149-.35-.5-.656-.7-.554.42.234.005.163.289.429" fill="#737d87"/>
        <path id="Tracé_11148" data-name="Tracé 11148" d="M1660.246,750.518c-.405.095-.437-.619-.771-.484.208.063.509.713.771.484" fill="#737d87"/>
        <path id="Tracé_11149" data-name="Tracé 11149" d="M1658.385,753.277c-.052.4.428.453.717.828-.284-.266-.446-.89-.717-.828" fill="#737d87"/>
        <path id="Tracé_11150" data-name="Tracé 11150" d="M1656.679,748.524c.2-.157.412.07.628.352a1.093,1.093,0,0,1-.411-.071,8.789,8.789,0,0,1,.979.549c-.224-.447-.661-1.01-.4-1.185-.408-.07-.964-.1-.8.355" fill="#737d87"/>
        <path id="Tracé_11151" data-name="Tracé 11151" d="M1657.537,752.538c.219.336.233.663.586.967.059-.181.116-.47-.309-.813l.338-.078c-.225-.5-.115.415-.615-.076" fill="#737d87"/>
        <path id="Tracé_11152" data-name="Tracé 11152" d="M1655.54,746.59l.084.256c.561.2,1,.753,1.479.691a5.09,5.09,0,0,0-1.563-.947" fill="#737d87"/>
        <path id="Tracé_11153" data-name="Tracé 11153" d="M1656.509,750.842l-.327.245c.358.412.063-.126.269-.063.074.148.22.335.355.356-.492-.379.192-.266-.3-.538" fill="#737d87"/>
        <path id="Tracé_11154" data-name="Tracé 11154" d="M1654.9,749.953l-.633-.341.105.69c.707.434.2-.158.528-.349" fill="#737d87"/>
        <path id="Tracé_11155" data-name="Tracé 11155" d="M1654.448,749.18l-.005-.109-1.177-.263a4.322,4.322,0,0,0,1.182.372" fill="#737d87"/>
        <path id="Tracé_11156" data-name="Tracé 11156" d="M1646.766,738.744c-.2.052.116.618.046.3.184-.03-.285-.738-.046-.3" fill="#737d87"/>
        <path id="Tracé_11157" data-name="Tracé 11157" d="M1646.5,742.809a4.3,4.3,0,0,0-1.431-.945c.437.272,1.329,1.166,1.431.945" fill="#737d87"/>
        <path id="Tracé_11158" data-name="Tracé 11158" d="M1644.91,741.784l.162.08a.592.592,0,0,0-.162-.08" fill="#737d87"/>
        <path id="Tracé_11159" data-name="Tracé 11159" d="M1630.765,730.742a.276.276,0,0,0-.129-.049l.129.049" fill="#737d87"/>
        <path id="Tracé_11160" data-name="Tracé 11160" d="M1631.155,730.941c.183.231.688.523.884.445a8.044,8.044,0,0,0-1.275-.645c.166.114.268.373.391.2" fill="#737d87"/>
        <path id="Tracé_11161" data-name="Tracé 11161" d="M1628.058,728.231c.236.052.426.281.476.1-.045-.134-.511-.285-.476-.1" fill="#737d87"/>
        <path id="Tracé_11162" data-name="Tracé 11162" d="M1609.467,706.938c-.26-.316-.488-.4-.556-.138.356.27.254,0,.556.138" fill="#737d87"/>
        <path id="Tracé_11163" data-name="Tracé 11163" d="M1608.473,706.529l.034-.132-.091-.313Z" fill="#737d87"/>
        <path id="Tracé_11164" data-name="Tracé 11164" d="M1606.516,704.564a.318.318,0,0,1,.2.012c-.146-.066-.273-.117-.2-.012" fill="#737d87"/>
        <path id="Tracé_11165" data-name="Tracé 11165" d="M1606.787,704.61l-.073-.034Z" fill="#737d87"/>
        <path id="Tracé_11166" data-name="Tracé 11166" d="M1606.884,704.782l.106-.088a1.424,1.424,0,0,1-.2-.084.157.157,0,0,1,.1.172" fill="#737d87"/>
        <path id="Tracé_11167" data-name="Tracé 11167" d="M1605.882,704.034l.188.62c.551.175-.378-.528.3-.533Z" fill="#737d87"/>
        <path id="Tracé_11168" data-name="Tracé 11168" d="M1604.355,703.027c-.326-.4-1.266-.349-1.221-.881-1.278-.657-.192.8-1.592-.031,1.086,1.1,1.146-.233,2.085.782-.358-.618.487.086.728.13" fill="#737d87"/>
        <path id="Tracé_11169" data-name="Tracé 11169" d="M1604.09,703.78c.2-.133-.295-.529-.544-.526.133.13.2.575.544.526" fill="#737d87"/>
        <path id="Tracé_11170" data-name="Tracé 11170" d="M1602.014,701.532l-.243-.4-.178.048Z" fill="#737d87"/>
        <path id="Tracé_11171" data-name="Tracé 11171" d="M1600.752,700.476l.495.041c-.174,0-.668-.4-.495-.041" fill="#737d87"/>
        <path id="Tracé_11172" data-name="Tracé 11172" d="M1599.113,698.842c-.265-.309-.914-.035-.164.36l-.139-.133c.1-.047-.139-.489.3-.227" fill="#737d87"/>
        <path id="Tracé_11173" data-name="Tracé 11173" d="M1594.269,696.5c.214.171.521.3.549.162l-.68-.339Z" fill="#737d87"/>
        <path id="Tracé_11174" data-name="Tracé 11174" d="M1593.49,697.759c-.014.446.585.386.915.775a4.275,4.275,0,0,0-.915-.775" fill="#737d87"/>
        <path id="Tracé_11175" data-name="Tracé 11175" d="M1593.885,695.571c.253-.005.449.258.587.388.049-.225-.4-.482-.587-.388" fill="#737d87"/>
        <path id="Tracé_11176" data-name="Tracé 11176" d="M1592.843,694.975c-.111-.265.165-.136.074-.327a1.7,1.7,0,0,0-1.149-.757c.021.209-.076.667-.36.691.755.384,1.5.079,1.526.746l.944-.113c-.482-.477-.681.064-1.035-.24" fill="#737d87"/>
        <path id="Tracé_11177" data-name="Tracé 11177" d="M1593.5,696.959l-.237-.437c-.05.222-.347.053-.58-.031-.181.451.593.341.817.468" fill="#737d87"/>
        <path id="Tracé_11178" data-name="Tracé 11178" d="M1588.912,692.485l-.841-.459.238.2Z" fill="#737d87"/>
        <path id="Tracé_11179" data-name="Tracé 11179" d="M1588.5,692.009l.058-.125-.741-.213Z" fill="#737d87"/>
        <path id="Tracé_11180" data-name="Tracé 11180" d="M1587.777,691.306l.08.082.528.224Z" fill="#737d87"/>
        <path id="Tracé_11181" data-name="Tracé 11181" d="M1586.2,690.094l.029.262c.228.1.495.554.612.308-.224-.045-.615-.359-.641-.57" fill="#737d87"/>
        <path id="Tracé_11182" data-name="Tracé 11182" d="M1577.945,690.483c.215-.01.2-.164.18-.321l-.415.123c.076.032.225.1.235.2" fill="#737d87"/>
        <path id="Tracé_11183" data-name="Tracé 11183" d="M1577.321,689.376l-.8-.074c.637.5.9.317,1.512.671-.177-.271-.673-.286-.926-.584Z" fill="#737d87"/>
        <path id="Tracé_11184" data-name="Tracé 11184" d="M1565.8,681.3c.19-.173.037-.23.563-.08a12.543,12.543,0,0,1-1.876-1.061c.031.207-.629.1-.329.215l.847.375-.208.067c.433.51.5,0,1,.484" fill="#737d87"/>
        <path id="Tracé_11185" data-name="Tracé 11185" d="M1535.9,659.655c.135-.061.094-.211.054-.361-.541-.161.054.394-.054.361" fill="#737d87"/>
        <path id="Tracé_11186" data-name="Tracé 11186" d="M1709.464,763.715c.318-.156.019-.114-.16-.2Z" fill="#737d87"/>
        <path id="Tracé_11187" data-name="Tracé 11187" d="M1709.3,763.512l-.113-.145a.179.179,0,0,0,.113.145" fill="#737d87"/>
        <path id="Tracé_11188" data-name="Tracé 11188" d="M1708.12,762.343c.453.031.606.578,1.027.414-.168-.414-.7-.694-1.027-.414" fill="#737d87"/>
        <path id="Tracé_11189" data-name="Tracé 11189" d="M1708.425,762.885l.164-.138-.462.059Z" fill="#737d87"/>
        <path id="Tracé_11190" data-name="Tracé 11190" d="M1708.5,763.181l.008-.09-.543-.143Z" fill="#737d87"/>
        <path id="Tracé_11191" data-name="Tracé 11191" d="M1707.188,761.45l.338.183c.112.442-.419.164-.345.461.38.284.489-.376.906.056.124-.243-.759-.57-.428-.85-.318-.407-.17.184-.471.15" fill="#737d87"/>
        <path id="Tracé_11192" data-name="Tracé 11192" d="M1687.553,749.479a.416.416,0,0,0-.019-.064c-.011.049-.013.088.019.064" fill="#737d87"/>
        <path id="Tracé_11193" data-name="Tracé 11193" d="M1682.372,745.939a1.051,1.051,0,0,0-.152-.223.376.376,0,0,0,.011.152Z" fill="#737d87"/>
        <path id="Tracé_11194" data-name="Tracé 11194" d="M1691.163,751.21a1.5,1.5,0,0,0,.135.233.3.3,0,0,0-.135-.233" fill="#737d87"/>
        <path id="Tracé_11195" data-name="Tracé 11195" d="M1660.227,725.934a.324.324,0,0,0,.1-.079l0-.014-.124.049Z" fill="#737d87"/>
        <path id="Tracé_11196" data-name="Tracé 11196" d="M1676.377,742.232a1.062,1.062,0,0,0-.252-.135c.127.1.2.138.252.135" fill="#737d87"/>
        <path id="Tracé_11197" data-name="Tracé 11197" d="M1692.987,752.546c-.026-.023-.05-.041-.074-.059a.645.645,0,0,0,.067.1l.011-.043,0,0" fill="#737d87"/>
        <path id="Tracé_11198" data-name="Tracé 11198" d="M1683.661,747.627a.668.668,0,0,0-.151-.177.627.627,0,0,0,.151.177" fill="#737d87"/>
        <path id="Tracé_11199" data-name="Tracé 11199" d="M1702.834,757.571a.3.3,0,0,0-.243-.136c.016.091.079.153.243.136" fill="#737d87"/>
        <path id="Tracé_11200" data-name="Tracé 11200" d="M1701.019,756.254l.012.006c.02-.048.008-.044-.012-.006" fill="#737d87"/>
        <path id="Tracé_11201" data-name="Tracé 11201" d="M1699.9,755.36a.122.122,0,0,1,.027.007c.008-.039.006-.05-.027-.007" fill="#737d87"/>
        <path id="Tracé_11202" data-name="Tracé 11202" d="M1702.591,757.434c-.047-.245.231-.707-.314-.382l-.01.092c-.033-.194-.342-.138-.486-.223a.634.634,0,0,0-.038.15,2.908,2.908,0,0,1,.254.269c.087.221.361.076.594.094" fill="#737d87"/>
        <path id="Tracé_11203" data-name="Tracé 11203" d="M1687.637,749.407c-.048.1.1.146,0,0" fill="#737d87"/>
        <path id="Tracé_11204" data-name="Tracé 11204" d="M1689.444,750.219c-.045-.044-.091-.088-.141-.129a.283.283,0,0,0,.141.129" fill="#737d87"/>
        <path id="Tracé_11205" data-name="Tracé 11205" d="M1695.163,754.729c0-.015-.01-.025-.013-.04-.046.042-.018.052.013.04" fill="#737d87"/>
        <path id="Tracé_11206" data-name="Tracé 11206" d="M1689.167,749.98c.048.033.092.072.137.11a.206.206,0,0,0-.137-.11" fill="#737d87"/>
        <path id="Tracé_11207" data-name="Tracé 11207" d="M1693.61,753.157a.146.146,0,0,0-.014-.031.044.044,0,0,0,.014.031" fill="#737d87"/>
        <path id="Tracé_11208" data-name="Tracé 11208" d="M1637.474,706.391c.148.048.123.223.206.344.482-.123-.506-.393.062-.4a.72.72,0,0,0-.343-.122l-.064.41c.3.05-.07-.208.139-.234" fill="#737d87"/>
        <path id="Tracé_11209" data-name="Tracé 11209" d="M1659.236,724.226l.03.064c.067-.159.129-.178-.009-.394-.317.081-.293.579-.749.588a.409.409,0,0,1,.2.178c.021-.271.279-.373.524-.436" fill="#737d87"/>
        <path id="Tracé_11210" data-name="Tracé 11210" d="M1658.712,724.662a.107.107,0,0,1,0,.022.572.572,0,0,0-.013.1.283.283,0,0,1,.089.118.384.384,0,0,0-.072-.244" fill="#737d87"/>
        <path id="Tracé_11211" data-name="Tracé 11211" d="M1641.255,709.45c.041.046.077.087.109.126-.02-.1-.059-.132-.109-.126" fill="#737d87"/>
        <path id="Tracé_11212" data-name="Tracé 11212" d="M1679.554,738.774a1.988,1.988,0,0,0,.226.026.272.272,0,0,0-.226-.026" fill="#737d87"/>
        <path id="Tracé_11213" data-name="Tracé 11213" d="M1661.778,726.6a.615.615,0,0,0,.1.15c.032.018.062.029.1.053Z" fill="#737d87"/>
        <path id="Tracé_11214" data-name="Tracé 11214" d="M1650.448,722.473c.35-.258-.1-.03-.147-.371l-.316.039a1.38,1.38,0,0,0,.463.332" fill="#737d87"/>
        <path id="Tracé_11215" data-name="Tracé 11215" d="M1637.4,706.184a.34.34,0,0,1-.025.029l.02,0Z" fill="#737d87"/>
        <path id="Tracé_11216" data-name="Tracé 11216" d="M1644.987,718.462c-.018-.041-.034-.076-.054-.112a.211.211,0,0,0,.054.112" fill="#737d87"/>
        <path id="Tracé_11217" data-name="Tracé 11217" d="M1659.687,725.624l.681.545-.141-.235c-.221.091-.292-.438-.54-.31" fill="#737d87"/>
        <path id="Tracé_11218" data-name="Tracé 11218" d="M1653.267,724.909l-.09.249c1.017.093,1.345,1.309,2.354,1.121.305,1.347,1.032-.218,1.325,1l.05-.121c2.453,2.039,4.869,4.448,7.5,5.9l-.113.139c3.646,3.137,7.6,5.656,11.313,8.634.453.136.476-.338.9-.266.123.113.436.322.306.5-.329-.1-.3.166-.442.169.442.3.84.922,1.381,1l-.148-.466c.219.017.4.257.529.369-.143.073-.134.467-.292.434,1.228.046.446.714,1.289,1,.5-.378,1.641-.13,2.458-.051l.2.346c-.388-.3-.256.355-.723-.033.3.443.828.519,1.151.884a.268.268,0,0,1,.349-.258c.184.243.023.5.272.725l-.376-.049c.041.314.374.192.561.288-.1.241.273.579.034.749.566,0,.577.248,1.1.368-.245-.516.3-.186.382-.387l-.513-.263c.539.617-.236-.122-.446.256-.182-.385.838-.251.3-.578.734.281.746.53,1.575.712-.421-.216.239-.169.119-.424.48.344.026.208.006.538.265.185.212.45.64.376.338.418-.257.21-.151.507-.333.12-.941-1.165-1.4-.328-.223-.156-.7-.069-1.007-.32.2.3.4.846.871.93l.338-.41c.264.183.533-.064.69.113-.19.048-.148.36.086.482-.015-.1-.108-.153-.029-.21.406.257.677.009,1.192.273a4.56,4.56,0,0,1-.486-1.028c.318-.226.281.143.513.264-.06.016-.11-.008-.094.1l.328.023c.373.482-.382.386-.1.82.079.45.47.137.568.433a1.07,1.07,0,0,0,.018-.106.542.542,0,0,1,.086.1.089.089,0,0,1,.013-.023c.281.144.529.369.767.2-.05.121.239.136.372.128.206.016.736,0,.672.517-.008,0-.011-.008-.017-.01.277.277.435.57.277.64l.432.466-.272.248c.515.265.6.063,1.134,0a1.869,1.869,0,0,0,1.167.765.5.5,0,0,0,.183.135l-.1-.257c.346.28.418.095.653.271-.028-.064-.022-.085.074.059a1.611,1.611,0,0,1,.118.123c-.035.022-.084-.023-.125-.077l-.03.128c.054.521.567.155.79.492a.366.366,0,0,1-.13-.055c.113.207.048.8.307.6.015.062.114.057.219.039l.093.139a1.051,1.051,0,0,1-.091-.138c.142-.024.293-.071.257,0l.4.381a.448.448,0,0,0,.312.181l-.017.176c.174.1.121.174.076.193.239.832,1.015.431,1.338,1.241.265-.114.086-.391.15-.512a2.734,2.734,0,0,1,.906.056c.056.477.686,1.335.255,1.635.467.4.033-.361.382-.313l.044.058a.9.9,0,0,1-.143-.636c.125-.243.6.022.692.184l-.325.236c.534.235.788-.3,1.3-.39.27.393-.147.514-.278.846l.436.21-.174.23c.292.125.512-.047.785.3-.41.03.35.6-.212.634.131.22.522-.183.387.2.317-.146-.076-.25-.115-.4.19-.411.545.145.841.224-.119.2-.315.1-.139.424a.267.267,0,0,1,.434.208c.175-.23.339.183.481.311-.138-.174-.257-.528,0-.642a.866.866,0,0,1,.632.307l-.129-.264c.52-.138.254.573.693.737a2.84,2.84,0,0,0-.61.02,6.951,6.951,0,0,1,1.047.19l.051.564c.163-.14.329.273.5.043.261.439-.512.047-.677.187.359.51.668-.1.858.6l-.313.1c.14.13.536.236.474.358.058-.077-.041-.1-.136-.175.44-.39.941.206,1.243-.312l-.185-.188c.39.15.86,0,.98.353.074.3-.375.222-.579.26.277.258.637-.336.963-.019-.132-.219.032-.361.237-.4-.184-.189-.551-.607-.625-.35l.041.1c-.111.108-.26.068-.363.087-.284-.215.03-.315.043-.45-.418-.433-.4.446-.82.1l.014-.134c-.3-.035-.636-.262-.914-.013.043-.451-.582-.249-.653-.589.469-.7.7.6,1.228.42-.124-.31.372-.224.584-.3l-.938-.251c.011-.135.055-.63-.26-.483l.044.058c-.341-.138-.474.2-.651-.082.008-.091.165-.141.219-.172-.18-.234-.305.01-.5-.043-.182-.232.323-.191.189-.409-.459.062-.37-.376-.61-.532-.192.456-1.3-.163-1.063.545l-.744-.152c-.021-.328.781-.251.874-.688l.424.343c.287-.53-1.148-.379-1.036-1.128-.216-.2-.21-.087-.471-.656l-.246.482a.694.694,0,0,1-.007-.643,1.345,1.345,0,0,1-.377-.289.32.32,0,0,1,.267-.021c.006-.365-.11-.315-.265-.235-.174.037-.3-.084-.445-.2l.249-.061c-.114-.03-.257-.065-.323,0a.5.5,0,0,0-.2-.09,1.135,1.135,0,0,0,.011.687c-.4-.568-.889-.79-1.078-1.484.11-.11.414-.119.37-.178a.466.466,0,0,0-.708-.005.819.819,0,0,1-.14-.077c.037-.138.069-.291-.025-.391a.248.248,0,0,0-.079-.2c-.329.28-.637-.218-.848-.135a1.131,1.131,0,0,0,.341.289c-.353.087-.711.221-.716-.067.5.042-.1-.624.485-.331-.035-.7-.419.164-.684-.275l-.119-.354c.223-.217.49.178.5.043l-.194-.1c.309-.056.861.552,1.466.575l-.693-.737c-1.223-.465-2.22-1.745-3.476-1.85a.39.39,0,0,0,.041.021.6.6,0,0,0-.158.137l.008-.09-.307.058c-.019-.375-.342-.691-.509-1.1.077.3.077.3-.043.495-.224.217-.332.3-.547-.007.127-.176.3-.039.194-.336.045.167-.145.217-.286.145-.075-.233-.323-.459-.194-.637.109.009.125.114.155.178.11.009-.182-.385.146-.362l-.327-.168c-.058-.274.286-.145.29-.29-.572-.244-1.12-.029-1.645-.239a3.449,3.449,0,0,0,.3-.354c-.245-.37-1.037-.119-1.443-.375.144-.073.251.081.41.112a19.086,19.086,0,0,1-2.817-2.954l-.586.185-.085-.481a10.93,10.93,0,0,0-3.22-2.24c-.359-.233.006-.433-.07-.667-.713-.61-1.237-.3-2.017-.745.192-.049.619-.267.324-.515-.145.072-.319.225-.459.008l.192-.048c-.042-.314-.342-.273-.65-.627a3.65,3.65,0,0,0-2.351-.625c-.542-.473.383-.385.34-.554.293.452.334.141.526.07-.3-.049-.61-.175-.5-.544a1.427,1.427,0,0,0-.875-.351c.222.015.232.265-.005.289-.168-.283-.87-.643-.565-.973-1.463-.995-2.984-2.262-4.508-3.387-.393-.008.139.217-.1.241-.552-.04-.2-.345-.64-.378l.27-.1a4.314,4.314,0,0,0-1.723-.5c.237-.169-.213-.449.242-.313-.237-.121.258-1.3-.055-1.223l-.463,1.1c-.081.082-.332-.2-.349-.112-.045-.32-.1-.7-.233-.8.115-.28.4.01.564.146.32-.37-.4-.692.125-.859-.42-.218-.1.239-.43.216l-.261-.329.152.32c-.359-.088-.677.138-.875-.352l-.662.1c.194-.337-.232-.264-.37-.481l.268-.105a.864.864,0,0,1-.4-.547c.349-.161.183.241.438.032l-.214-.3c-.13.176-.412.177-.29.435a1.324,1.324,0,0,1-1.49-.233c-.07-.522.519-.024.618-.411-.586-.641-1.419.146-1.79-.191-.415-.505-.594-.208-1.124-.578.318-.079-.194-.489-.143-.754l.362-.057c-.2-.055-.294-.248-.137-.361-.177.3-.86-.248-1.314-.385l-.116.281a2.869,2.869,0,0,1-1.081-.556c-.494-.256-.551.027-1.081.028a.933.933,0,0,1,.438-.8c.028.208.279.288.416.506.706.215,1.509.046,1.974.577.669-.387-.422-.215-.538-.617a.075.075,0,0,1,.085-.015.169.169,0,0,1-.054-.067c.25.08.64.233.913-.017-.375-.191-.668.386-.9-.168-.424-.072-.336-.706-.49-.885-.363.059-.716.508-1.148.043l.458-.153c-.56-.433-.617.266-1.13-.144.156.177-.412.178-.069.451a1.146,1.146,0,0,1-.921-.522c-.11-.008-.1.1-.192.194.147.459.66.161.677.673l.479-.177c.2.345.02.643-.261.643.093.048.2.055.215.161-.339.554-.212-.449-.645-.088l.235.119c-.163.4-.7-.07-.954-.295-.182-.385-.414-.65-.251-.908l.484.2c-.065-.353-.6-.276-.832-.464a.238.238,0,0,0-.008-.125.161.161,0,0,1-.033.081.27.27,0,0,1-.057-.2c-.2-.168-.612-.249-.746-.472l-.14.235.118-.1c.183.152.339.479.073.533-.54-.172-.311-.655-.27-.92.349-.259.415.318.718.368.116-.427-.409-.362-.686-.913.448-.228.508.392.855.133-.308-.33-.594-.144-.9-.518.173-.131.549.128.687-.1l-.161-.284c.6.424.235-.527.76-.268-.1-.311-.524.066-.66-.395-.032.221,0,.693-.4.612l-.254-.359c-.007-.279.637-.12.531-.432l-.442-.141c-.069.117.057.3-.158.366-.115-.269-.645.164-1,.144-.183-.151-.317-.287-.288-.463-.718-.042-1.313-.51-1.982-.54.463.011.266-.377.21-.674.379.215.637-.12.777-.355-.239-.122-.639.121-.618.315-.246-.4-.418.05-.554-.41-.113-.267.35-.257.377-.436-.367-.3-.413.332-.763-.058.055-.029.1-.014.118-.1a.532.532,0,0,0-.7-.13c.094-.618-.7-.456-.334-.848-.624-.291-.1.294-.316.363-.363.023-.651-.44-.728-.6.139.09.35.066.427.228l.112-.382c-.509-.717-.932.351-1.384-.394.45.1.281-.141.6-.226-.156,0-.6-.467-.464-.009a3.191,3.191,0,0,1-.479-.569,1.766,1.766,0,0,0-.87-.044,1.781,1.781,0,0,1-.473-.939c-.876-.325-1.26-1.19-2.184-1.53l.042.06c-.542-.5-.04.59-.639.121.356-.3-.178-.52-.229-.861-.6-.749-1.486-.706-1.988-1.468a.227.227,0,0,1,.316-.038,9.045,9.045,0,0,0-1.371-1.132l.054-.029c-.533-.865-1.489-1.03-2.338-1.534.1,0,.219-.122.305-.134-.333-.38-.923-.909-1.451-.787-.2-.711-.393-.125-.732-.927.012-.09.1-.015.154,0a3.643,3.643,0,0,0-.71-.735c-.837-.268-1.354.077-2.016-.644.334-.524.565.234.88-.147-.22-.028-.428-.027-.552-.3.272-.1.12-.1.344-.215-.064-.252-1.042.022-1-.022-.08.088-.064.182.1.283-.408.168-.774-.545-1.239-.7.115.1.422.484.1.61-.421-.482-.945-.132-1.442-.2-.292-.571.652-.159.828-.571.019-.184.042-.6.338-.59-.358-.386-.88-.314-1.306-.517l.084-.091c-.544-.348-1.418-.335-1.7-.858l.144.285c-.128,0-.367-.23-.661-.138.139-.152-.086-.552.153-.582-.623.348-1.41-.568-2.04-.268-.038-.235.232-.363.363-.45.291.29.323.477.651.4-.276-.2-.374-.48-.243-.568-.515.119-1.256-.239-1.637-.017-.075-.312-.2-.542.078-.76-.958-.459-.221,1.143-1.155.432-.229-.585.686-.04.163-.575l.141.04c.1-1.017-.673.271-1.138-.116.223-.428.541-.017.413-.54-.512-.237-1.13.179-1.48-.275l.192-.109c-.306-.183-.8-.675-1.1-.857.043-.085.077-.043.146-.023-.412-.536-.364.03-.592-.554l-.261.092c.115.292.389.79.822.777-.433.013.062.8-.317,1.022l.152-.089a7.607,7.607,0,0,0,1.88,2.731c.858.039.843.882,1.651,1.072.43-.372.181,0,.769.3-.318-.153-.287.312-.159.5a.915.915,0,0,1,.5.067c-.01.232.377,1.084.844.964.209.381-.181.086-.319.126-.042.325.391.017.381.249a.132.132,0,0,1-.09.041,10.076,10.076,0,0,1,1.163,1.119c.37-.4.619.211.96.225-.179.085.161.377.243.567l.513-.119c.476-.073.226.474.685.587l-.026-.141c.353.061.819.824.89,1.245,2.976.913,3.25,3.2,5.883,4.831.259-.01.05-.308.321-.408a2.835,2.835,0,0,1,.562.365c-.112-.268-.188-.1-.072-.2l-.441-.141c.008-.044.055-.028.07-.116a1.067,1.067,0,0,1-.484-.2c.3.05.6-.226.806.119-.056.027-.1.012-.2-.019.224.21.352.065.47.288.171.24.19.1.114.261l.563.7c.636-.122.787.566.872.686-.293.231-.527-.259-.91-.1l.091.4.188-.218.31.332-.054.029c.111-.058.222-.114.253.034-.01.043-.021.133-.072.116l.35.066c-.328.126.17.239-.075.486.726.764,1.335.427,1.782,1.353-.021-.219.559-.259.746-.039.08.165.065.252-.1.3l.4.081c.043.708.612.7,1.042,1.258l-.12.1a1.172,1.172,0,0,1,.879.329l-.238.2c.239.448.664-.3.953.166.195-.262.041-.589.188-.866-.1.337.3.706.342.441.486.2.276.218.262.307l.359.021c.275.228-.167.41-.385.48.476-.08.616.336.885.607l-.211.025.362.346a1.288,1.288,0,0,1,1.037.61l-.49.168c.1.356.21-.027.317-.039.5.113.4.4.449.746.864.091.756,1.454,1.652,1.323m41.878,29.551-.016-.093c.168.035.281.033.016.093m-3.184-2.557c.494.163.247.231.206.348-.316-.385-.613-.438-.87-.808a.735.735,0,0,1-.081.28.444.444,0,0,1-.117-.507c.427-.217.882,1.015.862.687m8.612,3.843a.823.823,0,0,1-.1.041h0Zm-2.172-1.161a.309.309,0,0,0-.026-.243c-.034.119-.057.221.026.243m-3.542-3.341c.018-.211-.218-.322-.391-.4a2.163,2.163,0,0,0,.391.4m-24.488-18.252c.16.033.488.055.366-.2-.19.05-.215-.3-.438-.178a.088.088,0,0,1-.007-.031,1.641,1.641,0,0,0,.079.41m-12.336-7.487c.126-.125.329-.213.355-.362.006.012.016.024.023.036.008-.07.014-.128.06-.142-.072-.1-.145-.206-.242-.215-.378.436-.632.361-.2.683" fill="#737d87"/>
        <path id="Tracé_11219" data-name="Tracé 11219" d="M1663.289,726.505c-.05-.026-.082-.056-.115-.07a.806.806,0,0,0,.115.07" fill="#737d87"/>
        <path id="Tracé_11220" data-name="Tracé 11220" d="M1658.249,724.838c-.031.023.045.152.14.3.016-.077-.015-.173-.14-.3" fill="#737d87"/>
        <path id="Tracé_11221" data-name="Tracé 11221" d="M1705.714,762.069l-.148-.04.123.31a.956.956,0,0,0,.931-.212c-.5-.041-.629-.306-1.112-.573Z" fill="#737d87"/>
        <path id="Tracé_11222" data-name="Tracé 11222" d="M1706.678,760.393a.866.866,0,0,0-.016-.374l-.162.1Z" fill="#737d87"/>
        <path id="Tracé_11223" data-name="Tracé 11223" d="M1702.7,756.332l.267.394c.206-.037-.048-.567-.267-.394" fill="#737d87"/>
        <path id="Tracé_11224" data-name="Tracé 11224" d="M1702.464,759.959l.305-.011c-.077-.251-.316-.408-.481-.268.3.08-.014.136.176.279" fill="#737d87"/>
        <path id="Tracé_11225" data-name="Tracé 11225" d="M1701.754,755.572c-.322.191-.268-.4-.539-.19.152-.005.312.453.539.19" fill="#737d87"/>
        <path id="Tracé_11226" data-name="Tracé 11226" d="M1700.026,758.385c-.083.347.279.259.461.493-.19-.144-.247-.619-.461-.493" fill="#737d87"/>
        <path id="Tracé_11227" data-name="Tracé 11227" d="M1699.234,754.9c.167-.183.309-.055.444.12-.1.018-.21.081-.309.055a3.747,3.747,0,0,1,.692.186c-.122-.309-.4-.658-.174-.875-.307.056-.724.174-.653.514" fill="#737d87"/>
        <path id="Tracé_11228" data-name="Tracé 11228" d="M1699.454,758c.132.22.108.488.346.645a.424.424,0,0,0-.15-.593l.269-.158c-.119-.355-.134.378-.465.106" fill="#737d87"/>
        <path id="Tracé_11229" data-name="Tracé 11229" d="M1698.594,753.577l.034.193c.4.016.675.365,1.045.187a2.081,2.081,0,0,0-1.079-.38" fill="#737d87"/>
        <path id="Tracé_11230" data-name="Tracé 11230" d="M1698.847,756.874l-.279.294c.231.245.063-.122.215-.127.041.1.132.219.234.2-.337-.18.176-.275-.17-.367" fill="#737d87"/>
        <path id="Tracé_11231" data-name="Tracé 11231" d="M1697.71,756.571l-.443-.119V757c.49.178.17-.185.443-.433" fill="#737d87"/>
        <path id="Tracé_11232" data-name="Tracé 11232" d="M1697.455,756.041l.009-.09-.869.09a2.365,2.365,0,0,0,.86,0" fill="#737d87"/>
        <path id="Tracé_11233" data-name="Tracé 11233" d="M1692.86,749.289c-.161.094.008.491,0,.241.143-.071-.12-.549,0-.241" fill="#737d87"/>
        <path id="Tracé_11234" data-name="Tracé 11234" d="M1692.131,752.784c-.066-.214-.689-.377-.969-.439.3.12.863.652.969.439" fill="#737d87"/>
        <path id="Tracé_11235" data-name="Tracé 11235" d="M1691.049,752.319c.023,0,.065.014.113.027a.26.26,0,0,0-.113-.027" fill="#737d87"/>
        <path id="Tracé_11236" data-name="Tracé 11236" d="M1681.764,746.419a.137.137,0,0,0-.091-.011c.032,0,.058.008.091.011" fill="#737d87"/>
        <path id="Tracé_11237" data-name="Tracé 11237" d="M1682.033,746.5a.545.545,0,0,0,.611.168,3.481,3.481,0,0,0-.881-.245c.111.057.151.252.27.077" fill="#737d87"/>
        <path id="Tracé_11238" data-name="Tracé 11238" d="M1680.078,744.907c.17-.009.279.144.344-.017-.013-.105-.344-.129-.344.017" fill="#737d87"/>
        <path id="Tracé_11239" data-name="Tracé 11239" d="M1669.578,730.662c-.138-.218-.294-.249-.394-.008.219.16.191-.049.394.008" fill="#737d87"/>
        <path id="Tracé_11240" data-name="Tracé 11240" d="M1668.9,730.508l.05-.12-.012-.249Z" fill="#737d87"/>
        <path id="Tracé_11241" data-name="Tracé 11241" d="M1667.793,729.208a.218.218,0,0,1,.146-.027c-.1-.029-.181-.05-.146.027" fill="#737d87"/>
        <path id="Tracé_11242" data-name="Tracé 11242" d="M1667.987,729.2a.222.222,0,0,0-.048-.016l.048.016" fill="#737d87"/>
        <path id="Tracé_11243" data-name="Tracé 11243" d="M1668.027,729.328l.1-.1a.62.62,0,0,1-.136-.034.09.09,0,0,1,.04.13" fill="#737d87"/>
        <path id="Tracé_11244" data-name="Tracé 11244" d="M1667.421,728.87l.022.5c.378.049-.182-.384.324-.513Z" fill="#737d87"/>
        <path id="Tracé_11245" data-name="Tracé 11245" d="M1666.471,728.287c-.167-.283-.881-.066-.745-.531-.831-.329-.3.723-1.187.266.6.748.9-.411,1.412.288-.149-.465.348-.016.52-.023" fill="#737d87"/>
        <path id="Tracé_11246" data-name="Tracé 11246" d="M1666.128,728.983c.177-.151-.119-.4-.307-.352.075.088.038.458.307.352" fill="#737d87"/>
        <path id="Tracé_11247" data-name="Tracé 11247" d="M1665.005,727.435l-.105-.3-.143.074Z" fill="#737d87"/>
        <path id="Tracé_11248" data-name="Tracé 11248" d="M1664.263,726.76l.363-.055c-.129.031-.424-.217-.363.055" fill="#737d87"/>
        <path id="Tracé_11249" data-name="Tracé 11249" d="M1663.351,725.66c-.139-.217-.68.137-.193.338l-.079-.088c.081-.058-.009-.394.272-.25" fill="#737d87"/>
        <path id="Tracé_11250" data-name="Tracé 11250" d="M1660.208,724.483c.125.111.328.167.376.046l-.438-.176Z" fill="#737d87"/>
        <path id="Tracé_11251" data-name="Tracé 11251" d="M1659.37,725.7c-.1.387.359.233.526.513-.231-.264-.167-.28-.526-.513" fill="#737d87"/>
        <path id="Tracé_11252" data-name="Tracé 11252" d="M1660.109,723.751c.19-.048.282.146.358.234.083-.2-.2-.347-.358-.234" fill="#737d87"/>
        <path id="Tracé_11253" data-name="Tracé 11253" d="M1659.454,723.414c-.028-.209.151-.146.123-.294a.681.681,0,0,0-.7-.456c-.028.176-.194.586-.411.656.485.2,1.106-.188.986.383l.728-.258c-.262-.329-.521.171-.723-.031" fill="#737d87"/>
        <path id="Tracé_11254" data-name="Tracé 11254" d="M1659.537,725.013l-.088-.336c-.082.2-.27.1-.427.072-.227.419.374.193.515.264" fill="#737d87"/>
        <path id="Tracé_11255" data-name="Tracé 11255" d="M1657.029,721.939l-.528-.262.135.135Z" fill="#737d87"/>
        <path id="Tracé_11256" data-name="Tracé 11256" d="M1656.824,721.595l.07-.118-.5-.067Z" fill="#737d87"/>
        <path id="Tracé_11257" data-name="Tracé 11257" d="M1656.437,721.1l.042.058.343.111Z" fill="#737d87"/>
        <path id="Tracé_11258" data-name="Tracé 11258" d="M1655.529,720.3l-.034.222c.148.047.248.4.387.17a.416.416,0,0,1-.353-.392" fill="#737d87"/>
        <path id="Tracé_11259" data-name="Tracé 11259" d="M1649.3,721.92c.163-.042.183-.172.2-.3l-.336.17c.049.016.147.048.132.135" fill="#737d87"/>
        <path id="Tracé_11260" data-name="Tracé 11260" d="M1649.07,721.06l-.575.049c.358.346.6.145.977.357-.072-.207-.443-.141-.563-.364Z" fill="#737d87"/>
        <path id="Tracé_11261" data-name="Tracé 11261" d="M1642.383,715.64c.18-.175.082-.205.434-.142a4.728,4.728,0,0,1-1.132-.683c-.026.177-.488.167-.294.23l.536.217-.169.085c.2.388.372-.067.625.293" fill="#737d87"/>
        <path id="Tracé_11262" data-name="Tracé 11262" d="M1626.034,699.995c.114-.065.126-.192.138-.32-.347-.094-.069.34-.138.32" fill="#737d87"/>
        <path id="Tracé_11263" data-name="Tracé 11263" d="M2012.262,990.659c-42.277,11.123-170.917,3.708-230.24,8s-124.208-.587-142.747,0-90.839-8-115.475-12.542l-157.022-94.691-92.012-41.1,47.846-23.688-53.981-34.143s12.269-3.715,35.728-9.612,20.707-8.825,62.419-19.006,78.518-31.531,51.5-39.85a480.6,480.6,0,0,0-51.5-12.637s56.435-30.571,93.24-45.429,66.249-34.216,86.757-58.753,67.824-95.693,89.907-119.527,31.9-12.971,72.66-17.878,72.107,61.439,72.107,61.439c36.805-71.06,88.332-179.215,119.8-176.762a160.444,160.444,0,0,1,36.012,6.755,139.232,139.232,0,0,1,49.165,27.6c25.864,22.083,20.756,122.683,25.832,122.963s24.368-73.89,68.534-63.933,71.157-12.41,110.2,47.307,142.129,176.355,142.129,176.355l-27.993,27.255s-30.5,11.484-37.9,14.557-9.658,18.152-9.658,18.152v32.389l-54.1,10-34.352,31.694s21.869,1.73,41.713,13.078,26.99,14.295-90.786,26.948-3.738,110.463-3.738,110.463c15.583,3.951-61.778,23.475-104.055,34.6" fill="#fff"/>
      </g>
    </g>
    <g id="Groupe_82" data-name="Groupe 82">
      <g id="Groupe_81" data-name="Groupe 81" clip-path="url(#clip-path-8)">
        <path id="Tracé_11264" data-name="Tracé 11264" d="M2186.334,488.352c14.74,47.557-.579,87.772-.579,87.772-13.787.719-21.06-37.024-44.425-50.739-5.2-3.051-12.749,52.256-22.538,57.16-68.356,34.244-37.806-62.793-37.806-62.793s-20.848,58.908-29.018,58.058-8.17-52.936-8.17-52.936-33.579,53.858-31.536,42.894,0-55.973,0-55.973l-9.824-86.8s-12,32.218-18.9,32.473-13.8-35.582-15.319-31.4c-10.212,28-25.8,29.928-30.888,25.177s-4.626-79.554-13.537-73.262c-29.9,21.112-9.873,80.851-48.36,181.373-16.151-23.445,7.679-57.118,3.02-108.111-8.447-22.369.574-55.22.574-55.22l-23.217,24.055a3.231,3.231,0,0,1-5.395-3.253l8.467-25.751-77.438,140.167s-12.084-15.829-22.083-12.494c-8.776,2.927-17.1,54.383-32.419,26.9,0,0-11.954,23-16.426,29.364-16.681,23.736-16.268-28.955-22.907-25.761-17.263,8.3-37.348,50.518-68.2,64.95-3.328,1.557,34.3-49.288,35.221-64.693,2.61-43.526,42.913-64.247,38.58-64.247-71.794,0-79.541,31.064-79.541,31.064s-36.866,43.206-58.69,80.516-69.675,58.01-94.966,69.121-93.24,45.429-93.24,45.429,53.02,1.009,52,20.1c-.421,7.861,3.111,85.482,16.7,85.482,151.913,0,227.122,1.732,242.725,7.138,26.528,9.192,265.571,24.347,288.039-16.8,31.595,3.869,70.76,40.956,83.9,49.652,185.237,122.583,208.782,8.17,153.334-83.076-2.694-4.433,54.1-10,54.1-10s-9.212-44.846,14.526-52.487c49.482-15.929,61.023-39.866,61.023-39.866Z" fill="#00badf"/>
      </g>
    </g>
    <g id="Groupe_84" data-name="Groupe 84">
      <g id="Groupe_83" data-name="Groupe 83" clip-path="url(#clip-path)">
        <path id="Tracé_11266" data-name="Tracé 11266" d="M2012.262,990.659c-42.277,11.123-170.917,3.708-230.24,8s-124.208-.587-142.747,0-90.839-8-115.475-12.542l-157.022-94.691-92.012-41.1,47.846-23.688-53.981-34.143s12.269-3.715,35.728-9.612,20.707-8.825,62.419-19.006,78.518-31.531,51.5-39.85a480.6,480.6,0,0,0-51.5-12.637s56.435-30.571,93.24-45.429,66.249-34.216,86.757-58.753,67.824-95.693,89.907-119.527,31.9-12.971,72.66-17.878,72.107,61.439,72.107,61.439c36.805-71.06,88.332-179.215,119.8-176.762a160.444,160.444,0,0,1,36.012,6.755,139.232,139.232,0,0,1,49.165,27.6c25.864,22.083,20.756,122.683,25.832,122.963s24.368-73.89,68.534-63.933,71.157-12.41,110.2,47.307,142.129,176.355,142.129,176.355l-27.993,27.255s-30.5,11.484-37.9,14.557-9.658,18.152-9.658,18.152v32.389l-54.1,10-34.352,31.694s21.869,1.73,41.713,13.078,26.99,14.295-90.786,26.948-3.738,110.463-3.738,110.463C2131.9,960.012,2054.539,979.536,2012.262,990.659Z" fill="none" stroke="#616d78" stroke-width="4"/>
        <path id="Tracé_11267" data-name="Tracé 11267" d="M1693.215,485.26s-12.924,12.093-26.754,26.535-2.788,35.39-26.1,66.015-44.6,88.891-52.968,102.084,1.267,55.983-14.595,72.006-19.56,40.836-48.382,46.832-88.937,18.238-88.937,18.238" fill="none" stroke="#616d78" stroke-width="4.503"/>
        <path id="Tracé_11268" data-name="Tracé 11268" d="M1402.414,751.9s7.3-6.361,52.7-28.294,84.651-24.827,84.651-24.827" fill="none" stroke="#616d78" stroke-width="4.503"/>
        <path id="Tracé_11269" data-name="Tracé 11269" d="M2118.792,451.242s-13.459,12.426-28.181,27.148-3.68,18.4-11.041,47.846-7.361,60.23-22.083,77.962-24.537,31.091-23.31,46.495-3.4,48.085-3.4,48.085" fill="none" stroke="#616d78" stroke-width="4.503"/>
        <path id="Tracé_11270" data-name="Tracé 11270" d="M1937.257,782.882s26.99-6.675,51.527-40.952,36.8-19.233,53.981-29.131,16.2-19.8,32.022-17.3S2130.669,741.3,2191,731.487c0,0-26.849,7.759-72.206,10.443s-24.5-1.371-62.532,6.177-28.217,4.538-51.527,18.925-13.594,12.146-67.476,15.85" fill="#fff"/>
        <path id="Tracé_11271" data-name="Tracé 11271" d="M1937.257,782.882s26.99-6.675,51.527-40.952,36.8-19.233,53.981-29.131,16.2-19.8,32.022-17.3S2130.669,741.3,2191,731.487c0,0-26.849,7.759-72.206,10.443s-24.5-1.371-62.532,6.177-28.217,4.538-51.527,18.925S1991.139,779.178,1937.257,782.882Z" fill="none" stroke="#616d78" stroke-width="4.503"/>
        <path id="Tracé_11272" data-name="Tracé 11272" d="M1689.4,547.309c-7.326,8.372-10.358,7.118-18.043,15.719s-.519-1.812-9.009,11.983-7.264,13.8-18.305,21.156-24.474,15.839-27.285,21.554-13.306,28.233-13.306,28.233" fill="none" stroke="#616d78" stroke-width="4.503"/>
        <path id="Tracé_11273" data-name="Tracé 11273" d="M1880.822,397.992c-2.454,1.881-4.907,15.376-4.907,15.376a61.412,61.412,0,0,0-1.227,15.214c1.271,35.828,4.907,55.753,4.907,55.753s-2.454-1.832-3.68,10.834-6.135,30.035-6.135,36.072-4.907.446,1.227,16.068,6,16.509,5.005,22.489" fill="none" stroke="#616d78" stroke-width="4.503"/>
        <path id="Tracé_11274" data-name="Tracé 11274" d="M1833.791,807.3s53.542-11.092,67.462-14.808" fill="none" stroke="#616d78" stroke-width="4.503"/>
        <line id="Ligne_18" data-name="Ligne 18" y2="57.804" transform="translate(2012.262 535.909)" fill="none" stroke="#616d78" stroke-width="4.503"/>
        <path id="Tracé_11275" data-name="Tracé 11275" d="M1689.4,685.725l27.248-20.256,4.086-3.4s11.574,37.141,17.021,33.039,30.979-53.631,32.682-45.037,2.382,34.807,9.531,35.658,20.425-30.97,22.469-27.485,29.688,28.688,31.354,30.044,8.475-46.811,12.9-38.217,34.131,8.173,34.131,8.173c-34.353-25.031-47.032-54.042-47.032-54.042l-15.537-19.073c-10.035-8.988-13.561-12.057-22.627-2.092l-12.935,19.458-36.463,25.97s-38.39,20.459-56.829,57.264" fill="#fff"/>
        <path id="Tracé_11276" data-name="Tracé 11276" d="M1833.791,604.2s12.68,29.011,47.031,54.042a727.546,727.546,0,0,0,62.253,40.858s15.038,3.5,26.079,24.508,19.63,24.5,19.63,24.5" fill="none" stroke="#616d78" stroke-width="4.503"/>
        <path id="Tracé_11277" data-name="Tracé 11277" d="M1631.775,748.107s39.186-25.577,57.625-62.382,56.829-57.264,56.829-57.264l31.539-23.707c17.176-12.268,19.63-39.259,40.486-19.629s33.125,57.228,42.939,43.336,14.722-64.478,20.856-92.552,17.552-55.065,19.2-67.334,5.333-56.515,10.241-70.583,14.3-20.011,14.3-20.011" fill="none" stroke="#616d78" stroke-width="4.503"/>
        <path id="Tracé_11278" data-name="Tracé 11278" d="M1689.4,795.857s34.163-61.125,46.43-100.753" fill="none" stroke="#616d78" stroke-width="4.503"/>
        <path id="Tracé_11279" data-name="Tracé 11279" d="M2160.862,462.119s-12.038,14.666-17.528,22.217-5.49-4.286-16.531,10.833-20.5,1.9-20.372,16.792,10.912,22.217,0,30.515-12.736,19.1-23.794,22.365-13.194,15.379-15.963,22.2-9.187,17.159-9.187,17.159" fill="none" stroke="#616d78" stroke-width="4.503"/>
        <path id="Tracé_11280" data-name="Tracé 11280" d="M2001.7,868.656c-8.342,4.283,38.931-15.182-8.342,4.283s-102.89,69.842-141.821,72.462-77.356,18.413-77.356,18.413" fill="none" stroke="#616d78" stroke-width="4.503"/>
        <path id="Tracé_11281" data-name="Tracé 11281" d="M1564.194,913.967c33.37,7.173,71.374,22.931,79.716,24.785s34.3,25.062,34.3,25.062" fill="none" stroke="#616d78" stroke-width="4.503"/>
        <path id="Tracé_11282" data-name="Tracé 11282" d="M1961.908,807.3c35.114-4.969,89.846,51.58,105.42,58.686,51.464,23.482,102.086-9.2,102.086-9.2s-1.4,14.136,7.149,19.708,32.17,23.7,17.125,37.469" fill="none" stroke="#616d78" stroke-width="4.503"/>
        <path id="Tracé_11283" data-name="Tracé 11283" d="M2279.884,799.9l58.9,48.989s94.057,13.444,99.758,17.1" fill="none" stroke="#616d78" stroke-width="4.503"/>
      </g>
    </g>
  </g>
</svg>
