<svg width="721" height="678" viewBox="0 0 721 678" fill="none" xmlns="http://www.w3.org/2000/svg">
<g clip-path="url(#clip0_212_152)">
<path d="M602 281.116L600.141 282.696C600.552 282.595 600.934 282.4 601.257 282.126C601.58 281.851 601.834 281.506 602 281.116" fill="#FAF7EF"/>
<path d="M595.681 190.655C595.701 190.372 595.705 190.118 595.71 189.855C595.69 190.122 595.686 190.373 595.681 190.655Z" fill="#FAF7EF"/>
<path d="M595.78 187.973C595.729 188.625 595.737 189.227 595.709 189.851C595.873 189.238 595.897 188.597 595.78 187.973" fill="#FAF7EF"/>
<path d="M699.72 409.445L700.096 409.79C700.07 409.606 699.958 409.463 699.927 409.273L699.72 409.445Z" fill="#FAF7EF"/>
<path d="M693.517 414.396L699.717 409.442C698.832 408.651 697.924 407.842 696.858 406.788C692.358 405.458 692.29 411.688 693.514 414.396" fill="#FAF7EF"/>
<path d="M650.785 800.15C651.155 799.817 651.621 799.61 652.116 799.559C652.611 799.508 653.11 799.617 653.539 799.868C654.617 800.39 655.623 801.049 656.533 801.827C658.491 803.359 660.192 804.455 660.758 801.009C658.275 799.094 655.788 797.144 653.299 795.158C656.744 796.09 660.788 792.586 663.86 791.892C660.42 790.733 657.626 792.673 654.504 794.092C651.382 795.492 647.936 796.392 643.189 792.785C642.267 792.403 641.476 791.762 640.911 790.938C640.347 790.115 640.034 789.146 640.01 788.148C639.902 786.265 640.177 784.379 640.817 782.605C639.405 788.984 634.424 782.427 631.96 779.754C634.775 775.824 633.743 769.379 638.221 767.711C636.657 767.045 635.834 763.922 636.696 761.832L638.996 761.741C637.264 756.873 636.681 763.246 634.357 761.913C634.069 760.158 635.231 757.984 636.464 755.56C637.697 753.136 638.964 750.466 639.064 747.628C638.944 753.301 641.936 758.152 644.238 762.253C646.558 757.282 649.458 757.926 652.514 760.064C654.041 761.134 655.606 762.58 657.155 763.907C658.534 765.164 660.088 766.215 661.768 767.027C661.449 766.034 661.105 765.113 660.74 764.25C660.395 763.378 660.03 762.564 659.646 761.792C658.903 760.322 658.074 758.896 657.162 757.524C655.18 754.763 653.392 751.868 651.812 748.859C654.504 745.003 658.705 745.518 662.312 747.197C665.919 748.876 668.912 751.726 669.212 752.727C667.566 748.824 665.512 745.106 663.084 741.635C660.723 738.135 658.591 734.961 657.484 732.868C665.951 739.189 668.858 738.527 675.736 743.926C676.824 743.085 677.61 741.912 677.974 740.586C678.044 740.137 678.01 739.678 677.873 739.244C677.737 738.81 677.502 738.414 677.187 738.086C675.946 736.604 673.587 735.386 672.011 733.833C672.688 735.533 673.044 738.076 671.211 738.501C672.632 731.694 658.687 731.508 653.054 727.208C657.319 722.354 660.244 712.585 668.269 714.261L659.608 713.273C658.301 706.843 664.451 710.625 667.398 710.027C661.798 706.976 652.916 708.807 651.948 697.984C665.655 701.504 654.465 688.753 667.1 690.85C666.916 685.867 660.26 682.544 662.451 677.621C670.461 673.049 678.403 687.967 675.877 690.629C675.284 697.693 670.187 688.872 669.952 691.706L672.852 698.961C676.039 695.581 680.107 688.719 685.772 690.461C684.083 683.236 678.972 695.091 676.748 687.1L680.624 683.032C678.451 675.005 670.68 683.174 670.46 673.032C675.56 680.632 672.125 662.237 681.252 664.306C669.775 662.089 682.543 646.138 673.61 642.471L670.155 647.404L675.455 647.053C674.838 652.886 677.176 658.214 674.287 663.83C670.749 658.487 664.371 663.9 661.476 657.846C656.223 646.439 668.076 656.099 668.23 654.635L663.353 645.444L657.604 650.212C657.076 646.434 657.012 642.606 657.413 638.812C657.832 634.444 658.567 630.112 659.613 625.851C668.513 613.78 665.752 628.521 673.683 620.126C671.844 615.464 668.838 616.032 670.637 610.132C666.842 612.858 671.176 616.179 670.349 618.377C662.578 620.098 668.642 606.99 661.679 606.502C664.811 604.467 667.643 605.402 670.318 607.842C669.097 597.187 671.782 587.518 681.318 584.983L673.09 579.207C678.739 562.014 679.47 592.496 687.177 578.446C688.886 572.412 689.432 566.301 686.205 563.112L685.159 568.395C680.903 563.642 677.459 563.47 675.124 556.549C676.614 552.067 682.195 555.329 678.011 549.103C684.832 535.703 692.187 546.553 700.071 549.93C706.071 540.162 716.341 557.43 713.477 549.903L711.248 551.538L700.878 539.244C689.73 548.036 709.478 544.42 699.102 547.124L697.57 553.017C692.807 550.467 698.109 537.09 692.584 535.117C695.54 535.369 702.17 537.717 701.727 544.017L713.19 541.682C714.716 538.182 707.729 534.865 712.921 533.482C720.721 528.929 723.166 542.833 727.705 529.826C731.722 515.794 718.086 515.099 720.987 505.637C718.408 506.356 718.406 508.789 717.7 511.763C714.356 508.198 710.683 513.363 708.458 507.772C716.18 505.617 716.927 495.372 717.474 487.59C721.301 490.044 725.774 485.459 727.854 488.144C727.275 484.087 726.391 480.309 723.206 478.288C716.106 493.541 718.493 462.358 709.853 473.904C710.301 469.268 712.22 464.896 715.329 461.428C717.82 458.557 720.7 456.302 722.981 452.657C725.204 453.357 726.381 467.284 730.499 456.629C723.799 443.356 719.465 457.879 710.999 447.303L707.557 454.909C697.968 455.025 706.376 441.117 704.457 438.909C707.278 434.273 706.539 445.883 713.402 441.709C716.123 434.639 710.486 430.497 714.369 426.171C720.469 431.198 718.153 428.115 723.5 433.733C724.706 416.663 730.973 435.226 735.991 422.494C735.068 418.249 729.254 420.451 731.179 413.887C723.948 417.256 721.693 416.581 720.697 427.319C710.897 422.764 724.145 413.362 718.617 405.393C717.398 411.343 716.468 407.122 717.503 413.741C709.023 413.985 707.546 416.269 700.116 409.783C701.875 416.883 710.733 420.609 707.516 430.389C698.755 432.416 701.816 417.644 690.69 416.666C685.43 411.31 691.006 399.708 695.517 394.516C689.243 384.432 689.781 372.647 680.228 364.716C683.928 357.983 675.277 340.216 678.853 327.354C683.903 325.611 682.811 311.504 687.898 319.773C686.325 318.562 685.85 307.695 681.235 310.326C682.811 311.51 681.435 312.675 681.61 315.02L675.517 312.661C678.353 306.498 670.777 299.148 674.742 293.293C679.788 291.523 677.493 304.726 683.486 300.918C674.535 294.726 671.337 271.058 675.528 263.69C676.928 258.698 684.671 258.342 685.579 256.262L685.159 247.77C687.674 246.848 690.643 246.804 693.831 245.316C695.673 241.178 693.171 238.262 691.826 235.633C697.086 224.686 703.232 230.746 708.219 236.584L705.454 242.784C708.844 247.461 707.216 253.984 714.295 250.337C713.628 247.127 710.688 247.154 709.095 245.981L713.205 242.402C710.249 238.602 708.924 228.302 703.45 229.262C707.524 221.847 702.945 213.107 707.501 206.537C703.871 211.037 701.801 205.187 697.479 206.449L695.679 214.412C694.266 207.976 690.424 198.662 694.225 192.712C697.64 193.512 698.78 193.779 702.177 190.778C697.415 194.99 696.166 179.478 690.077 188.702C691.992 192.073 692.67 196.007 691.993 199.825C684.475 202.596 683.788 195.579 679.632 191.588C678.007 186.648 675.86 177.029 673.306 170.382C675.099 166.241 683.512 165.13 678.628 157.943C671.468 166.915 666.904 149.219 659.594 146.798C662.899 139.978 653.522 135.614 659.582 130.176C662.151 133.005 661.815 143.534 667.324 146.285C672.565 146.728 681.194 144.109 683.836 154.58C686.624 142.073 679.415 147.161 677.336 141.37L678.01 145.67C675.944 143.696 671.897 147.331 671.839 143.525C673.948 128.855 679.539 126.325 686.223 116.444C682.396 118.629 678.886 114.066 678.623 111.723C683.47 102.202 689.792 111.931 697.669 106.123C692.832 102.759 694.31 96.2611 690.469 98.4411C690.387 94.6551 692.478 96.6311 694.021 93.9351C689.641 91.4641 687.089 88.6161 687.221 83.3651C689.504 83.8521 692.927 84.6061 691.663 89.6311C693.612 84.0001 701.535 81.9691 705.915 84.4391L702.904 93.6191C708.235 97.8321 705.249 85.0521 710.482 85.4321C711.703 89.4981 708.339 92.5411 709.766 95.1321C715.416 92.5791 710.023 84.5811 709.466 79.9131C710.466 72.5461 715.98 75.2731 718.949 75.1701C710.029 62.6021 708.758 89.6051 700.315 77.9001C693.851 73.4521 694.757 62.3001 693.447 54.4611C686.073 61.1711 682.947 53.6781 680.484 45.5951C680.275 56.1241 671.899 48.2631 676.717 60.6441L670.804 60.8691C670.92 55.6001 673.504 49.3751 673.635 44.1111C675.235 45.2111 676.571 43.9931 677.543 45.7211L674.914 30.0321L678.814 31.6321C679.493 21.9711 684.005 10.1041 681.825 4.34109C682.383 8.9971 676.565 13.0191 674.846 8.13409C672.286 5.30609 669.429 0.166104 669.996 -4.2309C676.776 -6.5419 676.619 -23.1819 683.476 -12.6489C679.976 -26.2259 678.713 -21.2179 674.553 -34.1969L676.337 -25.5059C670.909 -24.4209 661.837 -31.6539 658.401 -23.3359C654.966 -33.1259 645.317 -26.8999 644.122 -40.0089C647.422 -45.3229 655.1 -38.3989 656.471 -31.0429C656.912 -34.7429 659.893 -38.1079 656.148 -41.9429C660.624 -44.7339 664.048 -34.9519 665.857 -35.3189C666.165 -42.0519 662.911 -35.1949 661.402 -41.5539C655.215 -52.6999 670.571 -48.6259 666.69 -59.2819C666.963 -56.9539 665.235 -52.8149 662.664 -55.6189C662.8 -69.9299 657.243 -63.5929 654.511 -73.9969C662.371 -79.8449 670.859 -77.2399 672.7 -86.6259L672.578 -81.3899C676.598 -85.0359 678.339 -89.1779 678.243 -92.9729C671.505 -112.54 659.57 -128.767 653.594 -149.028L655.528 -141.786C652.82 -139.365 652.239 -147.841 649.272 -147.747L652.858 -152.227C647.143 -153.527 647.314 -142.127 641.806 -144.876C642.154 -145.273 642.379 -145.763 642.451 -146.286C642.524 -146.809 642.442 -147.341 642.215 -147.818L640.47 -143.656C642.37 -153.082 632.222 -160.685 641.497 -167.692C642.397 -149.273 658.146 -164.671 660.906 -146.651C658.706 -156.199 667.022 -148.278 669.527 -149.234C670.818 -154.234 665.159 -151.734 667.109 -157.346C671.232 -157.165 674.838 -145.03 677.928 -150.375C671.545 -151.053 672.841 -156.043 668.473 -158.53C670.238 -162.668 672.573 -158.378 674.605 -160.182C674.352 -162.496 671.587 -163.882 672.478 -165.944L676.388 -164.321C682.18 -175.827 670.421 -167.926 672.307 -181.084C667.079 -181.533 668.251 -177.475 669.229 -171.971C657.652 -169.326 656.968 -189.148 644.469 -188.257C642.721 -200.799 649.255 -184.873 652.597 -195.476C660.512 -201.208 660.855 -187.501 666.367 -184.718L671.485 -195.653C681.524 -191.81 678.197 -185.031 687.328 -182.944C687.928 -191.1 685.408 -190.166 681.939 -198.52C674.052 -185.231 675.763 -204.476 665.8 -196.968C668.484 -203.148 670.548 -201.156 670.721 -210.19C672.821 -204.415 678.932 -209.802 678.968 -202.222C678.436 -214.428 676.168 -211.176 675.661 -223.387C668.58 -227.352 666.161 -211.241 661.304 -226.048C661.304 -229.229 663.993 -228.548 663.926 -226.683C666.976 -237.119 655.013 -224.725 651.517 -231.413C650.752 -236.033 653.596 -237.613 655.251 -235.679C651.458 -242.668 646.619 -238.973 645.129 -243.605L644.215 -241.536C642.181 -243.554 631.924 -238.413 631.698 -248.389C631.881 -255.662 635.83 -253.272 638.216 -253.379C635.882 -259.09 638.123 -263.379 640.731 -267.167C639.324 -266.82 637.931 -267.295 637.946 -269.01C635.946 -278.681 644.133 -274.335 645.29 -277.866C649.257 -291.401 632.071 -276.6 632.19 -291.876L629.3 -274.21C625.883 -275.062 620.648 -275.61 620.62 -271.777C625.853 -271.248 630.142 -264.814 629.165 -258.914C623.024 -257.371 622.913 -275.046 616.015 -265.24C617.172 -268.79 615.632 -273.808 616.338 -278.224C622.679 -273.561 618.038 -292.391 625.032 -284.473C624.512 -294.188 625.518 -299.728 626.038 -305.073C626.577 -310.417 626.712 -315.573 624.688 -324.567C628.535 -322.776 638.388 -311.011 635.05 -301.897L631.397 -301.281C635.318 -289.543 635.863 -310.138 641.966 -307.781C632.566 -322.474 648.066 -339.168 645.3 -356.771C641.814 -353.88 640.07 -357.445 636.7 -358.371C637.177 -351.294 638.608 -352.46 634.141 -347.507C629.61 -348.723 631.533 -352.837 628.4 -355.231C623.446 -357.348 628.061 -349.924 625.255 -347.574C622.916 -354.41 622.212 -353.812 618.227 -358.016C622.445 -361.509 624.701 -360.882 629.352 -363.484C631.295 -379.984 622.114 -378.677 624.662 -391.953C623.225 -384.592 630.001 -395.095 627.892 -387.142L628.737 -391.569C635.364 -379.588 634.025 -359.877 646.137 -361.18C645.549 -370.58 639.184 -377.768 639.58 -389.242L641.829 -388.611C642.872 -396.847 638.879 -388.678 636.907 -390.773C633.454 -400.319 649.261 -401.961 641.156 -408.943L638.672 -399.604C634.232 -407.094 637.666 -397.56 629.79 -399.819C627.24 -406.397 627.329 -415.141 627.534 -424.549C627.814 -433.962 628.161 -444.034 625.952 -453.349C621.332 -448.5 621.036 -447.023 620.18 -440.202C609.68 -444.176 611.428 -446.832 601.927 -444.223L600.765 -435.87L590.78 -436.535C590.827 -438.832 591.469 -441.078 592.644 -443.053C586.48 -444.728 595.576 -455.664 589.652 -456.743L589.91 -449.506C584.488 -446.404 585.657 -454.81 584.371 -460.004C577.511 -455.771 583.456 -444.328 583.103 -434.104C586.783 -434.548 593.473 -423.822 594.955 -433.675C599.033 -433.23 600.721 -427.165 600.526 -423.275C598.59 -425.463 589.065 -416.45 586.744 -425.836C590.883 -416.693 586.569 -421.93 588.168 -411.975C585.5 -413.547 587.16 -394.894 578.585 -396.59C582.069 -393.236 591.326 -395.91 591.085 -384.575C594.157 -385.764 596.093 -389.491 598.005 -391.812C599.942 -394.137 601.828 -395.048 604.773 -390.627L601.147 -396.371C604.447 -404.048 607.2 -393.824 610.37 -403.9C609.779 -400.92 612.697 -394.6 608.305 -393.521C621.105 -395.316 613.683 -377.955 622.976 -376.902C619.046 -374.889 618.486 -371.937 619.201 -366.273C615.801 -367.235 612.301 -364.318 610.173 -368.807C611.423 -372.35 610.161 -375.046 613.256 -378.853C600.533 -377.4 608.409 -364.545 605.27 -355.371C606.34 -356.624 607.57 -356.93 609.257 -354.257C607.075 -348.669 604.257 -336.205 598.43 -340.101L598.53 -325.679L598.759 -311.279C595.793 -311.269 597.681 -315.428 596.787 -317.222L595.871 -301.191C591.712 -297.591 592.083 -306.803 588.246 -308.582L588.058 -296.982L584.217 -298.749C586.631 -295.785 587.453 -282.426 581.039 -279.399C581.797 -273.015 585.416 -269.784 588.062 -266.029C590.708 -262.274 592.381 -257.999 589.314 -249.517C582.939 -250.317 587.249 -259.259 583.209 -263.369C580.868 -260.069 585.22 -249.757 579.073 -248.181C582.473 -235.774 593.861 -236.859 599.997 -230.768C600.241 -220.734 594.544 -229.782 592.712 -229.429C592.246 -226.464 603.921 -221.392 595.265 -218.867C599.844 -213.939 605.323 -211.117 607.565 -218.233C607.381 -212.921 610.365 -205.333 613.126 -203.933C603.75 -208.404 609.285 -197.939 601.537 -197.473C599.758 -189.453 597.257 -171.705 607.342 -164.061L597.07 -166.421L598.105 -157.021C591.817 -150.076 591.587 -165.358 591.105 -170.072C589.84 -157.339 590.479 -148.847 590.65 -137.372C592.862 -140.694 594.957 -138.686 598.116 -140.254C602.292 -136.283 599.167 -130.89 600.382 -126.805C597.891 -125.837 595.601 -126.352 594.87 -129.554L596.139 -121.682C589.747 -122.352 589.821 -118.517 585.586 -126.323L587.54 -119.041C585.872 -111.034 582.297 -119.435 580.199 -121.424L579.082 -108.744C582.582 -104.175 584.729 -111.296 586.474 -102.544C580.774 -90.8749 582.926 -75.9929 581.146 -62.7239L587.11 -72.0469C585.455 -64.0569 595.664 -65.6309 600.047 -63.1589C599.066 -55.7969 599.527 -45.8749 596.947 -39.6369C591.997 -46.7529 584.553 -43.8369 580.13 -37.2189C579.33 -22.2619 590.414 -25.9289 594.021 -17.5959C581.346 -24.0959 589.721 -7.19591 582.852 -8.66791C583.297 10.2941 587.852 29.3511 587.585 48.8601C589.415 48.4841 591.332 42.8911 593.226 46.3201C595.218 53.5031 590.05 56.9021 587.56 57.8751C588.688 67.1511 592.66 72.4941 596.371 75.5681C595.158 71.5411 596.959 71.1831 600.402 71.9421C601.5 81.1961 593.018 78.5961 598.883 87.3961C592.097 89.6701 595.506 77.6271 588.903 78.4501C588.391 86.6071 591.232 91.7371 594.547 97.7131C590.236 99.0351 593.531 92.2381 589.962 96.7131C592.921 109.349 597.3 124.583 599.493 134.084L593.832 136.57C594.144 142.634 595.332 146.652 597.893 149.47C595.648 152.721 594.232 150.145 593.53 146.99C592.951 155.102 597.419 165.119 597.887 169.728C594.47 168.944 597.401 165.116 594.658 163.736C593.141 173.865 604.201 186.903 596.736 193.436C596.367 193.077 596.082 192.641 595.899 192.16C595.717 191.678 595.642 191.163 595.681 190.649C595.537 197.938 596.005 205.227 597.081 212.438C597.981 219.654 599.053 227.056 599.107 235.213C592.007 249.972 607.74 240.276 606.561 255.002C591.377 254.639 605.015 274.996 602 281.116L604.277 279.225C607.198 282.962 607.205 287.29 605.937 291.289C604.616 295.03 602.55 298.464 599.864 301.383C599.048 307.725 598.799 314.127 599.12 320.513C599.527 327.375 600.703 334.26 603.514 339.899L600.406 337.555C603.981 346.798 598.892 352.172 602.396 361.432C601.269 361.115 599.587 357.632 598.303 361.059C597.381 366.447 596.686 371.859 596.167 377.292C595.648 382.725 595.324 388.182 595.019 393.633C594.739 399.09 594.585 404.562 594.505 410.045L594.351 426.496C594.217 448.435 594.203 470.417 590.977 491.774C590.186 496.879 589.384 502.059 588.571 507.314C588.16 509.938 587.787 512.586 587.347 515.236C586.907 517.886 586.469 520.551 586.026 523.231C584.244 533.945 582.605 544.921 580.657 555.97L575.072 589.605C573.142 601.029 571.247 612.57 569.44 624.346C565.84 647.804 562.74 671.946 561.148 695.946C559.41 719.405 559.626 742.968 561.794 766.391C561.794 766.391 565.663 769.216 571.881 773.203C579.774 778.243 587.942 782.841 596.346 786.974C601.066 789.297 606.124 791.51 611.125 793.441C615.974 795.331 620.925 796.948 625.955 798.284C635.571 800.793 644.378 801.684 650.785 800.146" fill="#FAF7EF"/>
<path d="M677.311 141.375L676.754 137.815C676.739 139.024 676.927 140.228 677.311 141.375Z" fill="#FAF7EF"/>
<path d="M697.366 401.475C701.747 400.411 709.108 408.097 713.29 402.26C713.802 396.905 713.002 393.586 711.57 391.279C710.138 388.972 708.115 387.673 706.104 386.358C702.082 383.727 698.149 381.037 699.383 370.107L693.706 380.925C701.453 380.825 705.27 388.925 705.32 397.547L699.507 399.763C698.049 398.257 696.758 396.597 695.658 394.813C694.74 397.986 699.242 397.694 697.366 401.475" fill="#FAF7EF"/>
<path d="M695.917 394.027C695.785 394.178 695.649 394.375 695.496 394.527C695.563 394.616 695.618 394.713 695.657 394.817C695.724 394.549 695.811 394.286 695.917 394.031" fill="#FAF7EF"/>
<path d="M652 0H38V678H652V0Z" fill="#F9F6ED"/>
<path d="M85.178 84.1871C85.1782 86.6269 84.4549 89.0121 83.0995 91.0408C81.7441 93.0696 79.8176 94.6509 77.5635 95.5847C75.3094 96.5186 72.829 96.763 70.436 96.2871C68.0429 95.8113 65.8448 94.6365 64.1195 92.9113C62.3942 91.1861 61.2192 88.988 60.7431 86.5951C60.267 84.2021 60.5113 81.7217 61.4449 79.4675C62.3786 77.2133 63.9597 75.2867 65.9884 73.9311C68.017 72.5756 70.4021 71.8521 72.842 71.8521C76.1134 71.8523 79.2509 73.1519 81.5642 75.4651C83.8776 77.7783 85.1775 80.9156 85.178 84.1871V84.1871Z" stroke="#3D4550" stroke-width="1.598"/>
<path d="M82.231 84.2721C82.231 86.1708 81.668 88.0269 80.6131 89.6056C79.5583 91.1843 78.0589 92.4148 76.3048 93.1414C74.5506 93.868 72.6204 94.0581 70.7581 93.6877C68.8959 93.3172 67.1854 92.4029 65.8428 91.0603C64.5002 89.7178 63.5859 88.0072 63.2155 86.145C62.8451 84.2828 63.0352 82.3525 63.7618 80.5984C64.4884 78.8442 65.7188 77.3449 67.2975 76.29C68.8762 75.2351 70.7323 74.6721 72.631 74.6721C75.1771 74.6721 77.6189 75.6835 79.4192 77.4839C81.2196 79.2842 82.231 81.726 82.231 84.2721" fill="#3D4550"/>
<path d="M80.5274 89.7469C83.5495 85.3887 82.4664 79.4058 78.1082 76.3837C73.75 73.3616 67.7671 74.4447 64.745 78.8029C61.7229 83.1611 62.806 89.144 67.1642 92.1661C71.5224 95.1882 77.5053 94.1051 80.5274 89.7469Z" stroke="#3D4550" stroke-width="1.24436"/>
<path d="M66.403 91.5559H8.12898C6.25297 91.5559 4.4538 90.8107 3.12726 89.4842C1.80072 88.1576 1.05548 86.3584 1.05548 84.4824C1.05548 82.6064 1.80072 80.8073 3.12726 79.4807C4.4538 78.1542 6.25297 77.4089 8.12898 77.4089H66.403C68.279 77.4089 70.0782 78.1542 71.4047 79.4807C72.7312 80.8073 73.4765 82.6064 73.4765 84.4824C73.4765 86.3584 72.7312 88.1576 71.4047 89.4842C70.0782 90.8107 68.279 91.5559 66.403 91.5559Z" fill="white"/>
<path d="M66.403 91.5559H8.12898C6.25297 91.5559 4.4538 90.8107 3.12726 89.4842C1.80072 88.1576 1.05548 86.3584 1.05548 84.4824C1.05548 82.6064 1.80072 80.8073 3.12726 79.4807C4.4538 78.1542 6.25297 77.4089 8.12898 77.4089H66.403C68.279 77.4089 70.0782 78.1542 71.4047 79.4807C72.7312 80.8073 73.4765 82.6064 73.4765 84.4824C73.4765 86.3584 72.7312 88.1576 71.4047 89.4842C70.0782 90.8107 68.279 91.5559 66.403 91.5559Z" stroke="#3D4550" stroke-width="1.152"/>
<path d="M85.822 214.16C85.822 216.6 85.0984 218.985 83.7428 221.014C82.3873 223.042 80.4605 224.624 78.2063 225.557C75.9521 226.491 73.4716 226.735 71.0786 226.259C68.6856 225.783 66.4875 224.608 64.7624 222.882C63.0372 221.157 61.8625 218.958 61.3868 216.565C60.911 214.172 61.1556 211.692 62.0896 209.438C63.0236 207.184 64.605 205.257 66.6339 203.902C68.6628 202.547 71.0481 201.824 73.488 201.824C76.7593 201.825 79.8965 203.124 82.2095 205.438C84.5226 207.751 85.822 210.889 85.822 214.16V214.16Z" stroke="#3D4550" stroke-width="1.598"/>
<path d="M82.875 214.245C82.875 216.144 82.312 218 81.2571 219.578C80.2022 221.157 78.7029 222.388 76.9488 223.114C75.1946 223.841 73.2643 224.031 71.4021 223.661C69.5399 223.29 67.8294 222.376 66.4868 221.033C65.1442 219.691 64.2299 217.98 63.8595 216.118C63.489 214.256 63.6791 212.325 64.4057 210.571C65.1323 208.817 66.3628 207.318 67.9415 206.263C69.5202 205.208 71.3763 204.645 73.275 204.645C75.8211 204.645 78.2629 205.656 80.0632 207.457C81.8636 209.257 82.875 211.699 82.875 214.245" fill="#3D4550"/>
<path d="M81.1724 219.72C84.1945 215.362 83.1114 209.379 78.7532 206.357C74.395 203.334 68.4121 204.418 65.39 208.776C62.3679 213.134 63.451 219.117 67.8092 222.139C72.1674 225.161 78.1503 224.078 81.1724 219.72Z" stroke="#3D4550" stroke-width="1.24436"/>
<path d="M67.044 221.529H8.77296C6.89695 221.529 5.09778 220.784 3.77124 219.457C2.4447 218.131 1.69946 216.332 1.69946 214.456C1.69946 212.58 2.4447 210.78 3.77124 209.454C5.09778 208.127 6.89695 207.382 8.77296 207.382H67.044C68.92 207.382 70.7191 208.127 72.0457 209.454C73.3722 210.78 74.1175 212.58 74.1175 214.456C74.1175 216.332 73.3722 218.131 72.0457 219.457C70.7191 220.784 68.92 221.529 67.044 221.529" fill="white"/>
<path d="M67.044 221.529H8.77296C6.89695 221.529 5.09778 220.784 3.77124 219.457C2.4447 218.131 1.69946 216.332 1.69946 214.456C1.69946 212.58 2.4447 210.78 3.77124 209.454C5.09778 208.127 6.89695 207.382 8.77296 207.382H67.044C68.92 207.382 70.7191 208.127 72.0457 209.454C73.3722 210.78 74.1175 212.58 74.1175 214.456C74.1175 216.332 73.3722 218.131 72.0457 219.457C70.7191 220.784 68.92 221.529 67.044 221.529V221.529Z" stroke="#3D4550" stroke-width="1.152"/>
<path d="M84.49 471.52C84.49 473.96 83.7665 476.345 82.411 478.374C81.0555 480.402 79.1289 481.983 76.8748 482.917C74.6207 483.851 72.1403 484.095 69.7474 483.619C67.3544 483.143 65.1564 481.968 63.4311 480.243C61.7059 478.518 60.531 476.32 60.055 473.927C59.579 471.534 59.8233 469.053 60.757 466.799C61.6907 464.545 63.2718 462.619 65.3005 461.263C67.3291 459.908 69.7142 459.184 72.154 459.184C75.4257 459.184 78.5634 460.484 80.8769 462.797C83.1903 465.111 84.49 468.248 84.49 471.52Z" stroke="#3D4550" stroke-width="1.598"/>
<path d="M81.543 471.601C81.543 473.5 80.98 475.356 79.9251 476.934C78.8703 478.513 77.371 479.744 75.6168 480.47C73.8626 481.197 71.9324 481.387 70.0702 481.016C68.2079 480.646 66.4974 479.732 65.1548 478.389C63.8122 477.047 62.8979 475.336 62.5275 473.474C62.1571 471.612 62.3472 469.681 63.0738 467.927C63.8004 466.173 65.0308 464.674 66.6095 463.619C68.1883 462.564 70.0443 462.001 71.943 462.001C74.4891 462.001 76.9309 463.012 78.7312 464.813C80.5316 466.613 81.543 469.055 81.543 471.601" fill="#3D4550"/>
<path d="M71.944 481.201C77.2459 481.201 81.544 476.903 81.544 471.601C81.544 466.299 77.2459 462.001 71.944 462.001C66.6421 462.001 62.344 466.299 62.344 471.601C62.344 476.903 66.6421 481.201 71.944 481.201Z" stroke="#3D4550" stroke-width="1.244"/>
<path d="M65.712 478.884H7.44099C5.56498 478.884 3.76581 478.139 2.43927 476.812C1.11273 475.486 0.367493 473.687 0.367493 471.811C0.367493 469.935 1.11273 468.135 2.43927 466.809C3.76581 465.482 5.56498 464.737 7.44099 464.737H65.712C67.588 464.737 69.3872 465.482 70.7137 466.809C72.0403 468.135 72.7855 469.935 72.7855 471.811C72.7855 473.687 72.0403 475.486 70.7137 476.812C69.3872 478.139 67.588 478.884 65.712 478.884" fill="white"/>
<path d="M65.712 478.884H7.44099C5.56498 478.884 3.76581 478.139 2.43927 476.812C1.11273 475.486 0.367493 473.687 0.367493 471.811C0.367493 469.935 1.11273 468.135 2.43927 466.809C3.76581 465.482 5.56498 464.737 7.44099 464.737H65.712C67.588 464.737 69.3872 465.482 70.7137 466.809C72.0403 468.135 72.7855 469.935 72.7855 471.811C72.7855 473.687 72.0403 475.486 70.7137 476.812C69.3872 478.139 67.588 478.884 65.712 478.884V478.884Z" stroke="#3D4550" stroke-width="1.152"/>
<path d="M85.135 601.488C85.1354 603.928 84.4123 606.313 83.057 608.342C81.7017 610.371 79.7753 611.952 77.5212 612.886C75.2671 613.82 72.7867 614.065 70.3936 613.589C68.0005 613.113 65.8023 611.939 64.0769 610.214C62.3514 608.488 61.1763 606.29 60.7002 603.897C60.224 601.504 60.4682 599.024 61.4018 596.77C62.3355 594.515 63.9166 592.589 65.9453 591.233C67.974 589.878 70.3591 589.154 72.799 589.154C76.0703 589.154 79.2075 590.454 81.5209 592.767C83.8342 595.08 85.1342 598.217 85.135 601.488V601.488Z" stroke="#3D4550" stroke-width="1.598"/>
<path d="M82.187 601.573C82.187 603.472 81.624 605.328 80.5691 606.906C79.5142 608.485 78.0149 609.716 76.2608 610.442C74.5066 611.169 72.5764 611.359 70.7141 610.988C68.8519 610.618 67.1414 609.704 65.7988 608.361C64.4562 607.019 63.5419 605.308 63.1715 603.446C62.801 601.584 62.9912 599.653 63.7178 597.899C64.4444 596.145 65.6748 594.646 67.2535 593.591C68.8322 592.536 70.6883 591.973 72.587 591.973C75.1331 591.973 77.5749 592.984 79.3752 594.785C81.1756 596.585 82.187 599.027 82.187 601.573" fill="#3D4550"/>
<path d="M72.588 611.173C77.8899 611.173 82.188 606.875 82.188 601.573C82.188 596.271 77.8899 591.973 72.588 591.973C67.286 591.973 62.988 596.271 62.988 601.573C62.988 606.875 67.286 611.173 72.588 611.173Z" stroke="#3D4550" stroke-width="1.244"/>
<path d="M66.356 608.857H8.08497C6.20897 608.857 4.40979 608.112 3.08325 606.785C1.75672 605.459 1.01147 603.659 1.01147 601.783C1.01147 599.907 1.75672 598.108 3.08325 596.782C4.40979 595.455 6.20897 594.71 8.08497 594.71H66.356C68.232 594.71 70.0312 595.455 71.3577 596.782C72.6842 598.108 73.4295 599.907 73.4295 601.783C73.4295 603.659 72.6842 605.459 71.3577 606.785C70.0312 608.112 68.232 608.857 66.356 608.857" fill="white"/>
<path d="M66.356 608.857H8.08497C6.20897 608.857 4.40979 608.112 3.08325 606.785C1.75672 605.459 1.01147 603.659 1.01147 601.783C1.01147 599.907 1.75672 598.108 3.08325 596.782C4.40979 595.455 6.20897 594.71 8.08497 594.71H66.356C68.232 594.71 70.0312 595.455 71.3577 596.782C72.6842 598.108 73.4295 599.907 73.4295 601.783C73.4295 603.659 72.6842 605.459 71.3577 606.785C70.0312 608.112 68.232 608.857 66.356 608.857V608.857Z" stroke="#3D4550" stroke-width="1.152"/>
</g>
<defs>
<clipPath id="clip0_212_152">
<rect width="721" height="680" fill="white"/>
</clipPath>
</defs>
</svg>
