<svg width="1951" height="690" viewBox="0 0 1951 690" fill="none" xmlns="http://www.w3.org/2000/svg">
<path d="M1951 120H5V570H1951V120Z" fill="#F9F6ED"/>
<path d="M317.217 96.343C317.526 96.4209 317.8 96.6077 317.996 96.8729C318.191 97.1381 318.296 97.466 318.294 97.803C319.003 97.61 319.681 97.503 320.407 97.26L317.217 96.343Z" fill="#FAF7EF"/>
<path d="M116.547 144.878C116.428 144.878 116.31 144.888 116.192 144.907C116.59 145.433 116.858 146.057 116.972 146.722C117.442 145.575 117.442 145.575 116.547 144.878Z" fill="#FAF7EF"/>
<path d="M167.691 133.371C168.537 133.917 169.329 134.554 170.053 135.271C170.068 134.571 169.067 133.952 167.691 133.371Z" fill="#FAF7EF"/>
<path d="M290.506 92.3801C292.649 93.2301 294.816 94.2801 297.053 95.2891C296.417 93.5521 293.957 91.7781 290.506 92.3801Z" fill="#FAF7EF"/>
<path d="M161.177 130.723C162.869 131.654 165.648 132.483 167.692 133.371C165.691 132.072 163.482 131.174 161.177 130.723Z" fill="#FAF7EF"/>
<path d="M21.8506 141.358C23.2208 142.144 24.6494 142.809 26.1221 143.346C26.2772 142.931 26.5762 142.666 26.6119 142.132L21.8506 141.358Z" fill="#FAF7EF"/>
<path d="M1932.25 68.19C1928.49 69.029 1927.86 70.432 1928.45 72.129C1929.4 70.5111 1930.7 69.1601 1932.25 68.19Z" fill="#FAF7EF"/>
<path d="M1836.72 65.1331C1837.52 64.8417 1838.29 64.4574 1839.01 63.9871C1837.43 64.3871 1836.32 64.9001 1836.72 65.1331Z" fill="#FAF7EF"/>
<path d="M1890.56 95.7071C1890.61 96.4385 1890.83 97.1455 1891.19 97.7701C1891.6 97.1841 1891.48 96.4951 1890.56 95.7071Z" fill="#FAF7EF"/>
<path d="M1141.64 133.99L1144.07 135.852C1143.82 135.367 1143.48 134.948 1143.05 134.626C1142.63 134.303 1142.15 134.086 1141.64 133.99Z" fill="#FAF7EF"/>
<path d="M1002.29 140.309C1001.85 140.289 1001.46 140.285 1001.05 140.28C1001.46 140.3 1001.85 140.304 1002.29 140.309Z" fill="#FAF7EF"/>
<path d="M998.157 140.21C999.16 140.261 1000.09 140.253 1001.05 140.281C1000.09 140.117 999.12 140.094 998.157 140.21Z" fill="#FAF7EF"/>
<path d="M18.5411 130.89C14.6344 133.941 5.81877 134.518 5.07129 138.6L21.8479 141.36C16.1792 138.042 13.6838 133.446 18.5401 130.89" fill="#FAF7EF"/>
<path d="M1470.56 6.97212C1464.96 6.92812 1462.07 7.38512 1460.55 8.15112C1463.98 7.83112 1467.49 7.59913 1470.82 7.17113L1470.56 6.97212Z" fill="#FAF7EF"/>
<path d="M1339.32 36.27C1339.49 36.145 1339.69 36.005 1339.85 35.894C1339.57 35.92 1339.34 36.032 1339.05 36.063L1339.32 36.27Z" fill="#FAF7EF"/>
<path d="M1481.17 3.65991C1481.97 3.15186 1482.68 2.49781 1483.26 1.72792C1481.13 1.72792 1480.87 2.56291 1481.17 3.65991Z" fill="#FAF7EF"/>
<path d="M345.558 80.7691C346.344 80.4562 347.144 80.1871 347.957 79.9631C347.121 80.0906 346.311 80.3629 345.558 80.7691Z" fill="#FAF7EF"/>
<path d="M1346.95 42.473L1339.32 36.273C1338.1 37.158 1336.85 38.066 1335.23 39.133C1333.18 43.633 1342.77 43.7 1346.95 42.476" fill="#FAF7EF"/>
<path d="M1481.17 3.66009C1478.61 5.59609 1475 6.58509 1470.82 7.17109L1474.89 10.6111C1486.17 11.1111 1481.87 6.40609 1481.17 3.66009" fill="#FAF7EF"/>
<path d="M1941.17 85.205C1939.98 84.393 1940.08 83.441 1940.73 82.451C1941.6 81.308 1942.62 80.3002 1943.75 79.457C1946.11 77.499 1947.8 75.798 1942.49 75.232C1939.54 77.7153 1936.54 80.2017 1933.48 82.691C1934.92 79.246 1929.52 75.202 1928.45 72.13C1926.66 75.57 1929.65 78.365 1931.83 81.486C1934 84.608 1935.37 88.054 1929.82 92.801C1928.54 94.89 1925.74 95.801 1922.67 95.98C1919.81 96.0916 1916.94 95.8205 1914.14 95.173C1923.96 96.585 1913.86 101.567 1909.74 104.03C1903.69 101.215 1893.76 102.247 1891.19 97.769C1890.17 99.333 1885.36 100.157 1882.14 99.294L1882 96.994C1874.5 98.727 1884.31 99.309 1882.26 101.633C1879.56 101.921 1876.21 100.76 1872.48 99.526C1868.54 98.0452 1864.42 97.1697 1860.25 96.926C1868.99 97.046 1876.46 94.054 1882.78 91.752C1875.12 89.432 1876.12 86.532 1879.41 83.476C1881.06 81.949 1883.29 80.384 1885.33 78.835C1887.15 77.5725 1888.77 76.0161 1890.14 74.222C1888.61 74.541 1887.19 74.885 1885.86 75.25C1884.52 75.595 1883.26 75.96 1882.08 76.344C1879.69 77.112 1877.57 77.952 1875.5 78.829C1871.36 80.558 1867.48 82.529 1862.15 84.178C1856.21 81.487 1857 77.285 1859.59 73.678C1862.18 70.071 1866.57 67.078 1868.11 66.778C1862.28 68.3593 1856.56 70.4078 1851.02 72.906C1845.63 75.267 1840.74 77.399 1837.52 78.506C1847.26 70.039 1846.24 67.132 1854.55 60.255C1853.03 59.0784 1851.27 58.3102 1849.41 58.016C1848.08 57.8571 1846.73 58.1315 1845.55 58.803C1843.27 60.045 1841.4 62.403 1839 63.98C1841.62 63.302 1845.54 62.946 1846.19 64.78C1835.71 63.359 1835.42 77.304 1828.8 82.937C1821.32 78.672 1806.27 75.747 1808.85 67.722L1807.33 76.383C1797.43 77.69 1803.25 71.54 1802.33 68.593C1797.63 74.198 1800.45 83.075 1783.78 84.043C1789.2 70.337 1769.56 81.526 1772.79 68.891C1765.11 69.075 1760 75.731 1752.41 73.541C1745.37 65.53 1768.35 57.589 1772.45 60.114C1783.33 60.708 1769.74 65.804 1774.11 66.039L1785.29 63.139C1780.08 59.952 1769.51 55.884 1772.19 50.219C1761.06 51.908 1779.32 57.019 1767.02 59.243L1760.75 55.367C1748.38 57.54 1760.97 65.311 1745.35 65.531C1757.06 60.431 1728.72 63.866 1731.9 54.739C1728.49 66.216 1703.92 53.448 1698.27 62.382L1705.87 65.836L1705.33 60.536C1714.31 61.154 1722.52 58.815 1731.17 61.704C1722.94 65.242 1731.28 71.62 1721.96 74.515C1704.38 79.768 1719.26 67.915 1717.01 67.761L1702.85 72.638L1710.2 78.387C1704.35 78.915 1698.48 78.9789 1692.63 78.578C1686.24 78.207 1679.47 77.442 1672.67 76.378C1654.07 67.478 1676.78 70.239 1663.85 62.308C1656.67 64.148 1657.54 67.153 1648.45 65.354C1652.65 69.154 1657.77 64.815 1661.15 65.642C1663.8 73.413 1643.61 67.349 1642.86 74.312C1639.73 71.18 1641.17 68.348 1644.93 65.673C1628.52 66.895 1613.62 64.209 1609.72 54.673L1600.82 62.901C1574.33 57.252 1621.29 56.521 1599.65 48.814C1590.35 47.105 1580.94 46.559 1576.03 49.786L1584.16 50.833C1576.84 55.088 1576.58 58.533 1565.92 60.867C1559.01 59.377 1564.03 53.796 1554.44 57.981C1533.8 51.159 1550.52 43.804 1555.72 35.92C1540.67 29.92 1567.26 19.65 1555.68 22.514L1558.19 24.743L1539.26 35.113C1552.8 46.261 1547.23 26.513 1551.39 36.889L1560.47 38.421C1556.54 43.184 1535.94 37.882 1532.9 43.407C1533.29 40.451 1536.91 33.821 1546.62 34.264L1543.02 22.801C1537.62 21.275 1532.52 28.262 1530.39 23.07C1523.38 15.27 1544.79 12.825 1524.76 8.28702C1503.14 4.26901 1502.07 17.905 1487.5 15.004C1488.6 17.584 1492.35 17.585 1496.93 18.291C1491.44 21.635 1499.4 25.309 1490.78 27.533C1487.46 19.811 1471.68 19.064 1459.7 18.518C1463.48 14.69 1456.41 10.218 1460.55 8.13702C1454.3 8.71602 1448.48 9.60002 1445.37 12.785C1468.86 19.885 1420.83 17.498 1438.61 26.138C1429.19 25.338 1423.82 23.167 1419.4 20.662C1414.97 18.157 1411.5 15.291 1405.88 13.01C1406.96 10.787 1428.42 9.61002 1412 5.49202C1391.56 12.192 1413.93 16.526 1397.64 24.992L1409.35 28.434C1409.53 38.023 1388.1 29.615 1384.71 31.534C1377.57 28.713 1395.46 29.453 1389.03 22.589C1378.14 19.868 1371.76 25.505 1365.09 21.622C1372.84 15.522 1368.09 17.838 1376.74 12.491C1350.45 11.286 1379.04 5.01901 1359.43 1.52588e-05C1352.89 0.923019 1356.28 6.73703 1346.17 4.81203C1351.36 12.043 1350.32 14.298 1366.86 15.294C1359.85 25.094 1345.36 11.847 1333.09 17.374C1342.25 18.593 1335.75 19.523 1345.95 18.488C1346.32 26.968 1349.84 28.445 1339.85 35.875C1350.79 34.116 1356.53 25.258 1371.59 28.475C1374.72 37.236 1351.96 34.175 1350.45 45.302C1342.2 50.561 1324.33 44.985 1316.33 40.475C1300.8 46.748 1282.65 46.21 1270.43 55.763C1260.06 52.063 1232.68 60.714 1212.87 57.139C1210.19 52.088 1188.46 53.18 1201.2 48.094C1199.33 49.666 1182.59 50.141 1186.64 54.756C1188.47 53.181 1190.26 54.556 1193.87 54.381L1190.24 60.49C1180.74 57.653 1169.42 65.229 1160.4 61.265C1157.68 56.218 1178.02 58.514 1172.15 52.52C1162.61 61.471 1126.15 64.669 1114.8 60.478C1107.11 59.078 1106.57 51.335 1103.36 50.427L1090.28 50.847C1088.86 48.332 1088.79 45.363 1086.5 42.175C1080.13 40.333 1075.63 42.835 1071.58 44.18C1054.72 38.921 1064.06 32.78 1073.05 27.787L1082.6 30.552C1089.81 27.162 1099.86 28.79 1094.24 21.711C1089.29 22.378 1089.34 25.319 1087.53 26.911L1082.01 22.801C1076.16 25.757 1060.29 27.082 1061.77 32.556C1050.35 28.483 1036.89 33.061 1026.77 28.506C1033.7 32.135 1024.69 34.206 1026.63 38.527L1038.9 40.327C1028.98 41.74 1014.64 45.582 1005.47 41.781C1006.7 38.366 1007.11 37.226 1002.49 33.829C1008.97 38.591 985.075 39.84 999.289 45.929C1004.8 43.9759 1010.65 43.3221 1016.42 44.013C1020.69 51.531 1009.88 52.219 1003.73 56.374C996.124 57.999 981.307 60.146 971.068 62.7C964.69 60.907 962.982 52.494 951.907 57.379C965.729 64.538 938.468 69.102 934.739 76.412C924.233 73.107 917.512 82.485 909.136 76.425C913.492 73.856 929.713 74.191 933.95 68.682C934.63 63.441 930.598 54.812 946.727 52.171C927.463 49.382 935.299 56.591 926.379 58.671L932.998 57.996C929.957 60.062 935.556 64.109 929.695 64.167C907.096 62.058 903.201 56.467 887.977 49.783C891.343 53.61 884.31 57.12 880.704 57.383C866.037 52.536 881.025 46.214 872.072 38.337C866.89 43.174 856.881 41.696 860.238 45.537C854.409 45.619 857.45 43.528 853.297 41.986C849.491 46.365 845.104 48.917 837.015 48.786C837.768 46.503 838.929 43.081 846.668 44.344C837.993 42.395 834.865 34.472 838.67 30.092L852.811 33.103C859.299 27.772 839.614 30.758 840.2 25.525C846.463 24.304 851.151 27.668 855.15 26.241C851.217 20.591 838.897 25.984 831.706 26.541C820.359 25.541 824.56 20.027 824.399 17.058C805.039 25.978 846.635 27.249 828.605 35.692C821.754 42.156 804.58 41.25 792.5 42.56C802.836 49.934 791.294 53.06 778.842 55.523C795.063 55.732 782.952 64.108 802.024 59.29L802.371 65.203C794.256 65.087 784.665 62.503 776.557 62.372C778.249 60.772 776.375 59.436 779.037 58.464L754.873 61.093L757.344 57.193C742.462 56.514 724.182 52.003 715.304 54.183C722.476 53.624 728.672 59.442 721.147 61.161C716.791 63.721 708.873 66.579 702.1 66.011C698.54 59.232 672.907 59.388 689.132 52.531C668.217 56.031 675.932 57.294 655.942 61.454L669.33 59.67C671.001 65.098 659.859 74.17 672.672 77.606C657.59 81.042 667.182 90.69 646.989 91.885C638.803 88.585 649.469 80.908 660.8 79.536C655.096 79.095 649.917 76.114 644.007 79.859C639.708 75.383 654.777 71.959 654.211 70.15C643.839 69.842 654.399 73.096 644.606 74.606C627.437 80.792 633.713 65.437 617.297 69.317C620.885 69.044 627.264 70.772 622.939 73.343C600.894 73.208 610.655 78.764 594.629 81.496C585.621 73.636 589.634 65.148 575.175 63.307L583.24 63.429C577.971 59.6594 571.748 57.6836 565.397 57.764C535.256 64.502 510.259 76.437 479.05 82.414L490.193 80.49C493.922 83.199 480.866 83.779 481.011 86.746L474.109 83.161C472.111 88.875 489.672 88.704 485.432 94.212C484.022 93.4829 482.407 93.3372 480.901 93.803L487.312 95.549C472.794 93.649 461.08 103.796 450.287 94.521C478.66 93.621 454.94 77.872 482.698 75.112C467.99 77.312 480.192 68.996 478.719 66.491C471.016 65.201 474.864 70.859 466.224 68.909C466.506 64.786 485.196 61.18 476.962 58.09C475.917 64.473 468.231 63.177 464.4 67.545C458.026 65.781 464.634 63.445 461.854 61.413C458.29 61.666 456.149 64.431 452.979 63.54L455.479 59.63C437.754 53.838 449.926 65.598 429.656 63.711C428.964 68.939 435.216 67.767 443.694 66.789C447.768 78.366 417.234 79.05 418.606 91.55C399.287 93.297 423.819 86.763 407.486 83.421C398.657 75.506 419.771 75.163 424.058 69.651L407.215 64.533C413.138 54.494 423.575 57.821 426.79 48.69C414.227 48.09 415.665 50.611 402.796 54.079C423.267 61.966 393.622 60.255 405.187 70.218C395.668 67.534 398.737 65.47 384.82 65.298C393.718 63.198 385.418 57.086 397.094 57.051C378.289 57.582 383.3 59.851 364.49 60.357C358.385 67.438 383.201 69.857 360.391 74.715C355.491 74.709 356.546 72.025 359.413 72.092C343.335 69.042 362.431 81.005 352.127 84.501C345.011 85.266 342.569 82.422 345.556 80.767C334.79 84.56 340.479 89.399 333.346 90.889L336.534 91.804C333.424 93.837 341.344 104.094 325.977 104.321C314.773 104.137 318.455 100.188 318.29 97.802C309.492 100.136 302.89 97.895 297.05 95.287C297.585 96.695 296.853 98.087 294.212 98.073C279.315 100.073 286.009 91.886 280.57 90.728C259.72 86.761 282.52 103.948 258.989 103.828L286.199 106.69C284.883 110.107 284.037 115.342 289.947 115.37C290.762 110.138 300.673 105.848 309.761 106.825C312.138 112.966 284.913 113.078 300.017 119.975C294.548 118.818 286.819 120.358 280.017 119.652C287.199 113.311 258.192 117.952 270.389 110.958C255.423 111.478 246.89 110.472 238.664 109.952C228.638 109.224 218.567 109.677 208.635 111.302C211.393 107.455 229.518 97.602 243.556 100.94L244.505 104.593C262.586 100.672 230.861 100.127 234.485 94.024C211.852 103.424 186.136 87.924 159.021 90.69C163.473 94.176 157.986 95.92 156.552 99.29C167.454 98.813 165.658 97.382 173.289 101.85C171.416 106.38 165.078 104.457 161.39 107.59C158.129 112.544 169.565 107.929 173.185 110.735C162.655 113.074 163.576 113.778 157.1 117.764C151.719 113.545 152.681 111.289 148.677 106.639C123.264 104.695 125.274 113.876 104.823 111.328C116.162 112.765 99.9824 105.989 112.234 108.098L105.414 107.253C123.87 100.626 154.233 101.965 152.226 89.853C137.74 90.441 126.674 96.806 108.999 96.41L109.971 94.161C97.2849 93.118 109.868 97.111 106.641 99.083C91.9359 102.536 89.4067 86.729 78.6514 94.834L93.0463 97.323C81.5087 101.763 96.1952 98.329 92.7154 106.205C82.5825 108.755 69.1155 108.666 54.6209 108.461C40.1206 108.181 24.6059 107.834 10.2617 110.043C17.7309 114.663 20.0063 114.96 30.5134 115.815C24.3915 126.315 20.3006 124.567 24.3191 134.068L37.1862 135.226L36.1613 145.21C32.7403 145.186 29.347 144.556 26.1206 143.346C23.5406 149.511 6.69445 140.414 5.03212 146.338L16.1814 146.08C20.9456 151.502 7.99856 150.333 0 151.62C6.52051 158.479 24.148 152.534 39.8922 152.887C39.2086 149.207 55.7304 142.517 40.5503 141.036C41.2358 136.957 50.5788 135.269 56.5662 135.464C53.1955 137.4 67.0799 146.925 52.6173 149.246C66.701 145.107 58.6348 149.421 73.969 147.822C71.5611 150.49 100.295 148.83 97.6817 157.405C102.853 153.921 98.7291 144.664 116.191 144.905C114.36 141.833 108.617 139.897 105.042 137.985C101.46 136.048 100.059 134.162 106.867 131.217L98.0183 134.843C86.192 131.543 101.942 128.79 86.4205 125.62C91.0126 126.211 100.743 123.293 102.404 127.685C99.6392 114.885 126.38 122.307 128.006 113.014C131.109 116.944 135.653 117.504 144.379 116.789C142.896 120.189 147.388 123.689 140.474 125.817C135.021 124.567 130.863 125.829 124.999 122.734C127.238 135.457 147.039 127.581 161.172 130.721C159.242 129.65 158.77 128.421 162.888 126.733C171.496 128.915 190.695 131.733 184.694 137.56L206.909 137.46L229.084 137.231C229.099 140.197 222.69 138.31 219.929 139.203L244.623 140.119C250.161 144.278 235.979 143.908 233.238 147.745L251.112 147.933L248.39 151.773C252.955 149.359 273.534 148.537 278.195 154.951C288.028 154.193 293.005 150.574 298.786 147.928C304.568 145.282 311.156 143.609 324.223 146.676C322.983 153.051 309.215 148.741 302.88 152.781C307.964 155.122 323.847 150.77 326.276 156.917C345.388 153.517 343.716 142.129 353.099 135.993C368.555 135.749 354.617 141.447 355.161 143.278C359.729 143.744 367.541 132.069 371.427 140.725C379.019 136.146 383.368 130.667 372.404 128.425C380.584 128.609 392.282 125.625 394.426 122.864C387.539 132.241 403.66 126.705 404.378 134.453C416.733 136.232 444.072 138.733 455.848 128.648L452.239 138.92L466.713 137.89C477.411 144.177 453.871 144.407 446.609 144.89C466.224 146.155 479.305 145.516 496.986 145.345C491.868 143.133 494.962 141.038 492.548 137.879C498.66 133.703 506.971 136.828 513.263 135.613C514.755 138.104 513.961 140.395 509.032 141.126L521.161 139.856C520.127 146.248 526.036 146.174 514.016 150.409L525.233 148.455C537.566 150.123 524.625 153.698 521.566 155.796L541.085 156.906C548.123 153.406 537.154 151.258 550.637 149.514C568.612 155.214 591.537 153.061 611.976 154.841L597.616 148.877C609.923 150.532 607.498 140.323 611.308 135.94C622.647 136.921 637.931 136.46 647.54 139.04C636.581 143.99 641.069 151.433 651.266 155.856C674.302 156.656 668.66 145.572 681.493 141.966C671.482 154.641 697.519 146.266 695.246 153.135C724.456 152.689 753.811 148.135 783.864 148.401C783.285 146.571 774.67 144.654 779.952 142.76C791.016 140.768 796.253 145.936 797.751 148.426C812.043 147.298 820.271 143.326 825.006 139.615C818.8 140.828 818.252 139.027 819.42 135.584C833.674 134.491 829.668 142.972 843.224 137.107C846.727 143.893 828.18 140.484 829.443 147.087C842.008 147.6 849.911 144.758 859.116 141.443C861.152 145.754 850.682 142.459 857.581 146.028C877.044 143.069 900.513 138.69 915.149 136.497L918.983 142.158C928.324 141.846 934.514 140.658 938.853 138.097C943.861 140.342 939.893 141.758 935.033 142.46C947.528 143.039 962.958 138.571 970.059 138.103C968.852 141.521 962.953 138.589 960.829 141.332C976.432 142.849 996.515 131.789 1006.59 139.254C1005.28 140.044 1003.79 140.411 1002.29 140.309C1013.49 140.454 1024.69 139.986 1035.85 138.909C1046.97 138.009 1058.37 136.936 1070.94 136.882C1093.67 143.982 1078.74 128.249 1101.42 129.428C1100.86 144.61 1132.21 130.972 1141.64 133.984L1138.72 131.707C1144.48 128.786 1151.15 128.779 1157.31 130.047C1162.75 131.237 1167.99 133.284 1172.86 136.12C1182.66 136.937 1192.5 137.186 1202.32 136.864C1212.89 136.457 1223.5 135.282 1232.19 132.471L1228.58 135.578C1242.81 132.003 1251.09 137.092 1265.36 133.588C1264.87 134.716 1259.51 136.397 1264.78 137.681C1273.08 138.603 1281.42 139.298 1289.79 139.817C1298.17 140.336 1306.57 140.66 1314.96 140.966C1323.37 141.245 1331.8 141.399 1340.25 141.479L1365.59 141.636C1399.39 141.77 1433.25 141.785 1466.15 145.011C1474.01 145.801 1481.99 146.603 1490.09 147.416C1494.13 147.827 1498.21 148.201 1502.29 148.64C1506.37 149.079 1510.48 149.518 1514.61 149.961C1531.11 151.743 1548.02 153.382 1565.04 155.33C1582.12 157.171 1599.43 159.037 1616.85 160.915C1634.45 162.845 1652.23 164.741 1670.37 166.547C1706.5 170.147 1743.69 173.247 1780.66 174.839C1816.82 176.577 1853.04 176.362 1889.18 174.193C1889.18 174.193 1893.53 170.324 1899.67 164.106C1907.23 156.446 1914.32 148.274 1920.89 139.641C1924.47 134.919 1927.79 129.985 1930.85 124.862C1933.7 120.135 1936.2 115.177 1938.31 110.032C1942.18 100.416 1943.55 91.609 1941.18 85.202" fill="#FAF7EF"/>
<path d="M359.415 72.09C360.009 72.195 360.555 72.297 361.244 72.441C360.656 72.2195 360.038 72.101 359.415 72.09Z" fill="#FAF7EF"/>
<path d="M665.111 79.34C663.666 79.303 662.221 79.3729 660.786 79.549C662.229 79.71 663.687 79.6396 665.111 79.34Z" fill="#FAF7EF"/>
<path d="M926.376 58.679L920.892 59.236C922.733 59.253 924.571 59.0663 926.376 58.679Z" fill="#FAF7EF"/>
<path d="M1327.04 38.6239C1325.4 34.2429 1337.24 26.8819 1328.25 22.6999C1320 22.1879 1314.89 22.9879 1311.33 24.4199C1308.46 25.6371 1305.88 27.502 1303.75 29.8859C1299.7 33.9089 1295.55 37.8409 1278.72 36.6069L1295.38 42.2839C1295.23 34.5369 1307.71 30.7199 1320.99 30.6699L1324.4 36.4829C1321.97 37.998 1319.42 39.2859 1316.78 40.3319C1321.66 41.2499 1321.21 36.7489 1327.04 38.6239Z" fill="#FAF7EF"/>
<path d="M1315.57 40.0729C1315.8 40.2049 1316.1 40.3409 1316.33 40.4939C1316.48 40.4241 1316.62 40.3702 1316.78 40.3329C1316.37 40.2682 1315.97 40.1814 1315.57 40.0729Z" fill="#FAF7EF"/>
<path d="M1633.78 593.656C1633.47 593.578 1633.2 593.391 1633 593.126C1632.81 592.861 1632.7 592.533 1632.71 592.196C1632 592.389 1631.32 592.496 1630.59 592.739L1633.78 593.656Z" fill="#FAF7EF"/>
<path d="M1834.45 545.121C1834.57 545.121 1834.69 545.111 1834.81 545.092C1834.41 544.565 1834.14 543.942 1834.03 543.277C1833.56 544.424 1833.56 544.424 1834.45 545.121Z" fill="#FAF7EF"/>
<path d="M1783.31 556.628C1782.46 556.081 1781.67 555.445 1780.95 554.728C1780.93 555.428 1781.93 556.047 1783.31 556.628Z" fill="#FAF7EF"/>
<path d="M1660.49 597.619C1658.35 596.769 1656.18 595.719 1653.95 594.71C1654.58 596.447 1657.04 598.221 1660.49 597.619Z" fill="#FAF7EF"/>
<path d="M1789.82 559.276C1788.13 558.345 1785.35 557.516 1783.31 556.628C1785.31 557.927 1787.52 558.825 1789.82 559.276Z" fill="#FAF7EF"/>
<path d="M1929.15 548.641C1927.78 547.855 1926.35 547.19 1924.88 546.653C1924.72 547.068 1924.42 547.333 1924.39 547.867L1929.15 548.641Z" fill="#FAF7EF"/>
<path d="M18.753 621.809C22.5139 620.97 23.1383 619.567 22.5516 617.87C21.6006 619.488 20.2978 620.839 18.753 621.809Z" fill="#FAF7EF"/>
<path d="M114.281 624.866C113.48 625.157 112.713 625.541 111.992 626.012C113.566 625.612 114.68 625.099 114.281 624.866Z" fill="#FAF7EF"/>
<path d="M60.4414 594.292C60.3863 593.56 60.1689 592.853 59.8068 592.229C59.4016 592.815 59.519 593.504 60.4414 594.292Z" fill="#FAF7EF"/>
<path d="M809.363 556.009L806.928 554.147C807.177 554.632 807.524 555.051 807.946 555.373C808.368 555.695 808.852 555.913 809.363 556.009Z" fill="#FAF7EF"/>
<path d="M948.712 549.69C949.149 549.71 949.54 549.714 949.951 549.719C949.541 549.699 949.152 549.695 948.712 549.69Z" fill="#FAF7EF"/>
<path d="M952.843 549.789C951.84 549.738 950.911 549.746 949.95 549.718C950.906 549.881 951.88 549.905 952.843 549.789Z" fill="#FAF7EF"/>
<path d="M1932.46 559.109C1936.37 556.058 1945.18 555.481 1945.93 551.399L1929.15 548.639C1934.82 551.957 1937.32 556.553 1932.46 559.109" fill="#FAF7EF"/>
<path d="M480.436 683.027C486.035 683.071 488.928 682.614 490.451 681.848C487.022 682.168 483.506 682.4 480.18 682.828L480.436 683.027Z" fill="#FAF7EF"/>
<path d="M611.682 653.729C611.506 653.854 611.306 653.994 611.151 654.105C611.433 654.079 611.655 653.967 611.947 653.936L611.682 653.729Z" fill="#FAF7EF"/>
<path d="M469.827 686.339C469.029 686.847 468.321 687.501 467.737 688.271C469.875 688.271 470.133 687.436 469.827 686.339Z" fill="#FAF7EF"/>
<path d="M1605.44 609.23C1604.66 609.543 1603.86 609.812 1603.04 610.036C1603.88 609.908 1604.69 609.636 1605.44 609.23Z" fill="#FAF7EF"/>
<path d="M604.051 647.526L611.682 653.726C612.905 652.841 614.147 651.933 615.77 650.866C617.819 646.366 608.227 646.299 604.05 647.523" fill="#FAF7EF"/>
<path d="M469.827 686.339C472.395 684.403 476.001 683.414 480.18 682.828L476.107 679.388C464.829 678.888 469.132 683.593 469.826 686.339" fill="#FAF7EF"/>
<path d="M9.83142 604.794C11.017 605.606 10.9192 606.558 10.2656 607.548C9.39612 608.691 8.38013 609.699 7.24756 610.542C4.88757 612.5 3.19995 614.201 8.50757 614.767C11.4574 612.283 14.4617 609.797 17.5205 607.308C16.0848 610.753 21.4828 614.797 22.5518 617.869C24.3383 614.429 21.3483 611.634 19.1669 608.513C17.0044 605.391 15.6299 601.945 21.1801 597.198C22.4569 595.109 25.2634 594.198 28.3258 594.019C31.1924 593.907 34.0608 594.178 36.864 594.826C27.0376 593.414 37.1385 588.432 41.2559 585.969C47.3099 588.784 57.2397 587.752 59.8075 592.23C60.8333 590.666 65.6445 589.842 68.8639 590.705L69.0039 593.005C76.5022 591.272 66.6853 590.69 68.7388 588.366C71.4419 588.078 74.791 589.239 78.5247 590.473C82.4619 591.954 86.5778 592.829 90.7477 593.073C82.0092 592.953 74.5363 595.945 68.2189 598.247C75.8761 600.567 74.884 603.467 71.5905 606.523C69.9423 608.05 67.7148 609.615 65.6671 611.164C63.8491 612.426 62.2274 613.983 60.8606 615.777C62.3903 615.458 63.8092 615.114 65.1387 614.749C66.4803 614.404 67.7356 614.039 68.9249 613.655C71.3065 612.887 73.4305 612.047 75.498 611.17C79.6445 609.441 83.5155 607.47 88.8495 605.821C94.7889 608.512 93.9963 612.714 91.4097 616.321C88.8231 619.928 84.4331 622.921 82.8911 623.221C88.7236 621.64 94.4353 619.591 99.9771 617.093C105.365 614.732 110.258 612.6 113.482 611.493C103.745 619.96 104.765 622.867 96.4474 629.744C97.9675 630.92 99.7328 631.689 101.592 631.983C102.923 632.142 104.267 631.867 105.447 631.196C107.73 629.954 109.605 627.596 111.999 626.019C109.38 626.697 105.462 627.053 104.808 625.219C115.293 626.64 115.58 612.695 122.202 607.062C129.68 611.327 144.728 614.252 142.146 622.277L143.669 613.616C153.573 612.309 147.747 618.459 148.669 621.406C153.37 615.801 150.549 606.924 167.22 605.956C161.797 619.662 181.44 608.473 178.209 621.108C185.885 620.924 191.004 614.268 198.588 616.458C205.631 624.469 182.651 632.41 178.549 629.885C167.668 629.291 181.256 624.195 176.89 623.96L165.713 626.86C170.92 630.047 181.491 634.115 178.807 639.78C189.937 638.091 171.675 632.98 183.985 630.756L190.252 634.632C202.617 632.459 190.033 624.688 205.653 624.468C193.942 629.568 222.283 626.133 219.098 635.26C222.513 623.783 247.084 636.551 252.733 627.617L245.134 624.163L245.674 629.463C236.688 628.845 228.481 631.184 219.83 628.295C228.061 624.757 219.722 618.379 229.045 615.484C246.617 610.231 231.735 622.084 233.991 622.238L248.149 617.361L240.804 611.612C246.646 611.084 252.517 611.02 258.368 611.421C264.761 611.792 271.531 612.557 278.333 613.621C296.927 622.521 274.221 619.76 287.153 627.691C294.334 625.851 293.458 622.846 302.548 624.645C298.349 620.845 293.233 625.184 289.848 624.357C287.195 616.586 307.389 622.65 308.14 615.687C311.275 618.819 309.832 621.651 306.071 624.326C322.485 623.104 337.381 625.79 341.284 635.326L350.181 627.098C376.666 632.747 329.711 633.478 351.354 641.185C360.647 642.894 370.064 643.44 374.974 640.213L366.837 639.166C374.158 634.911 374.423 631.466 385.085 629.132C391.989 630.622 386.965 636.203 396.555 632.018C417.197 638.84 400.485 646.195 395.283 654.079C410.327 660.079 383.736 670.349 395.325 667.485L392.806 665.256L411.744 654.886C398.205 643.738 403.771 663.486 399.606 653.11L390.528 651.578C394.456 646.815 415.062 652.117 418.101 646.592C417.712 649.548 414.093 656.178 404.385 655.735L407.983 667.198C413.379 668.724 418.484 661.737 420.61 666.929C427.624 674.729 406.206 677.174 426.242 681.712C447.857 685.73 448.928 672.094 463.504 674.995C462.396 672.415 458.648 672.414 454.068 671.708C459.559 668.364 451.599 664.69 460.216 662.466C463.536 670.188 479.316 670.935 491.305 671.481C487.524 675.309 494.587 679.781 490.451 681.862C496.702 681.283 502.52 680.399 505.633 677.214C482.136 670.114 530.173 672.501 512.386 663.861C521.806 664.661 527.181 666.832 531.605 669.337C536.029 671.842 539.503 674.708 545.116 676.989C544.036 679.212 522.584 680.389 538.997 684.507C559.443 677.807 537.071 673.473 553.363 665.007L541.646 661.565C541.468 651.976 562.896 660.384 566.287 658.465C573.433 661.286 555.544 660.546 561.971 667.41C572.862 670.131 579.243 664.494 585.905 668.377C578.163 674.477 582.91 672.161 574.257 677.508C600.553 678.713 571.958 684.98 591.57 689.999C598.109 689.076 594.717 683.262 604.827 685.187C599.637 677.956 600.677 675.701 584.136 674.705C591.153 664.905 605.636 678.152 617.911 672.625C608.746 671.406 615.247 670.476 605.052 671.511C604.676 663.031 601.157 661.554 611.149 654.124C600.213 655.883 594.472 664.741 579.407 661.524C576.285 652.763 599.04 655.824 600.546 644.697C608.797 639.438 626.669 645.014 634.666 649.524C650.2 643.251 668.354 643.789 680.572 634.236C690.944 637.936 718.316 629.285 738.126 632.86C740.811 637.911 762.542 636.819 749.804 641.905C751.669 640.333 768.409 639.858 764.355 635.243C762.531 636.818 760.737 635.443 757.125 635.618L760.76 629.509C770.256 632.346 781.576 624.77 790.595 628.734C793.322 633.781 772.984 631.485 778.85 637.479C788.389 628.528 824.847 625.33 836.197 629.521C843.887 630.921 844.433 638.664 847.637 639.572L860.72 639.152C862.141 641.667 862.208 644.636 864.501 647.824C870.874 649.666 875.367 647.164 879.416 645.819C896.278 651.078 886.945 657.219 877.952 662.212L868.396 659.447C861.191 662.837 851.14 661.209 856.761 668.288C861.706 667.621 861.665 664.68 863.472 663.088L868.985 667.198C874.842 664.242 890.713 662.917 889.227 657.443C900.649 661.516 914.112 656.938 924.233 661.493C917.302 657.864 926.312 655.793 924.368 651.472L912.1 649.672C922.016 648.259 936.363 644.417 945.534 648.218C944.299 651.633 943.891 652.773 948.514 656.17C942.026 651.408 965.925 650.159 951.711 644.07C946.198 646.023 940.351 646.677 934.577 645.986C930.308 638.468 941.117 637.78 947.266 633.625C954.876 632 969.693 629.853 979.932 627.299C986.31 629.092 988.018 637.505 999.093 632.62C985.271 625.461 1012.53 620.897 1016.26 613.587C1026.77 616.892 1033.49 607.514 1041.86 613.574C1037.51 616.143 1021.29 615.808 1017.05 621.317C1016.37 626.558 1020.4 635.187 1004.27 637.828C1023.54 640.617 1015.7 633.408 1024.62 631.328L1018 632.003C1021.04 629.937 1015.44 625.89 1021.3 625.832C1043.9 627.941 1047.8 633.532 1063.02 640.216C1059.66 636.389 1066.69 632.879 1070.3 632.616C1084.96 637.463 1069.98 643.785 1078.93 651.662C1084.11 646.825 1094.12 648.303 1090.76 644.462C1096.59 644.38 1093.55 646.471 1097.7 648.013C1101.51 643.634 1105.9 641.082 1113.98 641.213C1113.23 643.496 1112.07 646.918 1104.33 645.655C1113.01 647.604 1116.13 655.527 1112.33 659.907L1098.19 656.896C1091.7 662.227 1111.39 659.241 1110.8 664.474C1104.54 665.695 1099.85 662.331 1095.85 663.758C1099.78 669.408 1112.1 664.015 1119.29 663.458C1130.64 664.458 1126.44 669.972 1126.6 672.941C1145.96 664.021 1104.37 662.75 1122.4 654.307C1129.25 647.843 1146.42 648.749 1158.5 647.439C1148.16 640.065 1159.71 636.939 1172.16 634.476C1155.94 634.267 1168.05 625.891 1148.98 630.709L1148.63 624.796C1156.74 624.912 1166.33 627.496 1174.44 627.627C1172.75 629.227 1174.62 630.563 1171.96 631.535L1196.13 628.906L1193.66 632.806C1208.54 633.485 1226.82 637.996 1235.7 635.816C1228.52 636.375 1222.33 630.557 1229.85 628.838C1234.21 626.278 1242.13 623.42 1248.9 623.988C1252.46 630.767 1278.09 630.611 1261.87 637.468C1282.78 633.968 1275.07 632.705 1295.06 628.545L1281.67 630.329C1280 624.901 1291.14 615.829 1278.33 612.393C1293.41 608.957 1283.82 599.309 1304.01 598.114C1312.2 601.414 1301.53 609.091 1290.2 610.463C1295.9 610.904 1301.08 613.885 1306.99 610.14C1311.29 614.616 1296.22 618.04 1296.79 619.849C1307.16 620.157 1296.6 616.903 1306.39 615.393C1323.56 609.207 1317.29 624.562 1333.7 620.682C1330.11 620.955 1323.74 619.227 1328.06 616.656C1350.11 616.791 1340.34 611.235 1356.37 608.503C1365.38 616.363 1361.37 624.851 1375.83 626.692L1367.76 626.57C1373.03 630.339 1379.25 632.315 1385.6 632.235C1415.74 625.497 1440.74 613.562 1471.95 607.585L1460.81 609.509C1457.08 606.8 1470.13 606.22 1469.99 603.253L1476.89 606.838C1478.89 601.124 1461.33 601.295 1465.57 595.787C1466.98 596.516 1468.59 596.662 1470.1 596.196L1463.69 594.45C1478.21 596.35 1489.92 586.203 1500.71 595.478C1472.34 596.378 1496.06 612.127 1468.3 614.887C1483.01 612.687 1470.81 621.003 1472.28 623.508C1479.98 624.798 1476.14 619.14 1484.78 621.09C1484.49 625.213 1465.8 628.819 1474.04 631.909C1475.08 625.526 1482.77 626.822 1486.6 622.454C1492.97 624.218 1486.37 626.554 1489.15 628.586C1492.71 628.333 1494.85 625.568 1498.02 626.459L1495.52 630.369C1513.25 636.161 1501.07 624.401 1521.34 626.288C1522.04 621.06 1515.78 622.232 1507.31 623.21C1503.23 611.633 1533.77 610.949 1532.39 598.449C1551.71 596.702 1527.18 603.236 1543.51 606.578C1552.34 614.493 1531.23 614.836 1526.94 620.348L1543.79 625.466C1537.86 635.505 1527.43 632.178 1524.21 641.309C1536.77 641.909 1535.33 639.388 1548.2 635.92C1527.73 628.033 1557.38 629.744 1545.81 619.781C1555.33 622.465 1552.26 624.529 1566.18 624.701C1557.28 626.801 1565.58 632.913 1553.91 632.948C1572.71 632.417 1567.7 630.148 1586.51 629.642C1592.62 622.561 1567.8 620.142 1590.61 615.284C1595.51 615.29 1594.45 617.974 1591.59 617.907C1607.66 620.957 1588.57 608.994 1598.87 605.498C1605.99 604.733 1608.43 607.577 1605.44 609.232C1616.21 605.439 1610.52 600.6 1617.65 599.11L1614.47 598.195C1617.58 596.162 1609.66 585.905 1625.02 585.678C1636.23 585.862 1642.72 618.765 1642.88 621.151C1651.68 618.817 1648.11 592.104 1653.95 594.712C1653.41 593.304 1654.15 591.912 1656.79 591.926C1671.69 589.926 1662.36 608.074 1667.8 609.232C1688.65 613.199 1678.12 617.787 1701.65 617.907L1664.8 583.309C1666.12 579.892 1666.96 574.657 1661.05 574.629C1660.24 579.861 1650.33 584.151 1641.24 583.174C1638.86 577.033 1666.09 576.921 1650.98 570.024C1656.45 571.181 1664.18 569.641 1670.98 570.347C1663.8 576.688 1692.81 572.047 1680.61 579.041C1695.58 578.521 1704.11 579.527 1712.34 580.047C1722.36 580.775 1732.43 580.322 1742.37 578.697C1739.61 582.544 1747.25 610.651 1709.17 617.907L1688.02 609.509C1669.93 613.43 1720.14 589.872 1716.51 595.975C1739.15 586.575 1764.11 622.851 1790.97 609.509C1786.52 606.023 1806.46 612.879 1807.9 609.509C1796.99 609.986 1801.24 584.633 1777.71 588.149C1779.58 583.619 1785.92 585.542 1789.61 582.409C1792.87 577.455 1781.43 582.07 1777.81 579.264C1788.35 576.925 1787.42 576.221 1793.9 572.235C1799.28 576.454 1808.59 604.001 1812.6 608.651C1838.01 610.595 1825.73 576.123 1846.18 578.671C1834.84 577.234 1851.02 584.01 1838.77 581.901L1845.59 582.746C1827.13 589.373 1783.32 601.039 1785.33 613.151C1799.82 612.563 1824.33 593.193 1842 593.589L1840.33 611.151C1853.02 612.194 1841.13 592.888 1844.36 590.916C1859.06 587.463 1861.59 603.27 1872.35 595.165L1840.86 605.651C1852.39 601.211 1854.8 591.67 1858.28 583.794C1868.42 581.244 1881.88 581.333 1896.38 581.538C1910.88 581.818 1926.39 582.165 1940.74 579.956C1933.27 575.336 1930.99 575.039 1920.49 574.184C1926.61 563.684 1930.7 565.432 1926.68 555.931L1913.81 554.773L1914.84 544.789C1918.26 544.813 1921.65 545.443 1924.88 546.653C1927.46 540.488 1944.31 549.585 1945.97 543.661L1934.82 543.919C1930.05 538.497 1943 539.666 1951 538.379C1944.48 531.52 1926.85 537.465 1911.11 537.112C1911.79 540.792 1895.27 547.482 1910.45 548.963C1909.76 553.042 1900.42 554.73 1894.43 554.535C1897.8 552.599 1883.92 543.074 1898.38 540.753C1884.3 544.892 1892.37 540.578 1877.03 542.177C1879.44 539.509 1850.71 541.169 1853.32 532.594C1848.15 536.078 1852.27 545.335 1834.81 545.094C1836.64 548.166 1842.38 550.102 1845.96 552.014C1849.54 553.951 1850.94 555.837 1844.13 558.782L1852.98 555.156C1864.81 558.456 1849.06 561.209 1864.58 564.379C1859.99 563.788 1850.26 566.706 1848.6 562.314C1851.36 575.114 1824.62 567.692 1822.99 576.985C1819.89 573.055 1815.35 572.495 1806.62 573.21C1808.1 569.81 1803.61 566.31 1810.53 564.182C1815.98 565.432 1820.14 564.17 1826 567.265C1823.76 554.542 1803.96 562.418 1789.83 559.278C1791.76 560.349 1792.23 561.578 1788.11 563.266C1779.5 561.084 1760.3 558.266 1766.31 552.439L1744.09 552.539L1721.92 552.768C1721.9 549.802 1728.31 551.689 1731.07 550.796L1706.38 549.88C1700.84 545.721 1715.02 546.091 1717.76 542.254L1699.89 542.066L1702.61 538.226C1698.04 540.64 1677.47 541.462 1672.81 535.048C1662.97 535.806 1658 539.425 1652.21 542.071C1646.43 544.717 1639.84 546.39 1626.78 543.323C1628.02 536.948 1641.78 541.258 1648.12 537.218C1643.04 534.877 1627.15 539.229 1624.72 533.082C1605.61 536.482 1607.28 547.87 1597.9 554.006C1582.44 554.25 1596.38 548.552 1595.84 546.721C1591.27 546.255 1583.46 557.93 1579.57 549.274C1571.98 553.853 1567.63 559.332 1578.6 561.574C1570.42 561.39 1558.72 564.374 1556.57 567.135C1563.46 557.758 1547.34 563.294 1546.62 555.546C1534.27 553.767 1506.93 551.266 1495.15 561.351L1498.76 551.079L1484.29 552.109C1473.59 545.822 1497.13 545.592 1504.39 545.109C1484.78 543.844 1471.7 544.483 1454.01 544.654C1459.13 546.866 1456.04 548.961 1458.45 552.12C1452.34 556.296 1444.03 553.171 1437.74 554.386C1436.25 551.895 1437.04 549.604 1441.97 548.873L1429.84 550.143C1430.87 543.751 1424.96 543.825 1436.98 539.59L1425.77 541.544C1413.43 539.876 1426.37 536.301 1429.43 534.203L1409.92 533.093C1402.88 536.593 1413.85 538.741 1400.36 540.485C1382.39 534.785 1359.46 536.938 1339.02 535.158L1353.38 541.122C1341.08 539.467 1343.5 549.676 1339.69 554.059C1328.35 553.078 1313.07 553.539 1303.46 550.959C1314.42 546.009 1309.93 538.566 1299.73 534.143C1276.7 533.343 1282.34 544.427 1269.51 548.033C1279.52 535.358 1253.48 543.733 1255.75 536.864C1226.54 537.31 1197.19 541.864 1167.14 541.598C1167.72 543.428 1176.33 545.345 1171.05 547.239C1159.98 549.231 1154.75 544.063 1153.25 541.573C1138.96 542.701 1130.73 546.673 1125.99 550.384C1132.2 549.171 1132.75 550.972 1131.58 554.415C1117.33 555.508 1121.33 547.027 1107.78 552.892C1104.27 546.106 1122.82 549.515 1121.56 542.912C1108.99 542.399 1101.09 545.241 1091.88 548.556C1089.85 544.245 1100.32 547.54 1093.42 543.971C1073.96 546.93 1050.49 551.309 1035.85 553.502L1032.02 547.841C1022.68 548.153 1016.49 549.341 1012.15 551.902C1007.14 549.657 1011.11 548.241 1015.97 547.539C1003.47 546.96 988.042 551.428 980.941 551.896C982.148 548.478 988.047 551.41 990.171 548.667C974.568 547.15 954.485 558.21 944.413 550.745C945.719 549.954 947.213 549.588 948.712 549.69C937.509 549.545 926.305 550.012 915.146 551.09C904.031 551.99 892.629 553.063 880.063 553.117C857.328 546.017 872.264 561.75 849.58 560.571C850.144 545.389 818.791 559.027 809.363 556.015L812.277 558.292C806.52 561.213 799.854 561.22 793.692 559.952C788.254 558.762 783.014 556.715 778.144 553.879C768.341 553.062 758.504 552.813 748.675 553.135C738.105 553.542 727.499 554.717 718.814 557.528L722.424 554.421C708.186 557.996 699.907 552.907 685.643 556.411C686.131 555.283 691.49 553.602 686.217 552.318C677.918 551.396 669.581 550.701 661.207 550.182C652.834 549.663 644.431 549.339 636.035 549.033C627.63 548.754 619.201 548.6 610.754 548.52L585.408 548.363C551.612 548.229 517.75 548.214 484.852 544.988C476.988 544.198 469.009 543.396 460.913 542.583C456.87 542.172 452.793 541.798 448.71 541.359C444.628 540.92 440.523 540.481 436.393 540.038C419.889 538.256 402.981 536.617 385.961 534.669C368.881 532.828 351.569 530.962 334.148 529.084C316.551 527.154 298.773 525.258 280.632 523.452C244.497 519.852 207.309 516.752 170.337 515.16C134.178 513.422 97.9596 513.637 61.8215 515.806C61.8215 515.806 57.4701 519.675 51.3285 525.893C43.7686 533.553 36.6826 541.725 30.115 550.358C26.5331 555.08 23.2054 560.014 20.1484 565.137C17.2983 569.864 14.804 574.822 12.6879 579.967C8.82263 589.583 7.44885 598.39 9.81921 604.797" fill="#FAF7EF"/>
<path d="M1591.58 617.909C1590.99 617.804 1590.45 617.702 1589.76 617.558C1590.34 617.779 1590.96 617.898 1591.58 617.909Z" fill="#FAF7EF"/>
<path d="M1285.89 610.659C1287.33 610.696 1288.78 610.626 1290.21 610.45C1288.77 610.289 1287.31 610.359 1285.89 610.659Z" fill="#FAF7EF"/>
<path d="M1024.62 631.32L1030.11 630.763C1028.27 630.746 1026.43 630.932 1024.62 631.32Z" fill="#FAF7EF"/>
<path d="M623.962 651.375C625.602 655.756 613.761 663.117 622.753 667.299C631.001 667.811 636.114 667.011 639.668 665.579C642.537 664.362 645.123 662.497 647.249 660.113C651.301 656.09 655.446 652.158 672.282 653.392L655.618 647.715C655.765 655.462 643.294 659.279 630.012 659.329L626.599 653.516C629.031 652.001 631.583 650.713 634.224 649.667C629.335 648.749 629.788 653.25 623.962 651.375Z" fill="#FAF7EF"/>
<path d="M635.433 649.926C635.2 649.794 634.897 649.658 634.668 649.505C634.525 649.575 634.375 649.629 634.222 649.666C634.629 649.731 635.033 649.817 635.433 649.926Z" fill="#FAF7EF"/>
</svg>
