<svg width="1576" height="2100" viewBox="0 0 1576 2100" fill="none" xmlns="http://www.w3.org/2000/svg">
<path d="M1575 0H67V2000H1575V0Z" fill="#F9F6ED"/>
<path d="M132.736 898.318C132.736 902.139 131.603 905.874 129.48 909.05C127.358 912.227 124.341 914.703 120.811 916.165C117.281 917.628 113.397 918.01 109.65 917.265C105.902 916.52 102.46 914.68 99.7585 911.978C97.0567 909.277 95.2168 905.835 94.4713 902.087C93.7258 898.34 94.1082 894.456 95.5702 890.926C97.0322 887.396 99.5081 884.379 102.685 882.256C105.861 880.133 109.596 879 113.417 879C118.541 879 123.454 881.035 127.077 884.658C130.7 888.281 132.736 893.194 132.736 898.318V898.318Z" stroke="#3D4550" stroke-width="1.598"/>
<path d="M128.124 898.449C128.124 901.422 127.243 904.329 125.591 906.801C123.94 909.273 121.592 911.2 118.845 912.338C116.099 913.476 113.076 913.774 110.16 913.194C107.244 912.615 104.565 911.183 102.462 909.081C100.36 906.979 98.9278 904.301 98.3473 901.385C97.7668 898.469 98.064 895.446 99.2013 892.699C100.339 889.952 102.265 887.604 104.737 885.952C107.209 884.3 110.115 883.418 113.088 883.417C115.062 883.417 117.017 883.805 118.841 884.561C120.666 885.316 122.323 886.423 123.719 887.819C125.115 889.215 126.223 890.872 126.979 892.696C127.735 894.52 128.124 896.475 128.124 898.449" fill="#3D4550"/>
<path d="M113.088 913.483C121.391 913.483 128.121 906.752 128.121 898.45C128.121 890.147 121.391 883.417 113.088 883.417C104.786 883.417 98.0551 890.147 98.0551 898.45C98.0551 906.752 104.786 913.483 113.088 913.483Z" stroke="#3D4550" stroke-width="1.244"/>
<path d="M103.33 909.856H12.077C9.1392 909.856 6.32172 908.689 4.24438 906.612C2.16704 904.534 1 901.717 1 898.779C1 895.841 2.16704 893.024 4.24438 890.947C6.32172 888.869 9.1392 887.702 12.077 887.702H103.33C106.268 887.702 109.085 888.869 111.163 890.947C113.24 893.024 114.407 895.841 114.407 898.779C114.407 901.717 113.24 904.534 111.163 906.612C109.085 908.689 106.268 909.856 103.33 909.856" fill="white"/>
<path d="M103.33 909.856H12.077C9.1392 909.856 6.32172 908.689 4.24438 906.612C2.16704 904.534 1 901.717 1 898.779C1 895.841 2.16704 893.024 4.24438 890.947C6.32172 888.869 9.1392 887.702 12.077 887.702H103.33C106.268 887.702 109.085 888.869 111.163 890.947C113.24 893.024 114.407 895.841 114.407 898.779C114.407 901.717 113.24 904.534 111.163 906.612C109.085 908.689 106.268 909.856 103.33 909.856V909.856Z" stroke="#3D4550" stroke-width="1.152"/>
<path d="M133.746 1101.86C133.746 1105.68 132.613 1109.41 130.49 1112.59C128.368 1115.77 125.351 1118.24 121.821 1119.7C118.291 1121.17 114.407 1121.55 110.659 1120.8C106.912 1120.06 103.469 1118.22 100.768 1115.52C98.0656 1112.82 96.2254 1109.37 95.4796 1105.63C94.7338 1101.88 95.116 1098 96.5778 1094.47C98.0395 1090.93 100.515 1087.92 103.692 1085.79C106.868 1083.67 110.603 1082.54 114.424 1082.54C116.961 1082.54 119.474 1083.04 121.818 1084.01C124.162 1084.98 126.292 1086.4 128.087 1088.19C129.881 1089.99 131.304 1092.12 132.275 1094.46C133.246 1096.81 133.746 1099.32 133.746 1101.86V1101.86Z" stroke="#3D4550" stroke-width="1.598"/>
<path d="M129.13 1101.99C129.13 1104.96 128.248 1107.87 126.596 1110.34C124.945 1112.81 122.597 1114.74 119.85 1115.88C117.103 1117.01 114.08 1117.31 111.164 1116.73C108.248 1116.15 105.569 1114.72 103.467 1112.62C101.365 1110.52 99.9329 1107.84 99.3528 1104.92C98.7728 1102 99.0705 1098.98 100.208 1096.24C101.346 1093.49 103.273 1091.14 105.745 1089.49C108.217 1087.84 111.124 1086.96 114.097 1086.96C118.084 1086.96 121.908 1088.54 124.727 1091.36C127.546 1094.18 129.13 1098 129.13 1101.99" fill="#3D4550"/>
<path d="M114.097 1117.02C122.399 1117.02 129.13 1110.29 129.13 1101.99C129.13 1093.69 122.399 1086.96 114.097 1086.96C105.794 1086.96 99.064 1093.69 99.064 1101.99C99.064 1110.29 105.794 1117.02 114.097 1117.02Z" stroke="#3D4550" stroke-width="1.244"/>
<path d="M104.339 1113.4H13.086C10.1482 1113.4 7.33075 1112.23 5.25341 1110.16C3.17607 1108.08 2.00903 1105.26 2.00903 1102.32C2.00903 1099.39 3.17607 1096.57 5.25341 1094.49C7.33075 1092.41 10.1482 1091.25 13.086 1091.25H104.339C107.277 1091.25 110.094 1092.41 112.172 1094.49C114.249 1096.57 115.416 1099.39 115.416 1102.32C115.416 1105.26 114.249 1108.08 112.172 1110.16C110.094 1112.23 107.277 1113.4 104.339 1113.4" fill="white"/>
<path d="M104.339 1113.4H13.086C10.1482 1113.4 7.33075 1112.23 5.25341 1110.16C3.17607 1108.08 2.00903 1105.26 2.00903 1102.32C2.00903 1099.39 3.17607 1096.57 5.25341 1094.49C7.33075 1092.41 10.1482 1091.25 13.086 1091.25H104.339C107.277 1091.25 110.094 1092.41 112.172 1094.49C114.249 1096.57 115.416 1099.39 115.416 1102.32C115.416 1105.26 114.249 1108.08 112.172 1110.16C110.094 1112.23 107.277 1113.4 104.339 1113.4V1113.4Z" stroke="#3D4550" stroke-width="1.152"/>
<path d="M119.503 2005.29C119.452 2004.56 119.248 2003.85 118.908 2003.23C118.527 2003.82 118.637 2004.5 119.503 2005.29Z" fill="#FAF7EF"/>
<path d="M823.013 1967.01L820.726 1965.15C820.959 1965.63 821.286 1966.05 821.682 1966.37C822.078 1966.7 822.533 1966.91 823.013 1967.01" fill="#FAF7EF"/>
<path d="M953.912 1960.69C954.322 1960.71 954.689 1960.71 955.076 1960.72C954.69 1960.7 954.325 1960.69 953.912 1960.69Z" fill="#FAF7EF"/>
<path d="M957.792 1960.79C956.85 1960.74 955.977 1960.75 955.075 1960.72C955.973 1960.88 956.888 1960.91 957.792 1960.79" fill="#FAF7EF"/>
<path d="M514.031 2094.03C519.291 2094.07 522.009 2093.61 523.438 2092.85C520.217 2093.17 516.915 2093.4 513.79 2093.83L514.031 2094.03Z" fill="#FAF7EF"/>
<path d="M637.319 2064.73C637.154 2064.85 636.966 2064.99 636.82 2065.1C637.085 2065.08 637.293 2064.97 637.568 2064.94L637.319 2064.73Z" fill="#FAF7EF"/>
<path d="M504.065 2097.34C503.315 2097.85 502.65 2098.5 502.102 2099.27C504.11 2099.27 504.353 2098.44 504.065 2097.34Z" fill="#FAF7EF"/>
<path d="M1570.82 2020.23C1570.08 2020.54 1569.33 2020.81 1568.57 2021.04C1569.35 2020.91 1570.11 2020.64 1570.82 2020.23Z" fill="#FAF7EF"/>
<path d="M630.151 2058.53L637.319 2064.73C638.467 2063.84 639.634 2062.93 641.159 2061.87C643.084 2057.37 634.073 2057.3 630.15 2058.52" fill="#FAF7EF"/>
<path d="M504.065 2097.34C506.477 2095.4 509.865 2094.41 513.79 2093.83L509.964 2090.39C499.371 2089.89 503.412 2094.59 504.064 2097.34" fill="#FAF7EF"/>
<path d="M71.168 2014.29C72.0867 2015.11 72.011 2016.06 71.5046 2017.05C70.8308 2018.19 70.0435 2019.2 69.1658 2020.04C67.337 2022 66.0291 2023.7 70.1421 2024.27C72.428 2021.78 74.7562 2019.3 77.1266 2016.81C76.014 2020.25 80.197 2024.3 81.0254 2027.37C82.4097 2023.93 80.0927 2021.13 78.4023 2018.01C76.7265 2014.89 75.6614 2011.45 79.9624 2006.7C80.9519 2004.61 83.1267 2003.7 85.4998 2003.52C87.7212 2003.41 89.944 2003.68 92.1162 2004.33C84.5015 2002.91 92.329 1997.93 95.5195 1995.47C100.211 1998.28 107.906 1997.25 109.896 2001.73C110.691 2000.17 114.419 1999.34 116.914 2000.21L117.022 2002.51C122.833 2000.77 115.225 2000.19 116.817 1997.87C118.911 1997.58 121.507 1998.74 124.4 1999.97C127.451 2001.45 130.641 2002.33 133.872 2002.57C127.1 2002.45 121.309 2005.45 116.414 2007.75C122.348 2010.07 121.579 2012.97 119.027 2016.02C117.749 2017.55 116.023 2019.12 114.436 2020.66C113.028 2021.93 111.771 2023.48 110.712 2025.28C111.897 2024.96 112.997 2024.61 114.027 2024.25C115.067 2023.9 116.039 2023.54 116.961 2023.16C118.807 2022.39 120.452 2021.55 122.055 2020.67C125.268 2018.94 128.268 2016.97 132.401 2015.32C137.004 2018.01 136.389 2022.21 134.385 2025.82C132.38 2029.43 128.979 2032.42 127.784 2032.72C132.303 2031.14 136.729 2029.09 141.024 2026.59C145.2 2024.23 148.991 2022.1 151.489 2020.99C143.944 2029.46 144.734 2032.37 138.289 2039.24C139.467 2040.42 140.835 2041.19 142.276 2041.48C143.307 2041.64 144.348 2041.37 145.263 2040.7C147.032 2039.45 148.485 2037.1 150.34 2035.52C148.311 2036.2 145.275 2036.55 144.768 2034.72C152.893 2036.14 153.115 2022.2 158.247 2016.56C164.041 2020.83 175.703 2023.75 173.702 2031.78L174.882 2023.12C182.557 2021.81 178.042 2027.96 178.756 2030.91C182.399 2025.3 180.214 2016.42 193.132 2015.46C188.93 2029.16 204.151 2017.97 201.648 2030.61C207.596 2030.42 211.563 2023.77 217.44 2025.96C222.898 2033.97 205.09 2041.91 201.911 2039.39C193.479 2038.79 204.009 2033.7 200.625 2033.46L191.964 2036.36C196 2039.55 204.191 2043.62 202.111 2049.28C210.736 2047.59 196.585 2042.48 206.124 2040.26L210.98 2044.13C220.562 2041.96 210.81 2034.19 222.914 2033.97C213.84 2039.07 235.802 2035.63 233.333 2044.76C235.98 2033.28 255.02 2046.05 259.398 2037.12L253.509 2033.66L253.928 2038.96C246.964 2038.35 240.605 2040.68 233.901 2037.8C240.279 2034.26 233.817 2027.88 241.041 2024.98C254.658 2019.73 243.127 2031.58 244.875 2031.74L255.846 2026.86L250.154 2021.11C254.681 2020.58 259.23 2020.52 263.764 2020.92C268.719 2021.29 273.965 2022.06 279.236 2023.12C293.645 2032.02 276.049 2029.26 286.071 2037.19C291.636 2035.35 290.957 2032.35 298.001 2034.15C294.747 2030.35 290.783 2034.68 288.159 2033.86C286.104 2026.09 301.752 2032.15 302.334 2025.19C304.763 2028.32 303.646 2031.15 300.731 2033.83C313.451 2032.6 324.994 2035.29 328.018 2044.83L334.913 2036.6C355.436 2042.25 319.05 2042.98 335.822 2050.69C343.023 2052.39 350.321 2052.94 354.126 2049.71L347.82 2048.67C353.493 2044.41 353.699 2040.97 361.96 2038.63C367.31 2040.12 363.418 2045.7 370.849 2041.52C386.845 2048.34 373.894 2055.7 369.864 2063.58C381.521 2069.58 360.916 2079.85 369.896 2076.99L367.944 2074.76L382.619 2064.39C372.127 2053.24 376.441 2072.99 373.213 2062.61L366.178 2061.08C369.222 2056.32 385.191 2061.62 387.546 2056.09C387.244 2059.05 384.439 2065.68 376.917 2065.24L379.705 2076.7C383.886 2078.22 387.843 2071.24 389.49 2076.43C394.925 2084.23 378.328 2086.67 393.854 2091.21C410.604 2095.23 411.434 2081.59 422.729 2084.5C421.871 2081.92 418.967 2081.91 415.417 2081.21C419.673 2077.86 413.504 2074.19 420.181 2071.97C422.754 2079.69 434.982 2080.44 444.273 2080.98C441.343 2084.81 446.816 2089.28 443.611 2091.36C448.455 2090.78 452.963 2089.9 455.376 2086.71C437.168 2079.61 474.392 2082 460.609 2073.36C467.909 2074.16 472.074 2076.33 475.502 2078.84C478.93 2081.34 481.623 2084.21 485.972 2086.49C485.136 2088.71 468.512 2089.89 481.23 2094.01C497.075 2087.31 479.738 2082.97 492.363 2074.51L483.284 2071.07C483.145 2061.48 499.75 2069.88 502.378 2067.97C507.916 2070.79 494.053 2070.05 499.034 2076.91C507.474 2079.63 512.418 2073.99 517.581 2077.88C511.581 2083.98 515.26 2081.66 508.555 2087.01C528.932 2088.21 506.773 2094.48 521.971 2099.5C527.038 2098.58 524.409 2092.76 532.244 2094.69C528.222 2087.46 529.028 2085.2 516.21 2084.21C521.648 2074.41 532.871 2087.65 542.383 2082.13C535.281 2080.91 540.318 2079.98 532.418 2081.01C532.127 2072.53 529.4 2071.05 537.143 2063.62C528.668 2065.38 524.22 2074.24 512.545 2071.02C510.126 2062.26 527.759 2065.32 528.927 2054.2C535.32 2048.94 549.169 2054.51 555.367 2059.02C567.404 2052.75 581.472 2053.29 590.94 2043.74C598.978 2047.44 620.189 2038.79 635.54 2042.36C637.621 2047.41 654.461 2046.32 644.589 2051.41C646.035 2049.83 659.007 2049.36 655.866 2044.74C654.453 2046.32 653.062 2044.94 650.263 2045.12L653.08 2039.01C660.439 2041.85 669.21 2034.27 676.2 2038.23C678.313 2043.28 662.552 2040.99 667.098 2046.98C674.49 2038.03 702.743 2034.83 711.538 2039.02C717.497 2040.42 717.92 2048.16 720.403 2049.07L730.541 2048.65C731.642 2051.17 731.694 2054.14 733.471 2057.32C738.41 2059.17 741.891 2056.66 745.029 2055.32C758.095 2060.58 750.863 2066.72 743.894 2071.71L736.489 2068.95C730.906 2072.34 723.117 2070.71 727.474 2077.79C731.305 2077.12 731.273 2074.18 732.674 2072.59L736.946 2076.7C741.485 2073.74 753.784 2072.42 752.632 2066.94C761.483 2071.02 771.916 2066.44 779.758 2070.99C774.388 2067.36 781.37 2065.29 779.863 2060.97L770.357 2059.17C778.04 2057.76 789.159 2053.92 796.266 2057.72C795.308 2061.13 794.992 2062.27 798.575 2065.67C793.547 2060.91 812.067 2059.66 801.052 2053.57C796.78 2055.52 792.249 2056.18 787.775 2055.49C784.467 2047.97 792.843 2047.28 797.607 2043.13C803.505 2041.5 814.987 2039.35 822.921 2036.8C827.864 2038.59 829.187 2047.01 837.769 2042.12C827.059 2034.96 848.183 2030.4 851.073 2023.09C859.215 2026.39 864.423 2017.01 870.914 2023.07C867.538 2025.64 854.968 2025.31 851.685 2030.82C851.158 2036.06 854.283 2044.69 841.783 2047.33C856.712 2050.12 850.64 2042.91 857.552 2040.83L852.422 2041.5C854.779 2039.44 850.44 2035.39 854.982 2035.33C872.495 2037.44 875.513 2043.03 887.31 2049.72C884.702 2045.89 890.152 2042.38 892.946 2042.12C904.312 2046.96 892.698 2053.29 899.635 2061.16C903.651 2056.33 911.408 2057.8 908.806 2053.96C913.323 2053.88 910.966 2055.97 914.184 2057.51C917.134 2053.13 920.533 2050.58 926.802 2050.71C926.219 2053 925.319 2056.42 919.322 2055.16C926.044 2057.1 928.468 2065.03 925.519 2069.41L914.561 2066.4C909.534 2071.73 924.788 2068.74 924.334 2073.97C919.481 2075.2 915.848 2071.83 912.749 2073.26C915.797 2078.91 925.344 2073.52 930.916 2072.96C939.709 2073.96 936.453 2079.47 936.578 2082.44C951.581 2073.52 919.347 2072.25 933.319 2063.81C938.628 2057.34 951.936 2058.25 961.298 2056.94C953.288 2049.57 962.232 2046.44 971.881 2043.98C959.311 2043.77 968.697 2035.39 953.918 2040.21L953.649 2034.3C959.937 2034.41 967.369 2037 973.653 2037.13C972.341 2038.73 973.793 2040.06 971.731 2041.04L990.456 2038.41L988.541 2042.31C1000.07 2042.99 1014.24 2047.5 1021.12 2045.32C1015.56 2045.88 1010.76 2040.06 1016.59 2038.34C1019.97 2035.78 1026.1 2032.92 1031.35 2033.49C1034.11 2040.27 1053.97 2040.11 1041.4 2046.97C1057.61 2043.47 1051.63 2042.21 1067.12 2038.05L1056.75 2039.83C1055.45 2034.4 1064.08 2025.33 1054.15 2021.89C1065.84 2018.46 1058.41 2008.81 1074.06 2007.61C1080.4 2010.91 1072.14 2018.59 1063.36 2019.96C1067.78 2020.4 1071.79 2023.39 1076.37 2019.64C1079.7 2024.12 1068.02 2027.54 1068.46 2029.35C1076.5 2029.66 1068.32 2026.4 1075.9 2024.89C1089.21 2018.71 1084.35 2034.06 1097.07 2030.18C1094.29 2030.46 1089.34 2028.73 1092.69 2026.16C1109.78 2026.29 1102.21 2020.74 1114.63 2018C1121.61 2025.86 1118.5 2034.35 1129.71 2036.19L1123.46 2036.07C1127.54 2039.84 1132.36 2041.82 1137.28 2041.74C1160.64 2035 1180.01 2023.06 1204.2 2017.09L1195.56 2019.01C1192.67 2016.3 1202.79 2015.72 1202.68 2012.75L1208.03 2016.34C1209.57 2010.62 1195.97 2010.8 1199.25 2005.29C1200.34 2006.02 1201.6 2006.16 1202.76 2005.7L1197.79 2003.95C1209.05 2005.85 1218.12 1995.7 1226.49 2004.98C1204.5 2005.88 1222.88 2021.63 1201.37 2024.39C1212.77 2022.19 1203.31 2030.5 1204.45 2033.01C1210.42 2034.3 1207.44 2028.64 1214.14 2030.59C1213.92 2034.71 1199.43 2038.32 1205.82 2041.41C1206.62 2035.03 1212.58 2036.32 1215.55 2031.95C1220.49 2033.72 1215.37 2036.05 1217.52 2038.09C1220.28 2037.83 1221.94 2035.07 1224.4 2035.96L1222.46 2039.87C1236.2 2045.66 1226.77 2033.9 1242.47 2035.79C1243.01 2030.56 1238.17 2031.73 1231.6 2032.71C1228.44 2021.13 1252.1 2020.45 1251.04 2007.95C1266.01 2006.2 1247 2012.74 1259.65 2016.08C1266.5 2023.99 1250.13 2024.34 1246.81 2029.85L1259.86 2034.97C1255.27 2045.01 1247.19 2041.68 1244.69 2050.81C1254.43 2051.41 1253.32 2048.89 1263.29 2045.42C1247.42 2037.53 1270.4 2039.24 1261.44 2029.28C1268.81 2031.97 1266.43 2034.03 1277.22 2034.2C1270.32 2036.3 1276.75 2042.41 1267.71 2042.45C1282.28 2041.92 1278.4 2039.65 1292.97 2039.14C1297.7 2032.06 1278.47 2029.64 1296.15 2024.78C1299.95 2024.79 1299.13 2027.47 1296.91 2027.41C1309.37 2030.46 1294.57 2018.49 1302.55 2015C1308.07 2014.23 1309.96 2017.08 1307.64 2018.73C1315.99 2014.94 1311.58 2010.1 1317.11 2008.61L1314.64 2007.7C1317.05 2005.66 1310.68 1995.9 1322.59 1995.67C1331.27 1995.86 1322.46 2023.11 1322.59 2025.5C1329.4 2023.17 1340.71 2001.6 1345.23 2004.21C1344.82 2002.8 1340.89 2020.99 1342.93 2021C1354.48 2019 1357.71 2033.81 1361.92 2034.97C1378.08 2038.93 1358.19 2014.88 1376.42 2015L1353.64 1992.81C1354.66 1989.39 1355.32 1984.16 1350.74 1984.13C1350.11 1989.36 1342.43 1993.65 1335.38 1992.67C1333.54 1986.53 1354.64 1986.42 1342.93 1979.52C1347.17 1980.68 1353.16 1979.14 1358.43 1979.85C1352.87 1986.19 1375.34 1981.55 1365.89 1988.54C1377.49 1988.02 1384.1 1989.03 1390.48 1989.55C1398.25 1990.28 1406.05 1989.82 1413.75 1988.2C1411.61 1992.04 1397.57 2001.9 1386.69 1998.56L1385.95 1994.91C1371.94 1998.83 1398.73 2019.4 1395.92 2025.5C1413.46 2016.1 1429.52 2027.15 1450.53 2024.39C1447.08 2020.9 1453 2003.58 1454.11 2000.21C1445.66 2000.69 1447.05 2002.12 1441.14 1997.65C1442.59 1993.12 1447.5 1995.04 1450.36 1991.91C1452.89 1986.96 1444.02 1991.57 1441.22 1988.76C1449.38 1986.43 1448.67 1985.72 1453.68 1981.74C1457.85 1985.95 1451.01 2012.44 1454.11 2017.09C1473.8 2019.03 1478.35 1985.62 1494.19 1988.17C1485.41 1986.73 1497.95 1993.51 1488.45 1991.4L1493.74 1992.25C1479.43 1998.87 1458.66 2018.48 1460.21 2030.59C1471.44 2030 1477.26 2002.69 1490.96 2003.09L1478.56 2021C1488.39 2022.04 1493.57 2019.06 1496.07 2017.09C1507.46 2013.63 1505.09 2031.11 1513.42 2023L1503.32 2002.18C1512.26 1997.74 1516.73 2023.88 1519.42 2016C1527.28 2013.45 1526.69 2024.58 1537.92 2024.78C1549.16 2025.06 1556.36 1991.67 1567.47 1989.46C1561.68 1984.84 1557.57 2021.86 1549.42 2021C1554.17 2010.5 1559.69 1974.93 1556.58 1965.43L1546.61 1964.27L1547.4 1954.29C1550.05 1954.31 1552.68 1954.94 1555.18 1956.15C1557.18 1949.99 1570.24 1959.09 1571.52 1953.16L1563.92 2018.73C1560.23 2013.31 1569.23 1949.17 1575.42 1947.88C1570.37 1941.02 1556.71 1946.96 1544.51 1946.61C1545.04 1950.29 1532.24 1956.98 1544 1958.46C1543.47 1962.54 1536.23 1964.23 1531.59 1964.04C1534.2 1962.1 1523.44 1952.57 1534.65 1950.25C1523.74 1954.39 1529.99 1950.08 1518.1 1951.68C1519.97 1949.01 1497.7 1950.67 1499.73 1942.09C1495.72 1945.58 1498.92 1954.84 1485.38 1954.59C1486.8 1957.67 1491.25 1959.6 1494.02 1961.51C1496.8 1963.45 1497.89 1965.34 1492.61 1968.28L1499.47 1964.66C1508.63 1967.96 1496.43 1970.71 1508.45 1973.88C1504.9 1973.29 1497.36 1976.21 1496.07 1971.81C1498.21 1984.61 1477.49 1977.19 1476.23 1986.49C1473.82 1982.56 1470.3 1982 1463.54 1982.71C1464.69 1979.31 1461.21 1975.81 1466.57 1973.68C1470.79 1974.93 1474.02 1973.67 1478.56 1976.77C1476.82 1964.04 1461.48 1971.92 1450.53 1968.78C1452.02 1969.85 1452.39 1971.08 1449.2 1972.77C1442.53 1970.58 1427.65 1967.77 1432.3 1961.94L1415.09 1962.04L1397.9 1962.27C1397.89 1959.3 1402.86 1961.19 1405 1960.3L1385.86 1959.38C1381.57 1955.22 1392.56 1955.59 1394.68 1951.75L1380.83 1951.57L1382.94 1947.73C1379.4 1950.14 1363.46 1950.96 1359.84 1944.55C1352.22 1945.31 1348.37 1948.92 1343.89 1951.57C1339.41 1954.22 1332.71 1998.74 1322.59 1995.67C1323.55 1989.3 1335.81 1950.76 1340.72 1946.72C1336.78 1944.38 1324.47 1948.73 1322.59 1942.58C1307.78 1945.98 1309.07 1957.37 1301.8 1963.51C1289.82 1963.75 1300.62 1958.05 1300.2 1956.22C1296.66 1955.76 1290.61 1967.43 1287.6 1958.77C1281.71 1963.35 1278.34 1968.83 1286.84 1971.07C1280.5 1970.89 1271.44 1973.87 1269.77 1976.64C1275.11 1967.26 1262.62 1972.79 1262.06 1965.05C1252.49 1963.27 1231.3 1960.77 1222.18 1970.85L1224.97 1960.58L1213.76 1961.61C1205.47 1955.32 1223.71 1955.09 1229.34 1954.61C1214.14 1953.34 1204 1953.98 1190.3 1954.15C1194.26 1956.37 1191.87 1958.46 1193.74 1961.62C1189 1965.8 1182.56 1962.67 1177.68 1963.89C1176.53 1961.4 1177.14 1959.1 1180.96 1958.37L1171.56 1959.64C1172.37 1953.25 1167.79 1953.33 1177.1 1949.09L1168.41 1951.04C1158.85 1949.38 1168.88 1945.8 1171.25 1943.7L1156.13 1942.59C1150.67 1946.09 1159.17 1948.24 1148.72 1949.98C1134.79 1944.28 1117.03 1946.44 1101.19 1944.66L1112.32 1950.62C1102.78 1948.97 1104.66 1959.18 1101.71 1963.56C1092.92 1962.58 1081.08 1963.04 1073.63 1960.46C1082.12 1955.51 1078.64 1948.07 1070.74 1943.64C1052.89 1942.84 1057.26 1953.93 1047.32 1957.53C1055.08 1944.86 1034.9 1953.23 1036.66 1946.36C1014.03 1946.81 991.278 1951.36 967.99 1951.1C968.439 1952.93 975.115 1954.85 971.022 1956.74C962.447 1958.73 958.39 1953.56 957.228 1951.07C946.153 1952.2 939.777 1956.17 936.108 1959.88C940.917 1958.67 941.342 1960.47 940.437 1963.92C929.391 1965.01 932.495 1956.53 921.991 1962.39C919.276 1955.61 933.648 1959.02 932.67 1952.41C922.933 1951.9 916.809 1954.74 909.676 1958.06C908.098 1953.75 916.211 1957.04 910.865 1953.47C895.783 1956.43 877.596 1960.81 866.254 1963L863.283 1957.34C856.044 1957.65 851.248 1958.84 847.885 1961.4C844.005 1959.16 847.08 1957.74 850.846 1957.04C841.163 1956.46 829.206 1960.93 823.703 1961.4C824.638 1957.98 829.21 1960.91 830.856 1958.17C818.764 1956.65 803.201 1967.71 795.397 1960.25C796.408 1959.45 797.567 1959.09 798.728 1959.19C790.046 1959.05 781.364 1959.51 772.717 1960.59C764.104 1961.49 755.268 1962.56 745.531 1962.62C727.913 1955.52 739.487 1971.25 721.909 1970.07C722.346 1954.89 698.049 1968.53 690.743 1965.52L693.002 1967.79C688.54 1970.71 683.375 1970.72 678.599 1969.45C674.385 1968.26 670.325 1966.22 666.551 1963.38C658.955 1962.56 651.331 1962.31 643.715 1962.64C635.524 1963.04 627.305 1964.22 620.575 1967.03L623.372 1963.92C612.339 1967.5 605.924 1962.41 594.87 1965.91C595.248 1964.78 599.401 1963.1 595.315 1961.82C588.884 1960.9 582.423 1960.2 575.934 1959.68C569.445 1959.16 562.934 1958.84 556.428 1958.53C549.914 1958.25 543.382 1958.1 536.836 1958.02L517.195 1957.86C491.006 1957.73 464.766 1957.71 439.272 1954.49C433.179 1953.7 426.995 1952.9 420.722 1952.08C417.589 1951.67 414.429 1951.3 411.265 1950.86C408.102 1950.42 404.921 1949.98 401.72 1949.54C388.931 1947.76 375.829 1946.12 362.639 1944.17C349.404 1942.33 335.988 1940.46 322.489 1938.58C308.852 1936.65 295.076 1934.76 281.018 1932.95C253.016 1929.35 224.198 1926.25 195.547 1924.66C167.527 1922.92 139.461 1923.14 111.456 1925.31C111.456 1925.31 108.084 1929.17 103.325 1935.39C97.4667 1943.05 91.9756 1951.22 86.8862 1959.86C84.1105 1964.58 81.5319 1969.51 79.163 1974.64C76.9544 1979.36 75.0213 1984.32 73.3816 1989.47C70.3863 1999.08 69.3217 2007.89 71.1586 2014.3" fill="#FAF7EF"/>
<path d="M1557.8 2028.91C1557.24 2028.8 1556.73 2028.7 1556.08 2028.56C1556.64 2028.78 1557.22 2028.9 1557.8 2028.91Z" fill="#FAF7EF"/>
<path d="M1270.64 2021.66C1272 2021.7 1273.36 2021.63 1274.71 2021.45C1273.35 2021.29 1271.98 2021.36 1270.64 2021.66Z" fill="#FAF7EF"/>
<path d="M1025.22 2042.32L1030.37 2041.76C1028.64 2041.75 1026.92 2041.93 1025.22 2042.32" fill="#FAF7EF"/>
<path d="M648.854 2062.37C650.395 2066.76 639.272 2074.12 647.718 2078.3C655.466 2078.81 660.269 2078.01 663.608 2076.58C666.303 2075.36 668.732 2073.5 670.729 2071.11C674.535 2067.09 678.429 2063.16 694.244 2064.39L678.59 2058.71C678.729 2066.46 667.014 2070.28 654.537 2070.33L651.331 2064.52C653.616 2063 656.013 2061.71 658.494 2060.67C653.901 2059.75 654.327 2064.25 648.854 2062.37" fill="#FAF7EF"/>
<path d="M659.629 2060.93C659.411 2060.79 659.125 2060.66 658.911 2060.5C658.776 2060.57 658.635 2060.63 658.491 2060.67C658.874 2060.73 659.254 2060.82 659.629 2060.93" fill="#FAF7EF"/>
</svg>
