<svg width="1576" height="867" viewBox="0 0 1576 867" fill="none" xmlns="http://www.w3.org/2000/svg">
<path d="M1575 0H67V780H1575V0Z" fill="#F9F6ED"/>
<path d="M132.736 288.318C132.736 292.139 131.603 295.874 129.48 299.05C127.358 302.227 124.341 304.703 120.811 306.165C117.281 307.628 113.397 308.01 109.65 307.265C105.902 306.52 102.46 304.68 99.7585 301.978C97.0567 299.277 95.2168 295.835 94.4713 292.087C93.7258 288.34 94.1082 284.456 95.5702 280.926C97.0322 277.396 99.5081 274.379 102.685 272.256C105.861 270.133 109.596 269 113.417 269C118.541 269 123.454 271.035 127.077 274.658C130.7 278.281 132.736 283.194 132.736 288.318V288.318Z" stroke="#3D4550" stroke-width="1.598"/>
<path d="M128.124 288.449C128.124 291.422 127.243 294.329 125.591 296.801C123.94 299.273 121.592 301.2 118.845 302.338C116.099 303.476 113.076 303.774 110.16 303.194C107.244 302.615 104.565 301.183 102.462 299.081C100.36 296.979 98.9278 294.301 98.3473 291.385C97.7668 288.469 98.064 285.446 99.2013 282.699C100.339 279.952 102.265 277.604 104.737 275.952C107.209 274.3 110.115 273.418 113.088 273.417C115.062 273.417 117.017 273.805 118.841 274.561C120.666 275.316 122.323 276.423 123.719 277.819C125.115 279.215 126.223 280.872 126.979 282.696C127.735 284.52 128.124 286.475 128.124 288.449Z" fill="#3D4550"/>
<path d="M113.088 303.483C121.391 303.483 128.121 296.752 128.121 288.45C128.121 280.147 121.391 273.417 113.088 273.417C104.786 273.417 98.0551 280.147 98.0551 288.45C98.0551 296.752 104.786 303.483 113.088 303.483Z" stroke="#3D4550" stroke-width="1.244"/>
<path d="M103.33 299.856H12.077C9.1392 299.856 6.32172 298.689 4.24438 296.612C2.16704 294.534 1 291.717 1 288.779C1 285.841 2.16704 283.024 4.24438 280.946C6.32172 278.869 9.1392 277.702 12.077 277.702H103.33C106.268 277.702 109.085 278.869 111.163 280.946C113.24 283.024 114.407 285.841 114.407 288.779C114.407 291.717 113.24 294.534 111.163 296.612C109.085 298.689 106.268 299.856 103.33 299.856Z" fill="white"/>
<path d="M103.33 299.856H12.077C9.1392 299.856 6.32172 298.689 4.24438 296.612C2.16704 294.534 1 291.717 1 288.779C1 285.841 2.16704 283.024 4.24438 280.946C6.32172 278.869 9.1392 277.702 12.077 277.702H103.33C106.268 277.702 109.085 278.869 111.163 280.946C113.24 283.024 114.407 285.841 114.407 288.779C114.407 291.717 113.24 294.534 111.163 296.612C109.085 298.689 106.268 299.856 103.33 299.856V299.856Z" stroke="#3D4550" stroke-width="1.152"/>
<path d="M133.746 491.856C133.746 495.677 132.613 499.412 130.49 502.589C128.368 505.766 125.351 508.242 121.821 509.704C118.291 511.167 114.407 511.549 110.659 510.804C106.912 510.059 103.469 508.219 100.768 505.518C98.0656 502.816 96.2254 499.374 95.4796 495.627C94.7338 491.88 95.116 487.995 96.5778 484.465C98.0395 480.935 100.515 477.918 103.692 475.794C106.868 473.671 110.603 472.538 114.424 472.537C116.961 472.537 119.474 473.036 121.818 474.007C124.162 474.978 126.292 476.4 128.087 478.194C129.881 479.988 131.304 482.118 132.275 484.462C133.246 486.806 133.746 489.319 133.746 491.856V491.856Z" stroke="#3D4550" stroke-width="1.598"/>
<path d="M129.13 491.988C129.13 494.961 128.248 497.868 126.596 500.34C124.945 502.812 122.597 504.739 119.85 505.877C117.103 507.015 114.08 507.312 111.164 506.732C108.248 506.152 105.569 504.72 103.467 502.618C101.365 500.516 99.9329 497.837 99.3528 494.921C98.7728 492.005 99.0705 488.982 100.208 486.235C101.346 483.488 103.273 481.14 105.745 479.489C108.217 477.837 111.124 476.955 114.097 476.955C118.084 476.955 121.908 478.539 124.727 481.358C127.546 484.177 129.13 488.001 129.13 491.988Z" fill="#3D4550"/>
<path d="M114.097 507.021C122.399 507.021 129.13 500.291 129.13 491.988C129.13 483.686 122.399 476.955 114.097 476.955C105.794 476.955 99.064 483.686 99.064 491.988C99.064 500.291 105.794 507.021 114.097 507.021Z" stroke="#3D4550" stroke-width="1.244"/>
<path d="M104.339 503.4H13.086C10.1482 503.4 7.33075 502.233 5.25341 500.156C3.17607 498.078 2.00903 495.261 2.00903 492.323C2.00903 489.385 3.17607 486.568 5.25341 484.49C7.33075 482.413 10.1482 481.246 13.086 481.246H104.339C107.277 481.246 110.094 482.413 112.172 484.49C114.249 486.568 115.416 489.385 115.416 492.323C115.416 495.261 114.249 498.078 112.172 500.156C110.094 502.233 107.277 503.4 104.339 503.4Z" fill="white"/>
<path d="M104.339 503.4H13.086C10.1482 503.4 7.33075 502.233 5.25341 500.156C3.17607 498.078 2.00903 495.261 2.00903 492.323C2.00903 489.385 3.17607 486.568 5.25341 484.49C7.33075 482.413 10.1482 481.246 13.086 481.246H104.339C107.277 481.246 110.094 482.413 112.172 484.49C114.249 486.568 115.416 489.385 115.416 492.323C115.416 495.261 114.249 498.078 112.172 500.156C110.094 502.233 107.277 503.4 104.339 503.4V503.4Z" stroke="#3D4550" stroke-width="1.152"/>
<path d="M119.503 772.292C119.452 771.561 119.248 770.854 118.908 770.229C118.527 770.815 118.637 771.504 119.503 772.292Z" fill="#FAF7EF"/>
<path d="M823.013 734.009L820.726 732.147C820.959 732.632 821.286 733.051 821.682 733.373C822.078 733.696 822.533 733.913 823.013 734.009" fill="#FAF7EF"/>
<path d="M953.912 727.69C954.322 727.71 954.689 727.714 955.076 727.719C954.69 727.699 954.325 727.695 953.912 727.69Z" fill="#FAF7EF"/>
<path d="M957.792 727.789C956.85 727.738 955.977 727.746 955.075 727.718C955.973 727.882 956.888 727.905 957.792 727.789" fill="#FAF7EF"/>
<path d="M514.031 861.027C519.291 861.071 522.009 860.614 523.438 859.848C520.217 860.168 516.915 860.4 513.79 860.828L514.031 861.027Z" fill="#FAF7EF"/>
<path d="M637.319 831.729C637.154 831.854 636.966 831.994 636.82 832.105C637.085 832.079 637.293 831.967 637.568 831.936L637.319 831.729Z" fill="#FAF7EF"/>
<path d="M504.065 864.339C503.315 864.847 502.65 865.501 502.102 866.271C504.11 866.271 504.353 865.436 504.065 864.339Z" fill="#FAF7EF"/>
<path d="M1570.82 787.23C1570.08 787.543 1569.33 787.812 1568.57 788.036C1569.35 787.908 1570.11 787.636 1570.82 787.23Z" fill="#FAF7EF"/>
<path d="M630.151 825.526L637.319 831.726C638.467 830.841 639.634 829.933 641.159 828.866C643.084 824.366 634.073 824.299 630.15 825.523" fill="#FAF7EF"/>
<path d="M504.065 864.339C506.477 862.403 509.865 861.414 513.79 860.828L509.964 857.388C499.371 856.888 503.412 861.593 504.064 864.339" fill="#FAF7EF"/>
<path d="M71.168 781.294C72.0867 782.106 72.011 783.058 71.5046 784.048C70.8308 785.192 70.0435 786.199 69.1658 787.042C67.337 789 66.0291 790.701 70.1421 791.267C72.428 788.784 74.7562 786.298 77.1266 783.808C76.014 787.253 80.197 791.297 81.0254 794.37C82.4097 790.929 80.0927 788.134 78.4023 785.013C76.7265 781.891 75.6614 778.445 79.9624 773.698C80.9519 771.609 83.1267 770.698 85.4998 770.519C87.7212 770.408 89.944 770.679 92.1162 771.326C84.5015 769.914 92.329 764.932 95.5195 762.469C100.211 765.284 107.906 764.252 109.896 768.73C110.691 767.166 114.419 766.342 116.914 767.205L117.022 769.505C122.833 767.772 115.225 767.19 116.817 764.866C118.911 764.578 121.507 765.739 124.4 766.973C127.451 768.454 130.641 769.33 133.872 769.573C127.1 769.453 121.309 772.445 116.414 774.747C122.348 777.067 121.579 779.967 119.027 783.023C117.749 784.55 116.023 786.115 114.436 787.664C113.028 788.927 111.771 790.483 110.712 792.277C111.897 791.958 112.997 791.614 114.027 791.249C115.067 790.904 116.039 790.539 116.961 790.155C118.807 789.387 120.452 788.547 122.055 787.67C125.268 785.941 128.268 783.97 132.401 782.321C137.004 785.012 136.389 789.214 134.385 792.822C132.38 796.429 128.979 799.422 127.784 799.722C132.303 798.14 136.729 796.092 141.024 793.594C145.2 791.232 148.991 789.1 151.489 787.993C143.944 796.461 144.734 799.368 138.289 806.245C139.467 807.421 140.835 808.189 142.276 808.484C143.307 808.643 144.348 808.368 145.263 807.697C147.032 806.455 148.485 804.097 150.34 802.52C148.311 803.198 145.275 803.554 144.768 801.72C152.893 803.141 153.115 789.195 158.247 783.562C164.041 787.827 175.703 790.752 173.702 798.778L174.882 790.116C182.557 788.809 178.042 794.96 178.756 797.907C182.399 792.302 180.214 783.424 193.132 782.456C188.93 796.163 204.151 784.973 201.648 797.609C207.596 797.425 211.563 790.768 217.44 792.959C222.898 800.97 205.09 808.911 201.911 806.386C193.479 805.792 204.009 800.696 200.625 800.461L191.964 803.361C196 806.548 204.191 810.616 202.111 816.281C210.736 814.592 196.585 809.481 206.124 807.257L210.98 811.133C220.562 808.96 210.81 801.189 222.914 800.969C213.84 806.069 235.802 802.634 233.333 811.761C235.98 800.284 255.02 813.052 259.398 804.118L253.509 800.664L253.928 805.964C246.964 805.346 240.605 807.685 233.901 804.796C240.279 801.258 233.817 794.88 241.041 791.984C254.658 786.731 243.127 798.585 244.875 798.739L255.846 793.862L250.154 788.112C254.681 787.584 259.23 787.521 263.764 787.921C268.719 788.292 273.965 789.057 279.236 790.121C293.645 799.022 276.049 796.261 286.071 804.192C291.636 802.352 290.957 799.347 298.001 801.146C294.747 797.346 290.783 801.685 288.159 800.858C286.104 793.087 301.752 799.151 302.334 792.188C304.763 795.32 303.646 798.152 300.731 800.827C313.451 799.605 324.994 802.291 328.018 811.827L334.913 803.599C355.436 809.248 319.05 809.979 335.822 817.686C343.023 819.395 350.321 819.941 354.126 816.714L347.82 815.667C353.493 811.412 353.699 807.967 361.96 805.633C367.31 807.123 363.418 812.704 370.849 808.519C386.845 815.341 373.894 822.696 369.864 830.58C381.521 836.58 360.916 846.85 369.896 843.986L367.944 841.757L382.619 831.387C372.127 820.239 376.441 839.987 373.213 829.611L366.178 828.079C369.222 823.316 385.191 828.618 387.546 823.093C387.244 826.049 384.439 832.679 376.917 832.236L379.705 843.699C383.886 845.225 387.843 838.238 389.49 843.43C394.925 851.23 378.328 853.675 393.854 858.213C410.604 862.231 411.434 848.595 422.729 851.496C421.871 848.916 418.967 848.915 415.417 848.209C419.673 844.865 413.504 841.191 420.181 838.967C422.754 846.689 434.982 847.436 444.273 847.982C441.343 851.81 446.816 856.282 443.611 858.363C448.455 857.784 452.963 856.9 455.376 853.715C437.168 846.615 474.392 849.002 460.609 840.362C467.909 841.162 472.074 843.333 475.502 845.838C478.93 848.343 481.623 851.209 485.972 853.49C485.136 855.713 468.512 856.89 481.23 861.008C497.075 854.308 479.738 849.974 492.363 841.508L483.284 838.066C483.145 828.477 499.75 836.885 502.378 834.966C507.916 837.787 494.053 837.047 499.034 843.911C507.474 846.632 512.418 840.995 517.581 844.878C511.581 850.978 515.26 848.662 508.555 854.009C528.932 855.214 506.773 861.481 521.971 866.5C527.038 865.577 524.409 859.763 532.244 861.688C528.222 854.457 529.028 852.202 516.21 851.206C521.648 841.406 532.871 854.653 542.383 849.126C535.281 847.907 540.318 846.977 532.418 848.012C532.127 839.532 529.4 838.055 537.143 830.625C528.668 832.384 524.22 841.242 512.545 838.025C510.126 829.264 527.759 832.325 528.927 821.198C535.32 815.939 549.169 821.515 555.367 826.025C567.404 819.752 581.472 820.29 590.94 810.737C598.978 814.437 620.189 805.786 635.54 809.361C637.621 814.412 654.461 813.32 644.589 818.406C646.035 816.834 659.007 816.359 655.866 811.744C654.453 813.319 653.062 811.944 650.263 812.119L653.08 806.01C660.439 808.847 669.21 801.271 676.2 805.235C678.313 810.282 662.552 807.986 667.098 813.98C674.49 805.029 702.743 801.831 711.538 806.022C717.497 807.422 717.92 815.165 720.403 816.073L730.541 815.653C731.642 818.168 731.694 821.137 733.471 824.325C738.41 826.167 741.891 823.665 745.029 822.32C758.095 827.579 750.863 833.72 743.894 838.713L736.489 835.948C730.906 839.338 723.117 837.71 727.474 844.789C731.305 844.122 731.273 841.181 732.674 839.589L736.946 843.699C741.485 840.743 753.784 839.418 752.632 833.944C761.483 838.017 771.916 833.439 779.758 837.994C774.388 834.365 781.37 832.294 779.863 827.973L770.357 826.173C778.04 824.76 789.159 820.918 796.266 824.719C795.308 828.134 794.992 829.274 798.575 832.671C793.547 827.909 812.067 826.66 801.052 820.571C796.78 822.524 792.249 823.178 787.775 822.487C784.467 814.969 792.843 814.281 797.607 810.126C803.505 808.501 814.987 806.354 822.921 803.8C827.864 805.593 829.187 814.006 837.769 809.121C827.059 801.962 848.183 797.398 851.073 790.087C859.215 793.393 864.423 784.014 870.914 790.074C867.538 792.644 854.968 792.308 851.685 797.818C851.158 803.059 854.283 811.688 841.783 814.329C856.712 817.118 850.64 809.909 857.552 807.829L852.422 808.504C854.779 806.438 850.44 802.391 854.982 802.333C872.495 804.442 875.513 810.033 887.31 816.717C884.702 812.89 890.152 809.38 892.946 809.117C904.312 813.964 892.698 820.286 899.635 828.163C903.651 823.326 911.408 824.804 908.806 820.963C913.323 820.881 910.966 822.972 914.184 824.514C917.134 820.135 920.533 817.583 926.802 817.714C926.219 819.997 925.319 823.419 919.322 822.156C926.044 824.105 928.468 832.028 925.519 836.408L914.561 833.397C909.534 838.728 924.788 835.742 924.334 840.975C919.481 842.196 915.848 838.832 912.749 840.259C915.797 845.909 925.344 840.516 930.916 839.959C939.709 840.959 936.453 846.473 936.578 849.442C951.581 840.522 919.347 839.251 933.319 830.808C938.628 824.344 951.936 825.25 961.298 823.94C953.288 816.566 962.232 813.44 971.881 810.977C959.311 810.768 968.697 802.392 953.918 807.21L953.649 801.297C959.937 801.413 967.369 803.997 973.653 804.128C972.341 805.728 973.793 807.064 971.731 808.036L990.456 805.407L988.541 809.307C1000.07 809.986 1014.24 814.497 1021.12 812.317C1015.56 812.876 1010.76 807.058 1016.59 805.339C1019.97 802.779 1026.1 799.921 1031.35 800.489C1034.11 807.268 1053.97 807.112 1041.4 813.969C1057.61 810.469 1051.63 809.206 1067.12 805.046L1056.75 806.83C1055.45 801.402 1064.08 792.33 1054.15 788.893C1065.84 785.457 1058.41 775.809 1074.06 774.614C1080.4 777.914 1072.14 785.591 1063.36 786.963C1067.78 787.404 1071.79 790.385 1076.37 786.64C1079.7 791.116 1068.02 794.541 1068.46 796.35C1076.5 796.658 1068.32 793.404 1075.9 791.894C1089.21 785.707 1084.35 801.063 1097.07 797.183C1094.29 797.456 1089.34 795.728 1092.69 793.157C1109.78 793.292 1102.21 787.735 1114.63 785.003C1121.61 792.864 1118.5 801.352 1129.71 803.193L1123.46 803.071C1127.54 806.84 1132.36 808.816 1137.28 808.736C1160.64 801.998 1180.01 790.062 1204.2 784.085L1195.56 786.009C1192.67 783.3 1202.79 782.72 1202.68 779.753L1208.03 783.338C1209.57 777.624 1195.97 777.795 1199.25 772.287C1200.34 773.016 1201.6 773.162 1202.76 772.696L1197.79 770.95C1209.05 772.85 1218.12 762.703 1226.49 771.978C1204.5 772.878 1222.88 788.627 1201.37 791.387C1212.77 789.187 1203.31 797.504 1204.45 800.009C1210.42 801.299 1207.44 795.641 1214.14 797.591C1213.92 801.714 1199.43 805.32 1205.82 808.41C1206.62 802.027 1212.58 803.323 1215.55 798.955C1220.49 800.719 1215.37 803.055 1217.52 805.087C1220.28 804.834 1221.94 802.069 1224.4 802.96L1222.46 806.87C1236.2 812.662 1226.77 800.902 1242.47 802.789C1243.01 797.561 1238.17 798.733 1231.6 799.711C1228.44 788.133 1252.1 787.449 1251.04 774.949C1266.01 773.202 1247 779.736 1259.65 783.078C1266.5 790.993 1250.13 791.336 1246.81 796.849L1259.86 801.967C1255.27 812.006 1247.19 808.679 1244.69 817.81C1254.43 818.41 1253.32 815.889 1263.29 812.421C1247.42 804.534 1270.4 806.245 1261.44 796.282C1268.81 798.966 1266.43 801.03 1277.22 801.202C1270.32 803.302 1276.75 809.414 1267.71 809.449C1282.28 808.918 1278.4 806.649 1292.97 806.143C1297.7 799.062 1278.47 796.643 1296.15 791.785C1299.95 791.791 1299.13 794.475 1296.91 794.408C1309.37 797.458 1294.57 785.494 1302.55 781.998C1308.07 781.233 1309.96 784.077 1307.64 785.732C1315.99 781.939 1311.58 777.1 1317.11 775.61L1314.64 774.695C1317.05 772.662 1310.68 762.898 1322.59 762.671C1331.27 762.855 1322.46 790.114 1322.59 792.5C1329.4 790.166 1340.71 768.604 1345.23 771.212C1344.82 769.804 1340.89 787.986 1342.93 788C1354.48 786 1357.71 800.809 1361.92 801.967C1378.08 805.934 1358.19 781.878 1376.42 781.998L1353.64 759.809C1354.66 756.392 1355.32 751.157 1350.74 751.129C1350.11 756.361 1342.43 760.651 1335.38 759.674C1333.54 753.533 1354.64 753.421 1342.93 746.524C1347.17 747.681 1353.16 746.141 1358.43 746.847C1352.87 753.188 1375.34 748.547 1365.89 755.541C1377.49 755.021 1384.1 756.027 1390.48 756.547C1398.25 757.275 1406.05 756.823 1413.75 755.197C1411.61 759.044 1397.57 768.897 1386.69 765.559L1385.95 761.906C1371.94 765.827 1398.73 786.397 1395.92 792.5C1413.46 783.1 1429.52 794.154 1450.53 791.387C1447.08 787.901 1453 770.579 1454.11 767.209C1445.66 767.686 1447.05 769.117 1441.14 764.649C1442.59 760.119 1447.5 762.042 1450.36 758.909C1452.89 753.955 1444.02 758.57 1441.22 755.764C1449.38 753.425 1448.67 752.721 1453.68 748.735C1457.85 752.954 1451.01 779.435 1454.11 784.085C1473.8 786.029 1478.35 752.623 1494.19 755.171C1485.41 753.734 1497.95 760.51 1488.45 758.401L1493.74 759.246C1479.43 765.873 1458.66 785.478 1460.21 797.591C1471.44 797.003 1477.26 769.693 1490.96 770.089L1478.56 788C1488.39 789.043 1493.57 786.057 1496.07 784.085C1507.46 780.632 1505.09 798.105 1513.42 790L1503.32 769.176C1512.26 764.736 1516.73 790.876 1519.42 783C1527.28 780.45 1526.69 791.579 1537.92 791.785C1549.16 792.065 1556.36 758.665 1567.47 756.456C1561.68 751.836 1557.57 788.855 1549.42 788C1554.17 777.5 1559.69 741.932 1556.58 732.431L1546.61 731.273L1547.4 721.289C1550.05 721.313 1552.68 721.943 1555.18 723.153C1557.18 716.988 1570.24 726.085 1571.52 720.161L1563.92 785.732C1560.23 780.31 1569.23 716.166 1575.42 714.879C1570.37 708.02 1556.71 713.965 1544.51 713.612C1545.04 717.292 1532.24 723.982 1544 725.463C1543.47 729.542 1536.23 731.23 1531.59 731.035C1534.2 729.099 1523.44 719.574 1534.65 717.253C1523.74 721.392 1529.99 717.078 1518.1 718.677C1519.97 716.009 1497.7 717.669 1499.73 709.094C1495.72 712.578 1498.92 721.835 1485.38 721.594C1486.8 724.666 1491.25 726.602 1494.02 728.514C1496.8 730.451 1497.89 732.337 1492.61 735.282L1499.47 731.656C1508.63 734.956 1496.43 737.709 1508.45 740.879C1504.9 740.288 1497.36 743.206 1496.07 738.814C1498.21 751.614 1477.49 744.192 1476.23 753.485C1473.82 749.555 1470.3 748.995 1463.54 749.71C1464.69 746.31 1461.21 742.81 1466.57 740.682C1470.79 741.932 1474.02 740.67 1478.56 743.765C1476.82 731.042 1461.48 738.918 1450.53 735.778C1452.02 736.849 1452.39 738.078 1449.2 739.766C1442.53 737.584 1427.65 734.766 1432.3 728.939L1415.09 729.039L1397.9 729.268C1397.89 726.302 1402.86 728.189 1405 727.296L1385.86 726.38C1381.57 722.221 1392.56 722.591 1394.68 718.754L1380.83 718.566L1382.94 714.726C1379.4 717.14 1363.46 717.962 1359.84 711.548C1352.22 712.306 1348.37 715.925 1343.89 718.571C1339.41 721.217 1332.71 765.738 1322.59 762.671C1323.55 756.296 1335.81 717.758 1340.72 713.718C1336.78 711.377 1324.47 715.729 1322.59 709.582C1307.78 712.982 1309.07 724.37 1301.8 730.506C1289.82 730.75 1300.62 725.052 1300.2 723.221C1296.66 722.755 1290.61 734.43 1287.6 725.774C1281.71 730.353 1278.34 735.832 1286.84 738.074C1280.5 737.89 1271.44 740.874 1269.77 743.635C1275.11 734.258 1262.62 739.794 1262.06 732.046C1252.49 730.267 1231.3 727.766 1222.18 737.851L1224.97 727.579L1213.76 728.609C1205.47 722.322 1223.71 722.092 1229.34 721.609C1214.14 720.344 1204 720.983 1190.3 721.154C1194.26 723.366 1191.87 725.461 1193.74 728.62C1189 732.796 1182.56 729.671 1177.68 730.886C1176.53 728.395 1177.14 726.104 1180.96 725.373L1171.56 726.643C1172.37 720.251 1167.79 720.325 1177.1 716.09L1168.41 718.044C1158.85 716.376 1168.88 712.801 1171.25 710.703L1156.13 709.593C1150.67 713.093 1159.17 715.241 1148.72 716.985C1134.79 711.285 1117.03 713.438 1101.19 711.658L1112.32 717.622C1102.78 715.967 1104.66 726.176 1101.71 730.559C1092.92 729.578 1081.08 730.039 1073.63 727.459C1082.12 722.509 1078.64 715.066 1070.74 710.643C1052.89 709.843 1057.26 720.927 1047.32 724.533C1055.08 711.858 1034.9 720.233 1036.66 713.364C1014.03 713.81 991.278 718.364 967.99 718.098C968.439 719.928 975.115 721.845 971.022 723.739C962.447 725.731 958.39 720.563 957.228 718.073C946.153 719.201 939.777 723.173 936.108 726.884C940.917 725.671 941.342 727.472 940.437 730.915C929.391 732.008 932.495 723.527 921.991 729.392C919.276 722.606 933.648 726.015 932.67 719.412C922.933 718.899 916.809 721.741 909.676 725.056C908.098 720.745 916.211 724.04 910.865 720.471C895.783 723.43 877.596 727.809 866.254 730.002L863.283 724.341C856.044 724.653 851.248 725.841 847.885 728.402C844.005 726.157 847.08 724.741 850.846 724.039C841.163 723.46 829.206 727.928 823.703 728.396C824.638 724.978 829.21 727.91 830.856 725.167C818.764 723.65 803.201 734.71 795.397 727.245C796.408 726.455 797.567 726.088 798.728 726.19C790.046 726.045 781.364 726.513 772.717 727.59C764.104 728.49 755.268 729.563 745.531 729.617C727.913 722.517 739.487 738.25 721.909 737.071C722.346 721.889 698.049 735.527 690.743 732.515L693.002 734.792C688.54 737.713 683.375 737.72 678.599 736.452C674.385 735.262 670.325 733.215 666.551 730.379C658.955 729.562 651.331 729.314 643.715 729.635C635.524 730.042 627.305 731.217 620.575 734.028L623.372 730.921C612.339 734.496 605.924 729.407 594.87 732.911C595.248 731.783 599.401 730.102 595.315 728.818C588.884 727.896 582.423 727.201 575.934 726.682C569.445 726.163 562.934 725.839 556.428 725.533C549.914 725.254 543.382 725.1 536.836 725.02L517.195 724.863C491.006 724.729 464.766 724.714 439.272 721.488C433.179 720.698 426.995 719.896 420.722 719.083C417.589 718.672 414.429 718.298 411.265 717.859C408.102 717.42 404.921 716.981 401.72 716.538C388.931 714.756 375.829 713.117 362.639 711.169C349.404 709.328 335.988 707.462 322.489 705.584C308.852 703.654 295.076 701.758 281.018 699.952C253.016 696.352 224.198 693.252 195.547 691.66C167.527 689.922 139.461 690.137 111.456 692.306C111.456 692.306 108.084 696.175 103.325 702.393C97.4667 710.053 91.9756 718.225 86.8862 726.858C84.1105 731.58 81.5319 736.515 79.163 741.637C76.9544 746.364 75.0213 751.323 73.3816 756.467C70.3863 766.083 69.3217 774.89 71.1586 781.297" fill="#FAF7EF"/>
<path d="M1557.8 795.909C1557.24 795.804 1556.73 795.702 1556.08 795.558C1556.64 795.779 1557.22 795.898 1557.8 795.909Z" fill="#FAF7EF"/>
<path d="M1270.64 788.659C1272 788.696 1273.36 788.626 1274.71 788.45C1273.35 788.289 1271.98 788.359 1270.64 788.659Z" fill="#FAF7EF"/>
<path d="M1025.22 809.32L1030.37 808.763C1028.64 808.746 1026.92 808.933 1025.22 809.32" fill="#FAF7EF"/>
<path d="M648.854 829.375C650.395 833.756 639.272 841.117 647.718 845.299C655.466 845.811 660.269 845.011 663.608 843.579C666.303 842.362 668.732 840.497 670.729 838.113C674.535 834.09 678.429 830.158 694.244 831.392L678.59 825.715C678.729 833.462 667.014 837.279 654.537 837.329L651.331 831.516C653.616 830.001 656.013 828.713 658.494 827.667C653.901 826.749 654.327 831.25 648.854 829.375" fill="#FAF7EF"/>
<path d="M659.629 827.926C659.411 827.794 659.125 827.658 658.911 827.505C658.776 827.575 658.635 827.629 658.491 827.666C658.874 827.731 659.254 827.817 659.629 827.926" fill="#FAF7EF"/>
</svg>
