<svg width="1575" height="621" viewBox="0 0 1575 621" fill="none" xmlns="http://www.w3.org/2000/svg">
<g clip-path="url(#clip0_210_2)">
<path d="M1575.06 0H67.061V551H1575.06V0Z" fill="#F9F6ED"/>
<path d="M132.312 173.731C132.312 177.552 131.179 181.287 129.056 184.463C126.934 187.64 123.917 190.116 120.387 191.578C116.857 193.041 112.973 193.423 109.226 192.678C105.478 191.933 102.036 190.093 99.3344 187.391C96.6327 184.69 94.7928 181.248 94.0473 177.5C93.3018 173.753 93.6842 169.869 95.1462 166.339C96.6082 162.809 99.084 159.792 102.261 157.669C105.437 155.546 109.172 154.413 112.993 154.413C118.117 154.413 123.03 156.448 126.653 160.071C130.276 163.694 132.312 168.608 132.312 173.731V173.731Z" stroke="#3D4550" stroke-width="1.598"/>
<path d="M127.7 173.862C127.7 176.835 126.819 179.742 125.167 182.214C123.516 184.686 121.168 186.613 118.421 187.751C115.675 188.889 112.652 189.187 109.736 188.608C106.82 188.028 104.141 186.596 102.038 184.494C99.9358 182.392 98.5037 179.714 97.9233 176.798C97.3428 173.882 97.64 170.86 98.7773 168.113C99.9147 165.365 101.841 163.017 104.313 161.365C106.785 159.713 109.691 158.831 112.664 158.83C114.638 158.83 116.593 159.218 118.417 159.974C120.242 160.729 121.899 161.836 123.295 163.232C124.691 164.628 125.799 166.285 126.555 168.109C127.311 169.933 127.7 171.888 127.7 173.862Z" fill="#3D4550"/>
<path d="M112.664 188.896C120.966 188.896 127.697 182.166 127.697 173.863C127.697 165.561 120.966 158.83 112.664 158.83C104.361 158.83 97.631 165.561 97.631 173.863C97.631 182.166 104.361 188.896 112.664 188.896Z" stroke="#3D4550" stroke-width="1.244"/>
<path d="M102.906 185.269H11.653C8.71519 185.269 5.89771 184.102 3.82037 182.025C1.74303 179.947 0.575989 177.13 0.575989 174.192C0.575989 171.254 1.74303 168.437 3.82037 166.359C5.89771 164.282 8.71519 163.115 11.653 163.115H102.906C105.844 163.115 108.661 164.282 110.739 166.359C112.816 168.437 113.983 171.254 113.983 174.192C113.983 177.13 112.816 179.947 110.739 182.025C108.661 184.102 105.844 185.269 102.906 185.269Z" fill="white"/>
<path d="M102.906 185.269H11.653C8.71519 185.269 5.89771 184.102 3.82037 182.025C1.74303 179.947 0.575989 177.13 0.575989 174.192C0.575989 171.254 1.74303 168.437 3.82037 166.359C5.89771 164.282 8.71519 163.115 11.653 163.115H102.906C105.844 163.115 108.661 164.282 110.739 166.359C112.816 168.437 113.983 171.254 113.983 174.192C113.983 177.13 112.816 179.947 110.739 182.025C108.661 184.102 105.844 185.269 102.906 185.269V185.269Z" stroke="#3D4550" stroke-width="1.152"/>
<path d="M133.322 377.269C133.322 381.09 132.189 384.825 130.066 388.002C127.944 391.179 124.927 393.655 121.397 395.117C117.867 396.58 113.983 396.962 110.235 396.217C106.488 395.472 103.045 393.632 100.343 390.931C97.6415 388.229 95.8013 384.787 95.0555 381.04C94.3098 377.293 94.6919 373.408 96.1537 369.878C97.6154 366.348 100.091 363.331 103.268 361.207C106.444 359.084 110.179 357.951 114 357.95C116.537 357.95 119.05 358.449 121.394 359.42C123.738 360.39 125.868 361.813 127.663 363.607C129.457 365.401 130.88 367.531 131.851 369.875C132.822 372.219 133.322 374.732 133.322 377.269V377.269Z" stroke="#3D4550" stroke-width="1.598"/>
<path d="M128.706 377.401C128.706 380.374 127.824 383.281 126.173 385.753C124.521 388.225 122.173 390.152 119.426 391.29C116.679 392.428 113.656 392.725 110.74 392.145C107.824 391.565 105.145 390.133 103.043 388.031C100.941 385.929 99.5089 383.25 98.9289 380.334C98.3488 377.418 98.6465 374.395 99.7843 371.648C100.922 368.901 102.849 366.553 105.321 364.902C107.793 363.25 110.7 362.368 113.673 362.368C117.66 362.368 121.484 363.952 124.303 366.771C127.122 369.59 128.706 373.414 128.706 377.401Z" fill="#3D4550"/>
<path d="M113.673 392.434C121.976 392.434 128.706 385.704 128.706 377.401C128.706 369.099 121.976 362.368 113.673 362.368C105.371 362.368 98.64 369.099 98.64 377.401C98.64 385.704 105.371 392.434 113.673 392.434Z" stroke="#3D4550" stroke-width="1.244"/>
<path d="M103.915 388.813H12.662C9.72416 388.813 6.90668 387.646 4.82934 385.569C2.752 383.491 1.58496 380.674 1.58496 377.736C1.58496 374.798 2.752 371.981 4.82934 369.903C6.90668 367.826 9.72416 366.659 12.662 366.659H103.915C106.853 366.659 109.67 367.826 111.748 369.903C113.825 371.981 114.992 374.798 114.992 377.736C114.992 380.674 113.825 383.491 111.748 385.569C109.67 387.646 106.853 388.813 103.915 388.813Z" fill="white"/>
<path d="M103.915 388.813H12.662C9.72416 388.813 6.90668 387.646 4.82934 385.569C2.752 383.491 1.58496 380.674 1.58496 377.736C1.58496 374.798 2.752 371.981 4.82934 369.903C6.90668 367.826 9.72416 366.659 12.662 366.659H103.915C106.853 366.659 109.67 367.826 111.748 369.903C113.825 371.981 114.992 374.798 114.992 377.736C114.992 380.674 113.825 383.491 111.748 385.569C109.67 387.646 106.853 388.813 103.915 388.813V388.813Z" stroke="#3D4550" stroke-width="1.152"/>
<path d="M79.9053 573.815C83.4343 572.976 84.0202 571.573 83.4696 569.876C82.5773 571.494 81.3548 572.845 79.9053 573.815Z" fill="#FAF7EF"/>
<path d="M169.542 576.872C168.791 577.163 168.071 577.548 167.394 578.018C168.871 577.618 169.917 577.105 169.542 576.872Z" fill="#FAF7EF"/>
<path d="M119.022 546.298C118.971 545.567 118.766 544.859 118.427 544.235C118.046 544.821 118.156 545.51 119.022 546.298Z" fill="#FAF7EF"/>
<path d="M821.762 508.015L819.477 506.153C819.711 506.638 820.037 507.057 820.433 507.379C820.828 507.702 821.283 507.919 821.762 508.015" fill="#FAF7EF"/>
<path d="M952.518 501.696C952.927 501.716 953.295 501.72 953.68 501.725C953.296 501.705 952.931 501.701 952.518 501.696Z" fill="#FAF7EF"/>
<path d="M956.394 501.795C955.453 501.744 954.581 501.752 953.679 501.724C954.577 501.888 955.491 501.911 956.394 501.795" fill="#FAF7EF"/>
<path d="M636.271 605.735C636.106 605.86 635.918 606 635.772 606.111C636.037 606.085 636.246 605.973 636.52 605.942L636.271 605.735Z" fill="#FAF7EF"/>
<path d="M1568.75 561.236C1568.01 561.549 1567.26 561.818 1566.5 562.042C1567.28 561.914 1568.04 561.642 1568.75 561.236Z" fill="#FAF7EF"/>
<path d="M629.111 599.532L636.271 605.732C637.418 604.847 638.584 603.939 640.107 602.872C642.03 598.372 633.029 598.305 629.11 599.529" fill="#FAF7EF"/>
<path d="M71.5333 556.8C72.6458 557.612 72.5541 558.564 71.9409 559.554C71.1249 560.697 70.1717 561.705 69.1089 562.548C66.8944 564.506 65.3108 566.207 70.2911 566.773C73.0591 564.29 75.8782 561.803 78.7484 559.314C77.4012 562.759 82.4662 566.803 83.4694 569.875C85.1456 566.435 82.34 563.64 80.2932 560.519C78.264 557.397 76.9743 553.951 82.1823 549.204C83.3804 547.115 86.0138 546.204 88.8873 546.025C91.5772 545.913 94.2687 546.184 96.899 546.832C87.6786 545.42 97.1566 540.438 101.02 537.975C106.701 540.79 116.018 539.758 118.428 544.236C119.39 542.672 123.905 541.848 126.926 542.711L127.057 545.011C134.093 543.278 124.881 542.696 126.808 540.372C129.345 540.084 132.487 541.245 135.991 542.479C139.685 543.96 143.547 544.835 147.46 545.079C139.26 544.959 132.248 547.951 126.32 550.253C133.506 552.573 132.575 555.473 129.484 558.529C127.938 560.056 125.848 561.621 123.926 563.17C122.22 564.432 120.699 565.989 119.416 567.783C120.851 567.464 122.183 567.12 123.43 566.755C124.689 566.41 125.867 566.045 126.983 565.661C129.218 564.893 131.211 564.053 133.151 563.176C137.041 561.447 140.674 559.476 145.679 557.827C151.252 560.518 150.508 564.72 148.081 568.327C145.654 571.934 141.535 574.927 140.088 575.227C145.561 573.646 150.92 571.597 156.12 569.099C161.176 566.738 165.767 564.606 168.792 563.499C159.656 571.966 160.613 574.873 152.808 581.75C154.235 582.927 155.891 583.695 157.636 583.989C158.884 584.148 160.146 583.873 161.253 583.202C163.395 581.96 165.155 579.602 167.401 578.025C164.944 578.703 161.267 579.059 160.653 577.225C170.492 578.646 170.761 564.701 176.975 559.068C183.992 563.333 198.112 566.258 195.689 574.283L197.118 565.622C206.411 564.315 200.945 570.465 201.809 573.412C206.221 567.807 203.574 558.93 219.216 557.962C214.128 571.668 232.559 560.479 229.528 573.114C236.731 572.93 241.534 566.274 248.65 568.464C255.259 576.475 233.696 584.416 229.847 581.891C219.637 581.297 232.387 576.201 228.29 575.966L217.802 578.866C222.689 582.053 232.608 586.121 230.089 591.786C240.532 590.097 223.397 584.986 234.948 582.762L240.828 586.638C252.431 584.465 240.622 576.694 255.279 576.474C244.291 581.574 270.885 578.139 267.896 587.266C271.1 575.789 294.156 588.557 299.456 579.623L292.326 576.169L292.833 581.469C284.401 580.851 276.7 583.19 268.583 580.301C276.306 576.763 268.481 570.385 277.229 567.49C293.717 562.237 279.754 574.09 281.87 574.244L295.155 569.367L288.263 563.618C293.745 563.09 299.254 563.026 304.744 563.427C310.743 563.798 317.095 564.563 323.478 565.627C340.926 574.527 319.619 571.766 331.754 579.697C338.492 577.857 337.67 574.852 346.2 576.651C342.26 572.851 337.459 577.19 334.282 576.363C331.794 568.592 350.742 574.656 351.447 567.693C354.388 570.825 353.035 573.657 349.506 576.332C364.907 575.11 378.885 577.796 382.547 587.332L390.896 579.104C415.747 584.753 371.687 585.484 391.996 593.191C400.716 594.9 409.553 595.446 414.16 592.219L406.524 591.172C413.394 586.917 413.643 583.472 423.647 581.138C430.125 582.628 425.411 588.209 434.41 584.024C453.779 590.846 438.097 598.201 433.216 606.085C447.332 612.085 422.382 622.355 433.255 619.491L430.892 617.262L448.662 606.892C435.958 595.744 441.181 615.492 437.272 605.116L428.754 603.584C432.44 598.821 451.776 604.123 454.627 598.598C454.262 601.554 450.866 608.184 441.757 607.741L445.133 619.204C450.196 620.73 454.987 613.743 456.982 618.935C463.562 626.735 443.466 629.18 462.266 633.718C482.548 637.736 483.553 624.1 497.23 627.001C496.191 624.421 492.674 624.42 488.376 623.714C493.529 620.37 486.06 616.696 494.145 614.472C497.26 622.194 512.067 622.941 523.317 623.487C519.769 627.315 526.397 631.787 522.516 633.868C528.381 633.289 533.84 632.405 536.761 629.22C514.714 622.12 559.788 624.507 543.098 615.867C551.937 616.667 556.981 618.838 561.132 621.343C565.283 623.848 568.543 626.714 573.81 628.995C572.797 631.218 552.667 632.395 568.068 636.513C587.253 629.813 566.261 625.479 581.548 617.013L570.554 613.571C570.386 603.982 590.493 612.39 593.675 610.471C600.38 613.292 583.595 612.552 589.626 619.416C599.845 622.137 605.832 616.5 612.083 620.383C604.819 626.483 609.274 624.167 601.154 629.514C625.828 630.719 598.996 636.986 617.399 642.005C623.535 641.082 620.352 635.268 629.839 637.193C624.969 629.962 625.945 627.707 610.424 626.711C617.008 616.911 630.598 630.158 642.116 624.631C633.516 623.412 639.616 622.482 630.05 623.517C629.697 615.037 626.395 613.56 635.771 606.13C625.509 607.889 620.123 616.747 605.986 613.53C603.056 604.769 624.409 607.83 625.822 596.703C633.564 591.444 650.334 597.02 657.838 601.53C672.414 595.257 689.448 595.795 700.913 586.242C710.645 589.942 736.329 581.291 754.918 584.866C757.437 589.917 777.828 588.825 765.875 593.911C767.626 592.339 783.333 591.864 779.53 587.249C777.818 588.824 776.135 587.449 772.745 587.624L776.156 581.515C785.067 584.352 795.688 576.776 804.152 580.74C806.71 585.787 787.626 583.491 793.131 589.485C802.081 580.534 836.291 577.336 846.941 581.527C854.157 582.927 854.67 590.67 857.676 591.578L869.952 591.158C871.285 593.673 871.349 596.642 873.5 599.83C879.48 601.672 883.696 599.17 887.495 597.825C903.317 603.084 894.56 609.225 886.121 614.218L877.155 611.453C870.394 614.843 860.963 613.215 866.238 620.294C870.877 619.627 870.839 616.686 872.534 615.094L877.708 619.204C883.203 616.248 898.096 614.923 896.701 609.449C907.419 613.522 920.052 608.944 929.548 613.499C923.045 609.87 931.5 607.799 929.675 603.478L918.164 601.678C927.468 600.265 940.931 596.423 949.536 600.224C948.377 603.639 947.994 604.779 952.332 608.176C946.245 603.414 968.67 602.165 955.332 596.076C950.159 598.029 944.673 598.683 939.255 597.992C935.249 590.474 945.392 589.786 951.161 585.631C958.302 584.006 972.205 581.859 981.813 579.305C987.798 581.098 989.4 589.511 999.792 584.626C986.823 577.467 1012.4 572.903 1015.9 565.593C1025.76 568.898 1032.07 559.52 1039.93 565.58C1035.84 568.149 1020.62 567.814 1016.64 573.323C1016 578.564 1019.79 587.193 1004.65 589.834C1022.73 592.623 1015.38 585.414 1023.75 583.334L1017.54 584.009C1020.39 581.943 1015.13 577.896 1020.63 577.838C1041.84 579.947 1045.49 585.538 1059.78 592.222C1056.62 588.395 1063.22 584.885 1066.6 584.622C1080.37 589.469 1066.3 595.791 1074.7 603.668C1079.57 598.831 1088.96 600.309 1085.81 596.468C1091.28 596.386 1088.42 598.477 1092.32 600.019C1095.89 595.64 1100.01 593.088 1107.6 593.219C1106.89 595.502 1105.8 598.924 1098.54 597.661C1106.68 599.61 1109.62 607.533 1106.05 611.913L1092.78 608.902C1086.69 614.233 1105.16 611.247 1104.61 616.48C1098.73 617.701 1094.34 614.337 1090.58 615.764C1094.27 621.414 1105.83 616.021 1112.58 615.464C1123.23 616.464 1119.29 621.978 1119.44 624.947C1137.6 616.027 1098.57 614.756 1115.49 606.313C1121.92 599.849 1138.03 600.755 1149.37 599.445C1139.67 592.071 1150.5 588.945 1162.18 586.482C1146.96 586.273 1158.33 577.897 1140.43 582.715L1140.11 576.802C1147.72 576.918 1156.72 579.502 1164.33 579.633C1162.74 581.233 1164.5 582.569 1162 583.541L1184.68 580.912L1182.36 584.812C1196.32 585.491 1213.47 590.002 1221.8 587.822C1215.08 588.381 1209.26 582.563 1216.32 580.844C1220.41 578.284 1227.84 575.426 1234.2 575.994C1237.54 582.773 1261.59 582.617 1246.36 589.474C1265.99 585.974 1258.75 584.711 1277.51 580.551L1264.94 582.335C1263.38 576.907 1273.83 567.835 1261.81 564.399C1275.96 560.963 1266.96 551.315 1285.91 550.12C1293.59 553.42 1283.58 561.097 1272.95 562.469C1278.3 562.91 1283.16 565.891 1288.71 562.146C1292.74 566.622 1278.6 570.046 1279.13 571.855C1288.86 572.163 1278.95 568.909 1288.14 567.399C1304.25 561.213 1298.37 576.568 1313.77 572.688C1310.4 572.961 1304.42 571.233 1308.47 568.662C1329.16 568.797 1320 563.241 1335.04 560.509C1343.49 568.369 1339.73 576.857 1353.29 578.698L1345.73 578.576C1350.67 582.346 1356.51 584.321 1362.47 584.241C1390.75 577.503 1414.21 565.568 1443.49 559.591L1433.03 561.515C1429.54 558.806 1441.79 558.226 1441.65 555.259L1448.13 558.844C1450 553.13 1433.52 553.301 1437.5 547.793C1438.83 548.522 1440.34 548.668 1441.75 548.202L1435.74 546.456C1449.36 548.356 1460.35 538.209 1470.48 547.484C1443.86 548.384 1466.11 564.133 1440.07 566.893C1453.87 564.693 1442.42 573.009 1443.8 575.514C1451.03 576.804 1447.42 571.146 1455.53 573.096C1455.26 577.219 1437.72 580.825 1445.45 583.915C1446.43 577.532 1453.64 578.828 1457.24 574.46C1463.22 576.224 1457.02 578.56 1459.63 580.592C1462.97 580.339 1464.98 577.574 1467.95 578.465L1465.61 582.375C1482.24 588.167 1470.82 576.407 1489.84 578.294C1490.49 573.066 1484.62 574.238 1476.67 575.216C1472.84 563.639 1501.49 562.955 1500.21 550.455C1518.34 548.708 1495.32 555.242 1510.64 558.584C1518.93 566.499 1499.11 566.842 1495.09 572.354L1510.9 577.472C1505.34 587.511 1495.55 584.184 1492.53 593.315C1504.32 593.915 1502.97 591.394 1515.04 587.926C1495.83 580.039 1523.65 581.75 1512.8 571.787C1521.73 574.471 1518.85 576.535 1531.91 576.707C1523.56 578.807 1531.35 584.919 1520.39 584.954C1538.04 584.423 1533.34 582.154 1550.99 581.648C1556.72 574.567 1533.43 572.148 1554.83 567.29C1559.43 567.296 1558.44 569.98 1555.75 569.913C1570.84 572.963 1552.92 561 1562.59 557.504C1569.26 556.739 1571.56 559.583 1568.75 561.238C1578.85 557.445 1573.52 552.606 1580.21 551.116L1577.22 550.201C1580.14 548.168 1572.42 538.404 1586.84 538.177C1597.36 538.361 1594.18 541.817 1594.34 544.203C1602.59 541.869 1608.79 544.11 1614.27 546.718C1613.77 545.31 1614.45 543.918 1616.93 543.932C1630.91 541.932 1624.63 550.119 1629.73 551.277C1649.3 555.244 1627.9 538.057 1649.98 538.177L1624.45 535.315C1625.68 531.898 1626.48 526.663 1620.93 526.635C1620.17 531.867 1610.87 536.157 1602.34 535.18C1600.11 529.039 1625.66 528.927 1611.48 522.03C1616.61 523.187 1623.87 521.647 1630.25 522.353C1623.51 528.694 1650.73 524.053 1639.28 531.047C1653.33 530.527 1661.33 531.533 1669.05 532.053C1678.46 532.781 1687.91 532.328 1697.23 530.703C1694.64 534.55 1677.64 544.403 1664.46 541.065L1663.57 537.412C1646.61 541.333 1676.38 541.878 1672.97 547.981C1694.21 538.581 1718.34 554.081 1743.79 551.315C1739.61 547.829 1744.76 546.085 1746.1 542.715C1735.87 543.192 1737.56 544.623 1730.4 540.155C1732.15 535.625 1738.1 537.548 1741.56 534.415C1744.62 529.461 1733.89 534.076 1730.49 531.27C1740.38 528.931 1739.51 528.227 1745.59 524.241C1750.64 528.46 1749.73 530.716 1753.49 535.366C1777.34 537.31 1775.45 528.129 1794.64 530.677C1784 529.24 1799.18 536.016 1787.69 533.907L1794.09 534.752C1776.77 541.379 1748.28 540.04 1750.16 552.152C1763.75 551.564 1774.14 545.199 1790.72 545.595L1789.81 547.844C1801.71 548.887 1789.91 544.894 1792.93 542.922C1806.73 539.469 1809.11 555.276 1819.2 547.171L1805.69 544.682C1816.52 540.242 1802.74 543.676 1806 535.8C1815.51 533.25 1828.15 533.339 1841.75 533.544C1855.35 533.824 1869.91 534.171 1883.37 531.962C1876.36 527.342 1874.23 527.045 1864.37 526.19C1870.11 515.69 1873.95 517.438 1870.18 507.937L1858.11 506.779L1859.07 496.795C1862.28 496.819 1865.46 497.449 1868.49 498.659C1870.91 492.494 1886.72 501.591 1888.28 495.667L1877.82 495.925C1873.35 490.503 1885.49 491.672 1893 490.385C1886.88 483.526 1870.34 489.471 1855.57 489.118C1856.21 492.798 1840.71 499.488 1854.95 500.969C1854.31 505.048 1845.54 506.736 1839.92 506.541C1843.08 504.605 1830.06 495.08 1843.63 492.759C1830.41 496.898 1837.98 492.584 1823.59 494.183C1825.85 491.515 1798.89 493.175 1801.34 484.6C1796.49 488.084 1800.36 497.341 1783.97 497.1C1785.69 500.172 1791.08 502.108 1794.44 504.02C1797.8 505.957 1799.11 507.843 1792.72 510.788L1801.03 507.162C1812.12 510.462 1797.34 513.215 1811.91 516.385C1807.6 515.794 1798.47 518.712 1796.91 514.32C1799.51 527.12 1774.41 519.698 1772.89 528.991C1769.98 525.061 1765.71 524.501 1757.52 525.216C1758.92 521.816 1754.7 518.316 1761.19 516.188C1766.3 517.438 1770.21 516.176 1775.71 519.271C1773.61 506.548 1755.03 514.424 1741.77 511.284C1743.58 512.355 1744.02 513.584 1740.16 515.272C1732.08 513.09 1714.06 510.272 1719.7 504.445L1698.85 504.545L1678.04 504.774C1678.03 501.808 1684.04 503.695 1686.63 502.802L1663.46 501.886C1658.27 497.727 1671.57 498.097 1674.14 494.26L1657.37 494.072L1659.93 490.232C1655.64 492.646 1636.33 493.468 1631.96 487.054C1622.73 487.812 1618.06 491.431 1612.64 494.077C1607.21 496.723 1599.11 541.244 1586.84 538.177C1588.01 531.802 1602.85 493.264 1608.8 489.224C1604.03 486.883 1589.12 491.235 1586.84 485.088C1568.91 488.488 1570.48 499.876 1561.68 506.012C1547.17 506.256 1560.25 500.558 1559.74 498.727C1555.45 498.261 1548.12 509.936 1544.48 501.28C1537.35 505.859 1533.27 511.338 1543.56 513.58C1535.88 513.396 1524.91 516.38 1522.9 519.141C1529.36 509.764 1514.23 515.3 1513.56 507.552C1501.97 505.773 1476.31 503.272 1465.26 513.357L1468.65 503.085L1455.07 504.115C1445.03 497.828 1467.12 497.598 1473.93 497.115C1455.53 495.85 1443.25 496.489 1426.66 496.66C1431.46 498.872 1428.56 500.967 1430.82 504.126C1425.09 508.302 1417.29 505.177 1411.39 506.392C1409.99 503.901 1410.73 501.61 1415.36 500.879L1403.98 502.149C1404.95 495.757 1399.4 495.831 1410.68 491.596L1400.16 493.55C1388.58 491.882 1400.73 488.307 1403.6 486.209L1385.28 485.099C1378.68 488.599 1388.97 490.747 1376.32 492.491C1359.45 486.791 1337.94 488.944 1318.76 487.164L1332.24 493.128C1320.69 491.473 1322.96 501.682 1319.39 506.065C1308.75 505.084 1294.41 505.545 1285.39 502.965C1295.67 498.015 1291.46 490.572 1281.89 486.149C1260.28 485.349 1265.57 496.433 1253.53 500.039C1262.92 487.364 1238.49 495.739 1240.63 488.87C1213.22 489.316 1185.67 493.87 1157.47 493.604C1158.02 495.434 1166.1 497.351 1161.14 499.245C1150.76 501.237 1145.85 496.069 1144.44 493.579C1131.03 494.707 1123.31 498.679 1118.87 502.39C1124.69 501.177 1125.21 502.978 1124.11 506.421C1110.73 507.514 1114.49 499.033 1101.77 504.898C1098.49 498.112 1115.89 501.521 1114.7 494.918C1102.91 494.405 1095.5 497.247 1086.86 500.562C1084.95 496.251 1094.78 499.546 1088.3 495.977C1070.04 498.936 1048.02 503.315 1034.28 505.508L1030.69 499.847C1021.92 500.159 1016.11 501.347 1012.04 503.908C1007.34 501.663 1011.07 500.247 1015.63 499.545C1003.9 498.966 989.423 503.434 982.759 503.902C983.892 500.484 989.427 503.416 991.42 500.673C976.779 499.156 957.935 510.216 948.484 502.751C949.709 501.961 951.112 501.594 952.518 501.696C942.005 501.551 931.493 502.019 921.022 503.096C910.592 503.996 899.893 505.069 888.103 505.123C866.77 498.023 880.784 513.756 859.499 512.577C860.028 497.395 830.609 511.033 821.761 508.021L824.496 510.298C819.094 513.219 812.839 513.226 807.057 511.958C801.955 510.768 797.037 508.721 792.468 505.885C783.27 505.068 774.039 504.819 764.816 505.141C754.898 505.548 744.946 506.723 736.797 509.534L740.184 506.427C726.824 510.002 719.056 504.913 705.671 508.417C706.129 507.289 711.158 505.608 706.21 504.324C698.423 503.402 690.6 502.707 682.742 502.188C674.885 501.669 667 501.345 659.123 501.039C651.235 500.76 643.326 500.606 635.4 500.526L611.617 500.369C579.905 500.235 548.132 500.22 517.262 496.994C509.883 496.204 502.396 495.402 494.799 494.589C491.006 494.178 487.179 493.804 483.349 493.365C479.518 492.926 475.666 492.487 471.791 492.044C456.305 490.262 440.439 488.623 424.469 486.675C408.442 484.834 392.198 482.968 375.851 481.09C359.339 479.16 342.658 477.264 325.635 475.458C291.729 471.858 256.834 468.758 222.141 467.166C188.212 465.428 154.227 465.643 120.318 467.812C120.318 467.812 116.234 471.681 110.472 477.899C103.378 485.559 96.7288 493.731 90.5662 502.364C87.2051 507.086 84.0828 512.02 81.2142 517.143C78.5399 521.87 76.1993 526.828 74.2137 531.973C70.5868 541.589 69.2978 550.396 71.522 556.803" fill="#FAF7EF"/>
<path d="M1555.75 569.915C1555.19 569.81 1554.68 569.708 1554.03 569.564C1554.58 569.785 1555.16 569.904 1555.75 569.915Z" fill="#FAF7EF"/>
<path d="M1268.9 562.665C1270.26 562.702 1271.61 562.632 1272.96 562.456C1271.61 562.295 1270.24 562.365 1268.9 562.665Z" fill="#FAF7EF"/>
<path d="M1023.75 583.326L1028.9 582.769C1027.17 582.752 1025.44 582.939 1023.75 583.326" fill="#FAF7EF"/>
<path d="M647.794 603.381C649.333 607.762 638.222 615.123 646.659 619.305C654.399 619.817 659.197 619.017 662.532 617.585C665.224 616.368 667.65 614.503 669.644 612.119C673.447 608.096 677.337 604.164 693.134 605.398L677.497 599.721C677.636 607.468 665.934 611.285 653.471 611.335L650.268 605.522C652.551 604.007 654.945 602.719 657.423 601.673C652.836 600.755 653.261 605.256 647.794 603.381" fill="#FAF7EF"/>
<path d="M658.557 601.932C658.339 601.8 658.054 601.664 657.839 601.511C657.705 601.581 657.564 601.635 657.42 601.672C657.803 601.737 658.182 601.823 658.557 601.932" fill="#FAF7EF"/>
</g>
<defs>
<clipPath id="clip0_210_2">
<rect width="1575.06" height="621" fill="white"/>
</clipPath>
</defs>
</svg>
