<svg width="1576" height="1300" viewBox="0 0 1576 1300" fill="none" xmlns="http://www.w3.org/2000/svg">
<path d="M1575 0H67V1200H1575V0Z" fill="#F9F6ED"/>
<path d="M132.736 498.318C132.736 502.139 131.603 505.874 129.48 509.05C127.358 512.227 124.341 514.703 120.811 516.165C117.281 517.628 113.397 518.01 109.65 517.265C105.902 516.52 102.46 514.68 99.7585 511.978C97.0567 509.277 95.2168 505.835 94.4713 502.087C93.7258 498.34 94.1082 494.456 95.5702 490.926C97.0322 487.396 99.5081 484.379 102.685 482.256C105.861 480.133 109.596 479 113.417 479C118.541 479 123.454 481.035 127.077 484.658C130.7 488.281 132.736 493.194 132.736 498.318V498.318Z" stroke="#3D4550" stroke-width="1.598"/>
<path d="M128.124 498.449C128.124 501.422 127.243 504.329 125.591 506.801C123.94 509.273 121.592 511.2 118.845 512.338C116.099 513.476 113.076 513.774 110.16 513.194C107.244 512.615 104.565 511.183 102.462 509.081C100.36 506.979 98.9278 504.301 98.3473 501.385C97.7668 498.469 98.064 495.446 99.2013 492.699C100.339 489.952 102.265 487.604 104.737 485.952C107.209 484.3 110.115 483.418 113.088 483.417C115.062 483.417 117.017 483.805 118.841 484.561C120.666 485.316 122.323 486.423 123.719 487.819C125.115 489.215 126.223 490.872 126.979 492.696C127.735 494.52 128.124 496.475 128.124 498.449" fill="#3D4550"/>
<path d="M113.088 513.483C121.391 513.483 128.121 506.752 128.121 498.45C128.121 490.147 121.391 483.417 113.088 483.417C104.786 483.417 98.0551 490.147 98.0551 498.45C98.0551 506.752 104.786 513.483 113.088 513.483Z" stroke="#3D4550" stroke-width="1.244"/>
<path d="M103.33 509.856H12.077C9.1392 509.856 6.32172 508.689 4.24438 506.612C2.16704 504.534 1 501.717 1 498.779C1 495.841 2.16704 493.024 4.24438 490.947C6.32172 488.869 9.1392 487.702 12.077 487.702H103.33C106.268 487.702 109.085 488.869 111.163 490.947C113.24 493.024 114.407 495.841 114.407 498.779C114.407 501.717 113.24 504.534 111.163 506.612C109.085 508.689 106.268 509.856 103.33 509.856" fill="white"/>
<path d="M103.33 509.856H12.077C9.1392 509.856 6.32172 508.689 4.24438 506.612C2.16704 504.534 1 501.717 1 498.779C1 495.841 2.16704 493.024 4.24438 490.947C6.32172 488.869 9.1392 487.702 12.077 487.702H103.33C106.268 487.702 109.085 488.869 111.163 490.947C113.24 493.024 114.407 495.841 114.407 498.779C114.407 501.717 113.24 504.534 111.163 506.612C109.085 508.689 106.268 509.856 103.33 509.856V509.856Z" stroke="#3D4550" stroke-width="1.152"/>
<path d="M133.746 701.856C133.746 705.677 132.613 709.412 130.49 712.589C128.368 715.766 125.351 718.242 121.821 719.704C118.291 721.167 114.407 721.549 110.659 720.804C106.912 720.059 103.469 718.219 100.768 715.518C98.0656 712.816 96.2254 709.374 95.4796 705.627C94.7338 701.88 95.116 697.995 96.5778 694.465C98.0395 690.935 100.515 687.918 103.692 685.794C106.868 683.671 110.603 682.538 114.424 682.537C116.961 682.537 119.474 683.036 121.818 684.007C124.162 684.978 126.292 686.4 128.087 688.194C129.881 689.988 131.304 692.118 132.275 694.462C133.246 696.806 133.746 699.319 133.746 701.856V701.856Z" stroke="#3D4550" stroke-width="1.598"/>
<path d="M129.13 701.988C129.13 704.961 128.248 707.868 126.596 710.34C124.945 712.812 122.597 714.739 119.85 715.877C117.103 717.015 114.08 717.312 111.164 716.732C108.248 716.152 105.569 714.72 103.467 712.618C101.365 710.516 99.9329 707.837 99.3528 704.921C98.7728 702.005 99.0705 698.982 100.208 696.235C101.346 693.488 103.273 691.14 105.745 689.489C108.217 687.837 111.124 686.955 114.097 686.955C118.084 686.955 121.908 688.539 124.727 691.358C127.546 694.177 129.13 698.001 129.13 701.988" fill="#3D4550"/>
<path d="M114.097 717.021C122.399 717.021 129.13 710.291 129.13 701.988C129.13 693.686 122.399 686.955 114.097 686.955C105.794 686.955 99.064 693.686 99.064 701.988C99.064 710.291 105.794 717.021 114.097 717.021Z" stroke="#3D4550" stroke-width="1.244"/>
<path d="M104.339 713.4H13.086C10.1482 713.4 7.33075 712.233 5.25341 710.156C3.17607 708.078 2.00903 705.261 2.00903 702.323C2.00903 699.385 3.17607 696.568 5.25341 694.49C7.33075 692.413 10.1482 691.246 13.086 691.246H104.339C107.277 691.246 110.094 692.413 112.172 694.49C114.249 696.568 115.416 699.385 115.416 702.323C115.416 705.261 114.249 708.078 112.172 710.156C110.094 712.233 107.277 713.4 104.339 713.4" fill="white"/>
<path d="M104.339 713.4H13.086C10.1482 713.4 7.33075 712.233 5.25341 710.156C3.17607 708.078 2.00903 705.261 2.00903 702.323C2.00903 699.385 3.17607 696.568 5.25341 694.49C7.33075 692.413 10.1482 691.246 13.086 691.246H104.339C107.277 691.246 110.094 692.413 112.172 694.49C114.249 696.568 115.416 699.385 115.416 702.323C115.416 705.261 114.249 708.078 112.172 710.156C110.094 712.233 107.277 713.4 104.339 713.4V713.4Z" stroke="#3D4550" stroke-width="1.152"/>
<path d="M119.503 1205.29C119.452 1204.56 119.248 1203.85 118.908 1203.23C118.527 1203.82 118.637 1204.5 119.503 1205.29Z" fill="#FAF7EF"/>
<path d="M823.013 1167.01L820.726 1165.15C820.959 1165.63 821.286 1166.05 821.682 1166.37C822.078 1166.7 822.533 1166.91 823.013 1167.01" fill="#FAF7EF"/>
<path d="M953.912 1160.69C954.322 1160.71 954.689 1160.71 955.076 1160.72C954.69 1160.7 954.325 1160.69 953.912 1160.69Z" fill="#FAF7EF"/>
<path d="M957.792 1160.79C956.85 1160.74 955.977 1160.75 955.075 1160.72C955.973 1160.88 956.888 1160.91 957.792 1160.79" fill="#FAF7EF"/>
<path d="M514.031 1294.03C519.291 1294.07 522.009 1293.61 523.438 1292.85C520.217 1293.17 516.915 1293.4 513.79 1293.83L514.031 1294.03Z" fill="#FAF7EF"/>
<path d="M637.319 1264.73C637.154 1264.85 636.966 1264.99 636.82 1265.1C637.085 1265.08 637.293 1264.97 637.568 1264.94L637.319 1264.73Z" fill="#FAF7EF"/>
<path d="M504.065 1297.34C503.315 1297.85 502.65 1298.5 502.102 1299.27C504.11 1299.27 504.353 1298.44 504.065 1297.34Z" fill="#FAF7EF"/>
<path d="M1570.82 1220.23C1570.08 1220.54 1569.33 1220.81 1568.57 1221.04C1569.35 1220.91 1570.11 1220.64 1570.82 1220.23Z" fill="#FAF7EF"/>
<path d="M630.151 1258.53L637.319 1264.73C638.467 1263.84 639.634 1262.93 641.159 1261.87C643.084 1257.37 634.073 1257.3 630.15 1258.52" fill="#FAF7EF"/>
<path d="M504.065 1297.34C506.477 1295.4 509.865 1294.41 513.79 1293.83L509.964 1290.39C499.371 1289.89 503.412 1294.59 504.064 1297.34" fill="#FAF7EF"/>
<path d="M71.168 1214.29C72.0867 1215.11 72.011 1216.06 71.5046 1217.05C70.8308 1218.19 70.0435 1219.2 69.1658 1220.04C67.337 1222 66.0291 1223.7 70.1421 1224.27C72.428 1221.78 74.7562 1219.3 77.1266 1216.81C76.014 1220.25 80.197 1224.3 81.0254 1227.37C82.4097 1223.93 80.0927 1221.13 78.4023 1218.01C76.7265 1214.89 75.6614 1211.45 79.9624 1206.7C80.9519 1204.61 83.1267 1203.7 85.4998 1203.52C87.7212 1203.41 89.944 1203.68 92.1162 1204.33C84.5015 1202.91 92.329 1197.93 95.5195 1195.47C100.211 1198.28 107.906 1197.25 109.896 1201.73C110.691 1200.17 114.419 1199.34 116.914 1200.21L117.022 1202.51C122.833 1200.77 115.225 1200.19 116.817 1197.87C118.911 1197.58 121.507 1198.74 124.4 1199.97C127.451 1201.45 130.641 1202.33 133.872 1202.57C127.1 1202.45 121.309 1205.45 116.414 1207.75C122.348 1210.07 121.579 1212.97 119.027 1216.02C117.749 1217.55 116.023 1219.12 114.436 1220.66C113.028 1221.93 111.771 1223.48 110.712 1225.28C111.897 1224.96 112.997 1224.61 114.027 1224.25C115.067 1223.9 116.039 1223.54 116.961 1223.16C118.807 1222.39 120.452 1221.55 122.055 1220.67C125.268 1218.94 128.268 1216.97 132.401 1215.32C137.004 1218.01 136.389 1222.21 134.385 1225.82C132.38 1229.43 128.979 1232.42 127.784 1232.72C132.303 1231.14 136.729 1229.09 141.024 1226.59C145.2 1224.23 148.991 1222.1 151.489 1220.99C143.944 1229.46 144.734 1232.37 138.289 1239.24C139.467 1240.42 140.835 1241.19 142.276 1241.48C143.307 1241.64 144.348 1241.37 145.263 1240.7C147.032 1239.45 148.485 1237.1 150.34 1235.52C148.311 1236.2 145.275 1236.55 144.768 1234.72C152.893 1236.14 153.115 1222.2 158.247 1216.56C164.041 1220.83 175.703 1223.75 173.702 1231.78L174.882 1223.12C182.557 1221.81 178.042 1227.96 178.756 1230.91C182.399 1225.3 180.214 1216.42 193.132 1215.46C188.93 1229.16 204.151 1217.97 201.648 1230.61C207.596 1230.42 211.563 1223.77 217.44 1225.96C222.898 1233.97 205.09 1241.91 201.911 1239.39C193.479 1238.79 204.009 1233.7 200.625 1233.46L191.964 1236.36C196 1239.55 204.191 1243.62 202.111 1249.28C210.736 1247.59 196.585 1242.48 206.124 1240.26L210.98 1244.13C220.562 1241.96 210.81 1234.19 222.914 1233.97C213.84 1239.07 235.802 1235.63 233.333 1244.76C235.98 1233.28 255.02 1246.05 259.398 1237.12L253.509 1233.66L253.928 1238.96C246.964 1238.35 240.605 1240.68 233.901 1237.8C240.279 1234.26 233.817 1227.88 241.041 1224.98C254.658 1219.73 243.127 1231.58 244.875 1231.74L255.846 1226.86L250.154 1221.11C254.681 1220.58 259.23 1220.52 263.764 1220.92C268.719 1221.29 273.965 1222.06 279.236 1223.12C293.645 1232.02 276.049 1229.26 286.071 1237.19C291.636 1235.35 290.957 1232.35 298.001 1234.15C294.747 1230.35 290.783 1234.68 288.159 1233.86C286.104 1226.09 301.752 1232.15 302.334 1225.19C304.763 1228.32 303.646 1231.15 300.731 1233.83C313.451 1232.6 324.994 1235.29 328.018 1244.83L334.913 1236.6C355.436 1242.25 319.05 1242.98 335.822 1250.69C343.023 1252.39 350.321 1252.94 354.126 1249.71L347.82 1248.67C353.493 1244.41 353.699 1240.97 361.96 1238.63C367.31 1240.12 363.418 1245.7 370.849 1241.52C386.845 1248.34 373.894 1255.7 369.864 1263.58C381.521 1269.58 360.916 1279.85 369.896 1276.99L367.944 1274.76L382.619 1264.39C372.127 1253.24 376.441 1272.99 373.213 1262.61L366.178 1261.08C369.222 1256.32 385.191 1261.62 387.546 1256.09C387.244 1259.05 384.439 1265.68 376.917 1265.24L379.705 1276.7C383.886 1278.22 387.843 1271.24 389.49 1276.43C394.925 1284.23 378.328 1286.67 393.854 1291.21C410.604 1295.23 411.434 1281.59 422.729 1284.5C421.871 1281.92 418.967 1281.91 415.417 1281.21C419.673 1277.86 413.504 1274.19 420.181 1271.97C422.754 1279.69 434.982 1280.44 444.273 1280.98C441.343 1284.81 446.816 1289.28 443.611 1291.36C448.455 1290.78 452.963 1289.9 455.376 1286.71C437.168 1279.61 474.392 1282 460.609 1273.36C467.909 1274.16 472.074 1276.33 475.502 1278.84C478.93 1281.34 481.623 1284.21 485.972 1286.49C485.136 1288.71 468.512 1289.89 481.23 1294.01C497.075 1287.31 479.738 1282.97 492.363 1274.51L483.284 1271.07C483.145 1261.48 499.75 1269.88 502.378 1267.97C507.916 1270.79 494.053 1270.05 499.034 1276.91C507.474 1279.63 512.418 1273.99 517.581 1277.88C511.581 1283.98 515.26 1281.66 508.555 1287.01C528.932 1288.21 506.773 1294.48 521.971 1299.5C527.038 1298.58 524.409 1292.76 532.244 1294.69C528.222 1287.46 529.028 1285.2 516.21 1284.21C521.648 1274.41 532.871 1287.65 542.383 1282.13C535.281 1280.91 540.318 1279.98 532.418 1281.01C532.127 1272.53 529.4 1271.05 537.143 1263.62C528.668 1265.38 524.22 1274.24 512.545 1271.02C510.126 1262.26 527.759 1265.32 528.927 1254.2C535.32 1248.94 549.169 1254.51 555.367 1259.02C567.404 1252.75 581.472 1253.29 590.94 1243.74C598.978 1247.44 620.189 1238.79 635.54 1242.36C637.621 1247.41 654.461 1246.32 644.589 1251.41C646.035 1249.83 659.007 1249.36 655.866 1244.74C654.453 1246.32 653.062 1244.94 650.263 1245.12L653.08 1239.01C660.439 1241.85 669.21 1234.27 676.2 1238.23C678.313 1243.28 662.552 1240.99 667.098 1246.98C674.49 1238.03 702.743 1234.83 711.538 1239.02C717.497 1240.42 717.92 1248.16 720.403 1249.07L730.541 1248.65C731.642 1251.17 731.694 1254.14 733.471 1257.32C738.41 1259.17 741.891 1256.66 745.029 1255.32C758.095 1260.58 750.863 1266.72 743.894 1271.71L736.489 1268.95C730.906 1272.34 723.117 1270.71 727.474 1277.79C731.305 1277.12 731.273 1274.18 732.674 1272.59L736.946 1276.7C741.485 1273.74 753.784 1272.42 752.632 1266.94C761.483 1271.02 771.916 1266.44 779.758 1270.99C774.388 1267.36 781.37 1265.29 779.863 1260.97L770.357 1259.17C778.04 1257.76 789.159 1253.92 796.266 1257.72C795.308 1261.13 794.992 1262.27 798.575 1265.67C793.547 1260.91 812.067 1259.66 801.052 1253.57C796.78 1255.52 792.249 1256.18 787.775 1255.49C784.467 1247.97 792.843 1247.28 797.607 1243.13C803.505 1241.5 814.987 1239.35 822.921 1236.8C827.864 1238.59 829.187 1247.01 837.769 1242.12C827.059 1234.96 848.183 1230.4 851.073 1223.09C859.215 1226.39 864.423 1217.01 870.914 1223.07C867.538 1225.64 854.968 1225.31 851.685 1230.82C851.158 1236.06 854.283 1244.69 841.783 1247.33C856.712 1250.12 850.64 1242.91 857.552 1240.83L852.422 1241.5C854.779 1239.44 850.44 1235.39 854.982 1235.33C872.495 1237.44 875.513 1243.03 887.31 1249.72C884.702 1245.89 890.152 1242.38 892.946 1242.12C904.312 1246.96 892.698 1253.29 899.635 1261.16C903.651 1256.33 911.408 1257.8 908.806 1253.96C913.323 1253.88 910.966 1255.97 914.184 1257.51C917.134 1253.13 920.533 1250.58 926.802 1250.71C926.219 1253 925.319 1256.42 919.322 1255.16C926.044 1257.1 928.468 1265.03 925.519 1269.41L914.561 1266.4C909.534 1271.73 924.788 1268.74 924.334 1273.97C919.481 1275.2 915.848 1271.83 912.749 1273.26C915.797 1278.91 925.344 1273.52 930.916 1272.96C939.709 1273.96 936.453 1279.47 936.578 1282.44C951.581 1273.52 919.347 1272.25 933.319 1263.81C938.628 1257.34 951.936 1258.25 961.298 1256.94C953.288 1249.57 962.232 1246.44 971.881 1243.98C959.311 1243.77 968.697 1235.39 953.918 1240.21L953.649 1234.3C959.937 1234.41 967.369 1237 973.653 1237.13C972.341 1238.73 973.793 1240.06 971.731 1241.04L990.456 1238.41L988.541 1242.31C1000.07 1242.99 1014.24 1247.5 1021.12 1245.32C1015.56 1245.88 1010.76 1240.06 1016.59 1238.34C1019.97 1235.78 1026.1 1232.92 1031.35 1233.49C1034.11 1240.27 1053.97 1240.11 1041.4 1246.97C1057.61 1243.47 1051.63 1242.21 1067.12 1238.05L1056.75 1239.83C1055.45 1234.4 1064.08 1225.33 1054.15 1221.89C1065.84 1218.46 1058.41 1208.81 1074.06 1207.61C1080.4 1210.91 1072.14 1218.59 1063.36 1219.96C1067.78 1220.4 1071.79 1223.39 1076.37 1219.64C1079.7 1224.12 1068.02 1227.54 1068.46 1229.35C1076.5 1229.66 1068.32 1226.4 1075.9 1224.89C1089.21 1218.71 1084.35 1234.06 1097.07 1230.18C1094.29 1230.46 1089.34 1228.73 1092.69 1226.16C1109.78 1226.29 1102.21 1220.74 1114.63 1218C1121.61 1225.86 1118.5 1234.35 1129.71 1236.19L1123.46 1236.07C1127.54 1239.84 1132.36 1241.82 1137.28 1241.74C1160.64 1235 1180.01 1223.06 1204.2 1217.09L1195.56 1219.01C1192.67 1216.3 1202.79 1215.72 1202.68 1212.75L1208.03 1216.34C1209.57 1210.62 1195.97 1210.8 1199.25 1205.29C1200.34 1206.02 1201.6 1206.16 1202.76 1205.7L1197.79 1203.95C1209.05 1205.85 1218.12 1195.7 1226.49 1204.98C1204.5 1205.88 1222.88 1221.63 1201.37 1224.39C1212.77 1222.19 1203.31 1230.5 1204.45 1233.01C1210.42 1234.3 1207.44 1228.64 1214.14 1230.59C1213.92 1234.71 1199.43 1238.32 1205.82 1241.41C1206.62 1235.03 1212.58 1236.32 1215.55 1231.95C1220.49 1233.72 1215.37 1236.05 1217.52 1238.09C1220.28 1237.83 1221.94 1235.07 1224.4 1235.96L1222.46 1239.87C1236.2 1245.66 1226.77 1233.9 1242.47 1235.79C1243.01 1230.56 1238.17 1231.73 1231.6 1232.71C1228.44 1221.13 1252.1 1220.45 1251.04 1207.95C1266.01 1206.2 1247 1212.74 1259.65 1216.08C1266.5 1223.99 1250.13 1224.34 1246.81 1229.85L1259.86 1234.97C1255.27 1245.01 1247.19 1241.68 1244.69 1250.81C1254.43 1251.41 1253.32 1248.89 1263.29 1245.42C1247.42 1237.53 1270.4 1239.24 1261.44 1229.28C1268.81 1231.97 1266.43 1234.03 1277.22 1234.2C1270.32 1236.3 1276.75 1242.41 1267.71 1242.45C1282.28 1241.92 1278.4 1239.65 1292.97 1239.14C1297.7 1232.06 1278.47 1229.64 1296.15 1224.78C1299.95 1224.79 1299.13 1227.47 1296.91 1227.41C1309.37 1230.46 1294.57 1218.49 1302.55 1215C1308.07 1214.23 1309.96 1217.08 1307.64 1218.73C1315.99 1214.94 1311.58 1210.1 1317.11 1208.61L1314.64 1207.7C1317.05 1205.66 1310.68 1195.9 1322.59 1195.67C1331.27 1195.86 1322.46 1223.11 1322.59 1225.5C1329.4 1223.17 1340.71 1201.6 1345.23 1204.21C1344.82 1202.8 1340.89 1220.99 1342.93 1221C1354.48 1219 1357.71 1233.81 1361.92 1234.97C1378.08 1238.93 1358.19 1214.88 1376.42 1215L1353.64 1192.81C1354.66 1189.39 1355.32 1184.16 1350.74 1184.13C1350.11 1189.36 1342.43 1193.65 1335.38 1192.67C1333.54 1186.53 1354.64 1186.42 1342.93 1179.52C1347.17 1180.68 1353.16 1179.14 1358.43 1179.85C1352.87 1186.19 1375.34 1181.55 1365.89 1188.54C1377.49 1188.02 1384.1 1189.03 1390.48 1189.55C1398.25 1190.28 1406.05 1189.82 1413.75 1188.2C1411.61 1192.04 1397.57 1201.9 1386.69 1198.56L1385.95 1194.91C1371.94 1198.83 1398.73 1219.4 1395.92 1225.5C1413.46 1216.1 1429.52 1227.15 1450.53 1224.39C1447.08 1220.9 1453 1203.58 1454.11 1200.21C1445.66 1200.69 1447.05 1202.12 1441.14 1197.65C1442.59 1193.12 1447.5 1195.04 1450.36 1191.91C1452.89 1186.96 1444.02 1191.57 1441.22 1188.76C1449.38 1186.43 1448.67 1185.72 1453.68 1181.74C1457.85 1185.95 1451.01 1212.44 1454.11 1217.09C1473.8 1219.03 1478.35 1185.62 1494.19 1188.17C1485.41 1186.73 1497.95 1193.51 1488.45 1191.4L1493.74 1192.25C1479.43 1198.87 1458.66 1218.48 1460.21 1230.59C1471.44 1230 1477.26 1202.69 1490.96 1203.09L1478.56 1221C1488.39 1222.04 1493.57 1219.06 1496.07 1217.09C1507.46 1213.63 1505.09 1231.11 1513.42 1223L1503.32 1202.18C1512.26 1197.74 1516.73 1223.88 1519.42 1216C1527.28 1213.45 1526.69 1224.58 1537.92 1224.78C1549.16 1225.06 1556.36 1191.67 1567.47 1189.46C1561.68 1184.84 1557.57 1221.86 1549.42 1221C1554.17 1210.5 1559.69 1174.93 1556.58 1165.43L1546.61 1164.27L1547.4 1154.29C1550.05 1154.31 1552.68 1154.94 1555.18 1156.15C1557.18 1149.99 1570.24 1159.09 1571.52 1153.16L1563.92 1218.73C1560.23 1213.31 1569.23 1149.17 1575.42 1147.88C1570.37 1141.02 1556.71 1146.96 1544.51 1146.61C1545.04 1150.29 1532.24 1156.98 1544 1158.46C1543.47 1162.54 1536.23 1164.23 1531.59 1164.04C1534.2 1162.1 1523.44 1152.57 1534.65 1150.25C1523.74 1154.39 1529.99 1150.08 1518.1 1151.68C1519.97 1149.01 1497.7 1150.67 1499.73 1142.09C1495.72 1145.58 1498.92 1154.84 1485.38 1154.59C1486.8 1157.67 1491.25 1159.6 1494.02 1161.51C1496.8 1163.45 1497.89 1165.34 1492.61 1168.28L1499.47 1164.66C1508.63 1167.96 1496.43 1170.71 1508.45 1173.88C1504.9 1173.29 1497.36 1176.21 1496.07 1171.81C1498.21 1184.61 1477.49 1177.19 1476.23 1186.49C1473.82 1182.56 1470.3 1182 1463.54 1182.71C1464.69 1179.31 1461.21 1175.81 1466.57 1173.68C1470.79 1174.93 1474.02 1173.67 1478.56 1176.77C1476.82 1164.04 1461.48 1171.92 1450.53 1168.78C1452.02 1169.85 1452.39 1171.08 1449.2 1172.77C1442.53 1170.58 1427.65 1167.77 1432.3 1161.94L1415.09 1162.04L1397.9 1162.27C1397.89 1159.3 1402.86 1161.19 1405 1160.3L1385.86 1159.38C1381.57 1155.22 1392.56 1155.59 1394.68 1151.75L1380.83 1151.57L1382.94 1147.73C1379.4 1150.14 1363.46 1150.96 1359.84 1144.55C1352.22 1145.31 1348.37 1148.92 1343.89 1151.57C1339.41 1154.22 1332.71 1198.74 1322.59 1195.67C1323.55 1189.3 1335.81 1150.76 1340.72 1146.72C1336.78 1144.38 1324.47 1148.73 1322.59 1142.58C1307.78 1145.98 1309.07 1157.37 1301.8 1163.51C1289.82 1163.75 1300.62 1158.05 1300.2 1156.22C1296.66 1155.76 1290.61 1167.43 1287.6 1158.77C1281.71 1163.35 1278.34 1168.83 1286.84 1171.07C1280.5 1170.89 1271.44 1173.87 1269.77 1176.64C1275.11 1167.26 1262.62 1172.79 1262.06 1165.05C1252.49 1163.27 1231.3 1160.77 1222.18 1170.85L1224.97 1160.58L1213.76 1161.61C1205.47 1155.32 1223.71 1155.09 1229.34 1154.61C1214.14 1153.34 1204 1153.98 1190.3 1154.15C1194.26 1156.37 1191.87 1158.46 1193.74 1161.62C1189 1165.8 1182.56 1162.67 1177.68 1163.89C1176.53 1161.4 1177.14 1159.1 1180.96 1158.37L1171.56 1159.64C1172.37 1153.25 1167.79 1153.33 1177.1 1149.09L1168.41 1151.04C1158.85 1149.38 1168.88 1145.8 1171.25 1143.7L1156.13 1142.59C1150.67 1146.09 1159.17 1148.24 1148.72 1149.98C1134.79 1144.28 1117.03 1146.44 1101.19 1144.66L1112.32 1150.62C1102.78 1148.97 1104.66 1159.18 1101.71 1163.56C1092.92 1162.58 1081.08 1163.04 1073.63 1160.46C1082.12 1155.51 1078.64 1148.07 1070.74 1143.64C1052.89 1142.84 1057.26 1153.93 1047.32 1157.53C1055.08 1144.86 1034.9 1153.23 1036.66 1146.36C1014.03 1146.81 991.278 1151.36 967.99 1151.1C968.439 1152.93 975.115 1154.85 971.022 1156.74C962.447 1158.73 958.39 1153.56 957.228 1151.07C946.153 1152.2 939.777 1156.17 936.108 1159.88C940.917 1158.67 941.342 1160.47 940.437 1163.92C929.391 1165.01 932.495 1156.53 921.991 1162.39C919.276 1155.61 933.648 1159.02 932.67 1152.41C922.933 1151.9 916.809 1154.74 909.676 1158.06C908.098 1153.75 916.211 1157.04 910.865 1153.47C895.783 1156.43 877.596 1160.81 866.254 1163L863.283 1157.34C856.044 1157.65 851.248 1158.84 847.885 1161.4C844.005 1159.16 847.08 1157.74 850.846 1157.04C841.163 1156.46 829.206 1160.93 823.703 1161.4C824.638 1157.98 829.21 1160.91 830.856 1158.17C818.764 1156.65 803.201 1167.71 795.397 1160.25C796.408 1159.45 797.567 1159.09 798.728 1159.19C790.046 1159.05 781.364 1159.51 772.717 1160.59C764.104 1161.49 755.268 1162.56 745.531 1162.62C727.913 1155.52 739.487 1171.25 721.909 1170.07C722.346 1154.89 698.049 1168.53 690.743 1165.52L693.002 1167.79C688.54 1170.71 683.375 1170.72 678.599 1169.45C674.385 1168.26 670.325 1166.22 666.551 1163.38C658.955 1162.56 651.331 1162.31 643.715 1162.64C635.524 1163.04 627.305 1164.22 620.575 1167.03L623.372 1163.92C612.339 1167.5 605.924 1162.41 594.87 1165.91C595.248 1164.78 599.401 1163.1 595.315 1161.82C588.884 1160.9 582.423 1160.2 575.934 1159.68C569.445 1159.16 562.934 1158.84 556.428 1158.53C549.914 1158.25 543.382 1158.1 536.836 1158.02L517.195 1157.86C491.006 1157.73 464.766 1157.71 439.272 1154.49C433.179 1153.7 426.995 1152.9 420.722 1152.08C417.589 1151.67 414.429 1151.3 411.265 1150.86C408.102 1150.42 404.921 1149.98 401.72 1149.54C388.931 1147.76 375.829 1146.12 362.639 1144.17C349.404 1142.33 335.988 1140.46 322.489 1138.58C308.852 1136.65 295.076 1134.76 281.018 1132.95C253.016 1129.35 224.198 1126.25 195.547 1124.66C167.527 1122.92 139.461 1123.14 111.456 1125.31C111.456 1125.31 108.084 1129.17 103.325 1135.39C97.4667 1143.05 91.9756 1151.22 86.8862 1159.86C84.1105 1164.58 81.5319 1169.51 79.163 1174.64C76.9544 1179.36 75.0213 1184.32 73.3816 1189.47C70.3863 1199.08 69.3217 1207.89 71.1586 1214.3" fill="#FAF7EF"/>
<path d="M1557.8 1228.91C1557.24 1228.8 1556.73 1228.7 1556.08 1228.56C1556.64 1228.78 1557.22 1228.9 1557.8 1228.91Z" fill="#FAF7EF"/>
<path d="M1270.64 1221.66C1272 1221.7 1273.36 1221.63 1274.71 1221.45C1273.35 1221.29 1271.98 1221.36 1270.64 1221.66Z" fill="#FAF7EF"/>
<path d="M1025.22 1242.32L1030.37 1241.76C1028.64 1241.75 1026.92 1241.93 1025.22 1242.32" fill="#FAF7EF"/>
<path d="M648.854 1262.37C650.395 1266.76 639.272 1274.12 647.718 1278.3C655.466 1278.81 660.269 1278.01 663.608 1276.58C666.303 1275.36 668.732 1273.5 670.729 1271.11C674.535 1267.09 678.429 1263.16 694.244 1264.39L678.59 1258.71C678.729 1266.46 667.014 1270.28 654.537 1270.33L651.331 1264.52C653.616 1263 656.013 1261.71 658.494 1260.67C653.901 1259.75 654.327 1264.25 648.854 1262.37" fill="#FAF7EF"/>
<path d="M659.629 1260.93C659.411 1260.79 659.125 1260.66 658.911 1260.5C658.776 1260.57 658.635 1260.63 658.491 1260.67C658.874 1260.73 659.254 1260.82 659.629 1260.93" fill="#FAF7EF"/>
</svg>
