<svg width="1947" height="947" viewBox="0 0 1947 947" fill="none" xmlns="http://www.w3.org/2000/svg">
<path d="M1946.39 121.343H0.393921V858.343H1946.39V121.343Z" fill="#F9F6ED"/>
<path d="M317.217 96.3242C317.526 96.402 317.8 96.5888 317.996 96.854C318.191 97.1192 318.296 97.4472 318.294 97.7842C319.003 97.5912 319.681 97.4842 320.408 97.2412L317.217 96.3242Z" fill="#FAF7EF"/>
<path d="M116.546 144.859C116.428 144.859 116.309 144.869 116.192 144.888C116.59 145.415 116.858 146.038 116.971 146.703C117.442 145.556 117.442 145.556 116.546 144.859Z" fill="#FAF7EF"/>
<path d="M167.691 133.352C168.537 133.899 169.329 134.535 170.053 135.252C170.068 134.552 169.067 133.933 167.691 133.352Z" fill="#FAF7EF"/>
<path d="M290.506 92.3613C292.649 93.2113 294.816 94.2613 297.053 95.2703C296.417 93.5333 293.957 91.7593 290.506 92.3613Z" fill="#FAF7EF"/>
<path d="M161.177 130.704C162.869 131.635 165.648 132.464 167.691 133.352C165.69 132.053 163.482 131.155 161.177 130.704Z" fill="#FAF7EF"/>
<path d="M21.8501 141.339C23.2203 142.125 24.6489 142.79 26.1216 143.327C26.2767 142.912 26.5757 142.647 26.6114 142.113L21.8501 141.339Z" fill="#FAF7EF"/>
<path d="M1932.25 68.1711C1928.49 69.0101 1927.86 70.4131 1928.45 72.1101C1929.4 70.4922 1930.7 69.1412 1932.25 68.1711Z" fill="#FAF7EF"/>
<path d="M1836.72 65.1143C1837.52 64.8229 1838.29 64.4386 1839.01 63.9683C1837.43 64.3683 1836.32 64.8813 1836.72 65.1143Z" fill="#FAF7EF"/>
<path d="M1890.56 95.6882C1890.61 96.4196 1890.83 97.1267 1891.19 97.7512C1891.6 97.1652 1891.48 96.4762 1890.56 95.6882Z" fill="#FAF7EF"/>
<path d="M1141.64 133.971L1144.07 135.833C1143.82 135.348 1143.48 134.929 1143.05 134.607C1142.63 134.285 1142.15 134.067 1141.64 133.971" fill="#FAF7EF"/>
<path d="M1002.29 140.29C1001.85 140.27 1001.46 140.266 1001.05 140.261C1001.46 140.281 1001.85 140.285 1002.29 140.29Z" fill="#FAF7EF"/>
<path d="M998.157 140.191C999.16 140.242 1000.09 140.234 1001.05 140.262C1000.09 140.099 999.12 140.075 998.157 140.191" fill="#FAF7EF"/>
<path d="M18.5414 130.871C14.6348 133.922 5.81914 134.499 5.07166 138.581L21.8482 141.341C16.1796 138.023 13.6842 133.427 18.5405 130.871" fill="#FAF7EF"/>
<path d="M1470.56 6.9532C1464.96 6.9092 1462.07 7.3662 1460.55 8.1322C1463.98 7.8122 1467.49 7.58021 1470.82 7.15221L1470.56 6.9532Z" fill="#FAF7EF"/>
<path d="M1339.32 36.2512C1339.49 36.1262 1339.69 35.9862 1339.85 35.8752C1339.57 35.9012 1339.34 36.0132 1339.05 36.0442L1339.32 36.2512Z" fill="#FAF7EF"/>
<path d="M1481.17 3.64111C1481.97 3.13306 1482.68 2.47902 1483.26 1.70912C1481.13 1.70912 1480.87 2.54411 1481.17 3.64111Z" fill="#FAF7EF"/>
<path d="M345.558 80.7502C346.344 80.4373 347.144 80.1683 347.956 79.9442C347.121 80.0717 346.311 80.344 345.558 80.7502Z" fill="#FAF7EF"/>
<path d="M1346.95 42.4542L1339.32 36.2542C1338.1 37.1392 1336.85 38.0472 1335.23 39.1142C1333.18 43.6142 1342.77 43.6812 1346.95 42.4572" fill="#FAF7EF"/>
<path d="M1481.17 3.64117C1478.61 5.57717 1475 6.56617 1470.82 7.15217L1474.89 10.5922C1486.17 11.0922 1481.87 6.38717 1481.17 3.64117" fill="#FAF7EF"/>
<path d="M1941.17 85.1862C1939.98 84.3742 1940.08 83.4222 1940.73 82.4322C1941.6 81.2891 1942.62 80.2813 1943.75 79.4382C1946.11 77.4802 1947.8 75.7792 1942.49 75.2132C1939.54 77.6965 1936.54 80.1828 1933.48 82.6722C1934.92 79.2272 1929.52 75.1832 1928.45 72.1112C1926.66 75.5512 1929.65 78.3462 1931.83 81.4672C1934 84.5892 1935.37 88.0352 1929.82 92.7822C1928.54 94.8712 1925.74 95.7822 1922.67 95.9612C1919.81 96.0727 1916.94 95.8016 1914.14 95.1542C1923.96 96.5662 1913.86 101.548 1909.74 104.011C1903.69 101.196 1893.76 102.228 1891.19 97.7502C1890.17 99.3142 1885.36 100.138 1882.14 99.2752L1882 96.9752C1874.5 98.7082 1884.31 99.2902 1882.26 101.614C1879.56 101.902 1876.21 100.741 1872.48 99.5072C1868.54 98.0263 1864.42 97.1508 1860.25 96.9072C1868.99 97.0272 1876.46 94.0352 1882.78 91.7332C1875.12 89.4132 1876.12 86.5132 1879.41 83.4572C1881.06 81.9302 1883.29 80.3652 1885.33 78.8162C1887.15 77.5536 1888.77 75.9973 1890.14 74.2032C1888.61 74.5222 1887.19 74.8662 1885.86 75.2312C1884.52 75.5762 1883.26 75.9412 1882.08 76.3252C1879.69 77.0932 1877.57 77.9332 1875.5 78.8102C1871.36 80.5392 1867.48 82.5102 1862.15 84.1592C1856.21 81.4682 1857 77.2662 1859.59 73.6592C1862.18 70.0522 1866.57 67.0592 1868.11 66.7592C1862.28 68.3404 1856.56 70.389 1851.02 72.8872C1845.63 75.2482 1840.74 77.3802 1837.52 78.4872C1847.26 70.0202 1846.24 67.1132 1854.55 60.2362C1853.03 59.0595 1851.27 58.2914 1849.41 57.9972C1848.08 57.8382 1846.73 58.1127 1845.55 58.7842C1843.27 60.0262 1841.39 62.3842 1839 63.9612C1841.62 63.2832 1845.54 62.9272 1846.19 64.7612C1835.71 63.3402 1835.42 77.2852 1828.8 82.9182C1821.32 78.6532 1806.27 75.7282 1808.85 67.7032L1807.33 76.3642C1797.43 77.6712 1803.25 71.5212 1802.33 68.5742C1797.63 74.1792 1800.45 83.0562 1783.78 84.0242C1789.2 70.3182 1769.56 81.5072 1772.79 68.8722C1765.11 69.0562 1760 75.7122 1752.41 73.5222C1745.37 65.5112 1768.35 57.5702 1772.45 60.0952C1783.33 60.6892 1769.74 65.7852 1774.11 66.0202L1785.29 63.1202C1780.08 59.9332 1769.51 55.8652 1772.19 50.2002C1761.06 51.8892 1779.32 57.0002 1767.02 59.2242L1760.75 55.3482C1748.38 57.5212 1760.97 65.2922 1745.35 65.5122C1757.06 60.4122 1728.72 63.8472 1731.9 54.7202C1728.49 66.1972 1703.92 53.4292 1698.27 62.3632L1705.87 65.8172L1705.33 60.5172C1714.31 61.1352 1722.52 58.7962 1731.17 61.6852C1722.94 65.2232 1731.28 71.6012 1721.96 74.4962C1704.38 79.7492 1719.26 67.8962 1717.01 67.7422L1702.85 72.6192L1710.2 78.3682C1704.35 78.8962 1698.48 78.96 1692.63 78.5592C1686.24 78.1882 1679.47 77.4232 1672.67 76.3592C1654.07 67.4592 1676.78 70.2202 1663.85 62.2892C1656.67 64.1292 1657.54 67.1342 1648.45 65.3352C1652.65 69.1352 1657.77 64.7962 1661.15 65.6232C1663.8 73.3942 1643.61 67.3302 1642.86 74.2932C1639.73 71.1612 1641.17 68.3292 1644.93 65.6542C1628.52 66.8762 1613.62 64.1902 1609.72 54.6542L1600.82 62.8822C1574.33 57.2332 1621.29 56.5022 1599.65 48.7952C1590.35 47.0862 1580.94 46.5402 1576.03 49.7672L1584.16 50.8142C1576.84 55.0692 1576.58 58.5142 1565.92 60.8482C1559.01 59.3582 1564.03 53.7772 1554.44 57.9622C1533.8 51.1402 1550.52 43.7852 1555.72 35.9012C1540.67 29.9012 1567.26 19.6312 1555.68 22.4952L1558.19 24.7242L1539.26 35.0942C1552.8 46.2422 1547.23 26.4942 1551.39 36.8702L1560.47 38.4022C1556.54 43.1652 1535.94 37.8632 1532.9 43.3882C1533.29 40.4322 1536.91 33.8022 1546.62 34.2452L1543.02 22.7822C1537.62 21.2562 1532.52 28.2432 1530.39 23.0512C1523.38 15.2512 1544.79 12.8062 1524.76 8.26816C1503.14 4.25016 1502.07 17.8862 1487.5 14.9852C1488.6 17.5652 1492.35 17.5662 1496.93 18.2722C1491.44 21.6162 1499.4 25.2902 1490.78 27.5142C1487.46 19.7922 1471.68 19.0452 1459.7 18.4992C1463.48 14.6712 1456.41 10.1992 1460.55 8.11816C1454.3 8.69716 1448.48 9.58116 1445.37 12.7662C1468.86 19.8662 1420.83 17.4792 1438.61 26.1192C1429.19 25.3192 1423.82 23.1482 1419.4 20.6432C1414.97 18.1382 1411.5 15.2722 1405.88 12.9912C1406.96 10.7682 1428.42 9.59116 1412 5.47316C1391.56 12.1732 1413.93 16.5072 1397.64 24.9732L1409.35 28.4152C1409.53 38.0042 1388.1 29.5962 1384.71 31.5152C1377.57 28.6942 1395.46 29.4342 1389.03 22.5702C1378.14 19.8492 1371.76 25.4862 1365.09 21.6032C1372.84 15.5032 1368.09 17.8192 1376.74 12.4722C1350.45 11.2672 1379.04 5.00016 1359.43 -0.0188446C1352.89 0.904155 1356.28 6.71817 1346.17 4.79317C1351.36 12.0242 1350.32 14.2792 1366.86 15.2752C1359.85 25.0752 1345.36 11.8282 1333.09 17.3552C1342.25 18.5742 1335.75 19.5042 1345.95 18.4692C1346.32 26.9492 1349.84 28.4262 1339.85 35.8562C1350.79 34.0972 1356.53 25.2392 1371.59 28.4562C1374.72 37.2172 1351.96 34.1562 1350.45 45.2832C1342.2 50.5422 1324.33 44.9662 1316.33 40.4562C1300.8 46.7292 1282.65 46.1912 1270.43 55.7442C1260.06 52.0442 1232.68 60.6952 1212.87 57.1202C1210.19 52.0692 1188.46 53.1612 1201.2 48.0752C1199.33 49.6472 1182.59 50.1222 1186.64 54.7372C1188.47 53.1622 1190.26 54.5372 1193.87 54.3622L1190.24 60.4712C1180.74 57.6342 1169.42 65.2102 1160.4 61.2462C1157.68 56.1992 1178.02 58.4952 1172.15 52.5012C1162.61 61.4522 1126.15 64.6502 1114.8 60.4592C1107.11 59.0592 1106.57 51.3162 1103.36 50.4082L1090.28 50.8282C1088.86 48.3132 1088.79 45.3442 1086.5 42.1562C1080.13 40.3142 1075.63 42.8162 1071.58 44.1612C1054.72 38.9022 1064.06 32.7612 1073.05 27.7682L1082.6 30.5332C1089.81 27.1432 1099.86 28.7712 1094.24 21.6922C1089.29 22.3592 1089.34 25.3002 1087.53 26.8922L1082.01 22.7822C1076.16 25.7382 1060.29 27.0632 1061.77 32.5372C1050.35 28.4642 1036.89 33.0422 1026.77 28.4872C1033.7 32.1162 1024.69 34.1872 1026.63 38.5082L1038.9 40.3082C1028.98 41.7212 1014.64 45.5632 1005.47 41.7622C1006.7 38.3472 1007.11 37.2072 1002.49 33.8102C1008.97 38.5722 985.075 39.8212 999.289 45.9102C1004.8 43.957 1010.65 43.3032 1016.42 43.9942C1020.69 51.5122 1009.88 52.2002 1003.73 56.3552C996.124 57.9802 981.307 60.1272 971.068 62.6812C964.69 60.8882 962.982 52.4752 951.907 57.3602C965.728 64.5192 938.468 69.0832 934.739 76.3932C924.233 73.0882 917.512 82.4662 909.136 76.4062C913.492 73.8372 929.713 74.1722 933.95 68.6632C934.63 63.4222 930.598 54.7932 946.727 52.1522C927.463 49.3632 935.299 56.5722 926.379 58.6522L932.998 57.9772C929.957 60.0432 935.556 64.0902 929.695 64.1482C907.096 62.0392 903.201 56.4482 887.977 49.7642C891.343 53.5912 884.31 57.1012 880.704 57.3642C866.037 52.5172 881.025 46.1952 872.072 38.3182C866.89 43.1552 856.881 41.6772 860.238 45.5182C854.409 45.6002 857.45 43.5092 853.297 41.9672C849.491 46.3462 845.104 48.8982 837.015 48.7672C837.768 46.4842 838.929 43.0622 846.668 44.3252C837.993 42.3762 834.865 34.4532 838.67 30.0732L852.811 33.0842C859.299 27.7532 839.614 30.7392 840.2 25.5062C846.463 24.2852 851.151 27.6492 855.15 26.2222C851.217 20.5722 838.897 25.9652 831.706 26.5222C820.359 25.5222 824.56 20.0082 824.399 17.0392C805.039 25.9592 846.635 27.2302 828.605 35.6732C821.754 42.1372 804.58 41.2312 792.5 42.5412C802.836 49.9152 791.294 53.0412 778.842 55.5042C795.063 55.7132 782.952 64.0892 802.024 59.2712L802.371 65.1842C794.256 65.0682 784.665 62.4842 776.557 62.3532C778.249 60.7532 776.375 59.4172 779.037 58.4452L754.873 61.0742L757.344 57.1742C742.462 56.4952 724.182 51.9842 715.304 54.1642C722.476 53.6052 728.672 59.4232 721.147 61.1422C716.791 63.7022 708.873 66.5602 702.1 65.9922C698.54 59.2132 672.907 59.3692 689.132 52.5122C668.217 56.0122 675.932 57.2752 655.942 61.4352L669.33 59.6512C671.001 65.0792 659.859 74.1512 672.672 77.5872C657.59 81.0232 667.182 90.6712 646.989 91.8662C638.803 88.5662 649.469 80.8892 660.8 79.5172C655.096 79.0762 649.917 76.0952 644.007 79.8402C639.708 75.3642 654.777 71.9402 654.211 70.1312C643.839 69.8232 654.399 73.0772 644.606 74.5872C627.437 80.7732 633.713 65.4182 617.297 69.2982C620.885 69.0252 627.264 70.7532 622.939 73.3242C600.894 73.1892 610.655 78.7452 594.629 81.4772C585.621 73.6172 589.634 65.1292 575.175 63.2882L583.24 63.4102C577.971 59.6405 571.748 57.6647 565.397 57.7452C535.256 64.4832 510.259 76.4182 479.05 82.3952L490.193 80.4712C493.922 83.1802 480.866 83.7602 481.011 86.7272L474.109 83.1422C472.111 88.8562 489.672 88.6852 485.432 94.1932C484.022 93.4641 482.407 93.3183 480.901 93.7842L487.312 95.5302C472.794 93.6302 461.08 103.777 450.287 94.5022C478.66 93.6022 454.94 77.8532 482.698 75.0932C467.99 77.2932 480.192 68.9772 478.719 66.4722C471.016 65.1822 474.864 70.8402 466.224 68.8902C466.506 64.7672 485.196 61.1612 476.962 58.0712C475.917 64.4542 468.231 63.1582 464.4 67.5262C458.026 65.7622 464.634 63.4262 461.854 61.3942C458.29 61.6472 456.149 64.4122 452.979 63.5212L455.479 59.6112C437.754 53.8192 449.926 65.5792 429.656 63.6922C428.964 68.9202 435.216 67.7482 443.694 66.7702C447.768 78.3472 417.234 79.0312 418.606 91.5312C399.287 93.2782 423.819 86.7442 407.486 83.4022C398.657 75.4872 419.771 75.1442 424.058 69.6322L407.215 64.5142C413.138 54.4752 423.575 57.8022 426.79 48.6712C414.227 48.0712 415.665 50.5922 402.796 54.0602C423.267 61.9472 393.622 60.2362 405.187 70.1992C395.668 67.5152 398.737 65.4512 384.82 65.2792C393.718 63.1792 385.418 57.0672 397.094 57.0322C378.289 57.5632 383.3 59.8322 364.49 60.3382C358.385 67.4192 383.201 69.8382 360.391 74.6962C355.491 74.6902 356.546 72.0062 359.413 72.0732C343.335 69.0232 362.431 80.9862 352.127 84.4822C345.011 85.2472 342.569 82.4032 345.556 80.7482C334.79 84.5412 340.479 89.3802 333.346 90.8702L336.534 91.7852C333.424 93.8182 341.344 104.075 325.977 104.302C314.773 104.118 318.455 100.169 318.29 97.7832C309.492 100.117 302.89 97.8762 297.05 95.2682C297.585 96.6762 296.853 98.0682 294.212 98.0542C279.315 100.054 286.009 91.8672 280.57 90.7092C259.72 86.7422 282.52 103.929 258.989 103.809L286.199 106.671C284.883 110.088 284.037 115.323 289.947 115.351C290.762 110.119 300.673 105.829 309.761 106.806C312.138 112.947 284.913 113.059 300.017 119.956C294.548 118.799 286.819 120.339 280.017 119.633C287.199 113.292 258.192 117.933 270.389 110.939C255.423 111.459 246.89 110.453 238.664 109.933C228.638 109.205 218.567 109.658 208.635 111.283C211.393 107.436 229.518 97.5832 243.556 100.921L244.505 104.574C262.586 100.653 230.861 100.108 234.485 94.0052C211.852 103.405 186.136 87.9052 159.021 90.6712C163.473 94.1572 157.986 95.9012 156.552 99.2712C167.454 98.7942 165.658 97.3632 173.289 101.831C171.416 106.361 165.078 104.438 161.39 107.571C158.129 112.525 169.565 107.91 173.185 110.716C162.655 113.055 163.576 113.759 157.1 117.745C151.719 113.526 152.681 111.27 148.677 106.62C123.264 104.676 125.274 113.857 104.823 111.309C116.162 112.746 99.9824 105.97 112.234 108.079L105.414 107.234C123.87 100.607 154.233 101.946 152.226 89.8342C137.74 90.4222 126.674 96.7872 108.999 96.3912L109.971 94.1422C97.2849 93.0992 109.868 97.0922 106.641 99.0642C91.9359 102.517 89.4067 86.7102 78.6514 94.8152L93.0463 97.3042C81.5087 101.744 96.1952 98.3102 92.7154 106.186C82.5825 108.736 69.1155 108.647 54.6209 108.442C40.1206 108.162 24.6059 107.815 10.2617 110.024C17.7309 114.644 20.0063 114.941 30.5134 115.796C24.3915 126.296 20.3006 124.548 24.3191 134.049L37.1862 135.207L36.1613 145.191C32.7403 145.167 29.347 144.537 26.1206 143.327C23.5406 149.492 6.69445 140.395 5.03212 146.319L16.1814 146.061C20.9456 151.483 7.99856 150.314 0 151.601C6.52051 158.46 24.148 152.515 39.8922 152.868C39.2086 149.188 55.7304 142.498 40.5503 141.017C41.2358 136.938 50.5789 135.25 56.5662 135.445C53.1955 137.381 67.0799 146.906 52.6173 149.227C66.701 145.088 58.6348 149.402 73.969 147.803C71.5611 150.471 100.295 148.811 97.6817 157.386C102.853 153.902 98.7291 144.645 116.191 144.886C114.36 141.814 108.617 139.878 105.042 137.966C101.46 136.029 100.059 134.143 106.867 131.198L98.0183 134.824C86.192 131.524 101.942 128.771 86.4205 125.601C91.0126 126.192 100.743 123.274 102.404 127.666C99.6392 114.866 126.38 122.288 128.006 112.995C131.109 116.925 135.653 117.485 144.379 116.77C142.896 120.17 147.388 123.67 140.474 125.798C135.021 124.548 130.863 125.81 124.999 122.715C127.238 135.438 147.039 127.562 161.172 130.702C159.241 129.631 158.77 128.402 162.888 126.714C171.496 128.896 190.695 131.714 184.694 137.541L206.909 137.441L229.084 137.212C229.099 140.178 222.69 138.291 219.929 139.184L244.623 140.1C250.161 144.259 235.979 143.889 233.238 147.726L251.112 147.914L248.39 151.754C252.955 149.34 273.534 148.518 278.195 154.932C288.028 154.174 293.005 150.555 298.786 147.909C304.568 145.263 311.156 143.59 324.223 146.657C322.983 153.032 309.215 148.722 302.88 152.762C307.964 155.103 323.847 150.751 326.276 156.898C345.388 153.498 343.716 142.11 353.099 135.974C368.555 135.73 354.617 141.428 355.161 143.259C359.729 143.725 367.541 132.05 371.427 140.706C379.019 136.127 383.368 130.648 372.404 128.406C380.584 128.59 392.282 125.606 394.426 122.845C387.539 132.222 403.66 126.686 404.378 134.434C416.733 136.213 444.072 138.714 455.848 128.629L452.239 138.901L466.713 137.871C477.411 144.158 453.871 144.388 446.609 144.871C466.224 146.136 479.305 145.497 496.986 145.326C491.868 143.114 494.962 141.019 492.548 137.86C498.66 133.684 506.971 136.809 513.263 135.594C514.755 138.085 513.961 140.376 509.032 141.107L521.161 139.837C520.127 146.229 526.036 146.155 514.016 150.39L525.233 148.436C537.566 150.104 524.625 153.679 521.566 155.777L541.085 156.887C548.123 153.387 537.154 151.239 550.637 149.495C568.612 155.195 591.537 153.042 611.976 154.822L597.616 148.858C609.923 150.513 607.498 140.304 611.308 135.921C622.647 136.902 637.931 136.441 647.54 139.021C636.58 143.971 641.069 151.414 651.266 155.837C674.302 156.637 668.66 145.553 681.493 141.947C671.482 154.622 697.519 146.247 695.246 153.116C724.455 152.67 753.811 148.116 783.864 148.382C783.285 146.552 774.67 144.635 779.952 142.741C791.016 140.749 796.253 145.917 797.751 148.407C812.043 147.279 820.271 143.307 825.006 139.596C818.8 140.809 818.252 139.008 819.42 135.565C833.674 134.472 829.668 142.953 843.224 137.088C846.727 143.874 828.18 140.465 829.443 147.068C842.008 147.581 849.911 144.739 859.116 141.424C861.152 145.735 850.682 142.44 857.581 146.009C877.044 143.05 900.513 138.671 915.149 136.478L918.983 142.139C928.324 141.827 934.514 140.639 938.853 138.078C943.861 140.323 939.893 141.739 935.033 142.441C947.528 143.02 962.958 138.552 970.059 138.084C968.852 141.502 962.953 138.57 960.829 141.313C976.432 142.83 996.515 131.77 1006.59 139.235C1005.28 140.026 1003.79 140.392 1002.29 140.29C1013.49 140.435 1024.69 139.968 1035.85 138.89C1046.97 137.99 1058.37 136.917 1070.94 136.863C1093.67 143.963 1078.74 128.23 1101.42 129.409C1100.86 144.591 1132.21 130.953 1141.64 133.965L1138.72 131.688C1144.48 128.767 1151.15 128.76 1157.31 130.028C1162.75 131.218 1167.99 133.265 1172.86 136.101C1182.66 136.918 1192.5 137.167 1202.32 136.845C1212.89 136.438 1223.5 135.263 1232.19 132.452L1228.58 135.559C1242.81 131.984 1251.09 137.073 1265.36 133.569C1264.87 134.697 1259.51 136.378 1264.78 137.662C1273.08 138.584 1281.42 139.279 1289.79 139.798C1298.17 140.317 1306.57 140.641 1314.96 140.947C1323.37 141.226 1331.8 141.38 1340.25 141.46L1365.59 141.617C1399.39 141.751 1433.25 141.766 1466.15 144.992C1474.01 145.782 1481.99 146.584 1490.09 147.397C1494.13 147.808 1498.21 148.182 1502.29 148.621C1506.37 149.06 1510.48 149.499 1514.61 149.942C1531.11 151.724 1548.02 153.363 1565.04 155.311C1582.12 157.152 1599.43 159.018 1616.85 160.896C1634.45 162.826 1652.23 164.722 1670.37 166.528C1706.5 170.128 1743.69 173.228 1780.66 174.82C1816.82 176.558 1853.04 176.343 1889.18 174.174C1889.18 174.174 1893.53 170.305 1899.67 164.087C1907.23 156.427 1914.32 148.255 1920.89 139.622C1924.47 134.9 1927.79 129.966 1930.85 124.843C1933.7 120.116 1936.2 115.158 1938.31 110.013C1942.18 100.397 1943.55 91.5902 1941.18 85.1832" fill="#FAF7EF"/>
<path d="M359.415 72.0711C360.009 72.1761 360.555 72.2781 361.244 72.4221C360.656 72.2007 360.038 72.0821 359.415 72.0711Z" fill="#FAF7EF"/>
<path d="M665.111 79.3212C663.666 79.2842 662.221 79.354 660.786 79.5301C662.229 79.6912 663.687 79.6207 665.111 79.3212Z" fill="#FAF7EF"/>
<path d="M926.376 58.6602L920.892 59.2172C922.733 59.2342 924.571 59.0475 926.376 58.6602" fill="#FAF7EF"/>
<path d="M1327.04 38.6051C1325.4 34.2241 1337.24 26.8631 1328.25 22.6811C1320 22.1691 1314.89 22.9691 1311.33 24.4011C1308.46 25.6183 1305.88 27.4832 1303.75 29.8671C1299.7 33.8901 1295.55 37.8221 1278.72 36.5881L1295.38 42.2651C1295.23 34.5181 1307.71 30.7011 1320.99 30.6511L1324.4 36.4641C1321.97 37.9792 1319.42 39.2671 1316.78 40.3131C1321.66 41.2311 1321.21 36.7301 1327.04 38.6051" fill="#FAF7EF"/>
<path d="M1315.57 40.0541C1315.8 40.1861 1316.1 40.3221 1316.33 40.4751C1316.48 40.4053 1316.62 40.3514 1316.78 40.3141C1316.37 40.2494 1315.97 40.1626 1315.57 40.0541" fill="#FAF7EF"/>
<path d="M1628.78 887.656C1628.47 887.578 1628.2 887.391 1628 887.126C1627.81 886.861 1627.7 886.533 1627.71 886.196C1627 886.389 1626.32 886.496 1625.59 886.739L1628.78 887.656Z" fill="#FAF7EF"/>
<path d="M1829.45 839.121C1829.57 839.121 1829.69 839.111 1829.81 839.092C1829.41 838.565 1829.14 837.942 1829.03 837.277C1828.56 838.424 1828.56 838.424 1829.45 839.121Z" fill="#FAF7EF"/>
<path d="M1778.31 850.628C1777.46 850.081 1776.67 849.445 1775.95 848.728C1775.93 849.428 1776.93 850.047 1778.31 850.628Z" fill="#FAF7EF"/>
<path d="M1655.49 891.619C1653.35 890.769 1651.18 889.719 1648.95 888.71C1649.58 890.447 1652.04 892.221 1655.49 891.619Z" fill="#FAF7EF"/>
<path d="M1784.82 853.276C1783.13 852.345 1780.35 851.516 1778.31 850.628C1780.31 851.927 1782.52 852.825 1784.82 853.276Z" fill="#FAF7EF"/>
<path d="M1924.15 842.641C1922.78 841.855 1921.35 841.19 1919.88 840.653C1919.72 841.068 1919.42 841.333 1919.39 841.867L1924.15 842.641Z" fill="#FAF7EF"/>
<path d="M13.7532 915.809C17.5142 914.97 18.1385 913.567 17.5518 911.87C16.6009 913.488 15.298 914.839 13.7532 915.809Z" fill="#FAF7EF"/>
<path d="M109.281 918.866C108.481 919.157 107.713 919.541 106.992 920.012C108.566 919.612 109.68 919.099 109.281 918.866Z" fill="#FAF7EF"/>
<path d="M55.4412 888.292C55.3861 887.56 55.1686 886.853 54.8066 886.229C54.4013 886.815 54.5188 887.504 55.4412 888.292Z" fill="#FAF7EF"/>
<path d="M804.363 850.009L801.928 848.147C802.177 848.632 802.525 849.051 802.946 849.373C803.368 849.695 803.852 849.913 804.363 850.009" fill="#FAF7EF"/>
<path d="M943.712 843.69C944.149 843.71 944.54 843.714 944.951 843.719C944.541 843.699 944.152 843.695 943.712 843.69Z" fill="#FAF7EF"/>
<path d="M947.843 843.789C946.84 843.738 945.911 843.746 944.95 843.718C945.907 843.881 946.88 843.905 947.843 843.789" fill="#FAF7EF"/>
<path d="M1927.46 853.109C1931.37 850.058 1940.18 849.481 1940.93 845.399L1924.15 842.639C1929.82 845.957 1932.32 850.553 1927.46 853.109" fill="#FAF7EF"/>
<path d="M1600.44 903.23C1599.66 903.543 1598.86 903.812 1598.04 904.036C1598.88 903.908 1599.69 903.636 1600.44 903.23Z" fill="#FAF7EF"/>
<path d="M599.051 941.526L606.682 947.726C607.905 946.841 609.147 945.933 610.77 944.866C612.819 940.366 603.227 940.299 599.051 941.523" fill="#FAF7EF"/>
<path d="M4.83136 898.794C6.017 899.606 5.91913 900.558 5.26567 901.548C4.39606 902.691 3.38017 903.699 2.24756 904.542C-0.112421 906.5 -1.80006 908.201 3.50756 908.767C6.45738 906.283 9.46167 903.797 12.5206 901.308C11.0848 904.753 16.4828 908.797 17.5518 911.869C19.3383 908.429 16.3482 905.634 14.1669 902.513C12.0044 899.391 10.6298 895.945 16.18 891.198C17.4569 889.109 20.2634 888.198 23.3258 888.019C26.1924 887.907 29.0608 888.178 31.864 888.826C22.0376 887.414 32.1385 882.432 36.2558 879.969C42.31 882.784 52.2397 881.752 54.8075 886.23C55.8333 884.666 60.6445 883.842 63.8639 884.705L64.0039 887.005C71.5023 885.272 61.6853 884.69 63.7388 882.366C66.4419 882.078 69.791 883.239 73.5247 884.473C77.4619 885.954 81.5778 886.829 85.7477 887.073C77.0092 886.953 69.5363 889.945 63.2188 892.247C70.8761 894.567 69.8841 897.467 66.5905 900.523C64.9422 902.05 62.7149 903.615 60.6671 905.164C58.8492 906.426 57.2275 907.983 55.8605 909.777C57.3903 909.458 58.8092 909.114 60.1386 908.749C61.4804 908.404 62.7355 908.039 63.9249 907.655C66.3065 906.887 68.4305 906.047 70.4981 905.17C74.6445 903.441 78.5155 901.47 83.8494 899.821C89.7889 902.512 88.9963 906.714 86.4097 910.321C83.8231 913.928 79.4331 916.921 77.8911 917.221C83.7237 915.64 89.4353 913.591 94.977 911.093C100.366 908.732 105.258 906.6 108.482 905.493C98.7446 913.96 99.7647 916.867 91.4474 923.744C92.9675 924.92 94.7327 925.689 96.5924 925.983C97.9227 926.142 99.2669 925.867 100.447 925.196C102.73 923.954 104.605 921.596 106.999 920.019C104.38 920.697 100.462 921.053 99.808 919.219C110.293 920.64 110.58 906.695 117.202 901.062C124.68 905.327 139.728 908.252 137.146 916.277L138.669 907.616C148.573 906.309 142.747 912.459 143.669 915.406C148.37 909.801 145.549 900.924 162.22 899.956C156.797 913.662 176.44 902.473 173.209 915.108C180.885 914.924 186.004 908.268 193.588 910.458C200.631 918.469 177.651 926.41 173.549 923.885C162.668 923.291 176.256 918.195 171.89 917.96L160.712 920.86C165.92 924.047 176.491 928.115 173.807 933.78C184.937 932.091 166.675 926.98 178.985 924.756L185.252 928.632C197.617 926.459 185.033 918.688 200.653 918.468C188.942 923.568 217.283 920.133 214.098 929.26C217.513 917.783 242.084 930.551 247.733 921.617L240.134 918.163L240.674 923.463C231.688 922.845 223.481 925.184 214.83 922.295C223.061 918.757 214.722 912.379 224.045 909.484C241.617 904.231 226.736 916.084 228.991 916.238L243.149 911.361L235.804 905.612C241.646 905.084 247.517 905.02 253.368 905.421C259.761 905.792 266.531 906.557 273.333 907.621C291.927 916.521 269.221 913.76 282.153 921.691C289.334 919.851 288.458 916.846 297.548 918.645C293.349 914.845 288.233 919.184 284.848 918.357C282.195 910.586 302.389 916.65 303.14 909.687C306.275 912.819 304.832 915.651 301.071 918.326C317.485 917.104 332.381 919.79 336.284 929.326L345.181 921.098C371.666 926.747 324.711 927.478 346.354 935.185C355.647 936.894 365.064 937.44 369.974 934.213L361.837 933.166C369.158 928.911 369.423 925.466 380.085 923.132C386.989 924.622 381.965 930.203 391.555 926.018C412.197 932.84 395.485 940.195 390.283 948.079C405.327 954.079 378.736 964.349 390.325 961.485L387.806 959.256L406.744 948.886C393.205 937.738 398.771 957.486 394.606 947.11L385.528 945.578C389.456 940.815 410.062 946.117 413.101 940.592C412.712 943.548 409.093 950.178 399.385 949.735L402.983 961.198C408.379 962.724 413.484 955.737 415.61 960.929C422.624 968.729 401.206 971.174 421.242 975.712C442.857 979.73 443.928 966.094 458.504 968.995C457.396 966.415 453.648 966.414 449.068 965.708C454.559 962.364 446.6 958.69 455.216 956.466C458.536 964.188 474.316 964.935 486.305 965.481C482.524 969.309 489.587 973.781 485.451 975.862C491.701 975.283 497.52 974.399 500.633 971.214C477.136 964.114 525.173 966.501 507.386 957.861C516.806 958.661 522.181 960.832 526.605 963.337C531.029 965.842 534.503 968.708 540.116 970.989C539.037 973.212 517.584 974.389 533.997 978.507C554.443 971.807 532.071 967.473 548.363 959.007L536.646 955.565C536.468 945.976 557.896 954.384 561.287 952.465C568.433 955.286 550.544 954.546 556.971 961.41C567.862 964.131 574.243 958.494 580.905 962.377C573.163 968.477 577.91 966.161 569.257 971.508C595.553 972.713 566.958 978.98 586.57 983.999C593.109 983.076 589.717 977.262 599.827 979.187C594.637 971.956 595.677 969.701 579.136 968.705C586.153 958.905 600.636 972.152 612.912 966.625C603.746 965.406 610.247 964.476 600.052 965.511C599.676 957.031 596.158 955.554 606.149 948.124C595.213 949.883 589.472 958.741 574.407 955.524C571.285 946.763 594.04 949.824 595.546 938.697C603.797 933.438 621.669 939.014 629.666 943.524C645.2 937.251 663.354 937.789 675.572 928.236C685.944 931.936 713.316 923.285 733.126 926.86C735.811 931.911 757.542 930.819 744.804 935.905C746.669 934.333 763.409 933.858 759.355 929.243C757.531 930.818 755.737 929.443 752.125 929.618L755.76 923.509C765.256 926.346 776.576 918.77 785.596 922.734C788.322 927.781 767.984 925.485 773.85 931.479C783.389 922.528 819.847 919.33 831.197 923.521C838.887 924.921 839.433 932.664 842.637 933.572L855.72 933.152C857.141 935.667 857.208 938.636 859.501 941.824C865.874 943.666 870.367 941.164 874.416 939.819C891.278 945.078 881.945 951.219 872.951 956.212L863.396 953.447C856.191 956.837 846.14 955.209 851.761 962.288C856.706 961.621 856.665 958.68 858.472 957.088L863.985 961.198C869.842 958.242 885.713 956.917 884.227 951.443C895.649 955.516 909.112 950.938 919.233 955.493C912.302 951.864 921.312 949.793 919.368 945.472L907.1 943.672C917.016 942.259 931.363 938.417 940.534 942.218C939.299 945.633 938.891 946.773 943.514 950.17C937.026 945.408 960.925 944.159 946.711 938.07C941.198 940.023 935.351 940.677 929.577 939.986C925.308 932.468 936.117 931.78 942.265 927.625C949.876 926 964.693 923.853 974.932 921.299C981.31 923.092 983.018 931.505 994.093 926.62C980.272 919.461 1007.53 914.897 1011.26 907.587C1021.77 910.892 1028.49 901.514 1036.86 907.574C1032.51 910.143 1016.29 909.808 1012.05 915.317C1011.37 920.558 1015.4 929.187 999.273 931.828C1018.54 934.617 1010.7 927.408 1019.62 925.328L1013 926.003C1016.04 923.937 1010.44 919.89 1016.3 919.832C1038.9 921.941 1042.8 927.532 1058.02 934.216C1054.66 930.389 1061.69 926.879 1065.3 926.616C1079.96 931.463 1064.98 937.785 1073.93 945.662C1079.11 940.825 1089.12 942.303 1085.76 938.462C1091.59 938.38 1088.55 940.471 1092.7 942.013C1096.51 937.634 1100.9 935.082 1108.98 935.213C1108.23 937.496 1107.07 940.918 1099.33 939.655C1108.01 941.604 1111.13 949.527 1107.33 953.907L1093.19 950.896C1086.7 956.227 1106.39 953.241 1105.8 958.474C1099.54 959.695 1094.85 956.331 1090.85 957.758C1094.78 963.408 1107.1 958.015 1114.29 957.458C1125.64 958.458 1121.44 963.972 1121.6 966.941C1140.96 958.021 1099.37 956.75 1117.39 948.307C1124.25 941.843 1141.42 942.749 1153.5 941.439C1143.16 934.065 1154.71 930.939 1167.16 928.476C1150.94 928.267 1163.05 919.891 1143.98 924.709L1143.63 918.796C1151.74 918.912 1161.33 921.496 1169.44 921.627C1167.75 923.227 1169.62 924.563 1166.96 925.535L1191.13 922.906L1188.66 926.806C1203.54 927.485 1221.82 931.996 1230.7 929.816C1223.52 930.375 1217.33 924.557 1224.85 922.838C1229.21 920.278 1237.13 917.42 1243.9 917.988C1247.46 924.767 1273.09 924.611 1256.87 931.468C1277.78 927.968 1270.07 926.705 1290.06 922.545L1276.67 924.329C1275 918.901 1286.14 909.829 1273.33 906.393C1288.41 902.957 1278.82 893.309 1299.01 892.114C1307.2 895.414 1296.53 903.091 1285.2 904.463C1290.9 904.904 1296.08 907.885 1301.99 904.14C1306.29 908.616 1291.22 912.04 1291.79 913.849C1302.16 914.157 1291.6 910.903 1301.39 909.393C1318.56 903.207 1312.29 918.562 1328.7 914.682C1325.11 914.955 1318.74 913.227 1323.06 910.656C1345.11 910.791 1335.34 905.235 1351.37 902.503C1360.38 910.363 1356.37 918.851 1370.83 920.692L1362.76 920.57C1368.03 924.339 1374.25 926.315 1380.6 926.235C1410.74 919.497 1435.74 907.562 1466.95 901.585L1455.81 903.509C1452.08 900.8 1465.13 900.22 1464.99 897.253L1471.89 900.838C1473.89 895.124 1456.33 895.295 1460.57 889.787C1461.98 890.516 1463.59 890.662 1465.1 890.196L1458.69 888.45C1473.21 890.35 1484.92 880.203 1495.71 889.478C1467.34 890.378 1491.06 906.127 1463.3 908.887C1478.01 906.687 1465.81 915.003 1467.28 917.508C1474.98 918.798 1471.14 913.14 1479.78 915.09C1479.49 919.213 1460.8 922.819 1469.04 925.909C1470.08 919.526 1477.77 920.822 1481.6 916.454C1487.97 918.218 1481.37 920.554 1484.15 922.586C1487.71 922.333 1489.85 919.568 1493.02 920.459L1490.52 924.369C1508.25 930.161 1496.07 918.401 1516.34 920.288C1517.04 915.06 1510.78 916.232 1502.31 917.21C1498.23 905.633 1528.77 904.949 1527.39 892.449C1546.71 890.702 1522.18 897.236 1538.51 900.578C1547.34 908.493 1526.23 908.836 1521.94 914.348L1538.79 919.466C1532.86 929.505 1522.43 926.178 1519.21 935.309C1531.77 935.909 1530.33 933.388 1543.2 929.92C1522.73 922.033 1552.38 923.744 1540.81 913.781C1550.33 916.465 1547.26 918.529 1561.18 918.701C1552.28 920.801 1560.58 926.913 1548.91 926.948C1567.71 926.417 1562.7 924.148 1581.51 923.642C1587.62 916.561 1562.8 914.142 1585.61 909.284C1590.51 909.29 1589.45 911.974 1586.59 911.907C1602.66 914.957 1583.57 902.994 1593.87 899.498C1600.99 898.733 1603.43 901.577 1600.44 903.232C1611.21 899.439 1605.52 894.6 1612.65 893.11L1609.47 892.195C1612.58 890.162 1604.66 879.905 1620.02 879.678C1631.23 879.862 1637.72 912.765 1637.88 915.151C1646.68 912.817 1643.11 886.104 1648.95 888.712C1648.41 887.304 1649.15 885.912 1651.79 885.926C1666.69 883.926 1657.36 902.074 1662.8 903.232C1683.65 907.199 1673.12 911.787 1696.65 911.907L1659.8 877.309C1661.12 873.892 1661.96 868.657 1656.05 868.629C1655.24 873.861 1645.33 878.151 1636.24 877.174C1633.86 871.033 1661.09 870.921 1645.98 864.024C1651.45 865.181 1659.18 863.641 1665.98 864.347C1658.8 870.688 1687.81 866.047 1675.61 873.041C1690.58 872.521 1699.11 873.527 1707.34 874.047C1717.36 874.775 1727.43 874.322 1737.37 872.697C1734.61 876.544 1742.25 904.651 1704.17 911.907L1683.02 903.509C1664.93 907.43 1715.14 883.872 1711.51 889.975C1734.15 880.575 1759.11 916.851 1785.97 903.509C1781.52 900.023 1801.46 906.879 1802.9 903.509C1791.99 903.986 1796.24 878.633 1772.71 882.149C1774.58 877.619 1780.92 879.542 1784.61 876.409C1787.87 871.455 1776.43 876.07 1772.81 873.264C1783.35 870.925 1782.42 870.221 1788.9 866.235C1794.28 870.454 1803.59 898.001 1807.6 902.651C1833.01 904.595 1820.73 870.123 1841.18 872.671C1829.84 871.234 1846.02 878.01 1833.77 875.901L1840.59 876.746C1822.13 883.373 1778.32 895.039 1780.33 907.151C1794.82 906.563 1819.33 887.193 1837 887.589L1835.33 905.151C1848.02 906.194 1836.13 886.888 1839.36 884.916C1854.06 881.463 1856.59 897.27 1867.35 889.165L1835.86 899.651C1847.39 895.211 1849.8 885.67 1853.28 877.794C1863.42 875.244 1876.88 875.333 1891.38 875.538C1905.88 875.818 1921.39 876.165 1935.74 873.956C1928.27 869.336 1925.99 869.039 1915.49 868.184C1921.61 857.684 1925.7 859.432 1921.68 849.931L1908.81 848.773L1909.84 838.789C1913.26 838.813 1916.65 839.443 1919.88 840.653C1922.46 834.488 1939.31 843.585 1940.97 837.661L1929.82 837.919C1925.05 832.497 1938 833.666 1946 832.379C1939.48 825.52 1921.85 831.465 1906.11 831.112C1906.79 834.792 1890.27 841.482 1905.45 842.963C1904.76 847.042 1895.42 848.73 1889.43 848.535C1892.8 846.599 1878.92 837.074 1893.38 834.753C1879.3 838.892 1887.37 834.578 1872.03 836.177C1874.44 833.509 1845.71 835.169 1848.32 826.594C1843.15 830.078 1847.27 839.335 1829.81 839.094C1831.64 842.166 1837.38 844.102 1840.96 846.014C1844.54 847.951 1845.94 849.837 1839.13 852.782L1847.98 849.156C1859.81 852.456 1844.06 855.209 1859.58 858.379C1854.99 857.788 1845.26 860.706 1843.6 856.314C1846.36 869.114 1819.62 861.692 1817.99 870.985C1814.89 867.055 1810.35 866.495 1801.62 867.21C1803.1 863.81 1798.61 860.31 1805.53 858.182C1810.98 859.432 1815.14 858.17 1821 861.265C1818.76 848.542 1798.96 856.418 1784.83 853.278C1786.76 854.349 1787.23 855.578 1783.11 857.266C1774.5 855.084 1755.3 852.266 1761.31 846.439L1739.09 846.539L1716.92 846.768C1716.9 843.802 1723.31 845.689 1726.07 844.796L1701.38 843.88C1695.84 839.721 1710.02 840.091 1712.76 836.254L1694.89 836.066L1697.61 832.226C1693.04 834.64 1672.47 835.462 1667.81 829.048C1657.97 829.806 1653 833.425 1647.21 836.071C1641.43 838.717 1634.84 840.39 1621.78 837.323C1623.02 830.948 1636.78 835.258 1643.12 831.218C1638.04 828.877 1622.15 833.229 1619.72 827.082C1600.61 830.482 1602.28 841.87 1592.9 848.006C1577.44 848.25 1591.38 842.552 1590.84 840.721C1586.27 840.255 1578.46 851.93 1574.57 843.274C1566.98 847.853 1562.63 853.332 1573.6 855.574C1565.42 855.39 1553.72 858.374 1551.57 861.135C1558.46 851.758 1542.34 857.294 1541.62 849.546C1529.27 847.767 1501.93 845.266 1490.15 855.351L1493.76 845.079L1479.29 846.109C1468.59 839.822 1492.13 839.592 1499.39 839.109C1479.78 837.844 1466.69 838.483 1449.01 838.654C1454.13 840.866 1451.04 842.961 1453.45 846.12C1447.34 850.296 1439.03 847.171 1432.74 848.386C1431.25 845.895 1432.04 843.604 1436.97 842.873L1424.84 844.143C1425.87 837.751 1419.96 837.825 1431.98 833.59L1420.77 835.544C1408.43 833.876 1421.37 830.301 1424.43 828.203L1404.92 827.093C1397.88 830.593 1408.85 832.741 1395.36 834.485C1377.39 828.785 1354.46 830.938 1334.02 829.158L1348.38 835.122C1336.08 833.467 1338.5 843.676 1334.69 848.059C1323.35 847.078 1308.07 847.539 1298.46 844.959C1309.42 840.009 1304.93 832.566 1294.73 828.143C1271.7 827.343 1277.34 838.427 1264.51 842.033C1274.52 829.358 1248.48 837.733 1250.75 830.864C1221.54 831.31 1192.19 835.864 1162.14 835.598C1162.72 837.428 1171.33 839.345 1166.05 841.239C1154.98 843.231 1149.75 838.063 1148.25 835.573C1133.96 836.701 1125.73 840.673 1120.99 844.384C1127.2 843.171 1127.75 844.972 1126.58 848.415C1112.33 849.508 1116.33 841.027 1102.78 846.892C1099.27 840.106 1117.82 843.515 1116.56 836.912C1103.99 836.399 1096.09 839.241 1086.88 842.556C1084.85 838.245 1095.32 841.54 1088.42 837.971C1068.96 840.93 1045.49 845.309 1030.85 847.502L1027.02 841.841C1017.68 842.153 1011.49 843.341 1007.15 845.902C1002.14 843.657 1006.11 842.241 1010.97 841.539C998.472 840.96 983.042 845.428 975.941 845.896C977.148 842.478 983.047 845.41 985.171 842.667C969.568 841.15 949.485 852.21 939.413 844.745C940.718 843.954 942.213 843.588 943.712 843.69C932.509 843.545 921.305 844.012 910.146 845.09C899.031 845.99 887.629 847.063 875.063 847.117C852.329 840.017 867.264 855.75 844.58 854.571C845.144 839.389 813.791 853.027 804.363 850.015L807.277 852.292C801.52 855.213 794.854 855.22 788.692 853.952C783.254 852.762 778.014 850.715 773.144 847.879C763.341 847.062 753.504 846.813 743.675 847.135C733.105 847.542 722.499 848.717 713.814 851.528L717.424 848.421C703.186 851.996 694.907 846.907 680.643 850.411C681.131 849.283 686.49 847.602 681.217 846.318C672.918 845.396 664.581 844.701 656.207 844.182C647.834 843.663 639.431 843.339 631.035 843.033C622.63 842.754 614.201 842.6 605.753 842.52L580.408 842.363C546.612 842.229 512.75 842.214 479.852 838.988C471.988 838.198 464.009 837.396 455.913 836.583C451.87 836.172 447.793 835.798 443.71 835.359C439.628 834.92 435.523 834.481 431.393 834.038C414.889 832.256 397.981 830.617 380.961 828.669C363.881 826.828 346.569 824.962 329.148 823.084C311.551 821.154 293.773 819.258 275.632 817.452C239.497 813.852 202.309 810.752 165.337 809.16C129.178 807.422 92.9596 807.637 56.8215 809.806C56.8215 809.806 52.4701 813.675 46.3285 819.893C38.7686 827.553 31.6826 835.725 25.115 844.358C21.5331 849.08 18.2055 854.014 15.1484 859.137C12.2984 863.864 9.8039 868.822 7.68787 873.967C3.82258 883.583 2.44887 892.39 4.8192 898.797" fill="#FAF7EF"/>
<path d="M1586.58 911.909C1585.99 911.804 1585.45 911.702 1584.76 911.558C1585.34 911.779 1585.96 911.898 1586.58 911.909Z" fill="#FAF7EF"/>
<path d="M1280.89 904.659C1282.33 904.696 1283.78 904.626 1285.21 904.45C1283.77 904.289 1282.31 904.359 1280.89 904.659Z" fill="#FAF7EF"/>
<path d="M1019.62 925.32L1025.11 924.763C1023.27 924.746 1021.43 924.932 1019.62 925.32" fill="#FAF7EF"/>
<path d="M618.962 945.375C620.603 949.756 608.761 957.117 617.753 961.299C626.001 961.811 631.114 961.011 634.669 959.579C637.537 958.362 640.124 956.497 642.249 954.113C646.301 950.09 650.447 946.158 667.282 947.392L650.618 941.715C650.765 949.462 638.294 953.279 625.012 953.329L621.599 947.516C624.032 946.001 626.583 944.713 629.225 943.667C624.335 942.749 624.789 947.25 618.962 945.375" fill="#FAF7EF"/>
<path d="M630.433 943.926C630.2 943.794 629.897 943.658 629.668 943.505C629.525 943.575 629.375 943.629 629.222 943.666C629.629 943.731 630.033 943.817 630.433 943.926" fill="#FAF7EF"/>
</svg>
