<svg width="1009" height="1626" viewBox="0 0 1009 1626" fill="none" xmlns="http://www.w3.org/2000/svg">
<path d="M1009 134H0V1495H1009V134Z" fill="#F9F6ED"/>
<path d="M164.477 96.343C164.637 96.4208 164.779 96.6076 164.881 96.8728C164.982 97.138 165.036 97.466 165.035 97.803C165.403 97.61 165.754 97.503 166.131 97.26L164.477 96.343Z" fill="#FAF7EF"/>
<path d="M60.4294 144.878C60.3679 144.878 60.3064 144.888 60.2456 144.907C60.452 145.433 60.5909 146.057 60.6498 146.722C60.8935 145.575 60.8935 145.575 60.4294 144.878Z" fill="#FAF7EF"/>
<path d="M86.948 133.371C87.3866 133.917 87.7969 134.554 88.1726 135.271C88.1804 134.571 87.6612 133.952 86.948 133.371Z" fill="#FAF7EF"/>
<path d="M150.627 92.3801C151.738 93.2301 152.862 94.2801 154.022 95.2891C153.692 93.5521 152.417 91.7781 150.627 92.3801Z" fill="#FAF7EF"/>
<path d="M83.5701 130.723C84.4476 131.654 85.8887 132.483 86.948 133.371C85.9105 132.072 84.7656 131.174 83.5701 130.723Z" fill="#FAF7EF"/>
<path d="M11.3296 141.358C12.04 142.144 12.7808 142.809 13.5443 143.346C13.6248 142.931 13.7798 142.666 13.7983 142.132L11.3296 141.358Z" fill="#FAF7EF"/>
<path d="M1001.87 68.1899C999.919 69.0289 999.595 70.4319 999.899 72.1289C1000.39 70.511 1001.07 69.16 1001.87 68.1899Z" fill="#FAF7EF"/>
<path d="M952.338 65.1331C952.753 64.8417 953.151 64.4574 953.525 63.9871C952.709 64.3871 952.131 64.9001 952.338 65.1331Z" fill="#FAF7EF"/>
<path d="M980.254 95.707C980.282 96.4384 980.395 97.1455 980.583 97.77C980.793 97.184 980.732 96.495 980.254 95.707Z" fill="#FAF7EF"/>
<path d="M591.938 133.99L593.201 135.852C593.072 135.367 592.891 134.948 592.673 134.626C592.454 134.303 592.203 134.086 591.938 133.99" fill="#FAF7EF"/>
<path d="M519.686 140.309C519.459 140.289 519.256 140.285 519.043 140.28C519.256 140.3 519.457 140.304 519.686 140.309Z" fill="#FAF7EF"/>
<path d="M517.544 140.21C518.064 140.261 518.546 140.253 519.044 140.281C518.548 140.117 518.043 140.094 517.544 140.21" fill="#FAF7EF"/>
<path d="M9.61346 130.89C7.58786 133.941 3.01696 134.518 2.62939 138.6L11.328 141.36C8.38884 138.042 7.09499 133.446 9.61298 130.89" fill="#FAF7EF"/>
<path d="M762.486 6.97188C759.583 6.92788 758.083 7.38488 757.294 8.15088C759.072 7.83088 760.895 7.59888 762.62 7.17088L762.486 6.97188Z" fill="#FAF7EF"/>
<path d="M694.435 36.27C694.527 36.145 694.63 36.005 694.711 35.894C694.565 35.92 694.449 36.032 694.298 36.063L694.435 36.27Z" fill="#FAF7EF"/>
<path d="M767.987 3.65991C768.401 3.15186 768.768 2.49781 769.071 1.72792C767.963 1.72792 767.829 2.56291 767.987 3.65991Z" fill="#FAF7EF"/>
<path d="M179.172 80.769C179.579 80.4561 179.994 80.1871 180.415 79.963C179.982 80.0905 179.562 80.3628 179.172 80.769Z" fill="#FAF7EF"/>
<path d="M698.392 42.473L694.436 36.273C693.802 37.158 693.158 38.066 692.316 39.133C691.254 43.633 696.227 43.7 698.393 42.476" fill="#FAF7EF"/>
<path d="M767.988 3.66009C766.656 5.59609 764.786 6.58509 762.62 7.17109L764.732 10.6111C770.579 11.1111 768.348 6.40609 767.988 3.66009" fill="#FAF7EF"/>
<path d="M1006.49 85.205C1005.88 84.393 1005.93 83.441 1006.27 82.451C1006.72 81.3079 1007.25 80.3001 1007.83 79.457C1009.06 77.499 1009.93 75.798 1007.18 75.232C1005.65 77.7153 1004.09 80.2016 1002.51 82.691C1003.25 79.246 1000.45 75.202 999.899 72.13C998.973 75.57 1000.52 78.365 1001.65 81.486C1002.78 84.608 1003.49 88.054 1000.61 92.801C999.949 94.89 998.493 95.801 996.906 95.98C995.419 96.0915 993.932 95.8204 992.479 95.173C997.574 96.585 992.336 101.567 990.201 104.03C987.062 101.215 981.914 102.247 980.582 97.769C980.051 99.333 977.556 100.157 975.887 99.294L975.814 96.994C971.926 98.727 977.016 99.309 975.952 101.633C974.55 101.921 972.813 100.76 970.878 99.526C968.836 98.0451 966.702 97.1696 964.54 96.926C969.071 97.046 972.946 94.054 976.221 91.752C972.251 89.432 972.765 86.532 974.473 83.476C975.328 81.949 976.482 80.384 977.544 78.835C978.487 77.5724 979.328 76.016 980.036 74.222C979.243 74.541 978.508 74.885 977.818 75.25C977.122 75.595 976.472 75.96 975.855 76.344C974.62 77.112 973.519 77.952 972.447 78.829C970.297 80.558 968.29 82.529 965.524 84.178C962.445 81.487 962.856 77.285 964.197 73.678C965.538 70.071 967.814 67.078 968.614 66.778C965.589 68.3592 962.628 70.4078 959.754 72.906C956.961 75.267 954.424 77.399 952.752 78.506C957.801 70.039 957.272 67.132 961.585 60.255C960.796 59.0783 959.881 58.3102 958.917 58.016C958.227 57.857 957.53 58.1315 956.918 58.803C955.734 60.045 954.762 62.403 953.521 63.98C954.879 63.302 956.91 62.946 957.25 64.78C951.813 63.359 951.664 77.304 948.231 82.937C944.354 78.672 936.551 75.747 937.89 67.722L937.1 76.383C931.965 77.69 934.986 71.54 934.508 68.593C932.07 74.198 933.533 83.075 924.889 84.043C927.701 70.337 917.516 81.526 919.191 68.891C915.211 69.075 912.557 75.731 908.625 73.541C904.973 65.53 916.888 57.589 919.015 60.114C924.657 60.708 917.611 65.804 919.875 66.039L925.671 63.139C922.97 59.952 917.489 55.884 918.881 50.219C913.11 51.908 922.579 57.019 916.196 59.243L912.947 55.367C906.536 57.54 913.061 65.311 904.962 65.531C911.034 60.431 896.339 63.866 897.99 54.739C896.22 66.216 883.48 53.448 880.551 62.382L884.491 65.836L884.21 60.536C888.87 61.154 893.125 58.815 897.611 61.704C893.343 65.242 897.667 71.62 892.833 74.515C883.722 79.768 891.438 67.915 890.268 67.761L882.927 72.638L886.736 78.387C883.707 78.915 880.663 78.9788 877.629 78.578C874.314 78.207 870.804 77.442 867.277 76.378C857.636 67.478 869.409 70.239 862.704 62.308C858.98 64.148 859.435 67.153 854.721 65.354C856.899 69.154 859.551 64.815 861.307 65.642C862.682 73.413 852.212 67.349 851.822 74.312C850.197 71.18 850.945 68.348 852.895 65.673C844.384 66.895 836.661 64.209 834.637 54.673L830.024 62.901C816.292 57.252 840.638 56.521 829.416 48.814C824.597 47.105 819.714 46.559 817.169 49.786L821.388 50.833C817.592 55.088 817.454 58.533 811.926 60.867C808.347 59.377 810.951 53.796 805.979 57.981C795.276 51.159 803.941 43.804 806.638 35.92C798.838 29.92 812.625 19.65 806.617 22.514L807.923 24.743L798.104 35.113C805.124 46.261 802.238 26.513 804.397 36.889L809.104 38.421C807.067 43.184 796.383 37.882 794.807 43.407C795.009 40.451 796.886 33.821 801.919 34.264L800.054 22.801C797.256 21.275 794.609 28.262 793.506 23.07C789.87 15.27 800.975 12.825 790.586 8.28696C779.379 4.26896 778.823 17.905 771.266 15.004C771.84 17.584 773.784 17.585 776.159 18.291C773.311 21.635 777.438 25.309 772.971 27.533C771.249 19.811 763.068 19.064 756.851 18.518C758.812 14.69 755.149 10.218 757.294 8.13696C754.053 8.71596 751.036 9.59996 749.422 12.785C761.605 19.885 736.698 17.498 745.92 26.138C741.037 25.338 738.249 23.167 735.956 20.662C733.662 18.157 731.861 15.291 728.95 13.01C729.51 10.787 740.633 9.60996 732.123 5.49196C721.522 12.192 733.121 16.526 724.674 24.992L730.749 28.434C730.842 38.023 719.731 29.615 717.973 31.534C714.268 28.713 723.543 29.453 720.211 22.589C714.564 19.868 711.256 25.505 707.801 21.622C711.815 15.522 709.354 17.838 713.84 12.491C700.206 11.286 715.033 5.01895 704.864 -4.57764e-05C701.473 0.922954 703.232 6.73697 697.99 4.81197C700.681 12.043 700.142 14.298 708.718 15.294C705.08 25.094 697.571 11.847 691.206 17.374C695.958 18.593 692.587 19.523 697.873 18.488C698.068 26.968 699.893 28.445 694.712 35.875C700.383 34.116 703.359 25.258 711.17 28.475C712.789 37.236 700.991 34.175 700.21 45.302C695.932 50.561 686.665 44.985 682.518 40.475C674.464 46.748 665.051 46.21 658.716 55.763C653.338 52.063 639.146 60.714 628.875 57.139C627.482 52.088 616.215 53.18 622.82 48.094C621.853 49.666 613.173 50.141 615.275 54.756C616.22 53.181 617.151 54.556 619.024 54.381L617.139 60.49C612.215 57.653 606.346 65.229 601.669 61.265C600.255 56.218 610.801 58.514 607.759 52.52C602.813 61.471 583.91 64.669 578.025 60.478C574.038 59.078 573.754 51.335 572.093 50.427L565.31 50.847C564.573 48.332 564.538 45.363 563.349 42.175C560.045 40.333 557.715 42.835 555.616 44.18C546.873 38.921 551.712 32.78 556.375 27.787L561.33 30.552C565.065 27.162 570.277 28.79 567.362 21.711C564.798 22.378 564.82 25.319 563.883 26.911L561.024 22.801C557.987 25.757 549.758 27.082 550.529 32.556C544.607 28.483 537.626 33.061 532.378 28.506C535.972 32.135 531.3 34.206 532.308 38.527L538.669 40.327C533.528 41.74 526.089 45.582 521.333 41.781C521.974 38.366 522.186 37.226 519.788 33.829C523.152 38.591 510.761 39.84 518.131 45.929C520.989 43.9758 524.021 43.322 527.015 44.013C529.228 51.531 523.624 52.219 520.436 56.374C516.49 57.999 508.807 60.146 503.498 62.7C500.191 60.907 499.306 52.494 493.563 57.379C500.73 64.538 486.595 69.102 484.662 76.412C479.214 73.107 475.729 82.485 471.387 76.425C473.645 73.856 482.056 74.191 484.252 68.682C484.605 63.441 482.514 54.812 490.878 52.171C480.889 49.382 484.952 56.591 480.327 58.671L483.759 57.996C482.182 60.062 485.086 64.109 482.046 64.167C470.329 62.058 468.309 56.467 460.416 49.783C462.161 53.61 458.514 57.12 456.645 57.383C449.04 52.536 456.811 46.214 452.169 38.337C449.482 43.174 444.292 41.696 446.033 45.537C443.011 45.619 444.588 43.528 442.434 41.986C440.461 46.365 438.186 48.917 433.992 48.786C434.382 46.503 434.984 43.081 438.997 44.344C434.499 42.395 432.877 34.472 434.85 30.092L442.182 33.103C445.546 27.772 435.34 30.758 435.643 25.525C438.891 24.304 441.321 27.668 443.395 26.241C441.355 20.591 434.968 25.984 431.239 26.541C425.356 25.541 427.534 20.027 427.451 17.058C417.412 25.978 438.98 27.249 429.631 35.692C426.079 42.156 417.174 41.25 410.911 42.56C416.27 49.934 410.285 53.06 403.829 55.523C412.24 55.732 405.96 64.108 415.849 59.29L416.029 65.203C411.821 65.087 406.848 62.503 402.644 62.372C403.522 60.772 402.55 59.436 403.93 58.464L391.401 61.093L392.682 57.193C384.966 56.514 375.488 52.003 370.885 54.183C374.604 53.624 377.816 59.442 373.914 61.161C371.656 63.721 367.55 66.579 364.038 66.011C362.193 59.232 348.902 59.388 357.315 52.531C346.47 56.031 350.47 57.294 340.105 61.454L347.047 59.67C347.914 65.098 342.136 74.17 348.78 77.606C340.96 81.042 345.934 90.69 335.463 91.885C331.219 88.585 336.749 80.908 342.624 79.536C339.667 79.095 336.981 76.114 333.917 79.859C331.688 75.383 339.501 71.959 339.208 70.15C333.83 69.842 339.305 73.096 334.228 74.606C325.326 80.792 328.58 65.437 320.068 69.317C321.929 69.044 325.236 70.772 322.993 73.343C311.563 73.208 316.625 78.764 308.315 81.496C303.644 73.636 305.725 65.148 298.228 63.307L302.41 63.429C299.677 59.6593 296.451 57.6835 293.158 57.764C277.53 64.502 264.569 76.437 248.387 82.414L254.165 80.49C256.098 83.199 249.329 83.779 249.404 86.746L245.825 83.161C244.789 88.875 253.895 88.704 251.696 94.212C250.965 93.4829 250.128 93.3371 249.347 93.803L252.671 95.549C245.143 93.649 239.07 103.796 233.473 94.521C248.185 93.621 235.886 77.872 250.279 75.112C242.653 77.312 248.979 68.996 248.216 66.491C244.222 65.201 246.217 70.859 241.737 68.909C241.883 64.786 251.574 61.18 247.305 58.09C246.763 64.473 242.778 63.177 240.791 67.545C237.486 65.781 240.912 63.445 239.471 61.413C237.623 61.666 236.513 64.431 234.869 63.54L236.165 59.63C226.975 53.838 233.286 65.598 222.776 63.711C222.418 68.939 225.659 67.767 230.055 66.789C232.167 78.366 216.335 79.05 217.047 91.55C207.03 93.297 219.75 86.763 211.281 83.421C206.703 75.506 217.651 75.163 219.874 69.651L211.141 64.533C214.212 54.494 219.623 57.821 221.291 48.69C214.776 48.09 215.522 50.611 208.85 54.079C219.464 61.966 204.093 60.255 210.089 70.218C205.153 67.534 206.745 65.47 199.529 65.298C204.142 63.198 199.839 57.086 205.893 57.051C196.143 57.582 198.741 59.851 188.988 60.357C185.822 67.438 198.69 69.857 186.863 74.715C184.322 74.709 184.869 72.025 186.356 72.092C178.019 69.042 187.92 81.005 182.578 84.501C178.888 85.266 177.622 82.422 179.171 80.767C173.589 84.56 176.538 89.399 172.84 90.889L174.493 91.804C172.88 93.837 176.987 104.094 169.019 104.321C163.21 104.137 165.119 100.188 165.033 97.802C160.472 100.136 157.048 97.895 154.02 95.287C154.298 96.695 153.918 98.087 152.549 98.073C144.825 100.073 148.296 91.886 145.475 90.728C134.665 86.761 146.486 103.948 134.286 103.828L148.394 106.69C147.712 110.107 147.273 115.342 150.337 115.37C150.76 110.138 155.899 105.848 160.611 106.825C161.844 112.966 147.727 113.078 155.559 119.975C152.723 118.818 148.715 120.358 145.189 119.652C148.912 113.311 133.873 117.952 140.197 110.958C132.437 111.478 128.012 110.472 123.747 109.952C118.549 109.224 113.327 109.676 108.177 111.302C109.607 107.455 119.005 97.602 126.284 100.94L126.775 104.593C136.151 100.672 119.701 100.127 121.581 94.024C109.845 103.424 96.5114 87.924 82.4521 90.69C84.7609 94.176 81.9158 95.92 81.1724 99.29C86.825 98.813 85.8934 97.382 89.85 101.85C88.8789 106.38 85.5931 104.457 83.6806 107.59C81.9899 112.544 87.9195 107.929 89.7964 110.735C84.3363 113.074 84.8141 113.778 81.4561 117.764C78.6661 113.545 79.1648 111.289 77.089 106.639C63.9121 104.695 64.9544 113.876 54.3505 111.328C60.2299 112.765 51.8408 105.989 58.1931 108.098L54.6572 107.253C64.2265 100.626 79.9697 101.965 78.9293 89.853C71.4183 90.441 65.6803 96.806 56.5161 96.41L57.0201 94.161C50.4422 93.118 56.9665 97.111 55.2934 99.083C47.6687 102.536 46.3573 86.729 40.7807 94.834L48.2445 97.323C42.2622 101.763 49.8771 98.329 48.0729 106.205C42.819 108.755 35.8364 108.666 28.3209 108.461C20.8025 108.181 12.7581 107.834 5.32068 110.043C9.19346 114.663 10.3732 114.96 15.8212 115.815C12.647 126.315 10.5258 124.567 12.6094 134.068L19.281 135.226L18.7496 145.21C16.9758 145.186 15.2164 144.556 13.5435 143.346C12.2058 149.511 3.47107 140.414 2.60915 146.338L8.39005 146.08C10.8603 151.502 4.14725 150.333 0 151.62C3.38088 158.479 12.5207 152.534 20.6841 152.887C20.3297 149.207 28.8962 142.517 21.0253 141.036C21.3807 136.957 26.2251 135.269 29.3296 135.464C27.5818 137.4 34.7809 146.925 27.282 149.246C34.5844 145.107 30.4021 149.421 38.3529 147.822C37.1044 150.49 52.0027 148.83 50.6479 157.405C53.3292 153.921 51.191 144.664 60.245 144.905C59.2953 141.833 56.3176 139.897 54.4641 137.985C52.6072 136.048 51.8803 134.162 55.4104 131.217L50.8224 134.843C44.6905 131.543 52.8568 128.79 44.809 125.62C47.19 126.211 52.2352 123.293 53.0967 127.685C51.6629 114.885 65.5282 122.307 66.3711 113.014C67.9799 116.944 70.336 117.504 74.8606 116.789C74.0913 120.189 76.4206 123.689 72.8359 125.817C70.0084 124.567 67.8526 125.829 64.812 122.734C65.9728 135.457 76.2397 127.581 83.5675 130.721C82.5666 129.65 82.3224 128.421 84.4572 126.733C88.9204 128.915 98.8753 131.733 95.7635 137.56L107.282 137.46L118.78 137.231C118.788 140.197 115.465 138.31 114.033 139.203L126.837 140.119C129.708 144.278 122.355 143.908 120.934 147.745L130.201 147.933L128.79 151.773C131.157 149.359 141.827 148.537 144.244 154.951C149.342 154.193 151.923 150.574 154.92 147.928C157.918 145.282 161.334 143.609 168.11 146.676C167.466 153.051 160.328 148.741 157.043 152.781C159.679 155.122 167.915 150.77 169.174 156.917C179.083 153.517 178.217 142.129 183.081 135.993C191.096 135.749 183.869 141.447 184.151 143.278C186.519 143.744 190.57 132.069 192.585 140.725C196.521 136.146 198.776 130.667 193.091 128.425C197.333 128.609 203.398 125.625 204.51 122.864C200.939 132.241 209.297 126.705 209.67 134.453C216.076 136.232 230.251 138.733 236.357 128.648L234.486 138.92L241.991 137.89C247.538 144.177 235.332 144.407 231.567 144.89C241.737 146.155 248.519 145.516 257.687 145.345C255.034 143.133 256.637 141.038 255.386 137.879C258.555 133.703 262.864 136.828 266.127 135.613C266.9 138.104 266.489 140.395 263.933 141.126L270.222 139.856C269.686 146.248 272.75 146.174 266.517 150.409L272.333 148.455C278.728 150.123 272.018 153.698 270.431 155.796L280.552 156.906C284.202 153.406 278.514 151.258 285.505 149.514C294.825 155.214 306.712 153.061 317.309 154.841L309.864 148.877C316.245 150.532 314.987 140.323 316.963 135.94C322.842 136.921 330.767 136.46 335.749 139.04C330.067 143.99 332.394 151.433 337.681 155.856C349.625 156.656 346.7 145.572 353.354 141.966C348.163 154.641 361.663 146.266 360.485 153.135C375.63 152.689 390.851 148.135 406.433 148.401C406.133 146.571 401.666 144.654 404.405 142.76C410.142 140.768 412.857 145.936 413.634 148.426C421.044 147.298 425.31 143.326 427.765 139.615C424.548 140.828 424.263 139.027 424.869 135.584C432.259 134.491 430.183 142.972 437.211 137.107C439.028 143.893 429.411 140.484 430.066 147.087C436.581 147.6 440.678 144.758 445.451 141.443C446.507 145.754 441.078 142.459 444.655 146.028C454.747 143.069 466.916 138.69 474.504 136.497L476.492 142.158C481.336 141.846 484.545 140.658 486.795 138.097C489.391 140.342 487.334 141.758 484.814 142.46C491.293 143.039 499.293 138.571 502.975 138.103C502.349 141.521 499.291 138.589 498.189 141.332C506.28 142.849 516.693 131.789 521.915 139.254C521.238 140.044 520.463 140.411 519.686 140.309C525.495 140.454 531.304 139.986 537.09 138.909C542.853 138.009 548.765 136.936 555.28 136.882C567.068 143.982 559.324 128.249 571.086 129.428C570.793 144.61 587.05 130.972 591.938 133.984L590.427 131.707C593.412 128.786 596.869 128.779 600.064 130.047C602.883 131.237 605.6 133.284 608.125 136.12C613.208 136.937 618.309 137.185 623.405 136.864C628.885 136.457 634.384 135.282 638.888 132.471L637.016 135.578C644.398 132.003 648.691 137.092 656.087 133.588C655.834 134.716 653.055 136.397 655.789 137.681C660.092 138.603 664.415 139.298 668.757 139.817C673.099 140.336 677.455 140.66 681.808 140.966C686.167 141.245 690.537 141.399 694.917 141.479L708.059 141.636C725.582 141.77 743.139 141.785 760.197 145.011C764.274 145.801 768.412 146.603 772.609 147.416C774.705 147.827 776.82 148.201 778.937 148.64C781.053 149.079 783.182 149.518 785.323 149.961C793.88 151.743 802.647 153.382 811.472 155.33C820.328 157.171 829.304 159.037 838.337 160.915C847.461 162.845 856.679 164.741 866.085 166.547C884.821 170.147 904.103 173.247 923.273 174.839C942.021 176.577 960.801 176.361 979.538 174.193C979.538 174.193 981.794 170.324 984.979 164.106C988.899 156.446 992.573 148.274 995.978 139.641C997.835 134.919 999.56 129.985 1001.15 124.862C1002.62 120.135 1003.92 115.176 1005.01 110.032C1007.02 100.416 1007.73 91.609 1006.5 85.202" fill="#FAF7EF"/>
<path d="M186.356 72.0899C186.665 72.1949 186.947 72.2969 187.305 72.4409C187 72.2195 186.68 72.1009 186.356 72.0899Z" fill="#FAF7EF"/>
<path d="M344.859 79.3399C344.111 79.303 343.361 79.3728 342.617 79.5489C343.365 79.71 344.121 79.6395 344.859 79.3399Z" fill="#FAF7EF"/>
<path d="M480.326 58.679L477.482 59.236C478.437 59.253 479.39 59.0663 480.326 58.679" fill="#FAF7EF"/>
<path d="M688.069 38.6239C687.218 34.2429 693.358 26.8819 688.696 22.6999C684.419 22.1879 681.768 22.9879 679.925 24.4199C678.437 25.6371 677.096 27.502 675.995 29.8859C673.893 33.9089 671.744 37.8409 663.015 36.6069L671.655 42.2839C671.579 34.5369 678.045 30.7199 684.932 30.6699L686.701 36.4829C685.44 37.998 684.117 39.2859 682.748 40.3319C685.283 41.2499 685.048 36.7489 688.069 38.6239" fill="#FAF7EF"/>
<path d="M682.121 40.0729C682.242 40.2049 682.399 40.3409 682.517 40.4939C682.592 40.4241 682.669 40.3702 682.749 40.3329C682.538 40.2682 682.328 40.1814 682.121 40.0729" fill="#FAF7EF"/>
<path d="M844.523 1529.66C844.363 1529.58 844.221 1529.39 844.119 1529.13C844.018 1528.86 843.964 1528.53 843.965 1528.2C843.597 1528.39 843.246 1528.5 842.869 1528.74L844.523 1529.66Z" fill="#FAF7EF"/>
<path d="M948.571 1481.12C948.632 1481.12 948.694 1481.11 948.755 1481.09C948.548 1480.57 948.409 1479.94 948.35 1479.28C948.107 1480.42 948.107 1480.42 948.571 1481.12Z" fill="#FAF7EF"/>
<path d="M922.052 1492.63C921.613 1492.08 921.203 1491.44 920.827 1490.73C920.82 1491.43 921.339 1492.05 922.052 1492.63Z" fill="#FAF7EF"/>
<path d="M858.373 1533.62C857.262 1532.77 856.138 1531.72 854.978 1530.71C855.308 1532.45 856.583 1534.22 858.373 1533.62Z" fill="#FAF7EF"/>
<path d="M925.43 1495.28C924.553 1494.34 923.112 1493.52 922.052 1492.63C923.09 1493.93 924.235 1494.82 925.43 1495.28Z" fill="#FAF7EF"/>
<path d="M997.671 1484.64C996.96 1483.85 996.219 1483.19 995.456 1482.65C995.375 1483.07 995.22 1483.33 995.202 1483.87L997.671 1484.64Z" fill="#FAF7EF"/>
<path d="M7.13081 1557.81C9.08085 1556.97 9.40457 1555.57 9.10037 1553.87C8.6073 1555.49 7.93178 1556.84 7.13081 1557.81Z" fill="#FAF7EF"/>
<path d="M56.662 1560.87C56.2471 1561.16 55.8491 1561.54 55.4753 1562.01C56.2914 1561.61 56.8692 1561.1 56.662 1560.87Z" fill="#FAF7EF"/>
<path d="M28.7463 1530.29C28.7178 1529.56 28.605 1528.85 28.4173 1528.23C28.2072 1528.81 28.2681 1529.5 28.7463 1530.29Z" fill="#FAF7EF"/>
<path d="M417.062 1492.01L415.799 1490.15C415.928 1490.63 416.109 1491.05 416.327 1491.37C416.546 1491.7 416.797 1491.91 417.062 1492.01" fill="#FAF7EF"/>
<path d="M489.314 1485.69C489.541 1485.71 489.744 1485.71 489.957 1485.72C489.744 1485.7 489.543 1485.69 489.314 1485.69Z" fill="#FAF7EF"/>
<path d="M491.456 1485.79C490.936 1485.74 490.454 1485.75 489.956 1485.72C490.452 1485.88 490.957 1485.91 491.456 1485.79" fill="#FAF7EF"/>
<path d="M999.386 1495.11C1001.41 1492.06 1005.98 1491.48 1006.37 1487.4L997.672 1484.64C1000.61 1487.96 1001.9 1492.55 999.387 1495.11" fill="#FAF7EF"/>
<path d="M246.513 1619.03C249.416 1619.07 250.916 1618.61 251.706 1617.85C249.928 1618.17 248.105 1618.4 246.38 1618.83L246.513 1619.03Z" fill="#FAF7EF"/>
<path d="M314.564 1589.73C314.473 1589.85 314.369 1589.99 314.289 1590.1C314.435 1590.08 314.55 1589.97 314.702 1589.94L314.564 1589.73Z" fill="#FAF7EF"/>
<path d="M241.012 1622.34C240.598 1622.85 240.231 1623.5 239.929 1624.27C241.037 1624.27 241.171 1623.44 241.012 1622.34Z" fill="#FAF7EF"/>
<path d="M829.828 1545.23C829.421 1545.54 829.006 1545.81 828.585 1546.04C829.018 1545.91 829.438 1545.64 829.828 1545.23Z" fill="#FAF7EF"/>
<path d="M310.608 1583.53L314.564 1589.73C315.198 1588.84 315.842 1587.93 316.684 1586.87C317.746 1582.37 312.773 1582.3 310.607 1583.52" fill="#FAF7EF"/>
<path d="M241.012 1622.34C242.344 1620.4 244.214 1619.41 246.38 1618.83L244.268 1615.39C238.421 1614.89 240.652 1619.59 241.012 1622.34" fill="#FAF7EF"/>
<path d="M2.50503 1540.79C3.11978 1541.61 3.06904 1542.56 2.73022 1543.55C2.27933 1544.69 1.75259 1545.7 1.16533 1546.54C-0.0583206 1548.5 -0.933358 1550.2 1.81864 1550.77C3.34812 1548.28 4.90584 1545.8 6.49188 1543.31C5.74745 1546.75 8.54628 1550.8 9.10058 1553.87C10.0268 1550.43 8.47652 1547.63 7.34549 1544.51C6.22422 1541.39 5.51154 1537.94 8.38931 1533.2C9.05135 1531.11 10.5066 1530.2 12.0944 1530.02C13.5807 1529.91 15.068 1530.18 16.5214 1530.83C11.4264 1529.41 16.6638 1524.43 18.7986 1521.97C21.9377 1524.78 27.0862 1523.75 28.4176 1528.23C28.9495 1526.67 31.4441 1525.84 33.1134 1526.7L33.186 1529C37.0739 1527.27 31.9838 1526.69 33.0485 1524.37C34.4501 1524.08 36.1866 1525.24 38.1225 1526.47C40.1639 1527.95 42.298 1528.83 44.4601 1529.07C39.9292 1528.95 36.0545 1531.94 32.7789 1534.25C36.7492 1536.57 36.2348 1539.47 34.5271 1542.52C33.6725 1544.05 32.5176 1545.61 31.4558 1547.16C30.5132 1548.43 29.6724 1549.98 28.9636 1551.78C29.7568 1551.46 30.4925 1551.11 31.1818 1550.75C31.8775 1550.4 32.5283 1550.04 33.145 1549.65C34.3799 1548.89 35.4811 1548.05 36.5532 1547.17C38.7031 1545.44 40.7102 1543.47 43.4759 1541.82C46.5555 1544.51 46.1445 1548.71 44.8034 1552.32C43.4622 1555.93 41.186 1558.92 40.3865 1559.22C43.4106 1557.64 46.3721 1555.59 49.2455 1553.09C52.0394 1550.73 54.576 1548.6 56.2476 1547.49C51.199 1555.96 51.7279 1558.87 47.4154 1565.74C48.2036 1566.92 49.1189 1567.69 50.0831 1567.98C50.7728 1568.14 51.4698 1567.87 52.0819 1567.2C53.2655 1565.95 54.2376 1563.6 55.4788 1562.02C54.1211 1562.7 52.0897 1563.05 51.7504 1561.22C57.1871 1562.64 57.3358 1548.69 60.7693 1543.06C64.6465 1547.33 72.449 1550.25 71.1103 1558.28L71.8996 1549.62C77.035 1548.31 74.0144 1554.46 74.4922 1557.41C76.9297 1551.8 75.4672 1542.92 84.1108 1541.96C81.2993 1555.66 91.4838 1544.47 89.8088 1557.11C93.7888 1556.92 96.4428 1550.27 100.375 1552.46C104.027 1560.47 92.1118 1568.41 89.9853 1565.88C84.3433 1565.29 91.3888 1560.19 89.1248 1559.96L83.3293 1562.86C86.0296 1566.05 91.5107 1570.11 90.1189 1575.78C95.8895 1574.09 86.4211 1568.98 92.8036 1566.76L96.0528 1570.63C102.464 1568.46 95.9393 1560.69 104.038 1560.47C97.9663 1565.57 112.661 1562.13 111.01 1571.26C112.78 1559.78 125.52 1572.55 128.449 1563.62L124.509 1560.16L124.79 1565.46C120.13 1564.84 115.875 1567.18 111.389 1564.29C115.657 1560.76 111.333 1554.38 116.167 1551.48C125.278 1546.23 117.562 1558.08 118.732 1558.24L126.073 1553.36L122.264 1547.61C125.293 1547.08 128.337 1547.02 131.371 1547.42C134.686 1547.79 138.196 1548.56 141.723 1549.62C151.364 1558.52 139.591 1555.76 146.296 1563.69C150.02 1561.85 149.565 1558.85 154.279 1560.64C152.101 1556.84 149.449 1561.18 147.693 1560.36C146.318 1552.59 156.788 1558.65 157.178 1551.69C158.803 1554.82 158.055 1557.65 156.105 1560.33C164.616 1559.1 172.339 1561.79 174.363 1571.33L178.976 1563.1C192.708 1568.75 168.362 1569.48 179.584 1577.18C184.403 1578.89 189.286 1579.44 191.831 1576.21L187.612 1575.17C191.408 1570.91 191.546 1567.47 197.074 1565.13C200.653 1566.62 198.049 1572.2 203.021 1568.02C213.724 1574.84 205.059 1582.19 202.362 1590.08C210.162 1596.08 196.375 1606.35 202.383 1603.48L201.077 1601.26L210.896 1590.89C203.876 1579.74 206.762 1599.49 204.603 1589.11L199.896 1587.58C201.933 1582.81 212.617 1588.12 214.193 1582.59C213.991 1585.55 212.114 1592.18 207.081 1591.73L208.946 1603.2C211.744 1604.72 214.391 1597.74 215.494 1602.93C219.13 1610.73 208.025 1613.17 218.414 1617.71C229.621 1621.73 230.177 1608.09 237.734 1610.99C237.16 1608.41 235.216 1608.41 232.841 1607.71C235.689 1604.36 231.562 1600.69 236.029 1598.47C237.751 1606.19 245.932 1606.93 252.149 1607.48C250.188 1611.31 253.851 1615.78 251.706 1617.86C254.947 1617.28 257.964 1616.4 259.578 1613.21C247.395 1606.11 272.302 1608.5 263.08 1599.86C267.963 1600.66 270.751 1602.83 273.044 1605.34C275.338 1607.84 277.139 1610.71 280.05 1612.99C279.49 1615.21 268.367 1616.39 276.877 1620.51C287.478 1613.81 275.879 1609.47 284.326 1601.01L278.251 1597.56C278.158 1587.98 289.269 1596.38 291.027 1594.46C294.732 1597.29 285.457 1596.55 288.789 1603.41C294.436 1606.13 297.744 1600.49 301.199 1604.38C297.185 1610.48 299.646 1608.16 295.16 1613.51C308.794 1614.71 293.967 1620.98 304.136 1626C307.527 1625.08 305.768 1619.26 311.01 1621.19C308.319 1613.96 308.858 1611.7 300.282 1610.7C303.92 1600.9 311.429 1614.15 317.794 1608.62C313.042 1607.41 316.413 1606.48 311.127 1607.51C310.932 1599.03 309.107 1597.55 314.288 1590.12C308.617 1591.88 305.641 1600.74 297.83 1597.52C296.211 1588.76 308.009 1591.82 308.79 1580.7C313.068 1575.44 322.335 1581.01 326.482 1585.52C334.536 1579.25 343.949 1579.79 350.284 1570.24C355.662 1573.94 369.854 1565.28 380.125 1568.86C381.518 1573.91 392.785 1572.82 386.18 1577.9C387.147 1576.33 395.827 1575.86 393.725 1571.24C392.78 1572.82 391.849 1571.44 389.976 1571.62L391.861 1565.51C396.785 1568.35 402.654 1560.77 407.331 1564.73C408.745 1569.78 398.199 1567.48 401.241 1573.48C406.187 1564.53 425.09 1561.33 430.975 1565.52C434.962 1566.92 435.246 1574.66 436.907 1575.57L443.69 1575.15C444.427 1577.67 444.462 1580.64 445.651 1583.82C448.955 1585.67 451.285 1583.16 453.384 1581.82C462.127 1587.08 457.288 1593.22 452.625 1598.21L447.67 1595.45C443.935 1598.84 438.723 1597.21 441.638 1604.29C444.202 1603.62 444.18 1600.68 445.117 1599.09L447.976 1603.2C451.013 1600.24 459.242 1598.92 458.471 1593.44C464.393 1597.52 471.374 1592.94 476.622 1597.49C473.028 1593.86 477.7 1591.79 476.692 1587.47L470.331 1585.67C475.472 1584.26 482.911 1580.42 487.667 1584.22C487.026 1587.63 486.814 1588.77 489.212 1592.17C485.848 1587.41 498.239 1586.16 490.869 1580.07C488.011 1582.02 484.979 1582.68 481.985 1581.99C479.772 1574.47 485.376 1573.78 488.564 1569.62C492.51 1568 500.193 1565.85 505.502 1563.3C508.809 1565.09 509.694 1573.5 515.437 1568.62C508.27 1561.46 522.405 1556.9 524.338 1549.59C529.786 1552.89 533.271 1543.51 537.613 1549.57C535.355 1552.14 526.944 1551.81 524.748 1557.32C524.395 1562.56 526.486 1571.19 518.122 1573.83C528.111 1576.62 524.048 1569.41 528.673 1567.33L525.241 1568C526.818 1565.94 523.914 1561.89 526.954 1561.83C538.671 1563.94 540.691 1569.53 548.584 1576.22C546.839 1572.39 550.486 1568.88 552.355 1568.62C559.96 1573.46 552.189 1579.78 556.831 1587.66C559.518 1582.82 564.708 1584.3 562.967 1580.46C565.989 1580.38 564.412 1582.47 566.566 1584.01C568.539 1579.63 570.814 1577.08 575.008 1577.21C574.618 1579.5 574.016 1582.92 570.003 1581.65C574.501 1583.6 576.123 1591.53 574.15 1595.91L566.818 1592.9C563.454 1598.23 573.66 1595.24 573.357 1600.47C570.109 1601.69 567.679 1598.33 565.605 1599.76C567.645 1605.41 574.032 1600.01 577.761 1599.46C583.644 1600.46 581.466 1605.97 581.549 1608.94C591.588 1600.02 570.02 1598.75 579.369 1590.31C582.921 1583.84 591.826 1584.75 598.089 1583.44C592.73 1576.06 598.715 1572.94 605.171 1570.48C596.76 1570.27 603.04 1561.89 593.151 1566.71L592.971 1560.8C597.179 1560.91 602.152 1563.5 606.356 1563.63C605.478 1565.23 606.45 1566.56 605.07 1567.53L617.599 1564.91L616.318 1568.81C624.034 1569.48 633.512 1574 638.115 1571.82C634.396 1572.37 631.184 1566.56 635.086 1564.84C637.344 1562.28 641.45 1559.42 644.962 1559.99C646.807 1566.77 660.098 1566.61 651.685 1573.47C662.53 1569.97 658.53 1568.7 668.895 1564.54L661.953 1566.33C661.086 1560.9 666.864 1551.83 660.22 1548.39C668.04 1544.96 663.066 1535.31 673.537 1534.11C677.781 1537.41 672.251 1545.09 666.376 1546.46C669.333 1546.9 672.019 1549.88 675.083 1546.14C677.312 1550.62 669.499 1554.04 669.792 1555.85C675.17 1556.16 669.695 1552.9 674.772 1551.39C683.674 1545.21 680.42 1560.56 688.932 1556.68C687.071 1556.95 683.764 1555.23 686.007 1552.66C697.437 1552.79 692.375 1547.23 700.685 1544.5C705.356 1552.36 703.275 1560.85 710.772 1562.69L706.59 1562.57C709.323 1566.34 712.549 1568.32 715.842 1568.23C731.47 1561.5 744.431 1549.56 760.613 1543.58L754.835 1545.51C752.902 1542.8 759.671 1542.22 759.596 1539.25L763.175 1542.84C764.211 1537.12 755.105 1537.29 757.304 1531.79C758.035 1532.52 758.872 1532.66 759.653 1532.2L756.329 1530.45C763.857 1532.35 769.93 1522.2 775.527 1531.48C760.815 1532.38 773.114 1548.13 758.721 1550.89C766.347 1548.69 760.021 1557 760.784 1559.51C764.778 1560.8 762.783 1555.14 767.263 1557.09C767.117 1561.21 757.426 1564.82 761.695 1567.91C762.237 1561.53 766.222 1562.82 768.209 1558.45C771.514 1560.22 768.088 1562.55 769.529 1564.59C771.377 1564.33 772.487 1561.57 774.131 1562.46L772.835 1566.37C782.025 1572.16 775.714 1560.4 786.224 1562.29C786.582 1557.06 783.341 1558.23 778.945 1559.21C776.833 1547.63 792.665 1546.95 791.953 1534.45C801.97 1532.7 789.25 1539.24 797.719 1542.58C802.297 1550.49 791.349 1550.84 789.126 1556.35L797.859 1561.47C794.788 1571.5 789.377 1568.18 787.709 1577.31C794.224 1577.91 793.478 1575.39 800.15 1571.92C789.536 1564.03 804.907 1565.74 798.911 1555.78C803.847 1558.46 802.255 1560.53 809.471 1560.7C804.858 1562.8 809.161 1568.91 803.107 1568.95C812.857 1568.42 810.259 1566.15 820.012 1565.64C823.178 1558.56 810.31 1556.14 822.137 1551.28C824.678 1551.29 824.131 1553.97 822.644 1553.91C830.981 1556.96 821.08 1544.99 826.422 1541.5C830.112 1540.73 831.378 1543.58 829.829 1545.23C835.411 1541.44 832.462 1536.6 836.16 1535.11L834.507 1534.19C836.12 1532.16 832.013 1521.9 839.981 1521.68C845.79 1521.86 849.157 1554.76 849.242 1557.15C853.804 1554.82 851.952 1528.1 854.98 1530.71C854.702 1529.3 855.082 1527.91 856.451 1527.93C864.175 1525.93 859.341 1544.07 862.161 1545.23C872.972 1549.2 867.511 1553.79 879.712 1553.91L860.606 1519.31C861.288 1515.89 861.727 1510.66 858.663 1510.63C858.24 1515.86 853.101 1520.15 848.389 1519.17C847.156 1513.03 861.273 1512.92 853.441 1506.02C856.277 1507.18 860.285 1505.64 863.811 1506.35C860.088 1512.69 875.127 1508.05 868.803 1515.04C876.563 1514.52 880.988 1515.53 885.253 1516.05C890.451 1516.78 895.673 1516.32 900.823 1514.7C899.393 1518.54 903.356 1546.65 883.612 1553.91L872.643 1545.51C863.268 1549.43 889.299 1525.87 887.419 1531.97C899.155 1522.57 912.096 1558.85 926.025 1545.51C923.716 1542.02 934.057 1548.88 934.8 1545.51C929.148 1545.99 931.349 1520.63 919.15 1524.15C920.121 1519.62 923.407 1521.54 925.319 1518.41C927.01 1513.45 921.081 1518.07 919.204 1515.26C924.664 1512.92 924.186 1512.22 927.544 1508.23C930.334 1512.45 935.162 1540 937.238 1544.65C950.415 1546.59 944.046 1512.12 954.649 1514.67C948.77 1513.23 957.159 1520.01 950.807 1517.9L954.343 1518.75C944.773 1525.37 922.06 1537.04 923.1 1549.15C930.611 1548.56 943.32 1529.19 952.484 1529.59L951.62 1547.15C958.198 1548.19 952.033 1528.89 953.707 1526.92C961.331 1523.46 962.643 1539.27 968.219 1531.16L951.89 1541.65C957.873 1537.21 959.123 1527.67 960.927 1519.79C966.181 1517.24 973.164 1517.33 980.679 1517.54C988.197 1517.82 996.242 1518.16 1003.68 1515.96C999.807 1511.34 998.627 1511.04 993.179 1510.18C996.353 1499.68 998.474 1501.43 996.391 1491.93L989.719 1490.77L990.25 1480.79C992.024 1480.81 993.784 1481.44 995.456 1482.65C996.794 1476.49 1005.53 1485.58 1006.39 1479.66L1000.61 1479.92C998.14 1474.5 1004.85 1475.67 1009 1474.38C1005.62 1467.52 996.479 1473.46 988.316 1473.11C988.67 1476.79 980.104 1483.48 987.975 1484.96C987.619 1489.04 982.775 1490.73 979.67 1490.53C981.418 1488.6 974.219 1479.07 981.718 1476.75C974.416 1480.89 978.598 1476.58 970.647 1478.18C971.896 1475.51 956.997 1477.17 958.352 1468.59C955.671 1472.08 957.809 1481.33 948.755 1481.09C949.705 1484.17 952.682 1486.1 954.536 1488.01C956.393 1489.95 957.12 1491.84 953.59 1494.78L958.178 1491.16C964.309 1494.46 956.143 1497.21 964.191 1500.38C961.81 1499.79 956.765 1502.71 955.903 1498.31C957.337 1511.11 943.472 1503.69 942.629 1512.98C941.02 1509.05 938.664 1508.49 934.139 1509.21C934.909 1505.81 932.579 1502.31 936.164 1500.18C938.992 1501.43 941.147 1500.17 944.188 1503.26C943.027 1490.54 932.76 1498.42 925.433 1495.28C926.433 1496.35 926.678 1497.58 924.543 1499.27C920.08 1497.08 910.125 1494.27 913.236 1488.44L901.718 1488.54L890.22 1488.77C890.212 1485.8 893.535 1487.69 894.967 1486.8L882.163 1485.88C879.292 1481.72 886.645 1482.09 888.066 1478.25L878.799 1478.07L880.21 1474.23C877.843 1476.64 867.173 1477.46 864.756 1471.05C859.658 1471.81 857.077 1475.42 854.08 1478.07C851.082 1480.72 847.666 1482.39 840.89 1479.32C841.534 1472.95 848.672 1477.26 851.957 1473.22C849.321 1470.88 841.085 1475.23 839.826 1469.08C829.917 1472.48 830.783 1483.87 825.919 1490.01C817.904 1490.25 825.131 1484.55 824.849 1482.72C822.481 1482.25 818.43 1493.93 816.415 1485.27C812.479 1489.85 810.224 1495.33 815.909 1497.57C811.667 1497.39 805.602 1500.37 804.49 1503.13C808.061 1493.76 799.703 1499.29 799.33 1491.55C792.924 1489.77 778.749 1487.27 772.643 1497.35L774.514 1487.08L767.009 1488.11C761.462 1481.82 773.668 1481.59 777.433 1481.11C767.263 1479.84 760.481 1480.48 751.313 1480.65C753.966 1482.87 752.363 1484.96 753.614 1488.12C750.445 1492.3 746.136 1489.17 742.873 1490.39C742.1 1487.89 742.511 1485.6 745.067 1484.87L738.778 1486.14C739.314 1479.75 736.25 1479.82 742.483 1475.59L736.667 1477.54C730.272 1475.88 736.982 1472.3 738.569 1470.2L728.448 1469.09C724.798 1472.59 730.486 1474.74 723.495 1476.48C714.175 1470.78 702.288 1472.94 691.691 1471.16L699.136 1477.12C692.755 1475.47 694.013 1485.68 692.037 1490.06C686.158 1489.08 678.233 1489.54 673.251 1486.96C678.933 1482.01 676.606 1474.57 671.319 1470.14C659.375 1469.34 662.3 1480.43 655.646 1484.03C660.837 1471.36 647.337 1479.73 648.515 1472.86C633.37 1473.31 618.149 1477.86 602.567 1477.6C602.867 1479.43 607.334 1481.34 604.595 1483.24C598.858 1485.23 596.143 1480.06 595.366 1477.57C587.956 1478.7 583.69 1482.67 581.235 1486.38C584.452 1485.17 584.737 1486.97 584.131 1490.41C576.741 1491.51 578.817 1483.03 571.789 1488.89C569.972 1482.11 579.589 1485.51 578.934 1478.91C572.419 1478.4 568.322 1481.24 563.549 1484.56C562.493 1480.24 567.922 1483.54 564.345 1479.97C554.253 1482.93 542.084 1487.31 534.496 1489.5L532.508 1483.84C527.664 1484.15 524.455 1485.34 522.205 1487.9C519.609 1485.66 521.666 1484.24 524.186 1483.54C517.707 1482.96 509.707 1487.43 506.025 1487.9C506.651 1484.48 509.709 1487.41 510.811 1484.67C502.72 1483.15 492.307 1494.21 487.085 1486.74C487.762 1485.95 488.537 1485.59 489.314 1485.69C483.505 1485.55 477.696 1486.01 471.91 1487.09C466.147 1487.99 460.235 1489.06 453.72 1489.12C441.932 1482.02 449.676 1497.75 437.914 1496.57C438.207 1481.39 421.95 1495.03 417.062 1492.01L418.573 1494.29C415.588 1497.21 412.131 1497.22 408.936 1495.95C406.117 1494.76 403.4 1492.71 400.875 1489.88C395.792 1489.06 390.691 1488.81 385.595 1489.13C380.115 1489.54 374.616 1490.72 370.112 1493.53L371.984 1490.42C364.602 1494 360.309 1488.91 352.913 1492.41C353.166 1491.28 355.945 1489.6 353.211 1488.32C348.908 1487.4 344.585 1486.7 340.243 1486.18C335.901 1485.66 331.545 1485.34 327.192 1485.03C322.833 1484.75 318.463 1484.6 314.083 1484.52L300.941 1484.36C283.418 1484.23 265.861 1484.21 248.803 1480.99C244.726 1480.2 240.588 1479.4 236.391 1478.58C234.295 1478.17 232.18 1477.8 230.063 1477.36C227.947 1476.92 225.818 1476.48 223.677 1476.04C215.12 1474.26 206.353 1472.62 197.528 1470.67C188.672 1468.83 179.696 1466.96 170.663 1465.08C161.539 1463.15 152.321 1461.26 142.915 1459.45C124.179 1455.85 104.897 1452.75 85.7269 1451.16C66.9786 1449.42 48.1995 1449.64 29.4619 1451.81C29.4619 1451.81 27.2057 1455.67 24.0213 1461.89C20.1015 1469.55 16.4274 1477.72 13.0221 1486.36C11.1649 1491.08 9.4395 1496.01 7.85443 1501.14C6.37668 1505.86 5.08329 1510.82 3.98613 1515.97C1.98197 1525.58 1.26971 1534.39 2.49872 1540.8" fill="#FAF7EF"/>
<path d="M822.644 1553.91C822.335 1553.8 822.053 1553.7 821.695 1553.56C822 1553.78 822.32 1553.9 822.644 1553.91Z" fill="#FAF7EF"/>
<path d="M664.141 1546.66C664.889 1546.7 665.639 1546.63 666.383 1546.45C665.635 1546.29 664.879 1546.36 664.141 1546.66Z" fill="#FAF7EF"/>
<path d="M528.674 1567.32L531.518 1566.76C530.563 1566.75 529.61 1566.93 528.674 1567.32" fill="#FAF7EF"/>
<path d="M320.931 1587.37C321.782 1591.76 315.642 1599.12 320.304 1603.3C324.581 1603.81 327.232 1603.01 329.075 1601.58C330.563 1600.36 331.904 1598.5 333.005 1596.11C335.107 1592.09 337.256 1588.16 345.985 1589.39L337.345 1583.71C337.421 1591.46 330.955 1595.28 324.068 1595.33L322.299 1589.52C323.56 1588 324.883 1586.71 326.252 1585.67C323.717 1584.75 323.952 1589.25 320.931 1587.37" fill="#FAF7EF"/>
<path d="M326.879 1585.93C326.758 1585.79 326.601 1585.66 326.483 1585.5C326.408 1585.57 326.331 1585.63 326.251 1585.67C326.462 1585.73 326.672 1585.82 326.879 1585.93" fill="#FAF7EF"/>
</svg>
