<svg width="638" height="536" viewBox="0 0 638 536" fill="none" xmlns="http://www.w3.org/2000/svg">
<path d="M0.185547 535.568L548.683 535.568L548.683 -0.256867L0.185547 -0.256866L0.185547 535.568ZM29.6741 414.253C29.6761 412.092 30.3186 409.981 31.5203 408.185C32.722 406.39 34.4291 404.991 36.4257 404.166C38.4223 403.34 40.6188 403.125 42.7375 403.548C44.8563 403.971 46.8021 405.012 48.3291 406.54C49.8561 408.069 50.8957 410.016 51.3165 412.135C51.7372 414.254 51.5203 416.45 50.693 418.446C49.8658 420.442 48.4654 422.148 46.6689 423.348C44.8724 424.548 42.7604 425.188 40.5999 425.188C37.7011 425.186 34.9218 424.033 32.873 421.982C30.8242 419.932 29.6736 417.151 29.6741 414.253V414.253ZM40.5999 139.819C38.4396 139.817 36.3284 139.175 34.5329 137.974C32.7375 136.772 31.3385 135.066 30.5128 133.069C29.6871 131.073 29.4716 128.877 29.8937 126.758C30.3158 124.64 31.3565 122.694 32.8843 121.166C34.412 119.639 36.3583 118.599 38.477 118.177C40.5958 117.756 42.7919 117.972 44.7879 118.798C46.7839 119.624 48.4902 121.024 49.6911 122.82C50.8919 124.615 51.5335 126.727 51.5347 128.887C51.5347 131.786 50.3839 134.566 48.3352 136.616C46.2865 138.667 43.5075 139.82 40.6089 139.823" fill="#F9F6ED"/>
<path d="M587.3 520.686C587.541 521.108 587.839 521.495 588.186 521.835C587.875 521.045 587.48 520.485 587.3 520.686Z" fill="#FAF7EF"/>
<path d="M533.977 171.676L532.531 172.898C532.851 172.82 533.147 172.669 533.398 172.457C533.649 172.245 533.847 171.977 533.977 171.676" fill="#FAF7EF"/>
<path d="M529.15 101.723C529.165 101.503 529.168 101.307 529.171 101.1C529.156 101.307 529.153 101.5 529.15 101.723Z" fill="#FAF7EF"/>
<path d="M529.219 99.6463C529.181 100.146 529.188 100.617 529.168 101.1C529.292 100.625 529.31 100.129 529.219 99.6463Z" fill="#FAF7EF"/>
<path d="M632.121 336.854C632.175 334.041 631.831 332.588 631.243 331.823C631.478 333.546 631.643 335.311 631.967 336.982L632.121 336.854Z" fill="#FAF7EF"/>
<path d="M609.556 270.947L609.846 271.214C609.826 271.071 609.74 270.961 609.717 270.814L609.556 270.947Z" fill="#FAF7EF"/>
<path d="M634.688 342.181C635.126 342.612 635.633 342.968 636.188 343.233C636.18 342.158 635.535 342.027 634.688 342.181Z" fill="#FAF7EF"/>
<path d="M604.733 274.779L609.556 270.947C608.874 270.335 608.175 269.71 607.356 268.894C603.884 267.864 603.8 272.681 604.735 274.779" fill="#FAF7EF"/>
<path d="M634.688 342.181C633.219 340.806 632.26 338.974 631.967 336.983L629.295 339.028C628.95 344.688 632.569 342.526 634.693 342.182" fill="#FAF7EF"/>
<path d="M571.775 573.129C573.037 571.965 574.71 573.266 576.22 574.429C577.735 575.614 579.05 576.462 579.489 573.796C577.568 572.316 575.645 570.807 573.719 569.271C576.384 569.992 579.512 567.281 581.888 566.745C579.227 565.845 577.066 567.344 574.652 568.444C572.238 569.544 569.572 570.22 565.9 567.433C565.187 567.138 564.575 566.642 564.138 566.005C563.702 565.368 563.46 564.619 563.441 563.847C563.358 562.39 563.57 560.932 564.066 559.56C562.974 564.494 559.121 559.422 557.216 557.355C559.393 554.315 558.595 549.331 562.058 548.041C560.847 547.526 560.212 545.11 560.878 543.494L562.659 543.424C561.318 539.658 560.867 544.587 559.07 543.557C558.645 540.827 562.618 536.873 562.709 532.508C562.617 536.896 564.931 540.648 566.707 543.819C568.501 539.975 570.745 540.473 573.105 542.126C574.285 542.954 575.497 544.072 576.694 545.098C577.761 546.07 578.963 546.883 580.262 547.512C579.423 544.908 578.224 542.434 576.699 540.162C575.166 538.028 573.784 535.79 572.562 533.464C574.644 530.482 577.894 530.88 580.681 532.179C583.468 533.477 585.779 535.678 586.014 536.456C583.842 530.768 578.58 524.378 576.944 521.096C583.493 525.985 585.741 525.474 591.061 529.649C595.418 525.616 590.644 524.241 588.179 521.842C588.704 523.156 588.979 525.124 587.557 525.453C588.657 520.188 577.872 520.044 573.514 516.718C576.813 512.964 579.075 505.408 585.282 506.704L578.585 505.94C577.574 500.967 582.33 503.892 584.61 503.43C580.275 501.07 573.41 502.486 572.66 494.116C583.262 496.838 574.607 486.976 584.379 488.598C584.236 484.743 579.088 482.173 580.781 478.367C586.978 474.83 593.119 486.364 591.166 488.427C590.707 493.89 586.767 487.068 586.583 489.261L588.829 494.871C591.293 492.256 594.439 486.95 598.825 488.297C597.519 482.709 593.564 491.878 591.845 485.698L594.844 482.552C593.164 476.344 587.153 482.662 586.983 474.819C590.925 480.699 588.271 466.47 595.33 468.071C586.453 466.355 596.33 454.018 589.419 451.182L586.747 454.998L590.846 454.726C590.369 459.238 592.177 463.359 589.946 467.702C587.21 463.57 582.277 467.756 580.038 463.074C575.976 454.251 585.145 461.722 585.262 460.591L581.489 453.481L577.042 457.16C576.209 451.962 576.96 445.127 578.595 438.316C585.474 428.98 583.343 440.381 589.476 433.889C588.054 430.283 585.73 430.722 587.12 426.159C584.185 428.268 587.538 430.836 586.898 432.536C580.888 433.867 585.578 423.729 580.192 423.352C582.615 421.778 584.805 422.503 586.874 424.388C586.303 420.62 586.694 416.768 588.011 413.192C588.622 411.602 589.606 410.183 590.881 409.054C592.156 407.924 593.684 407.119 595.336 406.705L588.945 402.235C593.209 388.931 593.953 412.518 599.824 401.648C601.109 396.979 601.495 392.251 598.984 389.783L598.206 393.87C594.898 390.192 592.208 390.056 590.4 384.702C591.58 381.237 595.881 383.761 592.679 378.947C598.039 368.59 603.669 376.978 609.753 379.592C614.458 372.039 622.305 385.39 620.131 379.574L618.396 380.838L610.44 371.328C601.759 378.126 617.073 375.333 609.02 377.426L607.798 381.982C604.126 380.01 608.309 369.666 604.045 368.14C606.331 368.34 611.45 370.154 611.07 375.027L619.957 373.221C621.157 370.513 615.77 367.95 619.798 366.883C625.858 363.361 627.688 374.115 631.249 364.055C634.281 353.207 623.739 352.668 625.931 345.352C623.942 345.908 623.954 347.789 623.424 350.088C620.825 347.331 618.009 351.326 616.261 347C622.224 345.335 622.706 337.416 623.212 331.393C626.162 333.292 629.647 329.746 631.243 331.824C630.816 328.684 630.153 325.762 627.698 324.196C622.126 335.992 624.134 311.872 617.387 320.804C617.764 317.215 619.267 313.837 621.68 311.154C623.593 308.934 625.808 307.191 627.556 304.374C629.276 304.916 630.254 315.681 633.384 307.445C628.144 297.184 624.861 308.411 618.266 300.233L615.64 306.112C608.228 306.201 614.664 295.449 613.168 293.744C615.328 290.161 614.81 299.137 620.096 295.912C622.179 290.448 617.764 287.245 620.796 283.899C625.494 287.79 623.707 285.405 627.862 289.75C628.801 276.547 633.617 290.91 637.543 281.053C636.843 277.767 632.339 279.471 633.859 274.391C628.248 276.998 626.507 276.474 625.686 284.787C618.122 281.259 628.418 273.991 624.178 267.819C623.207 272.424 622.508 269.158 623.278 274.279C616.717 274.467 615.562 276.233 609.843 271.214C611.18 276.706 617.991 279.593 615.491 287.157C608.694 288.723 611.118 277.296 602.517 276.537C598.472 272.393 602.841 263.42 606.355 259.404C601.465 251.607 601.833 242.493 594.417 236.355C597.238 231.15 590.67 217.403 593.465 207.458C597.363 206.109 596.474 195.201 600.434 201.596C599.213 200.659 598.812 192.257 595.252 194.29C596.474 195.205 595.415 196.107 595.552 197.92L590.832 196.095C593.011 191.33 587.111 185.643 590.181 181.116C594.069 179.748 592.331 189.958 596.956 187.014C589.982 182.222 587.636 163.914 590.887 158.216C591.969 154.355 597.947 154.081 598.647 152.473L598.3 145.907C600.243 145.194 602.538 145.16 604.997 144.007C606.412 140.809 604.469 138.554 603.422 136.52C607.467 128.058 612.231 132.747 616.102 137.261L613.98 142.059C616.614 145.675 615.37 150.718 620.836 147.899C620.312 145.418 618.037 145.438 616.802 144.531L619.97 141.766C617.671 138.826 616.622 130.862 612.4 131.605C615.57 125.867 612.052 119.103 615.591 114.019C612.772 117.501 611.185 112.974 607.84 113.95L606.427 120.113C605.34 115.132 602.423 107.922 605.334 103.319C607.976 103.939 608.86 104.144 611.481 101.825C607.805 105.08 606.812 93.086 602.12 100.218C603.61 102.82 604.139 105.863 603.614 108.815C597.795 110.958 597.278 105.53 594.048 102.444C592.782 98.6248 591.104 91.1857 589.115 86.0447C590.494 82.8459 596.995 81.9873 593.235 76.4264C587.68 83.3647 584.183 69.674 578.534 67.8008C581.101 62.5268 573.864 59.1511 578.549 54.9468C580.543 57.1339 580.255 65.2777 584.513 67.4059C588.567 67.7488 595.245 65.7246 597.269 73.8254C599.448 64.1502 593.864 68.0847 592.265 63.6044L592.779 66.9291C591.18 65.4027 588.048 68.2136 588.01 65.2698C589.677 53.9212 593.975 51.9679 599.138 44.3279C596.18 46.0162 593.46 42.4876 593.253 40.6753C596.99 33.3151 601.891 40.8382 607.977 36.3479C604.228 33.7489 605.372 28.7209 602.403 30.4052C602.344 27.4764 603.96 29.0058 605.155 26.9206C601.771 25.0073 599.8 22.8022 599.905 18.7408C601.671 19.1176 604.317 19.7014 603.334 23.5899C604.847 19.2326 610.978 17.6622 614.363 19.5744L612.024 26.6777C616.142 29.9404 613.846 20.0493 617.893 20.3442C618.833 23.4909 616.228 25.842 617.328 27.8522C621.702 25.878 617.539 19.6864 617.113 16.0738C617.894 10.376 622.156 12.4832 624.453 12.4042C617.567 2.67598 616.556 23.5749 610.036 14.5144C605.047 11.0698 605.754 2.44708 604.731 -3.61357C599.034 1.57342 596.613 -4.22035 594.702 -10.4709C594.545 -2.32909 588.064 -8.40871 591.795 1.16558L587.222 1.3395C587.309 -2.73493 589.303 -7.54905 589.404 -11.6195C590.644 -10.7688 591.674 -11.7094 592.427 -10.3729L590.391 -22.5073L593.407 -21.2657C593.938 -28.7388 597.431 -37.9193 595.748 -42.3776C596.178 -38.7789 591.675 -35.6652 590.35 -39.4447C588.372 -41.6329 586.164 -45.6073 586.602 -49.007C591.847 -50.7953 591.73 -63.6603 597.031 -55.5155C594.325 -66.0114 593.352 -62.1399 590.134 -72.181L591.512 -65.4586C587.314 -64.62 580.303 -70.2178 577.64 -63.7853C574.986 -71.3583 567.523 -66.5472 566.596 -76.6803C569.145 -80.7887 575.087 -75.4338 576.149 -69.744C576.489 -72.6069 578.793 -75.2068 575.897 -78.1747C579.358 -80.3319 582.01 -72.7658 583.408 -73.0487C583.644 -78.2567 581.129 -72.9487 579.96 -77.8718C575.172 -86.4945 587.049 -83.3407 584.045 -91.5835C584.257 -89.7842 582.922 -86.5855 580.933 -88.7506C581.033 -99.8193 576.742 -94.9172 574.635 -102.965C580.73 -107.481 587.292 -105.466 588.727 -112.719L588.627 -108.67C591.738 -111.489 593.09 -114.692 593.019 -117.625C587.799 -132.766 578.525 -145.315 573.96 -160.987L575.445 -155.389C573.346 -153.517 572.911 -160.073 570.617 -160.001L573.397 -163.466C568.979 -164.47 569.092 -155.652 564.837 -157.782C565.107 -158.088 565.282 -158.467 565.339 -158.871C565.396 -159.276 565.333 -159.688 565.158 -160.057L563.801 -156.838C565.284 -164.128 557.462 -170.015 564.612 -175.431C565.328 -161.188 577.497 -173.089 579.612 -159.152C577.93 -166.537 584.345 -160.41 586.285 -161.152C587.291 -165.018 582.91 -163.089 584.427 -167.425C587.616 -167.284 590.385 -157.899 592.784 -162.027C587.849 -162.554 588.859 -166.412 585.487 -168.337C586.857 -171.536 588.662 -168.218 590.232 -169.612C590.032 -171.402 587.892 -172.478 588.577 -174.07L591.604 -172.813C596.065 -181.71 586.983 -175.603 588.42 -185.782C584.376 -186.13 585.289 -182.99 586.055 -178.733C577.105 -176.69 576.543 -192.021 566.878 -191.328C565.511 -201.024 570.577 -188.71 573.163 -196.911C576.234 -199.129 577.825 -197.584 579.176 -195.219C580.545 -192.854 581.695 -189.667 583.82 -188.59C585.138 -191.411 586.419 -194.232 587.773 -197.047C595.519 -194.076 592.971 -188.83 600.034 -187.215C600.49 -193.525 598.524 -192.804 595.865 -199.263C589.733 -188.988 591.103 -203.869 583.379 -198.063C585.469 -202.841 587.06 -201.301 587.215 -208.287C588.824 -203.821 593.566 -207.987 593.576 -202.125C593.193 -211.562 591.434 -209.049 591.068 -218.49C585.599 -221.559 583.697 -209.1 579.966 -220.554C579.966 -223.014 582.04 -222.483 581.992 -221.043C584.326 -229.114 575.104 -219.532 572.385 -224.706C571.785 -228.279 573.977 -229.504 575.262 -228.005C572.312 -233.411 568.578 -230.555 567.415 -234.137L566.715 -232.538C565.138 -234.099 557.219 -230.126 557.019 -237.836C557.143 -243.46 560.203 -241.611 562.048 -241.694C560.218 -246.109 561.983 -249.426 564.008 -252.358C562.919 -252.089 561.842 -252.458 561.859 -253.785C560.344 -261.266 566.657 -257.903 567.567 -260.634C570.676 -271.103 557.341 -259.657 557.471 -271.476L555.206 -257.811C552.565 -258.47 548.516 -258.9 548.483 -255.929C552.53 -255.519 555.827 -250.541 555.054 -245.977C550.299 -244.782 550.266 -258.459 544.901 -250.875C545.807 -253.622 544.631 -257.505 545.19 -260.922C550.082 -257.312 546.55 -271.885 551.935 -265.756C551.23 -280.801 554.777 -282.849 551.591 -296.754C554.57 -295.37 562.226 -286.271 559.673 -279.225L556.85 -278.749C559.918 -269.672 560.276 -285.596 565.003 -283.776C557.64 -295.138 569.741 -308.05 567.653 -321.661C564.954 -319.426 563.612 -322.184 561.001 -322.903C561.368 -317.429 562.462 -318.331 558.993 -314.5C555.494 -315.442 556.994 -318.624 554.581 -320.477C550.755 -322.116 554.299 -316.371 552.119 -314.554C550.334 -319.843 549.791 -319.381 546.721 -322.636C549.97 -325.335 551.719 -324.849 555.302 -326.859C556.749 -339.616 549.636 -338.607 551.583 -348.873C550.471 -343.18 555.694 -351.302 554.082 -345.152C554.292 -346.293 554.488 -347.433 554.731 -348.576C559.875 -339.311 558.929 -324.069 568.289 -325.072C567.799 -332.346 562.851 -337.903 563.114 -346.776L564.854 -346.288C565.688 -352.657 562.57 -346.34 561.055 -347.959C558.425 -355.344 570.664 -356.612 564.423 -362.013L562.456 -354.786C559.057 -360.583 561.668 -353.205 555.584 -354.953C551.686 -365.149 556.084 -381.969 552.586 -396.351C549.036 -392.603 548.814 -391.461 548.181 -386.187C540.05 -389.261 541.384 -391.314 534.054 -389.299L533.192 -382.843L525.47 -383.359C525.496 -385.132 525.982 -386.868 526.883 -388.397C522.109 -389.696 529.094 -398.143 524.509 -398.978L524.74 -393.381C520.563 -390.991 521.43 -397.486 520.412 -401.497C515.128 -398.228 519.774 -389.384 519.546 -381.483C522.389 -381.826 527.608 -373.533 528.71 -381.148C531.858 -380.803 533.213 -376.115 533.046 -373.108C531.558 -374.802 524.15 -367.829 522.394 -375.094C525.556 -368.016 522.241 -372.071 523.435 -364.366C521.381 -365.58 522.579 -351.144 515.952 -352.456C518.643 -349.857 525.775 -351.926 525.634 -343.166C528.004 -344.085 529.488 -346.965 530.957 -348.764C532.466 -350.563 533.92 -351.263 536.195 -347.847C535.239 -349.324 534.338 -350.808 533.406 -352.292C535.997 -358.232 538.078 -350.32 540.575 -358.117C540.105 -355.81 542.335 -350.92 538.932 -350.086C548.806 -351.472 543.13 -338.051 550.32 -337.235C547.289 -335.68 546.867 -333.398 547.441 -329.019C544.812 -329.763 542.111 -327.509 540.45 -330.981C541.404 -333.719 540.418 -335.803 542.797 -338.746C532.955 -337.623 539.126 -327.689 536.688 -320.593C537.52 -321.562 538.474 -321.798 539.768 -319.73C538.058 -315.406 535.833 -305.761 531.339 -308.776L531.365 -297.615L531.586 -286.49C529.292 -286.482 530.739 -289.696 530.042 -291.082L529.383 -278.694C526.178 -275.917 526.436 -283.032 523.464 -284.407L523.353 -275.441L520.378 -276.808C522.277 -274.524 522.866 -264.179 517.895 -261.837C518.462 -256.893 521.252 -254.391 523.287 -251.485C524.398 -250.013 525.126 -248.288 525.404 -246.465C525.672 -243.827 525.279 -241.165 524.261 -238.718C519.337 -239.341 522.623 -246.24 519.525 -249.425C517.686 -246.865 521.103 -238.905 516.344 -237.687C519.002 -228.101 527.807 -228.935 532.567 -224.227C532.775 -216.472 528.353 -223.467 526.936 -223.195C526.593 -220.905 535.594 -216.972 528.898 -215.022C532.427 -211.205 536.659 -209.024 538.407 -214.528C538.251 -210.416 540.544 -204.54 542.674 -203.462C535.432 -206.923 539.689 -198.823 533.695 -198.464C532.302 -192.257 530.419 -178.55 538.225 -172.636L530.28 -174.459L531.08 -167.192C526.21 -161.82 526.054 -173.649 525.661 -177.288C524.72 -167.457 525.161 -160.864 525.284 -151.984C527.002 -154.556 528.618 -153.001 531.064 -154.214C534.289 -151.14 531.858 -146.964 532.798 -143.805C530.874 -143.059 529.1 -143.453 528.535 -145.931L529.521 -139.847C524.577 -140.366 524.637 -137.402 521.355 -143.433L522.873 -137.808C521.591 -131.621 518.818 -138.108 517.193 -139.649L516.341 -129.853C519.054 -126.322 520.706 -131.824 522.064 -125.061C517.666 -116.05 519.301 -104.51 517.919 -94.2425L522.54 -101.46C521.253 -95.2741 529.15 -96.4916 532.536 -94.5783C531.779 -88.8896 532.136 -81.2225 530.145 -76.4024C526.315 -81.9003 520.559 -79.6511 517.139 -74.5381C516.528 -62.9806 525.092 -65.7995 527.881 -59.353C518.085 -64.3881 524.551 -51.3001 519.24 -52.4427C519.586 -37.7483 523.082 -23.082 522.891 -7.95988C524.306 -8.25077 525.79 -12.5801 527.252 -9.92512C527.843 -8.15807 527.715 -6.22975 526.896 -4.55632C526.077 -2.88289 524.633 -1.59857 522.875 -0.98059C523.757 6.20563 526.82 10.329 529.684 12.7051C528.751 9.59329 530.144 9.31741 532.806 9.90619C533.641 17.0574 527.084 15.0482 531.607 21.8476C526.356 23.6029 529.008 14.2975 523.898 14.9332C523.492 21.2308 525.684 25.1993 528.241 29.8185C524.905 30.8381 527.461 25.5871 524.696 29.0478C526.984 38.822 530.407 50.6264 532.093 57.9726L527.711 59.8928C527.941 64.579 528.855 67.6828 530.828 69.86C529.086 72.372 527.995 70.3808 527.458 67.9437C526.997 74.2113 530.423 81.9493 530.807 85.5229C528.163 84.9141 530.423 81.9513 528.299 80.8827C527.144 88.7247 535.723 98.8188 529.961 103.879C529.675 103.601 529.454 103.263 529.312 102.891C529.17 102.518 529.112 102.118 529.141 101.721C528.671 113.356 531.552 123.523 531.74 136.174C526.288 147.599 538.429 140.095 537.555 151.494C525.848 151.216 536.329 166.945 533.977 171.675L535.747 170.216C540.24 175.997 535.714 183.583 532.321 187.349C531.711 192.261 531.54 197.218 531.809 202.16C532.147 207.473 532.992 212.784 535.156 217.144L532.757 215.333C535.505 222.479 531.486 226.616 534.244 233.79C533.371 233.544 532.058 230.85 531.078 233.5C530.386 237.671 529.871 241.862 529.492 246.069C529.112 250.275 528.892 254.504 528.615 258.71C528.132 267.14 528.035 275.619 528.015 284.112C528.007 288.361 528 292.608 527.993 296.853L527.944 303.22L527.673 309.54C527.258 317.958 526.603 326.334 525.396 334.6C524.813 338.555 524.221 342.567 523.621 346.638C523.311 348.669 523.058 350.725 522.703 352.771C522.348 354.818 521.99 356.875 521.632 358.943C520.204 367.219 518.788 375.674 517.41 384.249C516.737 388.538 516.06 392.855 515.378 397.198C514.737 401.539 513.916 405.909 513.217 410.293C511.724 419.129 510.258 428.055 508.861 437.163C506.073 455.306 503.675 473.978 502.447 492.541C501.103 510.683 501.27 528.906 502.947 547.02C502.947 547.02 505.94 549.205 510.744 552.289C516.849 556.188 523.166 559.743 529.665 562.94C536.998 566.589 544.668 569.518 552.567 571.687C560.004 573.627 566.815 574.318 571.77 573.127" fill="#FAF7EF"/>
<path d="M592.275 63.6123L591.851 60.8584C591.837 61.7936 591.981 62.7245 592.275 63.6123" fill="#FAF7EF"/>
<path d="M607.771 264.781C611.17 263.958 616.826 269.905 620.087 265.39C620.29 263.684 620.267 261.958 620.02 260.257C619.818 259.069 619.394 257.928 618.771 256.896C617.666 255.32 616.214 254.018 614.527 253.091C611.406 251.057 608.354 248.977 609.266 240.526L604.918 248.89C610.898 248.818 613.915 255.074 613.944 261.743L609.435 263.457C608.313 262.292 607.322 261.008 606.479 259.628C605.754 262.083 609.24 261.857 607.771 264.781" fill="#FAF7EF"/>
<path d="M606.68 259.021C606.58 259.138 606.474 259.29 606.356 259.405C606.408 259.473 606.449 259.548 606.48 259.629C606.532 259.421 606.599 259.218 606.68 259.021" fill="#FAF7EF"/>
<path d="M40.8448 114.749C38.0685 114.75 35.3548 115.574 33.0467 117.117C30.7387 118.66 28.94 120.853 27.878 123.418C26.816 125.983 26.5384 128.805 27.0803 131.528C27.6221 134.251 28.9592 136.752 30.9224 138.716C32.8855 140.679 35.3867 142.016 38.1096 142.558C40.8325 143.1 43.655 142.822 46.2202 141.76C48.7854 140.698 50.9781 138.899 52.5212 136.591C54.0643 134.283 54.8884 131.569 54.8894 128.793C54.8906 126.948 54.5281 125.122 53.8227 123.417C53.1173 121.713 52.0829 120.164 50.7785 118.859C49.4741 117.555 47.9253 116.521 46.2208 115.815C44.5163 115.11 42.6895 114.747 40.8448 114.749ZM40.6049 139.819C38.4444 139.818 36.3327 139.177 34.5366 137.976C32.7405 136.775 31.3408 135.069 30.5142 133.073C29.6877 131.077 29.4716 128.88 29.8931 126.761C30.3147 124.642 31.355 122.696 32.8825 121.168C34.4101 119.64 36.3563 118.6 38.4752 118.178C40.5941 117.756 42.7905 117.972 44.7868 118.798C46.7831 119.624 48.4896 121.023 49.6907 122.819C50.8918 124.615 51.5335 126.727 51.5347 128.887C51.5336 131.786 50.3818 134.565 48.3324 136.615C46.2829 138.665 43.5035 139.817 40.6049 139.819V139.819Z" stroke="#3D4550" stroke-width="0.999613"/>
<path d="M40.8448 400.118C38.0685 400.119 35.3548 400.943 33.0467 402.486C30.7387 404.029 28.94 406.222 27.878 408.787C26.816 411.352 26.5384 414.175 27.0803 416.898C27.6221 419.621 28.9592 422.122 30.9224 424.085C32.8855 426.048 35.3867 427.385 38.1096 427.927C40.8325 428.469 43.655 428.191 46.2202 427.129C48.7854 426.067 50.9781 424.269 52.5212 421.961C54.0643 419.653 54.8884 416.939 54.8894 414.163C54.8906 412.318 54.5281 410.491 53.8227 408.787C53.1173 407.082 52.0829 405.533 50.7785 404.229C49.4741 402.925 47.9253 401.89 46.2208 401.185C44.5163 400.479 42.6895 400.117 40.8448 400.118V400.118ZM40.6049 425.188C38.443 425.189 36.3294 424.549 34.5313 423.349C32.7332 422.149 31.3313 420.442 30.5031 418.445C29.6749 416.448 29.4574 414.251 29.8782 412.13C30.299 410.01 31.3392 408.061 32.8672 406.532C34.3951 405.003 36.3424 403.961 38.4625 403.538C40.5827 403.115 42.7806 403.331 44.7783 404.157C46.776 404.983 48.4838 406.384 49.6857 408.181C50.8876 409.978 51.5297 412.091 51.5307 414.253C51.5307 417.151 50.3799 419.931 48.3312 421.982C46.2825 424.032 43.5035 425.186 40.6049 425.188V425.188Z" stroke="#3D4550" stroke-width="0.999613"/>
</svg>
