<svg xmlns="http://www.w3.org/2000/svg" width="1001.709" height="1003.185" viewBox="0 0 1001.709 1003.185">
  <g id="carte_france_purple" data-name="carte france purple" transform="translate(-435.844 -14.454)">
    <path id="Tracé_105" data-name="Tracé 105" d="M911.708,199.733c2.046,2.9,3.657,6.291,3.622,9.855s-2.069,7.256-5.445,8.385c-1.376.47-2.917.505-4.164,1.247-4.633,2.787-.964,11.724-5.621,14.476-2.987,1.765-7.8-.364-9.784,2.482-1.752,2.516.882,5.575,1.752,8.608a5.077,5.077,0,0,1,.117,2.775c-.682,2.553-3.422,3.752-5.927,4.587a9.267,9.267,0,0,0-3.3,1.376,6.633,6.633,0,0,0-1.728,3.61,13.937,13.937,0,0,1-2.281,5.351c-2.54,3.152-7.045,3.67-11.032,4.375a116.465,116.465,0,0,0-14.617,3.929c-2.717.858-5.515,1.775-7.668,3.646s-3.469,5-2.41,7.644c.823,2.046,2.811,3.328,4.339,4.927,5.4,5.634,4.257,15.83-1.752,20.816-1.718,1.411-3.728,2.47-5.363,3.987s-2.858,3.752-2.376,5.927c.611,2.716,3.681,4.6,3.622,7.374-1.552.729-3.4-.224-4.574-1.47s-2.011-2.811-3.375-3.857c-2.94-2.235-7.2-1.306-10.666-2.587-3.564-1.317-5.892-4.9-6.739-8.609s-.435-7.562-.035-11.337a46.4,46.4,0,0,0-29.753,4.809,5.475,5.475,0,0,0-2.916-3.363c-1.53-.447-3.2-.094-4.763-.4s-3.175-1.846-2.552-3.328c.553-1.329,2.411-1.529,3.364-2.6a3.318,3.318,0,0,0-.059-4.01,8.855,8.855,0,0,0-3.458-2.552,14.336,14.336,0,0,0-6.138-1.823,5.782,5.782,0,0,0-5.351,2.964,10.858,10.858,0,0,1-1.141,2.61,4.335,4.335,0,0,1-3.152,1.176c-4.74.294-9.455-1.011-14.2-.929s-10.043,2.164-11.583,6.656c.47-4.469-3.964-7.785-8.268-9.079s-8.926-.435-13.265.671c-2.352.6-5.057,1.176-7.232.482a4.875,4.875,0,0,1-2.046-1.211,12.7,12.7,0,0,0-1.752-1.882c-1.458-.988-3.517-.317-4.846.846s-2.235,2.752-3.54,3.951a8.5,8.5,0,0,1-14.171-5.174c-.176-1.387-.011-2.8-.082-4.2a15.316,15.316,0,0,0-1.187-5.163,4.415,4.415,0,0,1,3.681-.682,34.094,34.094,0,0,0,4.021.87,3.431,3.431,0,0,0,3.457-1.729,1.123,1.123,0,0,0,.036-.893,1.423,1.423,0,0,0-.765-.611,61.938,61.938,0,0,1-7.95-4.575,2.957,2.957,0,0,1-.893-.811,3.371,3.371,0,0,1-.259-2.187,24.343,24.343,0,0,0-1.623-11.019,4.515,4.515,0,0,1-.447-1.647,3.961,3.961,0,0,1,.8-2.046c.917-1.411,2.47-2.316,3.129-3.868a9.329,9.329,0,0,0-.247-7.61c-.811-1.646-2.093-3.01-3.057-4.586s-1.588-3.528-.917-5.234c.388-.976,1.164-1.8,1.294-2.835a8.5,8.5,0,0,0-.141-1.881,15.658,15.658,0,0,1,.741-4.563,5.556,5.556,0,0,0-.495-4.469,16.126,16.126,0,0,0-2.093-1.905,2.449,2.449,0,0,1-.835-2.528c.376-.87,1.541-1.376,1.53-2.317a2.046,2.046,0,0,0-.506-1.141q-1.552-2.188-3.116-4.376a15.44,15.44,0,0,0-4.433-4.668,22.613,22.613,0,0,1-2.458-1.364,2.613,2.613,0,0,1-1.176-2.4c.177-1,1.141-1.659,1.6-2.564.8-1.6-.106-3.516-1.2-4.915s-2.458-2.788-2.646-4.563a8.753,8.753,0,0,1,.294-2.693,28,28,0,0,0,.47-8.738,5.024,5.024,0,0,0-.941-5.527c-1.093-1.118-2.634-1.623-4.01-2.365s-2.717-1.94-2.788-3.493c5.34.847,10.76,1.729,15.7,3.951a21.058,21.058,0,0,0,2.869,1.2,16.025,16.025,0,0,0,3.6.482c2.552.141,5.1.294,7.655.436a4.866,4.866,0,0,0,1.847-.129,4.291,4.291,0,0,0,1.482-1c1.258-1.164,2.422-2.54,4.045-3.115a6.727,6.727,0,0,1,4.4.2c4.574,1.575,7.655,5.762,10.431,9.726-1.917,2.281-3.834,4.574-5.75,6.856a6,6,0,0,0-1.2,1.858c-.706,2.058.9,4.186,2.657,5.48s3.858,2.375,4.775,4.352a9.439,9.439,0,0,1,.505,4.55c-.129,2.305,1.247,5.88,2.07,5.821,3.445-.235,5.245-4.845,8.667-5.233,1.729-.2,3.352.753,4.857,1.635a59.539,59.539,0,0,0,16.229,6.844,71.8,71.8,0,0,0,17.887,1.517,11.636,11.636,0,0,1,5.621.811c1.082.553,1.953,1.458,3.023,2.046a11.467,11.467,0,0,0,5.633,1.023,82.819,82.819,0,0,0,13.1-1.012c2.751-.423,5.644-1.081,7.644-3.01,1.834-1.788,2.658-4.434,4.539-6.186,4.328-4,11.4-1.34,17.076-2.928a9.417,9.417,0,0,0,5.044-3.328c-5.609-2.517-12.125-5.045-17.7-2.434a11.1,11.1,0,0,1-2.764,1.141c-2.093.353-4.011-1.141-5.621-2.529a4.317,4.317,0,0,1-1.482-1.87,4.417,4.417,0,0,1,.671-3.187c2.552-5.115,5.128-10.278,8.808-14.654s10.4-5.7,15.088-8.96q7.392-5.152,14.771-10.279c1.858-1.294,3.964-2.646,6.21-2.328a18.082,18.082,0,0,1,3.34,1.165c3,1.023,6.3.4,9.361-.447a66.179,66.179,0,0,0,36.762-26.32c.459.259.894.553,1.329.859,2.764,1.964,5,4.951,5.245,8.326a30.749,30.749,0,0,0,.153,3.139c.671,3.67,4.574,5.586,7.409,7.986,4.915,4.163,7.091,10.631,9.055,16.758,1.176,3.669,2.317,7.821.494,11.219-1.211,2.27-3.7,4.1-3.6,6.68.118,2.6,2.775,4.186,4.668,5.962a7.955,7.955,0,0,1,2.6,4.481,4.654,4.654,0,0,1-1.894,4.611c-1.012.623-2.341.776-3.14,1.67C908.921,195.287,910.414,197.874,911.708,199.733Z" transform="translate(-9.804 -4.773)" fill="#57488a" stroke="#57488a" stroke-width="1"/>
    <path id="Tracé_106" data-name="Tracé 106" d="M1091.13,151.976c.164,1.87,2.493,2.576,4.351,2.822a7.142,7.142,0,0,1-1,9.8c-3.375,2.669-8.832,1.929-11.6,5.21-2.023,2.41-1.717,5.927-1.305,9.044.682,5.092-.141,10.749,2.457,15.194a6.175,6.175,0,0,1,.659,4.445c-2.941.764-5.621-2.352-8.656-2.281a8.525,8.525,0,0,0-2.917.787q-7.3,2.911-14.617,5.845c-.659,5.045-1.094,10.843,2.387,14.548,1.905,2.035,5.034,3.67,4.822,6.445-2.423-.541-4.833-1.094-7.256-1.635a5.3,5.3,0,0,0-2.14-.177c-1.646.341-2.528,2.1-3.163,3.669-.436,1.082-.882,2.164-1.318,3.246a2.679,2.679,0,0,0-.293,1.741c.271.953,1.411,1.281,2.246,1.81,1.975,1.235,2.5,4,1.823,6.233a16.161,16.161,0,0,1-3.811,5.787c-3.187,3.563-5.5,6.433-8.691,10.008-.187-.212-.364-.423-.564-.635a89.749,89.749,0,0,0-19.6-16.77,7.325,7.325,0,0,1-1.94-1.552c-2.411-3.1,1.493-7.7.271-11.443a4.556,4.556,0,0,0-6.621-2.211c-1.67,1.176-2.4,3.41-4.152,4.445a7.96,7.96,0,0,1-3.868.752c-11.384.236-22.156.212-33.529-.435a23.558,23.558,0,0,0-8.772-6.8,13,13,0,0,0-10.855.165,6.869,6.869,0,0,1-2.152.94c-2.246.341-3.763-2.082-5.409-3.633A8.825,8.825,0,0,0,935.6,216.2c-1.682,1.011-3.14,2.634-5.092,2.763a6.612,6.612,0,0,1-2.788-.6c-2.9-1.165-4.739-3-7.009-5.163,3.375-1.129,5.409-4.833,5.445-8.385s-1.575-6.95-3.622-9.855c-1.294-1.858-2.787-4.445-1.271-6.127.8-.894,2.129-1.047,3.14-1.67a4.654,4.654,0,0,0,1.894-4.611,7.955,7.955,0,0,0-2.6-4.481c-1.893-1.775-4.55-3.363-4.668-5.962-.106-2.576,2.387-4.41,3.6-6.68,1.823-3.4.682-7.55-.494-11.219-1.964-6.128-4.14-12.6-9.055-16.758-2.835-2.4-6.738-4.316-7.409-7.986a30.749,30.749,0,0,1-.153-3.139c-.246-3.375-2.481-6.362-5.245-8.326-.435-.306-.87-.6-1.329-.859a59.553,59.553,0,0,0,4.846-8.561,5.064,5.064,0,0,1,1.881-2.529c2.106-1.152,4.375,1.165,5.668,3.188.436.681,1.235,1.516,1.894,1.035a2.465,2.465,0,0,0,.764-2.188,5.952,5.952,0,0,0-4.833-5.234c-1.059-.2-2.434-.317-2.717-1.363a2.415,2.415,0,0,1,.177-1.306c.365-1.105.741-2.222,1.105-3.329a4.705,4.705,0,0,1,.777-1.622c.858-1,2.317-1.129,3.622-1.341s2.787-.8,3.046-2.092c.247-1.153-.658-2.235-1.635-2.894a11.654,11.654,0,0,1-2.858-2.046c-1.117-1.434-.894-3.492-.317-5.21s1.458-3.387,1.493-5.2a20.288,20.288,0,0,0-.447-3.246c-.647-4.3.823-8.714.259-13.018a15.437,15.437,0,0,1-.412-4.681,11.868,11.868,0,0,1,2.175-4.245,2.2,2.2,0,0,0,.412-.894,2.357,2.357,0,0,0-.27-1.223,26.134,26.134,0,0,1-1.847-8.773q7.744-6.156,14.924-12.983a5.371,5.371,0,0,1,1.435-1.082,4.992,4.992,0,0,1,2.634-.176c2.14.27,4.363.658,6.421,0a24.188,24.188,0,0,0,3.963-2.117,28.351,28.351,0,0,1,6.48-2.294Q959.9,18.456,972.2,15.193c1.059-.283,2.365-.506,3.1.317a3.3,3.3,0,0,1,.611,1.847,15.555,15.555,0,0,0,4.693,9.02,4.6,4.6,0,0,1,1.34,1.635,3.969,3.969,0,0,1,.011,2.035,119.409,119.409,0,0,1-2.9,12.818c2.1,1.717,5.068,1.894,7.515,3.093a12.371,12.371,0,0,1,6.174,8.514,2.276,2.276,0,0,0,.635,1.388,2.323,2.323,0,0,0,.988.353c2.317.412,4.269,1.105,6.585,1.529,2.388-5.186,6.8-10.16,12.5-10.373a3.671,3.671,0,0,1,2.587.695c1.823,1.587.376,5.186,2.317,6.621.988.717,2.481.529,3.351,1.376a3.271,3.271,0,0,1,.764,1.506,15.347,15.347,0,0,1,.095,7.961c-.317,1.258-.811,2.587-.436,3.834a5.9,5.9,0,0,0,2.153,2.634c2.046,1.694,4.1,3.388,6.151,5.081,1.223,1.012,3.046,2.035,4.233.988,1.012-.893.671-2.623,1.494-3.693q5.167,1.728,10.337,3.445a3.368,3.368,0,0,1,1.717,1.012c.529.706.4,1.694.611,2.552.365,1.565,1.811,2.717,2.14,4.293a7.466,7.466,0,0,1-.47,3.422,23.954,23.954,0,0,0-.694,9.091,2.105,2.105,0,0,0,.576,1.446,1.99,1.99,0,0,0,1.376.306,7.757,7.757,0,0,0,6.973-7.727,24.649,24.649,0,0,0,11.22,1.506c1.693-.177,3.763-.953,3.834-2.646a35.58,35.58,0,0,0,10.325,7.774c2.376,1.176,5.034,2.235,6.41,4.5a1.626,1.626,0,0,1,.294,1.165,1.868,1.868,0,0,1-.682.917c-3.587,3.21-6.786,7.092-6.715,11.914,2.188,1.54,4.386,3.093,6.574,4.633,1.47,1.036,3.093,2.917,2.011,4.34-.518.682-1.493.893-1.953,1.611a2.606,2.606,0,0,0,.024,2.341,8.635,8.635,0,0,0,8,5.386,22.731,22.731,0,0,1,3.458-.118c.329.048.658.13.987.212-1.4,4.939-3.492,9.749-7.784,12.324C1093.117,149.036,1090.977,150.106,1091.13,151.976Z" transform="translate(-20.632 0)" fill="#57488a" stroke="#57488a" stroke-width="1"/>
    <path id="Tracé_107" data-name="Tracé 107" d="M1380.779,234.567a4.586,4.586,0,0,1-.918,2.423,304.507,304.507,0,0,1-20.192,28.859c-1.6,1.988-3.269,4.046-3.916,6.516a19.111,19.111,0,0,0-.129,6.339c.541,6.291.635,12.712-.835,18.863-2.058,8.667-10.114,15.064-11.372,23.885-.318,2.246-.647,4.492-.964,6.738a9.9,9.9,0,0,0-.095,3.328c.412,2.059,2.046,3.611,3.5,5.14s2.87,3.4,2.682,5.492a8.22,8.22,0,0,1-1.917,3.881q-1.5,2.012-3,4.046a2.721,2.721,0,0,0-.624,1.281,3.7,3.7,0,0,0,.423,1.552c1.176,3.269-1.575,6.609-1.917,10.079-.271,2.728.975,5.35,2.2,7.808a30.178,30.178,0,0,0,3.657,6.1,3.407,3.407,0,0,1,.835,1.294c.259,1.022-.529,1.975-1.235,2.751a77.383,77.383,0,0,0-11.243,15.159c-3.9.353-7.82.717-11.736,1.07-1.341.129-2.87.188-3.846-.74-.823-.788-.964-2.035-1.469-3.07a5.523,5.523,0,0,0-3.563-2.764,14.624,14.624,0,0,0-4.246-8.984,21.778,21.778,0,0,0-6.927-4.186c1.987-1.506,4.057-3.1,5.1-5.363s.671-5.409-1.493-6.668a8.508,8.508,0,0,0-3.81-.764,19.956,19.956,0,0,1-7.021-1.529c-4.739-2.141-7.8-6.833-12.089-9.773a19.156,19.156,0,0,0-10.561-3.364,4.493,4.493,0,0,0-1.976.317c-1.54.729-2.034,2.846-3.575,3.587-1.459.705-3.292-.2-4.14-1.588a8.511,8.511,0,0,1-.835-4.728c-3.352-1.411-8.455-1.152-11.078,1.377a5.117,5.117,0,0,1-7.621-1.105c-.846-1.494-.858-3.317-1.506-4.9s-2.552-2.964-4.01-2.059c-1.152.717-1.235,2.317-1.765,3.564-2.235,5.151-11.7,3.317-13.771,8.527-.9,2.281-.094,5.456-2.129,6.82-1.4.953-3.281.329-4.975.353a6.421,6.421,0,0,0-5.68,3.822c3.469,1.152,3.516,6.4,1.247,9.255s-5.857,4.316-8.609,6.739c-1.117-3.858-7.209-4.892-9.538-1.612a25.04,25.04,0,0,0-1.411,2.729,10.5,10.5,0,0,1-11.666,5.128c2.611-1.976.224-6.3-2.775-7.609-7.292-3.187-17.394.647-22.721-5.257-1.423-1.565-2.1-4.258-.529-5.669,1.105-.975,2.751-.87,4.2-1.141s3.069-1.5,2.587-2.9c-4.74-1.329-6.339-7.079-9.28-11.031-4.162-5.575-11.383-7.715-18.1-9.515-1.27-.341-2.858-.588-3.693.436a6.644,6.644,0,0,0-.764,2.222c-.929,2.928-4.763,3.564-7.832,3.435s-6.751-.2-8.5,2.328a12.318,12.318,0,0,1-1.387,2.1c-.976.894-2.447.883-3.763.788a90.648,90.648,0,0,1-29.683-7.4,8.746,8.746,0,0,1-2.717-1.646,10.984,10.984,0,0,1-1.987-3.693,27.568,27.568,0,0,0-16.665-15.524c4.117-4.269,1.964-12.1-3.081-15.229-2.728-1.705-6-2.658-7.891-5.257q-.248-4.286-.471-8.573c-.176-3.116-.2-6.621,1.964-8.855,1.8-1.847,4.552-2.246,7-3.058a3.24,3.24,0,0,0,1.612-.964,2.421,2.421,0,0,0-.354-2.964,7.244,7.244,0,0,0-2.775-1.623c-1.364-.541-2.728-1.081-4.1-1.611a2.9,2.9,0,0,1-1.376-.894c-.706-1.011.153-2.387,1.141-3.128s2.235-1.34,2.611-2.505a3.009,3.009,0,0,0-1.318-3.2,8.946,8.946,0,0,0-3.48-1.188,8.376,8.376,0,0,1,2.211-8.644c.2.212.376.423.564.635,3.187-3.575,5.5-6.445,8.691-10.008a16.162,16.162,0,0,0,3.811-5.787c.681-2.235.152-5-1.823-6.233-.835-.529-1.976-.858-2.246-1.81a2.679,2.679,0,0,1,.293-1.741c.436-1.082.882-2.164,1.318-3.246.635-1.564,1.517-3.328,3.163-3.669a5.294,5.294,0,0,1,2.14.177c2.423.541,4.833,1.094,7.256,1.635.212-2.775-2.917-4.41-4.822-6.445-3.48-3.7-3.046-9.5-2.387-14.548q7.3-2.928,14.617-5.845a8.525,8.525,0,0,1,2.917-.787c3.034-.071,5.715,3.046,8.656,2.281a6.175,6.175,0,0,0-.659-4.445c-2.6-4.445-1.775-10.1-2.457-15.194-.412-3.116-.717-6.633,1.305-9.044,2.764-3.281,8.22-2.54,11.6-5.21a7.142,7.142,0,0,0,1-9.8c-1.858-.246-4.187-.953-4.351-2.822s1.987-2.94,3.6-3.9c4.292-2.576,6.386-7.385,7.784-12.324.354.106.706.211,1.047.317a17.762,17.762,0,0,0,19.252-6.891c1.81-2.682,2.834-5.821,4.516-8.585a21.169,21.169,0,0,1,8-7.655c.953-.518,2.293-.906,3-.071a1.834,1.834,0,0,1,.376,1.152c.153,3.469-4.187,5.363-5.422,8.609-1.317,3.457,1.234,7.409.224,10.972,1.741.341,3.575.741,4.845,1.964s1.612,3.586.212,4.669c-.611.47-1.575.858-1.458,1.611.14.952,1.87,1.105,1.787,2.058a8.712,8.712,0,0,1-3.058,1.576c-.811,2.2.988,4.634,3.176,5.48s4.61.611,6.949.611,4.893.365,6.5,2.058a11.612,11.612,0,0,1,2.093,4.128,7.381,7.381,0,0,0,2.54,3.822c1.305.835,3.387.646,4.057-.753.188-.376.294-.859.682-1.012a1.249,1.249,0,0,1,.8.035c7.185,2.058,14.489,6.373,16.782,13.5a17.68,17.68,0,0,0,1.623,4.41c.858,1.317,3.152,3.258,4.339,2.235a32.455,32.455,0,0,1,10.466-6.069,6.929,6.929,0,0,1,3.882-.47c2.2.541,3.41,2.811,5.044,4.386a18.46,18.46,0,0,0,6.162,3.446c2.54,1.023,5.151,2.069,7.891,2.1,5.1.059,9.526-3.292,14.277-5.162a6.942,6.942,0,0,1,3.564-.635,2.875,2.875,0,0,1,2.493,2.328,1.6,1.6,0,0,0,.224.941,1.148,1.148,0,0,0,.882.259,18.484,18.484,0,0,0,5.256-.788c1.612-.494,3.293-1.211,4.916-.764a7.2,7.2,0,0,1,2.54,1.517c2.812,2.258,5.893,5.1,5.622,8.691-.154,2.058-1.446,4-1.142,6.032a7.972,7.972,0,0,0,1.977,3.587c3.352,4.186,6.714,8.373,10.408,12.265a14.371,14.371,0,0,0,4.468,3.375c2.693-1.329,4.14-4.246,5.469-6.938a4.2,4.2,0,0,1,1.752-2.152,3.414,3.414,0,0,1,1.976-.129,9.219,9.219,0,0,1,6.2,4.08c1.211,1.894,1.823,4.339,3.739,5.527a8.32,8.32,0,0,0,4.622.8c3.892-.07,7.786-.14,11.666-.375a6.8,6.8,0,0,0,3.869-1.059,7.1,7.1,0,0,0,1.928-3.4,4.218,4.218,0,0,1,1.353-2.234,2.884,2.884,0,0,1,2.8-.106,8.4,8.4,0,0,1,2.328,1.74q3.1,2.912,6.186,5.822a21.671,21.671,0,0,0,4.915,3.822,21.107,21.107,0,0,0,4.7,1.576c3.1.787,5.915,1.482,9.031,2.258a26.383,26.383,0,0,1,13.725-3.6,6.333,6.333,0,0,1,1.893.246,7.777,7.777,0,0,1,1.776.953c2.482,1.646,4.951,3.293,7.433,4.928C1379.414,232.132,1380.732,233.144,1380.779,234.567Z" transform="translate(-27.19 -4.551)" fill="#57488a" stroke="#57488a" stroke-width="1"/>
    <path id="Tracé_108" data-name="Tracé 108" d="M1297.217,414.658c-.412,1.234-.787,2.693-.034,3.739a34.9,34.9,0,0,1,9.02-1.141,5.956,5.956,0,0,1,3.693.93.978.978,0,0,1,.353.47c.106.505-.505.846-1,1.012a19.447,19.447,0,0,0-7.562,4.7,4.534,4.534,0,0,0-.917,1.188c-.482,1.023-.224,2.246-.494,3.363-.458,1.953-2.4,3.128-3.964,4.386-3.8,3.034-6.091,7.492-8.549,11.679a35.491,35.491,0,0,1-4.963,6.833,17.323,17.323,0,0,1-2.14,1.905,17.371,17.371,0,0,0-2.13,1.564c-.446.459-.8,1-1.293,1.423a30.168,30.168,0,0,1-4.281,3.023,43.821,43.821,0,0,1-6.645,3.328c-1.07.424-2.293.953-2.6,2.058a3.345,3.345,0,0,0-.059,1.082c.035,1.07.082,2.129.129,3.187.095,2.082.283,4.41,1.847,5.8a6.235,6.235,0,0,1,1.376,1.282,3.506,3.506,0,0,1,.353,1.588c.094,1.611.154,3.329-.705,4.68a7.522,7.522,0,0,1-2.046,1.953,23.39,23.39,0,0,1-4.374,2.787c-1.565.694-3.282,1.046-4.846,1.74-5.681,2.506-8.15,9.3-13.6,12.278l3.564,4.622a1.479,1.479,0,0,1,.376.812,1.514,1.514,0,0,1-.518.964,12.673,12.673,0,0,0-3.152,8.162c.024.011.047.011.071.023a56.131,56.131,0,0,0-8.562,12.583,3.154,3.154,0,0,1-.834,1.189,2.939,2.939,0,0,1-1.329.447c-2.6.446-5.211.893-7.809,1.34a4.987,4.987,0,0,1-2.164.047,4.7,4.7,0,0,1-1.682-1.023,77.118,77.118,0,0,1-5.715-5.2,1.647,1.647,0,0,0-1.165-.634,1.446,1.446,0,0,0-.694.293c-2.576,1.752-4.164,4.857-7.056,6a8.3,8.3,0,0,1-7.139-.988,26.329,26.329,0,0,1-5.515-4.975c-4.4-4.727-9.09-9.361-14.852-12.278-1.318-.658-2.682-1.234-4.046-1.8-.705-.294-1.07-.071-1.776-.365-3.516.988-7.656-.576-10.737,1.388-2.835,1.8-3.328,5.621-4.022,8.914-1.141,5.4-3.517,10.456-5.869,15.453-1.258,2.658-2.658,5.48-5.221,6.926-2.846-2.388-3.375-6.468-4.339-10.054a3.033,3.033,0,0,0-1.329-2.117,3.169,3.169,0,0,0-1.847-.082q-7.091,1.111-14.183,2.235a6.539,6.539,0,0,0-2.257.634,5.9,5.9,0,0,0-2,2.129c-2.576,4.057-4.41,9.314-8.95,10.89a13.1,13.1,0,0,1-4.539.517,50.721,50.721,0,0,1-19.169-4.186,4.222,4.222,0,0,1-1.659-1.059,4.467,4.467,0,0,1-.787-2.2c-.318-1.952-.647-3.9-.965-5.844a4.96,4.96,0,0,1,.071-2.752,7.913,7.913,0,0,1,1.764-2.058c1.893-2.045,2.223-5.08,2.106-7.867a10.862,10.862,0,0,0-1.682-6.068c-1.529-2.059-4.127-2.987-6.632-3.528s-5.4-.565-7.668-1.741c-1.023-3.845-2.2-7.656-3.516-11.407-1.823-5.2-4.222-10.667-8.962-13.489-.917,2.516-1.823,5.033-2.74,7.549a9.829,9.829,0,0,1-1.765,3.411,3.447,3.447,0,0,1-3.458,1.2c-1.622-.518-2.269-2.423-2.751-4.069s-1.294-3.528-2.975-3.822c-1.835-.33-3.3,1.458-4.164,3.116-.541,1.059-1.247,2.317-2.434,2.352-1.023.035-1.788-.882-2.434-1.659-1.435-1.717-3.834-3.292-5.75-2.14-1.023.611-1.565,1.858-2.646,2.364a3.318,3.318,0,0,1-3.328-.623,18.988,18.988,0,0,1-2.434-2.6,24.028,24.028,0,0,0-6.138-4.375c-.188-.094-.365-.188-.553-.293,2.011-1.612,4.011-3.235,6.022-4.846a3.606,3.606,0,0,0,1.141-1.282,3.409,3.409,0,0,0,.188-1.187q.388-8.8.788-17.616a6.143,6.143,0,0,0-.212-2.365c-.87-2.41-4.422-3.069-5.116-5.538a7.105,7.105,0,0,1,.177-3.094c1.094-6.409-2.07-13.289-7.914-16.158-.224-1.87-2.587-2.646-3.458-4.3a4.448,4.448,0,0,1,.364-4.1c.695-1.247,1.694-2.305,2.47-3.5a10.465,10.465,0,0,0-.129-11.537c-1.07-1.47-2.552-2.611-3.634-4.069,2.881-2.8,8.08-2.74,10.231-6.138-1.728-5.257-5.821-9.326-8.949-13.9a6.867,6.867,0,0,1-1.247-2.67q2.7-.97,5.422-1.94a18.448,18.448,0,0,0,6.009-3.033,6.237,6.237,0,0,0,2.27-6.022c-.354-1.364-1.341-2.681-.965-4.034a4.625,4.625,0,0,1,.717-1.282c3.023-4.163,5.857-8.526,8.868-12.689q-7.356-8.643-15.006-17.016c-1.247-1.353-2.587-3.163-1.871-4.857.482-1.129,1.718-1.705,2.811-2.281a20.561,20.561,0,0,0,3.811-2.6,3.274,3.274,0,0,0,.941-1.105,4.8,4.8,0,0,0-.035-2.54,13.656,13.656,0,0,1,.246-4.256c.33-1.917.859-4.035,2.494-5.1,1.8-1.188,4.174-.647,6.291-.211a41.871,41.871,0,0,0,16.135-.048c1.894,2.6,5.163,3.552,7.891,5.257,5.045,3.128,7.2,10.96,3.081,15.229a27.568,27.568,0,0,1,16.665,15.524,10.984,10.984,0,0,0,1.987,3.693,8.746,8.746,0,0,0,2.717,1.646,90.648,90.648,0,0,0,29.683,7.4c1.316.095,2.787.106,3.763-.788a12.318,12.318,0,0,0,1.387-2.1c1.752-2.529,5.422-2.447,8.5-2.328s6.9-.506,7.832-3.435a6.644,6.644,0,0,1,.764-2.222c.835-1.023,2.423-.777,3.693-.436,6.715,1.8,13.936,3.94,18.1,9.515,2.941,3.951,4.54,9.7,9.28,11.031.482,1.4-1.141,2.634-2.587,2.9s-3.094.165-4.2,1.141c-1.575,1.411-.893,4.1.529,5.669,5.327,5.9,15.429,2.069,22.721,5.257,3,1.305,5.386,5.633,2.775,7.609a10.5,10.5,0,0,0,11.666-5.128,25.04,25.04,0,0,1,1.411-2.729c2.328-3.281,8.421-2.246,9.538,1.612,2.751-2.423,6.327-3.882,8.609-6.739s2.222-8.1-1.247-9.255a6.421,6.421,0,0,1,5.68-3.822c1.694-.024,3.575.6,4.975-.353,2.035-1.364,1.224-4.539,2.129-6.82,2.07-5.21,11.536-3.375,13.771-8.527.529-1.247.612-2.846,1.765-3.564,1.458-.9,3.351.482,4.01,2.059s.659,3.41,1.506,4.9a5.117,5.117,0,0,0,7.621,1.105c2.622-2.529,7.726-2.788,11.078-1.377a8.511,8.511,0,0,0,.835,4.728c.847,1.388,2.681,2.293,4.14,1.588,1.541-.741,2.035-2.859,3.575-3.587a4.493,4.493,0,0,1,1.976-.317,19.156,19.156,0,0,1,10.561,3.364c4.293,2.94,7.351,7.632,12.089,9.773a19.956,19.956,0,0,0,7.021,1.529,8.508,8.508,0,0,1,3.81.764c2.164,1.258,2.54,4.4,1.493,6.668s-3.117,3.858-5.1,5.363a21.778,21.778,0,0,1,6.927,4.186,14.624,14.624,0,0,1,4.246,8.984,6.814,6.814,0,0,0-1.881-.259,12.473,12.473,0,0,0-6.163,2.035,13.236,13.236,0,0,0-4.339,3.716,17.5,17.5,0,0,0-1.953,4.41Q1298.117,411.977,1297.217,414.658Z" transform="translate(-25.432 -13.343)" fill="#57488a" stroke="#57488a" stroke-width="1"/>
    <path id="Tracé_109" data-name="Tracé 109" d="M1050.068,288.892a3.24,3.24,0,0,1-1.612.964c-2.446.812-5.2,1.211-7,3.058-2.164,2.235-2.14,5.739-1.964,8.855q.229,4.286.471,8.573a41.871,41.871,0,0,1-16.135.048c-2.117-.436-4.492-.976-6.291.211-1.635,1.07-2.164,3.187-2.494,5.1a13.656,13.656,0,0,0-.246,4.256,4.8,4.8,0,0,1,.035,2.54,3.274,3.274,0,0,1-.941,1.105,20.561,20.561,0,0,1-3.811,2.6c-1.093.576-2.328,1.152-2.811,2.281a2.543,2.543,0,0,0-.164,1.411,11.252,11.252,0,0,0-5.409,2.235,13.139,13.139,0,0,1-2.235,1.893,8,8,0,0,1-3.481.529c-7.009.247-13.853,4.128-20.71,2.682-1.187-2.152,2.423-3.963,2.881-6.386.354-1.905-1.352-3.517-2.881-4.7q-5.5-4.269-11-8.537a18.774,18.774,0,0,0-4.246-2.74c-4.68-1.953-10.114.105-14.218,3.081-2.069,1.5-4.363,3.34-6.856,2.822a5.59,5.59,0,0,1-3.776-3.716,18.533,18.533,0,0,1-.74-5.457c-.117-2.716-.412-5.609-2.1-7.738-2.447-3.058-7.045-3.587-9.738-6.433a7.775,7.775,0,0,1-2.069-6.139,6.649,6.649,0,0,0,.047-3.187,4.726,4.726,0,0,0-1.681-1.8l-8.749-6.492a4.291,4.291,0,0,1-1.529-1.623,3.983,3.983,0,0,1-.2-1.587c.082-3.787,1.188-7.468,1.765-11.22s.552-7.8-1.412-11.042a14.508,14.508,0,0,0-5.8-5.069c-.87-3.033-3.5-6.092-1.752-8.608,1.987-2.846,6.8-.717,9.784-2.482,4.657-2.751.989-11.689,5.621-14.476,1.247-.741,2.788-.777,4.164-1.247,2.27,2.164,4.1,4,7.009,5.163a6.612,6.612,0,0,0,2.788.6c1.952-.129,3.41-1.752,5.092-2.763A8.825,8.825,0,0,1,945.99,226.6c1.646,1.552,3.163,3.974,5.409,3.633a6.869,6.869,0,0,0,2.152-.94,13,13,0,0,1,10.855-.165,23.558,23.558,0,0,1,8.772,6.8c11.373.647,22.145.671,33.529.435a7.96,7.96,0,0,0,3.868-.752c1.752-1.036,2.482-3.269,4.152-4.445a4.556,4.556,0,0,1,6.621,2.211c1.223,3.739-2.682,8.338-.271,11.443a7.325,7.325,0,0,0,1.94,1.552,89.749,89.749,0,0,1,19.6,16.77,8.376,8.376,0,0,0-2.211,8.644,8.946,8.946,0,0,1,3.48,1.188,3.009,3.009,0,0,1,1.317,3.2c-.376,1.165-1.623,1.776-2.611,2.505s-1.847,2.117-1.141,3.128a2.9,2.9,0,0,0,1.376.894c1.377.529,2.74,1.07,4.1,1.611a7.243,7.243,0,0,1,2.775,1.623A2.42,2.42,0,0,1,1050.068,288.892Z" transform="translate(-20.707 -9.26)" fill="#57488a" stroke="#57488a" stroke-width="1"/>
    <path id="Tracé_110" data-name="Tracé 110" d="M1014.118,455.633a6.144,6.144,0,0,1,.212,2.365q-.388,8.8-.788,17.616a3.409,3.409,0,0,1-.188,1.188,3.606,3.606,0,0,1-1.141,1.282c-2.011,1.611-4.011,3.234-6.022,4.846.188.105.365.2.553.293-2.27.153-4.528.294-6.786.447a14.919,14.919,0,0,0-5.044.929,20.361,20.361,0,0,0-4.081,2.812A38.4,38.4,0,0,1,985.2,491.4a9.676,9.676,0,0,0-5,7.75c-.13,1.988.364,4.022-.095,5.963-.671,2.858-3.3,4.928-6.127,5.786s-5.81.753-8.749.73c-3.222-.035-7.221.564-8.244,3.622-.717,2.129.247,5.021-1.565,6.339a4.4,4.4,0,0,1-2.575.623,153.163,153.163,0,0,1-25.532-1.223,12.567,12.567,0,0,1-4.1-1.047,6.188,6.188,0,0,0-1.858-.8c-1.411-.2-2.587.976-3.869,1.576-3.458,1.623-7.48-1.023-11.266-.565-3.728.447-6.35,3.693-9.1,6.233a5.212,5.212,0,0,1-2,1.3,5.7,5.7,0,0,1-2.706-.071c-6.127-1.128-12.006-2.3-18.134-3.445-.634-2.364-3.469-3.481-4.516-5.692-1.058-2.235-.058-5.057-1.176-7.256-1.222-2.41-4.3-3-6.891-3.739a25.154,25.154,0,0,1-7.562-3.6,5.186,5.186,0,0,1-1.74-1.764,5.766,5.766,0,0,1-.376-2.87q.14-3.475.282-6.927a4.835,4.835,0,0,0-2.328-5.045c-2.658-2.235-5.739-4.7-8.421-6.915a53.654,53.654,0,0,0-1.129-12.559,13.706,13.706,0,0,0-1.788-4.857A8.077,8.077,0,0,0,828.5,460.4c-2.164,1.152-3.67,3.245-5.727,4.574-3.739,2.411-8.643,1.364-13.066.8-1.5-4.915-3.1-10.019-6.574-13.818a6.665,6.665,0,0,1-1.6-2.212c-.259-.776-.177-1.646-.494-2.41a4.835,4.835,0,0,0-2.328-2.093c-2.188-1.223-4.375-2.458-6.551-3.681a3.1,3.1,0,0,1-1.21-.976,2.626,2.626,0,0,1-.33-1c-.647-4.022,1.234-7.961,3.07-11.6,1.376-2.729,2.751-5.469,4.127-8.2a24.972,24.972,0,0,0,2.2-5.363c.259-1.105.365-2.246.647-3.351.812-3.116,2.952-5.68,4.622-8.432s5.08-6.857,2.528-8.82q-2.382-1.834-4.751-3.646a5.624,5.624,0,0,1,6.715-1.811c2.341,1.059,3.693,3.611,5.974,4.786,1.294.659,3.176.635,3.858-.634,1.141-2.141-2.329-4.728-1.153-6.844.659-1.188,2.341-1.271,3.634-.859s2.505,1.165,3.857,1.141c2.376-.047,3.964-2.4,5.128-4.469,1.364-2.422,2.717-4.833,4.081-7.256.482-.858,1.152-1.823,2.129-1.8.635.011,1.188.459,1.811.553,1.234.187,2.222-1.012,2.822-2.117,2.457-4.574,3.139-9.855,4.045-14.971a5.192,5.192,0,0,1,.906-2.481c1.165-1.388,3.681-1.494,4.233-3.223a3.866,3.866,0,0,0-.729-2.975q-2.628-4.6-5.257-9.232c2.328-1.211,4.657-2.434,6.973-3.646a45.37,45.37,0,0,1-4.41-3.493c.059-2.775-3.01-4.657-3.622-7.374-.482-2.175.753-4.4,2.376-5.927s3.645-2.576,5.363-3.987c6.009-4.986,7.15-15.182,1.752-20.816-1.529-1.6-3.517-2.88-4.339-4.927-1.059-2.646.27-5.774,2.41-7.644s4.951-2.788,7.668-3.646A116.465,116.465,0,0,1,873.9,272.6c3.987-.705,8.491-1.223,11.032-4.375a13.937,13.937,0,0,0,2.281-5.351,6.633,6.633,0,0,1,1.728-3.61,9.267,9.267,0,0,1,3.3-1.376c2.505-.835,5.245-2.034,5.927-4.587a5.077,5.077,0,0,0-.117-2.775,14.508,14.508,0,0,1,5.8,5.069c1.964,3.245,1.988,7.3,1.412,11.042s-1.682,7.433-1.765,11.22a3.983,3.983,0,0,0,.2,1.587,4.291,4.291,0,0,0,1.529,1.623l8.749,6.492a4.726,4.726,0,0,1,1.681,1.8,6.649,6.649,0,0,1-.047,3.187,7.775,7.775,0,0,0,2.069,6.139c2.693,2.845,7.291,3.374,9.738,6.433,1.693,2.129,1.987,5.021,2.1,7.738a18.533,18.533,0,0,0,.74,5.457,5.59,5.59,0,0,0,3.776,3.716c2.493.518,4.786-1.317,6.856-2.822,4.1-2.976,9.537-5.034,14.218-3.081a18.774,18.774,0,0,1,4.246,2.74q5.5,4.269,11,8.537c1.53,1.188,3.235,2.8,2.881,4.7-.459,2.423-4.069,4.233-2.881,6.386,6.857,1.446,13.7-2.434,20.71-2.682a8,8,0,0,0,3.481-.529,13.139,13.139,0,0,0,2.235-1.893,11.252,11.252,0,0,1,5.409-2.235,7.225,7.225,0,0,0,2.035,3.446q7.655,8.379,15.006,17.016c-3.011,4.164-5.845,8.527-8.868,12.689a4.625,4.625,0,0,0-.717,1.282c-.376,1.353.611,2.669.965,4.034a6.237,6.237,0,0,1-2.27,6.022,18.448,18.448,0,0,1-6.009,3.033q-2.717.97-5.422,1.94a6.867,6.867,0,0,0,1.247,2.67c3.128,4.574,7.221,8.643,8.949,13.9-2.151,3.4-7.35,3.34-10.231,6.138,1.082,1.458,2.564,2.6,3.634,4.069a10.465,10.465,0,0,1,.129,11.537c-.776,1.2-1.775,2.258-2.47,3.5a4.448,4.448,0,0,0-.364,4.1c.87,1.658,3.234,2.434,3.458,4.3,5.844,2.869,9.008,9.75,7.914,16.158A7.105,7.105,0,0,0,1009,450.1C1009.7,452.565,1013.248,453.223,1014.118,455.633Z" transform="translate(-15.793 -10.512)" fill="#57488a" stroke="#57488a" stroke-width="1"/>
    <path id="Tracé_111" data-name="Tracé 111" d="M841.685,349.048a3.866,3.866,0,0,1,.729,2.975c-.552,1.728-3.069,1.834-4.233,3.223a5.192,5.192,0,0,0-.906,2.481c-.906,5.116-1.588,10.4-4.045,14.971-.6,1.105-1.588,2.3-2.822,2.117-.624-.095-1.176-.542-1.811-.553-.976-.024-1.646.941-2.129,1.8-1.364,2.423-2.717,4.834-4.081,7.256-1.164,2.07-2.752,4.422-5.128,4.469-1.352.024-2.575-.729-3.857-1.141s-2.975-.33-3.634.859c-1.176,2.116,2.294,4.7,1.153,6.844-.682,1.27-2.564,1.294-3.858.634-2.281-1.175-3.633-3.728-5.974-4.786a5.624,5.624,0,0,0-6.715,1.811q2.365,1.817,4.751,3.646c2.552,1.963-.87,6.069-2.528,8.82s-3.81,5.316-4.622,8.432c-.282,1.105-.388,2.246-.647,3.351a24.972,24.972,0,0,1-2.2,5.363c-1.376,2.729-2.752,5.469-4.127,8.2-1.835,3.634-3.716,7.573-3.07,11.6a2.626,2.626,0,0,0,.33,1,.539.539,0,0,0,.129.164c-2.987,3.576-5,8.126-8.844,10.761a2.517,2.517,0,0,1-1.635.565,3.833,3.833,0,0,1-1.387-.682c-2.717-1.694-6.21-.671-9.409-.471-4.7.283-9.325-1.4-14.041-1.469a5.791,5.791,0,0,0-2.928.528c-1.741.93-2.341,3.116-3.693,4.551-2.423,2.564-6.48,2.211-10,2.317a29,29,0,0,0-10.678,2.341c-.635,1.823,1.517,3.245,2.964,4.539,1.987,1.765,2.951,4.387,3.857,6.892q2.911,8.167,5.845,16.311c1.517,4.246,3.057,8.55,3.41,13.042s-.458,8.961-1.34,13.371a4.841,4.841,0,0,0-.023,2.682c.8,2.1,3.763,2.046,5.974,1.6-1.364,4.529-3.234,9.608-7.621,11.361-2.175.858-4.6.716-6.938.564l-10.926-.74c-2.587-.164-5.668-.682-6.7-3.058-.576-1.329-.529-3.222-1.87-3.763-.965-.388-2.023.247-2.835.906-2.222,1.834-4.222,4.164-6.456,5.962a4.243,4.243,0,0,0-1.752-1.882,4.191,4.191,0,0,0-4.14.118,16.466,16.466,0,0,1-2.481,1.8,3.782,3.782,0,0,1-3.622-.706,25.685,25.685,0,0,1-2.517-2.88,9.645,9.645,0,0,0-6.28-2.881c-1.952-.118-4.08.329-5.75-.695-1.705-1.035-2.27-3.186-3.293-4.9-1.6-2.692-4.468-4.375-7.362-5.574s-5.962-2.023-8.679-3.575-4.128-4.281-5.645-7.021c-1.281-2.341-1.54-5.081-2.14-7.679s-1.728-5.327-4.057-6.633a16.721,16.721,0,0,1-2.728-1.458c-1.071-.917-1.447-2.375-2-3.67a11.708,11.708,0,0,0-4.293-5.1c-1.187-.776-2.505-1.329-3.622-2.187a6.083,6.083,0,0,1-2.082-3.564,41.22,41.22,0,0,1-.976-7.962,2.141,2.141,0,0,1,.177-1.117,2.353,2.353,0,0,1,1.105-.846,23,23,0,0,0,11.878-14.654c-1.411-1.435-2.035-3.551-3.646-4.763a9,9,0,0,0-3.01-1.271,33.3,33.3,0,0,0-4.493-1.059,29.545,29.545,0,0,0-5.762-.129c-1.211.059-2.74-.059-3.176-1.188a2.171,2.171,0,0,1,1.023-2.376,27.154,27.154,0,0,1,2.494-1.223,5.464,5.464,0,0,0,2.752-4.492c.047-1.435-.33-3.222.87-4a3.837,3.837,0,0,1,2.423-.212,19.777,19.777,0,0,0,3.728-.164q4.357-.476,8.69-.953c1.036-.118,2.318-.436,2.529-1.459.27-1.234-1.271-2.034-2.505-2.293a34.512,34.512,0,0,0-9.267-.694,7.181,7.181,0,0,0-2.822.611,9.352,9.352,0,0,0-1.929,1.482,21.043,21.043,0,0,1-4.915,3.2c-.624.294-1.34.529-1.705-.071a6.592,6.592,0,0,1-6.527-.858c-1.176-.918-2.116-2.305-3.575-2.611-2.058-.436-4.1,1.493-6.138.964-.671-.188-1.258-.623-1.917-.835-.823-.27-1.741-.2-2.552-.529a2.788,2.788,0,0,1-1.07-4.092c1.011-1.282,3.234-1.8,3.245-3.435.024-1.728-2.61-2.47-2.763-4.2a2.578,2.578,0,0,1,1.717-2.328c.929-.423,1.976-.577,2.88-1.059,1.517-.811,2.411-2.411,3.211-3.929a6.233,6.233,0,0,0,.859-2.258A19.134,19.134,0,0,1,609,402.4c1.482.588,3.139,1.363,4.61.74,2.375-1.023,2.423-4.88,4.833-5.81,2.388-.917,5.28,1.823,7.444.459a4.77,4.77,0,0,0,1.282-1.411c5.4-7.6,13.348-12.936,21.109-18.087,2.753-1.834,6.056-3.751,9.185-2.681,1.881.658,3.493,2.34,5.48,2.2a6.1,6.1,0,0,0,2.552-1.023A74.369,74.369,0,0,0,679.5,365.9a3.757,3.757,0,0,1,1.952-1.258,3.708,3.708,0,0,1,2.74,1.235q3.934,3.386,7.879,6.774a45.938,45.938,0,0,1,13.584-22.1,6.771,6.771,0,0,0,2.246-2.858,6.014,6.014,0,0,0-.164-3.023,97.536,97.536,0,0,0-2.706-9.454,19.064,19.064,0,0,1-1.363-5.774c-.024-2.294.858-4.481,1.564-6.669,2-6.209,2.563-13.018.705-19.286-.74-2.5-1.87-4.928-2.8-7.385,2.175.694,4.88.117,7.232-.482,4.339-1.105,8.973-1.953,13.265-.671s8.738,4.61,8.268,9.079c1.54-4.492,6.832-6.562,11.583-6.656s9.455,1.223,14.2.929a4.335,4.335,0,0,0,3.152-1.176,10.858,10.858,0,0,0,1.141-2.61,5.782,5.782,0,0,1,5.351-2.964,14.336,14.336,0,0,1,6.138,1.823,8.855,8.855,0,0,1,3.458,2.552,3.318,3.318,0,0,1,.059,4.01c-.953,1.071-2.811,1.271-3.364,2.6-.623,1.482.976,3.01,2.552,3.328s3.234-.047,4.763.4a5.475,5.475,0,0,1,2.916,3.363,46.4,46.4,0,0,1,29.753-4.809c-.4,3.775-.811,7.633.035,11.337s3.176,7.291,6.739,8.609c3.469,1.281,7.726.353,10.666,2.587,1.364,1.046,2.2,2.611,3.375,3.857s3.023,2.2,4.574,1.47a45.37,45.37,0,0,0,4.41,3.493c-2.317,1.211-4.645,2.434-6.973,3.646Q839.056,344.438,841.685,349.048Z" transform="translate(-7.108 -12.343)" fill="#57488a"/>
    <path id="Tracé_112" data-name="Tracé 112" d="M700.793,345.854a6.771,6.771,0,0,1-2.246,2.858,45.938,45.938,0,0,0-13.584,22.1q-3.934-3.388-7.879-6.774a3.708,3.708,0,0,0-2.74-1.235,3.757,3.757,0,0,0-1.952,1.258,74.369,74.369,0,0,1-14.007,10.89,6.1,6.1,0,0,1-2.552,1.023c-1.987.14-3.6-1.541-5.48-2.2-3.129-1.07-6.432.846-9.185,2.681-7.761,5.151-15.711,10.49-21.109,18.087a4.77,4.77,0,0,1-1.282,1.411c-2.164,1.364-5.057-1.376-7.444-.459-2.41.93-2.458,4.786-4.833,5.81-1.47.623-3.128-.153-4.61-.74a19.134,19.134,0,0,0-3.493-1.012,2,2,0,0,0,.023-.459,3.687,3.687,0,0,0-2.293-2.975c-1.2-.542-3.046-.118-4.3-.529-5.174-1.67-10.749.364-15.794,2.4a3.918,3.918,0,0,1-1.917.411c-1.506-.187-2.188-1.917-3-3.2a7.776,7.776,0,0,0-4.022-3.164,6.878,6.878,0,0,1-2.106-.846,1.52,1.52,0,0,1-.493-2l5.68,1.306a12.33,12.33,0,0,0,8.255-.365c1.741-.505,3.822-1.411,3.951-3.222a3.083,3.083,0,0,0-1.987-2.834,9,9,0,0,0-3.634-.494c-4.339-.012-8.9.035-12.712,2.129a5.4,5.4,0,0,1-2.682,1c-.964-.047-1.916-1.129-1.411-1.952-1.6.082-3.2.164-4.8.258a2.462,2.462,0,0,0-1.094.212,3.089,3.089,0,0,0-1.082,1.27c-.589.941-1.341,1.776-1.871,2.752a3.839,3.839,0,0,0-.423,3.187,11.9,11.9,0,0,0,1.329,1.94,2,2,0,0,1,.236,2.2,1.65,1.65,0,0,1-1.753.517,4.342,4.342,0,0,1-1.646-1,2.323,2.323,0,0,1-.964-2.41A15.018,15.018,0,0,1,549,387.555a5.332,5.332,0,0,0,.846-2.3,3.845,3.845,0,0,0-.27-1.2c-.634-1.881-.953-3.586-1.588-5.469-2.634-.694-3.3-4.422-5.786-5.538-1.353-.6-2.916-.283-4.386-.035-3.176.528-6.844.459-9.1-1.835a20.226,20.226,0,0,1-1.658-2.187,16.415,16.415,0,0,0-6.3-5.234c-1.659-.788-3.517-1.317-4.857-2.587a13.388,13.388,0,0,0-1.376-1.34c-1.2-.882-2.811-.824-4.3-.835-4.492-.059-8.291-2.494-12.736-3.234a2.926,2.926,0,0,1-2.222-1.882,13.339,13.339,0,0,1-.341-1.788,4.914,4.914,0,0,0-.941-2.058,2.512,2.512,0,0,0-2.129-1.141c-.964.106-1.611,1-2.281,1.705a8.111,8.111,0,0,1-7.75,2.234,3.8,3.8,0,0,1-2.446-1.6c-.224-.388-.341-.834-.589-1.223a2.259,2.259,0,0,0-2.187-1.035,2.315,2.315,0,0,0-1.847,1.575c-.423,1.47.682,2.881,1.552,4.14s1.517,3.129.4,4.164c-.764.729-1.976.623-3.01.459q-2.964-.476-5.892-1.128c-1.823-.4-3.751-.93-4.975-2.341a1.265,1.265,0,0,1-.364-.671,1.634,1.634,0,0,1,.353-1.012,12.932,12.932,0,0,0-.035-13.324c-1.811-2.917-4.833-4.657-6.151-7.832a6.962,6.962,0,0,0-4.7-.706c-1.247.247-2.517.847-3.74.494a11.207,11.207,0,0,1-2.27-1.34c-2.834-1.575-6.938.2-9.361-1.976a10.933,10.933,0,0,1,6.139-3.093,47.177,47.177,0,0,1,6.962-.471,71.648,71.648,0,0,0,12.043-1.469,11.311,11.311,0,0,1,3.01-.365,3.328,3.328,0,0,1,2.587,1.376c.435.659.6,1.6,1.329,1.894a1.989,1.989,0,0,0,1.081.035,15.249,15.249,0,0,0,3.129-.87,2.233,2.233,0,0,0,1.635-2.893c-.459-3.493-2.434-6.574-4.5-9.432a6.06,6.06,0,0,0-4.8-3.187q-1.834-.335-3.67-.565a3.074,3.074,0,0,0-2.293.317,4.414,4.414,0,0,0-1.081,1.917,5.5,5.5,0,0,1-4.222,3.163,16.828,16.828,0,0,0,.058-5.374,5.641,5.641,0,0,0-3.1-4.14c-1.152-.459-2.622-.482-3.316-1.517a19.56,19.56,0,0,1,6.55-1.94,8.471,8.471,0,0,1,6.387,1.952,28.426,28.426,0,0,0,2.622,2.7,8.932,8.932,0,0,0,4.245,1.258,12.294,12.294,0,0,0,4.046.048,4.289,4.289,0,0,0,3.139-2.317c.917-2.188-.94-4.681-3.152-5.528s-4.669-.576-7.033-.717a5.336,5.336,0,0,1-3.033-.883,7.12,7.12,0,0,1,2.01-2.6,3.114,3.114,0,0,0,1.105-2.964,2.439,2.439,0,0,0-2.516-1.411,7.084,7.084,0,0,0-2.88,1.105q-2.893,1.641-5.775,3.34c-1.117.647-2.575,1.305-3.633.541-.671-.482-.976-1.47-1.776-1.705a1.7,1.7,0,0,0-1.705.694,13.624,13.624,0,0,0-.975,1.705,5.291,5.291,0,0,1-4.069,2.5,1.644,1.644,0,0,1-1.282-.329,1.917,1.917,0,0,1-.412-1.188,45.505,45.505,0,0,1-.247-6.2,13.047,13.047,0,0,1,1.388-6.315c.494-.824,1.129-1.541,1.623-2.352a14.49,14.49,0,0,0,1.434-3.728c.482-1.764,1.094-4.093,1.459-5.88-.47-1.117,1.07-1.952,2.246-2.258a27.214,27.214,0,0,0,7.6-3.316c1.529-.965,3.528-2.094,4.975-1.012.282.224.517.505.811.717,1.023.729,2.447.294,3.634-.177-.4-1.493,1.093-2.764,2.4-3.586a8.305,8.305,0,0,1,3.245-1.446,2.836,2.836,0,0,1,3.01,1.411,12.044,12.044,0,0,1,.376,2.258c.165.753.835,1.53,1.576,1.305a1.886,1.886,0,0,0,.835-.658c1.963-2.281,4.61-4.351,7.62-4.233,1.07.047,2.117.364,3.176.505a9.709,9.709,0,0,0,7.314-2.046c1.424-1.164,3.2-2.834,4.764-1.87.258,1.188-.635,2.281-1.411,3.223s-1.47,2.27-.835,3.3a3.26,3.26,0,0,0,1.834,1.141c1.659.552,3.3,1.105,4.951,1.67a1.824,1.824,0,0,0,.859.118c.505-.13.74-.682.929-1.165a19.371,19.371,0,0,1,1.717-3.375c.647-.988,1.588-2.022,2.764-1.9a3.573,3.573,0,0,1,1.376.553,88.5,88.5,0,0,0,14.3,6.5,2,2,0,0,0,1.693.071,1.916,1.916,0,0,0,.658-.906,13.046,13.046,0,0,0,1.059-4.481,42.707,42.707,0,0,1,.177-5.068c.694-3.74,4.128-6.233,7.161-8.5a7.105,7.105,0,0,0,5.963,3.6,9.373,9.373,0,0,0,6.609-2.6c1.105-1.011,2.329-2.352,3.787-2.034,1.364.306,2.4,2.034,3.728,1.611.552-.177.917-.694,1.4-1a3,3,0,0,1,3.363.505,12.136,12.136,0,0,1,2.175,2.87,19.585,19.585,0,0,0,6.374,6.045,13.819,13.819,0,0,1,3.01,2,3.2,3.2,0,0,1,.917,3.3c-.282.659-.882,1.235-.858,1.964a2.282,2.282,0,0,0,.682,1.305,20,20,0,0,0,5.092,4.223,9.806,9.806,0,0,1,3.034,2.2,7.956,7.956,0,0,1,1.023,2.106l5.256,14.358a44.883,44.883,0,0,0,7.95-6.209c3.375-3.564,5.985-8.479,10.726-9.655,2.092-.518,4.327-.211,6.373-.859,1.517-.482,3-1.175,4.563-.869a5.957,5.957,0,0,1,3.869,2.422,3.988,3.988,0,0,1,.035,4.4c-.435.589-1.059,1.023-1.493,1.611a1.754,1.754,0,0,0-.212,2.035,1.817,1.817,0,0,0,1.929.4c1.952-.528,3.234-2.316,4.516-3.881s3.022-3.116,5.033-2.9a5.449,5.449,0,0,1,3.634,2.576,8.017,8.017,0,0,1,1.67,5.139c-.106,1.2-.576,2.446-.095,3.54a2.645,2.645,0,0,0,3.716.953A3.735,3.735,0,0,0,641.1,286.7a11.241,11.241,0,0,0-2.187-4.045,30.918,30.918,0,0,1-2.775-5.092,52.907,52.907,0,0,1,6.75-5.245c1.258-.835,2.87-1.623,4.2-.917a2.32,2.32,0,0,1,.4,3.634c-.753.634-2.045,1-1.976,1.976.071.953,1.341,1.152,2.235,1.516,2.164.859,2.893,3.834,5.068,4.681,1.541.6,3.234-.071,4.822-.529a19.061,19.061,0,0,1,8.844-.423,1.793,1.793,0,0,0,1.023,0,2.362,2.362,0,0,0,.717-.647,2.407,2.407,0,0,1,.188-.177,15.316,15.316,0,0,1,1.188,5.163c.071,1.4-.094,2.811.082,4.2a8.5,8.5,0,0,0,14.171,5.174c1.305-1.2,2.211-2.787,3.54-3.951s3.388-1.834,4.846-.846a12.7,12.7,0,0,1,1.752,1.882,4.875,4.875,0,0,0,2.046,1.211c.929,2.457,2.058,4.88,2.8,7.385,1.858,6.268,1.294,13.077-.705,19.286-.706,2.188-1.588,4.375-1.564,6.669a19.064,19.064,0,0,0,1.363,5.774,97.536,97.536,0,0,1,2.706,9.454A6.014,6.014,0,0,1,700.793,345.854Z" transform="translate(0 -10.502)" fill="#57488a" stroke="#57488a" stroke-width="1"/>
    <path id="Tracé_113" data-name="Tracé 113" d="M970.228,578.874a51.555,51.555,0,0,0-8.256,5.787c-1.8,1.54-3.646,3.6-3.316,5.939.294,2.034,2.082,3.446,3.646,4.763,2.552,2.141,4.939,4.7,5.939,7.88s.283,7.091-2.41,9.067c-1.458,1.059-3.528,1.705-3.987,3.458-.776,2.964,3.74,4.457,4.928,7.28.764,1.787.047,3.81-.436,5.692a24.2,24.2,0,0,0,.376,13.441,7.663,7.663,0,0,1-10.455-8.126c-3.269,1.729-3.2,6.622-1.305,9.8a3.492,3.492,0,0,1,.8,2.494c-.247.929-1.247,1.387-2.106,1.8a15.822,15.822,0,0,0-8.619,12.866c-.118,1.846.07,3.763-.577,5.5a8.02,8.02,0,0,1-5.538,4.528,23.879,23.879,0,0,1-7.386.412c1.811,1.47,3.716,3.07,4.4,5.3s-.553,5.186-2.869,5.386c-.318.035-.717-.048-.824-.354a15.43,15.43,0,0,0-15.876,3.787,6.852,6.852,0,0,1-1.611,1.47,4.389,4.389,0,0,1-1.811.459,4.334,4.334,0,0,1-3.586-1.105,6.611,6.611,0,0,1-1-1.835c-2.14-4.892-6.738-8.173-11.125-11.207a2.836,2.836,0,0,0-3.422-.482c-4.422,1.752-8.926,3.551-12.536,6.645a1.692,1.692,0,0,0-.647.882,1.4,1.4,0,0,0,.129.788c.729,1.564,2.717,1.928,4.339,2.481a1.274,1.274,0,0,1,.753.505,1.008,1.008,0,0,1,.024.694c-.341,1.223-1.694,1.787-2.811,2.364s-2.27,1.74-1.834,2.928c.505,1.376,2.528,1.281,3.609,2.258-3.7,2.787-7.126,5.492-10.831,8.279-.505.365-1.058.882-.929,1.493a1.37,1.37,0,0,0,1.2.894,5.741,5.741,0,0,1,1.552.293c.482.224.835.847.529,1.282a1.259,1.259,0,0,1-.246.247q-4.533,3.775-9.079,7.538a1.673,1.673,0,0,1-.846.459,4.487,4.487,0,0,1-.87-.082,2.565,2.565,0,0,0-1.612.764,8.156,8.156,0,0,0-2.4,2.634c-.376.824-.47,1.741-.8,2.587-.787,2.035-2.763,3.328-4.621,4.481-2.152,1.341-4.316,2.693-6.48,4.034-1.34.836-.306,3.152,0,4.693a8.419,8.419,0,0,0,.953,2.752c.917,1.541,2.529,2.494,3.951,3.575s2.811,2.517,2.905,4.3a6.174,6.174,0,0,1-.447,2.281c-.459,1.294-1.2,2.681-2.516,3.069s-2.717-.388-3.752-1.305a11.193,11.193,0,0,0-3.269-2.505c-1.976-.729-4.222.259-5.739,1.717a4.9,4.9,0,0,0-1.682,3.023,1.445,1.445,0,0,0,.2.988,1.908,1.908,0,0,0,.682.529c1.081.588,2.175,1.141,3.281,1.67a1.227,1.227,0,0,1,.565.412,1.17,1.17,0,0,1,.129.529,9.826,9.826,0,0,1-.035,1.67,18.4,18.4,0,0,1-2.364,7.491,2.558,2.558,0,0,1-.541.681c-.682.529-1.741.283-2.423.8a7.318,7.318,0,0,0,2.387,3.469,4.979,4.979,0,0,1,1.035.953,1.136,1.136,0,0,1,.083,1.305,1.523,1.523,0,0,1-.706.459c-.353.152-.718.3-1.07.458a1.085,1.085,0,0,1-.6.13c-.47-.071-.623-.635-.835-1.059a2.776,2.776,0,0,0-2.917-1.223,7.11,7.11,0,0,0-3,1.5,62.736,62.736,0,0,0-8.55,8.209,2.536,2.536,0,0,1-.717.612,1.731,1.731,0,0,1-.647.141,3.573,3.573,0,0,1-2.622-.9,15.3,15.3,0,0,0-1.141-1.165,4.447,4.447,0,0,0-1.929-.706,8.587,8.587,0,0,0-5.163.388,10.7,10.7,0,0,0-2.376,1.741c-1.176,1.036-2.351,2.07-3.54,3.094a6.581,6.581,0,0,1-3.339,1.5c-1.917.33-3.858.659-5.8.847-5.892.588-11.831-.094-17.746-.365a2.9,2.9,0,0,0-1.588.235,2.849,2.849,0,0,0-1.011,2.411c-.177,2.728-.13,5.562-1.247,8.056a1.061,1.061,0,0,1-.541.623,1.022,1.022,0,0,1-.777-.129c-2.693-1.33-3.858-4.458-5.057-7.2-.094-.2-.2-.423-.412-.482a.811.811,0,0,0-.412.036q-6.562,1.886-13.135,3.775a3.766,3.766,0,0,0-1.223.528c-1.129.883-.777,2.717-.024,3.94s1.823,2.41,1.834,3.858a21.852,21.852,0,0,1-1.54,7.667,46.194,46.194,0,0,1-3.435,7.28,10.386,10.386,0,0,1-2.645,3.269c-.717.529-1.541.882-2.2,1.47a4.32,4.32,0,0,0-.177,6.009,6.2,6.2,0,0,0,3.81,1.564c1.388.141,2.8.035,4.2.13a14.225,14.225,0,0,1,7.773,2.987,4.208,4.208,0,0,1,1.082,1.152,3.734,3.734,0,0,1,.353,1.894,8.175,8.175,0,0,1-2.14,5.21,4.381,4.381,0,0,0-1.105,1.493c-.436,1.306.87,2.67,2.246,2.823a6.184,6.184,0,0,0,3.116-.729.48.48,0,0,1,.47-.047c.177.118.259.423.341.611.106.234.212.483.317.729a17.123,17.123,0,0,1,.894,3.057,16.4,16.4,0,0,1,.224,1.705,1.915,1.915,0,0,1-.094,1c-.307.718-1.282.917-1.718,1.565-.658.975.2,2.269.165,3.458-.024,1.4-1.294,2.433-1.929,3.692a16.546,16.546,0,0,0-.906,4.023c-.658,3.033-2.822,5.5-5.092,7.62a51.471,51.471,0,0,1-10.125,7.351,5.018,5.018,0,0,0-1.776,1.339,16.734,16.734,0,0,0-.941,2.259c-.776,1.54-2.563,2.222-4.186,2.787-1.094.377-1.364,1.787-1.47,2.941s.024,2.3-.071,3.457a4.356,4.356,0,0,1-1.328,3.1c-.788.659-1.906.871-2.646,1.588a3.374,3.374,0,0,0-.917,2.223,8.975,8.975,0,0,0,.259,2.446c.47,2.246,1.023,4.469,1.27,6.738A9.58,9.58,0,0,1,725.7,906.6a19.57,19.57,0,0,0-2.693-1.388,2.834,2.834,0,0,0-2.846.423c-.565.565-1.2,1.564-1.847,1.105a1.283,1.283,0,0,1-.388-.67,34.718,34.718,0,0,0-3.9-8.256,8.157,8.157,0,0,0-3.21-3.2c-2.141-.975-4.669-.187-6.974-.647.824-2.6.753-5.927-1.482-7.5-1.387-.988-3.223-1.011-4.927-.988-2.458.023-4.9.058-7.362.094a12.451,12.451,0,0,1-4.939-.623c-2.129-.893-3.54-2.869-5.151-4.516a21.889,21.889,0,0,0-10.125-6.127,16.751,16.751,0,0,0-3.081-.164,4.058,4.058,0,0,1-2.822-1.047,1.862,1.862,0,0,1,.117-2.717c.611-.388,1.6-.388,1.8-1.093a1.2,1.2,0,0,0-.071-.729,4.449,4.449,0,0,0-8.467.023c-.647,2.023.212,4.246-.118,6.339a.628.628,0,0,1-1.059.518,37.131,37.131,0,0,1-4.763-2.788,3.252,3.252,0,0,1-1.318-1.387c-.364-.965.212-2.022.8-2.881a61.648,61.648,0,0,1,5.657-7.174,16.071,16.071,0,0,0,2.4-3.046,4.493,4.493,0,0,0,.376-3.752,5.533,5.533,0,0,0-3.422-2.681,15.986,15.986,0,0,1-4.127-1.682c-.824-.575-1.47-1.376-2.317-1.94a1.8,1.8,0,0,0-.894-.353c-.788-.023-1.352.776-1.552,1.529a8.085,8.085,0,0,1-.588,2.27c-.4.682-1.459,1.059-1.964.46a2.037,2.037,0,0,1-.294-1.13,8.245,8.245,0,0,0-3.622-6.114c-1.929-1.271-4.281-1.67-6.48-2.365a22.94,22.94,0,0,1-4.692-2.093c-.634-.376-1.352-.953-1.234-1.693a1.594,1.594,0,0,1,.423-.811c2.151-2.611,5.81-3.211,8.914-4.564a35.705,35.705,0,0,0,7.1-4.516,13.267,13.267,0,0,0,6.1-8.3c1.27-3.716,2.258-7.609,4.057-11.1,5.327-10.361,10.666-20.769,14.453-31.787,2.011-5.822,3.564-11.784,5.1-17.759,3.364-13.065,1.635-27.437,6.268-40.114q1.959-5.363,3.916-10.725a2.372,2.372,0,0,1,1.059-1.47,1.988,1.988,0,0,1,1.482.153,26.658,26.658,0,0,1,3.693,2.528,4.641,4.641,0,0,0,4.21.823c1.623-.682,2.258-2.787,1.823-4.492a9.68,9.68,0,0,0-2.917-4.328,45.988,45.988,0,0,0-3.48-3.116,3.517,3.517,0,0,0-1-.635,2.576,2.576,0,0,0-2.763,1.153,14.222,14.222,0,0,0-1.341,2.916,10.479,10.479,0,0,1-4.293,4.822c.482-6.021.976-12.066,2.517-17.9,1.294-4.9,3.328-9.62,4.28-14.617,2.329-12.242-.941-25.049,2.47-37.033,1.694-3.928,1.165-8.4,1.435-12.654s1.87-9.044,5.834-10.643a1.641,1.641,0,0,1,1.2-.117,1.687,1.687,0,0,1,.8.988c.8,1.917.824,4.069,1.388,6.08,1.364,4.786,5.585,8.091,9.267,11.454,2.328,2.129,4.515,4.4,6.7,6.669a17.569,17.569,0,0,1,3.387,4.363,17.245,17.245,0,0,1,1.234,6.479c.165,2.6.318,5.2.482,7.8.212,3.47.459,7.045,2.035,10.137s4.9,5.563,8.338,5.069a38.764,38.764,0,0,1-4.893-11.431,57.65,57.65,0,0,1-1.294-7.739c-.858-7.879-1.059-16.24-5.268-22.956-1.329-2.117-3.011-4-4.4-6.08a61.9,61.9,0,0,0-3.728-5.715c-2.152-2.576-5.151-4.293-8.02-6.033a170.34,170.34,0,0,1-16.171-11.1,34.5,34.5,0,0,1-6.268-6.551q2.717-2.964,5.457-5.926a1.672,1.672,0,0,1,.706-.542,1.638,1.638,0,0,1,1.258.27,12.119,12.119,0,0,1,2.893,2.223c.824.858,1.517,1.834,2.41,2.622a4.224,4.224,0,0,0,3.246,1.234,11.845,11.845,0,0,0-5.433-6.985c-1.235-.718-2.835-1.576-2.693-3a9.82,9.82,0,0,0,6.257-.753,4.6,4.6,0,0,0,1.328-.929,4.526,4.526,0,0,0,.894-1.835,16.68,16.68,0,0,0,.317-8.267,19.468,19.468,0,0,1-.705-3.834,4.436,4.436,0,0,1,1.823-3.67,4.994,4.994,0,0,0,.047-3.551c-1.388-4.74-5.633-7.962-9.42-11.137a3.037,3.037,0,0,1-.846-.93c-.611-1.176.341-2.552,1.387-3.363,1.517-1.211,3.329-2.011,4.881-3.176s2.9-2.869,2.869-4.809a4.025,4.025,0,0,0-.376-1.659c2.235-1.8,4.234-4.128,6.456-5.963.811-.658,1.87-1.294,2.835-.906,1.34.541,1.294,2.434,1.87,3.763,1.035,2.376,4.116,2.894,6.7,3.058l10.926.74c2.34.153,4.763.294,6.938-.564,4.387-1.753,6.257-6.833,7.621-11.361-2.211.447-5.174.506-5.974-1.6a4.841,4.841,0,0,1,.023-2.682c.883-4.41,1.705-8.891,1.34-13.372s-1.893-8.8-3.41-13.042q-2.928-8.15-5.845-16.311c-.906-2.505-1.87-5.128-3.857-6.892-1.446-1.294-3.6-2.716-2.964-4.539a29,29,0,0,1,10.678-2.341c3.516-.106,7.573.247,10-2.317,1.352-1.435,1.952-3.622,3.693-4.551a5.791,5.791,0,0,1,2.928-.528c4.716.071,9.337,1.752,14.041,1.469,3.2-.2,6.692-1.223,9.409.471a3.833,3.833,0,0,0,1.387.682,2.517,2.517,0,0,0,1.635-.565c3.846-2.635,5.857-7.185,8.844-10.761a3.4,3.4,0,0,0,1.081.812c2.176,1.223,4.363,2.458,6.551,3.681a4.835,4.835,0,0,1,2.328,2.093c.317.764.235,1.635.494,2.41a6.665,6.665,0,0,0,1.6,2.212c3.469,3.8,5.069,8.9,6.574,13.818,4.422.565,9.326,1.612,13.066-.8,2.058-1.329,3.564-3.422,5.727-4.574a8.077,8.077,0,0,1,10.137,2.552,13.706,13.706,0,0,1,1.788,4.857A53.654,53.654,0,0,1,834.3,489.25c2.682,2.211,5.763,4.68,8.421,6.915a4.835,4.835,0,0,1,2.328,5.045q-.142,3.457-.282,6.927a5.766,5.766,0,0,0,.376,2.87,5.186,5.186,0,0,0,1.74,1.764,25.153,25.153,0,0,0,7.562,3.6c2.587.74,5.669,1.329,6.891,3.739,1.118,2.2.118,5.021,1.176,7.256,1.047,2.211,3.882,3.329,4.516,5.692,6.128,1.141,12.007,2.317,18.134,3.445a5.7,5.7,0,0,0,2.706.071,5.212,5.212,0,0,0,2-1.3c2.752-2.54,5.375-5.786,9.1-6.233,3.786-.459,7.808,2.188,11.266.565,1.282-.6,2.458-1.776,3.869-1.576a6.189,6.189,0,0,1,1.858.8,12.566,12.566,0,0,0,4.1,1.047,153.176,153.176,0,0,0,25.532,1.223,4.4,4.4,0,0,0,2.575-.623c7.362,7.409,14.148,16.252,22.568,22.427a4.625,4.625,0,0,1,1.635,1.705c.6,1.364-.27,2.869-.882,4.233a13.514,13.514,0,0,0,1.258,13.148,6,6,0,0,1,1.188,2.14C974.391,576.24,972.121,577.8,970.228,578.874Z" transform="translate(-8.547 -19.396)" fill="#57488a" stroke="#57488a" stroke-width="1"/>
    <path id="Tracé_114" data-name="Tracé 114" d="M1150.05,794.581a2.338,2.338,0,0,1-1.141.824,44.928,44.928,0,0,0-8.255,5.362c-2.505,1.905-5,3.81-7.5,5.716a86.914,86.914,0,0,0,.458,10.772c.283,2.164.611,4.492-.4,6.433a1.741,1.741,0,0,1-.506.623c-.787.565-1.823-.176-2.5-.882-.471-.482-.953-.976-1.423-1.469a1.659,1.659,0,0,0-.811-.553,1.714,1.714,0,0,0-1.282.482q-3.9,2.91-7.786,5.809a2.019,2.019,0,0,0-.776.86c-.247.67.259,1.352.718,1.893l3.458,3.987a3.373,3.373,0,0,1,.846,1.376,2.38,2.38,0,0,1-1.271,2.388,10.865,10.865,0,0,1-2.739.906,17.8,17.8,0,0,0-9.644,7.208,29.428,29.428,0,0,0-2.67,4.693c-1.717.188-3.445.33-5.174.353a4.05,4.05,0,0,1-2.658-.611,3.594,3.594,0,0,1-1.057-1.846c-.506-1.646-.671-3.375-1.176-5.021a6.46,6.46,0,0,0-2.964-4.046c-1.694-.847-3.716-.494-5.575-.118-3.517.717-7.291,1.575-9.679,4.257a43.051,43.051,0,0,0-3.01,4.74c-2.423,3.646-6.574,3.445-10.255,5.8-5.127,3.269-7.55,9.349-11.36,14.078a9.7,9.7,0,0,1-2.387,2.269c-3.2,1.953-7.291.482-11.031.671-3,.141-5.821,1.376-8.574,2.6a28.376,28.376,0,0,0-5.68,3.057,26.938,26.938,0,0,0-4.457,4.587c-4.669,5.7-9.114,11.807-11.267,18.852a.587.587,0,0,1,.812-.012c-.423.741.576,1.53,1.423,1.552s1.8-.224,2.494.27c.787.553.74,1.717.611,2.67-.306,2.246-.682,4.621-2.175,6.326a9.059,9.059,0,0,1-5.8,2.587c-1.387.177-3.187.529-3.4,1.929-.14.964.659,1.8,1.388,2.458a11.119,11.119,0,0,0,4.622,2.964,3.255,3.255,0,0,1,1.294.446,2.526,2.526,0,0,1,.729,1.4q1.04,3.74,2.058,7.48a8.564,8.564,0,0,1,.47,3.3c-.188,1.529-1.152,2.834-1.622,4.3-.846,2.6-.035,5.457,1.141,7.938a8.369,8.369,0,0,0,2.082,2.964,21.953,21.953,0,0,0,3.351,1.823,16.425,16.425,0,0,1,3.822,3.34c.87.941,1.776,2.046,1.682,3.328a4.859,4.859,0,0,1-1.788,2.893c.14-.435-.294-.811-.671-1.059-2.258-1.481-4.5-2.951-6.762-4.422a8.329,8.329,0,0,0-2.893-1.387,7.748,7.748,0,0,0-4.093.705,62.26,62.26,0,0,0-6.562,2.975,34.116,34.116,0,0,0-5.492,3.282c-.494.388-.776,1.035-1.318,1.364a4.47,4.47,0,0,1-2.281.412c-1.87.011-4.292-.459-5.762,1.011a1.487,1.487,0,0,0-.389.541,2.441,2.441,0,0,0-.058,1.012,9.34,9.34,0,0,1-.647,4.093,2.283,2.283,0,0,1-.753,1.105,2.343,2.343,0,0,1-1.2.282c-2.1.082-4.269-.364-6.3.2-1,.271-1.917.777-2.905,1.071a3.53,3.53,0,0,1-2.987-.236c-1.364-.917-1.377-2.916-2.282-4.292a7.253,7.253,0,0,0-3.363-2.317,25.026,25.026,0,0,0-5.363-1.894c-3.176-.611-6.445.011-9.679-.141-1.775-.094-3.587-.412-5.292.106-2.27.682-3.845,2.681-5.351,4.516s-3.328,3.7-5.691,3.951a2.651,2.651,0,0,1-2.682-1.128,4.8,4.8,0,0,1-.33-1.059,6.809,6.809,0,0,0-3.857-4.375c-1-2.375-2.188-4.951-4.5-6.091-3.222-1.576-7.279.282-10.619-1.023a1.436,1.436,0,0,1-.824-.623,1.843,1.843,0,0,1-.047-1.071c.447-3.586-2.258-6.809-5.187-8.938-5.421-3.951-12.019-5.868-18.475-7.7a5.145,5.145,0,0,0-2.446-.293c-2.481.494-2.94,3.963-4.939,5.515a1.671,1.671,0,0,1-1.141.412c-.894-.106-1.223-1.2-1.387-2.082a29.475,29.475,0,0,0-3.364-9.056,5.152,5.152,0,0,0-1.717-2,5.651,5.651,0,0,0-3.034-.482l-13.584.389a1.934,1.934,0,0,1-1.611-.471c-.447-.588-.071-1.4.106-2.117a5.088,5.088,0,0,0-1.529-4.656,13.353,13.353,0,0,0-4.352-2.634,75.508,75.508,0,0,0-29.871-6.468,13.849,13.849,0,0,1-.388,8.372,3.5,3.5,0,0,0-.341,1.483,3.4,3.4,0,0,0,1.223,1.834,13.989,13.989,0,0,1,2.47,3.329,1.7,1.7,0,0,1,.224,1.587c-.376.658-1.318.589-2.058.447-9.925-1.894-20.169.306-30.259-.317A10.222,10.222,0,0,1,786.13,931a3.993,3.993,0,0,1-1.894-4.41,21.208,21.208,0,0,0-15.946,5.128,4.547,4.547,0,0,1-2.364,1.411,3.323,3.323,0,0,1-1.635-.33c-6.339-2.646-8.139-10.949-13.537-15.206a23.933,23.933,0,0,0-8.185-3.81,7.76,7.76,0,0,1-.988,1.234c-.247-2.269-.8-4.492-1.27-6.738a8.975,8.975,0,0,1-.259-2.446,3.374,3.374,0,0,1,.917-2.223c.74-.717,1.858-.929,2.646-1.588a4.356,4.356,0,0,0,1.328-3.1c.095-1.153-.047-2.317.071-3.457s.376-2.563,1.47-2.941c1.623-.565,3.411-1.247,4.186-2.787a16.73,16.73,0,0,1,.941-2.259,5.018,5.018,0,0,1,1.776-1.339,51.474,51.474,0,0,0,10.125-7.351c2.27-2.117,4.434-4.587,5.092-7.62a16.546,16.546,0,0,1,.906-4.023c.635-1.258,1.9-2.293,1.929-3.692.035-1.188-.824-2.482-.165-3.457.436-.648,1.411-.847,1.718-1.565a1.916,1.916,0,0,0,.094-1,16.407,16.407,0,0,0-.224-1.705,17.126,17.126,0,0,0-.894-3.057c-.105-.246-.211-.495-.317-.729-.082-.188-.164-.494-.341-.611a.48.48,0,0,0-.47.047,6.184,6.184,0,0,1-3.116.729c-1.376-.153-2.682-1.517-2.246-2.823a4.379,4.379,0,0,1,1.105-1.493,8.175,8.175,0,0,0,2.14-5.21,3.734,3.734,0,0,0-.353-1.894,4.206,4.206,0,0,0-1.082-1.152,14.225,14.225,0,0,0-7.773-2.987c-1.4-.095-2.811.011-4.2-.13a6.2,6.2,0,0,1-3.81-1.564,4.319,4.319,0,0,1,.177-6.009c.658-.588,1.482-.941,2.2-1.47a10.385,10.385,0,0,0,2.645-3.269,46.194,46.194,0,0,0,3.435-7.28,21.852,21.852,0,0,0,1.54-7.667c-.011-1.447-1.093-2.623-1.834-3.858s-1.105-3.057.024-3.94a3.769,3.769,0,0,1,1.223-.528q6.562-1.889,13.135-3.775a.811.811,0,0,1,.412-.036c.212.059.318.283.412.482,1.2,2.74,2.364,5.868,5.057,7.2a1.022,1.022,0,0,0,.777.129,1.061,1.061,0,0,0,.541-.623c1.117-2.494,1.07-5.328,1.247-8.056a2.849,2.849,0,0,1,1.011-2.411,2.905,2.905,0,0,1,1.588-.235c5.915.27,11.854.953,17.746.365,1.94-.188,3.881-.518,5.8-.847a6.581,6.581,0,0,0,3.339-1.5c1.189-1.023,2.364-2.058,3.54-3.094a10.691,10.691,0,0,1,2.376-1.741,8.588,8.588,0,0,1,5.163-.388,4.447,4.447,0,0,1,1.929.706,15.309,15.309,0,0,1,1.141,1.165,3.573,3.573,0,0,0,2.622.9,1.731,1.731,0,0,0,.647-.14,2.536,2.536,0,0,0,.717-.612,62.74,62.74,0,0,1,8.55-8.209,7.11,7.11,0,0,1,3-1.5,2.776,2.776,0,0,1,2.917,1.223c.212.423.365.988.835,1.059a1.086,1.086,0,0,0,.6-.13c.352-.153.717-.306,1.07-.458a1.523,1.523,0,0,0,.706-.46,1.136,1.136,0,0,0-.083-1.305,4.982,4.982,0,0,0-1.035-.953,7.318,7.318,0,0,1-2.387-3.469c.682-.518,1.741-.271,2.423-.8a2.558,2.558,0,0,0,.541-.681,18.4,18.4,0,0,0,2.364-7.491,9.825,9.825,0,0,0,.035-1.67,1.17,1.17,0,0,0-.129-.529,1.226,1.226,0,0,0-.565-.412c-1.105-.529-2.2-1.083-3.281-1.67a1.909,1.909,0,0,1-.682-.529,1.445,1.445,0,0,1-.2-.988,4.9,4.9,0,0,1,1.682-3.023c1.517-1.458,3.763-2.446,5.739-1.717a11.193,11.193,0,0,1,3.269,2.505c1.035.917,2.423,1.694,3.752,1.305s2.058-1.775,2.516-3.069a6.174,6.174,0,0,0,.447-2.281c-.095-1.787-1.47-3.234-2.905-4.3s-3.034-2.034-3.951-3.575a8.419,8.419,0,0,1-.953-2.752c-.306-1.541-1.34-3.857,0-4.693,2.164-1.34,4.328-2.692,6.48-4.034,1.858-1.152,3.834-2.446,4.621-4.481.33-.846.423-1.764.8-2.587a8.156,8.156,0,0,1,2.4-2.634,2.565,2.565,0,0,1,1.612-.764,4.482,4.482,0,0,0,.87.082,1.673,1.673,0,0,0,.846-.459q4.534-3.775,9.079-7.538a1.259,1.259,0,0,0,.246-.247c.306-.435-.047-1.059-.529-1.282a5.741,5.741,0,0,0-1.552-.293,1.37,1.37,0,0,1-1.2-.894c-.129-.611.423-1.128.929-1.493,3.7-2.787,7.127-5.492,10.831-8.279-1.082-.976-3.1-.882-3.609-2.258-.436-1.189.716-2.341,1.834-2.928s2.47-1.141,2.811-2.364a1.008,1.008,0,0,0-.024-.695,1.274,1.274,0,0,0-.753-.505c-1.622-.553-3.61-.917-4.339-2.481a1.4,1.4,0,0,1-.129-.788,1.692,1.692,0,0,1,.647-.882c3.61-3.094,8.114-4.893,12.536-6.645a2.836,2.836,0,0,1,3.422.482c4.386,3.033,8.984,6.315,11.125,11.207a6.612,6.612,0,0,0,1,1.835,4.334,4.334,0,0,0,3.586,1.105,4.387,4.387,0,0,0,1.811-.459,6.851,6.851,0,0,0,1.611-1.47,15.43,15.43,0,0,1,15.876-3.787c.106.306.505.389.824.354a12.13,12.13,0,0,0,3.81,9.655,8.912,8.912,0,0,1,2.493,2.7,6.449,6.449,0,0,1,.341,2.646q-.1,6.985-.423,13.947a8.542,8.542,0,0,0,.505,4.152c.624,1.258,2.188,2.175,3.47,1.6.717-.33,1.188-1.035,1.834-1.482,1.682-1.165,3.928-.341,5.939,0a13.737,13.737,0,0,0,9.362-2.059,21.366,21.366,0,0,0,6.714-7.009,15.771,15.771,0,0,0,2.752-8.961,17.614,17.614,0,0,1-.141-2.834c.341-3.163,3.575-5.081,6.433-6.5,1.224-.6,2.447-1.211,3.67-1.811a3.028,3.028,0,0,1,1.987-.459c.988.235,1.446,1.364,1.752,2.34.423,1.33.847,2.646,1.258,3.975a2.089,2.089,0,0,0,.577,1.059,1.8,1.8,0,0,0,1.152.306c1.94-.011,4.08-.835,5.715.212,2.447,1.564,1.565,5.879,3.951,7.527.611.423,1.364.6,1.929,1.07a4.824,4.824,0,0,1,1.318,3q.705,4,1.21,8.02a4.044,4.044,0,0,0,3.246-2.658,11.809,11.809,0,0,0,.589-4.352c.023-1.764.047-3.54.058-5.3.047-3.152,1.905-5.668,3.61-8.315,1.458-2.281,3.245-4.4,4.257-6.915a17.755,17.755,0,0,1,3,.729,1.36,1.36,0,0,1,.941.682c.094.247.047.553.223.764a.84.84,0,0,0,.695.177c1.788-.177,3.2-1.588,4.3-3.01s2.14-3,3.752-3.81a8.694,8.694,0,0,1,5.256-.436,6.868,6.868,0,0,1,2.505.788c2.034,1.258,2.411,4.01,2.564,6.4.129,1.905.246,3.81.375,5.716a.848.848,0,0,0,.119.446c.187.27.6.235.929.2a6.654,6.654,0,0,1,1.87.048c.93.164,1.811.517,2.74.6a5.783,5.783,0,0,0,5.48-3.716c.589-1.435.965-3.316,2.458-3.728,1.635-.447,3.058,1.329,4.74,1.552,3.328,3.094,6.539,6.1,9.655,9.409,1.47,1.564,2.986,3.3,3.21,5.445.188,1.882-.693,3.775-.4,5.645.4,2.669,3.046,4.6,3.387,7.28a6.535,6.535,0,0,0,.294,1.87c.517,1.105,1.916,1.411,2.964,2.046a6.171,6.171,0,0,1,2.634,4.14,21.142,21.142,0,0,1,.176,5.033q-.14,3.917.048,7.832a1.6,1.6,0,0,0,.224.906,1.652,1.652,0,0,0,.964.459c1.858.412,3.728.823,5.586,1.234a2.091,2.091,0,0,1,1.329.682,2.026,2.026,0,0,1,.153,1.294c-.164,1.635-.341,3.258-.505,4.881a1.278,1.278,0,0,0,1.4,1.635,24.706,24.706,0,0,0,8.3.376,2.573,2.573,0,0,1,1.117-.059,2.3,2.3,0,0,1,1.07.894c.648.8,1.282,1.611,1.929,2.423a3.19,3.19,0,0,0,1.353,1.152c1.094.352,2.211-.6,2.7-1.635a22.9,22.9,0,0,1,1.305-3.176c.894-1.294,2.5-1.858,4-2.34,1.176-.389,2.364-.764,3.54-1.153.623-.2,1.482-.317,1.788.259a1.47,1.47,0,0,1-.236,1.317c-.623,1.152-1.246,2.3-1.881,3.469a2.549,2.549,0,0,0,2.646-.788c.694-.694,1.176-1.575,1.894-2.235a4.575,4.575,0,0,1,6.915,1.446c.634,1.4.834,3.435,2.351,3.682a10.61,10.61,0,0,0,3.657,2.61,5.19,5.19,0,0,1,1.977,1.105,3.66,3.66,0,0,1,.6,1.036c1.882,4.327,1.635,9.337,3.446,13.688a1.607,1.607,0,0,0,.259.459,1.8,1.8,0,0,0,.846.423,12.305,12.305,0,0,1,5.821,4.151,36.329,36.329,0,0,1,3.834,6.151A2.188,2.188,0,0,1,1150.05,794.581Z" transform="translate(-13.542 -29.806)" fill="#57488a"/>
    <path id="Tracé_115" data-name="Tracé 115" d="M1380.675,774.009a1.637,1.637,0,0,0-.447.859c-.059.74.788,1.164,1.258,1.74,1.176,1.483-.412,3.634-2.117,4.446s-3.834,1.317-4.669,3.022c-.505,1.047-.364,2.3-.74,3.422s-1.752,2.47-2.623,1.681q-1.553,2.188-2.928,4.481a2.624,2.624,0,0,0-.483,1.223c-.035.93.87,1.612,1.729,1.953a5.694,5.694,0,0,1,2.422,1.305,2.751,2.751,0,0,1,.048,3.07,7.514,7.514,0,0,1-2.352,2.235c-2.117,1.469-4.363,2.834-5.974,4.833a10.833,10.833,0,0,1-2.4,2.657c-1.54.965-3.5.659-5.3.471a2.323,2.323,0,0,0-1.176.071c-.859.33-1.094,1.387-1.54,2.2-1.858,3.387-7.315,2.092-9.8,5.057a3.683,3.683,0,0,0-.188,3.951,9.513,9.513,0,0,0,2.822,3.034,5.891,5.891,0,0,1-6.069,1.164c.33,1.353-1.128,2.458-2.458,2.87a10.545,10.545,0,0,1-5.762.129c-1.858,1-2.352,3.422-2.423,5.527s.013,4.422-1.3,6.08c-1.082,1.388-2.893,1.964-4.575,2.47-2.045.612-4.3,1.211-6.268.365-.481-.212-1.081-.494-1.481-.153a1.136,1.136,0,0,0-.294.436,18.211,18.211,0,0,1-2.693,4.75c-.8.906-.141,2.329-.354,3.517a4.684,4.684,0,0,1-2.3,2.669c-1.705,1.153-3.4,2.305-5.1,3.458-.518.353-1.082.777-1.153,1.4-.094.87.824,1.493,1.659,1.776a9.5,9.5,0,0,0,3.716.494,2.939,2.939,0,0,1,1.776.2,1.8,1.8,0,0,1,.528,2.129c-.552,1.529-2.246,2.258-3.763,2.822a17.46,17.46,0,0,1-5.845,1.446c-1.105.024-2.222-.176-3.328-.082a12.75,12.75,0,0,0-4.14,1.329c-2.729,1.224-5.575,2.54-7.374,4.928a4.326,4.326,0,0,1-.893,1.011,3.467,3.467,0,0,1-1.024.4,17.662,17.662,0,0,1-4.9.518,8.381,8.381,0,0,0-1.717.023,7.2,7.2,0,0,0-1.846.706l-3.176,1.552a7.261,7.261,0,0,1-4.057,8.62,25.5,25.5,0,0,0,1.423-5.986c.071-.705-.023-1.646-.718-1.823-.611-.164-1.129.423-1.552.894a6.959,6.959,0,0,1-4.869,2.258,1.12,1.12,0,0,1-.976-.33,1.206,1.206,0,0,1-.153-.647c-.011-.846.741-2.175.835-3.01a16.164,16.164,0,0,0-6.28.506,2.593,2.593,0,0,0-1.364.764,3.9,3.9,0,0,0-.505,1.469,5.641,5.641,0,0,1-4.457,3.846,10.922,10.922,0,0,1-6.069-.812c-.835-.341-1.8-1-1.612-1.881.26-1.165,2.211-1.142,2.611-2.27.341-.917-.623-1.765-1.458-2.281-1.94-1.2-3.881-2.41-5.821-3.61a14.847,14.847,0,0,0-4.281-2.07,5.126,5.126,0,0,0-4.515.835c-.565.482-.989,1.141-1.612,1.576a3.822,3.822,0,0,1-4.257-.317,10.207,10.207,0,0,1-2.764-3.565c-.259-.458-.541-.953-1.035-1.105a2.184,2.184,0,0,0-1.376.2,20.08,20.08,0,0,1-10.69.917,1.1,1.1,0,0,1-1.118-1.47,15.011,15.011,0,0,1,2.058-5.916c.741-1.21,1.682-2.457,1.552-3.857-.211-2.152-2.729-3.187-4.845-3.622a5.124,5.124,0,0,0-3.034.011c-1.141.459-1.823,1.611-2.788,2.364-1.881,1.482-4.527,1.317-6.914,1.094-1.847-.188-3.7-.364-5.552-.541a4.532,4.532,0,0,1-3-1.059,5.032,5.032,0,0,1-.906-1.929,21.906,21.906,0,0,0-4.669-8.008l-.188-.8c-1.964.835-4.164,1.023-6.1,1.917s-3.646,2.928-3.116,4.986c.436,1.67,2.2,3.4,1.153,4.763a2.878,2.878,0,0,1-1.787.847,28.58,28.58,0,0,1-11.643.258,16.894,16.894,0,0,1-9.9-5.844,8.435,8.435,0,0,1,1.387-1.659,1.667,1.667,0,0,0,.294-1.987,1.79,1.79,0,0,0-.764-.506c-4.54-1.987-9.679-2.129-14.63-1.717-3.223.27-6.421.777-9.632,1.094a29.428,29.428,0,0,1,2.67-4.693,17.8,17.8,0,0,1,9.644-7.208,10.865,10.865,0,0,0,2.739-.906,2.38,2.38,0,0,0,1.271-2.388,3.373,3.373,0,0,0-.846-1.376l-3.458-3.987c-.459-.541-.965-1.223-.718-1.893a2.019,2.019,0,0,1,.776-.86q3.881-2.909,7.786-5.809a1.714,1.714,0,0,1,1.282-.482,1.659,1.659,0,0,1,.811.553c.47.493.952.988,1.423,1.469.681.706,1.717,1.446,2.5.882a1.741,1.741,0,0,0,.506-.623c1.011-1.94.682-4.269.4-6.433a86.914,86.914,0,0,1-.458-10.772c2.5-1.906,5-3.811,7.5-5.716a44.928,44.928,0,0,1,8.255-5.362,2.338,2.338,0,0,0,1.141-.824,2.188,2.188,0,0,0-.33-2.034,36.329,36.329,0,0,0-3.834-6.151,12.305,12.305,0,0,0-5.821-4.151,1.8,1.8,0,0,1-.846-.423,1.607,1.607,0,0,1-.259-.459c-1.811-4.351-1.564-9.361-3.446-13.688a3.66,3.66,0,0,0-.6-1.036,5.19,5.19,0,0,0-1.977-1.105,10.61,10.61,0,0,1-3.657-2.61c2.752-1.306,4.152-5.316,7.174-5.763,1.87-.294,3.67.893,4.986,2.258a16.408,16.408,0,0,1,3.164,4.574c.482,1.047,1.046,2.305,2.187,2.493a3.39,3.39,0,0,0,2.552-1.152,57.208,57.208,0,0,1,19.875-11.043c-.27,2.552-.541,5.187.2,7.644s2.717,4.728,5.269,4.975a14.343,14.343,0,0,0,3.457-.353,14.439,14.439,0,0,1,9.856,2.246,2.935,2.935,0,0,1,.975.917,4.279,4.279,0,0,1,.353,2.011,8.734,8.734,0,0,0,3.069,6.221,3.676,3.676,0,0,0,1.575.87c2.011.435,3.552-1.647,4.717-3.34,1.611-2.364,3.762-4.574,6.55-5.222a3.932,3.932,0,0,0,3.222,5.2c2.917.177,4.915-2.9,5.692-5.715a5.672,5.672,0,0,0,.223-2.835,6.542,6.542,0,0,0-1.775-2.681,52.989,52.989,0,0,0-7-6.6c-2.341-1.728-4.939-3.046-7.315-4.716a30.375,30.375,0,0,1-7.868-8.115c-.224-.329-.435-.74-.246-1.081s.634-.365,1-.459a3.649,3.649,0,0,0,2.54-3.1,10.632,10.632,0,0,0-.436-4.2c2.67,2.986,7.915,2.693,10.738-.153s3.281-7.5,1.752-11.208c-.283-.671-.588-1.506-.118-2.058a1.869,1.869,0,0,1,.929-.459q4.252-1.165,8.514-2.341c2.376-.647,3.846-2.9,5.845-4.352a5.7,5.7,0,0,0,1.435-1.329,7.609,7.609,0,0,0,.823-2.222c.965-3.316,3.411-5.95,5.787-8.468,2.552-2.681,5.245-5.48,8.785-6.585,4.763-1.5,9.985.376,14.9-.541a4.9,4.9,0,0,1,1.435-.164,5.452,5.452,0,0,1,1.787.611,11.659,11.659,0,0,0,7.42.634c1.035-.247,2.235-.953,2.117-2.011a2.4,2.4,0,0,0-.518-1.093c-1.929-2.776-3.845-5.539-5.774-8.3a7.243,7.243,0,0,0-2.234-2.352,9.569,9.569,0,0,0-2.941-.74,13.43,13.43,0,0,1-8.973-6.281,1.854,1.854,0,0,1-.329-1.081,1.877,1.877,0,0,1,.741-1.117q3.7-3.441,7.409-6.892a2.754,2.754,0,0,1,1.011-.682,2.562,2.562,0,0,1,1.294.082,17.932,17.932,0,0,1,6.116,2.223c2.422,1.623,4.433,4.516,7.35,4.352a2.3,2.3,0,0,0,1.54-.6,4.72,4.72,0,0,0,.823-1.929c.8-2.388,3.352-3.821,5.845-4.093.258-.023.518-.047.788-.047a2.611,2.611,0,0,0-.4,1.388,4.1,4.1,0,0,0,1.952,2.987,8.839,8.839,0,0,1,2.7,2.481c.459.788.635,1.811,1.4,2.305,1.376.87,3.551-.623,4.692.541a2.486,2.486,0,0,1,.552,1.341,14.074,14.074,0,0,1-.14,5.609,6.14,6.14,0,0,0-.318,2.787,5.081,5.081,0,0,0,1.6,2.329,26.718,26.718,0,0,0,5.963,4.893,8.966,8.966,0,0,0,7.456.752c1.482-.611,3.116-1.752,4.492-.953,1.094.624,1.283,2.117,1.2,3.375a4.426,4.426,0,0,0,.658,3.14,31.26,31.26,0,0,1,4.069,8.843,25.526,25.526,0,0,0-9.149,5.48,3.409,3.409,0,0,0-1.012,1.365,5.642,5.642,0,0,0,.224,2.6,5.614,5.614,0,0,1-1.635,4.893c-1.635,1.54-4.339,2.281-4.833,4.468-.376,1.705.882,3.363,2.34,4.316s3.164,1.493,4.517,2.6,2.245,3.081,1.363,4.574c-.964,1.647-3.575,1.929-4.174,3.728-.448,1.365.541,2.752,1.481,3.846,3.282,3.81,6.669,7.609,10.878,10.337s9.421,4.293,14.313,3.2a3.286,3.286,0,0,1,2.481.024c1.517.976.293,3.645,1.493,4.986,1.164,1.305,3.234.235,4.951,0a4.912,4.912,0,0,1,5.256,3.528,1.96,1.96,0,0,0,.483,1.07,1.34,1.34,0,0,0,.846.224c3.834.129,7.221-2.364,10.009-4.975s5.491-5.586,9.1-6.821c.917,1.894-.658,4.246.094,6.221.718,1.894,3.094,2.446,4.564,3.834a1.647,1.647,0,0,1,.623,1.141,2.073,2.073,0,0,1-.588,1.211Q1382.433,771.839,1380.675,774.009Z" transform="translate(-30.672 -29.049)" fill="#57488a"/>
    <path id="Tracé_116" data-name="Tracé 116" d="M1321.07,644.847c-.083.941-1.223,1.435-2.165,1.34s-1.822-.517-2.763-.552a6.3,6.3,0,0,0-3.8,1.646,11.4,11.4,0,0,0-2.387,2.175,32.466,32.466,0,0,0-1.8,3.164,10,10,0,0,1-4.221,3.834,1.247,1.247,0,0,1-.73.152c-.635-.14-.623-1.011-.717-1.658a3.2,3.2,0,0,0-2.059-2.4,6.081,6.081,0,0,0-3.281-.2c-2.928.517-5.515,2.163-8.009,3.786a7.3,7.3,0,0,0-2.387,2.164c-.27,0-.53.024-.788.047-2.494.271-5.045,1.705-5.845,4.093a4.72,4.72,0,0,1-.823,1.929,2.3,2.3,0,0,1-1.54.6c-2.917.164-4.928-2.729-7.35-4.352a17.932,17.932,0,0,0-6.116-2.223,2.562,2.562,0,0,0-1.294-.082,2.754,2.754,0,0,0-1.011.682q-3.7,3.441-7.409,6.892a1.877,1.877,0,0,0-.741,1.117,1.854,1.854,0,0,0,.329,1.081,13.43,13.43,0,0,0,8.973,6.281,9.569,9.569,0,0,1,2.941.74,7.243,7.243,0,0,1,2.234,2.352c1.929,2.764,3.845,5.527,5.774,8.3a2.4,2.4,0,0,1,.518,1.093c.117,1.059-1.083,1.765-2.117,2.011a11.659,11.659,0,0,1-7.42-.634,5.452,5.452,0,0,0-1.787-.611,4.9,4.9,0,0,0-1.435.164c-4.915.917-10.137-.964-14.9.541-3.54,1.105-6.233,3.9-8.785,6.585-2.376,2.517-4.822,5.151-5.787,8.468a7.609,7.609,0,0,1-.823,2.222,5.7,5.7,0,0,1-1.435,1.329c-2,1.447-3.469,3.7-5.845,4.352q-4.269,1.182-8.514,2.341a1.869,1.869,0,0,0-.929.459c-.47.552-.165,1.387.118,2.058,1.529,3.7,1.07,8.361-1.752,11.208s-8.067,3.139-10.738.153a10.632,10.632,0,0,1,.436,4.2,3.649,3.649,0,0,1-2.54,3.1c-.365.094-.811.129-1,.459s.023.753.246,1.081a30.375,30.375,0,0,0,7.868,8.115c2.376,1.67,4.975,2.987,7.315,4.716a52.989,52.989,0,0,1,7,6.6,6.542,6.542,0,0,1,1.775,2.681,5.672,5.672,0,0,1-.223,2.835c-.777,2.811-2.775,5.892-5.692,5.715a3.932,3.932,0,0,1-3.222-5.2c-2.788.648-4.939,2.858-6.55,5.222-1.165,1.693-2.706,3.775-4.717,3.34a3.676,3.676,0,0,1-1.575-.87,8.734,8.734,0,0,1-3.069-6.221,4.279,4.279,0,0,0-.353-2.011,2.935,2.935,0,0,0-.975-.917,14.439,14.439,0,0,0-9.856-2.246,14.343,14.343,0,0,1-3.457.353c-2.552-.247-4.539-2.516-5.269-4.975s-.47-5.092-.2-7.644a57.208,57.208,0,0,0-19.875,11.043,3.39,3.39,0,0,1-2.552,1.152c-1.141-.188-1.705-1.446-2.187-2.493a16.408,16.408,0,0,0-3.164-4.574c-1.317-1.364-3.116-2.552-4.986-2.258-3.022.447-4.422,4.457-7.174,5.763-1.517-.247-1.717-2.281-2.351-3.682a4.575,4.575,0,0,0-6.915-1.446c-.718.659-1.2,1.541-1.894,2.235a2.549,2.549,0,0,1-2.646.788c.635-1.165,1.258-2.317,1.881-3.469a1.47,1.47,0,0,0,.236-1.317c-.306-.576-1.165-.459-1.788-.259-1.176.389-2.364.764-3.54,1.153-1.494.482-3.1,1.046-4,2.34a22.9,22.9,0,0,0-1.305,3.176c-.494,1.035-1.611,1.987-2.7,1.635a3.19,3.19,0,0,1-1.353-1.152c-.647-.812-1.281-1.624-1.929-2.423a2.3,2.3,0,0,0-1.07-.894,2.573,2.573,0,0,0-1.117.059,24.706,24.706,0,0,1-8.3-.376,1.278,1.278,0,0,1-1.4-1.635c.164-1.623.341-3.246.505-4.881a2.026,2.026,0,0,0-.153-1.294,2.091,2.091,0,0,0-1.329-.682c-1.858-.412-3.728-.823-5.586-1.234a1.652,1.652,0,0,1-.964-.459,1.6,1.6,0,0,1-.224-.906q-.194-3.917-.048-7.832a21.142,21.142,0,0,0-.176-5.033,6.171,6.171,0,0,0-2.634-4.14c-1.047-.635-2.447-.941-2.964-2.046a6.535,6.535,0,0,1-.294-1.87c-.341-2.682-2.988-4.611-3.387-7.28-.294-1.871.588-3.763.4-5.645-.224-2.14-1.74-3.881-3.21-5.445-3.116-3.3-6.328-6.315-9.655-9.409-1.682-.223-3.1-2-4.74-1.552-1.493.412-1.87,2.293-2.458,3.728a5.783,5.783,0,0,1-5.48,3.716c-.929-.083-1.811-.436-2.74-.6a6.655,6.655,0,0,0-1.87-.048c-.33.035-.741.071-.929-.2a.846.846,0,0,1-.119-.446c-.129-1.906-.246-3.811-.375-5.716-.154-2.387-.53-5.139-2.564-6.4a6.868,6.868,0,0,0-2.505-.788,8.694,8.694,0,0,0-5.256.436c-1.612.811-2.646,2.387-3.752,3.81s-2.517,2.834-4.3,3.01a.84.84,0,0,1-.695-.177c-.176-.211-.129-.517-.223-.764a1.36,1.36,0,0,0-.941-.682,17.752,17.752,0,0,0-3-.729c-1.012,2.516-2.8,4.634-4.257,6.915-1.705,2.646-3.564,5.163-3.61,8.315-.011,1.764-.035,3.54-.058,5.3a11.809,11.809,0,0,1-.589,4.352,4.044,4.044,0,0,1-3.246,2.658q-.51-4.023-1.21-8.02a4.824,4.824,0,0,0-1.318-3c-.565-.471-1.317-.647-1.929-1.07-2.387-1.647-1.5-5.963-3.951-7.527-1.635-1.047-3.775-.224-5.715-.212a1.8,1.8,0,0,1-1.152-.306,2.089,2.089,0,0,1-.577-1.059c-.411-1.329-.835-2.645-1.258-3.975-.306-.975-.764-2.1-1.752-2.34a3.028,3.028,0,0,0-1.987.459c-1.223.6-2.446,1.211-3.67,1.811-2.858,1.423-6.092,3.34-6.433,6.5a17.614,17.614,0,0,0,.141,2.834,15.771,15.771,0,0,1-2.752,8.961,21.366,21.366,0,0,1-6.714,7.009,13.737,13.737,0,0,1-9.362,2.059c-2.011-.341-4.257-1.165-5.939,0-.647.447-1.117,1.152-1.834,1.482-1.282.576-2.846-.341-3.47-1.6a8.542,8.542,0,0,1-.505-4.152q.318-6.968.423-13.947a6.449,6.449,0,0,0-.341-2.646,8.912,8.912,0,0,0-2.493-2.7,12.13,12.13,0,0,1-3.81-9.655c2.316-.2,3.551-3.152,2.869-5.386s-2.587-3.834-4.4-5.3a23.875,23.875,0,0,0,7.386-.412,8.02,8.02,0,0,0,5.538-4.528c.647-1.74.459-3.657.577-5.5a15.822,15.822,0,0,1,8.619-12.866c.859-.412,1.858-.87,2.106-1.8a3.493,3.493,0,0,0-.8-2.494c-1.894-3.175-1.964-8.067,1.305-9.8a7.663,7.663,0,0,0,10.455,8.126,24.2,24.2,0,0,1-.376-13.441c.482-1.882,1.2-3.9.436-5.692-1.188-2.823-5.7-4.316-4.928-7.28.459-1.752,2.529-2.4,3.987-3.458,2.693-1.976,3.411-5.88,2.41-9.067s-3.387-5.739-5.939-7.88c-1.564-1.317-3.352-2.729-3.646-4.763-.33-2.341,1.517-4.4,3.316-5.939a51.558,51.558,0,0,1,8.256-5.787c1.893-1.07,4.163-2.634,3.716-4.751a6,6,0,0,0-1.187-2.14,13.514,13.514,0,0,1-1.258-13.148c.611-1.364,1.482-2.869.882-4.233a4.626,4.626,0,0,0-1.635-1.705c-8.42-6.175-15.206-15.018-22.568-22.427,1.811-1.317.847-4.21,1.565-6.339,1.023-3.058,5.022-3.657,8.244-3.622,2.94.023,5.939.141,8.749-.73s5.456-2.928,6.127-5.786c.459-1.94-.035-3.974.095-5.963a9.676,9.676,0,0,1,5-7.75,38.4,38.4,0,0,0,5.633-3.986,20.361,20.361,0,0,1,4.081-2.812,14.919,14.919,0,0,1,5.044-.929c2.258-.153,4.516-.294,6.786-.447a24.028,24.028,0,0,1,6.138,4.375,18.988,18.988,0,0,0,2.434,2.6,3.318,3.318,0,0,0,3.329.623c1.081-.505,1.623-1.752,2.646-2.364,1.916-1.152,4.315.423,5.75,2.14.647.777,1.411,1.694,2.434,1.659,1.188-.035,1.894-1.294,2.434-2.352.859-1.659,2.328-3.446,4.164-3.116,1.681.294,2.5,2.188,2.975,3.822s1.129,3.551,2.751,4.069a3.447,3.447,0,0,0,3.458-1.2,9.829,9.829,0,0,0,1.765-3.411c.917-2.516,1.823-5.033,2.74-7.549,4.74,2.822,7.139,8.291,8.962,13.489,1.316,3.751,2.493,7.562,3.516,11.407,2.27,1.176,5.163,1.2,7.668,1.741s5.1,1.469,6.632,3.528a10.862,10.862,0,0,1,1.682,6.068c.118,2.788-.212,5.822-2.106,7.868a7.913,7.913,0,0,0-1.764,2.058,4.96,4.96,0,0,0-.071,2.752c.318,1.94.647,3.892.965,5.844a4.467,4.467,0,0,0,.787,2.2,4.222,4.222,0,0,0,1.659,1.059,50.721,50.721,0,0,0,19.169,4.186,13.1,13.1,0,0,0,4.539-.517c4.54-1.576,6.374-6.833,8.95-10.89a5.9,5.9,0,0,1,2-2.129,6.539,6.539,0,0,1,2.257-.634q7.091-1.112,14.183-2.235a3.169,3.169,0,0,1,1.847.082,3.033,3.033,0,0,1,1.329,2.117c.964,3.586,1.493,7.667,4.339,10.054,2.563-1.446,3.963-4.269,5.221-6.926,2.352-5,4.728-10.055,5.869-15.453.694-3.292,1.188-7.115,4.022-8.914,3.081-1.964,7.221-.4,10.737-1.388.706.294,1.071.071,1.776.365,1.364.565,2.729,1.141,4.046,1.8,5.762,2.917,10.454,7.55,14.852,12.278a26.329,26.329,0,0,0,5.515,4.975,8.3,8.3,0,0,0,7.139.988c2.893-1.141,4.481-4.246,7.056-6a1.445,1.445,0,0,1,.694-.293,1.647,1.647,0,0,1,1.165.634,77.118,77.118,0,0,0,5.715,5.2,4.7,4.7,0,0,0,1.682,1.023,4.987,4.987,0,0,0,2.164-.047c2.6-.447,5.21-.894,7.809-1.34a2.939,2.939,0,0,0,1.329-.447,3.154,3.154,0,0,0,.834-1.189,56.129,56.129,0,0,1,8.562-12.583,13.972,13.972,0,0,1,4.528,2.152,4.987,4.987,0,0,1,2.07,4.421,6.609,6.609,0,0,1-.988,2.376,32.268,32.268,0,0,1-9.044,9.832c-1.2.858-2.54,1.752-2.952,3.163-.282.988-.047,2.081-.412,3.046a3.052,3.052,0,0,0-.341,1.046,1.924,1.924,0,0,0,.718,1.211c2.117,2.093,4.68,4.352,7.632,4.022a9.934,9.934,0,0,0,4.281-1.987c3.951-2.729,7.786-5.633,11.466-8.7a5.815,5.815,0,0,0,1.541-1.682,4.323,4.323,0,0,0,.388-2.4,7.477,7.477,0,0,0-5.716-6.456,60.324,60.324,0,0,0,3.728-5.1,20.983,20.983,0,0,0,7.069,1.364,7.139,7.139,0,0,0,6.068-3.292c.518-.965.824-2.164,1.789-2.658a3.26,3.26,0,0,1,1.339-.283c4.635-.317,9.444.177,13.772-1.493,1.105-.436,2.446-.964,3.364-.224.776.635.74,1.8,1.046,2.751a10.176,10.176,0,0,0,2.175,3.1,27.85,27.85,0,0,1,4.022,7.538,2.238,2.238,0,0,1,.224,1.612c-.177.494-.671.788-1.094,1.094-1.834,1.316-2.129,3.445-2.987,5.538a7.107,7.107,0,0,0,4.045,9.032,13.737,13.737,0,0,1,3.4,1.2,7.163,7.163,0,0,1,1.4,1.458q4.551,5.8,9.09,11.584a4.868,4.868,0,0,1,1.059,1.87,4.07,4.07,0,0,1-.364,2.376c-2.293,5.574-8.339,8.561-14.113,10.313-1.059.329-2.245.717-2.728,1.717a3.93,3.93,0,0,0-.27,1.659c-.095,3.963-.048,8.315,2.516,11.337,2.046,2.41,5.245,3.422,8.162,4.622s5.985,3,6.914,6.021c.635,2.07.13,4.293.024,6.456s.365,4.645,2.235,5.739c1.9,1.129,4.669.412,6.233,1.987a5.456,5.456,0,0,1,1.188,3.282C1322.716,631.418,1321.646,638.132,1321.07,644.847Z" transform="translate(-22.718 -21.347)" fill="#57488a"/>
    <path id="Tracé_117" data-name="Tracé 117" d="M1462.887,912.02c-.746.676-1.629,1.384-1.726,2.387a4.016,4.016,0,0,0,.923,2.393,18.1,18.1,0,0,1,1.947,14.795,10.559,10.559,0,0,0-18.618,1.157,11.219,11.219,0,0,1-1.254,2.5,7.833,7.833,0,0,1-3.632,2.07,62.6,62.6,0,0,0-30.836,24.453,2.443,2.443,0,0,0-.5,1.211c-.039,1.295,1.739,1.764,3.01,1.516s2.754-.727,3.735.119l-5.834,14.627c-.722,1.811-1.437,3.9-.546,5.637,1.12,2.181,4.026,2.515,6.465,2.769s5.39,1.216,5.759,3.64c.559,3.67-5.085,5-6.639,8.366a4.542,4.542,0,0,0,3.468,6.117c2.88.31,5.694-2.251,8.449-1.358,2.463.8,3.314,4.105,2.355,6.51s-3.146,4.068-5.276,5.539-4.389,2.965-5.636,5.234l21.216,4.77-5.223,3.483c-2.586,1.724-5.469,3.993-5.378,7.1.109,3.679,4.2,5.723,7.666,6.958l7.788,2.777c1.9.678,3.909,1.428,5.161,3.014s1.315,4.284-.4,5.353c2.725,1.086,5.569,2.192,8.494,1.97s5.941-2.2,6.324-5.108c.21-1.6-.385-3.192-.535-4.8-.7-7.456,7.913-13.06,8.083-20.545a30.341,30.341,0,0,0-.968-6.181c-1.645-8.829,1.3-17.795,4.209-26.291a10.1,10.1,0,0,1,1.858-3.681c.72-.783,1.674-1.323,2.391-2.109,1.639-1.8,1.736-4.477,1.742-6.911.033-13.045.065-26.091-.23-39.133a6.8,6.8,0,0,0-.828-3.766c-.866-1.256-2.442-1.775-3.659-2.7-3.877-2.931-3.254-8.78-2.757-13.615a123.149,123.149,0,0,0,.238-18.357c-.079-1.676-.521-4.078-2.735-3.2A7.824,7.824,0,0,0,1467.09,905a28.836,28.836,0,0,1-1.584,3.774A13.677,13.677,0,0,1,1462.887,912.02Z" transform="translate(-43.398 -39.516)" fill="#57488a"/>
  </g>
</svg>
