<svg xmlns="http://www.w3.org/2000/svg" width="103.19" height="141.859" viewBox="0 0 103.19 141.859">
  <g id="Groupe_2" data-name="Groupe 2" transform="translate(-1450.81 -1755.043)">
    <path id="path5886" d="M297.141,633.326c-1.249,0-2.214.108-2.821,1.337-.73,1.5-2.106-.078-2.953-.343-1.636-.514-2.851.294-3.517,1.812a11.8,11.8,0,0,0-.289,1.778c-.245.838-1.107.652-1.146-.132-.137-2.792.176-5.726-3.061-6.529-3.375-.838-4.751.749-4.08,3.943a5.13,5.13,0,0,1,.152,1.68,1.417,1.417,0,0,0-1.22.475c-.485.651-.318,1.578-.857,2.209a5.944,5.944,0,0,1-3.027,1.519c-1.553.1-1.469-2.459-2.116-3.389a2.5,2.5,0,0,0-3.247-.73c-.573.436-.353,1.7-1.4,1.3-.529-1.092-.4-2.738-.779-3.963-.387-1.249-2.2-1.763-3.414-1.763-1.318,0-2.248,3.478-3.825,4.344-.407.27-.837-2.444-.22-3.007,1.215-1.107.573-1.847.681-3.585.1-1.768,1.847-6.931-1.959-5.887-1.053.289-1.239,1.426-2.263,1.744-1.131.353-2.684.784-3.835.309-.97-.4-.617-1.6-2.136-1.391-1.665.235-1.69-.6-.348-1.372a12.636,12.636,0,0,1,3.37-1.489c1.469-.363,1.851-1.528,2.9-2.479,1.621-1.469,2.2-4.957,1.43-6.989-.333-.886-.568-2.116-1.69-2.253-.8-.1-3.624,2.875-3.624.308,0-1.665-.362-1.479-1.562-2.356-1.107-.813-1.45-2.3-1.851-3.541-.338-1.053-.2-2.767-1.2-3.438-.789-.529-2.424-.544-2.14-1.881a38.2,38.2,0,0,1,5.27-.485c.676.015,1.264.406,1.944.451a6.87,6.87,0,0,0,1.959-.4c.671-.137,2.287.989,2.571,1.548.348.686.083,1.513.152,2.238.093,1.068.353,2.067.4,3.149.073,1.416,1.161,2.072,1.9,3.145.887,1.293,2.263,1.1,3.536,1.714a24.408,24.408,0,0,0,3.874,1.577c1.592.461,2.709,1.812,4.423,1.925a5,5,0,0,0,3.3-.98c.666-.671,2.253-2.2,2.238-2.954-.02-.671.054-1.371-.02-2.038.225-.5.74-.029.607-.872-.245-1.577-1.861-2.473-2.331-3.919-.157-.48.147-1-.451-1.308-.514-.264-1.053-.2-1.18-.935-.279-1.621.044-1.7-1.278-2.664-1.029-.744-.71-2.155-1.435-3.091-.367-.475-.931-.367-1.391-.676-.8-.539-1.415-1.3-2.17-1.9-2.121-1.67-5.138-2.841-5.677-5.848-.2-1.132-.26-2.287-1.768-2.292a5.405,5.405,0,0,1-3.953-2.136c-.456-.641-1.92-1.219-1.518-2.268.2-.509,1-.421,1.381-.666.573-.363.568-.769.784-1.342.867-2.268,6.367-1.293,6.563-2.561.181-1.166-.847-1.254-1.714-1.411-1.2-.215-2.091-1-3.409-1.131-1.44-.142-.7-1.763-.181-2.512.95-1.4.955-3.164.955-4.78,0-2.439-3.58-3.953-2.042-6.931.691-1.337,2.292-.25,3.042-1.239,1.533-2.033-2.317-1.21-2.988-1.274-1.254-.117-1.7-1.788-1.587-2.816.137-1.205,1.2-1.68,1.768-2.669.382-.657,1.308-2.8,1.024-3.517-.539-1.381-1.117-2.091-2.42-1.053-2.537,2.013-4.129-2.547-6.465-1.3a2.044,2.044,0,0,1-3.056-.945c-.333-.7-.852-.573-1.391-.989a17.8,17.8,0,0,1-1.386-1.513,4.591,4.591,0,0,0-2.826-1.719c-1-.088-2.469,1.357-3.35.911-.524-.27-.661-1.024-1.053-1.415-.529-.519-1.2-.539-1.832-.823-1.656-.74.749-2.66,1.2-3.184,1.367-1.6,3.385-3.252,4.1-5.079,1.283-3.247-4.589-1.754-5.819-2.493-1.082-.651,2.831-3.674,3.061-4.668.269-1.166-.367-2.459.206-3.571.7-1.347,1.274-.651,2.41-.4,1.176.265,2.87.363,3.487-.847a10.6,10.6,0,0,1,1.881-2.772c.735-.515,1.842-1.886.911-2.816-1.44-1.44-.715-1.18,1.117-1.425.818-.108,2.684.078,2.811-1.048.108-.935,0-3.193.808-3.83.882-.691,1.533-1.5,2.415-2.174.4-.309,1.009-.568,1.278-1.024.411-.686-.333-1.734.857-1.866,1.264-.142,1.342.406,2.307-.828.358-.46,2.562-2.733,2.478-.926-.044.9-2.248,1.621-1.053,2.518,1.308.975-.26,1.141-.989,1.322-2.077.519-6.931,2.346-3.223,4.384a12.686,12.686,0,0,0,3.62,1.176c2.052.426-1.513,1.7.813,2.155.74.142.96-.039,1.367.573.2.3.485.985.8,1.176,1.18.725.715,1.739,1.308,2.841.534.984,2.052,1.724,2.993,2.273a4.739,4.739,0,0,0,2.361.823c.73,0,1.788-.255,2.214.568s-3.747,2.184-2.42,4.276c.7,1.087,2.077,1.641,2.6,2.909.431,1.058-.289,3.282,1.288,3.081.588-.073,1.337-.411,1.9-.02.451.323.519.617,1.166.642,1.523.064,1.514-.965,2.816.411,2.9,3.081,4.447-1.621,6.651-2.473,1.425-.553,1.567-.279,2.478.74.539.6,1.367,2.17,2.415,1.714,1.391-.607,2.434.211,3.678-.034a3.521,3.521,0,0,1,3.223.686c.906.578,2.513-.186,3.58.313.441.206,1.18.191,1.5.622.206.284-.049.691.568.686.769-.005.94-1.063,1.352.225.147.455.47.553.171.94-.411.539.828,1.43,1.082,1.768.828,1.1,2.268,1.038,3.541,1.151,1,.093,1.989,1.538,2.439,2.326.382.666.94.637,1.367,1.156a10.585,10.585,0,0,1,1.827,2.62c.813,2.3-4.2,4.672-2.273,7.489.7,1.029,1.572,1.435,1.695,2.855.176,2.057-1.837.313-2.635.789-1.744,1.033-5.29,2.283-5.672,4.565-.377,2.248-1.464,2.077-2.88,3.394-.823.769-2.856,1.69-2.836,3.076.02,1.675-.064,2.052-1.484,3.036-1.2.828-2.087.764-2.665,2.214-.215.549.186.857.514,1.195.661.681-.015.744-.186,1.411-.348,1.327-.994,2.625-.1,3.933a6.017,6.017,0,0,1,.7,1.68c.167.48-.225.955.127,1.361a11.54,11.54,0,0,0,1.161,1.327c.407.333,1.376.2,1.626.7.725,1.465.01,2.087,1.993,2.38.7.1,3.233,1.141,1.391,1.381A2.448,2.448,0,0,0,303.4,589.4c.456,0,.955-.235,1.406-.068.681.245-.637,1.068-.71,1.268-.524,1.46-.02,3.243-1.259,4.379a23.027,23.027,0,0,1-4.046,2.469,9.283,9.283,0,0,0-2.934,2.792c-.651,1.087.1,4.129.206,5.407.049.607,2.371,3.281-.333,2.17-2.3-.94-3.389-.147-4.359,1.754-.607,1.185-2.2.975-3.252,1.841-.921.759-.436,3.262.034,4.183.882,1.729.333,1.994-1.553,1.891-1.827-.1-2.3,2.664-1.783,3.982.617,1.553,2.3,1.93,2.42,3.772.113,1.66,1.739,2.331,3.1,2.954a11.968,11.968,0,0,1,2.532,1.264c.514.391.945,1.063,1.621,1.156.789.108,1.68-.24,2.371.279,1.146.872.3,1.23.48,2.336" transform="translate(1217.589 1255.824)" fill="#9186ae"/>
    <path id="path5890" d="M266.258,523.47c-.137.3-.725.211-.994.294a3.664,3.664,0,0,0-1.984.94,2.343,2.343,0,0,0-.4.852c-.186.529-.451,1.019-.676,1.513-.279.612-.054,1.479-.646,1.94a1.625,1.625,0,0,1-.945.245c-.544.058-.583.122-.935-.294-.294-.342-.446-.455-.475-.921-.029-.426,0-.862,0-1.288,0-.411.044-.641-.274-.921s-.671-.446-.994-.7a4.559,4.559,0,0,1-.9-.774,9.326,9.326,0,0,1-.539-1.19c-.49-.911-.715-1.69-1.67-2.082-.411-.171-.7-.5-1.087-.7a7.559,7.559,0,0,1-1.5-.823c-.808-.666-1.631-1.362-1.464-2.537.833-.4,1.141.318,1.793.651a15.575,15.575,0,0,1,1.763,1.019c.71.485,1.381.607,1.494-.392a4.766,4.766,0,0,0-.1-1.1,4.958,4.958,0,0,0,0-.6c-.049-.176-.206-.269-.284-.416a2.112,2.112,0,0,1-.22-.97c.054-.451.583-.47.9-.72a5.694,5.694,0,0,0,.715-.872,4.245,4.245,0,0,1,.975-.769c.353-.22.759-.25,1.082-.519a6.672,6.672,0,0,0,.921-.906c.211-.235.49-.416.7-.661a8.608,8.608,0,0,0,.7-1.19,3.88,3.88,0,0,1,.989-1.2c.637-.4.916.191,1.19.646.137.225.323.421.451.637.289.485.338.691.921.681a1.1,1.1,0,0,1,1.215.994c.127.637.1,1.244.171,1.891a1.95,1.95,0,0,0,.328.774,1.977,1.977,0,0,1,.269,1.014,3.763,3.763,0,0,0,.475,1.607c.2.294.49.333.7.6a1.372,1.372,0,0,1,.108.955c-1.073-.034-1.577,1.063-1.572,2,0,1.117.451,2.1.279,3.262a.854.854,0,0,1-.578.117" transform="translate(1285.936 1291.051)" fill="#9186ae"/>
  </g>
</svg>
