<svg xmlns="http://www.w3.org/2000/svg" width="132.724" height="139.052" viewBox="0 0 132.724 139.052">
  <path id="Tracé_22" data-name="Tracé 22" d="M110.65,499.5s-17.693.431-19.854,1.234-10.836,6.838-10.836,6.838l-1.309.362-5.163,7.709,1.745,10.036,15.127,14.909-2.618,4.075v8.072l6.473,8.87,20.8,18.548H135.3l5.163-.436h.873l-.873,3.634v2.836l6.109,1.6,2.545,1.6s-.853,6.872,1.309,7.273l-6.473.368-9.091-2.767-6.036-1.234-7.782,3.2-4.364,5.236-2.109,6.039,1.673,6.108,4.364,6.034,5.6,3.2s5.62-1.6,7.782-2.4,3.927-4.438,3.927-4.438,6.428-.4,9.454-.8,6.109,3.634,6.109,3.634l14.254,1.964,6.473,3.634,3.855-.362v-4.07l3.491-1.964,3.491,1.964-1.746,4.868-3.927,3.639,1.746,7.2,5.163,2.836,6.109-.363,6.036-4.873,1.746-6.4,6.035-6.47-3.926-8.072L199.74,605.1l-3.055-9.673-3.054-6.838s-7.345-7.259-7.345-8.87-6.909-5.236-6.909-5.236l-.873-6.475a11.651,11.651,0,0,1,3.928-2.763c2.161-.808-1.309-4.437-1.309-4.437l-4.291.8-6.545,1.6-1.673-2.038-2.618-2.836.436-3.634,4.727.872,3.927-4.438-5.6-4.438-4.364-1.234-1.309-2.4h0v-2.836l4.8-2.038,3.418,2.836,6.037,2.4,3.054-3.634v-4l2.618-3.2-2.182-2.473-4.727-1.964-3.054,2.762L161.7,532.16,157.777,535l-5.164-1.6-6.036-9.673-13.891-13.743-7.782-3.2Z" transform="translate(-73.487 -499.505)" fill="#57488a"/>
</svg>
