<svg xmlns="http://www.w3.org/2000/svg" width="260.853" height="222.311" viewBox="0 0 260.853 222.311">
  <path id="Tracé_121" data-name="Tracé 121" d="M1380.675,774.009a1.637,1.637,0,0,0-.447.859c-.059.74.788,1.164,1.258,1.74,1.176,1.483-.412,3.634-2.117,4.446s-3.834,1.317-4.669,3.022c-.505,1.047-.364,2.3-.74,3.422s-1.752,2.47-2.623,1.681q-1.553,2.188-2.928,4.481a2.624,2.624,0,0,0-.483,1.223c-.035.93.87,1.612,1.729,1.953a5.694,5.694,0,0,1,2.422,1.305,2.751,2.751,0,0,1,.048,3.07,7.514,7.514,0,0,1-2.352,2.235c-2.117,1.469-4.363,2.834-5.974,4.833a10.833,10.833,0,0,1-2.4,2.657c-1.54.965-3.5.659-5.3.471a2.323,2.323,0,0,0-1.176.071c-.859.33-1.094,1.387-1.54,2.2-1.858,3.387-7.315,2.092-9.8,5.057a3.683,3.683,0,0,0-.188,3.951,9.513,9.513,0,0,0,2.822,3.034,5.891,5.891,0,0,1-6.069,1.164c.33,1.353-1.128,2.458-2.458,2.87a10.545,10.545,0,0,1-5.762.129c-1.858,1-2.352,3.422-2.423,5.527s.013,4.422-1.3,6.08c-1.082,1.388-2.893,1.964-4.575,2.47-2.045.612-4.3,1.211-6.268.365-.481-.212-1.081-.494-1.481-.153a1.136,1.136,0,0,0-.294.436,18.211,18.211,0,0,1-2.693,4.75c-.8.906-.141,2.329-.354,3.517a4.684,4.684,0,0,1-2.3,2.669c-1.705,1.153-3.4,2.305-5.1,3.458-.518.353-1.082.777-1.153,1.4-.094.87.824,1.493,1.659,1.776a9.5,9.5,0,0,0,3.716.494,2.939,2.939,0,0,1,1.776.2,1.8,1.8,0,0,1,.528,2.129c-.552,1.529-2.246,2.258-3.763,2.822a17.46,17.46,0,0,1-5.845,1.446c-1.105.024-2.222-.176-3.328-.082a12.75,12.75,0,0,0-4.14,1.329c-2.729,1.224-5.575,2.54-7.374,4.928a4.326,4.326,0,0,1-.893,1.011,3.467,3.467,0,0,1-1.024.4,17.662,17.662,0,0,1-4.9.518,8.381,8.381,0,0,0-1.717.023,7.2,7.2,0,0,0-1.846.706l-3.176,1.552a7.261,7.261,0,0,1-4.057,8.62,25.5,25.5,0,0,0,1.423-5.986c.071-.705-.023-1.646-.718-1.823-.611-.164-1.129.423-1.552.894a6.959,6.959,0,0,1-4.869,2.258,1.12,1.12,0,0,1-.976-.33,1.206,1.206,0,0,1-.153-.647c-.011-.846.741-2.175.835-3.01a16.164,16.164,0,0,0-6.28.506,2.593,2.593,0,0,0-1.364.764,3.9,3.9,0,0,0-.505,1.469,5.641,5.641,0,0,1-4.457,3.846,10.922,10.922,0,0,1-6.069-.812c-.835-.341-1.8-1-1.612-1.881.26-1.165,2.211-1.142,2.611-2.27.341-.917-.623-1.765-1.458-2.281-1.94-1.2-3.881-2.41-5.821-3.61a14.847,14.847,0,0,0-4.281-2.07,5.126,5.126,0,0,0-4.515.835c-.565.482-.989,1.141-1.612,1.576a3.822,3.822,0,0,1-4.257-.317,10.207,10.207,0,0,1-2.764-3.565c-.259-.458-.541-.953-1.035-1.105a2.184,2.184,0,0,0-1.376.2,20.08,20.08,0,0,1-10.69.917,1.1,1.1,0,0,1-1.118-1.47,15.011,15.011,0,0,1,2.058-5.916c.741-1.21,1.682-2.457,1.552-3.857-.211-2.152-2.729-3.187-4.845-3.622a5.124,5.124,0,0,0-3.034.011c-1.141.459-1.823,1.611-2.788,2.364-1.881,1.482-4.527,1.317-6.914,1.094-1.847-.188-3.7-.364-5.552-.541a4.532,4.532,0,0,1-3-1.059,5.032,5.032,0,0,1-.906-1.929,21.906,21.906,0,0,0-4.669-8.008l-.188-.8c-1.964.835-4.164,1.023-6.1,1.917s-3.646,2.928-3.116,4.986c.436,1.67,2.2,3.4,1.153,4.763a2.878,2.878,0,0,1-1.787.847,28.58,28.58,0,0,1-11.643.258,16.894,16.894,0,0,1-9.9-5.844,8.435,8.435,0,0,1,1.387-1.659,1.667,1.667,0,0,0,.294-1.987,1.79,1.79,0,0,0-.764-.506c-4.54-1.987-9.679-2.129-14.63-1.717-3.223.27-6.421.777-9.632,1.094a29.428,29.428,0,0,1,2.67-4.693,17.8,17.8,0,0,1,9.644-7.208,10.865,10.865,0,0,0,2.739-.906,2.38,2.38,0,0,0,1.271-2.388,3.373,3.373,0,0,0-.846-1.376l-3.458-3.987c-.459-.541-.965-1.223-.718-1.893a2.019,2.019,0,0,1,.776-.86q3.881-2.909,7.786-5.809a1.714,1.714,0,0,1,1.282-.482,1.659,1.659,0,0,1,.811.553c.47.493.952.988,1.423,1.469.681.706,1.717,1.446,2.5.882a1.741,1.741,0,0,0,.506-.623c1.011-1.94.682-4.269.4-6.433a86.914,86.914,0,0,1-.458-10.772c2.5-1.906,5-3.811,7.5-5.716a44.928,44.928,0,0,1,8.255-5.362,2.338,2.338,0,0,0,1.141-.824,2.188,2.188,0,0,0-.33-2.034,36.329,36.329,0,0,0-3.834-6.151,12.305,12.305,0,0,0-5.821-4.151,1.8,1.8,0,0,1-.846-.423,1.607,1.607,0,0,1-.259-.459c-1.811-4.351-1.564-9.361-3.446-13.688a3.66,3.66,0,0,0-.6-1.036,5.19,5.19,0,0,0-1.977-1.105,10.61,10.61,0,0,1-3.657-2.61c2.752-1.306,4.152-5.316,7.174-5.763,1.87-.294,3.67.893,4.986,2.258a16.408,16.408,0,0,1,3.164,4.574c.482,1.047,1.046,2.305,2.187,2.493a3.39,3.39,0,0,0,2.552-1.152,57.208,57.208,0,0,1,19.875-11.043c-.27,2.552-.541,5.187.2,7.644s2.717,4.728,5.269,4.975a14.343,14.343,0,0,0,3.457-.353,14.439,14.439,0,0,1,9.856,2.246,2.935,2.935,0,0,1,.975.917,4.279,4.279,0,0,1,.353,2.011,8.734,8.734,0,0,0,3.069,6.221,3.676,3.676,0,0,0,1.575.87c2.011.435,3.552-1.647,4.717-3.34,1.611-2.364,3.762-4.574,6.55-5.222a3.932,3.932,0,0,0,3.222,5.2c2.917.177,4.915-2.9,5.692-5.715a5.672,5.672,0,0,0,.223-2.835,6.542,6.542,0,0,0-1.775-2.681,52.989,52.989,0,0,0-7-6.6c-2.341-1.728-4.939-3.046-7.315-4.716a30.375,30.375,0,0,1-7.868-8.115c-.224-.329-.435-.74-.246-1.081s.634-.365,1-.459a3.649,3.649,0,0,0,2.54-3.1,10.632,10.632,0,0,0-.436-4.2c2.67,2.986,7.915,2.693,10.738-.153s3.281-7.5,1.752-11.208c-.283-.671-.588-1.506-.118-2.058a1.869,1.869,0,0,1,.929-.459q4.252-1.165,8.514-2.341c2.376-.647,3.846-2.9,5.845-4.352a5.7,5.7,0,0,0,1.435-1.329,7.609,7.609,0,0,0,.823-2.222c.965-3.316,3.411-5.95,5.787-8.468,2.552-2.681,5.245-5.48,8.785-6.585,4.763-1.5,9.985.376,14.9-.541a4.9,4.9,0,0,1,1.435-.164,5.452,5.452,0,0,1,1.787.611,11.659,11.659,0,0,0,7.42.634c1.035-.247,2.235-.953,2.117-2.011a2.4,2.4,0,0,0-.518-1.093c-1.929-2.776-3.845-5.539-5.774-8.3a7.243,7.243,0,0,0-2.234-2.352,9.569,9.569,0,0,0-2.941-.74,13.43,13.43,0,0,1-8.973-6.281,1.854,1.854,0,0,1-.329-1.081,1.877,1.877,0,0,1,.741-1.117q3.7-3.441,7.409-6.892a2.754,2.754,0,0,1,1.011-.682,2.562,2.562,0,0,1,1.294.082,17.932,17.932,0,0,1,6.116,2.223c2.422,1.623,4.433,4.516,7.35,4.352a2.3,2.3,0,0,0,1.54-.6,4.72,4.72,0,0,0,.823-1.929c.8-2.388,3.352-3.821,5.845-4.093.258-.023.518-.047.788-.047a2.611,2.611,0,0,0-.4,1.388,4.1,4.1,0,0,0,1.952,2.987,8.839,8.839,0,0,1,2.7,2.481c.459.788.635,1.811,1.4,2.305,1.376.87,3.551-.623,4.692.541a2.486,2.486,0,0,1,.552,1.341,14.074,14.074,0,0,1-.14,5.609,6.14,6.14,0,0,0-.318,2.787,5.081,5.081,0,0,0,1.6,2.329,26.718,26.718,0,0,0,5.963,4.893,8.966,8.966,0,0,0,7.456.752c1.482-.611,3.116-1.752,4.492-.953,1.094.624,1.283,2.117,1.2,3.375a4.426,4.426,0,0,0,.658,3.14,31.26,31.26,0,0,1,4.069,8.843,25.526,25.526,0,0,0-9.149,5.48,3.409,3.409,0,0,0-1.012,1.365,5.642,5.642,0,0,0,.224,2.6,5.614,5.614,0,0,1-1.635,4.893c-1.635,1.54-4.339,2.281-4.833,4.468-.376,1.705.882,3.363,2.34,4.316s3.164,1.493,4.517,2.6,2.245,3.081,1.363,4.574c-.964,1.647-3.575,1.929-4.174,3.728-.448,1.365.541,2.752,1.481,3.846,3.282,3.81,6.669,7.609,10.878,10.337s9.421,4.293,14.313,3.2a3.286,3.286,0,0,1,2.481.024c1.517.976.293,3.645,1.493,4.986,1.164,1.305,3.234.235,4.951,0a4.912,4.912,0,0,1,5.256,3.528,1.96,1.96,0,0,0,.483,1.07,1.34,1.34,0,0,0,.846.224c3.834.129,7.221-2.364,10.009-4.975s5.491-5.586,9.1-6.821c.917,1.894-.658,4.246.094,6.221.718,1.894,3.094,2.446,4.564,3.834a1.647,1.647,0,0,1,.623,1.141,2.073,2.073,0,0,1-.588,1.211Q1382.433,771.839,1380.675,774.009Z" transform="translate(-1123.949 -665.96)" fill="#bcb6d0"/>
</svg>
