<svg xmlns="http://www.w3.org/2000/svg" width="125.685" height="146.056" viewBox="0 0 125.685 146.056">
  <path id="Tracé_125" data-name="Tracé 125" d="M152.144,498.8a1.379,1.379,0,0,0-.789.26l-7.254,9.179-6.294,7.254-7.254,7.254,1.048,19.406-.524,17.917,6.294,8.738,6.206,11.1,3.58,6.813-3.58,4.374-4.2,11.623.524,16-5.153,9.174-8.307,6.818,2.537,2.885,6.294,3.844,5.682,3.409,8.3-2.449,8.826-5.329,18.181-.436,6.818,4.8,7.254.524,7.254,1.489,10.4-8.307,11.975-20.8,8.826-17.917,8.831-13.107,9.35-12.063,5.158-9.267-4.109-8.214-3.145-11.623-6.73-2.449-7.695-5.246-6.377-5.853-8.3-5.334-5.682-1.92-16.609-11.628-10.922-3.933-10.4-1.4s-4.658-1.915-7.254-2.885C162.631,500.661,154.765,498.629,152.144,498.8Z" transform="translate(-126.445 -498.79)" fill="#9186ae"/>
</svg>
