<svg xmlns="http://www.w3.org/2000/svg" width="376.497" height="277.07" viewBox="0 0 376.497 277.07">
  <path id="Tracé_119" data-name="Tracé 119" d="M1321.07,644.847c-.083.941-1.223,1.435-2.165,1.34s-1.822-.517-2.763-.552a6.3,6.3,0,0,0-3.8,1.646,11.4,11.4,0,0,0-2.387,2.175,32.466,32.466,0,0,0-1.8,3.164,10,10,0,0,1-4.221,3.834,1.247,1.247,0,0,1-.73.152c-.635-.14-.623-1.011-.717-1.658a3.2,3.2,0,0,0-2.059-2.4,6.081,6.081,0,0,0-3.281-.2c-2.928.517-5.515,2.163-8.009,3.786a7.3,7.3,0,0,0-2.387,2.164c-.27,0-.53.024-.788.047-2.494.271-5.045,1.705-5.845,4.093a4.72,4.72,0,0,1-.823,1.929,2.3,2.3,0,0,1-1.54.6c-2.917.164-4.928-2.729-7.35-4.352a17.932,17.932,0,0,0-6.116-2.223,2.562,2.562,0,0,0-1.294-.082,2.754,2.754,0,0,0-1.011.682q-3.7,3.441-7.409,6.892a1.877,1.877,0,0,0-.741,1.117,1.854,1.854,0,0,0,.329,1.081,13.43,13.43,0,0,0,8.973,6.281,9.569,9.569,0,0,1,2.941.74,7.243,7.243,0,0,1,2.234,2.352c1.929,2.764,3.845,5.527,5.774,8.3a2.4,2.4,0,0,1,.518,1.093c.117,1.059-1.083,1.765-2.117,2.011a11.659,11.659,0,0,1-7.42-.634,5.452,5.452,0,0,0-1.787-.611,4.9,4.9,0,0,0-1.435.164c-4.915.917-10.137-.964-14.9.541-3.54,1.105-6.233,3.9-8.785,6.585-2.376,2.517-4.822,5.151-5.787,8.468a7.609,7.609,0,0,1-.823,2.222,5.7,5.7,0,0,1-1.435,1.329c-2,1.447-3.469,3.7-5.845,4.352q-4.269,1.182-8.514,2.341a1.869,1.869,0,0,0-.929.459c-.47.552-.165,1.387.118,2.058,1.529,3.7,1.07,8.361-1.752,11.208s-8.067,3.139-10.738.153a10.632,10.632,0,0,1,.436,4.2,3.649,3.649,0,0,1-2.54,3.1c-.365.094-.811.129-1,.459s.023.753.246,1.081a30.375,30.375,0,0,0,7.868,8.115c2.376,1.67,4.975,2.987,7.315,4.716a52.989,52.989,0,0,1,7,6.6,6.542,6.542,0,0,1,1.775,2.681,5.672,5.672,0,0,1-.223,2.835c-.777,2.811-2.775,5.892-5.692,5.715a3.932,3.932,0,0,1-3.222-5.2c-2.788.648-4.939,2.858-6.55,5.222-1.165,1.693-2.706,3.775-4.717,3.34a3.676,3.676,0,0,1-1.575-.87,8.734,8.734,0,0,1-3.069-6.221,4.279,4.279,0,0,0-.353-2.011,2.935,2.935,0,0,0-.975-.917,14.439,14.439,0,0,0-9.856-2.246,14.343,14.343,0,0,1-3.457.353c-2.552-.247-4.539-2.516-5.269-4.975s-.47-5.092-.2-7.644a57.208,57.208,0,0,0-19.875,11.043,3.39,3.39,0,0,1-2.552,1.152c-1.141-.188-1.705-1.446-2.187-2.493a16.408,16.408,0,0,0-3.164-4.574c-1.317-1.364-3.116-2.552-4.986-2.258-3.022.447-4.422,4.457-7.174,5.763-1.517-.247-1.717-2.281-2.351-3.682a4.575,4.575,0,0,0-6.915-1.446c-.718.659-1.2,1.541-1.894,2.235a2.549,2.549,0,0,1-2.646.788c.635-1.165,1.258-2.317,1.881-3.469a1.47,1.47,0,0,0,.236-1.317c-.306-.576-1.165-.459-1.788-.259-1.176.389-2.364.764-3.54,1.153-1.494.482-3.1,1.046-4,2.34a22.9,22.9,0,0,0-1.305,3.176c-.494,1.035-1.611,1.987-2.7,1.635a3.19,3.19,0,0,1-1.353-1.152c-.647-.812-1.281-1.624-1.929-2.423a2.3,2.3,0,0,0-1.07-.894,2.573,2.573,0,0,0-1.117.059,24.706,24.706,0,0,1-8.3-.376,1.278,1.278,0,0,1-1.4-1.635c.164-1.623.341-3.246.505-4.881a2.026,2.026,0,0,0-.153-1.294,2.091,2.091,0,0,0-1.329-.682c-1.858-.412-3.728-.823-5.586-1.234a1.652,1.652,0,0,1-.964-.459,1.6,1.6,0,0,1-.224-.906q-.194-3.917-.048-7.832a21.142,21.142,0,0,0-.176-5.033,6.171,6.171,0,0,0-2.634-4.14c-1.047-.635-2.447-.941-2.964-2.046a6.535,6.535,0,0,1-.294-1.87c-.341-2.682-2.988-4.611-3.387-7.28-.294-1.871.588-3.763.4-5.645-.224-2.14-1.74-3.881-3.21-5.445-3.116-3.3-6.328-6.315-9.655-9.409-1.682-.223-3.1-2-4.74-1.552-1.493.412-1.87,2.293-2.458,3.728a5.783,5.783,0,0,1-5.48,3.716c-.929-.083-1.811-.436-2.74-.6a6.655,6.655,0,0,0-1.87-.048c-.33.035-.741.071-.929-.2a.846.846,0,0,1-.119-.446c-.129-1.906-.246-3.811-.375-5.716-.154-2.387-.53-5.139-2.564-6.4a6.868,6.868,0,0,0-2.505-.788,8.694,8.694,0,0,0-5.256.436c-1.612.811-2.646,2.387-3.752,3.81s-2.517,2.834-4.3,3.01a.84.84,0,0,1-.695-.177c-.176-.211-.129-.517-.223-.764a1.36,1.36,0,0,0-.941-.682,17.752,17.752,0,0,0-3-.729c-1.012,2.516-2.8,4.634-4.257,6.915-1.705,2.646-3.564,5.163-3.61,8.315-.011,1.764-.035,3.54-.058,5.3a11.809,11.809,0,0,1-.589,4.352,4.044,4.044,0,0,1-3.246,2.658q-.51-4.023-1.21-8.02a4.824,4.824,0,0,0-1.318-3c-.565-.471-1.317-.647-1.929-1.07-2.387-1.647-1.5-5.963-3.951-7.527-1.635-1.047-3.775-.224-5.715-.212a1.8,1.8,0,0,1-1.152-.306,2.089,2.089,0,0,1-.577-1.059c-.411-1.329-.835-2.645-1.258-3.975-.306-.975-.764-2.1-1.752-2.34a3.028,3.028,0,0,0-1.987.459c-1.223.6-2.446,1.211-3.67,1.811-2.858,1.423-6.092,3.34-6.433,6.5a17.614,17.614,0,0,0,.141,2.834,15.771,15.771,0,0,1-2.752,8.961,21.366,21.366,0,0,1-6.714,7.009,13.737,13.737,0,0,1-9.362,2.059c-2.011-.341-4.257-1.165-5.939,0-.647.447-1.117,1.152-1.834,1.482-1.282.576-2.846-.341-3.47-1.6a8.542,8.542,0,0,1-.505-4.152q.318-6.968.423-13.947a6.449,6.449,0,0,0-.341-2.646,8.912,8.912,0,0,0-2.493-2.7,12.13,12.13,0,0,1-3.81-9.655c2.316-.2,3.551-3.152,2.869-5.386s-2.587-3.834-4.4-5.3a23.875,23.875,0,0,0,7.386-.412,8.02,8.02,0,0,0,5.538-4.528c.647-1.74.459-3.657.577-5.5a15.822,15.822,0,0,1,8.619-12.866c.859-.412,1.858-.87,2.106-1.8a3.493,3.493,0,0,0-.8-2.494c-1.894-3.175-1.964-8.067,1.305-9.8a7.663,7.663,0,0,0,10.455,8.126,24.2,24.2,0,0,1-.376-13.441c.482-1.882,1.2-3.9.436-5.692-1.188-2.823-5.7-4.316-4.928-7.28.459-1.752,2.529-2.4,3.987-3.458,2.693-1.976,3.411-5.88,2.41-9.067s-3.387-5.739-5.939-7.88c-1.564-1.317-3.352-2.729-3.646-4.763-.33-2.341,1.517-4.4,3.316-5.939a51.558,51.558,0,0,1,8.256-5.787c1.893-1.07,4.163-2.634,3.716-4.751a6,6,0,0,0-1.187-2.14,13.514,13.514,0,0,1-1.258-13.148c.611-1.364,1.482-2.869.882-4.233a4.626,4.626,0,0,0-1.635-1.705c-8.42-6.175-15.206-15.018-22.568-22.427,1.811-1.317.847-4.21,1.565-6.339,1.023-3.058,5.022-3.657,8.244-3.622,2.94.023,5.939.141,8.749-.73s5.456-2.928,6.127-5.786c.459-1.94-.035-3.974.095-5.963a9.676,9.676,0,0,1,5-7.75,38.4,38.4,0,0,0,5.633-3.986,20.361,20.361,0,0,1,4.081-2.812,14.919,14.919,0,0,1,5.044-.929c2.258-.153,4.516-.294,6.786-.447a24.028,24.028,0,0,1,6.138,4.375,18.988,18.988,0,0,0,2.434,2.6,3.318,3.318,0,0,0,3.329.623c1.081-.505,1.623-1.752,2.646-2.364,1.916-1.152,4.315.423,5.75,2.14.647.777,1.411,1.694,2.434,1.659,1.188-.035,1.894-1.294,2.434-2.352.859-1.659,2.328-3.446,4.164-3.116,1.681.294,2.5,2.188,2.975,3.822s1.129,3.551,2.751,4.069a3.447,3.447,0,0,0,3.458-1.2,9.829,9.829,0,0,0,1.765-3.411c.917-2.516,1.823-5.033,2.74-7.549,4.74,2.822,7.139,8.291,8.962,13.489,1.316,3.751,2.493,7.562,3.516,11.407,2.27,1.176,5.163,1.2,7.668,1.741s5.1,1.469,6.632,3.528a10.862,10.862,0,0,1,1.682,6.068c.118,2.788-.212,5.822-2.106,7.868a7.913,7.913,0,0,0-1.764,2.058,4.96,4.96,0,0,0-.071,2.752c.318,1.94.647,3.892.965,5.844a4.467,4.467,0,0,0,.787,2.2,4.222,4.222,0,0,0,1.659,1.059,50.721,50.721,0,0,0,19.169,4.186,13.1,13.1,0,0,0,4.539-.517c4.54-1.576,6.374-6.833,8.95-10.89a5.9,5.9,0,0,1,2-2.129,6.539,6.539,0,0,1,2.257-.634q7.091-1.112,14.183-2.235a3.169,3.169,0,0,1,1.847.082,3.033,3.033,0,0,1,1.329,2.117c.964,3.586,1.493,7.667,4.339,10.054,2.563-1.446,3.963-4.269,5.221-6.926,2.352-5,4.728-10.055,5.869-15.453.694-3.292,1.188-7.115,4.022-8.914,3.081-1.964,7.221-.4,10.737-1.388.706.294,1.071.071,1.776.365,1.364.565,2.729,1.141,4.046,1.8,5.762,2.917,10.454,7.55,14.852,12.278a26.329,26.329,0,0,0,5.515,4.975,8.3,8.3,0,0,0,7.139.988c2.893-1.141,4.481-4.246,7.056-6a1.445,1.445,0,0,1,.694-.293,1.647,1.647,0,0,1,1.165.634,77.118,77.118,0,0,0,5.715,5.2,4.7,4.7,0,0,0,1.682,1.023,4.987,4.987,0,0,0,2.164-.047c2.6-.447,5.21-.894,7.809-1.34a2.939,2.939,0,0,0,1.329-.447,3.154,3.154,0,0,0,.834-1.189,56.129,56.129,0,0,1,8.562-12.583,13.972,13.972,0,0,1,4.528,2.152,4.987,4.987,0,0,1,2.07,4.421,6.609,6.609,0,0,1-.988,2.376,32.268,32.268,0,0,1-9.044,9.832c-1.2.858-2.54,1.752-2.952,3.163-.282.988-.047,2.081-.412,3.046a3.052,3.052,0,0,0-.341,1.046,1.924,1.924,0,0,0,.718,1.211c2.117,2.093,4.68,4.352,7.632,4.022a9.934,9.934,0,0,0,4.281-1.987c3.951-2.729,7.786-5.633,11.466-8.7a5.815,5.815,0,0,0,1.541-1.682,4.323,4.323,0,0,0,.388-2.4,7.477,7.477,0,0,0-5.716-6.456,60.324,60.324,0,0,0,3.728-5.1,20.983,20.983,0,0,0,7.069,1.364,7.139,7.139,0,0,0,6.068-3.292c.518-.965.824-2.164,1.789-2.658a3.26,3.26,0,0,1,1.339-.283c4.635-.317,9.444.177,13.772-1.493,1.105-.436,2.446-.964,3.364-.224.776.635.74,1.8,1.046,2.751a10.176,10.176,0,0,0,2.175,3.1,27.85,27.85,0,0,1,4.022,7.538,2.238,2.238,0,0,1,.224,1.612c-.177.494-.671.788-1.094,1.094-1.834,1.316-2.129,3.445-2.987,5.538a7.107,7.107,0,0,0,4.045,9.032,13.737,13.737,0,0,1,3.4,1.2,7.163,7.163,0,0,1,1.4,1.458q4.551,5.8,9.09,11.584a4.868,4.868,0,0,1,1.059,1.87,4.07,4.07,0,0,1-.364,2.376c-2.293,5.574-8.339,8.561-14.113,10.313-1.059.329-2.245.717-2.728,1.717a3.93,3.93,0,0,0-.27,1.659c-.095,3.963-.048,8.315,2.516,11.337,2.046,2.41,5.245,3.422,8.162,4.622s5.985,3,6.914,6.021c.635,2.07.13,4.293.024,6.456s.365,4.645,2.235,5.739c1.9,1.129,4.669.412,6.233,1.987a5.456,5.456,0,0,1,1.188,3.282C1322.716,631.418,1321.646,638.132,1321.07,644.847Z" transform="translate(-945.696 -493.353)" fill="#9186ae"/>
</svg>
