<svg xmlns="http://www.w3.org/2000/svg" width="141.484" height="118.031" viewBox="0 0 141.484 118.031">
  <path id="Tracé_126" data-name="Tracé 126" d="M233.263,500.96l-10.8.208-3.924,1.922-4.47,3.442-.825.755h-3.094l-6.536,2.478L200.8,512.24l-9.014,1.306-.825,4.748-2.474,9.9a44.576,44.576,0,0,1-4.47,2.682c-1.024.38-6.745,3.437-6.745,3.437l-1.028,10.525,2.474,6.258,6.74,7.982,3.233,3.645,2.613-.551-1.58.755.2,14.309,6.745,8.389,6.944,6.466,12.243,7.222.829-.482-.964.69,14.513,8.732,11.21,4.062,12.035,2.062,9.631,3.437,6.124,1.172s9.431-1.927,10.659-1.927,11.006-1.927,11.006-1.927l10.043-3.233,6.74-6.119-.621-10.868,1.241-6.809,2.682-3.854,4.47-5.916,2.27-7.426-.621-7.222-4.743-2.682-6.124-2.821-2.821-.209-4.54-6.462c-1.019-.764-6.536-6.888-6.944-7.842s-4.058-9.149-4.058-9.149l-1.242-12.794-6.944-6.67-8.185-4.54s-6.546-3.8-7.773-3.988-12.044-2.478-12.864-2.478-8.806.565-9.01.76l-1.033-.417Z" transform="translate(-176.244 -500.96)" fill="#9186ae"/>
</svg>
