<svg xmlns="http://www.w3.org/2000/svg" width="247.547" height="239.94" viewBox="0 0 247.547 239.94">
  <path id="Tracé_118" data-name="Tracé 118" d="M841.685,349.048a3.866,3.866,0,0,1,.729,2.975c-.552,1.728-3.069,1.834-4.233,3.223a5.192,5.192,0,0,0-.906,2.481c-.906,5.116-1.588,10.4-4.045,14.971-.6,1.105-1.588,2.3-2.822,2.117-.624-.095-1.176-.542-1.811-.553-.976-.024-1.646.941-2.129,1.8-1.364,2.423-2.717,4.834-4.081,7.256-1.164,2.07-2.752,4.422-5.128,4.469-1.352.024-2.575-.729-3.857-1.141s-2.975-.33-3.634.859c-1.176,2.116,2.294,4.7,1.153,6.844-.682,1.27-2.564,1.294-3.858.634-2.281-1.175-3.633-3.728-5.974-4.786a5.624,5.624,0,0,0-6.715,1.811q2.365,1.817,4.751,3.646c2.552,1.963-.87,6.069-2.528,8.82s-3.81,5.316-4.622,8.432c-.282,1.105-.388,2.246-.647,3.351a24.972,24.972,0,0,1-2.2,5.363c-1.376,2.729-2.752,5.469-4.127,8.2-1.835,3.634-3.716,7.573-3.07,11.6a2.626,2.626,0,0,0,.33,1,.539.539,0,0,0,.129.164c-2.987,3.576-5,8.126-8.844,10.761a2.517,2.517,0,0,1-1.635.565,3.833,3.833,0,0,1-1.387-.682c-2.717-1.694-6.21-.671-9.409-.471-4.7.283-9.325-1.4-14.041-1.469a5.791,5.791,0,0,0-2.928.528c-1.741.93-2.341,3.116-3.693,4.551-2.423,2.564-6.48,2.211-10,2.317a29,29,0,0,0-10.678,2.341c-.635,1.823,1.517,3.245,2.964,4.539,1.987,1.765,2.951,4.387,3.857,6.892q2.911,8.167,5.845,16.311c1.517,4.246,3.057,8.55,3.41,13.042s-.458,8.961-1.34,13.371a4.841,4.841,0,0,0-.023,2.682c.8,2.1,3.763,2.046,5.974,1.6-1.364,4.529-3.234,9.608-7.621,11.361-2.175.858-4.6.716-6.938.564l-10.926-.74c-2.587-.164-5.668-.682-6.7-3.058-.576-1.329-.529-3.222-1.87-3.763-.965-.388-2.023.247-2.835.906-2.222,1.834-4.222,4.164-6.456,5.962a4.243,4.243,0,0,0-1.752-1.882,4.191,4.191,0,0,0-4.14.118,16.466,16.466,0,0,1-2.481,1.8,3.782,3.782,0,0,1-3.622-.706,25.685,25.685,0,0,1-2.517-2.88,9.645,9.645,0,0,0-6.28-2.881c-1.952-.118-4.08.329-5.75-.695-1.705-1.035-2.27-3.186-3.293-4.9-1.6-2.692-4.468-4.375-7.362-5.574s-5.962-2.023-8.679-3.575-4.128-4.281-5.645-7.021c-1.281-2.341-1.54-5.081-2.14-7.679s-1.728-5.327-4.057-6.633a16.721,16.721,0,0,1-2.728-1.458c-1.071-.917-1.447-2.375-2-3.67a11.708,11.708,0,0,0-4.293-5.1c-1.187-.776-2.505-1.329-3.622-2.187a6.083,6.083,0,0,1-2.082-3.564,41.22,41.22,0,0,1-.976-7.962,2.141,2.141,0,0,1,.177-1.117,2.353,2.353,0,0,1,1.105-.846,23,23,0,0,0,11.878-14.654c-1.411-1.435-2.035-3.551-3.646-4.763a9,9,0,0,0-3.01-1.271,33.3,33.3,0,0,0-4.493-1.059,29.545,29.545,0,0,0-5.762-.129c-1.211.059-2.74-.059-3.176-1.188a2.171,2.171,0,0,1,1.023-2.376,27.154,27.154,0,0,1,2.494-1.223,5.464,5.464,0,0,0,2.752-4.492c.047-1.435-.33-3.222.87-4a3.837,3.837,0,0,1,2.423-.212,19.777,19.777,0,0,0,3.728-.164q4.357-.476,8.69-.953c1.036-.118,2.318-.436,2.529-1.459.27-1.234-1.271-2.034-2.505-2.293a34.512,34.512,0,0,0-9.267-.694,7.181,7.181,0,0,0-2.822.611,9.352,9.352,0,0,0-1.929,1.482,21.043,21.043,0,0,1-4.915,3.2c-.624.294-1.34.529-1.705-.071a6.592,6.592,0,0,1-6.527-.858c-1.176-.918-2.116-2.305-3.575-2.611-2.058-.436-4.1,1.493-6.138.964-.671-.188-1.258-.623-1.917-.835-.823-.27-1.741-.2-2.552-.529a2.788,2.788,0,0,1-1.07-4.092c1.011-1.282,3.234-1.8,3.245-3.435.024-1.728-2.61-2.47-2.763-4.2a2.578,2.578,0,0,1,1.717-2.328c.929-.423,1.976-.577,2.88-1.059,1.517-.811,2.411-2.411,3.211-3.929a6.233,6.233,0,0,0,.859-2.258A19.134,19.134,0,0,1,609,402.4c1.482.588,3.139,1.363,4.61.74,2.375-1.023,2.423-4.88,4.833-5.81,2.388-.917,5.28,1.823,7.444.459a4.77,4.77,0,0,0,1.282-1.411c5.4-7.6,13.348-12.936,21.109-18.087,2.753-1.834,6.056-3.751,9.185-2.681,1.881.658,3.493,2.34,5.48,2.2a6.1,6.1,0,0,0,2.552-1.023A74.369,74.369,0,0,0,679.5,365.9a3.757,3.757,0,0,1,1.952-1.258,3.708,3.708,0,0,1,2.74,1.235q3.934,3.386,7.879,6.774a45.938,45.938,0,0,1,13.584-22.1,6.771,6.771,0,0,0,2.246-2.858,6.014,6.014,0,0,0-.164-3.023,97.536,97.536,0,0,0-2.706-9.454,19.064,19.064,0,0,1-1.363-5.774c-.024-2.294.858-4.481,1.564-6.669,2-6.209,2.563-13.018.705-19.286-.74-2.5-1.87-4.928-2.8-7.385,2.175.694,4.88.117,7.232-.482,4.339-1.105,8.973-1.953,13.265-.671s8.738,4.61,8.268,9.079c1.54-4.492,6.832-6.562,11.583-6.656s9.455,1.223,14.2.929a4.335,4.335,0,0,0,3.152-1.176,10.858,10.858,0,0,0,1.141-2.61,5.782,5.782,0,0,1,5.351-2.964,14.336,14.336,0,0,1,6.138,1.823,8.855,8.855,0,0,1,3.458,2.552,3.318,3.318,0,0,1,.059,4.01c-.953,1.071-2.811,1.271-3.364,2.6-.623,1.482.976,3.01,2.552,3.328s3.234-.047,4.763.4a5.475,5.475,0,0,1,2.916,3.363,46.4,46.4,0,0,1,29.753-4.809c-.4,3.775-.811,7.633.035,11.337s3.176,7.291,6.739,8.609c3.469,1.281,7.726.353,10.666,2.587,1.364,1.046,2.2,2.611,3.375,3.857s3.023,2.2,4.574,1.47a45.37,45.37,0,0,0,4.41,3.493c-2.317,1.211-4.645,2.434-6.973,3.646Q839.056,344.438,841.685,349.048Z" transform="translate(-595.854 -291.552)" fill="#796da1"/>
</svg>
