<svg xmlns="http://www.w3.org/2000/svg" width="129.889" height="118.035" viewBox="0 0 129.889 118.035">
  <path id="Tracé_21" data-name="Tracé 21" d="M93.681,501.65,86.336,503.4l-6.764,5.961.291,13.381,5.236.877.291,8.287-5.164,4-.945,6.543v1.166l-4.582,4.8-.291.872L64.3,548.7l-1.237-4.868-7.345-4.222-13.091-6.832h-14.4l-6.691,10.251.291,14.762,1.818,6.039.291,1.092.945,11.417,4.291,21.09,4.291,11.128s3.025,2.865,3.637,4.291a58.476,58.476,0,0,0,4,5.961l6.691.872,1.891-3.487.291.363h6.691l10.109-8.581,6.4-8.8-.291-20.508-3.709-10.839,1.236-8.87,6.982-1.382h.072l2.109,2.547,5.818,1.381,4.582,1.744.436-.22.509,1.675,8.873.509,15.272-2.836,8.582-6.255,14.982-.583,12.8-4.291L143.5,546.74l-.945-4.291-10.109-6.543-19.2-.289-5.818-9.967V514.527l-4-8.586Z" transform="translate(-21.537 -501.65)" fill="#57488a"/>
</svg>
