<svg xmlns="http://www.w3.org/2000/svg" width="71.809" height="156.609" viewBox="0 0 71.809 156.609">
  <path id="Tracé_122" data-name="Tracé 122" d="M1462.887,912.02c-.746.676-1.629,1.384-1.726,2.387a4.016,4.016,0,0,0,.923,2.393,18.1,18.1,0,0,1,1.947,14.795,10.559,10.559,0,0,0-18.618,1.157,11.219,11.219,0,0,1-1.254,2.5,7.833,7.833,0,0,1-3.632,2.07,62.6,62.6,0,0,0-30.836,24.453,2.443,2.443,0,0,0-.5,1.211c-.039,1.295,1.739,1.764,3.01,1.516s2.754-.727,3.735.119l-5.834,14.627c-.722,1.811-1.437,3.9-.546,5.637,1.12,2.181,4.026,2.515,6.465,2.769s5.39,1.216,5.759,3.64c.559,3.67-5.085,5-6.639,8.366a4.542,4.542,0,0,0,3.468,6.117c2.88.31,5.694-2.251,8.449-1.358,2.463.8,3.314,4.105,2.355,6.51s-3.146,4.068-5.276,5.539-4.389,2.965-5.636,5.234l21.216,4.77-5.223,3.483c-2.586,1.724-5.469,3.993-5.378,7.1.109,3.679,4.2,5.723,7.666,6.958l7.788,2.777c1.9.678,3.909,1.428,5.161,3.014s1.315,4.284-.4,5.353c2.725,1.086,5.569,2.192,8.494,1.97s5.941-2.2,6.324-5.108c.21-1.6-.385-3.192-.535-4.8-.7-7.456,7.913-13.06,8.083-20.545a30.341,30.341,0,0,0-.968-6.181c-1.645-8.829,1.3-17.795,4.209-26.291a10.1,10.1,0,0,1,1.858-3.681c.72-.783,1.674-1.323,2.391-2.109,1.639-1.8,1.736-4.477,1.742-6.911.033-13.045.065-26.091-.23-39.133a6.8,6.8,0,0,0-.828-3.766c-.866-1.256-2.442-1.775-3.659-2.7-3.877-2.931-3.254-8.78-2.757-13.615a123.149,123.149,0,0,0,.238-18.357c-.079-1.676-.521-4.078-2.735-3.2A7.824,7.824,0,0,0,1467.09,905a28.836,28.836,0,0,1-1.584,3.774A13.677,13.677,0,0,1,1462.887,912.02Z" transform="translate(-1409.141 -900.546)" fill="#9186ae"/>
</svg>
