<svg xmlns="http://www.w3.org/2000/svg" width="410.157" height="289.072" viewBox="0 0 410.157 289.072">
  <path id="Tracé_120" data-name="Tracé 120" d="M1150.05,794.581a2.338,2.338,0,0,1-1.141.824,44.928,44.928,0,0,0-8.255,5.362c-2.505,1.905-5,3.81-7.5,5.716a86.914,86.914,0,0,0,.458,10.772c.283,2.164.611,4.492-.4,6.433a1.741,1.741,0,0,1-.506.623c-.787.565-1.823-.176-2.5-.882-.471-.482-.953-.976-1.423-1.469a1.659,1.659,0,0,0-.811-.553,1.714,1.714,0,0,0-1.282.482q-3.9,2.91-7.786,5.809a2.019,2.019,0,0,0-.776.86c-.247.67.259,1.352.718,1.893l3.458,3.987a3.373,3.373,0,0,1,.846,1.376,2.38,2.38,0,0,1-1.271,2.388,10.865,10.865,0,0,1-2.739.906,17.8,17.8,0,0,0-9.644,7.208,29.428,29.428,0,0,0-2.67,4.693c-1.717.188-3.445.33-5.174.353a4.05,4.05,0,0,1-2.658-.611,3.594,3.594,0,0,1-1.057-1.846c-.506-1.646-.671-3.375-1.176-5.021a6.46,6.46,0,0,0-2.964-4.046c-1.694-.847-3.716-.494-5.575-.118-3.517.717-7.291,1.575-9.679,4.257a43.051,43.051,0,0,0-3.01,4.74c-2.423,3.646-6.574,3.445-10.255,5.8-5.127,3.269-7.55,9.349-11.36,14.078a9.7,9.7,0,0,1-2.387,2.269c-3.2,1.953-7.291.482-11.031.671-3,.141-5.821,1.376-8.574,2.6a28.376,28.376,0,0,0-5.68,3.057,26.938,26.938,0,0,0-4.457,4.587c-4.669,5.7-9.114,11.807-11.267,18.852a.587.587,0,0,1,.812-.012c-.423.741.576,1.53,1.423,1.552s1.8-.224,2.494.27c.787.553.74,1.717.611,2.67-.306,2.246-.682,4.621-2.175,6.326a9.059,9.059,0,0,1-5.8,2.587c-1.387.177-3.187.529-3.4,1.929-.14.964.659,1.8,1.388,2.458a11.119,11.119,0,0,0,4.622,2.964,3.255,3.255,0,0,1,1.294.446,2.526,2.526,0,0,1,.729,1.4q1.04,3.74,2.058,7.48a8.564,8.564,0,0,1,.47,3.3c-.188,1.529-1.152,2.834-1.622,4.3-.846,2.6-.035,5.457,1.141,7.938a8.369,8.369,0,0,0,2.082,2.964,21.953,21.953,0,0,0,3.351,1.823,16.425,16.425,0,0,1,3.822,3.34c.87.941,1.776,2.046,1.682,3.328a4.859,4.859,0,0,1-1.788,2.893c.14-.435-.294-.811-.671-1.059-2.258-1.481-4.5-2.951-6.762-4.422a8.329,8.329,0,0,0-2.893-1.387,7.748,7.748,0,0,0-4.093.705,62.26,62.26,0,0,0-6.562,2.975,34.116,34.116,0,0,0-5.492,3.282c-.494.388-.776,1.035-1.318,1.364a4.47,4.47,0,0,1-2.281.412c-1.87.011-4.292-.459-5.762,1.011a1.487,1.487,0,0,0-.389.541,2.441,2.441,0,0,0-.058,1.012,9.34,9.34,0,0,1-.647,4.093,2.283,2.283,0,0,1-.753,1.105,2.343,2.343,0,0,1-1.2.282c-2.1.082-4.269-.364-6.3.2-1,.271-1.917.777-2.905,1.071a3.53,3.53,0,0,1-2.987-.236c-1.364-.917-1.377-2.916-2.282-4.292a7.253,7.253,0,0,0-3.363-2.317,25.026,25.026,0,0,0-5.363-1.894c-3.176-.611-6.445.011-9.679-.141-1.775-.094-3.587-.412-5.292.106-2.27.682-3.845,2.681-5.351,4.516s-3.328,3.7-5.691,3.951a2.651,2.651,0,0,1-2.682-1.128,4.8,4.8,0,0,1-.33-1.059,6.809,6.809,0,0,0-3.857-4.375c-1-2.375-2.188-4.951-4.5-6.091-3.222-1.576-7.279.282-10.619-1.023a1.436,1.436,0,0,1-.824-.623,1.843,1.843,0,0,1-.047-1.071c.447-3.586-2.258-6.809-5.187-8.938-5.421-3.951-12.019-5.868-18.475-7.7a5.145,5.145,0,0,0-2.446-.293c-2.481.494-2.94,3.963-4.939,5.515a1.671,1.671,0,0,1-1.141.412c-.894-.106-1.223-1.2-1.387-2.082a29.475,29.475,0,0,0-3.364-9.056,5.152,5.152,0,0,0-1.717-2,5.651,5.651,0,0,0-3.034-.482l-13.584.389a1.934,1.934,0,0,1-1.611-.471c-.447-.588-.071-1.4.106-2.117a5.088,5.088,0,0,0-1.529-4.656,13.353,13.353,0,0,0-4.352-2.634,75.508,75.508,0,0,0-29.871-6.468,13.849,13.849,0,0,1-.388,8.372,3.5,3.5,0,0,0-.341,1.483,3.4,3.4,0,0,0,1.223,1.834,13.989,13.989,0,0,1,2.47,3.329,1.7,1.7,0,0,1,.224,1.587c-.376.658-1.318.589-2.058.447-9.925-1.894-20.169.306-30.259-.317A10.222,10.222,0,0,1,786.13,931a3.993,3.993,0,0,1-1.894-4.41,21.208,21.208,0,0,0-15.946,5.128,4.547,4.547,0,0,1-2.364,1.411,3.323,3.323,0,0,1-1.635-.33c-6.339-2.646-8.139-10.949-13.537-15.206a23.933,23.933,0,0,0-8.185-3.81,7.76,7.76,0,0,1-.988,1.234c-.247-2.269-.8-4.492-1.27-6.738a8.975,8.975,0,0,1-.259-2.446,3.374,3.374,0,0,1,.917-2.223c.74-.717,1.858-.929,2.646-1.588a4.356,4.356,0,0,0,1.328-3.1c.095-1.153-.047-2.317.071-3.457s.376-2.563,1.47-2.941c1.623-.565,3.411-1.247,4.186-2.787a16.73,16.73,0,0,1,.941-2.259,5.018,5.018,0,0,1,1.776-1.339,51.474,51.474,0,0,0,10.125-7.351c2.27-2.117,4.434-4.587,5.092-7.62a16.546,16.546,0,0,1,.906-4.023c.635-1.258,1.9-2.293,1.929-3.692.035-1.188-.824-2.482-.165-3.457.436-.648,1.411-.847,1.718-1.565a1.916,1.916,0,0,0,.094-1,16.407,16.407,0,0,0-.224-1.705,17.126,17.126,0,0,0-.894-3.057c-.105-.246-.211-.495-.317-.729-.082-.188-.164-.494-.341-.611a.48.48,0,0,0-.47.047,6.184,6.184,0,0,1-3.116.729c-1.376-.153-2.682-1.517-2.246-2.823a4.379,4.379,0,0,1,1.105-1.493,8.175,8.175,0,0,0,2.14-5.21,3.734,3.734,0,0,0-.353-1.894,4.206,4.206,0,0,0-1.082-1.152,14.225,14.225,0,0,0-7.773-2.987c-1.4-.095-2.811.011-4.2-.13a6.2,6.2,0,0,1-3.81-1.564,4.319,4.319,0,0,1,.177-6.009c.658-.588,1.482-.941,2.2-1.47a10.385,10.385,0,0,0,2.645-3.269,46.194,46.194,0,0,0,3.435-7.28,21.852,21.852,0,0,0,1.54-7.667c-.011-1.447-1.093-2.623-1.834-3.858s-1.105-3.057.024-3.94a3.769,3.769,0,0,1,1.223-.528q6.562-1.889,13.135-3.775a.811.811,0,0,1,.412-.036c.212.059.318.283.412.482,1.2,2.74,2.364,5.868,5.057,7.2a1.022,1.022,0,0,0,.777.129,1.061,1.061,0,0,0,.541-.623c1.117-2.494,1.07-5.328,1.247-8.056a2.849,2.849,0,0,1,1.011-2.411,2.905,2.905,0,0,1,1.588-.235c5.915.27,11.854.953,17.746.365,1.94-.188,3.881-.518,5.8-.847a6.581,6.581,0,0,0,3.339-1.5c1.189-1.023,2.364-2.058,3.54-3.094a10.691,10.691,0,0,1,2.376-1.741,8.588,8.588,0,0,1,5.163-.388,4.447,4.447,0,0,1,1.929.706,15.309,15.309,0,0,1,1.141,1.165,3.573,3.573,0,0,0,2.622.9,1.731,1.731,0,0,0,.647-.14,2.536,2.536,0,0,0,.717-.612,62.74,62.74,0,0,1,8.55-8.209,7.11,7.11,0,0,1,3-1.5,2.776,2.776,0,0,1,2.917,1.223c.212.423.365.988.835,1.059a1.086,1.086,0,0,0,.6-.13c.352-.153.717-.306,1.07-.458a1.523,1.523,0,0,0,.706-.46,1.136,1.136,0,0,0-.083-1.305,4.982,4.982,0,0,0-1.035-.953,7.318,7.318,0,0,1-2.387-3.469c.682-.518,1.741-.271,2.423-.8a2.558,2.558,0,0,0,.541-.681,18.4,18.4,0,0,0,2.364-7.491,9.825,9.825,0,0,0,.035-1.67,1.17,1.17,0,0,0-.129-.529,1.226,1.226,0,0,0-.565-.412c-1.105-.529-2.2-1.083-3.281-1.67a1.909,1.909,0,0,1-.682-.529,1.445,1.445,0,0,1-.2-.988,4.9,4.9,0,0,1,1.682-3.023c1.517-1.458,3.763-2.446,5.739-1.717a11.193,11.193,0,0,1,3.269,2.505c1.035.917,2.423,1.694,3.752,1.305s2.058-1.775,2.516-3.069a6.174,6.174,0,0,0,.447-2.281c-.095-1.787-1.47-3.234-2.905-4.3s-3.034-2.034-3.951-3.575a8.419,8.419,0,0,1-.953-2.752c-.306-1.541-1.34-3.857,0-4.693,2.164-1.34,4.328-2.692,6.48-4.034,1.858-1.152,3.834-2.446,4.621-4.481.33-.846.423-1.764.8-2.587a8.156,8.156,0,0,1,2.4-2.634,2.565,2.565,0,0,1,1.612-.764,4.482,4.482,0,0,0,.87.082,1.673,1.673,0,0,0,.846-.459q4.534-3.775,9.079-7.538a1.259,1.259,0,0,0,.246-.247c.306-.435-.047-1.059-.529-1.282a5.741,5.741,0,0,0-1.552-.293,1.37,1.37,0,0,1-1.2-.894c-.129-.611.423-1.128.929-1.493,3.7-2.787,7.127-5.492,10.831-8.279-1.082-.976-3.1-.882-3.609-2.258-.436-1.189.716-2.341,1.834-2.928s2.47-1.141,2.811-2.364a1.008,1.008,0,0,0-.024-.695,1.274,1.274,0,0,0-.753-.505c-1.622-.553-3.61-.917-4.339-2.481a1.4,1.4,0,0,1-.129-.788,1.692,1.692,0,0,1,.647-.882c3.61-3.094,8.114-4.893,12.536-6.645a2.836,2.836,0,0,1,3.422.482c4.386,3.033,8.984,6.315,11.125,11.207a6.612,6.612,0,0,0,1,1.835,4.334,4.334,0,0,0,3.586,1.105,4.387,4.387,0,0,0,1.811-.459,6.851,6.851,0,0,0,1.611-1.47,15.43,15.43,0,0,1,15.876-3.787c.106.306.505.389.824.354a12.13,12.13,0,0,0,3.81,9.655,8.912,8.912,0,0,1,2.493,2.7,6.449,6.449,0,0,1,.341,2.646q-.1,6.985-.423,13.947a8.542,8.542,0,0,0,.505,4.152c.624,1.258,2.188,2.175,3.47,1.6.717-.33,1.188-1.035,1.834-1.482,1.682-1.165,3.928-.341,5.939,0a13.737,13.737,0,0,0,9.362-2.059,21.366,21.366,0,0,0,6.714-7.009,15.771,15.771,0,0,0,2.752-8.961,17.614,17.614,0,0,1-.141-2.834c.341-3.163,3.575-5.081,6.433-6.5,1.224-.6,2.447-1.211,3.67-1.811a3.028,3.028,0,0,1,1.987-.459c.988.235,1.446,1.364,1.752,2.34.423,1.33.847,2.646,1.258,3.975a2.089,2.089,0,0,0,.577,1.059,1.8,1.8,0,0,0,1.152.306c1.94-.011,4.08-.835,5.715.212,2.447,1.564,1.565,5.879,3.951,7.527.611.423,1.364.6,1.929,1.07a4.824,4.824,0,0,1,1.318,3q.705,4,1.21,8.02a4.044,4.044,0,0,0,3.246-2.658,11.809,11.809,0,0,0,.589-4.352c.023-1.764.047-3.54.058-5.3.047-3.152,1.905-5.668,3.61-8.315,1.458-2.281,3.245-4.4,4.257-6.915a17.755,17.755,0,0,1,3,.729,1.36,1.36,0,0,1,.941.682c.094.247.047.553.223.764a.84.84,0,0,0,.695.177c1.788-.177,3.2-1.588,4.3-3.01s2.14-3,3.752-3.81a8.694,8.694,0,0,1,5.256-.436,6.868,6.868,0,0,1,2.505.788c2.034,1.258,2.411,4.01,2.564,6.4.129,1.905.246,3.81.375,5.716a.848.848,0,0,0,.119.446c.187.27.6.235.929.2a6.654,6.654,0,0,1,1.87.048c.93.164,1.811.517,2.74.6a5.783,5.783,0,0,0,5.48-3.716c.589-1.435.965-3.316,2.458-3.728,1.635-.447,3.058,1.329,4.74,1.552,3.328,3.094,6.539,6.1,9.655,9.409,1.47,1.564,2.986,3.3,3.21,5.445.188,1.882-.693,3.775-.4,5.645.4,2.669,3.046,4.6,3.387,7.28a6.535,6.535,0,0,0,.294,1.87c.517,1.105,1.916,1.411,2.964,2.046a6.171,6.171,0,0,1,2.634,4.14,21.142,21.142,0,0,1,.176,5.033q-.14,3.917.048,7.832a1.6,1.6,0,0,0,.224.906,1.652,1.652,0,0,0,.964.459c1.858.412,3.728.823,5.586,1.234a2.091,2.091,0,0,1,1.329.682,2.026,2.026,0,0,1,.153,1.294c-.164,1.635-.341,3.258-.505,4.881a1.278,1.278,0,0,0,1.4,1.635,24.706,24.706,0,0,0,8.3.376,2.573,2.573,0,0,1,1.117-.059,2.3,2.3,0,0,1,1.07.894c.648.8,1.282,1.611,1.929,2.423a3.19,3.19,0,0,0,1.353,1.152c1.094.352,2.211-.6,2.7-1.635a22.9,22.9,0,0,1,1.305-3.176c.894-1.294,2.5-1.858,4-2.34,1.176-.389,2.364-.764,3.54-1.153.623-.2,1.482-.317,1.788.259a1.47,1.47,0,0,1-.236,1.317c-.623,1.152-1.246,2.3-1.881,3.469a2.549,2.549,0,0,0,2.646-.788c.694-.694,1.176-1.575,1.894-2.235a4.575,4.575,0,0,1,6.915,1.446c.634,1.4.834,3.435,2.351,3.682a10.61,10.61,0,0,0,3.657,2.61,5.19,5.19,0,0,1,1.977,1.105,3.66,3.66,0,0,1,.6,1.036c1.882,4.327,1.635,9.337,3.446,13.688a1.607,1.607,0,0,0,.259.459,1.8,1.8,0,0,0,.846.423,12.305,12.305,0,0,1,5.821,4.151,36.329,36.329,0,0,1,3.834,6.151A2.188,2.188,0,0,1,1150.05,794.581Z" transform="translate(-740.041 -682.916)" fill="#796da1"/>
</svg>
