<?xml version="1.0" encoding="iso-8859-1"?>
<!-- Generator: Adobe Illustrator 19.0.0, SVG Export Plug-In . SVG Version: 6.00 Build 0)  -->
<svg xmlns="http://www.w3.org/2000/svg" xmlns:xlink="http://www.w3.org/1999/xlink" version="1.1" id="Layer_1" x="0px" y="0px" viewBox="0 0 512 512" style="enable-background:new 0 0 512 512;" xml:space="preserve" width="512px" height="512px">
<g>
	<g>
		<path d="M441.931,487.103l-24.699-49.397c-8.729-17.458-26.277-28.303-45.795-28.303h-8.127l-71.26-287.948    c9.349-9.281,15.149-22.133,15.149-36.317c0-28.231-22.968-51.2-51.2-51.2s-51.2,22.968-51.2,51.2    c0,14.183,5.8,27.036,15.149,36.317l-71.26,287.948h-7.6c-19.333,0-36.806,10.696-45.598,27.915l-25.356,49.657    c-5.797,11.352,2.48,24.827,15.199,24.827h341.331C439.32,511.802,447.603,498.449,441.931,487.103z M320.193,377.259    l-38.504-34.226l24.619-21.884L320.193,377.259z M304.978,409.402h-97.956L256,365.867L304.978,409.402z M256,68.071    c9.411,0,17.067,7.656,17.067,17.067c0,9.411-7.656,17.067-17.067,17.067c-9.41,0-17.067-7.656-17.067-17.067    C238.934,75.727,246.59,68.071,256,68.071z M251.48,136.127c1.492,0.131,2.997,0.211,4.52,0.211c1.523,0,3.029-0.08,4.518-0.211    l16.946,68.477h-42.93L251.48,136.127z M226.088,238.737h59.824l11.131,44.978L256,320.198l-41.043-36.483L226.088,238.737z     M205.694,321.149l24.619,21.884l-38.504,34.226L205.694,321.149z M113.212,477.669l12.678-24.827    c2.931-5.74,8.755-9.306,15.199-9.306c8.992,0,211.364,0,230.347,0c6.506,0,12.355,3.616,15.265,9.434l12.349,24.699H113.212z" fill="#FFFFFF"/>
	</g>
</g>
<g>
	<g>
		<path d="M501.972,14.1c-2.619-9.054-12.081-14.273-21.136-11.653c-9.054,2.618-14.271,12.081-11.653,21.135    c11.386,39.368,11.773,82.405,0,123.11c-2.618,9.054,2.599,18.517,11.653,21.135c9.04,2.619,18.515-2.588,21.136-11.653    C515.09,110.817,515.593,61.199,501.972,14.1z" fill="#FFFFFF"/>
	</g>
</g>
<g>
	<g>
		<path d="M43.245,22.124c2.682-9.035-2.47-18.534-11.506-21.215C22.704-1.775,13.205,3.38,10.523,12.415    c-13.766,46.39-14.293,97.278,0,145.446c2.686,9.052,12.198,14.186,21.216,11.506c9.036-2.681,14.188-12.18,11.506-21.215    C31.324,107.974,30.867,63.839,43.245,22.124z" fill="#FFFFFF"/>
	</g>
</g>
<g>
	<g>
		<path d="M435.551,30.263c-2.76-9.011-12.303-14.081-21.316-11.321c-9.012,2.76-14.081,12.303-11.322,21.316    c8.747,28.559,9.089,60.083,0,89.758c-2.759,9.013,2.309,18.557,11.322,21.316c9.008,2.759,18.556-2.307,21.316-11.321    C446.254,105.061,446.671,66.58,435.551,30.263z" fill="#FFFFFF"/>
	</g>
</g>
<g>
	<g>
		<path d="M109.527,38.85c2.847-8.985-2.13-18.578-11.115-21.425c-8.987-2.847-18.579,2.129-21.424,11.116    c-11.382,35.921-11.876,75.717,0,113.195c2.844,8.978,12.424,13.962,21.424,11.116c8.985-2.848,13.962-12.44,11.115-21.424    C100.245,102.132,99.804,69.54,109.527,38.85z" fill="#FFFFFF"/>
	</g>
</g>
<g>
	<g>
		<path d="M368.922,46.116c-3.084-8.904-12.808-13.622-21.712-10.54c-8.906,3.086-13.626,12.807-10.54,21.713    c6.064,17.502,6.378,37.287,0,55.697c-3.085,8.908,1.634,18.629,10.54,21.714c8.896,3.083,18.625-1.628,21.712-10.54    C377.43,99.597,377.87,71.949,368.922,46.116z" fill="#FFFFFF"/>
	</g>
</g>
<g>
	<g>
		<path d="M175.79,55.998c3.229-8.854-1.331-18.65-10.186-21.879c-8.854-3.231-18.653,1.331-21.88,10.186    c-9.307,25.522-9.868,54.603,0,81.663c3.231,8.862,13.037,13.415,21.88,10.186c8.855-3.229,13.415-13.025,10.186-21.879    C169.156,96.087,168.757,75.286,175.79,55.998z" fill="#FFFFFF"/>
	</g>
</g>
<g>
</g>
<g>
</g>
<g>
</g>
<g>
</g>
<g>
</g>
<g>
</g>
<g>
</g>
<g>
</g>
<g>
</g>
<g>
</g>
<g>
</g>
<g>
</g>
<g>
</g>
<g>
</g>
<g>
</g>
</svg>
