<svg xmlns="http://www.w3.org/2000/svg" xmlns:xlink="http://www.w3.org/1999/xlink" viewBox="0 0 20.95 21.33"><defs><style>.cls-1{fill:none;}.cls-2{clip-path:url(#clip-path);}.cls-3{fill:#fff;}.cls-4{fill:#04a1a7;}</style><clipPath id="clip-path" transform="translate(0 0)"><rect class="cls-1" width="20.95" height="21.33"/></clipPath></defs><title>edit icone</title><g id="Calque_2" data-name="Calque 2"><g id="Objects"><g class="cls-2"><path class="cls-3" d="M8.2,0S0,0,0,8.2v4.92s0,8.2,8.2,8.2h4.55s8.2,0,8.2-8.2V8.2S21,0,12.75,0Z" transform="translate(0 0)"/><path class="cls-4" d="M14.33,5.09a5.06,5.06,0,0,1,1.58,1.38.84.84,0,0,1-.09,1.14c-.32.32-.64.63-.95,1-.13.14-.23.15-.37,0-.66-.67-1.33-1.32-2-2-.06-.06-.08-.24,0-.28a4.71,4.71,0,0,1,1.4-1.2Z" transform="translate(0 0)"/><path class="cls-4" d="M4.86,15.91,5.31,14c.06-.24.1-.49.14-.66L7.7,15.65l-2.2.58H4.86Z" transform="translate(0 0)"/><path class="cls-4" d="M8.35,15,6.12,12.75,11.84,7l2.22,2.23L8.35,15" transform="translate(0 0)"/></g></g></g></svg>