<svg xmlns="http://www.w3.org/2000/svg" xmlns:xlink="http://www.w3.org/1999/xlink" viewBox="0 0 67.41 38.76"><defs><style>.cls-1,.cls-4{fill:none;}.cls-2{clip-path:url(#clip-path);}.cls-3{fill:#fff;}.cls-4{stroke:#f3f3f3;stroke-miterlimit:10;stroke-width:0.46px;}</style><clipPath id="clip-path" transform="translate(-0.79 -0.8)"><rect class="cls-1" width="69" height="40.35"/></clipPath></defs><title>Fichier 1</title><g id="Calque_2" data-name="Calque 2"><g id="Objects"><g class="cls-2"><path class="cls-3" d="M68,6.41a7.55,7.55,0,0,1-2.48,3.78Q51.79,23.91,38.12,37.66A4.77,4.77,0,0,1,33,39.09a4.87,4.87,0,0,1-2-1.3Q16.79,23.53,2.58,9.26A4.68,4.68,0,0,1,3.76,1.49,4.43,4.43,0,0,1,8.45,2a7.49,7.49,0,0,1,1,.87Q21.71,15.15,34,27.48c.4.4.6.45,1,0Q47.33,15.08,59.68,2.7a4.69,4.69,0,0,1,5-1.41,4.52,4.52,0,0,1,3,3c.07.21,0,.48.24.64Z" transform="translate(-0.79 -0.8)"/><path class="cls-4" d="M68,6.41a7.55,7.55,0,0,1-2.48,3.78Q51.79,23.91,38.12,37.66A4.77,4.77,0,0,1,33,39.09a4.87,4.87,0,0,1-2-1.3Q16.79,23.53,2.58,9.26A4.68,4.68,0,0,1,3.76,1.49,4.43,4.43,0,0,1,8.45,2a7.49,7.49,0,0,1,1,.87Q21.71,15.15,34,27.48c.4.4.6.45,1,0Q47.33,15.08,59.68,2.7a4.69,4.69,0,0,1,5-1.41,4.52,4.52,0,0,1,3,3c.07.21,0,.48.24.64Z" transform="translate(-0.79 -0.8)"/></g></g></g></svg>