<svg id="Groupe_260" data-name="Groupe 260" xmlns="http://www.w3.org/2000/svg" xmlns:xlink="http://www.w3.org/1999/xlink" width="425.391" height="427.912" viewBox="0 0 425.391 427.912">
  <defs>
    <clipPath id="clip-path">
      <rect id="Rectangle_726" data-name="Rectangle 726" width="425.391" height="427.912" fill="none"/>
    </clipPath>
  </defs>
  <g id="Groupe_249" data-name="Groupe 249" transform="translate(0)">
    <g id="Groupe_248" data-name="Groupe 248" clip-path="url(#clip-path)">
      <path id="Tracé_2649" data-name="Tracé 2649" d="M235.876,264c.08.167-60.325,17.183-60.325,17.183,1.422,3.141-5.485,77.828,60.733,152.947l10.93-6.411C185.041,334.745,235.963,264.183,235.876,264" transform="translate(-8.452 -12.71)" fill="#b4a9d1"/>
      <path id="Tracé_2650" data-name="Tracé 2650" d="M248.6,447.884,218,434l36.8-19.167Z" transform="translate(-10.496 -19.972)" fill="#b4a9d1"/>
      <path id="Tracé_2651" data-name="Tracé 2651" d="M0,49.8,418.989,0l6.4,304.35L9.441,290.226Z" transform="translate(0 0)" fill="#b4a9d1"/>
      <path id="Tracé_2652" data-name="Tracé 2652" d="M42.776,193.5l160.13-25.452a2.349,2.349,0,0,0,1.945-2.68L197.237,48.906a2.349,2.349,0,0,0-2.68-1.945L34.427,72.413a2.349,2.349,0,0,0-1.946,2.68L40.1,191.558a2.349,2.349,0,0,0,2.68,1.946" transform="translate(-1.562 -2.26)" fill="#00445e"/>
      <path id="Tracé_2653" data-name="Tracé 2653" d="M196.12,163.375l-145.7,23.158a11.074,11.074,0,0,1-12.639-9.172L24.326,92.7A11.075,11.075,0,0,1,33.5,80.059L179.2,56.9a11.075,11.075,0,0,1,12.639,9.172l13.456,84.663a11.074,11.074,0,0,1-9.172,12.639" transform="translate(-1.165 -2.733)" fill="#ccdee5"/>
      <path id="Tracé_2654" data-name="Tracé 2654" d="M76.827,175.4h0a2.4,2.4,0,0,1-2.738-1.987L60.91,90.49a2.392,2.392,0,1,1,4.724-.75l13.179,82.92a2.4,2.4,0,0,1-1.987,2.738" transform="translate(-2.931 -4.223)" fill="#fff"/>
      <path id="Tracé_2655" data-name="Tracé 2655" d="M85.512,174.016h0a2.4,2.4,0,0,1-2.738-1.987L69.6,89.109a2.392,2.392,0,0,1,4.724-.75L87.5,171.279a2.4,2.4,0,0,1-1.987,2.738" transform="translate(-3.349 -4.157)" fill="#fff"/>
      <path id="Tracé_2656" data-name="Tracé 2656" d="M94.2,172.636h0a2.4,2.4,0,0,1-2.738-1.986L78.281,87.729a2.392,2.392,0,1,1,4.724-.75L96.185,169.9a2.4,2.4,0,0,1-1.987,2.738" transform="translate(-3.767 -4.09)" fill="#fff"/>
      <path id="Tracé_2657" data-name="Tracé 2657" d="M102.883,171.255h0a2.4,2.4,0,0,1-2.738-1.987L86.966,86.348a2.392,2.392,0,0,1,4.724-.75l13.179,82.92a2.4,2.4,0,0,1-1.986,2.738" transform="translate(-4.186 -4.024)" fill="#fff"/>
      <path id="Tracé_2658" data-name="Tracé 2658" d="M111.569,169.875h0a2.4,2.4,0,0,1-2.738-1.987L95.652,84.968a2.392,2.392,0,1,1,4.724-.75l13.179,82.92a2.4,2.4,0,0,1-1.987,2.738" transform="translate(-4.604 -3.958)" fill="#fff"/>
      <path id="Tracé_2659" data-name="Tracé 2659" d="M120.254,168.494h0a2.4,2.4,0,0,1-2.738-1.986L104.337,83.587a2.392,2.392,0,0,1,4.724-.75l13.179,82.92a2.4,2.4,0,0,1-1.987,2.738" transform="translate(-5.022 -3.891)" fill="#fff"/>
      <path id="Tracé_2660" data-name="Tracé 2660" d="M128.94,167.114h0a2.4,2.4,0,0,1-2.738-1.987L113.023,82.207a2.392,2.392,0,0,1,4.724-.75l13.179,82.92a2.4,2.4,0,0,1-1.987,2.738" transform="translate(-5.44 -3.825)" fill="#fff"/>
      <path id="Tracé_2661" data-name="Tracé 2661" d="M137.625,165.733h0a2.4,2.4,0,0,1-2.738-1.986L121.708,80.826a2.392,2.392,0,0,1,4.724-.75L139.612,163a2.4,2.4,0,0,1-1.986,2.737" transform="translate(-5.858 -3.758)" fill="#fff"/>
      <path id="Tracé_2662" data-name="Tracé 2662" d="M146.31,164.353h0a2.4,2.4,0,0,1-2.738-1.987L130.393,79.446a2.392,2.392,0,0,1,4.724-.75l13.179,82.92a2.4,2.4,0,0,1-1.987,2.738" transform="translate(-6.276 -3.692)" fill="#fff"/>
      <path id="Tracé_2663" data-name="Tracé 2663" d="M155,162.972h0a2.4,2.4,0,0,1-2.738-1.987L139.079,78.065a2.392,2.392,0,1,1,4.724-.75l13.179,82.92A2.4,2.4,0,0,1,155,162.972" transform="translate(-6.695 -3.625)" fill="#fff"/>
      <path id="Tracé_2664" data-name="Tracé 2664" d="M163.681,161.592h0a2.4,2.4,0,0,1-2.738-1.987L147.764,76.685a2.392,2.392,0,0,1,4.724-.75l13.179,82.92a2.4,2.4,0,0,1-1.987,2.738" transform="translate(-7.113 -3.559)" fill="#fff"/>
      <path id="Tracé_2665" data-name="Tracé 2665" d="M172.367,160.211h0a2.4,2.4,0,0,1-2.738-1.987L156.45,75.3a2.392,2.392,0,1,1,4.724-.75l13.179,82.92a2.4,2.4,0,0,1-1.987,2.738" transform="translate(-7.531 -3.492)" fill="#fff"/>
      <path id="Tracé_2666" data-name="Tracé 2666" d="M181.052,158.831h0a2.4,2.4,0,0,1-2.738-1.987L165.135,73.924a2.392,2.392,0,0,1,4.724-.75l13.179,82.92a2.4,2.4,0,0,1-1.987,2.738" transform="translate(-7.949 -3.426)" fill="#fff"/>
      <path id="Tracé_2667" data-name="Tracé 2667" d="M189.738,157.45h0A2.4,2.4,0,0,1,187,155.464L173.821,72.543a2.392,2.392,0,1,1,4.724-.75l13.179,82.92a2.4,2.4,0,0,1-1.986,2.738" transform="translate(-8.367 -3.359)" fill="#fff"/>
      <path id="Tracé_2668" data-name="Tracé 2668" d="M198.423,156.07h0a2.4,2.4,0,0,1-2.738-1.987L182.506,71.163a2.392,2.392,0,0,1,4.724-.75l13.179,82.92a2.4,2.4,0,0,1-1.987,2.738" transform="translate(-8.785 -3.293)" fill="#fff"/>
      <path id="Tracé_2669" data-name="Tracé 2669" d="M196.961,89.081l-142.7,12.064L50.467,66.27l140.5-17.708Z" transform="translate(-2.43 -2.338)" fill="#002d3f"/>
    </g>
  </g>
  <text id="Qu_est-ce_que" data-name="Qu’est-ce que" transform="matrix(0.992, -0.124, 0.124, 0.992, 57.51, 80.978)" fill="#fff" font-size="13" font-family="CooperHewitt-Bold, Cooper Hewitt" font-weight="700"><tspan x="0" y="0">Qu’e</tspan><tspan y="0" letter-spacing="-0.011em">s</tspan><tspan y="0">t-ce que</tspan></text>
  <g id="Groupe_251" data-name="Groupe 251" transform="translate(0)">
    <g id="Groupe_250" data-name="Groupe 250" clip-path="url(#clip-path)">
      <path id="Tracé_2670" data-name="Tracé 2670" d="M200.927,98.562,63.838,124.857l-5-28.611L190.9,66.364Z" transform="translate(-2.833 -3.195)" fill="#ffd602"/>
    </g>
  </g>
  <text id="la_gouvernance_" data-name="la gouvernance ?" transform="translate(67.252 106.069) rotate(-12.623)" fill="#002d3f" font-size="10" font-family="CooperHewitt-Bold, Cooper Hewitt" font-weight="700"><tspan x="0" y="0">la gou</tspan><tspan y="0" letter-spacing="-0.011em">v</tspan><tspan y="0">ernance ?</tspan></text>
  <g id="Groupe_253" data-name="Groupe 253" transform="translate(0)">
    <g id="Groupe_252" data-name="Groupe 252" clip-path="url(#clip-path)">
      <path id="Tracé_2671" data-name="Tracé 2671" d="M195.836,156.919,51.675,188.252a11.076,11.076,0,0,1-13.137-8.446L20.332,96.037A11.075,11.075,0,0,1,28.777,82.9L172.938,51.568a11.075,11.075,0,0,1,13.137,8.445l18.207,83.77a11.075,11.075,0,0,1-8.446,13.136" transform="translate(-0.967 -2.471)" fill="#d6e4ea"/>
      <path id="Tracé_2672" data-name="Tracé 2672" d="M77.321,176.086h0a2.4,2.4,0,0,1-2.845-1.829L56.644,92.211a2.392,2.392,0,0,1,4.675-1.017l17.832,82.046a2.4,2.4,0,0,1-1.829,2.845" transform="translate(-2.724 -4.3)" fill="#fff"/>
      <path id="Tracé_2673" data-name="Tracé 2673" d="M85.915,174.218h0a2.4,2.4,0,0,1-2.845-1.829L65.238,90.343a2.392,2.392,0,0,1,4.675-1.017l17.832,82.046a2.4,2.4,0,0,1-1.829,2.845" transform="translate(-3.138 -4.21)" fill="#fff"/>
      <path id="Tracé_2674" data-name="Tracé 2674" d="M94.509,172.351h0a2.4,2.4,0,0,1-2.845-1.829L73.832,88.476a2.392,2.392,0,0,1,4.675-1.017l17.832,82.046a2.4,2.4,0,0,1-1.829,2.845" transform="translate(-3.552 -4.12)" fill="#fff"/>
      <path id="Tracé_2675" data-name="Tracé 2675" d="M103.1,170.483h0a2.4,2.4,0,0,1-2.845-1.829L82.425,86.608A2.392,2.392,0,0,1,87.1,85.592l17.832,82.046a2.4,2.4,0,0,1-1.829,2.845" transform="translate(-3.966 -4.03)" fill="#fff"/>
      <path id="Tracé_2676" data-name="Tracé 2676" d="M111.7,168.615h0a2.4,2.4,0,0,1-2.845-1.829L91.019,84.74a2.392,2.392,0,0,1,4.675-1.017l17.832,82.046a2.4,2.4,0,0,1-1.829,2.845" transform="translate(-4.379 -3.94)" fill="#fff"/>
      <path id="Tracé_2677" data-name="Tracé 2677" d="M120.29,166.747h0a2.4,2.4,0,0,1-2.845-1.829L99.613,82.872a2.392,2.392,0,0,1,4.675-1.017L122.12,163.9a2.4,2.4,0,0,1-1.829,2.845" transform="translate(-4.793 -3.85)" fill="#fff"/>
      <path id="Tracé_2678" data-name="Tracé 2678" d="M128.884,164.879h0a2.4,2.4,0,0,1-2.845-1.829L108.207,81a2.392,2.392,0,0,1,4.675-1.017l17.832,82.046a2.4,2.4,0,0,1-1.829,2.845" transform="translate(-5.207 -3.76)" fill="#fff"/>
      <path id="Tracé_2679" data-name="Tracé 2679" d="M137.478,163.012h0a2.4,2.4,0,0,1-2.845-1.829L116.8,79.137a2.392,2.392,0,0,1,4.675-1.017l17.832,82.046a2.4,2.4,0,0,1-1.829,2.845" transform="translate(-5.621 -3.67)" fill="#fff"/>
      <path id="Tracé_2680" data-name="Tracé 2680" d="M146.072,161.144h0a2.4,2.4,0,0,1-2.845-1.829L125.4,77.269a2.392,2.392,0,0,1,4.675-1.017L147.9,158.3a2.4,2.4,0,0,1-1.829,2.845" transform="translate(-6.034 -3.58)" fill="#fff"/>
      <path id="Tracé_2681" data-name="Tracé 2681" d="M154.665,159.276h0a2.4,2.4,0,0,1-2.845-1.829L133.988,75.4a2.392,2.392,0,0,1,4.675-1.017l17.832,82.046a2.4,2.4,0,0,1-1.829,2.845" transform="translate(-6.448 -3.491)" fill="#fff"/>
      <path id="Tracé_2682" data-name="Tracé 2682" d="M163.259,157.408h0a2.4,2.4,0,0,1-2.845-1.829L142.582,73.533a2.392,2.392,0,0,1,4.675-1.017l17.832,82.046a2.4,2.4,0,0,1-1.829,2.845" transform="translate(-6.862 -3.401)" fill="#fff"/>
      <path id="Tracé_2683" data-name="Tracé 2683" d="M171.853,155.54h0a2.4,2.4,0,0,1-2.845-1.829L151.176,71.665a2.392,2.392,0,0,1,4.675-1.017l17.832,82.046a2.4,2.4,0,0,1-1.829,2.845" transform="translate(-7.276 -3.311)" fill="#fff"/>
      <path id="Tracé_2684" data-name="Tracé 2684" d="M180.447,153.672h0a2.4,2.4,0,0,1-2.845-1.829L159.77,69.8a2.392,2.392,0,0,1,4.675-1.017l17.832,82.046a2.4,2.4,0,0,1-1.829,2.845" transform="translate(-7.689 -3.221)" fill="#fff"/>
      <path id="Tracé_2685" data-name="Tracé 2685" d="M189.041,151.8h0a2.4,2.4,0,0,1-2.845-1.829L168.364,67.93a2.392,2.392,0,0,1,4.675-1.017l17.832,82.046a2.4,2.4,0,0,1-1.829,2.845" transform="translate(-8.103 -3.131)" fill="#fff"/>
      <path id="Tracé_2686" data-name="Tracé 2686" d="M197.635,149.937h0a2.4,2.4,0,0,1-2.845-1.829L176.958,66.062a2.392,2.392,0,0,1,4.675-1.017l17.832,82.046a2.4,2.4,0,0,1-1.829,2.845" transform="translate(-8.517 -3.041)" fill="#fff"/>
      <path id="Tracé_2687" data-name="Tracé 2687" d="M84.9,87.458,18.728,96.726a.749.749,0,0,1-.91-.5l2.619-30.284c-.055-.346.265-.687.71-.758l48.457-7.7a.788.788,0,0,1,.884.4l.14.313,14.8,28.157a.755.755,0,0,1-.515,1.1l-.013,0" transform="translate(-0.858 -2.767)" fill="#005a7d"/>
      <path id="Tracé_2688" data-name="Tracé 2688" d="M201.031,167.594,40.9,193.045a2.349,2.349,0,0,1-2.68-1.946L9.349,78.015a2.349,2.349,0,0,1,1.946-2.68l160.13-25.452a2.348,2.348,0,0,1,2.68,1.945l28.873,113.086a2.35,2.35,0,0,1-1.946,2.68" transform="translate(-0.449 -2.4)" fill="#005a7d"/>
    </g>
  </g>
  <text id="_" data-name="?" transform="translate(89.211 133.075) rotate(3.554)" fill="#fff" font-size="52" font-family="CooperHewitt-Bold, Cooper Hewitt" font-weight="700"><tspan x="0" y="0">?</tspan></text>
  <g id="Groupe_255" data-name="Groupe 255" transform="translate(0)">
    <g id="Groupe_254" data-name="Groupe 254" clip-path="url(#clip-path)">
      <path id="Tracé_2689" data-name="Tracé 2689" d="M235.654,279.792,396.97,296.114a2.349,2.349,0,0,0,2.566-2.094l22.407-114.542a2.349,2.349,0,0,0-2.094-2.566L258.532,160.589a2.349,2.349,0,0,0-2.565,2.1L233.56,277.226a2.349,2.349,0,0,0,2.094,2.566" transform="translate(-11.244 -7.731)" fill="#004d40"/>
      <path id="Tracé_2690" data-name="Tracé 2690" d="M392.2,289.843l-146.778-14.85a11.075,11.075,0,0,1-9.875-12.1l8.629-85.29a11.075,11.075,0,0,1,12.1-9.875l146.778,14.85a11.076,11.076,0,0,1,9.876,12.1l-8.63,85.29a11.075,11.075,0,0,1-12.1,9.874" transform="translate(-11.338 -8.073)" fill="#ccdee5"/>
      <path id="Tracé_2691" data-name="Tracé 2691" d="M274.237,269.746h0a2.4,2.4,0,0,1-2.139-2.62l8.452-83.535a2.392,2.392,0,0,1,4.759.482l-8.451,83.535a2.4,2.4,0,0,1-2.62,2.139" transform="translate(-13.099 -8.735)" fill="#fff"/>
      <path id="Tracé_2692" data-name="Tracé 2692" d="M282.987,270.631h0a2.4,2.4,0,0,1-2.139-2.62l8.451-83.535a2.392,2.392,0,0,1,4.759.482l-8.452,83.535a2.4,2.4,0,0,1-2.62,2.139" transform="translate(-13.521 -8.778)" fill="#fff"/>
      <path id="Tracé_2693" data-name="Tracé 2693" d="M291.736,271.516h0a2.4,2.4,0,0,1-2.139-2.62l8.451-83.535a2.392,2.392,0,1,1,4.759.482l-8.452,83.535a2.4,2.4,0,0,1-2.62,2.139" transform="translate(-13.942 -8.821)" fill="#fff"/>
      <path id="Tracé_2694" data-name="Tracé 2694" d="M300.486,272.4h0a2.4,2.4,0,0,1-2.139-2.62l8.452-83.535a2.392,2.392,0,1,1,4.759.482l-8.452,83.535a2.4,2.4,0,0,1-2.621,2.139" transform="translate(-14.363 -8.863)" fill="#fff"/>
      <path id="Tracé_2695" data-name="Tracé 2695" d="M309.236,273.287h0a2.4,2.4,0,0,1-2.139-2.62l8.452-83.535a2.392,2.392,0,0,1,4.759.482l-8.452,83.535a2.4,2.4,0,0,1-2.62,2.139" transform="translate(-14.785 -8.906)" fill="#fff"/>
      <path id="Tracé_2696" data-name="Tracé 2696" d="M317.986,274.172h0a2.4,2.4,0,0,1-2.139-2.621l8.452-83.535a2.392,2.392,0,0,1,4.759.482l-8.451,83.535a2.4,2.4,0,0,1-2.621,2.139" transform="translate(-15.206 -8.949)" fill="#fff"/>
      <path id="Tracé_2697" data-name="Tracé 2697" d="M326.736,275.057h0a2.4,2.4,0,0,1-2.139-2.62l8.451-83.535a2.392,2.392,0,0,1,4.759.482l-8.451,83.535a2.4,2.4,0,0,1-2.62,2.139" transform="translate(-15.627 -8.991)" fill="#fff"/>
      <path id="Tracé_2698" data-name="Tracé 2698" d="M335.486,275.943h0a2.4,2.4,0,0,1-2.139-2.62l8.452-83.535a2.392,2.392,0,0,1,4.759.482L338.107,273.8a2.4,2.4,0,0,1-2.62,2.139" transform="translate(-16.048 -9.034)" fill="#fff"/>
      <path id="Tracé_2699" data-name="Tracé 2699" d="M344.235,276.828h0a2.4,2.4,0,0,1-2.139-2.62l8.452-83.535a2.392,2.392,0,0,1,4.759.482l-8.452,83.535a2.4,2.4,0,0,1-2.62,2.139" transform="translate(-16.47 -9.076)" fill="#fff"/>
      <path id="Tracé_2700" data-name="Tracé 2700" d="M352.985,277.713h0a2.4,2.4,0,0,1-2.139-2.62l8.451-83.535a2.392,2.392,0,1,1,4.759.482l-8.452,83.535a2.4,2.4,0,0,1-2.621,2.139" transform="translate(-16.891 -9.119)" fill="#fff"/>
      <path id="Tracé_2701" data-name="Tracé 2701" d="M361.735,278.6h0a2.4,2.4,0,0,1-2.139-2.62l8.452-83.535a2.392,2.392,0,0,1,4.759.482l-8.452,83.535a2.4,2.4,0,0,1-2.62,2.139" transform="translate(-17.312 -9.162)" fill="#fff"/>
      <path id="Tracé_2702" data-name="Tracé 2702" d="M370.485,279.484h0a2.4,2.4,0,0,1-2.139-2.62l8.452-83.535a2.392,2.392,0,1,1,4.759.482l-8.452,83.535a2.4,2.4,0,0,1-2.62,2.139" transform="translate(-17.733 -9.204)" fill="#fff"/>
      <path id="Tracé_2703" data-name="Tracé 2703" d="M379.235,280.369h0a2.4,2.4,0,0,1-2.14-2.62l8.451-83.535a2.392,2.392,0,0,1,4.759.482l-8.452,83.535a2.4,2.4,0,0,1-2.62,2.139" transform="translate(-18.155 -9.247)" fill="#fff"/>
      <path id="Tracé_2704" data-name="Tracé 2704" d="M387.984,281.254h0a2.4,2.4,0,0,1-2.139-2.62L394.3,195.1a2.392,2.392,0,0,1,4.759.482L390.6,279.116a2.4,2.4,0,0,1-2.62,2.139" transform="translate(-18.576 -9.289)" fill="#fff"/>
      <path id="Tracé_2705" data-name="Tracé 2705" d="M396.734,282.14h0a2.4,2.4,0,0,1-2.139-2.62l8.452-83.535a2.392,2.392,0,1,1,4.759.482L399.355,280a2.4,2.4,0,0,1-2.62,2.139" transform="translate(-18.997 -9.332)" fill="#fff"/>
      <path id="Tracé_2706" data-name="Tracé 2706" d="M412.41,217.841,271.365,193.032l5.248-34.687,140.356,18.79Z" transform="translate(-13.065 -7.623)" fill="#002d3f"/>
    </g>
  </g>
  <text id="Qu_est-ce_que-2" data-name="Qu’est-ce que" transform="matrix(0.991, 0.133, -0.133, 0.991, 268.376, 169.642)" fill="#fff" font-size="13" font-family="CooperHewitt-Bold, Cooper Hewitt" font-weight="700"><tspan x="0" y="0">Qu’e</tspan><tspan y="0" letter-spacing="-0.011em">s</tspan><tspan y="0">t-ce que</tspan></text>
  <g id="Groupe_257" data-name="Groupe 257" transform="translate(0)">
    <g id="Groupe_256" data-name="Groupe 256" clip-path="url(#clip-path)">
      <path id="Tracé_2707" data-name="Tracé 2707" d="M395.309,199.237,256.052,189.62l2.481-28.938,135.308,4.862Z" transform="translate(-12.328 -7.736)" fill="#e8876d"/>
    </g>
  </g>
  <text id="la_gouvernance_2" data-name="la gouvernance ?" transform="matrix(0.999, 0.038, -0.038, 0.999, 253.691, 168.244)" fill="#002d3f" font-size="10" font-family="CooperHewitt-Bold, Cooper Hewitt" font-weight="700"><tspan x="0" y="0">la gou</tspan><tspan y="0" letter-spacing="-0.012em">v</tspan><tspan y="0">ernance ?</tspan></text>
  <g id="Groupe_259" data-name="Groupe 259" transform="translate(0)">
    <g id="Groupe_258" data-name="Groupe 258" clip-path="url(#clip-path)">
      <path id="Tracé_2708" data-name="Tracé 2708" d="M393.72,283.928l-147.382-6.554A11.075,11.075,0,0,1,235.8,265.852l3.808-85.639a11.075,11.075,0,0,1,11.522-10.541l147.381,6.554a11.075,11.075,0,0,1,10.541,11.523l-3.808,85.64a11.074,11.074,0,0,1-11.522,10.54" transform="translate(-11.352 -8.168)" fill="#d6e4ea"/>
      <path id="Tracé_2709" data-name="Tracé 2709" d="M274.777,270.539h0a2.4,2.4,0,0,1-2.283-2.5l3.73-83.878a2.392,2.392,0,0,1,4.779.213l-3.73,83.877a2.4,2.4,0,0,1-2.5,2.283" transform="translate(-13.119 -8.757)" fill="#fff"/>
      <path id="Tracé_2710" data-name="Tracé 2710" d="M283.563,270.93h0a2.4,2.4,0,0,1-2.284-2.5l3.73-83.878a2.392,2.392,0,0,1,4.779.213l-3.73,83.877a2.4,2.4,0,0,1-2.5,2.284" transform="translate(-13.542 -8.775)" fill="#fff"/>
      <path id="Tracé_2711" data-name="Tracé 2711" d="M292.349,271.321h0a2.4,2.4,0,0,1-2.284-2.5l3.73-83.878a2.392,2.392,0,0,1,4.779.213l-3.73,83.878a2.4,2.4,0,0,1-2.495,2.283" transform="translate(-13.965 -8.794)" fill="#fff"/>
      <path id="Tracé_2712" data-name="Tracé 2712" d="M301.134,271.711h0a2.4,2.4,0,0,1-2.283-2.5l3.73-83.878a2.392,2.392,0,0,1,4.779.213l-3.73,83.877a2.4,2.4,0,0,1-2.5,2.284" transform="translate(-14.388 -8.813)" fill="#fff"/>
      <path id="Tracé_2713" data-name="Tracé 2713" d="M309.92,272.1h0a2.4,2.4,0,0,1-2.284-2.5l3.73-83.878a2.392,2.392,0,0,1,4.779.213l-3.73,83.877a2.4,2.4,0,0,1-2.5,2.284" transform="translate(-14.811 -8.832)" fill="#fff"/>
      <path id="Tracé_2714" data-name="Tracé 2714" d="M318.706,272.493h0a2.4,2.4,0,0,1-2.283-2.5l3.73-83.878a2.392,2.392,0,0,1,4.779.213l-3.73,83.877a2.4,2.4,0,0,1-2.5,2.284" transform="translate(-15.234 -8.851)" fill="#fff"/>
      <path id="Tracé_2715" data-name="Tracé 2715" d="M327.492,272.883h0a2.4,2.4,0,0,1-2.283-2.5l3.73-83.878a2.392,2.392,0,0,1,4.779.213l-3.73,83.877a2.4,2.4,0,0,1-2.5,2.284" transform="translate(-15.657 -8.869)" fill="#fff"/>
      <path id="Tracé_2716" data-name="Tracé 2716" d="M336.277,273.274h0a2.4,2.4,0,0,1-2.283-2.5l3.73-83.878a2.392,2.392,0,0,1,4.779.213l-3.73,83.877a2.4,2.4,0,0,1-2.5,2.283" transform="translate(-16.08 -8.888)" fill="#fff"/>
      <path id="Tracé_2717" data-name="Tracé 2717" d="M345.063,273.665h0a2.4,2.4,0,0,1-2.284-2.5l3.73-83.878a2.392,2.392,0,0,1,4.779.213l-3.73,83.877a2.4,2.4,0,0,1-2.5,2.284" transform="translate(-16.503 -8.907)" fill="#fff"/>
      <path id="Tracé_2718" data-name="Tracé 2718" d="M353.849,274.056h0a2.4,2.4,0,0,1-2.284-2.5l3.73-83.878a2.392,2.392,0,0,1,4.779.213l-3.73,83.878a2.4,2.4,0,0,1-2.5,2.284" transform="translate(-16.926 -8.926)" fill="#fff"/>
      <path id="Tracé_2719" data-name="Tracé 2719" d="M362.635,274.446h0a2.4,2.4,0,0,1-2.283-2.5l3.73-83.878a2.392,2.392,0,0,1,4.779.213l-3.73,83.877a2.4,2.4,0,0,1-2.5,2.284" transform="translate(-17.349 -8.945)" fill="#fff"/>
      <path id="Tracé_2720" data-name="Tracé 2720" d="M371.421,274.837h0a2.4,2.4,0,0,1-2.284-2.5l3.73-83.878a2.392,2.392,0,0,1,4.779.213l-3.73,83.877a2.4,2.4,0,0,1-2.5,2.284" transform="translate(-17.772 -8.963)" fill="#fff"/>
      <path id="Tracé_2721" data-name="Tracé 2721" d="M380.206,275.228h0a2.4,2.4,0,0,1-2.284-2.5l3.73-83.878a2.392,2.392,0,0,1,4.779.213l-3.73,83.877a2.4,2.4,0,0,1-2.5,2.284" transform="translate(-18.195 -8.982)" fill="#fff"/>
      <path id="Tracé_2722" data-name="Tracé 2722" d="M388.992,275.618h0a2.4,2.4,0,0,1-2.283-2.5l3.73-83.878a2.392,2.392,0,0,1,4.779.213l-3.73,83.877a2.4,2.4,0,0,1-2.5,2.284" transform="translate(-18.618 -9.001)" fill="#fff"/>
      <path id="Tracé_2723" data-name="Tracé 2723" d="M397.778,276.009h0a2.4,2.4,0,0,1-2.284-2.5l3.73-83.878a2.392,2.392,0,0,1,4.779.213l-3.73,83.877a2.4,2.4,0,0,1-2.5,2.284" transform="translate(-19.041 -9.02)" fill="#fff"/>
      <path id="Tracé_2724" data-name="Tracé 2724" d="M304.481,187.185l-66.345-7.954c-.448-.045-.786-.367-.751-.716l10.271-28.61a.748.748,0,0,1,.88-.55l48.816,4.938a.788.788,0,0,1,.752.618l.054.338,7.115,31a.755.755,0,0,1-.78.932h-.013" transform="translate(-11.429 -7.19)" fill="#02b196"/>
      <path id="Tracé_2725" data-name="Tracé 2725" d="M396.359,295.192,235.043,278.87a2.349,2.349,0,0,1-2.1-2.565l.991-116.709a2.349,2.349,0,0,1,2.565-2.1L397.82,173.823a2.35,2.35,0,0,1,2.1,2.566L398.924,293.1a2.349,2.349,0,0,1-2.565,2.094" transform="translate(-11.215 -7.582)" fill="#02b196"/>
    </g>
  </g>
  <text id="_2" data-name="?" transform="translate(294.691 235.053) rotate(-5.195)" fill="#fff" font-size="52" font-family="CooperHewitt-Bold, Cooper Hewitt" font-weight="700"><tspan x="0" y="0">?</tspan></text>
</svg>
