<svg id="Groupe_191" data-name="Groupe 191" xmlns="http://www.w3.org/2000/svg" xmlns:xlink="http://www.w3.org/1999/xlink" width="596.78" height="263.45" viewBox="0 0 596.78 263.45">
  <defs>
    <clipPath id="clip-path">
      <rect id="Rectangle_486" data-name="Rectangle 486" width="596.78" height="263.45" fill="none"/>
    </clipPath>
  </defs>
  <path id="Tracé_1518" data-name="Tracé 1518" d="M898.672,339.155H869.629l11.382-41.329h17.661Z" transform="translate(-463.248 -158.651)" fill="#5a3932"/>
  <path id="Tracé_1519" data-name="Tracé 1519" d="M1172.691,333.72l32.466,9.334-39.489-52.245-23.6-14.379Z" transform="translate(-608.377 -147.253)" fill="#5a3932"/>
  <path id="Tracé_1520" data-name="Tracé 1520" d="M1189.176,470.611h35.8V404.5L1186.2,393.775Z" transform="translate(-631.886 -209.762)" fill="#bcbcbc"/>
  <path id="Tracé_1521" data-name="Tracé 1521" d="M1020.657,333.72l-163.99,1.811,32.659-54.652,100.711-4.45Z" transform="translate(-456.344 -147.253)" fill="#78453a"/>
  <path id="Tracé_1522" data-name="Tracé 1522" d="M1015.78,520.47H860.694l2.809-30.321,150.993-2.776Z" transform="translate(-458.488 -259.622)" fill="#d7d7d7"/>
  <path id="Tracé_1523" data-name="Tracé 1523" d="M1017.923,440.436l-150.8,2.77,2.9-42,146.285-1.946Z" transform="translate(-461.916 -212.686)" fill="#fff"/>
  <path id="Tracé_1524" data-name="Tracé 1524" d="M1012.555,391.879l-80.727.044-5.273-1.707H1006.9Z" transform="translate(-493.572 -207.867)" fill="#492923"/>
  <path id="Tracé_1525" data-name="Tracé 1525" d="M1006.9,323.689H926.558l23.718-39.372,3.041-5.047,8.4-13.941,10.72,13.845,3.983,5.143Z" transform="translate(-493.574 -141.34)" fill="#fff"/>
  <path id="Tracé_1526" data-name="Tracé 1526" d="M959.231,341.888h2.978l14.27-37.424H971.7Z" transform="translate(-510.979 -162.187)" fill="#5a3932"/>
  <path id="Tracé_1527" data-name="Tracé 1527" d="M1013.517,304.464l16.2,37.424h2.978L1016.8,304.464" transform="translate(-539.897 -162.187)" fill="#5a3932"/>
  <path id="Tracé_1528" data-name="Tracé 1528" d="M1052.632,325.353l-5.653-1.663-45.19-58.36,22.729,8.468Z" transform="translate(-533.65 -141.341)" fill="#5a3932"/>
  <path id="Tracé_1529" data-name="Tracé 1529" d="M1022.219,321.479v22.882h.547l-.045-22.972Z" transform="translate(-544.533 -171.203)" fill="#767676"/>
  <path id="Tracé_1530" data-name="Tracé 1530" d="M1001.944,344.219H984.158v-22.17l17.786-.928Z" transform="translate(-524.258 -171.06)" fill="#bcbcbc"/>
  <path id="Tracé_1531" data-name="Tracé 1531" d="M1002.451,320.44l-17.757.7-.536.547,18.294-.7Z" transform="translate(-524.257 -170.697)" fill="#767676"/>
  <path id="Tracé_1532" data-name="Tracé 1532" d="M1001.988,344.484h-14.55V325.461l14.55-.593Z" transform="translate(-526.005 -173.056)" fill="#99bccb"/>
  <path id="Tracé_1533" data-name="Tracé 1533" d="M989.611,345.113H987.2V326.15l2.409-.1Z" transform="translate(-525.879 -173.685)" fill="#ccd3d5"/>
  <line id="Ligne_205" data-name="Ligne 205" y2="19.317" transform="translate(469.041 152.111)" fill="none" stroke="#fff" stroke-width="0.234"/>
  <line id="Ligne_206" data-name="Ligne 206" x1="14.55" transform="translate(461.433 162.048)" fill="none" stroke="#fff" stroke-width="0.234"/>
  <rect id="Rectangle_474" data-name="Rectangle 474" width="0.526" height="22.721" transform="translate(457.342 197.688)" fill="#767676"/>
  <path id="Tracé_1534" data-name="Tracé 1534" d="M937.144,446.361H900.7v-21.3l36.439-.891Z" transform="translate(-479.802 -225.952)" fill="#bcbcbc"/>
  <path id="Tracé_1535" data-name="Tracé 1535" d="M937.144,423.04l-35.924.891-.515.526,36.439-.891Z" transform="translate(-479.802 -225.352)" fill="#767676"/>
  <path id="Tracé_1536" data-name="Tracé 1536" d="M937.314,446.616H903.855V428.337l33.459-.57Z" transform="translate(-481.48 -227.87)" fill="#99bccb"/>
  <path id="Tracé_1537" data-name="Tracé 1537" d="M905.945,447.22h-2.314V429l2.314-.1Z" transform="translate(-481.361 -228.474)" fill="#ccd3d5"/>
  <path id="Tracé_1538" data-name="Tracé 1538" d="M940.1,446.913h-2.314V428.354l2.314-.03Z" transform="translate(-499.556 -228.167)" fill="#ccd3d5"/>
  <line id="Ligne_207" data-name="Ligne 207" y2="18.562" transform="translate(427.542 200.246)" fill="none" stroke="#fff" stroke-width="0.225"/>
  <line id="Ligne_208" data-name="Ligne 208" y2="18.562" transform="translate(432.983 200.305)" fill="none" stroke="#fff" stroke-width="0.225"/>
  <line id="Ligne_209" data-name="Ligne 209" y2="18.562" transform="translate(450.343 199.977)" fill="none" stroke="#fff" stroke-width="0.225"/>
  <line id="Ligne_210" data-name="Ligne 210" y2="18.562" transform="translate(444.477 200.09)" fill="none" stroke="#fff" stroke-width="0.225"/>
  <line id="Ligne_211" data-name="Ligne 211" x1="33.459" y2="0.411" transform="translate(422.375 209.322)" fill="none" stroke="#fff" stroke-width="0.225"/>
  <rect id="Rectangle_475" data-name="Rectangle 475" width="1.54" height="20.072" transform="translate(436.691 199.698)" fill="#bcbcbc"/>
  <rect id="Rectangle_476" data-name="Rectangle 476" width="0.526" height="22.721" transform="translate(538.306 197.002)" fill="#767676"/>
  <path id="Tracé_1539" data-name="Tracé 1539" d="M1110.4,444.893h-36.44v-21.3l36.44-.891Z" transform="translate(-572.095 -225.17)" fill="#bcbcbc"/>
  <path id="Tracé_1540" data-name="Tracé 1540" d="M1110.4,421.573l-35.924.891-.515.526,36.44-.891Z" transform="translate(-572.095 -224.57)" fill="#767676"/>
  <path id="Tracé_1541" data-name="Tracé 1541" d="M1110.572,445.149h-33.458V426.87l33.458-.57Z" transform="translate(-573.774 -227.088)" fill="#99bccb"/>
  <path id="Tracé_1542" data-name="Tracé 1542" d="M1079.2,445.752h-2.314V427.531l2.314-.1Z" transform="translate(-573.654 -227.692)" fill="#ccd3d5"/>
  <path id="Tracé_1543" data-name="Tracé 1543" d="M1113.358,445.445h-2.314V426.887l2.314-.03Z" transform="translate(-591.849 -227.385)" fill="#ccd3d5"/>
  <line id="Ligne_212" data-name="Ligne 212" y2="18.562" transform="translate(508.506 199.56)" fill="none" stroke="#fff" stroke-width="0.225"/>
  <line id="Ligne_213" data-name="Ligne 213" y2="18.562" transform="translate(513.946 199.62)" fill="none" stroke="#fff" stroke-width="0.225"/>
  <line id="Ligne_214" data-name="Ligne 214" y2="18.562" transform="translate(531.306 199.291)" fill="none" stroke="#fff" stroke-width="0.225"/>
  <line id="Ligne_215" data-name="Ligne 215" y2="18.562" transform="translate(525.44 199.405)" fill="none" stroke="#fff" stroke-width="0.225"/>
  <line id="Ligne_216" data-name="Ligne 216" x1="33.458" y2="0.411" transform="translate(503.339 208.636)" fill="none" stroke="#fff" stroke-width="0.225"/>
  <rect id="Rectangle_477" data-name="Rectangle 477" width="1.54" height="20.072" transform="translate(517.655 199.013)" fill="#bcbcbc"/>
  <path id="Tracé_1544" data-name="Tracé 1544" d="M1015.423,518.275l-153.9,2.747.811-.609,153.066-2.746Z" transform="translate(-458.931 -275.759)" fill="#bcbcbc"/>
  <path id="Tracé_1545" data-name="Tracé 1545" d="M1015.47,520.178l-153.944,2.748v-1.212l153.9-2.747Z" transform="translate(-458.932 -276.452)" fill="#767676"/>
  <path id="Tracé_1546" data-name="Tracé 1546" d="M1006.9,384.178H926.555l2.969-4.929,73.37-.369Z" transform="translate(-493.573 -201.828)" fill="#78453a"/>
  <path id="Tracé_1547" data-name="Tracé 1547" d="M1003.455,300.1H977.314l3.042-5.047,19.116-.1Z" transform="translate(-520.611 -157.123)" fill="#78453a"/>
  <path id="Tracé_1548" data-name="Tracé 1548" d="M1202.7,387.046l24.729,4.052,1.46-1.233-24.624-4.021Z" transform="translate(-640.672 -205.538)" fill="#492923"/>
  <path id="Tracé_1549" data-name="Tracé 1549" d="M1206.048,337.777l24.624,4.021-8.937-32.468-.843-3.646-2.326-10.073-2.97,10-1.1,3.716Z" transform="translate(-642.457 -157.471)" fill="#fff"/>
  <path id="Tracé_1550" data-name="Tracé 1550" d="M1241.881,354.041h-.825l-6.655-30.155h1.323Z" transform="translate(-657.561 -172.533)" fill="#5a3932"/>
  <path id="Tracé_1551" data-name="Tracé 1551" d="M1223.531,323.887l-4.488,27.039h-.825l4.4-27.039" transform="translate(-648.94 -172.533)" fill="#5a3932"/>
  <path id="Tracé_1552" data-name="Tracé 1552" d="M1188.553,338.979l1.566-1.2,12.518-42.166-26.492,6Z" transform="translate(-626.528 -157.472)" fill="#492923"/>
  <path id="Tracé_1553" data-name="Tracé 1553" d="M1227.076,336.239l.177,16.5-.483-.038-.073-16.613Z" transform="translate(-653.457 -179.031)" fill="#767676"/>
  <path id="Tracé_1554" data-name="Tracé 1554" d="M1227.684,352.911l6.582.759-1.12-16-5.639-1.25Z" transform="translate(-653.889 -179.207)" fill="#bcbcbc"/>
  <path id="Tracé_1555" data-name="Tracé 1555" d="M1226.7,336.084l5.738,1.072.281.334-5.64-1.25Z" transform="translate(-653.457 -179.031)" fill="#767676"/>
  <path id="Tracé_1556" data-name="Tracé 1556" d="M1229.015,353.331l4.818.292-.409-14.454-4.629-.878Z" transform="translate(-654.575 -180.206)" fill="#99bccb"/>
  <path id="Tracé_1557" data-name="Tracé 1557" d="M1237.7,354.443l.668.041-.409-14.454-.649-.123Z" transform="translate(-659.112 -181.067)" fill="#ccd3d5"/>
  <line id="Ligne_217" data-name="Ligne 217" x2="0.127" y2="14.725" transform="translate(576.612 158.538)" fill="none" stroke="#fff" stroke-width="0.105"/>
  <line id="Ligne_218" data-name="Ligne 218" x2="4.715" y2="0.507" transform="translate(574.323 165.131)" fill="none" stroke="#fff" stroke-width="0.105"/>
  <path id="Tracé_1558" data-name="Tracé 1558" d="M1193.771,418.5l.261,24.362-.713-.057-.108-24.534Z" transform="translate(-635.619 -222.812)" fill="#767676"/>
  <path id="Tracé_1559" data-name="Tracé 1559" d="M1194.67,443.124l9.347.785-1.279-23.3-8.329-1.846Z" transform="translate(-636.257 -223.073)" fill="#fff"/>
  <path id="Tracé_1560" data-name="Tracé 1560" d="M1193.211,418.272l8.474,1.582.415.493-8.329-1.846Z" transform="translate(-635.619 -222.812)" fill="#767676"/>
  <path id="Tracé_1561" data-name="Tracé 1561" d="M1196.635,443.743l7.116.431-.6-21.346-6.836-1.3Z" transform="translate(-637.271 -224.548)" fill="#99bccb"/>
  <path id="Tracé_1562" data-name="Tracé 1562" d="M1209.465,445.386l.987.06-.6-21.346-.958-.182Z" transform="translate(-643.971 -225.819)" fill="#ccd3d5"/>
  <line id="Ligne_219" data-name="Ligne 219" x2="0.188" y2="21.747" transform="translate(562.573 197.653)" fill="none" stroke="#fff" stroke-width="0.155"/>
  <line id="Ligne_220" data-name="Ligne 220" x2="6.963" y2="0.75" transform="translate(559.192 207.389)" fill="none" stroke="#fff" stroke-width="0.155"/>
  <path id="Tracé_1563" data-name="Tracé 1563" d="M1222.2,424.811l.247,23.082-.676-.054-.1-23.245Z" transform="translate(-650.779 -226.18)" fill="#767676"/>
  <path id="Tracé_1564" data-name="Tracé 1564" d="M1223.052,448.14l8.572.642-.928-21.974-7.891-1.75Z" transform="translate(-651.384 -226.427)" fill="#fff"/>
  <path id="Tracé_1565" data-name="Tracé 1565" d="M1221.67,424.594l8.029,1.5.393.467-7.891-1.749Z" transform="translate(-650.779 -226.18)" fill="#767676"/>
  <path id="Tracé_1566" data-name="Tracé 1566" d="M1224.914,448.727l6.742.408-.572-20.224-6.477-1.229Z" transform="translate(-652.344 -227.825)" fill="#99bccb"/>
  <path id="Tracé_1567" data-name="Tracé 1567" d="M1237.069,450.284l.935.057-.572-20.224-.908-.172Z" transform="translate(-658.692 -229.029)" fill="#ccd3d5"/>
  <line id="Ligne_221" data-name="Ligne 221" x2="0.178" y2="20.605" transform="translate(575.61 200.493)" fill="none" stroke="#fff" stroke-width="0.147"/>
  <line id="Ligne_222" data-name="Ligne 222" x2="6.597" y2="0.71" transform="translate(572.407 209.717)" fill="none" stroke="#fff" stroke-width="0.147"/>
  <path id="Tracé_1568" data-name="Tracé 1568" d="M1247.21,430.1l.239,22.361-.654-.051-.1-22.52Z" transform="translate(-664.11 -228.998)" fill="#767676"/>
  <path id="Tracé_1569" data-name="Tracé 1569" d="M1248.035,452.7l8.3.622-.9-21.288-7.645-1.694Z" transform="translate(-664.696 -229.238)" fill="#fff"/>
  <path id="Tracé_1570" data-name="Tracé 1570" d="M1246.7,429.885l7.778,1.452.38.452-7.645-1.694Z" transform="translate(-664.111 -228.998)" fill="#767676"/>
  <path id="Tracé_1571" data-name="Tracé 1571" d="M1249.839,453.264l6.532.4-.554-19.593-6.275-1.191Z" transform="translate(-665.627 -230.592)" fill="#99bccb"/>
  <path id="Tracé_1572" data-name="Tracé 1572" d="M1261.615,454.772l.906.055-.554-19.593-.88-.167Z" transform="translate(-671.776 -231.759)" fill="#ccd3d5"/>
  <line id="Ligne_223" data-name="Ligne 223" x2="0.172" y2="19.961" transform="translate(587.157 202.9)" fill="none" stroke="#fff" stroke-width="0.142"/>
  <line id="Ligne_224" data-name="Ligne 224" x2="6.391" y2="0.688" transform="translate(584.055 211.836)" fill="none" stroke="#fff" stroke-width="0.142"/>
  <path id="Tracé_1573" data-name="Tracé 1573" d="M1206.048,381.481l24.624,4.021-.822-3.561-22.691-4.288Z" transform="translate(-642.457 -201.175)" fill="#78453a"/>
  <path id="Tracé_1574" data-name="Tracé 1574" d="M1224.12,320.733l7.67,1.556-.908-3.635-5.658-1.637Z" transform="translate(-652.084 -168.874)" fill="#78453a"/>
  <path id="Tracé_1575" data-name="Tracé 1575" d="M1017.678,323.856h0Z" transform="translate(-542.113 -172.517)" fill="#5a3932"/>
  <path id="Tracé_1576" data-name="Tracé 1576" d="M1226.9,520.47h-35.8l-1.284-33.1L1226.9,492.9Z" transform="translate(-633.813 -259.622)" fill="#767676"/>
  <path id="Tracé_1577" data-name="Tracé 1577" d="M1039.9,519.779l7.438.8,13.739,10.2.438,6.955h-17.365Z" transform="translate(-553.951 -276.884)" fill="#767676"/>
  <g id="Groupe_190" data-name="Groupe 190">
    <g id="Groupe_189" data-name="Groupe 189" clip-path="url(#clip-path)">
      <path id="Tracé_1578" data-name="Tracé 1578" d="M1018.653,449.714v31.955l-26.864-.858V453.636a6.591,6.591,0,0,1,2.448-2.478c1.847-1.244,5.01-2.645,10.321-3.405,10.98-1.568,14.094,1.961,14.094,1.961" transform="translate(-528.322 -238.302)" fill="#bcbcbc"/>
      <path id="Tracé_1579" data-name="Tracé 1579" d="M1018.653,449.714v2.011c-13.849-3.833-22.89,1.391-26.864,4.613v-2.7s1.787-4.314,12.77-5.883,14.094,1.961,14.094,1.961" transform="translate(-528.322 -238.302)" fill="#767676"/>
      <path id="Tracé_1580" data-name="Tracé 1580" d="M994.237,455.5v29.7l-2.449-.042V457.975a6.6,6.6,0,0,1,2.449-2.478" transform="translate(-528.322 -242.642)" fill="#767676"/>
      <path id="Tracé_1581" data-name="Tracé 1581" d="M955.025,493.983l14.917-6.92,25.042-.272,18.982,7.652" transform="translate(-508.738 -259.312)" fill="none" stroke="#3d3d3d" stroke-width="1.185"/>
      <line id="Ligne_225" data-name="Ligne 225" y2="18.163" transform="translate(447.015 234.735)" fill="none" stroke="#3d3d3d" stroke-width="1.22"/>
      <line id="Ligne_226" data-name="Ligne 226" y2="17.676" transform="translate(449.727 233.399)" fill="none" stroke="#3d3d3d" stroke-width="1.22"/>
      <line id="Ligne_227" data-name="Ligne 227" y2="17.714" transform="translate(452.455 232.056)" fill="none" stroke="#3d3d3d" stroke-width="1.22"/>
      <line id="Ligne_228" data-name="Ligne 228" y2="17.177" transform="translate(455.744 230.438)" fill="none" stroke="#3d3d3d" stroke-width="1.22"/>
      <line id="Ligne_229" data-name="Ligne 229" y2="16.71" transform="translate(458.601 229.032)" fill="none" stroke="#3d3d3d" stroke-width="1.22"/>
      <line id="Ligne_230" data-name="Ligne 230" y2="16.066" transform="translate(461.203 227.751)" fill="none" stroke="#3d3d3d" stroke-width="1.22"/>
      <line id="Ligne_231" data-name="Ligne 231" y2="14.769" transform="translate(464.051 227.747)" fill="none" stroke="#3d3d3d" stroke-width="1.185"/>
      <line id="Ligne_232" data-name="Ligne 232" y2="14.898" transform="translate(466.715 227.751)" fill="none" stroke="#3d3d3d" stroke-width="1.185"/>
      <line id="Ligne_233" data-name="Ligne 233" y2="15.041" transform="translate(470.731 227.737)" fill="none" stroke="#3d3d3d" stroke-width="1.185"/>
      <line id="Ligne_234" data-name="Ligne 234" y2="15.144" transform="translate(475.002 227.751)" fill="none" stroke="#3d3d3d" stroke-width="1.185"/>
      <line id="Ligne_235" data-name="Ligne 235" y2="15.334" transform="translate(478.725 227.703)" fill="none" stroke="#3d3d3d" stroke-width="1.185"/>
      <line id="Ligne_236" data-name="Ligne 236" y2="15.407" transform="translate(482.631 227.751)" fill="none" stroke="#3d3d3d" stroke-width="1.185"/>
      <line id="Ligne_237" data-name="Ligne 237" y2="15.493" transform="translate(486.245 227.751)" fill="none" stroke="#3d3d3d" stroke-width="1.185"/>
      <line id="Ligne_238" data-name="Ligne 238" y2="16.947" transform="translate(489.584 228.825)" fill="none" stroke="#3d3d3d" stroke-width="1.203"/>
      <line id="Ligne_239" data-name="Ligne 239" y2="17.884" transform="translate(493.201 230.329)" fill="none" stroke="#3d3d3d" stroke-width="1.203"/>
      <line id="Ligne_240" data-name="Ligne 240" y2="18.74" transform="translate(496.757 231.806)" fill="none" stroke="#3d3d3d" stroke-width="1.203"/>
      <line id="Ligne_241" data-name="Ligne 241" y2="19.58" transform="translate(500.31 233.283)" fill="none" stroke="#3d3d3d" stroke-width="1.203"/>
      <line id="Ligne_242" data-name="Ligne 242" y2="19.994" transform="translate(503.793 234.73)" fill="none" stroke="#3d3d3d" stroke-width="1.203"/>
      <path id="Tracé_1582" data-name="Tracé 1582" d="M955.025,537.515l58.357-.25v-6.757l-18.694-11.2-23.943-.411-15.72,9.774Z" transform="translate(-508.738 -276.416)" fill="#fff"/>
      <path id="Tracé_1583" data-name="Tracé 1583" d="M1199.58,399.069l3.746-.042,32.466,9.334-3.612.109Z" transform="translate(-639.012 -212.56)" fill="#492923"/>
      <path id="Tracé_1584" data-name="Tracé 1584" d="M1107.591,522.839c-2.066-1.194-1.8-2.282-3.244-2.665-2.409-.637-3.525,2.276-6.883,2.331-2.59.043-2.98-1.673-5.44-1.332a7.06,7.06,0,0,0-4.774,3.22c-1.2,1.948-.471,3.171-1.665,4.108-1.349,1.058-2.628-.232-4.663.666a6.348,6.348,0,0,0-3.33,4.885,6.9,6.9,0,0,0,.888,4.4h37.193c.9-3.238.349-5.029-.333-6.069-.729-1.111-1.407-1.059-2-2.22-1.177-2.31.713-4.075-.333-5.552-.943-1.332-2.7-.208-5.417-1.776" transform="translate(-573.994 -277.046)" fill="#004d40"/>
      <path id="Tracé_1585" data-name="Tracé 1585" d="M1133.274,531.21c-.123.822-.411,1.1-.633,1.208-.751.37-1.718-.711-2.416-.287-.362.219-.244.6-.633.92a2.125,2.125,0,0,1-1.9.115" transform="translate(-600.719 -282.974)" fill="none" stroke="#fff" stroke-width="0.384"/>
      <path id="Tracé_1586" data-name="Tracé 1586" d="M1142.51,548.936c-.635,1.533-1.338,1.955-1.841,2.071-1.113.257-1.913-.829-2.934-.4-.8.333-.784,1.193-1.438,1.323-.671.133-1.4-.631-1.956-1.38" transform="translate(-604.26 -292.416)" fill="none" stroke="#fff" stroke-width="0.384"/>
      <path id="Tracé_1587" data-name="Tracé 1587" d="M1102.144,500.669a14.626,14.626,0,0,1,5.659-4.042,14.308,14.308,0,0,1,3.811-.924" transform="translate(-587.108 -264.059)" fill="none" stroke="#028571" stroke-linecap="round" stroke-linejoin="round" stroke-width="1.874"/>
      <path id="Tracé_1588" data-name="Tracé 1588" d="M1101.03,416.542a16.54,16.54,0,0,1,6.352-4.62" transform="translate(-586.515 -219.429)" fill="none" stroke="#028571" stroke-linecap="round" stroke-linejoin="round" stroke-width="1.874"/>
      <path id="Tracé_1589" data-name="Tracé 1589" d="M1093.043,466.2a17.663,17.663,0,0,0-7.507-4.851" transform="translate(-578.261 -245.759)" fill="none" stroke="#028571" stroke-linecap="round" stroke-linejoin="round" stroke-width="1.874"/>
      <path id="Tracé_1590" data-name="Tracé 1590" d="M1099.588,474.373c.774-15.53,1.063-31.9.693-49.025q-.251-11.609-.866-22.694" transform="translate(-585.654 -214.492)" fill="none" stroke="#028571" stroke-linecap="round" stroke-linejoin="round" stroke-width="3.748"/>
      <path id="Tracé_1591" data-name="Tracé 1591" d="M1062.26,402.606c1.05-2.094-3.424-4.914-2.541-7.853.327-1.088,1.03-1,3.7-3.234,3.759-3.152,3.293-4.111,5.313-5.082,2.05-.985,2.635-.047,8.315-.231,4.952-.16,5.858-.917,6.929,0,2.1,1.8-.228,5.686,2.31,8.315,1.38,1.43,2.626.735,3.465,2.079,1.388,2.222-1.636,4.6-.693,7.853.8,2.753,3.3,2.2,4.388,5.081,1.263,3.347-1.634,5.343-.231,8.777.971,2.377,2.656,2.151,3,4.158.493,2.853-2.786,4.073-2.541,7.161.179,2.253,1.977,2.248,3.234,5.312,1.015,2.474,1.489,6.488-.462,9.008-1.675,2.165-3.41.993-7.312,3.643-3.212,2.181-2.994,3.625-5.623,4.672-2.011.8-2.694.178-6.93.231-6.569.084-7.243,1.612-10.239.672-2.346-.736-2.017-1.7-6.571-5.245-5.453-4.244-7.4-4.011-8.135-6.284-.922-2.849,1.915-3.9,3.234-9.47,1.543-6.512-1.63-8.063.462-13.4,1.489-3.8,3.582-4.25,3.7-7.623.1-2.931-1.408-4.8-.231-6.467,1.051-1.488,2.835-.824,3.465-2.079" transform="translate(-560.106 -205.493)" fill="#359d8d"/>
      <path id="Tracé_1592" data-name="Tracé 1592" d="M1091.582,408.143c.7,2.392,1.51,3.091,2.189,3.2,1.082.174,1.835-1.146,3.032-.843.884.225.981,1.074,1.734,1.6.824.577,2.368.728,5.509-.929" transform="translate(-581.482 -217.416)" fill="none" stroke="#028571" stroke-linecap="round" stroke-linejoin="round" stroke-width="0.75"/>
      <path id="Tracé_1593" data-name="Tracé 1593" d="M1114.614,430.131c.3,2.111-.035,2.92-.505,3.2-.947.564-2.61-.905-3.2-.337-.479.46.432,1.6,0,2.358-.317.557-1.377.951-4.548.337" transform="translate(-589.354 -229.129)" fill="none" stroke="#028571" stroke-linecap="round" stroke-linejoin="round" stroke-width="0.75"/>
      <path id="Tracé_1594" data-name="Tracé 1594" d="M1072.838,448.154a3.145,3.145,0,0,0,2.021,2.022,3,3,0,0,0,3.2-1.179" transform="translate(-571.497 -238.73)" fill="none" stroke="#028571" stroke-linecap="round" stroke-linejoin="round" stroke-width="0.75"/>
      <path id="Tracé_1595" data-name="Tracé 1595" d="M1064.547,467.619c1.108,3.529,2.17,4.5,3.032,4.548,1.119.066,2.032-1.405,3.032-1.01.66.26.583,1.029,1.179,1.516s1.863.691,4.885-.842" transform="translate(-567.08 -249.099)" fill="none" stroke="#028571" stroke-linecap="round" stroke-linejoin="round" stroke-width="0.75"/>
      <path id="Tracé_1596" data-name="Tracé 1596" d="M1115.732,460.13c3.872,1.407,5.294,1.15,5.795.512.748-.953-.382-2.989.438-3.544.572-.387,1.349.45,2.19.168.951-.319,1.363-1.865,1.516-3.706" transform="translate(-594.346 -241.61)" fill="none" stroke="#028571" stroke-linecap="round" stroke-linejoin="round" stroke-width="0.75"/>
      <path id="Tracé_1597" data-name="Tracé 1597" d="M1102.119,482.4c.412,2.579-.032,3.415-.505,3.706-1.19.73-3.458-1.435-4.716-.505-.622.459-.422,1.251-1.011,1.516-.751.338-1.91-.574-2.864-1.516" transform="translate(-582.249 -256.971)" fill="none" stroke="#028571" stroke-linecap="round" stroke-linejoin="round" stroke-width="0.75"/>
      <path id="Tracé_1598" data-name="Tracé 1598" d="M1112.488,502.536c1.434,1.917,2.474,2.288,3.2,2.19,1.63-.22,2.194-2.871,3.706-2.864a2.581,2.581,0,0,1,1.853,1.348" transform="translate(-592.618 -267.34)" fill="none" stroke="#028571" stroke-linecap="round" stroke-linejoin="round" stroke-width="0.75"/>
      <path id="Tracé_1599" data-name="Tracé 1599" d="M1074.317,509.389c-1.726,1.365-2.753,1.393-3.369,1.179-1.293-.451-1.445-2.215-2.7-2.358-.953-.11-1.4.854-2.19.674s-1.246-1.365-1.516-2.7" transform="translate(-567.08 -269.645)" fill="none" stroke="#028571" stroke-linecap="round" stroke-linejoin="round" stroke-width="0.75"/>
      <path id="Tracé_1600" data-name="Tracé 1600" d="M585.135,258H545.358l15.589-56.6h24.188Z" transform="translate(-290.51 -107.283)" fill="#5a3932"/>
      <path id="Tracé_1601" data-name="Tracé 1601" d="M960.429,250.558l44.466,12.784-54.084-71.555-32.319-19.693Z" transform="translate(-489.277 -91.674)" fill="#5a3932"/>
      <path id="Tracé_1602" data-name="Tracé 1602" d="M983.006,438.041h49.028V347.5l-53.1-14.692Z" transform="translate(-521.475 -177.285)" fill="#bcbcbc"/>
      <path id="Tracé_1603" data-name="Tracé 1603" d="M752.206,250.558l-224.6,2.48,44.729-74.85,137.933-6.094Z" transform="translate(-281.054 -91.674)" fill="#78453a"/>
      <path id="Tracé_1604" data-name="Tracé 1604" d="M745.525,506.327h-212.4l3.847-41.528,206.8-3.8Z" transform="translate(-283.992 -245.572)" fill="#d7d7d7"/>
      <path id="Tracé_1605" data-name="Tracé 1605" d="M748.46,396.715l-206.528,3.794,3.966-57.52,200.35-2.665Z" transform="translate(-288.685 -181.289)" fill="#fff"/>
      <path id="Tracé_1606" data-name="Tracé 1606" d="M741.108,330.211l-110.564.06-7.22-2.337H733.367Z" transform="translate(-332.043 -174.689)" fill="#492923"/>
      <path id="Tracé_1607" data-name="Tracé 1607" d="M733.368,236.819H623.327L655.812,182.9l4.165-6.912,11.5-19.094,14.682,18.962,5.456,7.044Z" transform="translate(-332.044 -83.575)" fill="#fff"/>
      <path id="Tracé_1608" data-name="Tracé 1608" d="M668.076,261.743h4.079L691.7,210.488h-6.542Z" transform="translate(-355.882 -112.126)" fill="#5a3932"/>
      <path id="Tracé_1609" data-name="Tracé 1609" d="M742.426,210.488l22.19,51.255h4.078l-21.769-51.255" transform="translate(-395.488 -112.126)" fill="#5a3932"/>
      <path id="Tracé_1610" data-name="Tracé 1610" d="M796,239.1l-7.742-2.277-61.891-79.929,31.129,11.6Z" transform="translate(-386.932 -83.576)" fill="#5a3932"/>
      <path id="Tracé_1611" data-name="Tracé 1611" d="M754.344,233.793v31.34h.75l-.061-31.462Z" transform="translate(-401.837 -124.476)" fill="#767676"/>
      <path id="Tracé_1612" data-name="Tracé 1612" d="M726.576,264.935h-24.36V234.571l24.36-1.27Z" transform="translate(-374.068 -124.279)" fill="#bcbcbc"/>
      <path id="Tracé_1613" data-name="Tracé 1613" d="M727.27,232.369l-24.32.956-.734.75,25.055-.956Z" transform="translate(-374.068 -123.782)" fill="#767676"/>
      <path id="Tracé_1614" data-name="Tracé 1614" d="M726.636,265.3H706.708V239.246l19.928-.812Z" transform="translate(-376.461 -127.013)" fill="#99bccb"/>
      <path id="Tracé_1615" data-name="Tracé 1615" d="M709.686,266.16h-3.3V240.189l3.3-.139Z" transform="translate(-376.29 -127.874)" fill="#ccd3d5"/>
      <line id="Ligne_243" data-name="Ligne 243" y2="26.456" transform="translate(340.667 111.83)" fill="none" stroke="#fff" stroke-width="0.321"/>
      <line id="Ligne_244" data-name="Ligne 244" x1="19.928" transform="translate(330.247 125.439)" fill="none" stroke="#fff" stroke-width="0.321"/>
      <rect id="Rectangle_478" data-name="Rectangle 478" width="0.721" height="31.119" transform="translate(324.644 174.252)" fill="#767676"/>
      <path id="Tracé_1616" data-name="Tracé 1616" d="M637.826,404.829H587.918V375.651l49.908-1.221Z" transform="translate(-313.182 -199.458)" fill="#bcbcbc"/>
      <path id="Tracé_1617" data-name="Tracé 1617" d="M637.826,372.889l-49.2,1.221-.706.721,49.908-1.221Z" transform="translate(-313.182 -198.636)" fill="#767676"/>
      <path id="Tracé_1618" data-name="Tracé 1618" d="M638.059,405.178H592.235V380.143l45.825-.78Z" transform="translate(-315.481 -202.085)" fill="#99bccb"/>
      <path id="Tracé_1619" data-name="Tracé 1619" d="M595.1,406h-3.169V381.049l3.169-.134Z" transform="translate(-315.317 -202.912)" fill="#ccd3d5"/>
      <path id="Tracé_1620" data-name="Tracé 1620" d="M641.876,405.584h-3.169V380.167l3.169-.042Z" transform="translate(-340.237 -202.492)" fill="#ccd3d5"/>
      <line id="Ligne_245" data-name="Ligne 245" y2="25.422" transform="translate(283.83 177.755)" fill="none" stroke="#fff" stroke-width="0.308"/>
      <line id="Ligne_246" data-name="Ligne 246" y2="25.422" transform="translate(291.282 177.837)" fill="none" stroke="#fff" stroke-width="0.308"/>
      <line id="Ligne_247" data-name="Ligne 247" y2="25.422" transform="translate(315.058 177.386)" fill="none" stroke="#fff" stroke-width="0.308"/>
      <line id="Ligne_248" data-name="Ligne 248" y2="25.422" transform="translate(307.023 177.542)" fill="none" stroke="#fff" stroke-width="0.308"/>
      <line id="Ligne_249" data-name="Ligne 249" x1="45.825" y2="0.563" transform="translate(276.753 190.185)" fill="none" stroke="#fff" stroke-width="0.308"/>
      <rect id="Rectangle_479" data-name="Rectangle 479" width="2.109" height="27.49" transform="translate(296.361 177.005)" fill="#bcbcbc"/>
      <rect id="Rectangle_480" data-name="Rectangle 480" width="0.72" height="31.119" transform="translate(435.531 173.313)" fill="#767676"/>
      <path id="Tracé_1621" data-name="Tracé 1621" d="M875.117,402.819H825.209V373.641l49.908-1.221Z" transform="translate(-439.586 -198.387)" fill="#bcbcbc"/>
      <path id="Tracé_1622" data-name="Tracé 1622" d="M875.117,370.879l-49.2,1.221-.706.721,49.908-1.221Z" transform="translate(-439.586 -197.566)" fill="#767676"/>
      <path id="Tracé_1623" data-name="Tracé 1623" d="M875.351,403.168H829.526V378.133l45.825-.78Z" transform="translate(-441.885 -201.015)" fill="#99bccb"/>
      <path id="Tracé_1624" data-name="Tracé 1624" d="M832.387,403.995h-3.17V379.039l3.17-.134Z" transform="translate(-441.721 -201.841)" fill="#ccd3d5"/>
      <path id="Tracé_1625" data-name="Tracé 1625" d="M879.167,403.575H876V378.158l3.17-.042Z" transform="translate(-466.641 -201.421)" fill="#ccd3d5"/>
      <line id="Ligne_250" data-name="Ligne 250" y2="25.422" transform="translate(394.717 176.816)" fill="none" stroke="#fff" stroke-width="0.308"/>
      <line id="Ligne_251" data-name="Ligne 251" y2="25.422" transform="translate(402.169 176.898)" fill="none" stroke="#fff" stroke-width="0.308"/>
      <line id="Ligne_252" data-name="Ligne 252" y2="25.422" transform="translate(425.945 176.447)" fill="none" stroke="#fff" stroke-width="0.308"/>
      <line id="Ligne_253" data-name="Ligne 253" y2="25.422" transform="translate(417.91 176.603)" fill="none" stroke="#fff" stroke-width="0.308"/>
      <line id="Ligne_254" data-name="Ligne 254" x1="45.825" y2="0.563" transform="translate(387.64 189.246)" fill="none" stroke="#fff" stroke-width="0.308"/>
      <rect id="Rectangle_481" data-name="Rectangle 481" width="2.109" height="27.49" transform="translate(407.248 176.066)" fill="#bcbcbc"/>
      <path id="Tracé_1626" data-name="Tracé 1626" d="M745.036,503.321l-210.777,3.762,1.111-.834,209.637-3.761Z" transform="translate(-284.598 -267.673)" fill="#bcbcbc"/>
      <path id="Tracé_1627" data-name="Tracé 1627" d="M745.1,505.928,534.26,509.692v-1.659l210.777-3.762Z" transform="translate(-284.598 -268.623)" fill="#767676"/>
      <path id="Tracé_1628" data-name="Tracé 1628" d="M733.367,319.664H623.324l4.067-6.75,100.487-.505Z" transform="translate(-332.043 -166.419)" fill="#78453a"/>
      <path id="Tracé_1629" data-name="Tracé 1629" d="M728.646,204.511h-35.8l4.166-6.912,26.182-.131Z" transform="translate(-369.075 -105.19)" fill="#78453a"/>
      <path id="Tracé_1630" data-name="Tracé 1630" d="M1001.525,323.591l33.869,5.55,2-1.689-33.724-5.507Z" transform="translate(-533.509 -171.499)" fill="#492923"/>
      <path id="Tracé_1631" data-name="Tracé 1631" d="M1006.115,256.114l33.724,5.507-12.24-44.468-1.154-4.994-3.185-13.8-4.067,13.7-1.511,5.089Z" transform="translate(-535.954 -105.667)" fill="#fff"/>
      <path id="Tracé_1632" data-name="Tracé 1632" d="M1055.192,278.388h-1.13l-9.115-41.3h1.812Z" transform="translate(-556.639 -126.296)" fill="#5a3932"/>
      <path id="Tracé_1633" data-name="Tracé 1633" d="M1030.059,237.089l-6.147,37.033h-1.13l6.03-37.033" transform="translate(-544.832 -126.297)" fill="#5a3932"/>
      <path id="Tracé_1634" data-name="Tracé 1634" d="M982.153,257.76l2.144-1.645,17.145-57.75-36.283,8.217Z" transform="translate(-514.137 -105.668)" fill="#492923"/>
      <path id="Tracé_1635" data-name="Tracé 1635" d="M1034.914,254.007l.242,22.592-.662-.052-.1-22.752Z" transform="translate(-551.018 -135.196)" fill="#767676"/>
      <path id="Tracé_1636" data-name="Tracé 1636" d="M1035.747,276.841l9.015,1.039-1.533-21.919-7.724-1.712Z" transform="translate(-551.61 -135.438)" fill="#bcbcbc"/>
      <path id="Tracé_1637" data-name="Tracé 1637" d="M1034.394,253.795l7.859,1.467.385.457-7.724-1.712Z" transform="translate(-551.018 -135.195)" fill="#767676"/>
      <path id="Tracé_1638" data-name="Tracé 1638" d="M1037.57,277.415l6.6.4-.56-19.8-6.339-1.2Z" transform="translate(-552.55 -136.806)" fill="#99bccb"/>
      <path id="Tracé_1639" data-name="Tracé 1639" d="M1049.467,278.939l.915.056-.56-19.8-.889-.169Z" transform="translate(-558.763 -137.985)" fill="#ccd3d5"/>
      <line id="Ligne_255" data-name="Ligne 255" x2="0.174" y2="20.168" transform="translate(487.995 120.633)" fill="none" stroke="#fff" stroke-width="0.144"/>
      <line id="Ligne_256" data-name="Ligne 256" x2="6.458" y2="0.695" transform="translate(484.86 129.662)" fill="none" stroke="#fff" stroke-width="0.144"/>
      <path id="Tracé_1640" data-name="Tracé 1640" d="M989.3,366.672l.357,33.366-.977-.078-.147-33.6Z" transform="translate(-526.588 -195.158)" fill="#767676"/>
      <path id="Tracé_1641" data-name="Tracé 1641" d="M990.531,400.395l12.8,1.075-1.752-31.912-11.407-2.529Z" transform="translate(-527.462 -195.515)" fill="#fff"/>
      <path id="Tracé_1642" data-name="Tracé 1642" d="M988.533,366.358l11.606,2.167.568.675L989.3,366.672Z" transform="translate(-526.588 -195.158)" fill="#767676"/>
      <path id="Tracé_1643" data-name="Tracé 1643" d="M993.222,401.243l9.747.591-.827-29.235-9.362-1.777Z" transform="translate(-528.85 -197.535)" fill="#99bccb"/>
      <path id="Tracé_1644" data-name="Tracé 1644" d="M1010.794,403.493l1.351.082-.827-29.235-1.312-.249Z" transform="translate(-538.027 -199.277)" fill="#ccd3d5"/>
      <line id="Ligne_257" data-name="Ligne 257" x2="0.257" y2="29.785" transform="translate(468.767 174.204)" fill="none" stroke="#fff" stroke-width="0.212"/>
      <line id="Ligne_258" data-name="Ligne 258" x2="9.537" y2="1.026" transform="translate(464.137 187.538)" fill="none" stroke="#fff" stroke-width="0.212"/>
      <path id="Tracé_1645" data-name="Tracé 1645" d="M1028.236,375.315l.338,31.613-.925-.073-.14-31.836Z" transform="translate(-547.351 -199.77)" fill="#767676"/>
      <path id="Tracé_1646" data-name="Tracé 1646" d="M1029.4,407.266l11.74.879-1.271-30.1-10.808-2.4Z" transform="translate(-548.179 -200.109)" fill="#fff"/>
      <path id="Tracé_1647" data-name="Tracé 1647" d="M1027.51,375.017l11,2.053.538.639-10.808-2.4Z" transform="translate(-547.351 -199.77)" fill="#767676"/>
      <path id="Tracé_1648" data-name="Tracé 1648" d="M1031.953,408.069l9.234.56-.784-27.7-8.87-1.683Z" transform="translate(-549.494 -202.023)" fill="#99bccb"/>
      <path id="Tracé_1649" data-name="Tracé 1649" d="M1048.6,410.2l1.28.078-.784-27.7-1.244-.236Z" transform="translate(-558.188 -203.673)" fill="#ccd3d5"/>
      <line id="Ligne_259" data-name="Ligne 259" x2="0.244" y2="28.22" transform="translate(486.622 178.093)" fill="none" stroke="#fff" stroke-width="0.201"/>
      <line id="Ligne_260" data-name="Ligne 260" x2="9.036" y2="0.972" transform="translate(482.236 190.726)" fill="none" stroke="#fff" stroke-width="0.201"/>
      <path id="Tracé_1650" data-name="Tracé 1650" d="M1062.49,382.552l.328,30.626-.9-.071-.135-30.843Z" transform="translate(-565.609 -203.631)" fill="#767676"/>
      <path id="Tracé_1651" data-name="Tracé 1651" d="M1063.62,413.505l11.374.852-1.231-29.156-10.47-2.321Z" transform="translate(-566.411 -203.959)" fill="#fff"/>
      <path id="Tracé_1652" data-name="Tracé 1652" d="M1061.786,382.264l10.653,1.989.522.62-10.47-2.321Z" transform="translate(-565.609 -203.631)" fill="#767676"/>
      <path id="Tracé_1653" data-name="Tracé 1653" d="M1066.09,414.283l8.946.542-.759-26.834-8.593-1.631Z" transform="translate(-567.686 -205.813)" fill="#99bccb"/>
      <path id="Tracé_1654" data-name="Tracé 1654" d="M1082.218,416.349l1.241.075-.759-26.834-1.2-.229Z" transform="translate(-576.108 -207.411)" fill="#ccd3d5"/>
      <line id="Ligne_261" data-name="Ligne 261" x2="0.236" y2="27.339" transform="translate(502.438 181.39)" fill="none" stroke="#fff" stroke-width="0.195"/>
      <line id="Ligne_262" data-name="Ligne 262" x2="8.754" y2="0.942" transform="translate(498.188 193.629)" fill="none" stroke="#fff" stroke-width="0.195"/>
      <path id="Tracé_1655" data-name="Tracé 1655" d="M1006.115,315.97l33.724,5.507-1.127-4.877-31.077-5.872Z" transform="translate(-535.954 -165.524)" fill="#78453a"/>
      <path id="Tracé_1656" data-name="Tracé 1656" d="M1030.865,232.771l10.5,2.131-1.245-4.978-7.749-2.242Z" transform="translate(-549.138 -121.285)" fill="#78453a"/>
      <line id="Ligne_263" data-name="Ligne 263" x1="3.251" transform="translate(349.601 110.773)" fill="#5a3932"/>
      <path id="Tracé_1657" data-name="Tracé 1657" d="M1034.673,506.327H985.647L983.888,461l50.785,7.576Z" transform="translate(-524.114 -245.572)" fill="#767676"/>
      <path id="Tracé_1658" data-name="Tracé 1658" d="M778.561,505.381l10.186,1.1,18.817,13.967.6,9.526H784.381Z" transform="translate(-414.736 -269.215)" fill="#767676"/>
      <path id="Tracé_1659" data-name="Tracé 1659" d="M749.46,409.42v43.765l-36.793-1.174V414.792a9.022,9.022,0,0,1,3.353-3.394c2.53-1.7,6.861-3.623,14.135-4.664,15.038-2.147,19.3,2.686,19.3,2.686" transform="translate(-379.635 -216.373)" fill="#bcbcbc"/>
      <path id="Tracé_1660" data-name="Tracé 1660" d="M749.46,409.42v2.754c-18.966-5.25-31.351,1.905-36.793,6.317v-3.7s2.448-5.908,17.489-8.058,19.3,2.686,19.3,2.686" transform="translate(-379.635 -216.373)" fill="#767676"/>
      <path id="Tracé_1661" data-name="Tracé 1661" d="M716.02,417.341v40.67l-3.353-.057V420.735a9.022,9.022,0,0,1,3.353-3.394" transform="translate(-379.635 -222.316)" fill="#767676"/>
      <path id="Tracé_1662" data-name="Tracé 1662" d="M662.316,470.051l20.43-9.477,34.3-.372,26,10.48" transform="translate(-352.813 -245.148)" fill="none" stroke="#3d3d3d" stroke-width="1.623"/>
      <line id="Ligne_264" data-name="Ligne 264" y2="24.876" transform="translate(310.5 224.992)" fill="none" stroke="#3d3d3d" stroke-width="1.671"/>
      <line id="Ligne_265" data-name="Ligne 265" y2="24.209" transform="translate(314.214 223.162)" fill="none" stroke="#3d3d3d" stroke-width="1.671"/>
      <line id="Ligne_266" data-name="Ligne 266" y2="24.261" transform="translate(317.951 221.322)" fill="none" stroke="#3d3d3d" stroke-width="1.671"/>
      <line id="Ligne_267" data-name="Ligne 267" y2="23.525" transform="translate(322.455 219.106)" fill="none" stroke="#3d3d3d" stroke-width="1.671"/>
      <line id="Ligne_268" data-name="Ligne 268" y2="22.887" transform="translate(326.368 217.18)" fill="none" stroke="#3d3d3d" stroke-width="1.671"/>
      <line id="Ligne_269" data-name="Ligne 269" y2="22.004" transform="translate(329.932 215.426)" fill="none" stroke="#3d3d3d" stroke-width="1.671"/>
      <line id="Ligne_270" data-name="Ligne 270" y2="20.228" transform="translate(333.832 215.42)" fill="none" stroke="#3d3d3d" stroke-width="1.623"/>
      <line id="Ligne_271" data-name="Ligne 271" y2="20.404" transform="translate(337.482 215.426)" fill="none" stroke="#3d3d3d" stroke-width="1.623"/>
      <line id="Ligne_272" data-name="Ligne 272" y2="20.6" transform="translate(342.981 215.407)" fill="none" stroke="#3d3d3d" stroke-width="1.623"/>
      <line id="Ligne_273" data-name="Ligne 273" y2="20.741" transform="translate(348.831 215.426)" fill="none" stroke="#3d3d3d" stroke-width="1.623"/>
      <line id="Ligne_274" data-name="Ligne 274" y2="21.001" transform="translate(353.93 215.36)" fill="none" stroke="#3d3d3d" stroke-width="1.623"/>
      <line id="Ligne_275" data-name="Ligne 275" y2="21.101" transform="translate(359.28 215.426)" fill="none" stroke="#3d3d3d" stroke-width="1.623"/>
      <line id="Ligne_276" data-name="Ligne 276" y2="21.219" transform="translate(364.23 215.426)" fill="none" stroke="#3d3d3d" stroke-width="1.623"/>
      <line id="Ligne_277" data-name="Ligne 277" y2="23.211" transform="translate(368.802 216.897)" fill="none" stroke="#3d3d3d" stroke-width="1.648"/>
      <line id="Ligne_278" data-name="Ligne 278" y2="24.494" transform="translate(373.756 218.956)" fill="none" stroke="#3d3d3d" stroke-width="1.648"/>
      <line id="Ligne_279" data-name="Ligne 279" y2="25.666" transform="translate(378.626 220.98)" fill="none" stroke="#3d3d3d" stroke-width="1.648"/>
      <line id="Ligne_280" data-name="Ligne 280" y2="26.818" transform="translate(383.492 223.002)" fill="none" stroke="#3d3d3d" stroke-width="1.648"/>
      <line id="Ligne_281" data-name="Ligne 281" y2="27.383" transform="translate(388.262 224.985)" fill="none" stroke="#3d3d3d" stroke-width="1.648"/>
      <path id="Tracé_1663" data-name="Tracé 1663" d="M662.316,529.672l79.925-.343v-9.255l-25.6-15.335-32.792-.563-21.53,13.387Z" transform="translate(-352.813 -268.573)" fill="#fff"/>
      <path id="Tracé_1664" data-name="Tracé 1664" d="M997.255,340.059l5.13-.057,44.466,12.784-4.947.149Z" transform="translate(-531.234 -181.118)" fill="#492923"/>
      <path id="Tracé_1665" data-name="Tracé 1665" d="M903.42,482.193c-4.363-2.523-3.791-4.818-6.849-5.627-5.088-1.346-7.444,4.806-14.536,4.924-5.471.091-6.293-3.533-11.488-2.814a14.907,14.907,0,0,0-10.081,6.8c-2.541,4.113-1,6.7-3.517,8.675-2.848,2.235-5.55-.489-9.847,1.407-4.053,1.789-6.465,6.338-7.033,10.316a14.572,14.572,0,0,0,1.876,9.3h78.541c1.9-6.839.737-10.62-.7-12.817-1.538-2.345-2.971-2.237-4.22-4.689-2.485-4.878,1.5-8.6-.7-11.723-1.993-2.814-5.712-.44-11.438-3.751" transform="translate(-447.427 -253.762)" fill="#359d8d"/>
      <path id="Tracé_1666" data-name="Tracé 1666" d="M957.657,499.872c-.259,1.735-.869,2.321-1.336,2.551-1.586.781-3.629-1.5-5.1-.607-.764.464-.516,1.259-1.336,1.944-1.067.89-2.763.609-4.009.243" transform="translate(-503.864 -266.28)" fill="none" stroke="#fff" stroke-width="0.811"/>
      <path id="Tracé_1667" data-name="Tracé 1667" d="M977.161,537.3c-1.343,3.237-2.826,4.128-3.887,4.373-2.35.543-4.039-1.75-6.2-.851-1.685.7-1.655,2.52-3.037,2.794-1.418.281-2.96-1.333-4.13-2.915" transform="translate(-511.341 -286.22)" fill="none" stroke="#fff" stroke-width="0.811"/>
      <path id="Tracé_1668" data-name="Tracé 1668" d="M896.267,393.818c1,10.527,1.677,21.879,1.826,33.962a410.858,410.858,0,0,1-1.826,44.064" transform="translate(-477.438 -209.785)" fill="none" stroke="#66948d" stroke-linecap="round" stroke-linejoin="round" stroke-width="5.956"/>
      <path id="Tracé_1669" data-name="Tracé 1669" d="M879.738,409.928a25.62,25.62,0,0,0-10.449-6.818,24.759,24.759,0,0,0-5.843-1.217" transform="translate(-459.955 -214.087)" fill="none" stroke="#66948d" stroke-linecap="round" stroke-linejoin="round" stroke-width="2.978"/>
      <path id="Tracé_1670" data-name="Tracé 1670" d="M902.779,440.645a27.8,27.8,0,0,1,3.713-2.739,28.364,28.364,0,0,1,9.677-3.713" transform="translate(-480.907 -231.293)" fill="none" stroke="#66948d" stroke-linecap="round" stroke-linejoin="round" stroke-width="2.978"/>
      <path id="Tracé_1671" data-name="Tracé 1671" d="M828.849,383.961c.28-4.6,4.541-4.7,5.832-10.288.879-3.805-.087-8.118-.847-11.507-.811-3.616,1.573-6.753,5.575-6.289,4.812.559,7.873.844,9.982-.73,1.945-1.453.73-3.319,2.921-6.086a10.912,10.912,0,0,1,8.764-3.9c.322.011,5.913.28,7.791,3.9,1.238,2.385.07,4.7.973,5.112,1.28.579,3.08-4.314,7.547-5.6a9.059,9.059,0,0,1,8.034,1.7c1.936,1.581,3.892,4.61,3.165,7.3-.785,2.91-3.968,2.709-4.625,5.356-.646,2.6,2.186,3.751,4.138,9.008.841,2.264,2.39,6.435.73,9.982-1.394,2.979-3.623,2.46-5.112,5.6-1.381,2.912.011,4.466-.487,8.521-.169,1.379-.934,7.606-4.869,9.982-3.682,2.223-7.894-.284-16.555,0a22.206,22.206,0,0,0-4.138.487c-3.04.661-3.562,1.472-5.113,1.7-3.889.582-9.136-3.242-9.981-7.547-.616-3.136,1.423-4.9.243-6.33-1.621-1.971-5.307.667-9.008-1.46a10.289,10.289,0,0,1-4.961-8.922" transform="translate(-441.518 -183.865)" fill="#004d40"/>
      <path id="Tracé_1672" data-name="Tracé 1672" d="M909.023,446.639c2.3,1.823,3.406,1.83,3.993,1.529,1.4-.717.719-3.636,2.2-4.392.961-.492,2.3.206,3.195.8" transform="translate(-484.233 -236.309)" fill="none" stroke="#66948d" stroke-linecap="round" stroke-linejoin="round" stroke-width="1.191"/>
      <path id="Tracé_1673" data-name="Tracé 1673" d="M856.6,416.62c-.9,1.531-.851,2.237-.6,2.6.371.526,1.159.279,2,.8a3.529,3.529,0,0,1,1.4,2.4" transform="translate(-455.903 -221.932)" fill="none" stroke="#66948d" stroke-linecap="round" stroke-linejoin="round" stroke-width="1.191"/>
      <path id="Tracé_1674" data-name="Tracé 1674" d="M914.38,390.784c3.046,1.309,4.671.956,5.59.4,2.03-1.23,1.72-4.123,3.993-4.992,1.393-.532,2.257.27,3.194-.4,1.174-.837,1.089-3,.8-4.792" transform="translate(-487.087 -202.958)" fill="none" stroke="#66948d" stroke-linecap="round" stroke-linejoin="round" stroke-width="1.191"/>
      <path id="Tracé_1675" data-name="Tracé 1675" d="M870.143,376.032c.478,2.053,1.33,2.845,2,3.194,2.111,1.108,4.479-1.118,6.988,0a4.823,4.823,0,0,1,2.2,2.2" transform="translate(-463.522 -200.311)" fill="none" stroke="#66948d" stroke-linecap="round" stroke-linejoin="round" stroke-width="1.191"/>
      <path id="Tracé_1676" data-name="Tracé 1676" d="M885.952,467.036c1.349,1.612,2.327,1.885,2.995,1.8.949-.125,1.295-.985,2.6-1.4a4.621,4.621,0,0,1,2.6,0" transform="translate(-471.943 -248.788)" fill="none" stroke="#66948d" stroke-linecap="round" stroke-linejoin="round" stroke-width="1.191"/>
      <path id="Tracé_1677" data-name="Tracé 1677" d="M854.6,504.044c-3.128-1.808-2.718-3.454-4.91-4.034-3.648-.965-5.337,3.446-10.422,3.53-3.922.065-4.512-2.533-8.237-2.017A10.687,10.687,0,0,0,823.8,506.4c-1.822,2.949-.714,4.8-2.522,6.219-2.042,1.6-3.979-.351-7.06,1.009-2.907,1.282-4.636,4.544-5.043,7.4a10.453,10.453,0,0,0,1.345,6.668h56.312c1.361-4.9.529-7.614-.5-9.19-1.1-1.681-2.13-1.6-3.025-3.362-1.782-3.5,1.079-6.169-.5-8.4-1.429-2.017-4.095-.315-8.2-2.689" transform="translate(-430.991 -266.28)" fill="#004d40"/>
      <path id="Tracé_1678" data-name="Tracé 1678" d="M893.482,516.719c-.186,1.244-.623,1.664-.958,1.829-1.137.56-2.6-1.076-3.658-.436-.548.332-.37.9-.958,1.393a3.218,3.218,0,0,1-2.874.174" transform="translate(-471.454 -275.254)" fill="none" stroke="#fff" stroke-width="0.581"/>
      <path id="Tracé_1679" data-name="Tracé 1679" d="M907.466,543.558c-.963,2.322-2.026,2.959-2.787,3.136-1.685.389-2.9-1.255-4.442-.61-1.208.5-1.187,1.807-2.178,2-1.016.2-2.122-.956-2.961-2.09" transform="translate(-476.815 -289.551)" fill="none" stroke="#fff" stroke-width="0.581"/>
      <path id="Tracé_1680" data-name="Tracé 1680" d="M166.089,140.587H110.782l21.676-78.7h33.631Z" transform="translate(-59.013 -32.965)" fill="#5a3932"/>
      <path id="Tracé_1681" data-name="Tracé 1681" d="M687.907,130.238l61.827,17.775-75.2-99.492L629.6,21.139Z" transform="translate(-335.384 -11.261)" fill="#5a3932"/>
      <path id="Tracé_1682" data-name="Tracé 1682" d="M719.3,390.919h68.169V265.028L713.636,244.6Z" transform="translate(-380.151 -130.297)" fill="#bcbcbc"/>
      <path id="Tracé_1683" data-name="Tracé 1683" d="M398.388,130.238,86.1,133.687,148.292,29.613l191.786-8.474Z" transform="translate(-45.865 -11.261)" fill="#78453a"/>
      <path id="Tracé_1684" data-name="Tracé 1684" d="M389.1,485.866H93.767l5.349-57.742,287.538-5.286Z" transform="translate(-49.95 -225.244)" fill="#d7d7d7"/>
      <path id="Tracé_1685" data-name="Tracé 1685" d="M393.18,333.458,106.02,338.733l5.514-79.977,278.572-3.707Z" transform="translate(-56.476 -135.864)" fill="#fff"/>
      <path id="Tracé_1686" data-name="Tracé 1686" d="M382.958,240.99l-153.73.083-10.04-3.25H372.194Z" transform="translate(-116.761 -126.687)" fill="#492923"/>
      <path id="Tracé_1687" data-name="Tracé 1687" d="M372.2,111.136h-153L264.36,36.159l5.792-9.611L286.141,0l20.415,26.365,7.586,9.794Z" transform="translate(-116.762 0)" fill="#fff"/>
      <path id="Tracé_1688" data-name="Tracé 1688" d="M281.413,145.791h5.671l27.175-71.267h-9.1Z" transform="translate(-149.907 -39.699)" fill="#5a3932"/>
      <path id="Tracé_1689" data-name="Tracé 1689" d="M384.791,74.524l30.854,71.267h5.671L391.048,74.524" transform="translate(-204.977 -39.699)" fill="#5a3932"/>
      <path id="Tracé_1690" data-name="Tracé 1690" d="M459.277,114.3l-10.764-3.166L362.457,0l43.284,16.127Z" transform="translate(-193.08 -0.001)" fill="#5a3932"/>
      <path id="Tracé_1691" data-name="Tracé 1691" d="M401.362,106.927V150.5H402.4l-.085-43.746Z" transform="translate(-213.804 -56.869)" fill="#767676"/>
      <path id="Tracé_1692" data-name="Tracé 1692" d="M362.752,150.229H328.881V108.01l33.871-1.766Z" transform="translate(-175.194 -56.596)" fill="#bcbcbc"/>
      <path id="Tracé_1693" data-name="Tracé 1693" d="M363.718,104.947,329.9,106.277l-1.021,1.043,34.836-1.33Z" transform="translate(-175.194 -55.905)" fill="#767676"/>
      <path id="Tracé_1694" data-name="Tracé 1694" d="M362.836,150.735H335.127V114.51l27.709-1.129Z" transform="translate(-178.521 -60.398)" fill="#99bccb"/>
      <path id="Tracé_1695" data-name="Tracé 1695" d="M339.267,151.931h-4.586v-36.11l4.586-.194Z" transform="translate(-178.283 -61.594)" fill="#ccd3d5"/>
      <line id="Ligne_282" data-name="Ligne 282" y2="36.785" transform="translate(171.094 53.552)" fill="none" stroke="#fff" stroke-width="0.446"/>
      <line id="Ligne_283" data-name="Ligne 283" x1="27.709" transform="translate(156.606 72.475)" fill="none" stroke="#fff" stroke-width="0.446"/>
      <rect id="Rectangle_482" data-name="Rectangle 482" width="1.001" height="43.268" transform="translate(148.815 140.345)" fill="#767676"/>
      <path id="Tracé_1696" data-name="Tracé 1696" d="M239.352,344.739H169.96V304.17l69.392-1.7Z" transform="translate(-90.537 -161.126)" fill="#bcbcbc"/>
      <path id="Tracé_1697" data-name="Tracé 1697" d="M239.352,300.33l-68.411,1.7-.981,1,69.392-1.7Z" transform="translate(-90.537 -159.985)" fill="#767676"/>
      <path id="Tracé_1698" data-name="Tracé 1698" d="M239.676,345.226H175.96V310.416l63.716-1.085Z" transform="translate(-93.733 -164.78)" fill="#99bccb"/>
      <path id="Tracé_1699" data-name="Tracé 1699" d="M179.939,346.375h-4.407v-34.7l4.407-.186Z" transform="translate(-93.505 -165.929)" fill="#ccd3d5"/>
      <path id="Tracé_1700" data-name="Tracé 1700" d="M244.983,345.791h-4.407V310.45l4.407-.057Z" transform="translate(-128.154 -165.345)" fill="#ccd3d5"/>
      <line id="Ligne_284" data-name="Ligne 284" y2="35.348" transform="translate(92.067 145.216)" fill="none" stroke="#fff" stroke-width="0.429"/>
      <line id="Ligne_285" data-name="Ligne 285" y2="35.348" transform="translate(102.427 145.329)" fill="none" stroke="#fff" stroke-width="0.429"/>
      <line id="Ligne_286" data-name="Ligne 286" y2="35.348" transform="translate(135.486 144.703)" fill="none" stroke="#fff" stroke-width="0.429"/>
      <line id="Ligne_287" data-name="Ligne 287" y2="35.348" transform="translate(124.315 144.919)" fill="none" stroke="#fff" stroke-width="0.429"/>
      <line id="Ligne_288" data-name="Ligne 288" x1="63.716" y2="0.782" transform="translate(82.227 162.499)" fill="none" stroke="#fff" stroke-width="0.429"/>
      <rect id="Rectangle_483" data-name="Rectangle 483" width="2.933" height="38.223" transform="translate(109.489 144.173)" fill="#bcbcbc"/>
      <rect id="Rectangle_484" data-name="Rectangle 484" width="1.001" height="43.268" transform="translate(302.995 139.039)" fill="#767676"/>
      <path id="Tracé_1701" data-name="Tracé 1701" d="M569.287,341.945H499.895V301.376l69.392-1.7Z" transform="translate(-266.292 -159.638)" fill="#bcbcbc"/>
      <path id="Tracé_1702" data-name="Tracé 1702" d="M569.287,297.535l-68.411,1.7-.981,1,69.392-1.7Z" transform="translate(-266.292 -158.496)" fill="#767676"/>
      <path id="Tracé_1703" data-name="Tracé 1703" d="M569.612,342.431H505.9V307.622l63.716-1.085Z" transform="translate(-269.489 -163.291)" fill="#99bccb"/>
      <path id="Tracé_1704" data-name="Tracé 1704" d="M509.874,343.581h-4.407v-34.7l4.407-.186Z" transform="translate(-269.26 -164.441)" fill="#ccd3d5"/>
      <path id="Tracé_1705" data-name="Tracé 1705" d="M574.918,343h-4.407V307.656l4.407-.057Z" transform="translate(-303.909 -163.856)" fill="#ccd3d5"/>
      <line id="Ligne_289" data-name="Ligne 289" y2="35.348" transform="translate(246.247 143.91)" fill="none" stroke="#fff" stroke-width="0.429"/>
      <line id="Ligne_290" data-name="Ligne 290" y2="35.348" transform="translate(256.607 144.023)" fill="none" stroke="#fff" stroke-width="0.429"/>
      <line id="Ligne_291" data-name="Ligne 291" y2="35.348" transform="translate(289.666 143.397)" fill="none" stroke="#fff" stroke-width="0.429"/>
      <line id="Ligne_292" data-name="Ligne 292" y2="35.348" transform="translate(278.495 143.614)" fill="none" stroke="#fff" stroke-width="0.429"/>
      <line id="Ligne_293" data-name="Ligne 293" x1="63.716" y2="0.782" transform="translate(236.407 161.193)" fill="none" stroke="#fff" stroke-width="0.429"/>
      <rect id="Rectangle_485" data-name="Rectangle 485" width="2.933" height="38.223" transform="translate(263.669 142.868)" fill="#bcbcbc"/>
      <path id="Tracé_1706" data-name="Tracé 1706" d="M388.42,481.686,95.351,486.917l1.544-1.16,291.485-5.23Z" transform="translate(-50.793 -255.975)" fill="#bcbcbc"/>
      <path id="Tracé_1707" data-name="Tracé 1707" d="M388.509,485.312,95.351,490.545v-2.307l293.069-5.231Z" transform="translate(-50.793 -257.296)" fill="#767676"/>
      <path id="Tracé_1708" data-name="Tracé 1708" d="M372.193,226.324H219.188l5.654-9.386,139.719-.7Z" transform="translate(-116.761 -115.188)" fill="#78453a"/>
      <path id="Tracé_1709" data-name="Tracé 1709" d="M365.629,66.213H315.848L321.64,56.6l36.4-.183Z" transform="translate(-168.251 -30.054)" fill="#78453a"/>
      <path id="Tracé_1710" data-name="Tracé 1710" d="M745.048,231.785,792.14,239.5l2.781-2.348L748.03,229.5Z" transform="translate(-396.885 -122.252)" fill="#492923"/>
      <path id="Tracé_1711" data-name="Tracé 1711" d="M751.429,137.963l46.891,7.657L781.3,83.791l-1.6-6.944-4.429-19.181-5.655,19.049-2.1,7.076Z" transform="translate(-400.284 -30.718)" fill="#fff"/>
      <path id="Tracé_1712" data-name="Tracé 1712" d="M819.667,168.934H818.1L805.422,111.51h2.52Z" transform="translate(-429.045 -59.401)" fill="#5a3932"/>
      <path id="Tracé_1713" data-name="Tracé 1713" d="M784.722,111.511,776.175,163H774.6l8.385-51.491" transform="translate(-412.629 -59.401)" fill="#5a3932"/>
      <path id="Tracé_1714" data-name="Tracé 1714" d="M718.113,140.252l2.982-2.288,23.839-80.3L694.484,69.092Z" transform="translate(-369.949 -30.719)" fill="#492923"/>
      <path id="Tracé_1715" data-name="Tracé 1715" d="M791.472,135.034l.336,31.413-.92-.073-.139-31.636Z" transform="translate(-421.23 -71.775)" fill="#767676"/>
      <path id="Tracé_1716" data-name="Tracé 1716" d="M792.631,166.783l12.535,1.445-2.132-30.477-10.74-2.381Z" transform="translate(-422.053 -72.111)" fill="#bcbcbc"/>
      <path id="Tracé_1717" data-name="Tracé 1717" d="M790.75,134.738l10.926,2.04.535.636-10.74-2.38Z" transform="translate(-421.23 -71.775)" fill="#767676"/>
      <path id="Tracé_1718" data-name="Tracé 1718" d="M795.165,167.581l9.176.556-.779-27.524-8.815-1.673Z" transform="translate(-423.359 -74.013)" fill="#99bccb"/>
      <path id="Tracé_1719" data-name="Tracé 1719" d="M811.709,169.7l1.272.077-.779-27.524-1.235-.235Z" transform="translate(-431.999 -75.653)" fill="#ccd3d5"/>
      <line id="Ligne_294" data-name="Ligne 294" x2="0.243" y2="28.041" transform="translate(375.943 65.792)" fill="none" stroke="#fff" stroke-width="0.2"/>
      <line id="Ligne_295" data-name="Ligne 295" x2="8.979" y2="0.966" transform="translate(371.584 78.345)" fill="none" stroke="#fff" stroke-width="0.2"/>
      <path id="Tracé_1720" data-name="Tracé 1720" d="M728.049,291.686l.5,46.392-1.358-.107-.205-46.721Z" transform="translate(-387.261 -155.148)" fill="#767676"/>
      <path id="Tracé_1721" data-name="Tracé 1721" d="M729.762,338.576l17.8,1.494L745.125,295.7l-15.861-3.516Z" transform="translate(-388.477 -155.645)" fill="#fff"/>
      <path id="Tracé_1722" data-name="Tracé 1722" d="M726.984,291.25l16.137,3.014.79.938-15.861-3.516Z" transform="translate(-387.261 -155.148)" fill="#767676"/>
      <path id="Tracé_1723" data-name="Tracé 1723" d="M733.5,339.755l13.552.822-1.15-40.649-13.018-2.47Z" transform="translate(-390.407 -158.454)" fill="#99bccb"/>
      <path id="Tracé_1724" data-name="Tracé 1724" d="M757.936,342.883l1.879.114-1.151-40.649L756.84,302Z" transform="translate(-403.166 -160.875)" fill="#ccd3d5"/>
      <line id="Ligne_296" data-name="Ligne 296" x2="0.358" y2="41.414" transform="translate(349.207 140.279)" fill="none" stroke="#fff" stroke-width="0.295"/>
      <line id="Ligne_297" data-name="Ligne 297" x2="13.26" y2="1.427" transform="translate(342.77 158.819)" fill="none" stroke="#fff" stroke-width="0.295"/>
      <path id="Tracé_1725" data-name="Tracé 1725" d="M782.188,303.7l.471,43.955-1.286-.1-.194-44.266Z" transform="translate(-416.131 -161.561)" fill="#767676"/>
      <path id="Tracé_1726" data-name="Tracé 1726" d="M783.81,348.129l16.324,1.222L798.367,307.5l-15.028-3.331Z" transform="translate(-417.282 -162.032)" fill="#fff"/>
      <path id="Tracé_1727" data-name="Tracé 1727" d="M781.178,303.29l15.289,2.855.748.889L782.188,303.7Z" transform="translate(-416.131 -161.561)" fill="#767676"/>
      <path id="Tracé_1728" data-name="Tracé 1728" d="M787.356,349.246l12.84.778-1.09-38.513-12.333-2.34Z" transform="translate(-419.111 -164.694)" fill="#99bccb"/>
      <path id="Tracé_1729" data-name="Tracé 1729" d="M810.5,352.21l1.78.108-1.09-38.513-1.729-.328Z" transform="translate(-431.2 -166.988)" fill="#ccd3d5"/>
      <line id="Ligne_298" data-name="Ligne 298" x2="0.339" y2="39.238" transform="translate(374.034 145.686)" fill="none" stroke="#fff" stroke-width="0.279"/>
      <line id="Ligne_299" data-name="Ligne 299" x2="12.563" y2="1.352" transform="translate(367.935 163.251)" fill="none" stroke="#fff" stroke-width="0.279"/>
      <path id="Tracé_1730" data-name="Tracé 1730" d="M829.815,313.765l.456,42.583-1.246-.1-.188-42.884Z" transform="translate(-441.518 -166.928)" fill="#767676"/>
      <path id="Tracé_1731" data-name="Tracé 1731" d="M831.386,356.8l15.814,1.184-1.712-40.54-14.558-3.227Z" transform="translate(-442.634 -167.385)" fill="#fff"/>
      <path id="Tracé_1732" data-name="Tracé 1732" d="M828.836,313.365l14.812,2.766.725.861-14.558-3.227Z" transform="translate(-441.518 -166.928)" fill="#767676"/>
      <path id="Tracé_1733" data-name="Tracé 1733" d="M834.821,357.886l12.439.754-1.056-37.31-11.948-2.268Z" transform="translate(-444.405 -169.963)" fill="#99bccb"/>
      <path id="Tracé_1734" data-name="Tracé 1734" d="M857.246,360.758l1.725.1-1.056-37.311-1.675-.318Z" transform="translate(-456.116 -172.186)" fill="#ccd3d5"/>
      <line id="Ligne_300" data-name="Ligne 300" x2="0.328" y2="38.013" transform="translate(396.024 150.27)" fill="none" stroke="#fff" stroke-width="0.271"/>
      <line id="Ligne_301" data-name="Ligne 301" x2="12.171" y2="1.31" transform="translate(390.116 167.288)" fill="none" stroke="#fff" stroke-width="0.271"/>
      <path id="Tracé_1735" data-name="Tracé 1735" d="M751.429,221.189l46.891,7.657-1.566-6.782L753.543,213.9Z" transform="translate(-400.284 -113.944)" fill="#78453a"/>
      <path id="Tracé_1736" data-name="Tracé 1736" d="M785.844,105.506l14.606,2.964-1.73-6.922L787.945,98.43Z" transform="translate(-418.616 -52.433)" fill="#78453a"/>
      <line id="Ligne_302" data-name="Ligne 302" x1="4.521" transform="translate(183.516 52.082)" fill="#5a3932"/>
      <path id="Tracé_1737" data-name="Tracé 1737" d="M791.138,486.732H722.971l-2.445-63.894,70.613,10.68Z" transform="translate(-383.821 -225.244)" fill="#767676"/>
      <path id="Tracé_1738" data-name="Tracé 1738" d="M435.033,484.551l14.163,1.525,26.163,19.42.834,13.244H443.126Z" transform="translate(-231.74 -258.118)" fill="#767676"/>
      <path id="Tracé_1739" data-name="Tracé 1739" d="M394.57,351.124v60.852l-51.158-1.633v-51.75s.906-2.189,4.663-4.719c3.517-2.369,9.54-5.037,19.654-6.484,20.91-2.986,26.841,3.735,26.841,3.735" transform="translate(-182.934 -184.646)" fill="#bcbcbc"/>
      <path id="Tracé_1740" data-name="Tracé 1740" d="M394.57,351.124v3.829c-26.372-7.3-43.591,2.649-51.158,8.784v-5.144s3.4-8.215,24.317-11.2,26.841,3.735,26.841,3.735" transform="translate(-182.934 -184.646)" fill="#767676"/>
      <path id="Tracé_1741" data-name="Tracé 1741" d="M348.075,362.138v56.549l-4.663-.08v-51.75s.906-2.19,4.663-4.719" transform="translate(-182.934 -192.91)" fill="#767676"/>
      <path id="Tracé_1742" data-name="Tracé 1742" d="M273.4,435.426l28.406-13.177,47.688-.517L385.645,436.3" transform="translate(-145.641 -224.655)" fill="none" stroke="#3d3d3d" stroke-width="2.256"/>
      <line id="Ligne_303" data-name="Ligne 303" y2="34.588" transform="translate(129.15 210.894)" fill="none" stroke="#3d3d3d" stroke-width="2.324"/>
      <line id="Ligne_304" data-name="Ligne 304" y2="33.66" transform="translate(134.313 208.35)" fill="none" stroke="#3d3d3d" stroke-width="2.324"/>
      <line id="Ligne_305" data-name="Ligne 305" y2="33.732" transform="translate(139.509 205.793)" fill="none" stroke="#3d3d3d" stroke-width="2.324"/>
      <line id="Ligne_306" data-name="Ligne 306" y2="32.71" transform="translate(145.772 202.71)" fill="none" stroke="#3d3d3d" stroke-width="2.324"/>
      <line id="Ligne_307" data-name="Ligne 307" y2="31.822" transform="translate(151.212 200.033)" fill="none" stroke="#3d3d3d" stroke-width="2.324"/>
      <line id="Ligne_308" data-name="Ligne 308" y2="30.595" transform="translate(156.168 197.594)" fill="none" stroke="#3d3d3d" stroke-width="2.324"/>
      <line id="Ligne_309" data-name="Ligne 309" y2="28.125" transform="translate(161.59 197.586)" fill="none" stroke="#3d3d3d" stroke-width="2.256"/>
      <line id="Ligne_310" data-name="Ligne 310" y2="28.37" transform="translate(166.665 197.594)" fill="none" stroke="#3d3d3d" stroke-width="2.256"/>
      <line id="Ligne_311" data-name="Ligne 311" y2="28.643" transform="translate(174.312 197.567)" fill="none" stroke="#3d3d3d" stroke-width="2.256"/>
      <line id="Ligne_312" data-name="Ligne 312" y2="28.838" transform="translate(182.445 197.594)" fill="none" stroke="#3d3d3d" stroke-width="2.256"/>
      <line id="Ligne_313" data-name="Ligne 313" y2="29.199" transform="translate(189.536 197.503)" fill="none" stroke="#3d3d3d" stroke-width="2.256"/>
      <line id="Ligne_314" data-name="Ligne 314" y2="29.34" transform="translate(196.974 197.594)" fill="none" stroke="#3d3d3d" stroke-width="2.256"/>
      <line id="Ligne_315" data-name="Ligne 315" y2="29.503" transform="translate(203.856 197.594)" fill="none" stroke="#3d3d3d" stroke-width="2.256"/>
      <line id="Ligne_316" data-name="Ligne 316" y2="32.272" transform="translate(210.214 199.64)" fill="none" stroke="#3d3d3d" stroke-width="2.291"/>
      <line id="Ligne_317" data-name="Ligne 317" y2="34.057" transform="translate(217.102 202.503)" fill="none" stroke="#3d3d3d" stroke-width="2.291"/>
      <line id="Ligne_318" data-name="Ligne 318" y2="35.687" transform="translate(223.873 205.316)" fill="none" stroke="#3d3d3d" stroke-width="2.291"/>
      <line id="Ligne_319" data-name="Ligne 319" y2="37.288" transform="translate(230.639 208.129)" fill="none" stroke="#3d3d3d" stroke-width="2.291"/>
      <line id="Ligne_320" data-name="Ligne 320" y2="38.074" transform="translate(237.271 210.885)" fill="none" stroke="#3d3d3d" stroke-width="2.291"/>
      <path id="Tracé_1743" data-name="Tracé 1743" d="M273.4,518.325l111.129-.477V504.981l-35.6-21.322-45.595-.782L273.4,501.49Z" transform="translate(-145.641 -257.227)" fill="#fff"/>
      <path id="Tracé_1744" data-name="Tracé 1744" d="M739.112,254.682l7.133-.079,61.827,17.775-6.879.208Z" transform="translate(-393.722 -135.626)" fill="#492923"/>
      <path id="Tracé_1745" data-name="Tracé 1745" d="M630.078,482.193c-4.363-2.523-3.791-4.818-6.849-5.627-5.088-1.346-7.444,4.806-14.536,4.924-5.471.091-6.293-3.533-11.488-2.814a14.907,14.907,0,0,0-10.081,6.8c-2.541,4.113-1,6.7-3.517,8.675-2.848,2.235-5.55-.489-9.847,1.407-4.053,1.789-6.465,6.338-7.033,10.316a14.575,14.575,0,0,0,1.876,9.3h78.541c1.9-6.839.737-10.62-.7-12.817-1.538-2.345-2.971-2.237-4.22-4.689-2.485-4.878,1.5-8.6-.7-11.723-1.993-2.814-5.712-.44-11.438-3.751" transform="translate(-301.819 -253.762)" fill="#359d8d"/>
      <path id="Tracé_1746" data-name="Tracé 1746" d="M684.315,499.872c-.259,1.735-.869,2.321-1.336,2.551-1.586.781-3.629-1.5-5.1-.607-.764.464-.516,1.259-1.336,1.944-1.067.89-2.763.609-4.009.243" transform="translate(-358.255 -266.28)" fill="none" stroke="#fff" stroke-width="0.811"/>
      <path id="Tracé_1747" data-name="Tracé 1747" d="M703.819,537.3c-1.343,3.237-2.826,4.128-3.887,4.373-2.35.543-4.039-1.75-6.2-.851-1.685.7-1.655,2.52-3.037,2.794-1.418.281-2.96-1.333-4.13-2.915" transform="translate(-365.733 -286.22)" fill="none" stroke="#fff" stroke-width="0.811"/>
      <path id="Tracé_1748" data-name="Tracé 1748" d="M512.972,495.093c3.634-2.1,3.158-4.013,5.7-4.687,4.238-1.121,6.2,4,12.107,4.1,4.557.076,5.242-2.942,9.568-2.343a12.415,12.415,0,0,1,8.4,5.663c2.116,3.426.829,5.578,2.929,7.225,2.373,1.861,4.623-.408,8.2,1.172,3.376,1.49,5.385,5.278,5.859,8.592a12.142,12.142,0,0,1-1.562,7.746H498.758c-1.582-5.7-.615-8.846.586-10.675,1.281-1.954,2.475-1.864,3.515-3.906,2.07-4.063-1.253-7.167.586-9.764,1.66-2.344,4.758-.366,9.527-3.124" transform="translate(-265.246 -261.152)" fill="#67d0c0"/>
      <path id="Tracé_1749" data-name="Tracé 1749" d="M534.036,509.818c.216,1.445.724,1.933,1.113,2.125,1.321.651,3.022-1.25,4.249-.506.636.386.429,1.049,1.113,1.619.889.742,2.3.508,3.339.2" transform="translate(-284.479 -271.578)" fill="none" stroke="#fff" stroke-width="0.675"/>
      <path id="Tracé_1750" data-name="Tracé 1750" d="M512.6,541c1.118,2.7,2.354,3.438,3.237,3.643,1.958.452,3.364-1.458,5.16-.708,1.4.586,1.378,2.1,2.53,2.327,1.181.234,2.465-1.11,3.44-2.429" transform="translate(-273.061 -288.187)" fill="none" stroke="#fff" stroke-width="0.675"/>
      <path id="Tracé_1751" data-name="Tracé 1751" d="M80.543,468.007a23.237,23.237,0,0,1,8.992-6.423,22.711,22.711,0,0,1,6.055-1.468" transform="translate(-42.905 -245.102)" fill="none" stroke="#028571" stroke-linecap="round" stroke-linejoin="round" stroke-width="2.978"/>
      <path id="Tracé_1752" data-name="Tracé 1752" d="M78.772,334.336A26.278,26.278,0,0,1,88.865,327" transform="translate(-41.962 -174.19)" fill="none" stroke="#028571" stroke-linecap="round" stroke-linejoin="round" stroke-width="2.978"/>
      <path id="Tracé_1753" data-name="Tracé 1753" d="M66.081,413.24a28.062,28.062,0,0,0-11.928-7.707" transform="translate(-28.847 -216.026)" fill="none" stroke="#028571" stroke-linecap="round" stroke-linejoin="round" stroke-width="2.978"/>
      <path id="Tracé_1754" data-name="Tracé 1754" d="M76.482,426.225c1.23-24.676,1.689-50.684,1.1-77.9q-.4-18.445-1.376-36.059" transform="translate(-40.595 -166.345)" fill="none" stroke="#028571" stroke-linecap="round" stroke-linejoin="round" stroke-width="5.956"/>
      <path id="Tracé_1755" data-name="Tracé 1755" d="M17.17,312.192c1.669-3.326-5.441-7.807-4.037-12.478.52-1.729,1.636-1.586,5.872-5.138,5.973-5.009,5.233-6.532,8.441-8.074,3.258-1.566,4.188-.075,13.213-.367,7.868-.254,9.308-1.457,11.01,0,3.334,2.854-.362,9.035,3.67,13.213,2.193,2.272,4.172,1.167,5.505,3.3,2.2,3.532-2.6,7.312-1.1,12.478,1.27,4.374,5.244,3.492,6.973,8.074,2.008,5.318-2.6,8.49-.367,13.946,1.543,3.776,4.221,3.419,4.771,6.606.783,4.534-4.427,6.472-4.037,11.377.285,3.58,3.14,3.572,5.138,8.441,1.613,3.931,2.365,10.309-.734,14.314-2.662,3.439-5.418,1.578-11.618,5.788-5.1,3.466-4.757,5.76-8.934,7.424-3.194,1.272-4.28.282-11.01.367-10.438.132-11.509,2.561-16.269,1.068-3.728-1.169-3.205-2.7-10.441-8.333-8.664-6.744-11.758-6.373-12.926-9.984-1.465-4.526,3.043-6.2,5.138-15.047,2.451-10.348-2.59-12.811.734-21.287,2.366-6.032,5.692-6.752,5.872-12.111.156-4.658-2.238-7.628-.367-10.276,1.671-2.365,4.5-1.309,5.505-3.3" transform="translate(0 -152.046)" fill="#359d8d"/>
      <path id="Tracé_1756" data-name="Tracé 1756" d="M63.759,320.99c1.118,3.8,2.4,4.911,3.48,5.085,1.718.277,2.916-1.821,4.817-1.338,1.4.357,1.559,1.707,2.756,2.546,1.308.917,3.763,1.156,8.753-1.475" transform="translate(-33.964 -170.99)" fill="none" stroke="#028571" stroke-linecap="round" stroke-linejoin="round" stroke-width="1.191"/>
      <path id="Tracé_1757" data-name="Tracé 1757" d="M100.356,355.927c.479,3.355-.056,4.639-.8,5.085-1.5.9-4.147-1.438-5.085-.535-.76.731.687,2.539,0,3.747-.5.885-2.187,1.51-7.226.536" transform="translate(-46.473 -189.601)" fill="none" stroke="#028571" stroke-linecap="round" stroke-linejoin="round" stroke-width="1.191"/>
      <path id="Tracé_1758" data-name="Tracé 1758" d="M33.977,384.565a4.994,4.994,0,0,0,3.211,3.212,4.772,4.772,0,0,0,5.085-1.873" transform="translate(-18.099 -204.856)" fill="none" stroke="#028571" stroke-linecap="round" stroke-linejoin="round" stroke-width="1.191"/>
      <path id="Tracé_1759" data-name="Tracé 1759" d="M20.8,415.493c1.76,5.608,3.448,7.145,4.817,7.226,1.778.106,3.229-2.233,4.818-1.606,1.05.414.927,1.635,1.873,2.408s2.96,1.1,7.762-1.338" transform="translate(-11.082 -221.332)" fill="none" stroke="#028571" stroke-linecap="round" stroke-linejoin="round" stroke-width="1.191"/>
      <path id="Tracé_1760" data-name="Tracé 1760" d="M102.133,403.594c6.152,2.235,8.412,1.827,9.207.813,1.188-1.515-.607-4.75.7-5.631.909-.615,2.144.716,3.479.267,1.511-.507,2.166-2.963,2.409-5.888" transform="translate(-54.406 -209.433)" fill="none" stroke="#028571" stroke-linecap="round" stroke-linejoin="round" stroke-width="1.191"/>
      <path id="Tracé_1761" data-name="Tracé 1761" d="M80.5,438.975c.654,4.1-.05,5.426-.8,5.888-1.891,1.16-5.5-2.279-7.494-.8-.989.73-.67,1.988-1.606,2.409-1.193.537-3.036-.912-4.55-2.409" transform="translate(-35.185 -233.84)" fill="none" stroke="#028571" stroke-linecap="round" stroke-linejoin="round" stroke-width="1.191"/>
      <path id="Tracé_1762" data-name="Tracé 1762" d="M96.978,470.975c2.279,3.045,3.93,3.635,5.085,3.48,2.59-.35,3.487-4.562,5.888-4.55,1.228.006,2.241,1.114,2.944,2.141" transform="translate(-51.66 -250.316)" fill="none" stroke="#028571" stroke-linecap="round" stroke-linejoin="round" stroke-width="1.191"/>
      <path id="Tracé_1763" data-name="Tracé 1763" d="M36.327,481.862c-2.742,2.168-4.374,2.215-5.353,1.873-2.055-.716-2.3-3.519-4.282-3.747-1.514-.174-2.225,1.358-3.479,1.071s-1.98-2.169-2.409-4.282" transform="translate(-11.082 -253.977)" fill="none" stroke="#028571" stroke-linecap="round" stroke-linejoin="round" stroke-width="1.191"/>
      <path id="Tracé_1764" data-name="Tracé 1764" d="M114.321,393.818c1,10.527,1.677,21.879,1.826,33.962a410.864,410.864,0,0,1-1.826,44.064" transform="translate(-60.898 -209.785)" fill="none" stroke="#66948d" stroke-linecap="round" stroke-linejoin="round" stroke-width="5.956"/>
      <path id="Tracé_1765" data-name="Tracé 1765" d="M97.792,409.928a25.62,25.62,0,0,0-10.449-6.818,24.759,24.759,0,0,0-5.843-1.217" transform="translate(-43.415 -214.087)" fill="none" stroke="#66948d" stroke-linecap="round" stroke-linejoin="round" stroke-width="2.978"/>
      <path id="Tracé_1766" data-name="Tracé 1766" d="M120.833,440.645a27.8,27.8,0,0,1,3.713-2.739,28.364,28.364,0,0,1,9.677-3.713" transform="translate(-64.367 -231.293)" fill="none" stroke="#66948d" stroke-linecap="round" stroke-linejoin="round" stroke-width="2.978"/>
      <path id="Tracé_1767" data-name="Tracé 1767" d="M46.9,383.961c.28-4.6,4.541-4.7,5.832-10.288.879-3.805-.088-8.118-.847-11.507-.811-3.616,1.572-6.753,5.575-6.289,4.812.559,7.873.844,9.982-.73,1.945-1.453.73-3.319,2.922-6.086a10.911,10.911,0,0,1,8.764-3.9c.322.011,5.913.28,7.791,3.9,1.238,2.385.07,4.7.973,5.112,1.28.579,3.08-4.314,7.547-5.6a9.059,9.059,0,0,1,8.034,1.7c1.936,1.581,3.892,4.61,3.165,7.3-.785,2.91-3.968,2.709-4.625,5.356-.646,2.6,2.186,3.751,4.138,9.008.841,2.264,2.39,6.435.73,9.982-1.394,2.979-3.623,2.46-5.112,5.6-1.381,2.912.011,4.466-.487,8.521-.169,1.379-.934,7.606-4.869,9.982-3.682,2.223-7.894-.284-16.555,0a22.206,22.206,0,0,0-4.138.487c-3.04.661-3.561,1.472-5.113,1.7-3.889.582-9.136-3.242-9.981-7.547-.616-3.136,1.423-4.9.243-6.33-1.621-1.971-5.307.667-9.008-1.46a10.289,10.289,0,0,1-4.961-8.922" transform="translate(-24.978 -183.865)" fill="#004d40"/>
      <path id="Tracé_1768" data-name="Tracé 1768" d="M127.077,446.639c2.3,1.823,3.406,1.83,3.993,1.529,1.4-.717.719-3.636,2.2-4.392.961-.492,2.3.206,3.194.8" transform="translate(-67.693 -236.309)" fill="none" stroke="#66948d" stroke-linecap="round" stroke-linejoin="round" stroke-width="1.191"/>
      <path id="Tracé_1769" data-name="Tracé 1769" d="M74.653,416.62c-.9,1.531-.851,2.237-.6,2.6.371.526,1.159.279,2,.8a3.526,3.526,0,0,1,1.4,2.4" transform="translate(-39.363 -221.932)" fill="none" stroke="#66948d" stroke-linecap="round" stroke-linejoin="round" stroke-width="1.191"/>
      <path id="Tracé_1770" data-name="Tracé 1770" d="M132.434,390.784c3.046,1.309,4.671.956,5.59.4,2.03-1.23,1.72-4.123,3.993-4.992,1.393-.532,2.257.27,3.194-.4,1.174-.837,1.089-3,.8-4.792" transform="translate(-70.547 -202.958)" fill="none" stroke="#66948d" stroke-linecap="round" stroke-linejoin="round" stroke-width="1.191"/>
      <path id="Tracé_1771" data-name="Tracé 1771" d="M88.2,376.032c.479,2.053,1.33,2.845,2,3.194,2.111,1.108,4.479-1.118,6.988,0a4.823,4.823,0,0,1,2.2,2.2" transform="translate(-46.982 -200.311)" fill="none" stroke="#66948d" stroke-linecap="round" stroke-linejoin="round" stroke-width="1.191"/>
      <path id="Tracé_1772" data-name="Tracé 1772" d="M104.006,467.036c1.349,1.612,2.327,1.885,2.995,1.8.95-.125,1.294-.985,2.6-1.4a4.621,4.621,0,0,1,2.6,0" transform="translate(-55.404 -248.788)" fill="none" stroke="#66948d" stroke-linecap="round" stroke-linejoin="round" stroke-width="1.191"/>
      <path id="Tracé_1773" data-name="Tracé 1773" d="M190.813,482.359c-4.363-2.523-3.791-4.818-6.849-5.627-5.088-1.346-7.444,4.806-14.536,4.924-5.471.091-6.293-3.533-11.488-2.814a14.906,14.906,0,0,0-10.081,6.8c-2.541,4.113-1,6.7-3.517,8.675-2.848,2.235-5.55-.489-9.847,1.407-4.053,1.789-6.465,6.338-7.033,10.316a14.572,14.572,0,0,0,1.876,9.3h78.541c1.9-6.839.737-10.62-.7-12.817-1.538-2.345-2.971-2.237-4.22-4.689-2.485-4.878,1.5-8.6-.7-11.723-1.993-2.814-5.712-.44-11.438-3.751" transform="translate(-67.824 -253.851)" fill="#359d8d"/>
      <path id="Tracé_1774" data-name="Tracé 1774" d="M245.05,500.038c-.259,1.735-.869,2.321-1.336,2.551-1.587.781-3.629-1.5-5.1-.608-.764.464-.516,1.259-1.337,1.944-1.067.89-2.763.609-4.009.243" transform="translate(-124.26 -266.368)" fill="none" stroke="#fff" stroke-width="0.811"/>
      <path id="Tracé_1775" data-name="Tracé 1775" d="M264.553,537.471c-1.343,3.237-2.826,4.128-3.887,4.373-2.35.543-4.039-1.75-6.2-.851-1.685.7-1.655,2.52-3.037,2.794-1.418.281-2.96-1.333-4.13-2.915" transform="translate(-131.737 -286.309)" fill="none" stroke="#fff" stroke-width="0.811"/>
      <path id="Tracé_1776" data-name="Tracé 1776" d="M73.706,495.259c3.634-2.1,3.158-4.013,5.7-4.687,4.238-1.121,6.2,4,12.107,4.1,4.557.076,5.242-2.942,9.569-2.343a12.415,12.415,0,0,1,8.4,5.663c2.116,3.426.829,5.578,2.929,7.225,2.372,1.861,4.623-.408,8.2,1.172,3.376,1.49,5.385,5.278,5.859,8.592a12.141,12.141,0,0,1-1.562,7.746H59.492c-1.581-5.7-.615-8.846.586-10.675,1.281-1.954,2.475-1.864,3.515-3.906,2.07-4.063-1.253-7.167.586-9.764,1.66-2.344,4.758-.367,9.527-3.124" transform="translate(-31.251 -261.241)" fill="#67d0c0"/>
      <path id="Tracé_1777" data-name="Tracé 1777" d="M94.77,509.984c.216,1.445.724,1.933,1.113,2.125,1.321.65,3.022-1.25,4.249-.506.636.386.429,1.049,1.113,1.619.889.742,2.3.508,3.339.2" transform="translate(-50.484 -271.667)" fill="none" stroke="#fff" stroke-width="0.675"/>
      <path id="Tracé_1778" data-name="Tracé 1778" d="M73.335,541.163c1.118,2.7,2.354,3.438,3.237,3.643,1.958.452,3.364-1.458,5.16-.708,1.4.586,1.378,2.1,2.53,2.327,1.181.234,2.465-1.11,3.44-2.429" transform="translate(-39.065 -288.276)" fill="none" stroke="#fff" stroke-width="0.675"/>
    </g>
  </g>
</svg>
