<svg id="Groupe_188" data-name="Groupe 188" xmlns="http://www.w3.org/2000/svg" xmlns:xlink="http://www.w3.org/1999/xlink" width="346.367" height="321.613" viewBox="0 0 346.367 321.613">
  <defs>
    <clipPath id="clip-path">
      <rect id="Rectangle_473" data-name="Rectangle 473" width="346.367" height="321.613" fill="none"/>
    </clipPath>
    <clipPath id="clip-path-3">
      <rect id="Rectangle_461" data-name="Rectangle 461" width="231.188" height="89.248" fill="none"/>
    </clipPath>
    <clipPath id="clip-path-4">
      <rect id="Rectangle_460" data-name="Rectangle 460" width="208.682" height="79.976" fill="none"/>
    </clipPath>
    <clipPath id="clip-path-5">
      <rect id="Rectangle_462" data-name="Rectangle 462" width="132.266" height="143.045" fill="none"/>
    </clipPath>
    <clipPath id="clip-path-6">
      <path id="Tracé_1406" data-name="Tracé 1406" d="M501.234,465.221l-119.283,6.342.179-80.728,119.1-18.489Z" transform="translate(-381.951 -372.346)" fill="none"/>
    </clipPath>
  </defs>
  <g id="Groupe_187" data-name="Groupe 187" clip-path="url(#clip-path)">
    <path id="Tracé_1335" data-name="Tracé 1335" d="M381.073,100.081l119.9-5.446V348.178l-119.4,6.288Z" transform="translate(-160.605 -39.884)" fill="#bcbcbc"/>
    <path id="Tracé_1336" data-name="Tracé 1336" d="M309.553,60.2l119.9-5.446L348.836,4.038,211.374,0Z" transform="translate(-89.085 0)" fill="#744437"/>
    <path id="Tracé_1337" data-name="Tracé 1337" d="M131.737,0,21.124,60.2H230.416Z" transform="translate(-8.903 0)" fill="#ae6552"/>
    <path id="Tracé_1338" data-name="Tracé 1338" d="M230.282,104.048l-.288,254.332H21.311V104.048Z" transform="translate(-8.982 -43.852)" fill="#fbfbfb"/>
    <rect id="Rectangle_458" data-name="Rectangle 458" width="110.934" height="56.296" transform="translate(59.197 77.427)" fill="#99e1f1"/>
    <g id="Groupe_184" data-name="Groupe 184">
      <g id="Groupe_183" data-name="Groupe 183" clip-path="url(#clip-path)">
        <g id="Groupe_177" data-name="Groupe 177" transform="translate(0 231.19)" opacity="0.5">
          <g id="Groupe_176" data-name="Groupe 176">
            <g id="Groupe_175" data-name="Groupe 175" clip-path="url(#clip-path-3)">
              <path id="Tracé_1339" data-name="Tracé 1339" d="M22.932,405.465l-.37,79.976h3.991l-.676-79.976Z" transform="translate(-9.509 -402.075)" fill="#907869"/>
              <rect id="Rectangle_459" data-name="Rectangle 459" width="1.156" height="79.976" transform="translate(12.329 3.39)" fill="#e6ddcd"/>
              <path id="Tracé_1340" data-name="Tracé 1340" d="M186.3,405.465l-.37,79.976h3.99l-.676-79.976Z" transform="translate(-78.36 -402.075)" fill="#faf6ed"/>
              <path id="Tracé_1341" data-name="Tracé 1341" d="M179.514,405.465l1.157,79.976h2.985V405.465Z" transform="translate(-75.657 -402.075)" fill="#e6ddcd"/>
              <path id="Tracé_1342" data-name="Tracé 1342" d="M190.963,405.465l-.664,79.976h4.47l-.445-79.976Z" transform="translate(-80.203 -402.075)" fill="#907869"/>
              <path id="Tracé_1343" data-name="Tracé 1343" d="M195.9,405.465l.982,79.976h2.972V405.465Z" transform="translate(-82.564 -402.075)" fill="#e6ddcd"/>
              <path id="Tracé_1344" data-name="Tracé 1344" d="M28.158,405.465l.37,79.976h3.488l.863-79.976Z" transform="translate(-11.868 -402.075)" fill="#faf6ed"/>
              <path id="Tracé_1345" data-name="Tracé 1345" d="M35.236,405.465l-.37,79.976h3.99l-.676-79.976Z" transform="translate(-14.695 -402.075)" fill="#907869"/>
              <path id="Tracé_1346" data-name="Tracé 1346" d="M40.462,405.465l.37,79.976h3.392l-.445-79.976Z" transform="translate(-17.053 -402.075)" fill="#faf6ed"/>
              <path id="Tracé_1347" data-name="Tracé 1347" d="M51.756,405.465l-.37,79.976h3.991L54.7,405.465Z" transform="translate(-21.657 -402.075)" fill="#faf6ed"/>
              <path id="Tracé_1348" data-name="Tracé 1348" d="M44.973,405.465l1.157,79.976h2.985V405.465Z" transform="translate(-18.954 -402.075)" fill="#e6ddcd"/>
              <path id="Tracé_1349" data-name="Tracé 1349" d="M56.423,405.465l-.664,79.976h4.469l-.445-79.976Z" transform="translate(-23.5 -402.075)" fill="#907869"/>
              <path id="Tracé_1350" data-name="Tracé 1350" d="M67.82,405.465l-.37,79.976h3.991l-.676-79.976Z" transform="translate(-28.427 -402.075)" fill="#907869"/>
              <path id="Tracé_1351" data-name="Tracé 1351" d="M61.362,405.465l.982,79.976h2.972V405.465Z" transform="translate(-25.861 -402.075)" fill="#e6ddcd"/>
              <path id="Tracé_1352" data-name="Tracé 1352" d="M73.047,405.465l.37,79.976H76.9l.863-79.976Z" transform="translate(-30.786 -402.075)" fill="#faf6ed"/>
              <path id="Tracé_1353" data-name="Tracé 1353" d="M80.125,405.465l-.37,79.976h3.99l-.676-79.976Z" transform="translate(-33.613 -402.075)" fill="#e6ddcd"/>
              <path id="Tracé_1354" data-name="Tracé 1354" d="M85.351,405.465l.37,79.976h3.392l-.446-79.976Z" transform="translate(-35.971 -402.075)" fill="#faf6ed"/>
              <path id="Tracé_1355" data-name="Tracé 1355" d="M96.759,405.465l-.37,79.976h3.99L99.7,405.465Z" transform="translate(-40.624 -402.075)" fill="#faf6ed"/>
              <path id="Tracé_1356" data-name="Tracé 1356" d="M89.975,405.465l1.157,79.976h2.986V405.465Z" transform="translate(-37.92 -402.075)" fill="#e6ddcd"/>
              <path id="Tracé_1357" data-name="Tracé 1357" d="M101.425,405.465l-.664,79.976h4.47l-.446-79.976Z" transform="translate(-42.466 -402.075)" fill="#907869"/>
              <path id="Tracé_1358" data-name="Tracé 1358" d="M112.823,405.465l-.37,79.976h3.99l-.676-79.976Z" transform="translate(-47.394 -402.075)" fill="#907869"/>
              <path id="Tracé_1359" data-name="Tracé 1359" d="M106.364,405.465l.982,79.976h2.973V405.465Z" transform="translate(-44.828 -402.075)" fill="#e6ddcd"/>
              <path id="Tracé_1360" data-name="Tracé 1360" d="M118.049,405.465l.37,79.976h3.489l.863-79.976Z" transform="translate(-49.752 -402.075)" fill="#faf6ed"/>
              <path id="Tracé_1361" data-name="Tracé 1361" d="M125.127,405.465l-.37,79.976h3.991l-.676-79.976Z" transform="translate(-52.579 -402.075)" fill="#907869"/>
              <path id="Tracé_1362" data-name="Tracé 1362" d="M130.353,405.465l.37,79.976h3.392l-.446-79.976Z" transform="translate(-54.938 -402.075)" fill="#faf6ed"/>
              <path id="Tracé_1363" data-name="Tracé 1363" d="M141.647,405.465l-.37,79.976h3.99l-.676-79.976Z" transform="translate(-59.542 -402.075)" fill="#faf6ed"/>
              <path id="Tracé_1364" data-name="Tracé 1364" d="M134.863,405.465l1.157,79.976h2.986V405.465Z" transform="translate(-56.839 -402.075)" fill="#e6ddcd"/>
              <path id="Tracé_1365" data-name="Tracé 1365" d="M146.313,405.465l-.664,79.976h4.47l-.446-79.976Z" transform="translate(-61.385 -402.075)" fill="#907869"/>
              <path id="Tracé_1366" data-name="Tracé 1366" d="M157.711,405.465l-.37,79.976h3.99l-.676-79.976Z" transform="translate(-66.312 -402.075)" fill="#907869"/>
              <path id="Tracé_1367" data-name="Tracé 1367" d="M151.252,405.465l.982,79.976h2.972V405.465Z" transform="translate(-63.746 -402.075)" fill="#e6ddcd"/>
              <path id="Tracé_1368" data-name="Tracé 1368" d="M162.937,405.465l.37,79.976H166.8l.863-79.976Z" transform="translate(-68.671 -402.075)" fill="#faf6ed"/>
              <path id="Tracé_1369" data-name="Tracé 1369" d="M170.015,405.465l-.37,79.976h3.991l-.676-79.976Z" transform="translate(-71.498 -402.075)" fill="#e6ddcd"/>
              <path id="Tracé_1370" data-name="Tracé 1370" d="M175.242,405.465l.37,79.976H179l-.446-79.976Z" transform="translate(-73.857 -402.075)" fill="#faf6ed"/>
              <path id="Tracé_1371" data-name="Tracé 1371" d="M203.732,405.465l-.37,79.976h3.99l-.676-79.976Z" transform="translate(-85.708 -402.075)" fill="#faf6ed"/>
              <path id="Tracé_1372" data-name="Tracé 1372" d="M196.948,405.465l1.157,79.976h2.986V405.465Z" transform="translate(-83.005 -402.075)" fill="#e6ddcd"/>
              <path id="Tracé_1373" data-name="Tracé 1373" d="M208.4,405.465l-.664,79.976h4.47l-.446-79.976Z" transform="translate(-87.55 -402.075)" fill="#907869"/>
              <path id="Tracé_1374" data-name="Tracé 1374" d="M219.8,405.465l-.37,79.976h3.99l-.676-79.976Z" transform="translate(-92.478 -402.075)" fill="#907869"/>
              <path id="Tracé_1375" data-name="Tracé 1375" d="M213.337,405.465l.982,79.976h2.973V405.465Z" transform="translate(-89.912 -402.075)" fill="#e6ddcd"/>
              <g id="Groupe_174" data-name="Groupe 174" transform="translate(12.329 3.39)">
                <g id="Groupe_173" data-name="Groupe 173" clip-path="url(#clip-path-4)">
                  <path id="Tracé_1376" data-name="Tracé 1376" d="M383.157,399.606h2.9l.754,89.248h-4.067Z" transform="translate(-173.639 -402.996)" fill="#faf6ed"/>
                </g>
              </g>
              <path id="Tracé_1377" data-name="Tracé 1377" d="M376.378,405.465l1.157,79.976h2.1V405.465Z" transform="translate(-158.626 -402.075)" fill="#e6ddcd"/>
              <path id="Tracé_1378" data-name="Tracé 1378" d="M225.022,405.465l.37,79.976h3.489l.863-79.976Z" transform="translate(-94.837 -402.075)" fill="#faf6ed"/>
              <path id="Tracé_1379" data-name="Tracé 1379" d="M232.1,405.465l-.37,79.976h3.991l-.676-79.976Z" transform="translate(-97.664 -402.075)" fill="#907869"/>
              <path id="Tracé_1380" data-name="Tracé 1380" d="M237.326,405.465l.37,79.976h3.392l-.446-79.976Z" transform="translate(-100.022 -402.075)" fill="#faf6ed"/>
              <path id="Tracé_1381" data-name="Tracé 1381" d="M248.62,405.465l-.37,79.976h3.99l-.676-79.976Z" transform="translate(-104.626 -402.075)" fill="#faf6ed"/>
              <path id="Tracé_1382" data-name="Tracé 1382" d="M241.837,405.465l1.157,79.976h2.985V405.465Z" transform="translate(-101.923 -402.075)" fill="#e6ddcd"/>
              <path id="Tracé_1383" data-name="Tracé 1383" d="M253.286,405.465l-.664,79.976h4.47l-.446-79.976Z" transform="translate(-106.469 -402.075)" fill="#907869"/>
              <path id="Tracé_1384" data-name="Tracé 1384" d="M264.684,405.465l-.37,79.976h3.99l-.676-79.976Z" transform="translate(-111.397 -402.075)" fill="#907869"/>
              <path id="Tracé_1385" data-name="Tracé 1385" d="M258.225,405.465l.982,79.976h2.973V405.465Z" transform="translate(-108.83 -402.075)" fill="#e6ddcd"/>
              <path id="Tracé_1386" data-name="Tracé 1386" d="M269.91,405.465l.37,79.976h3.489l.863-79.976Z" transform="translate(-113.755 -402.075)" fill="#faf6ed"/>
              <path id="Tracé_1387" data-name="Tracé 1387" d="M276.988,405.465l-.37,79.976h3.991l-.676-79.976Z" transform="translate(-116.582 -402.075)" fill="#e6ddcd"/>
              <path id="Tracé_1388" data-name="Tracé 1388" d="M282.214,405.465l.37,79.976h3.391l-.445-79.976Z" transform="translate(-118.94 -402.075)" fill="#faf6ed"/>
              <path id="Tracé_1389" data-name="Tracé 1389" d="M293.622,405.465l-.37,79.976h3.99l-.676-79.976Z" transform="translate(-123.593 -402.075)" fill="#faf6ed"/>
              <path id="Tracé_1390" data-name="Tracé 1390" d="M286.839,405.465,288,485.441h2.985V405.465Z" transform="translate(-120.89 -402.075)" fill="#e6ddcd"/>
              <path id="Tracé_1391" data-name="Tracé 1391" d="M298.288,405.465l-.664,79.976h4.47l-.445-79.976Z" transform="translate(-125.435 -402.075)" fill="#907869"/>
              <path id="Tracé_1392" data-name="Tracé 1392" d="M309.686,405.465l-.37,79.976h3.99l-.676-79.976Z" transform="translate(-130.363 -402.075)" fill="#907869"/>
              <path id="Tracé_1393" data-name="Tracé 1393" d="M303.228,405.465l.982,79.976h2.973V405.465Z" transform="translate(-127.797 -402.075)" fill="#e6ddcd"/>
              <path id="Tracé_1394" data-name="Tracé 1394" d="M314.912,405.465l.37,79.976h3.489l.863-79.976Z" transform="translate(-132.721 -402.075)" fill="#faf6ed"/>
              <path id="Tracé_1395" data-name="Tracé 1395" d="M321.991,405.465l-.37,79.976h3.99l-.676-79.976Z" transform="translate(-135.549 -402.075)" fill="#907869"/>
              <path id="Tracé_1396" data-name="Tracé 1396" d="M327.217,405.465l.37,79.976h3.392l-.446-79.976Z" transform="translate(-137.907 -402.075)" fill="#faf6ed"/>
              <path id="Tracé_1397" data-name="Tracé 1397" d="M338.51,405.465l-.37,79.976h3.99l-.676-79.976Z" transform="translate(-142.511 -402.075)" fill="#faf6ed"/>
              <path id="Tracé_1398" data-name="Tracé 1398" d="M331.728,405.465l1.157,79.976h2.985V405.465Z" transform="translate(-139.808 -402.075)" fill="#e6ddcd"/>
              <path id="Tracé_1399" data-name="Tracé 1399" d="M343.177,405.465l-.664,79.976h4.47l-.445-79.976Z" transform="translate(-144.354 -402.075)" fill="#907869"/>
              <path id="Tracé_1400" data-name="Tracé 1400" d="M354.574,405.465l-.37,79.976h3.99l-.676-79.976Z" transform="translate(-149.281 -402.075)" fill="#907869"/>
              <path id="Tracé_1401" data-name="Tracé 1401" d="M348.115,405.465l.982,79.976h2.973V405.465Z" transform="translate(-146.715 -402.075)" fill="#e6ddcd"/>
              <path id="Tracé_1402" data-name="Tracé 1402" d="M359.8,405.465l.37,79.976h3.489l.863-79.976Z" transform="translate(-151.64 -402.075)" fill="#faf6ed"/>
              <path id="Tracé_1403" data-name="Tracé 1403" d="M366.879,405.465l-.37,79.976h3.99l-.676-79.976Z" transform="translate(-154.467 -402.075)" fill="#e6ddcd"/>
              <path id="Tracé_1404" data-name="Tracé 1404" d="M372.105,405.465l.37,79.976h3.392l-.446-79.976Z" transform="translate(-156.826 -402.075)" fill="#faf6ed"/>
            </g>
          </g>
        </g>
        <g id="Groupe_182" data-name="Groupe 182" transform="translate(214.101 176.721)" opacity="0.5">
          <g id="Groupe_181" data-name="Groupe 181">
            <g id="Groupe_180" data-name="Groupe 180" clip-path="url(#clip-path-5)">
              <g id="Groupe_179" data-name="Groupe 179" transform="translate(6.875 38.698)">
                <g id="Groupe_178" data-name="Groupe 178" clip-path="url(#clip-path-6)">
                  <path id="Tracé_1405" data-name="Tracé 1405" d="M376.239,448.5h2.6l-.285-143.045h-1.9Z" transform="translate(-379.544 -344.155)" fill="#907869"/>
                </g>
              </g>
              <path id="Tracé_1407" data-name="Tracé 1407" d="M383.1,403.941l-.133,80.781,2.3-.122-.245-80.957Z" transform="translate(-375.503 -346.838)" fill="#907869"/>
              <path id="Tracé_1408" data-name="Tracé 1408" d="M382.13,404.229l-.179,80.728.841-.045V404.127Z" transform="translate(-375.076 -347.042)" fill="#e6ddcd"/>
              <path id="Tracé_1409" data-name="Tracé 1409" d="M476.579,389.433l-.142,86.3,2.289-.122-.261-86.473Z" transform="translate(-414.898 -340.726)" fill="#faf6ed"/>
              <path id="Tracé_1410" data-name="Tracé 1410" d="M473.16,389.95l.444,86.063,1.7-.091V389.617Z" transform="translate(-413.517 -340.927)" fill="#e6ddcd"/>
              <path id="Tracé_1411" data-name="Tracé 1411" d="M479.191,388.986l-.256,86.467,2.564-.136-.172-86.662Z" transform="translate(-415.95 -340.521)" fill="#907869"/>
              <path id="Tracé_1412" data-name="Tracé 1412" d="M482.471,388.513l.38,86.616,1.7-.09V388.191Z" transform="translate(-417.441 -340.326)" fill="#e6ddcd"/>
              <path id="Tracé_1413" data-name="Tracé 1413" d="M386.325,403.4l.134,80.951,1.973-.1.313-81.222Z" transform="translate(-376.92 -346.577)" fill="#faf6ed"/>
              <path id="Tracé_1414" data-name="Tracé 1414" d="M390.139,402.848l-.134,81.2,2.3-.123-.246-81.372Z" transform="translate(-378.471 -346.377)" fill="#907869"/>
              <path id="Tracé_1415" data-name="Tracé 1415" d="M393.362,402.364l.134,81.367,1.942-.1-.163-81.561Z" transform="translate(-379.885 -346.174)" fill="#faf6ed"/>
              <path id="Tracé_1416" data-name="Tracé 1416" d="M399.592,401.381l-.135,81.755,2.3-.122-.248-81.931Z" transform="translate(-382.454 -345.759)" fill="#faf6ed"/>
              <path id="Tracé_1417" data-name="Tracé 1417" d="M396.249,401.894l.421,81.522,1.688-.09V401.566Z" transform="translate(-381.102 -345.963)" fill="#e6ddcd"/>
              <path id="Tracé_1418" data-name="Tracé 1418" d="M402.193,400.937l-.243,81.919,2.575-.137-.163-82.119Z" transform="translate(-383.505 -345.556)" fill="#907869"/>
              <path id="Tracé_1419" data-name="Tracé 1419" d="M408.784,399.954l-.136,82.3,2.3-.122-.249-82.473Z" transform="translate(-386.328 -345.158)" fill="#907869"/>
              <path id="Tracé_1420" data-name="Tracé 1420" d="M405.551,400.457l.36,82.075,1.685-.09v-82.3Z" transform="translate(-385.022 -345.361)" fill="#e6ddcd"/>
              <path id="Tracé_1421" data-name="Tracé 1421" d="M412,399.412l.136,82.467,1.978-.1.319-82.74Z" transform="translate(-387.74 -344.896)" fill="#faf6ed"/>
              <path id="Tracé_1422" data-name="Tracé 1422" d="M415.825,398.862l-.137,82.713,2.3-.122-.25-82.888Z" transform="translate(-389.295 -344.698)" fill="#e6ddcd"/>
              <path id="Tracé_1423" data-name="Tracé 1423" d="M419.037,398.379l.137,82.883,1.942-.1-.166-83.076Z" transform="translate(-390.706 -344.494)" fill="#faf6ed"/>
              <path id="Tracé_1424" data-name="Tracé 1424" d="M425.343,397.385l-.137,83.276,2.3-.122-.252-83.45Z" transform="translate(-393.306 -344.076)" fill="#faf6ed"/>
              <path id="Tracé_1425" data-name="Tracé 1425" d="M421.975,397.9l.429,83.041,1.693-.09V397.57Z" transform="translate(-391.944 -344.278)" fill="#e6ddcd"/>
              <path id="Tracé_1426" data-name="Tracé 1426" d="M427.948,396.94l-.248,83.44,2.572-.137L430.1,396.6Z" transform="translate(-394.357 -343.872)" fill="#907869"/>
              <path id="Tracé_1427" data-name="Tracé 1427" d="M434.535,395.958l-.138,83.818,2.3-.122-.253-83.992Z" transform="translate(-397.18 -343.474)" fill="#907869"/>
              <path id="Tracé_1428" data-name="Tracé 1428" d="M431.28,396.462l.367,83.593,1.688-.09V396.143Z" transform="translate(-395.866 -343.677)" fill="#e6ddcd"/>
              <path id="Tracé_1429" data-name="Tracé 1429" d="M437.74,395.415l.138,83.987,1.982-.105.325-84.261Z" transform="translate(-398.589 -343.21)" fill="#faf6ed"/>
              <path id="Tracé_1430" data-name="Tracé 1430" d="M441.576,394.865l-.139,84.234,2.294-.122-.255-84.407Z" transform="translate(-400.147 -343.014)" fill="#907869"/>
              <path id="Tracé_1431" data-name="Tracé 1431" d="M444.777,394.383l.139,84.4,1.942-.1-.169-84.6Z" transform="translate(-401.554 -342.81)" fill="#faf6ed"/>
              <path id="Tracé_1432" data-name="Tracé 1432" d="M451.029,393.4l-.14,84.793,2.293-.122-.256-84.965Z" transform="translate(-404.13 -342.396)" fill="#faf6ed"/>
              <path id="Tracé_1433" data-name="Tracé 1433" d="M447.636,393.914l.437,84.556,1.7-.09v-84.8Z" transform="translate(-402.759 -342.598)" fill="#e6ddcd"/>
              <path id="Tracé_1434" data-name="Tracé 1434" d="M453.637,392.952l-.252,84.958,2.568-.137-.169-85.154Z" transform="translate(-405.182 -342.192)" fill="#907869"/>
              <path id="Tracé_1435" data-name="Tracé 1435" d="M460.222,391.972l-.141,85.335,2.291-.121-.257-85.508Z" transform="translate(-408.004 -341.795)" fill="#907869"/>
              <path id="Tracé_1436" data-name="Tracé 1436" d="M456.944,392.477l.373,85.109,1.692-.09V392.156Z" transform="translate(-406.682 -341.997)" fill="#e6ddcd"/>
              <path id="Tracé_1437" data-name="Tracé 1437" d="M463.414,391.428l.141,85.5,1.987-.106.33-85.779Z" transform="translate(-409.409 -341.529)" fill="#faf6ed"/>
              <path id="Tracé_1438" data-name="Tracé 1438" d="M467.262,390.879l-.142,85.751,2.29-.121-.259-85.923Z" transform="translate(-410.971 -341.335)" fill="#e6ddcd"/>
              <path id="Tracé_1439" data-name="Tracé 1439" d="M470.452,390.4l.142,85.919,1.941-.1-.171-86.112Z" transform="translate(-412.375 -341.13)" fill="#faf6ed"/>
              <path id="Tracé_1440" data-name="Tracé 1440" d="M486.555,387.885l-.143,86.89,2.288-.121-.263-87.061Z" transform="translate(-419.101 -340.073)" fill="#faf6ed"/>
              <path id="Tracé_1441" data-name="Tracé 1441" d="M483.127,388.4l.448,86.651,1.7-.091V388.069Z" transform="translate(-417.717 -340.274)" fill="#e6ddcd"/>
              <path id="Tracé_1442" data-name="Tracé 1442" d="M489.169,387.438l-.258,87.056,2.562-.136-.174-87.251Z" transform="translate(-420.155 -339.869)" fill="#907869"/>
              <path id="Tracé_1443" data-name="Tracé 1443" d="M495.748,386.458l-.144,87.434,2.286-.122-.264-87.6Z" transform="translate(-422.976 -339.472)" fill="#907869"/>
              <path id="Tracé_1444" data-name="Tracé 1444" d="M492.439,386.965l.382,87.2,1.7-.09V386.642Z" transform="translate(-421.642 -339.673)" fill="#e6ddcd"/>
              <path id="Tracé_1445" data-name="Tracé 1445" d="M585.7,372.564l.479,92.706.927-.049V372.346Z" transform="translate(-460.946 -333.648)" fill="#e6ddcd"/>
              <path id="Tracé_1446" data-name="Tracé 1446" d="M498.925,385.913l.145,87.6,1.992-.106.338-87.878Z" transform="translate(-424.375 -339.204)" fill="#faf6ed"/>
              <path id="Tracé_1447" data-name="Tracé 1447" d="M502.789,385.365l-.145,87.85,2.285-.122-.266-88.019Z" transform="translate(-425.943 -339.012)" fill="#907869"/>
              <path id="Tracé_1448" data-name="Tracé 1448" d="M505.962,384.885l.145,88.015,1.941-.1-.176-88.209Z" transform="translate(-427.341 -338.807)" fill="#faf6ed"/>
              <path id="Tracé_1449" data-name="Tracé 1449" d="M512.241,383.9l-.146,88.408,2.284-.121-.267-88.577Z" transform="translate(-429.926 -338.394)" fill="#faf6ed"/>
              <path id="Tracé_1450" data-name="Tracé 1450" d="M508.788,384.418l.455,88.166,1.706-.091v-88.41Z" transform="translate(-428.532 -338.594)" fill="#e6ddcd"/>
              <path id="Tracé_1451" data-name="Tracé 1451" d="M514.859,383.45l-.263,88.573,2.558-.136-.177-88.767Z" transform="translate(-430.98 -338.189)" fill="#907869"/>
              <path id="Tracé_1452" data-name="Tracé 1452" d="M521.434,382.471l-.146,88.951,2.282-.122-.269-89.119Z" transform="translate(-433.8 -337.793)" fill="#907869"/>
              <path id="Tracé_1453" data-name="Tracé 1453" d="M518.1,382.98l.389,88.719,1.7-.09V382.655Z" transform="translate(-432.458 -337.993)" fill="#e6ddcd"/>
              <path id="Tracé_1454" data-name="Tracé 1454" d="M524.6,381.926l.148,89.116,2-.106.344-89.4Z" transform="translate(-435.196 -337.522)" fill="#faf6ed"/>
              <path id="Tracé_1455" data-name="Tracé 1455" d="M528.474,381.379l-.148,89.367,2.281-.122-.27-89.534Z" transform="translate(-436.767 -337.333)" fill="#e6ddcd"/>
              <path id="Tracé_1456" data-name="Tracé 1456" d="M531.637,380.9l.148,89.532,1.941-.1-.179-89.724Z" transform="translate(-438.162 -337.128)" fill="#faf6ed"/>
              <path id="Tracé_1457" data-name="Tracé 1457" d="M537.992,379.9l-.148,89.928,2.28-.121-.272-90.1Z" transform="translate(-440.778 -336.71)" fill="#faf6ed"/>
              <path id="Tracé_1458" data-name="Tracé 1458" d="M534.513,380.423l.463,89.684,1.71-.091V380.086Z" transform="translate(-439.374 -336.91)" fill="#e6ddcd"/>
              <path id="Tracé_1459" data-name="Tracé 1459" d="M540.614,379.453l-.267,90.1,2.555-.136-.18-90.287Z" transform="translate(-441.833 -336.505)" fill="#907869"/>
              <path id="Tracé_1460" data-name="Tracé 1460" d="M547.185,378.475l-.149,90.472,2.279-.122-.274-90.638Z" transform="translate(-444.652 -336.109)" fill="#907869"/>
              <path id="Tracé_1461" data-name="Tracé 1461" d="M543.832,378.985l.4,90.238,1.7-.09V378.659Z" transform="translate(-443.302 -336.308)" fill="#e6ddcd"/>
              <path id="Tracé_1462" data-name="Tracé 1462" d="M550.339,377.929l.149,90.635,2-.106.35-90.917Z" transform="translate(-446.044 -335.837)" fill="#faf6ed"/>
              <path id="Tracé_1463" data-name="Tracé 1463" d="M554.226,377.382l-.15,90.888,2.278-.122-.275-91.054Z" transform="translate(-447.619 -335.649)" fill="#907869"/>
              <path id="Tracé_1464" data-name="Tracé 1464" d="M557.377,376.9l.15,91.051,1.94-.1-.182-91.244Z" transform="translate(-449.01 -335.444)" fill="#faf6ed"/>
              <path id="Tracé_1465" data-name="Tracé 1465" d="M563.678,375.915l-.151,91.446,2.277-.121-.276-91.611Z" transform="translate(-451.602 -335.031)" fill="#faf6ed"/>
              <path id="Tracé_1466" data-name="Tracé 1466" d="M560.174,376.438l.471,91.2,1.714-.091V376.1Z" transform="translate(-450.189 -335.229)" fill="#e6ddcd"/>
              <path id="Tracé_1467" data-name="Tracé 1467" d="M566.3,375.466l-.272,91.613,2.55-.136-.182-91.8Z" transform="translate(-452.658 -334.826)" fill="#907869"/>
              <path id="Tracé_1468" data-name="Tracé 1468" d="M572.871,374.488l-.152,91.989,2.275-.121-.278-92.154Z" transform="translate(-455.477 -334.43)" fill="#907869"/>
              <path id="Tracé_1469" data-name="Tracé 1469" d="M569.5,375l.4,91.753,1.707-.091v-91.99Z" transform="translate(-454.118 -334.628)" fill="#e6ddcd"/>
              <path id="Tracé_1470" data-name="Tracé 1470" d="M576.013,373.942l.152,92.152,2.006-.107.356-92.435Z" transform="translate(-456.865 -334.156)" fill="#faf6ed"/>
              <path id="Tracé_1471" data-name="Tracé 1471" d="M579.912,373.4l-.153,92.4,2.274-.121-.279-92.569Z" transform="translate(-458.443 -333.97)" fill="#e6ddcd"/>
              <path id="Tracé_1472" data-name="Tracé 1472" d="M583.052,372.918l.153,92.567,1.94-.1-.185-92.76Z" transform="translate(-459.831 -333.764)" fill="#faf6ed"/>
            </g>
          </g>
        </g>
      </g>
    </g>
    <rect id="Rectangle_464" data-name="Rectangle 464" width="208.969" height="6.879" transform="translate(12.043 60.197)" fill="#b0b1b0"/>
    <path id="Tracé_1473" data-name="Tracé 1473" d="M212.824,133.83V189.88H102.32" transform="translate(-43.123 -56.403)" fill="none" stroke="#fff" stroke-width="1.879"/>
    <rect id="Rectangle_465" data-name="Rectangle 465" width="7.871" height="55.422" transform="translate(161.814 77.396)" fill="#ccf0f8"/>
    <line id="Ligne_194" data-name="Ligne 194" y2="56.296" transform="translate(85.26 77.427)" fill="none" stroke="#fff" stroke-width="1.879"/>
    <line id="Ligne_195" data-name="Ligne 195" y2="56.296" transform="translate(115.103 77.427)" fill="none" stroke="#fff" stroke-width="1.879"/>
    <line id="Ligne_196" data-name="Ligne 196" y2="56.296" transform="translate(144.947 77.427)" fill="none" stroke="#fff" stroke-width="1.879"/>
    <path id="Tracé_1474" data-name="Tracé 1474" d="M516.953,181.756l-70.343,6.679v-56.3l69.8-3.418Z" transform="translate(-188.226 -54.25)" fill="#99e1f1"/>
    <path id="Tracé_1475" data-name="Tracé 1475" d="M563.744,180.829l-4.554,1.052-.666-52.909,4.677-.3Z" transform="translate(-235.393 -54.228)" fill="#ccf0f8"/>
    <path id="Tracé_1476" data-name="Tracé 1476" d="M515.355,213.024l1.38,4.466-70.063,6.3v-4.3Z" transform="translate(-188.252 -89.78)" fill="#ccf0f8"/>
    <line id="Ligne_197" data-name="Ligne 197" x2="0.543" y2="53.998" transform="translate(306.953 75.515)" fill="none" stroke="#fff" stroke-width="1.879"/>
    <line id="Ligne_198" data-name="Ligne 198" x2="0.543" y2="54.41" transform="translate(281.584 76.823)" fill="none" stroke="#fff" stroke-width="1.879"/>
    <rect id="Rectangle_466" data-name="Rectangle 466" width="110.934" height="56.296" transform="translate(59.197 157.403)" fill="#99e1f1"/>
    <path id="Tracé_1477" data-name="Tracé 1477" d="M212.824,272.066v56.049H102.32" transform="translate(-43.123 -114.664)" fill="none" stroke="#fff" stroke-width="1.879"/>
    <rect id="Rectangle_467" data-name="Rectangle 467" width="7.871" height="55.422" transform="translate(161.814 157.372)" fill="#ccf0f8"/>
    <line id="Ligne_199" data-name="Ligne 199" y2="56.296" transform="translate(85.26 157.403)" fill="none" stroke="#fff" stroke-width="1.879"/>
    <line id="Ligne_200" data-name="Ligne 200" y2="56.296" transform="translate(115.103 157.403)" fill="none" stroke="#fff" stroke-width="1.879"/>
    <line id="Ligne_201" data-name="Ligne 201" y2="56.296" transform="translate(144.947 157.403)" fill="none" stroke="#fff" stroke-width="1.879"/>
    <path id="Tracé_1478" data-name="Tracé 1478" d="M74.471,162.406l13.962-5.59v41.923l-13.962,6.324Z" transform="translate(-31.386 -66.091)" fill="none" stroke="#669cb1" stroke-width="0.939"/>
    <path id="Tracé_1479" data-name="Tracé 1479" d="M197.791,209.135H74.471V166.478H197.647Z" transform="translate(-31.386 -70.163)" fill="none" stroke="#669cb1" stroke-width="0.939"/>
    <path id="Tracé_1480" data-name="Tracé 1480" d="M74.474,235.6H197.792l5.875-5.679-5.9-.032-109.336-.614Z" transform="translate(-31.387 -96.631)" fill="#e0ebef"/>
    <path id="Tracé_1481" data-name="Tracé 1481" d="M74.474,235.6H197.792l5.875-5.679-5.9-.032-109.336-.614Z" transform="translate(-31.387 -96.631)" fill="none" stroke="#669cb1" stroke-width="0.939"/>
    <path id="Tracé_1482" data-name="Tracé 1482" d="M270.4,209.135H263.6V166.478h6.8Z" transform="translate(-111.094 -70.163)" fill="none" stroke="#669cb1" stroke-width="0.939"/>
    <path id="Tracé_1483" data-name="Tracé 1483" d="M249.222,209.135h-6.808V166.478h6.8Z" transform="translate(-102.167 -70.163)" fill="none" stroke="#669cb1" stroke-width="0.939"/>
    <path id="Tracé_1484" data-name="Tracé 1484" d="M228.041,209.135h-6.808V166.478h6.8Z" transform="translate(-93.24 -70.163)" fill="none" stroke="#669cb1" stroke-width="0.939"/>
    <path id="Tracé_1485" data-name="Tracé 1485" d="M206.86,209.135h-6.808V166.478h6.8Z" transform="translate(-84.313 -70.163)" fill="none" stroke="#669cb1" stroke-width="0.939"/>
    <path id="Tracé_1486" data-name="Tracé 1486" d="M185.678,209.135h-6.808V166.478h6.8Z" transform="translate(-75.386 -70.163)" fill="none" stroke="#669cb1" stroke-width="0.939"/>
    <path id="Tracé_1487" data-name="Tracé 1487" d="M164.5,209.135h-6.808V166.478h6.8Z" transform="translate(-66.459 -70.163)" fill="none" stroke="#669cb1" stroke-width="0.939"/>
    <path id="Tracé_1488" data-name="Tracé 1488" d="M143.316,209.135h-6.808V166.478h6.8Z" transform="translate(-57.532 -70.163)" fill="none" stroke="#669cb1" stroke-width="0.939"/>
    <path id="Tracé_1489" data-name="Tracé 1489" d="M122.134,209.135h-6.808V166.478h6.8Z" transform="translate(-48.605 -70.163)" fill="none" stroke="#669cb1" stroke-width="0.939"/>
    <path id="Tracé_1490" data-name="Tracé 1490" d="M100.953,209.135H94.145V166.478h6.8Z" transform="translate(-39.678 -70.163)" fill="none" stroke="#669cb1" stroke-width="0.939"/>
    <path id="Tracé_1491" data-name="Tracé 1491" d="M80.192,209.135H74.47V166.478h5.713Z" transform="translate(-31.386 -70.163)" fill="none" stroke="#669cb1" stroke-width="0.939"/>
    <path id="Tracé_1492" data-name="Tracé 1492" d="M287.378,163.816l6.02-3.655v40.633l-5.858,5.733Z" transform="translate(-121.117 -67.501)" fill="none" stroke="#669cb1" stroke-linejoin="bevel" stroke-width="0.939"/>
    <line id="Ligne_202" data-name="Ligne 202" x1="115.234" y1="0.645" transform="translate(57.047 132.648)" fill="none" stroke="#669cb1" stroke-width="0.939"/>
    <path id="Tracé_1493" data-name="Tracé 1493" d="M382.137,100.081l119.289-5.446v6.306l-119.289,6.02Z" transform="translate(-161.053 -39.884)" fill="#848584"/>
    <rect id="Rectangle_468" data-name="Rectangle 468" width="209.184" height="3.225" transform="translate(11.9 231.872)" fill="#907869"/>
    <path id="Tracé_1494" data-name="Tracé 1494" d="M501.468,371.855l-119.641,18.6v-3.225l119.641-18.6Z" transform="translate(-160.923 -155.361)" fill="#907869"/>
    <path id="Tracé_1495" data-name="Tracé 1495" d="M516.047,128.721l.543,52.789-69.98,6.679" transform="translate(-188.226 -54.25)" fill="none" stroke="#fff" stroke-width="1.879"/>
    <path id="Tracé_1496" data-name="Tracé 1496" d="M516.951,300.7,446.61,313.816v-56.3l69.911-7.8Z" transform="translate(-188.226 -105.244)" fill="#99e1f1"/>
    <path id="Tracé_1497" data-name="Tracé 1497" d="M563.742,299.774l-4.554,1.052-.664-50.629,4.789-.532Z" transform="translate(-235.393 -105.222)" fill="#ccf0f8"/>
    <path id="Tracé_1498" data-name="Tracé 1498" d="M515.353,330.474l1.38,4.466-70.062,12.736v-4.3Z" transform="translate(-188.252 -139.28)" fill="#ccf0f8"/>
    <line id="Ligne_203" data-name="Ligne 203" x2="0.341" y2="52.332" transform="translate(306.953 146.891)" fill="none" stroke="#fff" stroke-width="1.879"/>
    <line id="Ligne_204" data-name="Ligne 204" x2="0.632" y2="54.321" transform="translate(281.495 149.632)" fill="none" stroke="#fff" stroke-width="1.879"/>
    <path id="Tracé_1499" data-name="Tracé 1499" d="M516.159,249.717l.43,50.737L446.61,313.569" transform="translate(-188.226 -105.244)" fill="none" stroke="#fff" stroke-width="1.879"/>
    <rect id="Rectangle_469" data-name="Rectangle 469" width="124.037" height="4.3" transform="translate(42.44 139.402)" fill="#669cb1"/>
    <rect id="Rectangle_470" data-name="Rectangle 470" width="124.037" height="4.3" transform="translate(42.44 139.402)" fill="none" stroke="#669cb1" stroke-width="0.939"/>
    <path id="Tracé_1500" data-name="Tracé 1500" d="M288.245,235.9l6.127-6v5.017l-6.127,5.93Z" transform="translate(-121.482 -96.892)" fill="#005a7d"/>
    <path id="Tracé_1501" data-name="Tracé 1501" d="M129.076,422.884,134,429.978h77.953v-6.611Z" transform="translate(-54.4 -178.226)" fill="#9ec5cf"/>
    <g id="Groupe_186" data-name="Groupe 186">
      <g id="Groupe_185" data-name="Groupe 185" clip-path="url(#clip-path)">
        <path id="Tracé_1502" data-name="Tracé 1502" d="M128.937,422.884l4.944,7.078v62.847h-4.944s-.43-69.925,0-69.925" transform="translate(-54.26 -178.227)" fill="#77949b"/>
        <rect id="Rectangle_471" data-name="Rectangle 471" width="77.718" height="62.991" transform="translate(79.406 251.537)" fill="#73a9b5"/>
        <path id="Tracé_1503" data-name="Tracé 1503" d="M135.983,522.928l76.276-28.452-.057,27.952H137.159Z" transform="translate(-57.311 -208.399)" fill="#8a6d68"/>
        <path id="Tracé_1504" data-name="Tracé 1504" d="M140.126,437H176.1v60.054H139.656Z" transform="translate(-58.859 -184.178)" fill="none" stroke="#fff" stroke-linecap="round" stroke-width="5.636"/>
        <path id="Tracé_1505" data-name="Tracé 1505" d="M214.223,443.727,245.93,437v60.054l-32.17,6.723Z" transform="translate(-90.09 -184.178)" fill="none" stroke="#fff" stroke-linecap="round" stroke-width="5.636"/>
        <path id="Tracé_1506" data-name="Tracé 1506" d="M453.55,43.332h0a1.606,1.606,0,0,0,1.606-1.606V23.035a1.606,1.606,0,1,0-3.212,0v18.69a1.606,1.606,0,0,0,1.606,1.606" transform="translate(-190.474 -9.031)" fill="#ee856d"/>
        <path id="Tracé_1507" data-name="Tracé 1507" d="M451.944,23.035c0,.887.719.87,1.606.87s1.606.017,1.606-.87a1.606,1.606,0,1,0-3.212,0" transform="translate(-190.474 -9.031)" fill="#f5b6a7"/>
        <path id="Tracé_1508" data-name="Tracé 1508" d="M442.13,39.821h0a2.022,2.022,0,0,0,2.022-2.023V18.333a2.022,2.022,0,1,0-4.045,0V37.8a2.022,2.022,0,0,0,2.023,2.023" transform="translate(-185.485 -6.874)" fill="#ee856d"/>
        <path id="Tracé_1509" data-name="Tracé 1509" d="M440.107,17.7c0,.952.905.934,2.023.934s2.023.019,2.023-.934a2.048,2.048,0,0,0-4.045,0" transform="translate(-185.485 -6.734)" fill="#f5b6a7"/>
        <path id="Tracé_1510" data-name="Tracé 1510" d="M428.314,36.506h.11a2.022,2.022,0,0,0,2.023-2.023V14.378a2.022,2.022,0,0,0-2.023-2.023h-.11a2.022,2.022,0,0,0-2.023,2.023V34.483a2.022,2.022,0,0,0,2.023,2.023" transform="translate(-179.662 -5.207)" fill="#ee856d"/>
        <path id="Tracé_1511" data-name="Tracé 1511" d="M426.291,13.786c0,.979.93.959,2.078.959s2.078.02,2.078-.959a2.1,2.1,0,0,0-4.155,0" transform="translate(-179.662 -5.064)" fill="#f5b6a7"/>
        <path id="Tracé_1512" data-name="Tracé 1512" d="M414.016,33.694h.285a2.022,2.022,0,0,0,2.022-2.023V10.553A2.022,2.022,0,0,0,414.3,8.53h-.285a2.022,2.022,0,0,0-2.023,2.023V31.671a2.022,2.022,0,0,0,2.023,2.023" transform="translate(-173.636 -3.595)" fill="#ee856d"/>
        <path id="Tracé_1513" data-name="Tracé 1513" d="M411.993,10.021c0,1.019.969,1,2.165,1s2.164.02,2.164-1a2.192,2.192,0,0,0-4.329,0" transform="translate(-173.636 -3.445)" fill="#f5b6a7"/>
        <path id="Tracé_1514" data-name="Tracé 1514" d="M400.459,31.96h.46a2.022,2.022,0,0,0,2.022-2.023V7.8a2.022,2.022,0,0,0-2.022-2.023h-.46A2.022,2.022,0,0,0,398.436,7.8V29.938a2.022,2.022,0,0,0,2.023,2.023" transform="translate(-167.923 -2.435)" fill="#ee856d"/>
        <path id="Tracé_1515" data-name="Tracé 1515" d="M398.436,7.328c0,1.06,1.008,1.04,2.252,1.04s2.252.02,2.252-1.04a2.281,2.281,0,0,0-4.5,0" transform="translate(-167.923 -2.279)" fill="#f5b6a7"/>
        <path id="Tracé_1516" data-name="Tracé 1516" d="M394.607,46.862l39.725-1.1L433.8,30.148l-39.19-3.528Z" transform="translate(-166.309 -11.219)" fill="#b36452"/>
        <path id="Tracé_1517" data-name="Tracé 1517" d="M389.3,26.62l-7.286,3.471v16.77H389.3Z" transform="translate(-161.001 -11.219)" fill="#4d251c"/>
      </g>
    </g>
  </g>
</svg>
