<svg id="Groupe_167" data-name="Groupe 167" xmlns="http://www.w3.org/2000/svg" xmlns:xlink="http://www.w3.org/1999/xlink" width="129.851" height="96.373" viewBox="0 0 129.851 96.373">
  <defs>
    <clipPath id="clip-path">
      <rect id="Rectangle_438" data-name="Rectangle 438" width="129.851" height="96.373" fill="none"/>
    </clipPath>
  </defs>
  <path id="Tracé_1093" data-name="Tracé 1093" d="M3.2,77.678.674,152.5H107.111V68.541Z" transform="translate(-0.552 -56.131)" fill="#fff"/>
  <path id="Tracé_1094" data-name="Tracé 1094" d="M114.342,101.365,9.5,105.121l.926-27.444L114.342,68.54Z" transform="translate(-7.783 -56.131)" fill="#f7c2b6"/>
  <path id="Tracé_1095" data-name="Tracé 1095" d="M588.544,152.5h23.291V77.678l-23.291-9.137Z" transform="translate(-481.985 -56.131)" fill="#bcbcbc"/>
  <g id="Groupe_165" data-name="Groupe 165">
    <g id="Groupe_164" data-name="Groupe 164" clip-path="url(#clip-path)">
      <path id="Tracé_1096" data-name="Tracé 1096" d="M272.2,439.247v15.86H258.541V441.24a3.347,3.347,0,0,1,1.245-1.26,12.5,12.5,0,0,1,5.246-1.731c5.581-.8,7.164,1,7.164,1" transform="translate(-211.731 -358.735)" fill="#bcbcbc"/>
      <path id="Tracé_1097" data-name="Tracé 1097" d="M381.66,433.77V440.1H368.09v-5.272a3.038,3.038,0,0,1,1.236-1.054,14.037,14.037,0,0,1,5.214-1.448c5.546-.666,7.12,1.448,7.12,1.448" transform="translate(-301.445 -353.941)" fill="#99bccb"/>
      <path id="Tracé_1098" data-name="Tracé 1098" d="M272.2,439.247v1.022c-7.039-1.948-11.636.707-13.655,2.345V441.24s.909-2.193,6.491-2.991,7.164,1,7.164,1" transform="translate(-211.731 -358.735)" fill="#767676"/>
      <path id="Tracé_1099" data-name="Tracé 1099" d="M259.786,448.733v15.126h-1.245V449.993a3.349,3.349,0,0,1,1.245-1.26" transform="translate(-211.731 -367.487)" fill="#767676"/>
      <path id="Tracé_1100" data-name="Tracé 1100" d="M381.66,433.77v.766c-6.4-3.342-12.863.648-12.863.648V440.1h-.708v-5.272a3.038,3.038,0,0,1,1.236-1.054,14.037,14.037,0,0,1,5.214-1.448c5.546-.666,7.12,1.448,7.12,1.448" transform="translate(-301.445 -353.941)" fill="#767676"/>
      <path id="Tracé_1101" data-name="Tracé 1101" d="M489.556,433.77V440.1h-13.57v-5.272a3.037,3.037,0,0,1,1.236-1.054,14.037,14.037,0,0,1,5.214-1.448c5.546-.666,7.12,1.448,7.12,1.448" transform="translate(-389.806 -353.941)" fill="#99bccb"/>
      <path id="Tracé_1102" data-name="Tracé 1102" d="M489.556,433.77v.766c-6.4-3.342-12.863.648-12.863.648V440.1h-.708v-5.272a3.037,3.037,0,0,1,1.236-1.054,14.037,14.037,0,0,1,5.214-1.448c5.546-.666,7.12,1.448,7.12,1.448" transform="translate(-389.806 -353.941)" fill="#767676"/>
      <path id="Tracé_1103" data-name="Tracé 1103" d="M64.577,433.77V440.1H51.007v-5.272a3.037,3.037,0,0,1,1.236-1.054,14.037,14.037,0,0,1,5.214-1.448c5.546-.666,7.12,1.448,7.12,1.448" transform="translate(-41.772 -353.941)" fill="#99bccb"/>
      <path id="Tracé_1104" data-name="Tracé 1104" d="M64.577,433.77v.766c-6.4-3.342-12.863.648-12.863.648V440.1h-.708v-5.272a3.037,3.037,0,0,1,1.236-1.054,14.037,14.037,0,0,1,5.214-1.448c5.546-.666,7.12,1.448,7.12,1.448" transform="translate(-41.772 -353.941)" fill="#767676"/>
      <path id="Tracé_1105" data-name="Tracé 1105" d="M172.474,433.77V440.1H158.9v-5.272a3.037,3.037,0,0,1,1.236-1.054,14.037,14.037,0,0,1,5.214-1.448c5.546-.666,7.12,1.448,7.12,1.448" transform="translate(-130.133 -353.941)" fill="#99bccb"/>
      <path id="Tracé_1106" data-name="Tracé 1106" d="M172.474,433.77v.766c-6.4-3.342-12.863.648-12.863.648V440.1H158.9v-5.272a3.037,3.037,0,0,1,1.236-1.054,14.037,14.037,0,0,1,5.214-1.448c5.546-.666,7.12,1.448,7.12,1.448" transform="translate(-130.133 -353.941)" fill="#767676"/>
      <path id="Tracé_1107" data-name="Tracé 1107" d="M106.558,394.093,0,397.089l.647-.486,105.911-3Z" transform="translate(0 -322.342)" fill="#bcbcbc"/>
      <rect id="Rectangle_324" data-name="Rectangle 324" width="0.42" height="18.14" transform="translate(58.406 55.051)" fill="#767676"/>
      <path id="Tracé_1108" data-name="Tracé 1108" d="M259.231,324.1H245.122V307.087l14.109-.712Z" transform="translate(-200.741 -250.904)" fill="#bcbcbc"/>
      <path id="Tracé_1109" data-name="Tracé 1109" d="M259.22,304.056l-13.687.712-.411.42,14.1-.712Z" transform="translate(-200.742 -249.005)" fill="#767676"/>
      <path id="Tracé_1110" data-name="Tracé 1110" d="M263.373,330.257H251.615V314.294l11.757-.5Z" transform="translate(-206.059 -256.982)" fill="#99bccb"/>
      <path id="Tracé_1111" data-name="Tracé 1111" d="M253,332.17h-1.847V316.218l1.847-.086Z" transform="translate(-205.68 -258.895)" fill="#ccd3d5"/>
      <line id="Ligne_180" data-name="Ligne 180" y2="16.46" transform="translate(51.393 56.815)" fill="none" stroke="#fff" stroke-width="0.464"/>
      <line id="Ligne_181" data-name="Ligne 181" x1="11.757" transform="translate(45.556 64.667)" fill="none" stroke="#fff" stroke-width="0.464"/>
      <path id="Tracé_1112" data-name="Tracé 1112" d="M257.846,364.1H243.06v-.126a.337.337,0,0,1,.337-.337h14.112a.337.337,0,0,1,.337.337Z" transform="translate(-199.053 -297.797)" fill="#565656"/>
      <rect id="Rectangle_325" data-name="Rectangle 325" width="0.307" height="7.531" transform="translate(44.008 66.301)" fill="#565656"/>
      <rect id="Rectangle_326" data-name="Rectangle 326" width="0.307" height="7.531" transform="translate(45.324 66.301)" fill="#565656"/>
      <rect id="Rectangle_327" data-name="Rectangle 327" width="0.307" height="7.531" transform="translate(46.64 66.301)" fill="#565656"/>
      <rect id="Rectangle_328" data-name="Rectangle 328" width="0.307" height="7.531" transform="translate(47.957 66.301)" fill="#565656"/>
      <rect id="Rectangle_329" data-name="Rectangle 329" width="0.307" height="7.531" transform="translate(49.273 66.301)" fill="#565656"/>
      <rect id="Rectangle_330" data-name="Rectangle 330" width="0.307" height="7.531" transform="translate(50.589 66.301)" fill="#565656"/>
      <rect id="Rectangle_331" data-name="Rectangle 331" width="0.307" height="7.531" transform="translate(51.906 66.301)" fill="#565656"/>
      <rect id="Rectangle_332" data-name="Rectangle 332" width="0.307" height="7.531" transform="translate(53.222 66.301)" fill="#565656"/>
      <rect id="Rectangle_333" data-name="Rectangle 333" width="0.307" height="7.531" transform="translate(54.538 66.301)" fill="#565656"/>
      <rect id="Rectangle_334" data-name="Rectangle 334" width="0.307" height="7.531" transform="translate(55.855 66.301)" fill="#565656"/>
      <rect id="Rectangle_335" data-name="Rectangle 335" width="0.307" height="7.531" transform="translate(57.171 66.301)" fill="#565656"/>
      <rect id="Rectangle_336" data-name="Rectangle 336" width="0.307" height="7.531" transform="translate(58.487 66.301)" fill="#565656"/>
      <rect id="Rectangle_337" data-name="Rectangle 337" width="0.42" height="18.14" transform="translate(91.214 54.185)" fill="#767676"/>
      <path id="Tracé_1113" data-name="Tracé 1113" d="M440.438,319.31H426.329V302.3l14.109-.712Z" transform="translate(-349.14 -246.986)" fill="#bcbcbc"/>
      <path id="Tracé_1114" data-name="Tracé 1114" d="M440.428,299.271l-13.687.712-.411.42,14.1-.712Z" transform="translate(-349.14 -245.086)" fill="#767676"/>
      <path id="Tracé_1115" data-name="Tracé 1115" d="M444.58,325.471H432.823V309.509l11.757-.5Z" transform="translate(-354.458 -253.063)" fill="#99bccb"/>
      <path id="Tracé_1116" data-name="Tracé 1116" d="M434.207,327.385H432.36V311.433l1.847-.086Z" transform="translate(-354.079 -254.976)" fill="#ccd3d5"/>
      <line id="Ligne_182" data-name="Ligne 182" y2="16.46" transform="translate(84.202 55.948)" fill="none" stroke="#fff" stroke-width="0.464"/>
      <line id="Ligne_183" data-name="Ligne 183" x1="11.757" transform="translate(78.365 63.801)" fill="none" stroke="#fff" stroke-width="0.464"/>
      <path id="Tracé_1117" data-name="Tracé 1117" d="M439.054,359.313H424.268v-.126a.337.337,0,0,1,.337-.337h14.112a.337.337,0,0,1,.337.337Z" transform="translate(-347.452 -293.878)" fill="#565656"/>
      <rect id="Rectangle_338" data-name="Rectangle 338" width="0.307" height="7.531" transform="translate(76.816 65.435)" fill="#565656"/>
      <rect id="Rectangle_339" data-name="Rectangle 339" width="0.307" height="7.531" transform="translate(78.132 65.435)" fill="#565656"/>
      <rect id="Rectangle_340" data-name="Rectangle 340" width="0.307" height="7.531" transform="translate(79.449 65.435)" fill="#565656"/>
      <rect id="Rectangle_341" data-name="Rectangle 341" width="0.307" height="7.531" transform="translate(80.765 65.435)" fill="#565656"/>
      <rect id="Rectangle_342" data-name="Rectangle 342" width="0.307" height="7.531" transform="translate(82.081 65.435)" fill="#565656"/>
      <rect id="Rectangle_343" data-name="Rectangle 343" width="0.307" height="7.531" transform="translate(83.398 65.435)" fill="#565656"/>
      <rect id="Rectangle_344" data-name="Rectangle 344" width="0.307" height="7.531" transform="translate(84.714 65.435)" fill="#565656"/>
      <rect id="Rectangle_345" data-name="Rectangle 345" width="0.307" height="7.531" transform="translate(86.03 65.435)" fill="#565656"/>
      <rect id="Rectangle_346" data-name="Rectangle 346" width="0.307" height="7.531" transform="translate(87.347 65.435)" fill="#565656"/>
      <rect id="Rectangle_347" data-name="Rectangle 347" width="0.307" height="7.531" transform="translate(88.663 65.435)" fill="#565656"/>
      <rect id="Rectangle_348" data-name="Rectangle 348" width="0.307" height="7.531" transform="translate(89.98 65.435)" fill="#565656"/>
      <rect id="Rectangle_349" data-name="Rectangle 349" width="0.307" height="7.531" transform="translate(91.296 65.435)" fill="#565656"/>
      <rect id="Rectangle_350" data-name="Rectangle 350" width="0.42" height="18.14" transform="translate(25.431 56.044)" fill="#767676"/>
      <path id="Tracé_1118" data-name="Tracé 1118" d="M77.11,329.579H63V312.571l14.109-.712Z" transform="translate(-51.594 -255.395)" fill="#bcbcbc"/>
      <path id="Tracé_1119" data-name="Tracé 1119" d="M77.1,309.54l-13.687.712-.411.42,14.1-.712Z" transform="translate(-51.594 -253.496)" fill="#767676"/>
      <path id="Tracé_1120" data-name="Tracé 1120" d="M81.251,335.741H69.494V319.778l11.757-.5Z" transform="translate(-56.912 -261.473)" fill="#99bccb"/>
      <path id="Tracé_1121" data-name="Tracé 1121" d="M70.879,337.654H69.031V321.7l1.847-.086Z" transform="translate(-56.533 -263.386)" fill="#ccd3d5"/>
      <line id="Ligne_184" data-name="Ligne 184" y2="16.46" transform="translate(18.419 57.808)" fill="none" stroke="#fff" stroke-width="0.464"/>
      <line id="Ligne_185" data-name="Ligne 185" x1="11.757" transform="translate(12.582 65.66)" fill="none" stroke="#fff" stroke-width="0.464"/>
      <path id="Tracé_1122" data-name="Tracé 1122" d="M75.725,369.582H60.939v-.126a.337.337,0,0,1,.337-.337H75.388a.337.337,0,0,1,.337.337Z" transform="translate(-49.906 -302.288)" fill="#565656"/>
      <rect id="Rectangle_351" data-name="Rectangle 351" width="0.307" height="7.531" transform="translate(11.033 67.294)" fill="#565656"/>
      <rect id="Rectangle_352" data-name="Rectangle 352" width="0.307" height="7.531" transform="translate(12.35 67.294)" fill="#565656"/>
      <rect id="Rectangle_353" data-name="Rectangle 353" width="0.307" height="7.531" transform="translate(13.666 67.294)" fill="#565656"/>
      <rect id="Rectangle_354" data-name="Rectangle 354" width="0.307" height="7.531" transform="translate(14.983 67.294)" fill="#565656"/>
      <rect id="Rectangle_355" data-name="Rectangle 355" width="0.307" height="7.531" transform="translate(16.299 67.294)" fill="#565656"/>
      <rect id="Rectangle_356" data-name="Rectangle 356" width="0.307" height="7.531" transform="translate(17.615 67.294)" fill="#565656"/>
      <rect id="Rectangle_357" data-name="Rectangle 357" width="0.307" height="7.531" transform="translate(18.932 67.294)" fill="#565656"/>
      <rect id="Rectangle_358" data-name="Rectangle 358" width="0.307" height="7.531" transform="translate(20.248 67.294)" fill="#565656"/>
      <rect id="Rectangle_359" data-name="Rectangle 359" width="0.307" height="7.531" transform="translate(21.564 67.294)" fill="#565656"/>
      <rect id="Rectangle_360" data-name="Rectangle 360" width="0.307" height="7.531" transform="translate(22.881 67.294)" fill="#565656"/>
      <rect id="Rectangle_361" data-name="Rectangle 361" width="0.307" height="7.531" transform="translate(24.197 67.294)" fill="#565656"/>
      <rect id="Rectangle_362" data-name="Rectangle 362" width="0.307" height="7.531" transform="translate(25.513 67.294)" fill="#565656"/>
      <path id="Tracé_1123" data-name="Tracé 1123" d="M106.558,397.259,0,400.256v-.967l106.558-3Z" transform="translate(0 -324.541)" fill="#767676"/>
      <path id="Tracé_1124" data-name="Tracé 1124" d="M611.831,397.754l-23.292-3.662v-.486l23.292,3.662Z" transform="translate(-481.98 -322.342)" fill="#ccd3d5"/>
      <path id="Tracé_1125" data-name="Tracé 1125" d="M611.831,400.921l-23.292-3.662v-.967l23.292,3.662Z" transform="translate(-481.98 -324.541)" fill="#767676"/>
      <path id="Tracé_1126" data-name="Tracé 1126" d="M611.831,251.3l-23.292-3.662v-.486l23.292,3.662Z" transform="translate(-481.98 -202.402)" fill="#ccd3d5"/>
      <path id="Tracé_1127" data-name="Tracé 1127" d="M611.831,254.464,588.539,250.8v-.967l23.292,3.662Z" transform="translate(-481.98 -204.601)" fill="#767676"/>
      <path id="Tracé_1128" data-name="Tracé 1128" d="M114.061,164.368H100.64l-.4.409h13.825Z" transform="translate(-82.088 -134.608)" fill="#f2a392"/>
      <rect id="Rectangle_363" data-name="Rectangle 363" width="0.409" height="17.831" transform="translate(31.973 29.76)" fill="#f2a392"/>
      <rect id="Rectangle_364" data-name="Rectangle 364" width="13.825" height="17.423" transform="translate(18.148 30.168)" fill="#fbe0db"/>
      <rect id="Rectangle_365" data-name="Rectangle 365" width="11.539" height="16.135" transform="translate(19.285 31.456)" fill="#99bccb"/>
      <rect id="Rectangle_366" data-name="Rectangle 366" width="1.78" height="16.135" transform="translate(19.285 31.456)" fill="#ccd3d5"/>
      <line id="Ligne_186" data-name="Ligne 186" y2="16.135" transform="translate(25.054 31.456)" fill="none" stroke="#fbe0db" stroke-width="0.529"/>
      <line id="Ligne_187" data-name="Ligne 187" x1="11.539" transform="translate(19.291 39.183)" fill="none" stroke="#fbe0db" stroke-width="0.529"/>
      <path id="Tracé_1129" data-name="Tracé 1129" d="M112.791,223.172H98.265v-.118a.337.337,0,0,1,.337-.337h13.852a.337.337,0,0,1,.337.337Z" transform="translate(-80.474 -182.394)" fill="#565656"/>
      <rect id="Rectangle_367" data-name="Rectangle 367" width="0.301" height="7.398" transform="translate(17.791 40.779)" fill="#565656"/>
      <rect id="Rectangle_368" data-name="Rectangle 368" width="0.301" height="7.398" transform="translate(19.085 40.779)" fill="#565656"/>
      <rect id="Rectangle_369" data-name="Rectangle 369" width="0.301" height="7.398" transform="translate(20.378 40.779)" fill="#565656"/>
      <rect id="Rectangle_370" data-name="Rectangle 370" width="0.301" height="7.398" transform="translate(21.671 40.779)" fill="#565656"/>
      <rect id="Rectangle_371" data-name="Rectangle 371" width="0.301" height="7.398" transform="translate(22.964 40.779)" fill="#565656"/>
      <rect id="Rectangle_372" data-name="Rectangle 372" width="0.301" height="7.398" transform="translate(24.257 40.779)" fill="#565656"/>
      <rect id="Rectangle_373" data-name="Rectangle 373" width="0.301" height="7.398" transform="translate(25.55 40.779)" fill="#565656"/>
      <rect id="Rectangle_374" data-name="Rectangle 374" width="0.301" height="7.398" transform="translate(26.843 40.779)" fill="#565656"/>
      <rect id="Rectangle_375" data-name="Rectangle 375" width="0.301" height="7.398" transform="translate(28.137 40.779)" fill="#565656"/>
      <rect id="Rectangle_376" data-name="Rectangle 376" width="0.301" height="7.398" transform="translate(29.43 40.779)" fill="#565656"/>
      <rect id="Rectangle_377" data-name="Rectangle 377" width="0.301" height="7.398" transform="translate(30.723 40.779)" fill="#565656"/>
      <rect id="Rectangle_378" data-name="Rectangle 378" width="0.301" height="7.398" transform="translate(32.016 40.779)" fill="#565656"/>
      <path id="Tracé_1130" data-name="Tracé 1130" d="M271.208,158.912H257.788l-.4.409h13.825Z" transform="translate(-210.783 -130.14)" fill="#f2a392"/>
      <rect id="Rectangle_379" data-name="Rectangle 379" width="0.409" height="17.831" transform="translate(60.425 28.772)" fill="#f2a392"/>
      <rect id="Rectangle_380" data-name="Rectangle 380" width="13.825" height="17.423" transform="translate(46.601 29.18)" fill="#fbe0db"/>
      <rect id="Rectangle_381" data-name="Rectangle 381" width="11.539" height="16.135" transform="translate(47.737 30.468)" fill="#99bccb"/>
      <rect id="Rectangle_382" data-name="Rectangle 382" width="1.78" height="16.135" transform="translate(47.737 30.468)" fill="#ccd3d5"/>
      <line id="Ligne_188" data-name="Ligne 188" y2="16.135" transform="translate(53.507 30.468)" fill="none" stroke="#fbe0db" stroke-width="0.529"/>
      <line id="Ligne_189" data-name="Ligne 189" x1="11.539" transform="translate(47.743 38.195)" fill="none" stroke="#fbe0db" stroke-width="0.529"/>
      <path id="Tracé_1131" data-name="Tracé 1131" d="M269.939,217.715H255.413V217.6a.337.337,0,0,1,.337-.337H269.6a.337.337,0,0,1,.337.337Z" transform="translate(-209.169 -177.925)" fill="#565656"/>
      <rect id="Rectangle_383" data-name="Rectangle 383" width="0.301" height="7.398" transform="translate(46.244 39.791)" fill="#565656"/>
      <rect id="Rectangle_384" data-name="Rectangle 384" width="0.301" height="7.398" transform="translate(47.537 39.791)" fill="#565656"/>
      <rect id="Rectangle_385" data-name="Rectangle 385" width="0.301" height="7.398" transform="translate(48.83 39.791)" fill="#565656"/>
      <rect id="Rectangle_386" data-name="Rectangle 386" width="0.301" height="7.398" transform="translate(50.124 39.791)" fill="#565656"/>
      <rect id="Rectangle_387" data-name="Rectangle 387" width="0.301" height="7.398" transform="translate(51.417 39.791)" fill="#565656"/>
      <rect id="Rectangle_388" data-name="Rectangle 388" width="0.301" height="7.398" transform="translate(52.71 39.791)" fill="#565656"/>
      <rect id="Rectangle_389" data-name="Rectangle 389" width="0.301" height="7.398" transform="translate(54.003 39.791)" fill="#565656"/>
      <rect id="Rectangle_390" data-name="Rectangle 390" width="0.301" height="7.398" transform="translate(55.296 39.791)" fill="#565656"/>
      <rect id="Rectangle_391" data-name="Rectangle 391" width="0.301" height="7.398" transform="translate(56.589 39.791)" fill="#565656"/>
      <rect id="Rectangle_392" data-name="Rectangle 392" width="0.301" height="7.398" transform="translate(57.882 39.791)" fill="#565656"/>
      <rect id="Rectangle_393" data-name="Rectangle 393" width="0.301" height="7.398" transform="translate(59.175 39.791)" fill="#565656"/>
      <rect id="Rectangle_394" data-name="Rectangle 394" width="0.301" height="7.398" transform="translate(60.468 39.791)" fill="#565656"/>
      <path id="Tracé_1132" data-name="Tracé 1132" d="M463.623,4.41h-1.715l.183-2.392h1.1Z" transform="translate(-378.277 -1.652)" fill="#78453a"/>
      <path id="Tracé_1133" data-name="Tracé 1133" d="M479.037,3.217h-1.715l.183-2.392h1.1Z" transform="translate(-390.9 -0.676)" fill="#78453a"/>
      <path id="Tracé_1134" data-name="Tracé 1134" d="M495.34,2.391h-1.715L493.808,0h1.1Z" transform="translate(-404.252 0.001)" fill="#78453a"/>
      <path id="Tracé_1135" data-name="Tracé 1135" d="M463.743,16.636h-8.7V10.39l8.7-.664Z" transform="translate(-372.655 -7.964)" fill="#ccd3d5"/>
      <path id="Tracé_1136" data-name="Tracé 1136" d="M503.1,16.635h2.2V10.389l-2.2-.664Z" transform="translate(-412.007 -7.964)" fill="#bcbcbc"/>
      <path id="Tracé_1137" data-name="Tracé 1137" d="M179.931,33.218h-1.715l.183-2.392h1.1Z" transform="translate(-145.949 -25.245)" fill="#78453a"/>
      <path id="Tracé_1138" data-name="Tracé 1138" d="M195.344,32.026H193.63l.183-2.392h1.1Z" transform="translate(-158.572 -24.268)" fill="#78453a"/>
      <path id="Tracé_1139" data-name="Tracé 1139" d="M211.647,31.2h-1.715l.183-2.392h1.1Z" transform="translate(-171.923 -23.592)" fill="#78453a"/>
      <path id="Tracé_1140" data-name="Tracé 1140" d="M180.05,45.444h-8.7V39.2l8.7-.664Z" transform="translate(-140.326 -31.557)" fill="#ccd3d5"/>
      <path id="Tracé_1141" data-name="Tracé 1141" d="M219.4,45.444h2.2V39.2l-2.2-.664Z" transform="translate(-179.679 -31.557)" fill="#bcbcbc"/>
      <path id="Tracé_1142" data-name="Tracé 1142" d="M440.564,153.889H427.144l-.4.409h13.825Z" transform="translate(-349.476 -126.026)" fill="#f2a392"/>
      <rect id="Rectangle_395" data-name="Rectangle 395" width="0.409" height="17.831" transform="translate(91.088 27.863)" fill="#f2a392"/>
      <rect id="Rectangle_396" data-name="Rectangle 396" width="13.825" height="17.423" transform="translate(77.264 28.271)" fill="#fbe0db"/>
      <rect id="Rectangle_397" data-name="Rectangle 397" width="11.539" height="16.135" transform="translate(78.4 29.559)" fill="#99bccb"/>
      <rect id="Rectangle_398" data-name="Rectangle 398" width="1.78" height="16.135" transform="translate(78.4 29.559)" fill="#ccd3d5"/>
      <line id="Ligne_190" data-name="Ligne 190" y2="16.135" transform="translate(84.17 29.559)" fill="none" stroke="#fbe0db" stroke-width="0.529"/>
      <line id="Ligne_191" data-name="Ligne 191" x1="11.539" transform="translate(78.406 37.285)" fill="none" stroke="#fbe0db" stroke-width="0.529"/>
      <path id="Tracé_1143" data-name="Tracé 1143" d="M439.294,212.692H424.768v-.118a.337.337,0,0,1,.337-.337h13.851a.337.337,0,0,1,.337.337Z" transform="translate(-347.861 -173.811)" fill="#565656"/>
      <rect id="Rectangle_399" data-name="Rectangle 399" width="0.301" height="7.398" transform="translate(76.907 38.881)" fill="#565656"/>
      <rect id="Rectangle_400" data-name="Rectangle 400" width="0.301" height="7.398" transform="translate(78.2 38.881)" fill="#565656"/>
      <rect id="Rectangle_401" data-name="Rectangle 401" width="0.301" height="7.398" transform="translate(79.493 38.881)" fill="#565656"/>
      <rect id="Rectangle_402" data-name="Rectangle 402" width="0.301" height="7.398" transform="translate(80.786 38.881)" fill="#565656"/>
      <rect id="Rectangle_403" data-name="Rectangle 403" width="0.301" height="7.398" transform="translate(82.079 38.881)" fill="#565656"/>
      <rect id="Rectangle_404" data-name="Rectangle 404" width="0.301" height="7.398" transform="translate(83.373 38.881)" fill="#565656"/>
      <rect id="Rectangle_405" data-name="Rectangle 405" width="0.301" height="7.398" transform="translate(84.666 38.881)" fill="#565656"/>
      <rect id="Rectangle_406" data-name="Rectangle 406" width="0.301" height="7.398" transform="translate(85.959 38.881)" fill="#565656"/>
      <rect id="Rectangle_407" data-name="Rectangle 407" width="0.301" height="7.398" transform="translate(87.252 38.881)" fill="#565656"/>
      <rect id="Rectangle_408" data-name="Rectangle 408" width="0.301" height="7.398" transform="translate(88.545 38.881)" fill="#565656"/>
      <rect id="Rectangle_409" data-name="Rectangle 409" width="0.301" height="7.398" transform="translate(89.838 38.881)" fill="#565656"/>
      <rect id="Rectangle_410" data-name="Rectangle 410" width="0.301" height="7.398" transform="translate(91.131 38.881)" fill="#565656"/>
      <path id="Tracé_1144" data-name="Tracé 1144" d="M111.242,247.636,5.719,250.579l.647-.486,104.876-2.943Z" transform="translate(-4.683 -202.402)" fill="#bcbcbc"/>
      <path id="Tracé_1145" data-name="Tracé 1145" d="M111.242,250.8,5.719,253.745v-.967l105.523-2.943Z" transform="translate(-4.683 -204.601)" fill="#767676"/>
      <rect id="Rectangle_411" data-name="Rectangle 411" width="4.782" height="1.652" transform="translate(97.84 22.077)" fill="#fbe0db"/>
      <rect id="Rectangle_412" data-name="Rectangle 412" width="4.782" height="1.652" transform="translate(95.297 23.729)" fill="#f2a392"/>
      <rect id="Rectangle_413" data-name="Rectangle 413" width="4.782" height="1.652" transform="translate(44.004 22.486)" fill="#fbe0db"/>
      <rect id="Rectangle_414" data-name="Rectangle 414" width="4.782" height="1.652" transform="translate(41.46 24.138)" fill="#f2a392"/>
      <rect id="Rectangle_415" data-name="Rectangle 415" width="4.782" height="1.652" transform="translate(96.568 39.791)" fill="#fbe0db"/>
      <rect id="Rectangle_416" data-name="Rectangle 416" width="4.782" height="1.652" transform="translate(97.214 41.443)" fill="#f2a392"/>
      <rect id="Rectangle_417" data-name="Rectangle 417" width="4.782" height="1.652" transform="translate(7.246 34.522)" fill="#fbe0db"/>
      <rect id="Rectangle_418" data-name="Rectangle 418" width="4.782" height="1.652" transform="translate(7.892 36.174)" fill="#f2a392"/>
      <rect id="Rectangle_419" data-name="Rectangle 419" width="4.782" height="1.652" transform="translate(67.574 28.934)" fill="#fbe0db"/>
      <rect id="Rectangle_420" data-name="Rectangle 420" width="4.782" height="1.652" transform="translate(65.03 30.586)" fill="#f2a392"/>
      <rect id="Rectangle_421" data-name="Rectangle 421" width="4.782" height="1.652" transform="translate(66.302 27.282)" fill="#f2a392"/>
      <rect id="Rectangle_422" data-name="Rectangle 422" width="4.782" height="1.652" transform="translate(67.574 55.989)" fill="#767676"/>
      <rect id="Rectangle_423" data-name="Rectangle 423" width="4.782" height="1.652" transform="translate(65.03 57.641)" fill="#ccd3d5"/>
      <rect id="Rectangle_424" data-name="Rectangle 424" width="4.782" height="1.652" transform="translate(66.302 54.337)" fill="#ccd3d5"/>
      <rect id="Rectangle_425" data-name="Rectangle 425" width="4.782" height="1.652" transform="translate(35.015 39.498)" fill="#fbe0db"/>
      <rect id="Rectangle_426" data-name="Rectangle 426" width="4.782" height="1.652" transform="translate(37.558 41.15)" fill="#f2a392"/>
      <rect id="Rectangle_427" data-name="Rectangle 427" width="4.782" height="1.652" transform="translate(36.287 37.846)" fill="#f2a392"/>
      <path id="Tracé_1146" data-name="Tracé 1146" d="M118.531,42.11,14.618,47.543,27.163,35.731l86.805-3.987Z" transform="translate(-11.971 -25.997)" fill="#78453a"/>
      <path id="Tracé_1147" data-name="Tracé 1147" d="M567.908,42.11,591.2,47.543,573.286,35.931l-9.94-4.186Z" transform="translate(-461.348 -25.997)" fill="#5a3932"/>
      <path id="Tracé_1148" data-name="Tracé 1148" d="M618.578,184.215l-1.18-.186-5.022-.791V168.28l5.947,1.865Z" transform="translate(-501.502 -137.812)" fill="#767676"/>
      <path id="Tracé_1149" data-name="Tracé 1149" d="M677.847,193.455l-1.18-.186-5.022-.791V177.52l5.947,1.865Z" transform="translate(-550.04 -145.379)" fill="#767676"/>
      <path id="Tracé_1150" data-name="Tracé 1150" d="M618.578,330.586l-1.18-.186-5.022-.791V314.651l5.947,1.865Z" transform="translate(-501.502 -257.682)" fill="#767676"/>
      <path id="Tracé_1151" data-name="Tracé 1151" d="M677.847,339.825l-1.18-.186-5.022-.791V323.891l5.947,1.865Z" transform="translate(-550.04 -265.249)" fill="#767676"/>
      <rect id="Rectangle_428" data-name="Rectangle 428" width="4.782" height="1.652" transform="translate(99.011 65.838)" fill="#767676"/>
      <rect id="Rectangle_429" data-name="Rectangle 429" width="4.782" height="1.652" transform="translate(97.739 64.186)" fill="#ccd3d5"/>
      <rect id="Rectangle_430" data-name="Rectangle 430" width="4.782" height="1.652" transform="translate(27.975 55.051)" fill="#767676"/>
      <rect id="Rectangle_431" data-name="Rectangle 431" width="4.782" height="1.652" transform="translate(26.704 53.399)" fill="#ccd3d5"/>
      <rect id="Rectangle_432" data-name="Rectangle 432" width="4.782" height="1.652" transform="translate(22.442 92.719)" fill="#767676"/>
      <rect id="Rectangle_433" data-name="Rectangle 433" width="4.782" height="1.652" transform="translate(21.17 91.066)" fill="#ccd3d5"/>
      <rect id="Rectangle_434" data-name="Rectangle 434" width="4.782" height="1.652" transform="translate(103.793 89.928)" fill="#767676"/>
      <rect id="Rectangle_435" data-name="Rectangle 435" width="4.782" height="1.652" transform="translate(102.521 88.276)" fill="#ccd3d5"/>
      <rect id="Rectangle_436" data-name="Rectangle 436" width="4.782" height="1.652" transform="translate(3.656 70.533)" fill="#767676"/>
      <rect id="Rectangle_437" data-name="Rectangle 437" width="4.782" height="1.652" transform="translate(2.384 68.881)" fill="#ccd3d5"/>
    </g>
  </g>
</svg>
