<svg id="Groupe_343" data-name="Groupe 343" xmlns="http://www.w3.org/2000/svg" xmlns:xlink="http://www.w3.org/1999/xlink" width="64.318" height="45.559" viewBox="0 0 64.318 45.559">
  <defs>
    <clipPath id="clip-path">
      <rect id="Rectangle_759" data-name="Rectangle 759" width="64.318" height="45.559" fill="none"/>
    </clipPath>
  </defs>
  <g id="Groupe_342" data-name="Groupe 342" clip-path="url(#clip-path)">
    <path id="Tracé_2903" data-name="Tracé 2903" d="M64.317,18.781v8.038c-.034.2-.084.405-.1.61-.261,3.483-.5,6.968-.782,10.449a7.128,7.128,0,0,1-5.984,6.142c-2.642.276-5.284.553-7.929.794-5.923.541-11.86.751-17.806.744A222.276,222.276,0,0,1,7.172,44.069a7.19,7.19,0,0,1-6.25-6.02C.54,34.074.228,30.086.073,26.1A123.192,123.192,0,0,1,.892,7.612,7.154,7.154,0,0,1,6.924,1.581C12.153,1.125,17.381.627,22.619.3A168.7,168.7,0,0,1,44.139.4c4.382.283,8.75.768,13.124,1.166A7.071,7.071,0,0,1,63.421,7.6c.319,3.436.527,6.882.787,10.323.022.288.072.574.109.861M26.829,12.1V33.5L42.883,22.8,26.829,12.1" transform="translate(0 0)" fill="#00b3dc"/>
  </g>
</svg>
