<svg id="Groupe_218" data-name="Groupe 218" xmlns="http://www.w3.org/2000/svg" xmlns:xlink="http://www.w3.org/1999/xlink" width="195.613" height="185.371" viewBox="0 0 195.613 185.371">
  <defs>
    <clipPath id="clip-path">
      <rect id="Rectangle_674" data-name="Rectangle 674" width="195.613" height="185.371" fill="none"/>
    </clipPath>
  </defs>
  <g id="Groupe_217" data-name="Groupe 217" clip-path="url(#clip-path)">
    <path id="Tracé_2181" data-name="Tracé 2181" d="M530.357,545.236s-11.242,7.953-11.364,15.905h-14.7s.884-11.635-9.278-15.905" transform="translate(-488.431 -375.956)" fill="#919191"/>
    <path id="Tracé_2182" data-name="Tracé 2182" d="M526.089,545.236s-11.242,7.953-11.365,15.905h-14.7s.884-11.635-9.278-15.905" transform="translate(-482.837 -375.956)" fill="#d7d7d7"/>
    <path id="Tracé_2183" data-name="Tracé 2183" d="M450.97,561.141s-11.242-7.953-11.364-15.905H424.9s.884,11.635-9.278,15.905" transform="translate(-384.396 -375.956)" fill="#919191"/>
    <path id="Tracé_2184" data-name="Tracé 2184" d="M446.7,561.141s-11.242-7.953-11.365-15.905h-14.7s.884,11.635-9.278,15.905" transform="translate(-378.801 -375.956)" fill="#d7d7d7"/>
    <path id="Tracé_2185" data-name="Tracé 2185" d="M378.1,545.236s-11.242,7.953-11.364,15.905h-14.7s.884-11.635-9.278-15.905" transform="translate(-288.907 -375.956)" fill="#919191"/>
    <path id="Tracé_2186" data-name="Tracé 2186" d="M373.834,545.236s-11.242,7.953-11.364,15.905h-14.7s.884-11.635-9.278-15.905" transform="translate(-283.313 -375.956)" fill="#d7d7d7"/>
    <path id="Tracé_2187" data-name="Tracé 2187" d="M302.2,561.141s-11.242-7.953-11.364-15.905h-14.7s.884,11.635-9.278,15.905" transform="translate(-189.438 -375.956)" fill="#919191"/>
    <path id="Tracé_2188" data-name="Tracé 2188" d="M297.931,561.141s-11.242-7.953-11.364-15.905h-14.7s.884,11.635-9.278,15.905" transform="translate(-183.844 -375.956)" fill="#d7d7d7"/>
    <path id="Tracé_2189" data-name="Tracé 2189" d="M220.75,545.236s-11.242,7.953-11.364,15.905h-14.7s.884-11.635-9.278-15.905" transform="translate(-82.699 -375.956)" fill="#919191"/>
    <path id="Tracé_2190" data-name="Tracé 2190" d="M216.48,545.236s-11.242,7.953-11.364,15.905h-14.7s.884-11.635-9.278-15.905" transform="translate(-77.105 -375.956)" fill="#d7d7d7"/>
    <path id="Tracé_2191" data-name="Tracé 2191" d="M135.366,561.141S124.125,553.189,124,545.236H109.3s.884,11.635-9.278,15.905" transform="translate(29.193 -375.956)" fill="#919191"/>
    <path id="Tracé_2192" data-name="Tracé 2192" d="M131.1,561.141s-11.242-7.953-11.364-15.905h-14.7s.884,11.635-9.278,15.905" transform="translate(34.788 -375.956)" fill="#d7d7d7"/>
    <path id="Tracé_2193" data-name="Tracé 2193" d="M30.369,33.449h35.2L62.744,14.716,30.369,0Z" transform="translate(120.617 0)" fill="#d7d7d7"/>
    <path id="Tracé_2194" data-name="Tracé 2194" d="M292.486,33.449,145.909,98.8,143.74,83.381,292.486,0Z" transform="translate(-141.5 0)" fill="#bcbcbc"/>
    <path id="Tracé_2195" data-name="Tracé 2195" d="M299.085,55.6,161.247,114.847l-2.169-15.416L299.085,22.149Z" transform="translate(-152.861 -15.273)" fill="#fff"/>
    <path id="Tracé_2196" data-name="Tracé 2196" d="M0,184.738H42.271L38.88,39.822,0,22.149Z" transform="translate(153.342 -15.272)" fill="#fff"/>
    <path id="Tracé_2197" data-name="Tracé 2197" d="M289.493,184.738H137.949l-1.8-76.865L289.493,22.149Z" transform="translate(-136.151 -15.272)" fill="#d7d7d7"/>
    <path id="Tracé_2198" data-name="Tracé 2198" d="M10.8,519.749v5.3H46.738v-4.743l-.876-.013Z" transform="translate(145.52 -358.382)" fill="#02b196"/>
    <path id="Tracé_2199" data-name="Tracé 2199" d="M10.8,519.749v1.178l35.935.514v-1.134Z" transform="translate(145.52 -358.382)" fill="#bcbcbc"/>
    <path id="Tracé_2200" data-name="Tracé 2200" d="M10.8,494.611v5.3l34.984.908.951.024V496.1Z" transform="translate(145.52 -341.049)" fill="#ffd602"/>
    <path id="Tracé_2201" data-name="Tracé 2201" d="M10.8,495.789l35.063,1.4-.078,3.63v.024h.951V496.1L10.8,494.611Z" transform="translate(145.52 -341.049)" fill="#bcbcbc"/>
    <path id="Tracé_2202" data-name="Tracé 2202" d="M10.8,469.472v5.3l34.984,1.463.951.039-.085-4.737Z" transform="translate(145.52 -323.715)" fill="#f06d50"/>
    <path id="Tracé_2203" data-name="Tracé 2203" d="M10.8,440.537v5.3l35.935,2.681-.085-4.737Z" transform="translate(145.52 -303.763)" fill="#00b3dc"/>
    <path id="Tracé_2204" data-name="Tracé 2204" d="M10.8,411.6v5.3l35.935,2.681-.085-4.737Z" transform="translate(145.52 -283.811)" fill="#f06d50"/>
    <path id="Tracé_2205" data-name="Tracé 2205" d="M10.665,382.665v5.3l35.978,3.86-.085-4.737Z" transform="translate(145.658 -263.859)" fill="#d5162a"/>
    <path id="Tracé_2206" data-name="Tracé 2206" d="M11.265,353.73v5.3l35.978,3.86-.086-4.737Z" transform="translate(144.873 -243.907)" fill="#02b196"/>
    <path id="Tracé_2207" data-name="Tracé 2207" d="M11.864,321.7v5.3l35.978,5.005-.086-4.737Z" transform="translate(144.087 -221.824)" fill="#ffd602"/>
    <path id="Tracé_2208" data-name="Tracé 2208" d="M11.864,288.436v5.3l35.978,6.7-.086-4.737Z" transform="translate(144.087 -198.885)" fill="#d5162a"/>
    <path id="Tracé_2209" data-name="Tracé 2209" d="M11.864,261.151v5.3l35.978,6.7-.086-4.737Z" transform="translate(144.087 -180.071)" fill="#f06d50"/>
    <path id="Tracé_2210" data-name="Tracé 2210" d="M13.063,228.843v5.3l35.606,7.031-.086-4.737Z" transform="translate(142.888 -157.794)" fill="#02b196"/>
    <path id="Tracé_2211" data-name="Tracé 2211" d="M14.262,196.349v5.3L49.5,208.681l-.086-4.737Z" transform="translate(141.689 -135.389)" fill="#ffd602"/>
    <path id="Tracé_2212" data-name="Tracé 2212" d="M14.861,163.145v5.3l35.048,8.147-.086-4.737Z" transform="translate(141.09 -112.493)" fill="#d5162a"/>
    <path id="Tracé_2213" data-name="Tracé 2213" d="M15.461,132.6v5.3L50.323,146.6l-.086-4.737Z" transform="translate(140.49 -91.428)" fill="#f06d50"/>
    <path id="Tracé_2214" data-name="Tracé 2214" d="M16.06,101.865v5.3l34.676,9.45-.086-4.737Z" transform="translate(139.891 -70.239)" fill="#00b3dc"/>
    <path id="Tracé_2215" data-name="Tracé 2215" d="M16.66,66.443v5.3L51.149,83.987l-.086-4.737Z" transform="translate(139.291 -45.814)" fill="#f06d50"/>
    <path id="Tracé_2216" data-name="Tracé 2216" d="M16.66,35.136v5.3l34.489,14.1L51.064,49.8Z" transform="translate(139.291 -24.227)" fill="#00b3dc"/>
    <path id="Tracé_2217" data-name="Tracé 2217" d="M290.136,519.749v5.3l-146.242,1.473-.154-3.387Z" transform="translate(-139.15 -358.382)" fill="#02b196"/>
    <path id="Tracé_2218" data-name="Tracé 2218" d="M290.054,494.611v5.3L143.74,504.4v-2.835Z" transform="translate(-139.068 -341.049)" fill="#ffd602"/>
    <path id="Tracé_2219" data-name="Tracé 2219" d="M290.037,469.472v5.3l-146.242,8.245L143.74,480Z" transform="translate(-139.051 -323.715)" fill="#f06d50"/>
    <path id="Tracé_2220" data-name="Tracé 2220" d="M290.083,440.537v5.3L143.8,458.11l-.059-3.242Z" transform="translate(-139.097 -303.763)" fill="#00b3dc"/>
    <path id="Tracé_2221" data-name="Tracé 2221" d="M290.734,411.6v5.3l-146.941,16.25-.053-2.919Z" transform="translate(-139.748 -283.811)" fill="#f06d50"/>
    <path id="Tracé_2222" data-name="Tracé 2222" d="M290.206,382.665v5.3L143.793,408.73l-.053-2.944Z" transform="translate(-139.221 -263.859)" fill="#d5162a"/>
    <path id="Tracé_2223" data-name="Tracé 2223" d="M291.925,353.73v5.3L144.4,384.256l-.057-3.136Z" transform="translate(-141.125 -243.907)" fill="#02b196"/>
    <path id="Tracé_2224" data-name="Tracé 2224" d="M291.586,321.7v5.3l-146.6,29.9-.049-2.725Z" transform="translate(-140.973 -221.825)" fill="#ffd602"/>
    <path id="Tracé_2225" data-name="Tracé 2225" d="M292.364,288.436v5.3L145,329.176l-.057-3.168Z" transform="translate(-141.75 -198.885)" fill="#d5162a"/>
    <path id="Tracé_2226" data-name="Tracé 2226" d="M291.613,261.151v5.3L144.991,304.84l-.052-2.871Z" transform="translate(-140.999 -180.071)" fill="#f06d50"/>
    <path id="Tracé_2227" data-name="Tracé 2227" d="M292.385,228.843v5.3l-147.4,43.129-.043-2.369Z" transform="translate(-141.772 -157.794)" fill="#02b196"/>
    <path id="Tracé_2228" data-name="Tracé 2228" d="M293,196.349v5.3L144.99,250.585l-.051-2.8Z" transform="translate(-142.382 -135.389)" fill="#ffd602"/>
    <path id="Tracé_2229" data-name="Tracé 2229" d="M293.05,163.145v5.3L144.994,222.414l-.055-3.046Z" transform="translate(-142.437 -112.493)" fill="#d5162a"/>
    <path id="Tracé_2230" data-name="Tracé 2230" d="M293.9,132.6v5.3L144.982,196.721l-.043-2.369Z" transform="translate(-143.282 -91.428)" fill="#f06d50"/>
    <path id="Tracé_2231" data-name="Tracé 2231" d="M294,101.865v5.3L144.982,171.714l-.043-2.358Z" transform="translate(-143.391 -70.239)" fill="#00b3dc"/>
    <path id="Tracé_2232" data-name="Tracé 2232" d="M294.068,66.443v5.3l-149,72.247-.128-2.142Z" transform="translate(-143.455 -45.814)" fill="#f06d50"/>
    <path id="Tracé_2233" data-name="Tracé 2233" d="M294.086,35.136v5.3L144.974,119.124l-.035-1.942Z" transform="translate(-143.472 -24.227)" fill="#00b3dc"/>
    <path id="Tracé_2234" data-name="Tracé 2234" d="M10.8,470.651l35.063,1.971-.078,3.615.951.039-.085-4.737L10.8,469.472Z" transform="translate(145.52 -323.715)" fill="#bcbcbc"/>
    <path id="Tracé_2235" data-name="Tracé 2235" d="M10.8,441.715l35.063,3.15-.078,3.615.951.039-.085-4.737L10.8,440.537Z" transform="translate(145.52 -303.763)" fill="#bcbcbc"/>
    <path id="Tracé_2236" data-name="Tracé 2236" d="M10.8,412.779l35.063,3.15-.078,3.615.951.039-.085-4.737L10.8,411.6Z" transform="translate(145.52 -283.811)" fill="#bcbcbc"/>
    <path id="Tracé_2237" data-name="Tracé 2237" d="M10.665,383.844l35.106,4.329-.077,3.552.95.1-.085-4.737-35.893-4.424Z" transform="translate(145.658 -263.859)" fill="#bcbcbc"/>
    <path id="Tracé_2238" data-name="Tracé 2238" d="M11.265,354.908l35.105,4.329-.077,3.552.95.1-.086-4.737L11.265,353.73Z" transform="translate(144.873 -243.907)" fill="#bcbcbc"/>
    <path id="Tracé_2239" data-name="Tracé 2239" d="M11.864,322.882l35.105,5.475-.076,3.522.949.132-.086-4.737L11.864,321.7Z" transform="translate(144.087 -221.825)" fill="#bcbcbc"/>
    <path id="Tracé_2240" data-name="Tracé 2240" d="M11.864,289.614l35.105,7.168-.076,3.522.949.132-.086-4.737-35.893-7.263Z" transform="translate(144.087 -198.885)" fill="#bcbcbc"/>
    <path id="Tracé_2241" data-name="Tracé 2241" d="M11.864,262.329,46.969,269.5l-.076,3.522.949.132-.086-4.737-35.893-7.263Z" transform="translate(144.087 -180.071)" fill="#bcbcbc"/>
    <path id="Tracé_2242" data-name="Tracé 2242" d="M13.063,230.021l34.733,7.5-.076,3.522.949.132-.086-4.737-35.52-7.595Z" transform="translate(142.888 -157.794)" fill="#bcbcbc"/>
    <path id="Tracé_2243" data-name="Tracé 2243" d="M14.262,197.528l34.361,7.5-.076,3.522.949.132-.086-4.737-35.148-7.595Z" transform="translate(141.689 -135.389)" fill="#bcbcbc"/>
    <path id="Tracé_2244" data-name="Tracé 2244" d="M14.861,164.323l34.175,8.617-.074,3.434.947.22-.086-4.737-34.962-8.712Z" transform="translate(141.09 -112.493)" fill="#bcbcbc"/>
    <path id="Tracé_2245" data-name="Tracé 2245" d="M15.461,133.774l33.988,9.175-.074,3.434.947.22-.086-4.737L15.461,132.6Z" transform="translate(140.49 -91.428)" fill="#bcbcbc"/>
    <path id="Tracé_2246" data-name="Tracé 2246" d="M16.06,103.043l33.8,9.92-.074,3.434.947.22-.086-4.737L16.06,101.865Z" transform="translate(139.891 -70.239)" fill="#bcbcbc"/>
    <path id="Tracé_2247" data-name="Tracé 2247" d="M16.66,67.621,50.276,80.333,50.2,83.652l.945.335-.086-4.737L16.66,66.443Z" transform="translate(139.291 -45.815)" fill="#bcbcbc"/>
    <path id="Tracé_2248" data-name="Tracé 2248" d="M16.66,36.314,50.276,50.887l-.07,3.268.944.386L51.064,49.8,16.66,35.136Z" transform="translate(139.291 -24.227)" fill="#bcbcbc"/>
    <rect id="Rectangle_596" data-name="Rectangle 596" width="1.08" height="7.167" transform="translate(182.993 160.924)" fill="#fff"/>
    <rect id="Rectangle_597" data-name="Rectangle 597" width="1.08" height="4.455" transform="translate(181.913 162.213)" fill="#bcbcbc"/>
    <rect id="Rectangle_598" data-name="Rectangle 598" width="1.08" height="7.167" transform="translate(164.903 160.924)" fill="#fff"/>
    <rect id="Rectangle_599" data-name="Rectangle 599" width="1.08" height="4.455" transform="translate(163.823 162.213)" fill="#bcbcbc"/>
    <rect id="Rectangle_600" data-name="Rectangle 600" width="1.08" height="7.167" transform="translate(187.706 137.434)" fill="#fff"/>
    <path id="Tracé_2249" data-name="Tracé 2249" d="M25.468,455.272l1.08.069v-4.455h-1.08Z" transform="translate(161.158 -310.899)" fill="#bcbcbc"/>
    <rect id="Rectangle_601" data-name="Rectangle 601" width="1.08" height="7.167" transform="translate(169.517 137.238)" fill="#fff"/>
    <path id="Tracé_2250" data-name="Tracé 2250" d="M84.05,450.637l1.08.078v-4.533H84.05Z" transform="translate(84.387 -307.656)" fill="#bcbcbc"/>
    <rect id="Rectangle_602" data-name="Rectangle 602" width="1.08" height="7.167" transform="translate(180.925 129.118)" fill="#fff"/>
    <path id="Tracé_2251" data-name="Tracé 2251" d="M47.307,424.485l1.08.078V420.03h-1.08Z" transform="translate(132.538 -289.623)" fill="#bcbcbc"/>
    <rect id="Rectangle_603" data-name="Rectangle 603" width="1.08" height="7.167" transform="translate(159.11 127.48)" fill="#fff"/>
    <path id="Tracé_2252" data-name="Tracé 2252" d="M117.571,419.208l1.08.078v-4.533h-1.08Z" transform="translate(40.459 -285.985)" fill="#bcbcbc"/>
    <rect id="Rectangle_604" data-name="Rectangle 604" width="1.08" height="7.167" transform="translate(170.598 119.803)" fill="#fff"/>
    <path id="Tracé_2253" data-name="Tracé 2253" d="M80.572,394.482l1.08.078v-4.533h-1.08Z" transform="translate(88.946 -268.935)" fill="#bcbcbc"/>
    <rect id="Rectangle_605" data-name="Rectangle 605" width="1.08" height="7.167" transform="translate(164.375 110.187)" fill="#fff"/>
    <path id="Tracé_2254" data-name="Tracé 2254" d="M100.613,363.507l1.08.078v-4.533h-1.08Z" transform="translate(62.682 -247.577)" fill="#bcbcbc"/>
    <rect id="Rectangle_606" data-name="Rectangle 606" width="1.08" height="7.167" transform="translate(181.238 112.027)" fill="#fff"/>
    <path id="Tracé_2255" data-name="Tracé 2255" d="M46.3,369.436l1.08.078v-4.533H46.3Z" transform="translate(133.859 -251.666)" fill="#bcbcbc"/>
    <rect id="Rectangle_607" data-name="Rectangle 607" width="1.08" height="7.167" transform="translate(170.205 101.41)" fill="#fff"/>
    <path id="Tracé_2256" data-name="Tracé 2256" d="M81.836,335.1l1.08.15v-4.465h-1.08Z" transform="translate(87.288 -228.087)" fill="#bcbcbc"/>
    <rect id="Rectangle_608" data-name="Rectangle 608" width="1.08" height="7.167" transform="translate(186.454 103.648)" fill="#fff"/>
    <path id="Tracé_2257" data-name="Tracé 2257" d="M29.5,342.331l1.08.15v-4.488H29.5Z" transform="translate(155.874 -233.057)" fill="#bcbcbc"/>
    <rect id="Rectangle_609" data-name="Rectangle 609" width="1.08" height="7.167" transform="translate(159.343 89.699)" fill="#fff"/>
    <path id="Tracé_2258" data-name="Tracé 2258" d="M116.82,297.4l1.08.15v-4.488h-1.08Z" transform="translate(41.443 -202.076)" fill="#bcbcbc"/>
    <rect id="Rectangle_610" data-name="Rectangle 610" width="1.08" height="7.167" transform="translate(185.374 86.091)" fill="#fff"/>
    <path id="Tracé_2259" data-name="Tracé 2259" d="M32.978,285.731l1.08.2v-4.488h-1.08Z" transform="translate(151.316 -194.063)" fill="#bcbcbc"/>
    <rect id="Rectangle_611" data-name="Rectangle 611" width="1.08" height="7.167" transform="translate(180.477 75.419)" fill="#fff"/>
    <path id="Tracé_2260" data-name="Tracé 2260" d="M48.75,251.356l1.08.2v-4.488H48.75Z" transform="translate(130.647 -170.36)" fill="#bcbcbc"/>
    <rect id="Rectangle_612" data-name="Rectangle 612" width="1.08" height="7.167" transform="translate(173.067 73.954)" fill="#fff"/>
    <path id="Tracé_2261" data-name="Tracé 2261" d="M72.616,246.639l1.08.2V242.35h-1.08Z" transform="translate(99.371 -167.108)" fill="#bcbcbc"/>
    <rect id="Rectangle_613" data-name="Rectangle 613" width="1.08" height="7.167" transform="translate(177.375 64.786)" fill="#fff"/>
    <path id="Tracé_2262" data-name="Tracé 2262" d="M58.741,217.11l1.08.2v-4.488h-1.08Z" transform="translate(117.554 -146.747)" fill="#bcbcbc"/>
    <rect id="Rectangle_614" data-name="Rectangle 614" width="1.08" height="7.167" transform="translate(158.558 61.006)" fill="#fff"/>
    <path id="Tracé_2263" data-name="Tracé 2263" d="M119.35,204.935l1.08.2v-4.488h-1.08Z" transform="translate(38.128 -138.352)" fill="#bcbcbc"/>
    <rect id="Rectangle_615" data-name="Rectangle 615" width="1.08" height="7.167" transform="translate(162.909 51.75)" fill="#fff"/>
    <path id="Tracé_2264" data-name="Tracé 2264" d="M105.337,175.122l1.08.243v-4.532h-1.08Z" transform="translate(56.492 -117.795)" fill="#bcbcbc"/>
    <rect id="Rectangle_616" data-name="Rectangle 616" width="1.08" height="7.167" transform="translate(186.03 57.126)" fill="#fff"/>
    <path id="Tracé_2265" data-name="Tracé 2265" d="M30.863,192.436l1.08.243v-4.532h-1.08Z" transform="translate(154.087 -129.733)" fill="#bcbcbc"/>
    <rect id="Rectangle_617" data-name="Rectangle 617" width="1.08" height="7.167" transform="translate(179.698 46.669)" fill="#fff"/>
    <path id="Tracé_2266" data-name="Tracé 2266" d="M51.26,158.757l1.08.243v-4.532H51.26Z" transform="translate(127.357 -106.51)" fill="#bcbcbc"/>
    <rect id="Rectangle_618" data-name="Rectangle 618" width="1.08" height="7.167" transform="translate(180.778 28.923)" fill="#fff"/>
    <path id="Tracé_2267" data-name="Tracé 2267" d="M47.782,101.6l1.08.3V97.308h-1.08Z" transform="translate(131.916 -67.097)" fill="#bcbcbc"/>
    <rect id="Rectangle_619" data-name="Rectangle 619" width="1.08" height="7.167" transform="translate(163.105 22.737)" fill="#fff"/>
    <path id="Tracé_2268" data-name="Tracé 2268" d="M104.7,81.674l1.08.3V77.385H104.7Z" transform="translate(57.321 -53.36)" fill="#bcbcbc"/>
    <rect id="Rectangle_620" data-name="Rectangle 620" width="1.08" height="7.167" transform="translate(175.875 18.51)" fill="#fff"/>
    <path id="Tracé_2269" data-name="Tracé 2269" d="M63.574,68.06l1.08.3V63.771h-1.08Z" transform="translate(111.221 -43.972)" fill="#bcbcbc"/>
    <rect id="Rectangle_621" data-name="Rectangle 621" width="1.08" height="7.167" transform="translate(174.126 153.38)" fill="#fff"/>
    <rect id="Rectangle_622" data-name="Rectangle 622" width="1.08" height="4.455" transform="translate(173.046 154.871)" fill="#bcbcbc"/>
    <rect id="Rectangle_623" data-name="Rectangle 623" width="1.08" height="7.167" transform="translate(181.913 146.395)" fill="#fff"/>
    <rect id="Rectangle_624" data-name="Rectangle 624" width="1.08" height="4.455" transform="translate(180.833 147.683)" fill="#bcbcbc"/>
    <rect id="Rectangle_625" data-name="Rectangle 625" width="1.08" height="7.167" transform="translate(160.264 145.508)" fill="#fff"/>
    <rect id="Rectangle_626" data-name="Rectangle 626" width="1.08" height="4.455" transform="translate(159.184 146.796)" fill="#bcbcbc"/>
    <path id="Tracé_2270" data-name="Tracé 2270" d="M143.74,523.136l.035.775,146.361-3.028v-1.133Z" transform="translate(-139.151 -358.382)" fill="#919191"/>
    <path id="Tracé_2271" data-name="Tracé 2271" d="M143.74,501.568v.776l146.314-6.6v-1.134Z" transform="translate(-139.067 -341.049)" fill="#919191"/>
    <path id="Tracé_2272" data-name="Tracé 2272" d="M143.74,480v.777l146.3-10.17v-1.134Z" transform="translate(-139.051 -323.715)" fill="#919191"/>
    <path id="Tracé_2273" data-name="Tracé 2273" d="M143.74,454.869v.776l146.343-13.975v-1.134Z" transform="translate(-139.097 -303.763)" fill="#919191"/>
    <path id="Tracé_2274" data-name="Tracé 2274" d="M143.74,430.233v.776l146.993-18.275V411.6Z" transform="translate(-139.748 -283.811)" fill="#919191"/>
    <path id="Tracé_2275" data-name="Tracé 2275" d="M143.741,405.786v.777L290.207,383.8v-1.134Z" transform="translate(-139.221 -263.859)" fill="#919191"/>
    <path id="Tracé_2276" data-name="Tracé 2276" d="M144.34,381.12v.776l147.585-27.033V353.73Z" transform="translate(-141.125 -243.907)" fill="#919191"/>
    <path id="Tracé_2277" data-name="Tracé 2277" d="M144.939,354.178v.776l146.647-32.117V321.7Z" transform="translate(-140.973 -221.824)" fill="#919191"/>
    <path id="Tracé_2278" data-name="Tracé 2278" d="M144.939,326.009v.776L292.364,289.57v-1.134Z" transform="translate(-141.75 -198.885)" fill="#919191"/>
    <path id="Tracé_2279" data-name="Tracé 2279" d="M144.939,301.968v.777l146.673-40.46v-1.134Z" transform="translate(-140.999 -180.071)" fill="#919191"/>
    <path id="Tracé_2280" data-name="Tracé 2280" d="M144.939,274.9v.776l147.446-45.7v-1.134Z" transform="translate(-141.772 -157.794)" fill="#919191"/>
    <path id="Tracé_2281" data-name="Tracé 2281" d="M144.939,247.886v.776l148.056-51.034V196.5Z" transform="translate(-142.381 -135.489)" fill="#919191"/>
    <path id="Tracé_2282" data-name="Tracé 2282" d="M144.939,219.367v.776L293.05,164.278v-1.134Z" transform="translate(-142.436 -112.493)" fill="#919191"/>
    <path id="Tracé_2283" data-name="Tracé 2283" d="M144.939,194.352v.776l148.956-61.4V132.6Z" transform="translate(-143.281 -91.428)" fill="#919191"/>
    <path id="Tracé_2284" data-name="Tracé 2284" d="M144.939,169.356v.776L294,103v-1.134Z" transform="translate(-143.391 -70.239)" fill="#919191"/>
    <path id="Tracé_2285" data-name="Tracé 2285" d="M144.939,141.811v.776L294.068,67.52V66.387Z" transform="translate(-143.455 -45.776)" fill="#919191"/>
    <path id="Tracé_2286" data-name="Tracé 2286" d="M144.939,117.182v.776L294.086,36.269V35.136Z" transform="translate(-143.473 -24.227)" fill="#919191"/>
    <rect id="Rectangle_627" data-name="Rectangle 627" width="1.08" height="7.167" transform="translate(107.639 75.568)" fill="#d7d7d7"/>
    <path id="Tracé_2287" data-name="Tracé 2287" d="M276.4,249.5l1.08-.436v-4.124l-1.08.271Z" transform="translate(-167.682 -168.891)" fill="#919191"/>
    <rect id="Rectangle_628" data-name="Rectangle 628" width="1.08" height="4.148" transform="translate(39.696 98.776)" fill="#d7d7d7"/>
    <path id="Tracé_2288" data-name="Tracé 2288" d="M495.236,322.923l1.08-.341v-3.227l-1.08.212Z" transform="translate(-454.459 -220.205)" fill="#919191"/>
    <rect id="Rectangle_629" data-name="Rectangle 629" width="1.08" height="4.202" transform="translate(5.136 110.258)" fill="#d7d7d7"/>
    <path id="Tracé_2289" data-name="Tracé 2289" d="M606.551,360.1l1.08-.328v-3.1l-1.08.2Z" transform="translate(-600.335 -245.936)" fill="#919191"/>
    <rect id="Rectangle_630" data-name="Rectangle 630" width="1.08" height="4.202" transform="translate(13.163 113.095)" fill="#d7d7d7"/>
    <path id="Tracé_2290" data-name="Tracé 2290" d="M580.7,369.239l1.08-.328v-3.1l-1.08.2Z" transform="translate(-566.456 -252.237)" fill="#919191"/>
    <rect id="Rectangle_631" data-name="Rectangle 631" width="1.08" height="4.202" transform="translate(58.597 99.31)" fill="#d7d7d7"/>
    <path id="Tracé_2291" data-name="Tracé 2291" d="M434.361,324.838l1.08-.328v-3.1l-1.08.2Z" transform="translate(-374.684 -221.621)" fill="#919191"/>
    <rect id="Rectangle_632" data-name="Rectangle 632" width="1.08" height="6.319" transform="translate(135.62 75.114)" fill="#d7d7d7"/>
    <path id="Tracé_2292" data-name="Tracé 2292" d="M186.273,249.41l1.08-.493v-4.664l-1.08.306Z" transform="translate(-49.573 -168.42)" fill="#919191"/>
    <rect id="Rectangle_633" data-name="Rectangle 633" width="1.08" height="6.319" transform="translate(139.204 83.65)" fill="#d7d7d7"/>
    <path id="Tracé_2293" data-name="Tracé 2293" d="M174.731,276.9l1.08-.493v-4.664l-1.08.306Z" transform="translate(-34.447 -187.377)" fill="#919191"/>
    <rect id="Rectangle_634" data-name="Rectangle 634" width="1.08" height="6.319" transform="translate(88.988 96.734)" fill="#d7d7d7"/>
    <path id="Tracé_2294" data-name="Tracé 2294" d="M336.471,319.044l1.08-.493v-4.664l-1.08.306Z" transform="translate(-246.403 -216.435)" fill="#919191"/>
    <rect id="Rectangle_635" data-name="Rectangle 635" width="1.08" height="4.623" transform="translate(33.364 112.586)" fill="#d7d7d7"/>
    <path id="Tracé_2295" data-name="Tracé 2295" d="M515.633,368.1l1.08-.36v-3.412l-1.08.224Z" transform="translate(-481.189 -251.212)" fill="#919191"/>
    <rect id="Rectangle_636" data-name="Rectangle 636" width="1.08" height="4.117" transform="translate(14.243 123.673)" fill="#d7d7d7"/>
    <path id="Tracé_2296" data-name="Tracé 2296" d="M577.22,403.21l1.08-.321v-3.039l-1.08.2Z" transform="translate(-561.897 -275.709)" fill="#919191"/>
    <rect id="Rectangle_637" data-name="Rectangle 637" width="1.08" height="4.737" transform="translate(67.678 110.311)" fill="#d7d7d7"/>
    <path id="Tracé_2297" data-name="Tracé 2297" d="M405.109,360.906l1.08-.369v-3.5l-1.08.229Z" transform="translate(-336.35 -246.189)" fill="#919191"/>
    <rect id="Rectangle_638" data-name="Rectangle 638" width="1.08" height="5.809" transform="translate(129.975 94.365)" fill="#d7d7d7"/>
    <path id="Tracé_2298" data-name="Tracé 2298" d="M204.457,310.811l1.08-.453V306.07l-1.08.281Z" transform="translate(-73.402 -211.045)" fill="#919191"/>
    <rect id="Rectangle_639" data-name="Rectangle 639" width="1.08" height="5.809" transform="translate(105.233 109.386)" fill="#d7d7d7"/>
    <path id="Tracé_2299" data-name="Tracé 2299" d="M284.148,359.2l1.08-.453v-4.288l-1.08.281Z" transform="translate(-177.836 -244.407)" fill="#919191"/>
    <rect id="Rectangle_640" data-name="Rectangle 640" width="1.08" height="5.809" transform="translate(132.135 112.997)" fill="#d7d7d7"/>
    <path id="Tracé_2300" data-name="Tracé 2300" d="M197.5,370.825l1.08-.453v-4.288l-1.08.281Z" transform="translate(-64.285 -252.426)" fill="#919191"/>
    <rect id="Rectangle_641" data-name="Rectangle 641" width="1.08" height="5.809" transform="translate(120.009 123.361)" fill="#d7d7d7"/>
    <path id="Tracé_2301" data-name="Tracé 2301" d="M236.555,404.206l1.08-.453v-4.288l-1.08.281Z" transform="translate(-115.466 -275.443)" fill="#919191"/>
    <rect id="Rectangle_642" data-name="Rectangle 642" width="1.08" height="5.081" transform="translate(80.589 129.432)" fill="#d7d7d7"/>
    <path id="Tracé_2302" data-name="Tracé 2302" d="M363.524,422.9l1.08-.4v-3.75l-1.08.246Z" transform="translate(-281.854 -288.743)" fill="#919191"/>
    <rect id="Rectangle_643" data-name="Rectangle 643" width="1.08" height="3.862" transform="translate(16.918 144.415)" fill="#d7d7d7"/>
    <path id="Tracé_2303" data-name="Tracé 2303" d="M568.6,469.716l1.08-.3v-2.851l-1.08.187Z" transform="translate(-550.604 -321.71)" fill="#919191"/>
    <rect id="Rectangle_644" data-name="Rectangle 644" width="1.08" height="5.071" transform="translate(91.438 135.137)" fill="#d7d7d7"/>
    <path id="Tracé_2304" data-name="Tracé 2304" d="M328.58,441.261l1.08-.4v-3.743l-1.08.246Z" transform="translate(-236.061 -301.409)" fill="#919191"/>
    <rect id="Rectangle_645" data-name="Rectangle 645" width="1.08" height="6.37" transform="translate(125.753 138.624)" fill="#d7d7d7"/>
    <path id="Tracé_2305" data-name="Tracé 2305" d="M218.055,454.029l1.08-.5v-4.7l-1.08.308Z" transform="translate(-91.222 -309.482)" fill="#919191"/>
    <rect id="Rectangle_646" data-name="Rectangle 646" width="1.08" height="4.618" transform="translate(43.378 147.01)" fill="#d7d7d7"/>
    <path id="Tracé_2306" data-name="Tracé 2306" d="M483.377,478.967l1.08-.36V475.2l-1.08.224Z" transform="translate(-438.919 -327.664)" fill="#919191"/>
    <rect id="Rectangle_647" data-name="Rectangle 647" width="1.08" height="4.294" transform="translate(7.861 150.222)" fill="#d7d7d7"/>
    <path id="Tracé_2307" data-name="Tracé 2307" d="M597.776,488.931l1.08-.335v-3.169l-1.08.208Z" transform="translate(-588.834 -334.716)" fill="#919191"/>
    <rect id="Rectangle_648" data-name="Rectangle 648" width="1.08" height="3.993" transform="translate(27.817 154.477)" fill="#d7d7d7"/>
    <path id="Tracé_2308" data-name="Tracé 2308" d="M533.5,502.281l1.08-.311v-2.947l-1.08.193Z" transform="translate(-504.604 -344.091)" fill="#919191"/>
    <rect id="Rectangle_649" data-name="Rectangle 649" width="1.08" height="5.681" transform="translate(102.263 148.861)" fill="#d7d7d7"/>
    <path id="Tracé_2309" data-name="Tracé 2309" d="M293.715,486.188l1.08-.443v-4.193l-1.08.275Z" transform="translate(-190.372 -332.044)" fill="#919191"/>
    <rect id="Rectangle_650" data-name="Rectangle 650" width="1.08" height="6.355" transform="translate(139.818 153.783)" fill="#d7d7d7"/>
    <path id="Tracé_2310" data-name="Tracé 2310" d="M172.754,502.841l1.08-.5v-4.69l-1.08.308Z" transform="translate(-31.857 -343.147)" fill="#919191"/>
    <rect id="Rectangle_651" data-name="Rectangle 651" width="1.08" height="5.398" transform="translate(92.518 156.041)" fill="#d7d7d7"/>
    <path id="Tracé_2311" data-name="Tracé 2311" d="M325.1,508.982l1.08-.421v-3.984l-1.08.261Z" transform="translate(-231.503 -347.921)" fill="#919191"/>
    <rect id="Rectangle_652" data-name="Rectangle 652" width="1.08" height="4.208" transform="translate(14.912 159.422)" fill="#d7d7d7"/>
    <path id="Tracé_2312" data-name="Tracé 2312" d="M575.066,518.462l1.08-.328v-3.106l-1.08.2Z" transform="translate(-559.074 -355.127)" fill="#919191"/>
    <rect id="Rectangle_653" data-name="Rectangle 653" width="1.08" height="5.165" transform="translate(67.004 162.976)" fill="#d7d7d7"/>
    <path id="Tracé_2313" data-name="Tracé 2313" d="M407.283,531.039l1.08-.4v-3.812l-1.08.25Z" transform="translate(-339.2 -363.261)" fill="#919191"/>
    <rect id="Rectangle_654" data-name="Rectangle 654" width="1.08" height="4.803" transform="translate(12.623 164.085)" fill="#d7d7d7"/>
    <path id="Tracé_2314" data-name="Tracé 2314" d="M582.438,534.186l1.08-.375v-3.545l-1.08.233Z" transform="translate(-568.735 -365.635)" fill="#919191"/>
    <rect id="Rectangle_655" data-name="Rectangle 655" width="1.08" height="4.041" transform="translate(8.941 140.513)" fill="#d7d7d7"/>
    <path id="Tracé_2315" data-name="Tracé 2315" d="M594.3,457.359l1.08-.315v-2.983l-1.08.2Z" transform="translate(-584.276 -313.089)" fill="#919191"/>
    <rect id="Rectangle_656" data-name="Rectangle 656" width="1.08" height="4.41" transform="translate(50.006 121.512)" fill="#d7d7d7"/>
    <path id="Tracé_2316" data-name="Tracé 2316" d="M462.031,396.6l1.08-.344V393l-1.08.214Z" transform="translate(-410.946 -270.983)" fill="#919191"/>
    <rect id="Rectangle_657" data-name="Rectangle 657" width="1.08" height="3.529" transform="translate(5.701 131.327)" fill="#d7d7d7"/>
    <path id="Tracé_2317" data-name="Tracé 2317" d="M604.733,427.169l1.08-.275v-2.6l-1.08.171Z" transform="translate(-597.952 -292.56)" fill="#919191"/>
    <rect id="Rectangle_658" data-name="Rectangle 658" width="1.08" height="4.295" transform="translate(23.521 132.845)" fill="#d7d7d7"/>
    <path id="Tracé_2318" data-name="Tracé 2318" d="M547.336,432.961l1.08-.335v-3.17l-1.08.208Z" transform="translate(-522.735 -296.123)" fill="#919191"/>
    <rect id="Rectangle_659" data-name="Rectangle 659" width="1.08" height="4.972" transform="translate(73.005 123.837)" fill="#d7d7d7"/>
    <path id="Tracé_2319" data-name="Tracé 2319" d="M387.953,404.75l1.08-.388v-3.67l-1.08.241Z" transform="translate(-313.868 -276.289)" fill="#919191"/>
    <rect id="Rectangle_660" data-name="Rectangle 660" width="1.08" height="6.319" transform="translate(125.016 59.786)" fill="#d7d7d7"/>
    <path id="Tracé_2320" data-name="Tracé 2320" d="M220.427,200.039l1.08-.493v-4.664l-1.08.306Z" transform="translate(-94.33 -134.377)" fill="#919191"/>
    <rect id="Rectangle_661" data-name="Rectangle 661" width="1.08" height="6.319" transform="translate(66.746 80.933)" fill="#d7d7d7"/>
    <path id="Tracé_2321" data-name="Tracé 2321" d="M408.113,268.153l1.08-.493V263l-1.08.306Z" transform="translate(-340.287 -181.343)" fill="#919191"/>
    <rect id="Rectangle_662" data-name="Rectangle 662" width="1.08" height="4.357" transform="translate(12.083 102.131)" fill="#d7d7d7"/>
    <path id="Tracé_2322" data-name="Tracé 2322" d="M584.177,334.108l1.08-.34v-3.216l-1.08.211Z" transform="translate(-571.014 -227.926)" fill="#919191"/>
    <rect id="Rectangle_663" data-name="Rectangle 663" width="1.08" height="3.253" transform="translate(17.998 95.523)" fill="#d7d7d7"/>
    <path id="Tracé_2323" data-name="Tracé 2323" d="M565.124,311.518l1.08-.254v-2.4l-1.08.157Z" transform="translate(-546.046 -212.97)" fill="#919191"/>
    <rect id="Rectangle_664" data-name="Rectangle 664" width="1.08" height="4.081" transform="translate(41.218 85.717)" fill="#d7d7d7"/>
    <path id="Tracé_2324" data-name="Tracé 2324" d="M490.334,280.913l1.08-.318v-3.013l-1.08.2Z" transform="translate(-448.036 -191.401)" fill="#919191"/>
    <rect id="Rectangle_665" data-name="Rectangle 665" width="1.08" height="6.045" transform="translate(100.324 60.505)" fill="#d7d7d7"/>
    <path id="Tracé_2325" data-name="Tracé 2325" d="M299.96,202.031l1.08-.472V197.1l-1.08.293Z" transform="translate(-198.556 -135.905)" fill="#919191"/>
    <rect id="Rectangle_666" data-name="Rectangle 666" width="1.08" height="6.045" transform="translate(122.611 43.355)" fill="#d7d7d7"/>
    <path id="Tracé_2326" data-name="Tracé 2326" d="M228.175,146.792l1.08-.472v-4.462l-1.08.293Z" transform="translate(-104.484 -97.816)" fill="#919191"/>
    <rect id="Rectangle_667" data-name="Rectangle 667" width="1.08" height="4.295" transform="translate(65.666 69.421)" fill="#d7d7d7"/>
    <path id="Tracé_2327" data-name="Tracé 2327" d="M411.592,228.681l1.08-.335v-3.171l-1.08.208Z" transform="translate(-344.846 -155.265)" fill="#919191"/>
    <rect id="Rectangle_668" data-name="Rectangle 668" width="1.08" height="5.072" transform="translate(100.864 45.103)" fill="#d7d7d7"/>
    <path id="Tracé_2328" data-name="Tracé 2328" d="M298.221,151.271l1.08-.4v-3.744l-1.08.246Z" transform="translate(-196.277 -101.452)" fill="#919191"/>
    <rect id="Rectangle_669" data-name="Rectangle 669" width="1.08" height="5.721" transform="translate(122.611 25.433)" fill="#d7d7d7"/>
    <path id="Tracé_2329" data-name="Tracé 2329" d="M228.175,88.683l1.08-.446V84.014l-1.08.277Z" transform="translate(-104.484 -57.93)" fill="#919191"/>
    <rect id="Rectangle_670" data-name="Rectangle 670" width="1.08" height="3.496" transform="translate(40.089 71.049)" fill="#d7d7d7"/>
    <path id="Tracé_2330" data-name="Tracé 2330" d="M493.971,232.186l1.08-.273v-2.581l-1.08.17Z" transform="translate(-452.802 -158.132)" fill="#919191"/>
    <rect id="Rectangle_671" data-name="Rectangle 671" width="1.08" height="3.833" transform="translate(34.444 83.495)" fill="#d7d7d7"/>
    <path id="Tracé_2331" data-name="Tracé 2331" d="M512.155,273.465l1.08-.3v-2.829l-1.08.186Z" transform="translate(-476.631 -186.405)" fill="#919191"/>
    <rect id="Rectangle_672" data-name="Rectangle 672" width="1.08" height="3.564" transform="translate(25.681 83.004)" fill="#d7d7d7"/>
    <path id="Tracé_2332" data-name="Tracé 2332" d="M540.379,271.258l1.08-.249v-2.352l-1.08.154Z" transform="translate(-513.618 -185.247)" fill="#919191"/>
    <rect id="Rectangle_673" data-name="Rectangle 673" width="1.08" height="3.564" transform="translate(6.781 92.329)" fill="#d7d7d7"/>
    <path id="Tracé_2333" data-name="Tracé 2333" d="M601.254,301.1l1.08-.23v-2.178l-1.08.143Z" transform="translate(-593.393 -205.955)" fill="#919191"/>
    <path id="Tracé_2334" data-name="Tracé 2334" d="M53.57,545.836s-11.242,7.953-11.364,15.905H27.5s.884-11.635-9.278-15.905" transform="translate(136.385 -376.37)" fill="#919191"/>
    <path id="Tracé_2335" data-name="Tracé 2335" d="M49.3,545.836s-11.242,7.953-11.364,15.905h-14.7s.884-11.635-9.278-15.905" transform="translate(141.98 -376.37)" fill="#d7d7d7"/>
    <path id="Tracé_2336" data-name="Tracé 2336" d="M193.074,547.308H2.194L0,545.835H193.814Z" transform="translate(1.799 -376.37)" fill="#919191"/>
  </g>
</svg>
