<svg id="Groupe_341" data-name="Groupe 341" xmlns="http://www.w3.org/2000/svg" xmlns:xlink="http://www.w3.org/1999/xlink" width="288.245" height="578.009" viewBox="0 0 288.245 578.009">
  <defs>
    <clipPath id="clip-path">
      <rect id="Rectangle_758" data-name="Rectangle 758" width="288.245" height="578.009" fill="none"/>
    </clipPath>
    <clipPath id="clip-path-3">
      <rect id="Rectangle_746" data-name="Rectangle 746" width="41.16" height="34.02" fill="none"/>
    </clipPath>
    <clipPath id="clip-path-4">
      <path id="Tracé_2874" data-name="Tracé 2874" d="M176.536,56.671a5.226,5.226,0,0,0-1.554.352,10.394,10.394,0,0,0-4.225,3.476,11.649,11.649,0,0,0,5.026,2.32,4.9,4.9,0,0,0,1.143.064,4.085,4.085,0,0,0,1.141-.239,18.55,18.55,0,0,0,5.614-3.64,18.119,18.119,0,0,0-5.586-2.241,7.054,7.054,0,0,0-1.18-.1c-.126,0-.252,0-.378.011" transform="translate(-170.757 -56.66)" fill="none"/>
    </clipPath>
    <clipPath id="clip-path-6">
      <path id="Tracé_2879" data-name="Tracé 2879" d="M143.449,58.575a6.729,6.729,0,0,0-1.534.288,18.1,18.1,0,0,0-5.263,2.922,18.562,18.562,0,0,0,6.025,2.909,4.084,4.084,0,0,0,1.162.094,4.916,4.916,0,0,0,1.126-.206,11.643,11.643,0,0,0,4.7-2.932,10.4,10.4,0,0,0-4.627-2.92,5.394,5.394,0,0,0-1.292-.165c-.1,0-.2,0-.294.009" transform="translate(-136.652 -58.566)" fill="none"/>
    </clipPath>
    <clipPath id="clip-path-8">
      <rect id="Rectangle_752" data-name="Rectangle 752" width="6.812" height="15.191" fill="none"/>
    </clipPath>
    <clipPath id="clip-path-9">
      <rect id="Rectangle_753" data-name="Rectangle 753" width="0.103" height="0.235" fill="none"/>
    </clipPath>
    <clipPath id="clip-path-10">
      <rect id="Rectangle_754" data-name="Rectangle 754" width="21.222" height="237.662" fill="none"/>
    </clipPath>
    <clipPath id="clip-path-11">
      <rect id="Rectangle_756" data-name="Rectangle 756" width="59.164" height="14.249" fill="none"/>
    </clipPath>
  </defs>
  <g id="Groupe_340" data-name="Groupe 340" clip-path="url(#clip-path)">
    <g id="Groupe_313" data-name="Groupe 313">
      <g id="Groupe_312" data-name="Groupe 312" clip-path="url(#clip-path)">
        <path id="Tracé_2832" data-name="Tracé 2832" d="M198.992,47.167s3.9,5.893-8.872,38.387c0,0-2.829,8.715-3.824,24.482s-2.241-29.059-2.241-29.059Z" transform="translate(-60.415 -15.482)" fill="#b4523c"/>
        <path id="Tracé_2833" data-name="Tracé 2833" d="M123.91,808.366c-.083-3.6.27-4.206-.364-5.2-1.194-1.879-3.312-2.181-7.164-2.665a30.979,30.979,0,0,0-11.656.888c-3.2.834-4.816,1.278-5.464,2.665-1.162,2.489,1.088,5.9,2.792,7.615,6.321,6.365,20.073,5.861,22.064,2.19.449-.827-.1-1.067-.208-5.49" transform="translate(-32.477 -262.69)" fill="#002d3f"/>
        <path id="Tracé_2834" data-name="Tracé 2834" d="M56.675,843.45c-1.094,1.014-1.241,3.182-1.262,3.671a4.713,4.713,0,0,0,.841,3.441c.809.968,2.035,1.388,6.167,2.179,3.311.634,4.967.951,6.868,1.147,6.114.631,6.843.151,16.819.459,4.127.128,5.469-.136,7.828-.859,2.8-.861,2.895-1.3,5.908-2.238,1.607-.5,2.239-.437,8.97-1.262,3.641-.446,4.25-.562,4.626-1.032,1.348-1.69-2.328-5.463-3.924-7a94.442,94.442,0,0,1-14.3,3.1c-6.413.88-13.419,1.841-21.865.574-8.573-1.286-14.454-4.243-16.68-2.179" transform="translate(-18.183 -276.367)" fill="#002d3f"/>
        <path id="Tracé_2835" data-name="Tracé 2835" d="M193.766,809.956c.11-3.6-.357-4.206.482-5.2,1.578-1.879,4.377-2.18,9.47-2.665a53.8,53.8,0,0,1,15.408.888c4.233.834,6.366,1.278,7.223,2.665,1.536,2.489-1.438,5.9-3.691,7.615-8.355,6.365-26.534,5.861-29.166,2.191-.592-.827.139-1.068.275-5.49" transform="translate(-63.437 -263.212)" fill="#002d3f"/>
        <path id="Tracé_2836" data-name="Tracé 2836" d="M188.62,838.106c-.548.7.315,1.223,0,4.7-.122,1.34-.328,2.127.417,2.847.7.674,1.812.888,3.548,1.139a73.63,73.63,0,0,0,9.808,1.139c7.735.078,8.135,1.849,17.947,2.563,5.189.378,9.094.11,16.9-.427,7.585-.521,11-1.194,13.982-2.848.56-.311,4.326-2.445,3.548-3.844-.617-1.11-3.8-1.232-5.009-1.281-12.33-.5-33.52-2.162-36.937-2.421-12.327-.932-22.5-3.756-24.207-1.567" transform="translate(-61.852 -274.835)" fill="#002d3f"/>
        <path id="Tracé_2837" data-name="Tracé 2837" d="M150.051,128.426l-31.041,11.48,2.453,26.538,56.607-.827L186,139.168Z" transform="translate(-39.064 -42.155)" fill="#f7a881"/>
        <path id="Tracé_2838" data-name="Tracé 2838" d="M118.636,772.087a144.361,144.361,0,0,0,.947,18.8L88.8,791.1a42.252,42.252,0,0,0,5.209-10.68c2.244-7,1.962-12.755,1.421-22-.232-3.983-2.747-18.65-3.912-25.325,8.446-.5,23.132-6.408,31.578-6.906.394,4.414-4.359,39.252-4.458,45.9" transform="translate(-29.148 -238.365)" fill="#f7a881"/>
        <path id="Tracé_2839" data-name="Tracé 2839" d="M108.1,805.071a3.588,3.588,0,0,0-2.617-.918c-1.17.276-1.121,1.671-2.242,2.6-.89.737-2.637,1.28-6.354.612.062-1.818.269-2.095.934-5.174.848-3.923,1.69-5.154.748-6.117-1.6-1.64-5.32.619-12.522,0-5.166-.444-7.192-1.945-8.6-.918-1.657,1.213.518,3.773.373,8.258-.136,4.255-2.267,5.066-4.111,7.774-2.375,3.488-5.036,5.712-10.279,10.093-5.445,4.55-8.31,6.147-8.223,9.023a6.217,6.217,0,0,0,2.43,4.282c2.878,2.21,6.488,1.308,13.642,1.223,12.924-.154,14.069,2.148,20.745.306,3.9-1.076,4.51-2.167,9.531-3.212,5.971-1.242,7.808-.261,9.531-1.682,2.683-2.212-.992-5.3-1.121-14.222-.076-5.2,1.028-9.717-1.869-11.928" transform="translate(-18.123 -260.889)" fill="#005a7d"/>
        <path id="Tracé_2840" data-name="Tracé 2840" d="M92.553,322.13c-.086-.745,1.875-.866,3.767-3.236,1.833-2.295,1.76-4.392,2.79-4.513.926-.109,1.965,1.476,2.148,2.964.273,2.226-1.37,4.207-2.733,5.09-2.528,1.638-5.862.646-5.972-.3" transform="translate(-30.379 -103.192)" fill="#f7a881"/>
        <path id="Tracé_2841" data-name="Tracé 2841" d="M173.772,130.711c-1.722,5.756-25.423,12.425-25.595.22-.142-10.188-4.033-39.145-4.033-39.145h30.621v30.831a25.193,25.193,0,0,1-.993,8.094" transform="translate(-47.315 -30.128)" fill="#f7a881"/>
        <g id="Groupe_305" data-name="Groupe 305" transform="translate(94.655 70.529)" opacity="0.2">
          <g id="Groupe_304" data-name="Groupe 304">
            <g id="Groupe_303" data-name="Groupe 303" clip-path="url(#clip-path-3)">
              <path id="Tracé_2842" data-name="Tracé 2842" d="M177.732,139.012l-34.651-31.374-2.176-2.015,2.176-.043,30.62-.588v20.661l8.364,2.5s-3.886,9.369-4.333,10.859" transform="translate(-140.906 -104.992)" fill="#41385a"/>
            </g>
          </g>
        </g>
        <path id="Tracé_2843" data-name="Tracé 2843" d="M188,171.481S172.64,246.41,176.977,276.7H94.147c.036-26.049,7.7-25.6-19.543-114.395-.823-14.741,12.082-15.262,12.082-15.262s22.878-11.869,28.282-9.827c21.584,8.153,25.978,8.854,48.647.512,3.584-1.319,19.118,4.643,19.118,4.643s6.094,14.374,5.271,29.114" transform="translate(-24.476 -44.961)" fill="#ffd602"/>
        <path id="Tracé_2844" data-name="Tracé 2844" d="M191.374,760.387a109.507,109.507,0,0,1,2.048,24.921l23.207-.285a98.775,98.775,0,0,1-.853-25.775c1.157-11.74,4.662-30.488.513-34.3-5.044-4.63-21.093-2.407-28.138,2.776-2.066,1.52,1.972,26.351,3.224,32.659" transform="translate(-61.569 -237.132)" fill="#f7a881"/>
        <path id="Tracé_2845" data-name="Tracé 2845" d="M87.416,328.046S81.8,341.783,72.649,345.14c0,0,1.663-17.271,6.45-19.9s5.627-1.773,5.627-1.773Z" transform="translate(-23.847 -106.133)" fill="#011c28"/>
        <path id="Tracé_2846" data-name="Tracé 2846" d="M189.7,825.46c-2.8-2.072.125-4.156,2.086-15.665.3-1.772.684-4.364,2.922-4.984,1.2-.333,1.987.166,5.425.427,3.284.249,5.1.387,6.052-.285,1.323-.934-.425-2.443-.417-5.7,0-1.8.009-4.147,2.086-5.554.907-.614,2-.907,11.687-1,6.389-.06,7.233.055,7.93.57,1.689,1.247-.023,2.971.208,7.262a16.443,16.443,0,0,0,1.461,5.839c.343.707,1.744,3.414,7.929,7.69,7.624,5.268,11.291,5.16,14.817,9.4,1.389,1.671,3.457,4.156,2.086,6.124-.966,1.386-3.251,1.957-15.233,2.99-14.437,1.245-18.817,1.082-21.912.854-7.282-.535-10.421-1.643-11.686-2.136-2.455-.956-2.814-1.528-6.052-2.848-6.018-2.453-7.49-1.583-9.39-2.991" transform="translate(-61.889 -260.196)" fill="#005a7d"/>
        <path id="Tracé_2847" data-name="Tracé 2847" d="M188.294,488.4c1.931,31.839,2.725,133.77,2.725,133.77l-28.5.353-10.348.132s2.831-84.141.2-141.995c-.784-17.193-4.211-38.026-6.279-51.029-1.572-9.913-4.16-39.148-4.286-39.562a.887.887,0,0,0-.031-.091c-.015.06-.025.131-.04.212-.834,4.388-5.737,56.6-9.206,93.073-5.414,56.9-5.3,139.148-5.3,139.148H87.43s9.221-122.653,6.633-148.981c.576-36.318-6.531-69.724-5.879-97.305.49-20.944,10.015-65.942,10.015-65.942,15.995-1.35,21.439,3.053,30.408,3.417,0,0,29.933-3.417,56.614-3.417,0,0,2.639,37.01,6.3,63.131,2.305,16.424-1.642,84.833-3.225,115.085" transform="translate(-28.698 -101.732)" fill="#00445e"/>
        <path id="Tracé_2848" data-name="Tracé 2848" d="M188.73,313.092s-16.445,3.484-43.776,5.191-45.039,1.67-45.039,1.67l-1.871,9.817s21.245.06,47.389-.924a336.717,336.717,0,0,0,44.249-4.352Z" transform="translate(-32.183 -102.77)" fill="#337b97"/>
        <path id="Tracé_2849" data-name="Tracé 2849" d="M188.73,313.092s-16.445,3.484-43.776,5.191-45.039,1.67-45.039,1.67l-1.871,9.817s21.245.06,47.389-.924a336.717,336.717,0,0,0,44.249-4.352Z" transform="translate(-32.183 -102.77)" fill="none" stroke="#fff" stroke-linecap="round" stroke-linejoin="round" stroke-width="1.608"/>
        <path id="Tracé_2850" data-name="Tracé 2850" d="M174.415,343.019c-.179,10.248-2.007,35.217-1.028,49.7" transform="translate(-56.819 -112.594)" fill="none" stroke="#fff" stroke-linecap="round" stroke-linejoin="round" stroke-width="1.608"/>
        <path id="Tracé_2851" data-name="Tracé 2851" d="M161.389,344.927c-.179,5.709-.662,22.171-.641,31.071a28.728,28.728,0,0,0,6.408,3.631" transform="translate(-52.764 -113.22)" fill="none" stroke="#fff" stroke-linecap="round" stroke-linejoin="round" stroke-width="1.608"/>
        <path id="Tracé_2852" data-name="Tracé 2852" d="M205.1,354.916c2.138,1.765,4.485,3.562,7.049,5.34a105.6,105.6,0,0,0,14.739,8.544" transform="translate(-67.321 -116.499)" fill="none" stroke="#fff" stroke-linecap="round" stroke-linejoin="round" stroke-width="1.608"/>
        <path id="Tracé_2853" data-name="Tracé 2853" d="M120.51,354.916a32.9,32.9,0,0,1-13.671,14.525" transform="translate(-35.069 -116.499)" fill="none" stroke="#fff" stroke-linecap="round" stroke-linejoin="round" stroke-width="1.608"/>
        <path id="Tracé_2854" data-name="Tracé 2854" d="M171.285,326.06c0,3.3-2.451,5.17-5.967,5.533a5.428,5.428,0,0,1-5.968-5.533,5.806,5.806,0,0,1,5.563-5.915,6.115,6.115,0,0,1,6.372,5.915" transform="translate(-52.306 -105.077)" fill="#99bdcb"/>
        <path id="Tracé_2855" data-name="Tracé 2855" d="M171.285,326.06c0,3.3-2.451,5.17-5.967,5.533a5.428,5.428,0,0,1-5.968-5.533,5.806,5.806,0,0,1,5.563-5.915A6.115,6.115,0,0,1,171.285,326.06Z" transform="translate(-52.306 -105.077)" fill="none" stroke="#fff" stroke-linecap="round" stroke-linejoin="round" stroke-width="1.505"/>
        <path id="Tracé_2856" data-name="Tracé 2856" d="M171.65,327.209a3.583,3.583,0,0,1-1.2,2.625c-1.929,2.052-5,2.1-5.077,1.85-.066-.215,2.165-.365,3.528-2.195,1.456-1.954.8-4.317,1.463-4.431.472-.081,1.226,1.043,1.29,2.151" transform="translate(-54.28 -106.697)" fill="#fff"/>
        <path id="Tracé_2859" data-name="Tracé 2859" d="M72.266,333.426c1.608-4.709,6.046-6.576,6.963-6.961a13.338,13.338,0,0,1,5.815-.994,19.06,19.06,0,0,1,3.7.766c4.856,1.13,6.094.482,9.977,1.5,1.157.3,1.739.849,3.809,1.867a41.187,41.187,0,0,1-3.52,10.815c-1.779,3.634-5.385,10.132-10.225,10.068a9.68,9.68,0,0,1-3.386-.895,33.83,33.83,0,0,1-7.5-4.043c-3.312-2.518-5.293-4.024-6-6.786a9.208,9.208,0,0,1,.366-5.338" transform="translate(-23.519 -106.827)" fill="#f7a881"/>
        <path id="Tracé_2860" data-name="Tracé 2860" d="M109.843,329.846l12.6,2.27s5.452.9,8,1.177a2.968,2.968,0,0,1,1.872.9,1.582,1.582,0,0,1-.474,2.657c-1.167.659-19.8-1.205-19.8-1.205Z" transform="translate(-36.055 -108.27)" fill="#f7a881"/>
        <path id="Tracé_2861" data-name="Tracé 2861" d="M109.843,339.6l12.6,1.98s5.5.791,8.038,1.031a3.074,3.074,0,0,1,1.836.779c1.008.953.461,1.858-.474,2.318-1.167.574-21.2-.99-21.2-.99Z" transform="translate(-36.055 -111.472)" fill="#f7a881"/>
        <path id="Tracé_2862" data-name="Tracé 2862" d="M105.521,348.072l12.6,1.98s5.5.791,8.038,1.03a3.073,3.073,0,0,1,1.836.779c1.008.953.461,1.858-.474,2.318-1.167.574-21.2-.99-21.2-.99Z" transform="translate(-34.637 -114.252)" fill="#f7a881"/>
        <path id="Tracé_2863" data-name="Tracé 2863" d="M102.134,354.051l.494.662c1,1.771,3.041,2.567,5.03,3,1.646.357,3.57.763,4.8.98a3.074,3.074,0,0,1,1.767.924c.928,1.031.309,1.889-.659,2.272-1.209.479-17.8-2.187-17.8-2.187Z" transform="translate(-31.435 -116.215)" fill="#f7a881"/>
        <path id="Tracé_2864" data-name="Tracé 2864" d="M1.34,264.057c13.827,19.387,25.29,36.777,47.462,55.233,2.052-6.64,3.368-13.916,12.078-21.672-6.172-5.41-31.261-51.941-46.607-53.017-.727-.036-6.982-.365-11.206,4.729A13.943,13.943,0,0,0,1.34,264.057" transform="translate(0 -80.283)" fill="#ffd602"/>
        <path id="Tracé_2865" data-name="Tracé 2865" d="M86.778,139.721c-4.044-.6-20.379,4.232-26.279,7.206-10.7,5.394-17.783,12.127-26.208,23.908C20.815,189.679,11.237,203.293,5.27,211.818c-3.545,5.093-4.577,11.058-2.227,14.41,3.175,4.527,17.744,1.589,28.176-4.171,11.866-12.664,20.238-29.1,33.207-40.06,1.8-.485,9.878-.572,11.377-11.871,1.726-13.01,11.569-29,10.975-30.405" transform="translate(-0.584 -45.846)" fill="#ffd602"/>
        <path id="Tracé_2866" data-name="Tracé 2866" d="M142.744,9.224s-16.971-5.177-18.921,1.689c-2.344,8.253-3.589,6.452-5.954,13.523-1.183,3.536,2.017,9.661,2.017,9.661s2.158,4.067.83,10.772,4.23,11.186,4.23,11.186Z" transform="translate(-38.603 -2.413)" fill="#b4523c"/>
        <path id="Tracé_2867" data-name="Tracé 2867" d="M128.71,64.261c1.245,6.2,8.551,22.578,24.39,24.866,0,0,7.084,1.917,17.372-11.934,6.447-8.68,6.463-15.245,6.463-15.245s0-11.338-1.146-18.257-2.252-17.7-20.569-18.548-23.92,7.637-25.544,11.306-2.211,21.613-.965,27.813" transform="translate(-42.028 -8.233)" fill="#f7a881"/>
        <path id="Tracé_2868" data-name="Tracé 2868" d="M195.661,57.683c.432-.034.643.944,1.746,1.171.877.179,1.45-.294,2.471-.618a6.285,6.285,0,0,1,3.782-.092c2.634,1.161,2.584,9.014-.494,14.264-.705,1.2-2.073,3.462-4.413,3.862a4.5,4.5,0,0,1-2.2-.183c-4.695-1.949-2.627-18.266-.888-18.4" transform="translate(-63.572 -18.934)" fill="#f7a881"/>
        <path id="Tracé_2869" data-name="Tracé 2869" d="M163.284,66.737c-.341,1.186-.687,2.368-1,3.56-.325,1.185-.63,2.377-.863,3.569a11.839,11.839,0,0,0-.228,1.765,2.774,2.774,0,0,0,.044.752,1.6,1.6,0,0,0,.1.34,1.445,1.445,0,0,0,.156.334,7.523,7.523,0,0,0,2.547,2.3l0,0a.054.054,0,0,1,.016.076.056.056,0,0,1-.051.025,5.29,5.29,0,0,1-1.853-.529,4.094,4.094,0,0,1-1.575-1.3,2.685,2.685,0,0,1-.445-1.022,3.04,3.04,0,0,1-.008-1.085,16.147,16.147,0,0,1,.453-1.864,57.957,57.957,0,0,1,2.6-6.963.054.054,0,0,1,.071-.028.054.054,0,0,1,.03.065" transform="translate(-52.548 -21.883)" fill="#5d3f31"/>
        <path id="Tracé_2870" data-name="Tracé 2870" d="M183.681,59.005a18.546,18.546,0,0,1-5.614,3.64,4.035,4.035,0,0,1-1.141.238,4.866,4.866,0,0,1-1.143-.062,11.641,11.641,0,0,1-5.025-2.321,10.405,10.405,0,0,1,4.225-3.476,5.242,5.242,0,0,1,1.554-.352,6.818,6.818,0,0,1,1.558.093,18.137,18.137,0,0,1,5.586,2.241" transform="translate(-56.05 -18.598)" fill="#fff"/>
        <path id="Tracé_2871" data-name="Tracé 2871" d="M184.562,50.982a14.7,14.7,0,0,0-3.87-2.593,8.276,8.276,0,0,0-4.286-.791,8.392,8.392,0,0,0-2.1.6c-.7.292-1.392.605-2.123.84a23.447,23.447,0,0,1-4.675,1.091.117.117,0,0,1-.13-.1.121.121,0,0,1,.025-.086,9.533,9.533,0,0,1,1.843-1.7,12.754,12.754,0,0,1,2.121-1.252,9.213,9.213,0,0,1,2.385-.722,15.67,15.67,0,0,1,2.576-.282,8.939,8.939,0,0,1,4.849,1.53,13.917,13.917,0,0,1,3.554,3.337.108.108,0,0,1-.16.144Z" transform="translate(-54.939 -15.092)" fill="#5d3f31"/>
        <path id="Tracé_2872" data-name="Tracé 2872" d="M168.485,105.593a9.545,9.545,0,0,1-1.554,1.133,4.8,4.8,0,0,1-1.869.609,3.963,3.963,0,0,1-1.971-.294,4.28,4.28,0,0,1-1.564-1.179.028.028,0,0,1,.033-.042,16.693,16.693,0,0,0,1.728.717,5.689,5.689,0,0,0,1.753.369,6.472,6.472,0,0,0,3.411-1.356.027.027,0,0,1,.038.007.028.028,0,0,1,0,.036" transform="translate(-53.018 -34.645)" fill="#8b5f49"/>
      </g>
    </g>
    <g id="Groupe_315" data-name="Groupe 315" transform="translate(114.707 38.062)">
      <g id="Groupe_314" data-name="Groupe 314" clip-path="url(#clip-path-4)">
        <path id="Tracé_2873" data-name="Tracé 2873" d="M180.675,59.154c.118,1.87-.865,3.454-2.193,3.537s-2.5-1.365-2.619-3.235.865-3.454,2.193-3.537,2.5,1.365,2.619,3.235" transform="translate(-172.43 -56.416)"/>
      </g>
    </g>
    <g id="Groupe_317" data-name="Groupe 317">
      <g id="Groupe_316" data-name="Groupe 316" clip-path="url(#clip-path)">
        <path id="Tracé_2875" data-name="Tracé 2875" d="M170.757,60.371a9.846,9.846,0,0,1,2.483-2.762,6.117,6.117,0,0,1,3.527-1.34,9.31,9.31,0,0,1,3.67.808,15.954,15.954,0,0,1,3.244,1.8,29.469,29.469,0,0,0-3.386-1.419,10.681,10.681,0,0,0-3.516-.661,6.336,6.336,0,0,0-3.306,1.144,13.44,13.44,0,0,0-2.715,2.43" transform="translate(-56.05 -18.47)" fill="#573329"/>
        <path id="Tracé_2876" data-name="Tracé 2876" d="M136.652,61.785a18.557,18.557,0,0,0,6.025,2.909,4.083,4.083,0,0,0,1.162.093,4.887,4.887,0,0,0,1.126-.206,11.64,11.64,0,0,0,4.7-2.931,10.4,10.4,0,0,0-4.627-2.921,5.206,5.206,0,0,0-1.585-.155,6.741,6.741,0,0,0-1.535.287,18.11,18.11,0,0,0-5.262,2.922" transform="translate(-44.855 -19.224)" fill="#fff"/>
        <path id="Tracé_2877" data-name="Tracé 2877" d="M133.331,53.429a9.6,9.6,0,0,1,2.921-3.331,8.723,8.723,0,0,1,4.32-1.6,13.775,13.775,0,0,1,2.357.021,7.5,7.5,0,0,1,2.215.5,10.431,10.431,0,0,1,1.992,1.032,7.875,7.875,0,0,1,1.734,1.489.118.118,0,0,1-.014.166.123.123,0,0,1-.081.028,22.864,22.864,0,0,1-4.28-.623c-.671-.148-1.315-.358-1.953-.564a7.018,7.018,0,0,0-1.919-.385,8.09,8.09,0,0,0-3.844.82,9.753,9.753,0,0,0-3.263,2.555l-.007.007a.108.108,0,0,1-.152.013.109.109,0,0,1-.027-.132" transform="translate(-43.761 -15.907)" fill="#5d3f31"/>
      </g>
    </g>
    <g id="Groupe_319" data-name="Groupe 319" transform="translate(91.797 39.342)">
      <g id="Groupe_318" data-name="Groupe 318" clip-path="url(#clip-path-6)">
        <path id="Tracé_2878" data-name="Tracé 2878" d="M142.129,61.223c.118,1.87,1.29,3.319,2.618,3.235s2.311-1.667,2.193-3.537-1.29-3.318-2.618-3.235-2.311,1.667-2.193,3.537" transform="translate(-138.447 -58.276)"/>
      </g>
    </g>
    <g id="Groupe_339" data-name="Groupe 339">
      <g id="Groupe_338" data-name="Groupe 338" clip-path="url(#clip-path)">
        <path id="Tracé_2880" data-name="Tracé 2880" d="M149.662,61.524a13.474,13.474,0,0,0-3-2.072,6.337,6.337,0,0,0-3.423-.721,10.683,10.683,0,0,0-3.406,1.1,29.505,29.505,0,0,0-3.182,1.831,15.948,15.948,0,0,1,2.993-2.191,9.318,9.318,0,0,1,3.541-1.261,6.121,6.121,0,0,1,3.666.889,9.83,9.83,0,0,1,2.809,2.429" transform="translate(-44.855 -19.097)" fill="#573329"/>
        <path id="Tracé_2881" data-name="Tracé 2881" d="M155.469,99.057s4.29,3.19,7.153,3.011c3.236-.2,6.646-3.877,6.646-3.877a27.484,27.484,0,0,0-7.2-.646,26.788,26.788,0,0,0-6.6,1.512" transform="translate(-51.032 -32.003)" fill="#fff"/>
        <path id="Tracé_2882" data-name="Tracé 2882" d="M155.469,98.129a33.693,33.693,0,0,1,6.6-1.512,41.143,41.143,0,0,1,7.2.646s-1.873-2.2-6.411-2.567-7.389,3.433-7.389,3.433" transform="translate(-51.032 -31.075)" fill="#b97e61"/>
        <path id="Tracé_2883" data-name="Tracé 2883" d="M138.772,4.955s-8.852,15.488,28.562,22.156c17.677,3.151,10.582,20.961,10.582,20.961s10.585-13.764,8.456-26.087S169.97,8,169.97,8s-6.7-8.631-17.859-7.966-13.339,4.919-13.339,4.919" transform="translate(-45.251 0)" fill="#f06d50"/>
        <path id="Tracé_2884" data-name="Tracé 2884" d="M200.025,91.826c0-1.022.209-5.725.255-6.188.172-.017.35-.028.522-.044.193-.017.393-.036.587-.048.129-.013.253-.021.382-.035.06.435,1.021,4.626,1.068,5.641C202.864,91.713,200.032,92.28,200.025,91.826Z" transform="translate(-65.657 -28.068)" fill="none" stroke="#ffe667" stroke-width="1.405"/>
        <path id="Tracé_2885" data-name="Tracé 2885" d="M202.438,83.161a1.784,1.784,0,1,1-1.892-1.669,1.784,1.784,0,0,1,1.892,1.669" transform="translate(-65.279 -26.748)" fill="#02b196"/>
        <path id="Tracé_2886" data-name="Tracé 2886" d="M292.113,218.989c-7.023,10.558-22.333.49-22.4.448-20.145-13.379-31.325-32.127-36.022-41.754-11.656-23.89-8.095-32.524-8.095-32.524s-.2-2.433,2.87-2.148c19.768,1.837,57.016,59.511,60.955,65.078,3.566,5.067,4.667,7.927,2.691,10.9" transform="translate(-73.882 -46.935)" fill="#ffd602"/>
        <path id="Tracé_2888" data-name="Tracé 2888" d="M345.394,159.721l-.457-2.69a9.049,9.049,0,0,1,.323-4.359,9.8,9.8,0,0,1,8.025-6.545l15.245-4.657c5.48-.769,6.336.86,7.224,6.087l1.667,9.818c.888,5.228.831,4.743-4.336,6.44,0,0-11,5.136-16.114,4.012s-10.69-2.879-11.578-8.107" transform="translate(-113.181 -46.377)" fill="#f7a881"/>
        <path id="Tracé_2889" data-name="Tracé 2889" d="M404.472,128.157h0c.546,1.15-3.155,3.308-4.305,3.854l-20.1,9.544a2.315,2.315,0,1,1-1.986-4.183l20.1-9.544c1.151-.546,5.746-.821,6.292.329" transform="translate(-123.67 -41.804)" fill="#f7a881"/>
        <path id="Tracé_2890" data-name="Tracé 2890" d="M414.4,138.439h0c.4,1.272-2.511,3.347-3.783,3.753l-23,7.324a2.428,2.428,0,1,1-1.473-4.627l23-7.324c1.272-.405,4.851-.4,5.257.875" transform="translate(-126.194 -45.076)" fill="#f7a881"/>
        <path id="Tracé_2891" data-name="Tracé 2891" d="M414.525,151.493h0c.351,1.265-2.09,2.1-3.355,2.454l-21.3,5.907a2.387,2.387,0,0,1-1.276-4.6l21.3-5.907c1.266-.351,4.28.882,4.631,2.147" transform="translate(-126.979 -49.002)" fill="#f7a881"/>
        <path id="Tracé_2892" data-name="Tracé 2892" d="M407.931,165.15h0c.217,1.273-2.519,2.334-3.791,2.552l-16.78,2.679a2.348,2.348,0,1,1-.791-4.629l16.781-2.679c1.272-.217,4.364.8,4.581,2.077" transform="translate(-126.248 -53.518)" fill="#f7a881"/>
        <path id="Tracé_2893" data-name="Tracé 2893" d="M349.692,144.5c-.357-1.368,1.816-4.053,4.139-9.084,2.248-4.87,1.513-8.775,3.122-9.324,1.448-.494,2.446,1.808,3.177,4.538,1.094,4.082-1.575,7.137-2.817,11.161-.613,2.964.06,7.173-1.227,7.862-1.7.907-6.135-4.159-6.395-5.152" transform="translate(-114.771 -41.365)" fill="#f7a881"/>
        <g id="Groupe_325" data-name="Groupe 325" transform="translate(246.14 98.957)" opacity="0.1" style="mix-blend-mode: multiply;isolation: isolate">
          <g id="Groupe_324" data-name="Groupe 324">
            <g id="Groupe_323" data-name="Groupe 323" clip-path="url(#clip-path-8)">
              <path id="Tracé_2894" data-name="Tracé 2894" d="M366.418,149.105s5.983,5.772,4.619,10.27,2.054,2.821,2.054,2.821.915-8.727-2.047-12.111c-2.676-3.056-4.761-3.88-4.626-.979" transform="translate(-366.412 -147.31)" fill="#41385a"/>
            </g>
          </g>
        </g>
        <path id="Tracé_2895" data-name="Tracé 2895" d="M330.319,179.938l10.334-18.763,13.158,10.6-8.219,18.34Z" transform="translate(-108.425 -52.905)" fill="#f7a881"/>
        <g id="Groupe_328" data-name="Groupe 328" transform="translate(113.014 288.248)" opacity="0.2" style="mix-blend-mode: multiply;isolation: isolate">
          <g id="Groupe_327" data-name="Groupe 327">
            <g id="Groupe_326" data-name="Groupe 326" clip-path="url(#clip-path-9)">
              <path id="Tracé_2896" data-name="Tracé 2896" d="M168.3,429.094c.01.026.026.05.036.081-.005.005-.005.005-.005.009-.036.056-.06.1-.071.122-.046.06-.036.005.04-.212" transform="translate(-168.237 -429.095)" fill="#41385a"/>
            </g>
          </g>
        </g>
        <g id="Groupe_331" data-name="Groupe 331" transform="translate(113.117 283.263)" opacity="0.2" style="mix-blend-mode: multiply;isolation: isolate">
          <g id="Groupe_330" data-name="Groupe 330">
            <g id="Groupe_329" data-name="Groupe 329" clip-path="url(#clip-path-10)">
              <path id="Tracé_2897" data-name="Tracé 2897" d="M189.1,659.2v.132H178.748s2.831-84.142.2-141.995c-.783-17.193-4.211-38.026-6.279-51.029-1.572-9.913-4.09-39.092-4.282-39.573.4-.708,2-3.685,4.388-5.066,3.812.466,11.375,41.883,12.8,53.44,5.92,48.178,3.609,179.358,3.523,184.09" transform="translate(-168.39 -421.674)" fill="#41385a"/>
            </g>
          </g>
        </g>
        <path id="Tracé_2899" data-name="Tracé 2899" d="M292.127,219.227c7.925-22.456,17.011-33.908,31.249-52.5,1-1.31,16.409,16.605,16.129,17.039-1.624,2.512-15.47,33.386-28,45.807-.689.236-9.46,3.191-14.928-.536-4.322-2.947-5.27-4.419-4.446-9.81" transform="translate(-95.8 -54.704)" fill="#ffd602"/>
        <g id="Groupe_337" data-name="Groupe 337" transform="translate(84.212 91.649)" opacity="0.2" style="mix-blend-mode: multiply;isolation: isolate">
          <g id="Groupe_336" data-name="Groupe 336">
            <g id="Groupe_335" data-name="Groupe 335" clip-path="url(#clip-path-11)">
              <path id="Tracé_2900" data-name="Tracé 2900" d="M125.364,137.415s-.349,4.54,6.276,5.9a9.6,9.6,0,0,0,8.834,3.523,11.606,11.606,0,0,0,9.507,2.136c5.545,2.745,9.381,1.351,9.381,1.351s4.707,1.453,8.252-1.627c6.335-.175,7.264-3.022,7.264-3.022s4.765.509,6.277-2.977a5.367,5.367,0,0,0,3.37-4.765s-4.329-1.235-6.6-.015a53.375,53.375,0,0,1-21.546,5.1c-9.589-.058-20.791-3.392-23.522-5.6s-7.5,0-7.5,0" transform="translate(-125.361 -136.432)" fill="#41385a"/>
            </g>
          </g>
        </g>
        <path id="Tracé_2901" data-name="Tracé 2901" d="M125.364,136.495s-.349,4.54,6.276,5.9a9.6,9.6,0,0,0,8.834,3.523,11.606,11.606,0,0,0,9.507,2.136c5.545,2.745,9.381,1.351,9.381,1.351s4.707,1.453,8.252-1.627c6.335-.175,7.264-3.022,7.264-3.022s4.765.509,6.277-2.977a5.367,5.367,0,0,0,3.37-4.765s-4.329-1.235-6.6-.015a53.375,53.375,0,0,1-21.546,5.1c-9.589-.058-20.791-3.392-23.522-5.6s-7.5,0-7.5,0" transform="translate(-41.149 -44.481)" fill="#fff"/>
      </g>
    </g>
  </g>
</svg>
