<svg width="463" height="185" viewBox="0 0 463 185" fill="none" xmlns="http://www.w3.org/2000/svg">
<g clip-path="url(#clip0_1_2)">
<path opacity="0.8" d="M211.08 28V87.35H226.61V51H271.15V92.5H313.62V135.24H324V103.62H366.47V148.62H416.19L428.1 159.62H462.8V185H81.33V185.19L27.83 184.59L28.89 115L63.57 115.39L63 150.2L69.65 150.27V106.5H108V59.93H128.71V41.4H145.3L183.11 28H211.08Z" fill="#FFF2B3"/>
<path d="M282.69 169.09C282.69 169.09 271.45 177.09 271.32 185H256.62C256.62 185 257.51 173.36 247.35 169.09" fill="#909091"/>
<path d="M284 169.09C284 169.09 272.76 177.09 272.64 185H258C258 185 258.88 173.36 248.72 169.09" fill="#D7D8D7"/>
<path d="M307.34 185C307.34 185 296.09 177.05 295.97 169.09H281.27C281.27 169.09 282.15 180.73 271.99 185" fill="#909091"/>
<path d="M308.66 185C308.66 185 297.42 177.05 297.3 169.09H282.6C282.6 169.09 283.48 180.73 273.32 185" fill="#D7D8D7"/>
<path d="M330 169.09C330 169.09 318.76 177.09 318.64 185H303.94C303.94 185 304.82 173.36 294.66 169.09" fill="#909091"/>
<path d="M331.28 169.09C331.28 169.09 320.04 177.09 319.92 185H305.22C305.22 185 306.1 173.36 295.94 169.09" fill="#D7D8D7"/>
<path d="M353.52 185C353.52 185 342.28 177.05 342.16 169.09H327.46C327.46 169.09 328.34 180.73 318.18 185" fill="#909091"/>
<path d="M354.85 185C354.85 185 343.61 177.05 343.48 169.09H328.78C328.78 169.09 329.67 180.73 319.51 185" fill="#D7D8D7"/>
<path d="M378.81 169.09C378.81 169.09 367.57 177.09 367.45 185H352.75C352.75 185 353.63 173.36 343.47 169.09" fill="#909091"/>
<path d="M380.14 169.09C380.14 169.09 368.89 177.09 368.77 185H354.07C354.07 185 354.96 173.36 344.79 169.09" fill="#D7D8D7"/>
<path d="M405.32 185C405.32 185 394.08 177.05 393.95 169.09H379.25C379.25 169.09 380.14 180.73 369.98 185" fill="#909091"/>
<path d="M406.65 185C406.65 185 395.41 177.05 395.29 169.09H380.59C380.59 169.09 381.47 180.73 371.31 185" fill="#D7D8D7"/>
<path d="M391.75 33.26H427L424.17 14.53L391.8 -0.190002L391.75 33.26Z" fill="#D7D8D7"/>
<path d="M391.75 33.26L245.17 98.61L243 83.2L391.75 -0.190002V33.26Z" fill="#BCBCBB"/>
<path d="M387 40.14L249.15 99.39L247 84L387 6.72V40.14Z" fill="white"/>
<path d="M394.1 169.28H436.37L433 24.36L394.1 6.69V169.28Z" fill="white"/>
<path d="M394.1 169.28H242.56L240.76 92.42L394.1 6.69V169.28Z" fill="#D7D8D7"/>
<path d="M397.08 161.18V166.48H433V161.74H432.12L397.08 161.18Z" fill="#16AF96"/>
<path d="M397.08 161.18V162.36L433.02 162.87V161.74L397.08 161.18Z" fill="#BCBCBB"/>
<path d="M397.08 153.38V158.68L432.08 159.58H433.03V154.84L397.08 153.38Z" fill="#FFD601"/>
<path d="M397.08 154.55L432.14 155.95L432.07 159.58H433V154.84L397.06 153.35L397.08 154.55Z" fill="#BCBCBB"/>
<path d="M397.08 145.57V150.87L432.08 152.33H433.03L432.94 147.6L397.08 145.57Z" fill="#ED6D51"/>
<path d="M397.08 136.59V141.89L433 144.57L432.91 139.83L397.08 136.59Z" fill="#00B3DC"/>
<path d="M397.08 127.6V132.9L433 135.58L432.91 130.85L397.08 127.6Z" fill="#ED6D51"/>
<path d="M397.08 118.62V123.92L433.08 127.78L433 123L397.08 118.62Z" fill="#D5172B"/>
<path d="M396.9 109.64V114.94L432.9 118.8L432.81 114.06L396.9 109.64Z" fill="#16AF96"/>
<path d="M396.71 99.69V105L432.71 110L432.62 105.26L396.71 99.69Z" fill="#FFD601"/>
<path d="M396.71 89.37V94.67L432.71 101.37L432.62 96.63L396.71 89.37Z" fill="#D5172B"/>
<path d="M396.71 80.89V86.19L432.71 92.89L432.62 88.16L396.71 80.89Z" fill="#ED6D51"/>
<path d="M396.71 70.86V76.16L432.32 83.16L432.23 78.43L396.71 70.86Z" fill="#16AF96"/>
<path d="M396.71 60.77V66.07L431.95 73.07L431.86 68.33L396.71 60.77Z" fill="#FFD601"/>
<path d="M396.71 50.47V55.77L431.76 63.91L431.67 59.18L396.71 50.47Z" fill="#D5172B"/>
<path d="M396.71 41V46.3L431.57 55L431.49 50.26L396.71 41Z" fill="#ED6D51"/>
<path d="M396.71 31.44V36.74L431.39 46.19L431.3 41.45L396.71 31.44Z" fill="#00B3DC"/>
<path d="M396.71 20.44V25.74L431.2 38L431.12 33.26L396.71 20.44Z" fill="#ED6D51"/>
<path d="M396.71 10.72V16L431.2 30.1L431.12 25.37L396.71 10.72Z" fill="#00B3DC"/>
<path d="M391.75 161.18V166.48L245.51 168L245.35 164.62L391.75 161.18Z" fill="#16AF96"/>
<path d="M391.75 153.38V158.68L245.43 163.17V160.33L391.75 153.38Z" fill="#FFD601"/>
<path d="M391.75 145.57V150.87L245.51 159.12L245.45 156.12L391.75 145.57Z" fill="#ED6D51"/>
<path d="M391.75 136.59V141.89L245.46 154.16V150.92L391.75 136.59Z" fill="#00B3DC"/>
<path d="M391.75 127.6V132.9L244.81 149.15L244.75 146.23L391.75 127.6Z" fill="#ED6D51"/>
<path d="M391.75 118.62V123.92L245.33 144.69L245.28 141.74L391.75 118.62Z" fill="#D5172B"/>
<path d="M391.56 109.64V114.94L244 140.16V137L391.56 109.64Z" fill="#16AF96"/>
<path d="M391.37 99.69V105L244.77 134.9V132.17L391.37 99.69Z" fill="#FFD601"/>
<path d="M391.38 89.37V94.67L244 130.11L243.94 126.94L391.38 89.37Z" fill="#D5172B"/>
<path d="M391.38 80.89V86.19L244.75 124.58L244.7 121.71L391.38 80.89Z" fill="#ED6D51"/>
<path d="M391.37 70.86V76.16L244 119.29V116.92L391.37 70.86Z" fill="#16AF96"/>
<path d="M391.38 60.77V66.07L243.37 115L243.32 112.2L391.38 60.77Z" fill="#FFD601"/>
<path d="M391.37 50.47V55.77L243.37 109.77L243.31 106.72L391.37 50.47Z" fill="#D5172B"/>
<path d="M391.38 41V46.3L242.46 105.11V102.74L391.38 41Z" fill="#ED6D51"/>
<path d="M391.37 31.44V36.74L242.37 101.29V98.93L391.37 31.44Z" fill="#00B3DC"/>
<path d="M391.37 20.44V25.74L242.37 98L242.25 95.86L391.37 20.44Z" fill="#ED6D51"/>
<path d="M391.38 10.72V16L242.26 94.71V92.77L391.38 10.72Z" fill="#00B3DC"/>
<path d="M397.08 146.75L432.14 148.75L432.07 152.37H433.02L432.93 147.63L397.08 145.56V146.75Z" fill="#BCBCBB"/>
<path d="M397.08 137.77L432.14 140.92L432.07 144.53H433.02L432.93 139.79L397.08 136.55V137.77Z" fill="#BCBCBB"/>
<path d="M397.08 128.78L432.14 131.93L432.07 135.55H433.02L432.93 130.81L397.08 127.56V128.78Z" fill="#BCBCBB"/>
<path d="M397.08 119.8L432.19 124.13L432.11 127.68L433.06 127.78L433 123L397.11 118.58L397.08 119.8Z" fill="#BCBCBB"/>
<path d="M396.9 110.82L432 115.14L431.93 118.7L432.88 118.8L432.79 114.06L396.9 109.64V110.82Z" fill="#BCBCBB"/>
<path d="M396.71 100.87L431.82 106.35L431.74 109.87L432.69 110L432.6 105.26L396.71 99.69V100.87Z" fill="#BCBCBB"/>
<path d="M396.71 90.54L431.82 97.71L431.74 101.23L432.69 101.37L432.6 96.63L396.71 89.37V90.54Z" fill="#BCBCBB"/>
<path d="M396.71 82.07L431.82 89.24L431.74 92.77L432.69 92.9L432.6 88.16L396.71 80.9V82.07Z" fill="#BCBCBB"/>
<path d="M396.71 72L431.45 79.5L431.37 83.02L432.32 83.16L432.23 78.42L396.71 70.82V72Z" fill="#BCBCBB"/>
<path d="M396.71 62L431.07 69.5L431 73L431.95 73.13L431.86 68.39L396.71 60.8V62Z" fill="#BCBCBB"/>
<path d="M396.71 51.64L430.89 60.26L430.81 63.7L431.76 63.92L431.67 59.18L396.67 50.47L396.71 51.64Z" fill="#BCBCBB"/>
<path d="M396.71 42.16L430.71 51.34L430.64 54.77L431.58 54.99L431.5 50.25L396.71 41V42.16Z" fill="#BCBCBB"/>
<path d="M396.71 32.62L430.51 42.54L430.44 45.97L431.39 46.19L431.3 41.46L396.71 31.46V32.62Z" fill="#BCBCBB"/>
<path d="M396.71 21.62L430.33 34.33L430.25 37.65L431.2 37.99L431.11 33.25L396.71 20.44V21.62Z" fill="#BCBCBB"/>
<path d="M396.71 11.9L430.33 26.47L430.26 29.74L431.2 30.13L431.12 25.39L396.71 10.72V11.9Z" fill="#BCBCBB"/>
<path d="M424.83 160.74H423.75V167.91H424.83V160.74Z" fill="white"/>
<path d="M423.75 162.03H422.67V166.48H423.75V162.03Z" fill="#BCBCBB"/>
<path d="M406.74 160.74H405.66V167.91H406.74V160.74Z" fill="white"/>
<path d="M405.66 162.03H404.58V166.48H405.66V162.03Z" fill="#BCBCBB"/>
<path d="M429.55 137.25H428.47V144.42H429.55V137.25Z" fill="white"/>
<path d="M427.39 144.19L428.47 144.26V139.8H427.39V144.19Z" fill="#BCBCBB"/>
<path d="M411.36 137.05H410.28V144.22H411.36V137.05Z" fill="white"/>
<path d="M409.2 142.8L410.28 142.87V138.34H409.2V142.8Z" fill="#BCBCBB"/>
<path d="M422.77 128.93H421.69V136.1H422.77V128.93Z" fill="white"/>
<path d="M420.61 134.68L421.69 134.75V130.22H420.61V134.68Z" fill="#BCBCBB"/>
<path d="M400.95 127.29H399.87V134.46H400.95V127.29Z" fill="white"/>
<path d="M398.79 133L399.87 133.08V128.54H398.79V133Z" fill="#BCBCBB"/>
<path d="M412.44 119.62H411.36V126.79H412.44V119.62Z" fill="white"/>
<path d="M410.28 125.36L411.36 125.44V120.91H410.28V125.36Z" fill="#BCBCBB"/>
<path d="M406.22 110H405.14V117.17H406.22V110Z" fill="white"/>
<path d="M404.06 115.74L405.14 115.82V111.29H404.06V115.74Z" fill="#BCBCBB"/>
<path d="M423.08 111.84H422V119.01H423.08V111.84Z" fill="white"/>
<path d="M420.92 117.58L422 117.66V113.13H420.92V117.58Z" fill="#BCBCBB"/>
<path d="M412.05 101.22H410.97V108.39H412.05V101.22Z" fill="white"/>
<path d="M409.89 106.83L411 107V102.53H409.92L409.89 106.83Z" fill="#BCBCBB"/>
<path d="M428.3 103.46H427.22V110.63H428.3V103.46Z" fill="white"/>
<path d="M426.14 109.09L427.22 109.24V104.75H426.14V109.09Z" fill="#BCBCBB"/>
<path d="M401.18 89.51H400.1V96.68H401.18V89.51Z" fill="white"/>
<path d="M399 95.14L400.08 95.29V90.8H399V95.14Z" fill="#BCBCBB"/>
<path d="M427.22 85.91H426.14V93.08H427.22V85.91Z" fill="white"/>
<path d="M425.06 91.48L426.14 91.68V87.19H425.06V91.48Z" fill="#BCBCBB"/>
<path d="M422.32 75.23H421.24V82.4H422.32V75.23Z" fill="white"/>
<path d="M420.16 80.81L421.24 81.01V76.52H420.16V80.81Z" fill="#BCBCBB"/>
<path d="M414.91 73.77H413.83V80.94H414.91V73.77Z" fill="white"/>
<path d="M412.75 79.35L413.83 79.55V75.06H412.75V79.35Z" fill="#BCBCBB"/>
<path d="M419.22 64.6H418.14V71.77H419.22V64.6Z" fill="white"/>
<path d="M417.06 70.18L418.14 70.38V65.89H417.06V70.18Z" fill="#BCBCBB"/>
<path d="M400.4 60.82H399.32V67.99H400.4V60.82Z" fill="white"/>
<path d="M398.24 66.4L399.32 66.6V62.11H398.24V66.4Z" fill="#BCBCBB"/>
<path d="M404.75 51.56H403.67V58.73H404.75V51.56Z" fill="white"/>
<path d="M402.59 57.14L403.67 57.38V52.85H402.59V57.14Z" fill="#BCBCBB"/>
<path d="M427.87 56.94H426.79V64.11H427.87V56.94Z" fill="white"/>
<path d="M425.71 62.52L426.79 62.76V58.23H425.71V62.52Z" fill="#BCBCBB"/>
<path d="M421.54 46.48H420.46V53.65H421.54V46.48Z" fill="white"/>
<path d="M419.38 52.06L420.46 52.3V47.77H419.38V52.06Z" fill="#BCBCBB"/>
<path d="M422.62 28.74H421.54V35.91H422.62V28.74Z" fill="white"/>
<path d="M420.46 34.32L421.54 34.62V30H420.46V34.32Z" fill="#BCBCBB"/>
<path d="M404.95 22.55H403.87V29.72H404.95V22.55Z" fill="white"/>
<path d="M402.78 28.13L403.86 28.43V23.84H402.78V28.13Z" fill="#BCBCBB"/>
<path d="M417.72 18.32H416.64V25.49H417.72V18.32Z" fill="white"/>
<path d="M415.56 23.9L416.64 24.2V19.61H415.56V23.9Z" fill="#BCBCBB"/>
<path d="M415.97 153.19H414.89V160.36H415.97V153.19Z" fill="white"/>
<path d="M414.89 154.69H413.81V159.14H414.89V154.69Z" fill="#BCBCBB"/>
<path d="M423.75 146.21H422.67V153.38H423.75V146.21Z" fill="white"/>
<path d="M422.67 147.5H421.59V151.95H422.67V147.5Z" fill="#BCBCBB"/>
<path d="M402.11 145.32H401.03V152.49H402.11V145.32Z" fill="white"/>
<path d="M401.03 146.61H399.95V151.06H401.03V146.61Z" fill="#BCBCBB"/>
<path d="M245.35 164.57V165.34L391.71 162.34V161.2L245.35 164.57Z" fill="#909091"/>
<path d="M245.43 160.33V161.11L391.75 154.51V153.38L245.43 160.33Z" fill="#909091"/>
<path d="M245.45 156.1V156.88L391.75 146.71V145.57L245.45 156.1Z" fill="#909091"/>
<path d="M245.4 150.92V151.7L391.75 137.7V136.57L245.4 150.92Z" fill="#909091"/>
<path d="M244.75 146.24V147L391.75 128.73V127.6L244.75 146.24Z" fill="#909091"/>
<path d="M245.28 141.74V142.52L391.75 119.76V118.62L245.28 141.74Z" fill="#909091"/>
<path d="M244 137V137.77L391.58 110.77V109.64L244 137Z" fill="#909091"/>
<path d="M244.73 132.17V132.94L391.37 100.83V99.69L244.73 132.17Z" fill="#909091"/>
<path d="M244 126.94V127.71L391.38 90.5V89.37L244 126.94Z" fill="#909091"/>
<path d="M244.7 121.71V122.49L391.37 82V80.86L244.7 121.71Z" fill="#909091"/>
<path d="M243.93 116.92V117.7L391.37 72V70.86L243.93 116.92Z" fill="#909091"/>
<path d="M243.32 112.21V113L391.38 62V60.88L243.32 112.21Z" fill="#909091"/>
<path d="M243.26 106.69V107.46L391.38 51.6V50.47L243.26 106.69Z" fill="#909091"/>
<path d="M242.42 102.74V103.51L391.42 42.11V41L242.42 102.74Z" fill="#909091"/>
<path d="M242.31 98.93V99.71L391.37 32.58V31.44L242.31 98.93Z" fill="#909091"/>
<path d="M242.25 95.85V96.63L391.37 21.56V20.43L242.25 95.85Z" fill="#909091"/>
<path d="M242.23 92.77V93.55L391.37 11.86V10.72L242.23 92.77Z" fill="#909091"/>
<path d="M349.48 75.38H348.4V82.55H349.48V75.38Z" fill="#D7D8D7"/>
<path d="M349.48 80.42L350.56 79.99V75.86L349.48 76.13V80.42Z" fill="#909091"/>
<path d="M281.54 98.59H280.46V102.74H281.54V98.59Z" fill="#D7D8D7"/>
<path d="M281.54 102.53L282.62 102.19V99L281.54 99.22V102.53Z" fill="#909091"/>
<path d="M246.98 110.07H245.9V114.27H246.98V110.07Z" fill="#D7D8D7"/>
<path d="M247 114L248.08 113.67V110.57L247 110.77V114Z" fill="#909091"/>
<path d="M255 112.91H253.92V117.11H255V112.91Z" fill="#D7D8D7"/>
<path d="M255 116.82L256.08 116.49V113.39L255 113.59V116.82Z" fill="#909091"/>
<path d="M300.44 99.12H299.36V103.32H300.44V99.12Z" fill="#D7D8D7"/>
<path d="M300.44 103L301.52 102.67V99.57L300.44 99.77V103Z" fill="#909091"/>
<path d="M377.46 74.93H376.38V81.25H377.46V74.93Z" fill="#D7D8D7"/>
<path d="M377.46 80.8L378.54 80.31V75.65L377.46 75.95V80.8Z" fill="#909091"/>
<path d="M381.05 83.46H379.97V89.78H381.05V83.46Z" fill="#D7D8D7"/>
<path d="M381.05 89.34L382.13 88.84V84.18L381.05 84.49V89.34Z" fill="#909091"/>
<path d="M330.83 96.55H329.75V102.87H330.83V96.55Z" fill="#D7D8D7"/>
<path d="M330.83 102.42L331.91 101.93V97.27L330.83 97.57V102.42Z" fill="#909091"/>
<path d="M275.21 112.4H274.13V117.02H275.21V112.4Z" fill="#D7D8D7"/>
<path d="M275.21 116.7L276.29 116.34V112.93L275.21 113.15V116.7Z" fill="#909091"/>
<path d="M256.08 123.49H255V127.61H256.08V123.49Z" fill="#D7D8D7"/>
<path d="M256.08 127.32L257.16 126.99V123.99L256.08 124.19V127.32Z" fill="#909091"/>
<path d="M309.52 110.13H308.44V114.87H309.52V110.13Z" fill="#D7D8D7"/>
<path d="M309.52 114.53L310.6 114.16V110.66L309.52 110.89V114.53Z" fill="#909091"/>
<path d="M371.82 94.18H370.74V99.99H371.82V94.18Z" fill="#D7D8D7"/>
<path d="M371.82 99.58L372.9 99.13V94.84L371.82 95.12V99.58Z" fill="#909091"/>
<path d="M347.07 109.2H345.99V115.01H347.07V109.2Z" fill="#D7D8D7"/>
<path d="M347.07 114.61L348.15 114.15V109.87L347.07 110.15V114.61Z" fill="#909091"/>
<path d="M373.98 112.81H372.9V118.62H373.98V112.81Z" fill="#D7D8D7"/>
<path d="M374 118.21L375.08 117.76V113.47L374 113.75V118.21Z" fill="#909091"/>
<path d="M361.85 123.18H360.77V128.99H361.85V123.18Z" fill="#D7D8D7"/>
<path d="M361.85 128.58L362.93 128.12V123.84L361.85 124.12V128.58Z" fill="#909091"/>
<path d="M322.43 129.25H321.35V134.33H322.43V129.25Z" fill="#D7D8D7"/>
<path d="M322.43 134L323.51 133.6V129.85L322.43 130.1V134Z" fill="#909091"/>
<path d="M258.76 144.23H257.68V148.09H258.76V144.23Z" fill="#D7D8D7"/>
<path d="M258.76 147.82L259.84 147.52V144.67L258.76 144.86V147.82Z" fill="#909091"/>
<path d="M333.28 134.95H332.2V140.02H333.28V134.95Z" fill="#D7D8D7"/>
<path d="M333.28 139.67L334.36 139.27V135.52L333.28 135.77V139.67Z" fill="#909091"/>
<path d="M367.59 138.44H366.51V144.81H367.59V138.44Z" fill="#D7D8D7"/>
<path d="M367.59 144.36L368.67 143.86V139.16L367.59 139.47V144.36Z" fill="#909091"/>
<path d="M285.22 146.82H284.14V151.44H285.22V146.82Z" fill="#D7D8D7"/>
<path d="M285.22 151.12L286.3 150.76V147.35L285.22 147.57V151.12Z" fill="#909091"/>
<path d="M249.7 150.04H248.62V154.33H249.7V150.04Z" fill="#D7D8D7"/>
<path d="M249.7 154L250.78 153.66V150.5L249.7 150.7V154Z" fill="#909091"/>
<path d="M269.66 154.29H268.58V158.28H269.66V154.29Z" fill="#D7D8D7"/>
<path d="M269.66 158L270.74 157.69V154.75L269.66 154.94V158Z" fill="#909091"/>
<path d="M344.1 148.68H343.02V154.36H344.1V148.68Z" fill="#D7D8D7"/>
<path d="M344.1 154L345.18 153.56V149.36L344.1 149.64V154Z" fill="#909091"/>
<path d="M381.66 153.6H380.58V159.96H381.66V153.6Z" fill="#D7D8D7"/>
<path d="M381.66 159.51L382.74 159.01V154.32L381.66 154.63V159.51Z" fill="#909091"/>
<path d="M334.36 155.86H333.28V161.26H334.36V155.86Z" fill="#D7D8D7"/>
<path d="M334.36 160.88L335.44 160.45V156.45L334.36 156.71V160.88Z" fill="#909091"/>
<path d="M256.75 159.24H255.67V163.45H256.75V159.24Z" fill="#D7D8D7"/>
<path d="M256.75 163.15L257.83 162.82V159.72L256.75 159.92V163.15Z" fill="#909091"/>
<path d="M308.85 162.79H307.77V167.95H308.85V162.79Z" fill="#D7D8D7"/>
<path d="M308.84 167.59L309.92 167.19V163.38L308.84 163.63V167.59Z" fill="#909091"/>
<path d="M254.46 163.9H253.38V168.7H254.46V163.9Z" fill="#D7D8D7"/>
<path d="M254.46 168.37L255.54 167.99V164.45L254.46 164.68V168.37Z" fill="#909091"/>
<path d="M250.78 140.33H249.7V144.37H250.78V140.33Z" fill="#D7D8D7"/>
<path d="M250.79 144.08L251.87 143.77V140.77L250.79 140.97V144.08Z" fill="#909091"/>
<path d="M291.85 121.33H290.77V125.74H291.85V121.33Z" fill="#D7D8D7"/>
<path d="M291.85 125.43L292.93 125.09V121.83L291.85 122.05V125.43Z" fill="#909091"/>
<path d="M247.54 131.14H246.46V134.67H247.54V131.14Z" fill="#D7D8D7"/>
<path d="M247.54 134.42L248.62 134.15V131.55L247.54 131.72V134.42Z" fill="#909091"/>
<path d="M265.36 132.66H264.28V136.96H265.36V132.66Z" fill="#D7D8D7"/>
<path d="M265.36 136.65L266.44 136.32V133.15L265.36 133.36V136.65Z" fill="#909091"/>
<path d="M314.85 123.65H313.77V128.62H314.85V123.65Z" fill="#D7D8D7"/>
<path d="M314.85 128.28L315.93 127.89V124.22L314.85 124.46V128.28Z" fill="#909091"/>
<path d="M366.86 59.6H365.78V65.92H366.86V59.6Z" fill="#D7D8D7"/>
<path d="M366.86 65.48L367.94 64.98V60.32L366.86 60.63V65.48Z" fill="#909091"/>
<path d="M308.59 80.75H307.51V87.07H308.59V80.75Z" fill="#D7D8D7"/>
<path d="M308.59 86.62L309.67 86.13V81.47L308.59 81.78V86.62Z" fill="#909091"/>
<path d="M253.92 101.95H252.84V106.31H253.92V101.95Z" fill="#D7D8D7"/>
<path d="M253.92 106L255 105.66V102.44L253.92 102.65V106Z" fill="#909091"/>
<path d="M259.84 95.34H258.76V98.59H259.84V95.34Z" fill="#D7D8D7"/>
<path d="M259.84 98.36L260.92 98.11V95.71L259.84 95.87V98.36Z" fill="#909091"/>
<path d="M283.06 85.53H281.98V89.61H283.06V85.53Z" fill="#D7D8D7"/>
<path d="M283.06 89.33L284.14 89.01V86.01L283.06 86.21V89.33Z" fill="#909091"/>
<path d="M342.17 60.32H341.09V66.37H342.17V60.32Z" fill="#D7D8D7"/>
<path d="M342.17 65.94L343.25 65.47V61L342.17 61.29V65.94Z" fill="#909091"/>
<path d="M364.45 43.17H363.37V49.22H364.45V43.17Z" fill="#D7D8D7"/>
<path d="M364.45 48.79L365.53 48.32V43.86L364.45 44.15V48.79Z" fill="#909091"/>
<path d="M307.51 69.24H306.43V73.54H307.51V69.24Z" fill="#D7D8D7"/>
<path d="M307.51 73.23L308.59 72.9V69.72L307.51 69.93V73.23Z" fill="#909091"/>
<path d="M342.71 44.92H341.63V49.99H342.71V44.92Z" fill="#D7D8D7"/>
<path d="M342.71 49.63L343.79 49.23V45.49L342.71 45.74V49.63Z" fill="#909091"/>
<path d="M364.45 25.25H363.37V30.97H364.45V25.25Z" fill="#D7D8D7"/>
<path d="M364.45 30.57L365.53 30.12V25.9L364.45 26.18V30.57Z" fill="#909091"/>
<path d="M281.93 70.86H280.85V74.36H281.93V70.86Z" fill="#D7D8D7"/>
<path d="M281.93 73.87L283.01 73.6V71L281.93 71.17V73.87Z" fill="#909091"/>
<path d="M276.29 83.31H275.21V87.14H276.29V83.31Z" fill="#D7D8D7"/>
<path d="M276.29 86.87L277.37 86.57V83.75L276.29 83.93V86.87Z" fill="#909091"/>
<path d="M267.52 82.82H266.44V86.38H267.52V82.82Z" fill="#D7D8D7"/>
<path d="M267.52 85.83L268.6 85.58V83.22L267.52 83.38V85.83Z" fill="#909091"/>
<path d="M248.62 92.14H247.54V95.7H248.62V92.14Z" fill="#D7D8D7"/>
<path d="M248.62 95L249.7 94.77V92.59L248.62 92.73V95Z" fill="#909091"/>
<path d="M430.72 169.28C430.72 169.28 419.47 177.28 419.35 185.19H404.65C404.65 185.19 405.53 173.55 395.37 169.28" fill="#909091"/>
<path d="M432 169.28C432 169.28 420.76 177.28 420.64 185.19H406C406 185.19 406.88 173.55 396.72 169.28" fill="#D7D8D7"/>
<path d="M435.63 170.75H244.75L242.56 169.28H436.37L435.63 170.75Z" fill="#909091"/>
<path d="M114.56 170.3C114.56 173.68 112.24 176.42 109.39 176.42C106.54 176.42 104.21 173.68 104.21 170.3C104.21 166.92 106.53 164.18 109.39 164.18C112.25 164.18 114.56 166.92 114.56 170.3Z" fill="#282828"/>
<path d="M152.84 170.3C152.84 173.68 150.53 176.42 147.67 176.42C144.81 176.42 142.5 173.68 142.5 170.3C142.5 166.92 144.81 164.18 147.67 164.18C150.53 164.18 152.84 166.92 152.84 170.3Z" fill="#282828"/>
<path d="M152.22 144.92L153.85 155.78L158.95 155.94C159.038 155.943 159.124 155.963 159.203 155.999C159.283 156.035 159.355 156.087 159.415 156.151C159.474 156.215 159.52 156.291 159.55 156.373C159.581 156.455 159.594 156.542 159.59 156.63L159.14 171.53H89L87.78 161C88.5233 160.317 89.4025 159.799 90.36 159.48L108.56 156.89L112.88 145.43C113.081 144.861 113.449 144.365 113.936 144.008C114.423 143.651 115.007 143.45 115.61 143.43L149.14 142.32C149.88 142.293 150.604 142.54 151.173 143.015C151.741 143.489 152.114 144.157 152.22 144.89" fill="#D8B110"/>
<path d="M150.2 146.15L151.82 157L156.92 157.15C157.008 157.153 157.095 157.172 157.175 157.209C157.255 157.245 157.328 157.296 157.388 157.36C157.448 157.424 157.496 157.5 157.527 157.582C157.558 157.664 157.573 157.752 157.57 157.84L157.11 172.74H87L87.53 161.56C87.5396 161.34 87.6259 161.131 87.7739 160.968C87.9219 160.806 88.1222 160.7 88.34 160.67L106.55 158.08L110.87 146.63C111.078 146.072 111.448 145.588 111.933 145.24C112.417 144.893 112.994 144.698 113.59 144.68L147.13 143.57C147.869 143.542 148.591 143.788 149.16 144.261C149.728 144.733 150.102 145.399 150.21 146.13" fill="#FFD601"/>
<path d="M113.39 150.06L112 156.57L148 155.44L147.62 149.03C147.586 148.451 147.326 147.908 146.896 147.519C146.466 147.13 145.9 146.925 145.32 146.95L115.47 148.33C114.986 148.354 114.523 148.536 114.153 148.848C113.782 149.161 113.525 149.587 113.42 150.06" fill="#025A7D"/>
<path d="M89.93 173.23H87.87C87.4722 173.23 87.0906 173.072 86.8093 172.791C86.528 172.509 86.37 172.128 86.37 171.73V166.12L89.22 166.54L89.93 173.23Z" fill="#383838"/>
<path d="M86.52 164.75L86.41 162.55C86.406 162.466 86.4186 162.382 86.447 162.303C86.4755 162.224 86.5194 162.151 86.576 162.088C86.6327 162.026 86.7011 161.976 86.7773 161.94C86.8534 161.904 86.9359 161.884 87.02 161.88V161.88L93.48 161.56L93.2 164.43L87.25 165.35C87.083 165.376 86.9125 165.335 86.7757 165.235C86.639 165.136 86.5471 164.987 86.52 164.82V164.75" fill="#FFE768"/>
<path d="M153.08 173.23H157.08C157.8 173.23 159.51 171.72 159.51 171V165.71L157.36 166.22L154.17 166.54L153.08 173.23Z" fill="#383838"/>
<path d="M109.38 171.52C109.38 174.9 107.07 177.64 104.21 177.64C101.35 177.64 99.04 174.91 99.04 171.52C99.04 168.13 101.36 165.4 104.21 165.4C107.06 165.4 109.38 168.14 109.38 171.52Z" fill="#161616"/>
<path d="M158.16 165.46L158.5 158.61L155.62 158.47L155.52 163.96L158.16 165.46Z" fill="#ED6D51"/>
<path d="M160 163L160.27 157.32L158.94 157.26L158.75 162.74L160 163Z" fill="#793728"/>
<path d="M148.35 172.24C148.35 175.62 146.03 178.36 143.18 178.36C140.33 178.36 138 175.62 138 172.24C138 168.86 140.32 166.12 143.18 166.12C146.04 166.12 148.35 168.86 148.35 172.24Z" fill="#161616"/>
<path d="M218.35 137.84C218.85 143.17 219.2 148.93 219.27 155.05C219.359 162.504 219.052 169.958 218.35 177.38" stroke="#65948D" stroke-width="2" stroke-linecap="round" stroke-linejoin="round"/>
<path d="M218.83 143.82C217.377 142.248 215.555 141.063 213.53 140.37C212.561 140.036 211.552 139.828 210.53 139.75" stroke="#65948D" stroke-width="3.62" stroke-linecap="round" stroke-linejoin="round"/>
<path d="M219.89 150.67C220.48 150.158 221.108 149.694 221.77 149.28C223.274 148.359 224.935 147.721 226.67 147.4" stroke="#65948D" stroke-width="3.62" stroke-linecap="round" stroke-linejoin="round"/>
<path d="M202.38 146C202.52 143.67 204.68 143.62 205.38 140.78C205.658 138.828 205.512 136.84 204.95 134.95C204.826 134.542 204.808 134.108 204.899 133.691C204.99 133.274 205.186 132.887 205.469 132.567C205.752 132.247 206.112 132.005 206.514 131.864C206.917 131.723 207.349 131.687 207.77 131.76C210.21 132.05 211.77 132.19 212.83 131.39C213.89 130.59 213.2 129.71 214.31 128.31C214.85 127.66 215.532 127.141 216.303 126.795C217.075 126.448 217.915 126.282 218.76 126.31C218.92 126.31 221.76 126.46 222.71 128.31C223.33 129.52 222.71 130.69 223.2 130.9C223.85 131.19 224.76 128.71 227.02 128.06C227.72 127.872 228.455 127.852 229.165 128.004C229.874 128.155 230.537 128.472 231.1 128.93C232.1 129.73 233.1 131.26 232.7 132.63C232.3 134 230.7 134 230.35 135.34C230 136.68 231.46 137.24 232.45 139.91C232.88 141.05 233.66 143.17 232.82 144.97C232.12 146.48 230.99 146.21 230.23 147.8C229.47 149.39 230.23 150.07 229.98 152.12C229.9 152.82 229.51 155.98 227.52 157.18C225.53 158.38 223.52 157.04 219.13 157.18C218.424 157.198 217.721 157.282 217.03 157.43C215.48 157.76 215.22 158.17 214.43 158.29C212.43 158.59 209.8 156.65 209.38 154.47C209.06 152.88 210.1 151.99 209.5 151.26C208.68 150.26 206.81 151.6 204.93 150.52C204.155 150.049 203.516 149.385 203.076 148.593C202.636 147.8 202.41 146.907 202.42 146" fill="#004D40"/>
<path d="M221.37 151.16C222.53 152.09 223.09 152.09 223.37 151.94C224.08 151.58 223.73 150.1 224.48 149.71C224.97 149.46 225.65 149.81 226.1 150.11" stroke="#65948D" stroke-width="1.45" stroke-linecap="round" stroke-linejoin="round"/>
<path d="M209.16 143.24C208.7 144.01 208.72 144.37 208.86 144.55C209 144.73 209.44 144.69 209.86 144.95C210.055 145.095 210.218 145.277 210.34 145.487C210.462 145.697 210.541 145.929 210.57 146.17" stroke="#65948D" stroke-width="1.45" stroke-linecap="round" stroke-linejoin="round"/>
<path d="M222.64 139.76C224.18 140.42 225 140.24 225.47 139.96C226.47 139.34 226.34 137.87 227.47 137.43C228.18 137.16 228.62 137.57 229.09 137.23C229.56 136.89 229.64 135.71 229.49 134.8" stroke="#65948D" stroke-width="1.45" stroke-linecap="round" stroke-linejoin="round"/>
<path d="M212.16 133.62C212.195 133.948 212.303 134.263 212.476 134.544C212.649 134.824 212.883 135.062 213.16 135.24C214.23 135.8 215.43 134.68 216.7 135.24C217.188 135.478 217.582 135.872 217.82 136.36" stroke="#65948D" stroke-width="1.45" stroke-linecap="round" stroke-linejoin="round"/>
<path d="M215.9 155.18C216.59 156 217.08 156.13 217.42 156.09C217.76 156.05 218.08 155.59 218.74 155.38C219.168 155.26 219.622 155.26 220.05 155.38" stroke="#65948D" stroke-width="1.45" stroke-linecap="round" stroke-linejoin="round"/>
<path d="M234 156.6C235.385 154.996 237.133 153.748 239.1 152.96C240.2 152.529 241.354 152.249 242.53 152.13" stroke="#028571" stroke-width="3.62" stroke-linecap="round" stroke-linejoin="round"/>
<path d="M233.57 121C235.114 119.173 237.076 117.746 239.29 116.84" stroke="#028571" stroke-width="3.62" stroke-linecap="round" stroke-linejoin="round"/>
<path d="M233.81 142C231.963 139.99 229.633 138.485 227.04 137.63" stroke="#028571" stroke-width="3.62" stroke-linecap="round" stroke-linejoin="round"/>
<path d="M233 177.57C233.7 163.57 234 148.83 233.63 133.4C233.477 126.42 233.217 119.6 232.85 112.94" stroke="#028571" stroke-width="2" stroke-linecap="round" stroke-linejoin="round"/>
<path d="M222.43 121C223.37 119.11 219.34 116.57 220.14 113.92C220.43 112.92 221.07 113.02 223.47 111.01C226.86 108.17 226.47 107.3 228.26 106.43C230.05 105.56 230.63 106.43 235.75 106.22C240.21 106.07 241.03 105.39 241.99 106.22C243.88 107.84 241.79 111.34 244.08 113.71C245.32 115 246.44 114.37 247.2 115.59C248.45 117.59 245.72 119.73 246.57 122.66C247.29 125.14 249.57 124.66 250.57 127.24C251.71 130.24 249.1 132.06 250.36 135.15C251.23 137.29 252.75 137.09 253.07 138.9C253.51 141.47 250.55 142.57 250.78 145.35C250.94 147.35 252.56 147.35 253.69 150.14C254.6 152.37 255.03 155.98 253.27 158.26C251.76 160.26 250.2 159.16 246.68 161.54C243.79 163.54 243.98 164.81 241.62 165.75C239.81 166.47 239.19 165.91 235.37 165.96C229.45 166.03 228.85 167.41 226.15 166.56C224.03 165.9 224.33 165.03 220.22 161.84C215.31 158.01 213.56 158.22 212.89 156.17C212.06 153.61 214.62 152.66 215.81 147.64C217.2 141.77 214.34 140.37 216.22 135.57C217.57 132.15 219.45 131.74 219.55 128.7C219.64 126.06 218.28 124.37 219.35 122.87C220.29 121.53 221.9 122.13 222.47 121" fill="#369D8D"/>
<path d="M229.59 115.26C230.22 117.41 230.95 118.04 231.59 118.14C232.59 118.3 233.25 117.14 234.32 117.38C235.12 117.58 235.21 118.38 235.89 118.82C236.57 119.26 238.02 119.48 240.89 117.99" stroke="#028571" stroke-width="1.45" stroke-linecap="round" stroke-linejoin="round"/>
<path d="M243.25 124.52C243.52 126.42 243.25 127.15 242.8 127.4C241.94 127.91 240.44 126.58 239.91 127.1C239.38 127.62 240.3 128.54 239.91 129.22C239.63 129.72 238.67 130.08 235.81 129.52" stroke="#028571" stroke-width="1.45" stroke-linecap="round" stroke-linejoin="round"/>
<path d="M221.69 132.11C221.829 132.535 222.067 132.921 222.383 133.237C222.699 133.553 223.085 133.791 223.51 133.93C224.042 134.064 224.603 134.035 225.119 133.846C225.634 133.657 226.081 133.317 226.4 132.87" stroke="#028571" stroke-width="1.45" stroke-linecap="round" stroke-linejoin="round"/>
<path d="M218.2 140.3C219.2 143.48 220.2 144.35 220.94 144.4C221.94 144.46 222.77 143.14 223.67 143.49C224.27 143.73 224.19 144.42 224.73 144.86C225.27 145.3 226.41 145.48 229.13 144.1" stroke="#028571" stroke-width="1.45" stroke-linecap="round" stroke-linejoin="round"/>
<path d="M239.76 140.3C243.25 141.57 244.53 141.3 244.98 140.76C245.65 139.9 244.64 138.07 245.38 137.57C245.89 137.22 246.59 137.98 247.38 137.72C248.17 137.46 248.61 136.04 248.74 134.38" stroke="#028571" stroke-width="1.45" stroke-linecap="round" stroke-linejoin="round"/>
<path d="M238.39 146.53C238.76 148.85 238.39 149.6 237.94 149.87C236.87 150.52 234.82 148.57 233.69 149.41C233.13 149.82 233.31 150.54 232.78 150.78C232.25 151.02 231.05 150.26 230.2 149.41" stroke="#028571" stroke-width="1.45" stroke-linecap="round" stroke-linejoin="round"/>
<path d="M238.39 155.33C239.68 157.06 240.62 157.39 241.28 157.33C242.75 157.13 243.28 154.75 244.62 154.75C244.973 154.811 245.308 154.953 245.598 155.165C245.887 155.376 246.124 155.652 246.29 155.97" stroke="#028571" stroke-width="1.45" stroke-linecap="round" stroke-linejoin="round"/>
<path d="M227 159.43C225.44 160.66 224.52 160.68 224 160.49C222.84 160.08 222.7 158.49 221.57 158.37C220.71 158.27 220.31 159.14 219.57 158.97C218.83 158.8 218.45 157.74 218.2 156.54" stroke="#028571" stroke-width="1.45" stroke-linecap="round" stroke-linejoin="round"/>
<path d="M20.28 153.23C21.5484 151.744 23.3373 150.799 25.28 150.59" stroke="#028571" stroke-width="3.62" stroke-linecap="round" stroke-linejoin="round"/>
<path d="M20 132.2C20.9124 131.12 22.0719 130.276 23.38 129.74" stroke="#028571" stroke-width="3.62" stroke-linecap="round" stroke-linejoin="round"/>
<path d="M20.15 144.63C19.0584 143.441 17.6817 142.549 16.15 142.04" stroke="#028571" stroke-width="3.62" stroke-linecap="round" stroke-linejoin="round"/>
<path d="M19.7 165.63C20.11 157.36 20.26 148.63 20.07 139.53C19.98 135.4 19.82 131.38 19.61 127.44" stroke="#028571" stroke-width="2" stroke-linecap="round" stroke-linejoin="round"/>
<path d="M13.42 132.2C13.98 131.09 11.6 129.59 12.07 128.02C12.25 127.44 12.62 127.49 14.07 126.3C16.07 124.62 15.83 124.11 16.9 123.59C17.97 123.07 18.3 123.59 21.33 123.47C23.96 123.39 24.45 122.98 25.02 123.47C26.13 124.47 24.89 126.47 26.25 127.9C26.98 128.66 27.65 128.29 28.09 129.01C28.83 130.19 27.22 131.46 27.72 133.19C28.15 134.65 29.48 134.36 30.06 135.89C30.73 137.67 29.19 138.74 29.94 140.57C30.45 141.83 31.35 141.71 31.54 142.78C31.8 144.3 30.05 144.95 30.18 146.59C30.28 147.79 31.18 147.79 31.9 149.42C32.44 150.74 32.7 152.88 31.66 154.22C30.77 155.37 29.84 154.75 27.77 156.16C26.06 157.32 26.17 158.09 24.77 158.65C23.7 159.08 23.34 158.74 21.08 158.77C17.58 158.82 17.22 159.63 15.63 159.13C14.38 158.73 14.55 158.22 12.13 156.33C9.22997 154.07 8.18998 154.2 7.79998 152.99C7.30998 151.47 8.79997 150.91 9.51997 147.99C10.34 144.52 8.64998 143.69 9.75998 140.85C10.56 138.85 11.67 138.59 11.76 136.79C11.76 135.23 11.01 134.24 11.64 133.35C12.27 132.46 13.15 132.91 13.48 132.24" fill="#369D8D"/>
<path d="M17.66 128.8C18.03 130.08 18.46 130.45 18.82 130.5C19.4 130.6 19.82 129.89 20.44 130.06C20.91 130.17 20.96 130.63 21.36 130.91C21.76 131.19 22.62 131.3 24.29 130.41" stroke="#028571" stroke-width="1.45" stroke-linecap="round" stroke-linejoin="round"/>
<path d="M25.73 134.27C25.89 135.4 25.73 135.83 25.46 135.97C24.96 136.27 24.07 135.49 23.76 135.8C23.45 136.11 23.99 136.65 23.76 137.05C23.53 137.45 23.03 137.56 21.34 137.23" stroke="#028571" stroke-width="1.45" stroke-linecap="round" stroke-linejoin="round"/>
<path d="M13 138.76C13.084 139.011 13.2253 139.24 13.4127 139.427C13.6002 139.615 13.8286 139.756 14.08 139.84C14.3939 139.918 14.7239 139.899 15.0271 139.787C15.3303 139.675 15.5927 139.474 15.78 139.21" stroke="#028571" stroke-width="1.45" stroke-linecap="round" stroke-linejoin="round"/>
<path d="M10.93 143.6C11.52 145.48 12.09 146 12.54 146.02C12.99 146.04 13.63 145.28 14.16 145.49C14.51 145.63 14.47 146.03 14.79 146.29C15.11 146.55 15.79 146.66 17.39 145.85" stroke="#028571" stroke-width="1.45" stroke-linecap="round" stroke-linejoin="round"/>
<path d="M23.66 143.6C25.73 144.35 26.48 144.21 26.75 143.88C27.15 143.37 26.55 142.28 26.98 141.99C27.41 141.7 27.7 142.23 28.15 142.08C28.6 141.93 28.87 141.08 28.96 140.08" stroke="#028571" stroke-width="1.45" stroke-linecap="round" stroke-linejoin="round"/>
<path d="M22.85 147.28C23.07 148.65 22.85 149.1 22.59 149.28C21.95 149.67 20.74 148.52 20.07 149.01C19.74 149.26 19.85 149.68 19.54 149.82C19.23 149.96 18.54 149.52 18.01 149.01" stroke="#028571" stroke-width="1.45" stroke-linecap="round" stroke-linejoin="round"/>
<path d="M22.86 152.48C23.62 153.48 24.17 153.7 24.56 153.65C25.43 153.53 25.73 152.12 26.56 152.12C26.7708 152.155 26.9707 152.238 27.1441 152.363C27.3176 152.488 27.4599 152.651 27.56 152.84" stroke="#028571" stroke-width="1.45" stroke-linecap="round" stroke-linejoin="round"/>
<path d="M16.13 154.9C15.21 155.63 14.67 155.64 14.34 155.53C13.65 155.29 13.57 154.35 12.9 154.27C12.4 154.27 12.16 154.73 11.74 154.63C11.32 154.53 11.07 153.91 10.93 153.2" stroke="#028571" stroke-width="1.45" stroke-linecap="round" stroke-linejoin="round"/>
<path d="M30.54 164.67C30.42 165.52 30.12 165.81 29.89 165.93C29.1 166.31 28.1 165.19 27.37 165.63C27 165.85 27.12 166.25 26.72 166.58C26.4199 166.757 26.0822 166.86 25.7345 166.881C25.3867 166.902 25.0391 166.84 24.72 166.7" stroke="white" stroke-width="1.45" stroke-miterlimit="10"/>
<path d="M36.46 173.28C35.8 174.87 35.07 175.28 34.55 175.43C33.39 175.7 32.55 174.57 31.55 175.01C30.72 175.36 30.74 176.25 30.06 176.39C29.38 176.53 28.6 175.73 28.06 174.95" stroke="white" stroke-width="1.45" stroke-miterlimit="10"/>
<path d="M25.72 143.37C26.06 146.9 26.29 150.7 26.34 154.75C26.3984 159.681 26.1915 164.611 25.72 169.52" stroke="#65948D" stroke-width="2" stroke-linecap="round" stroke-linejoin="round"/>
<path d="M26 147.32C25.0406 146.281 23.8378 145.498 22.5 145.04C21.8532 144.82 21.1812 144.682 20.5 144.63" stroke="#65948D" stroke-width="3.62" stroke-linecap="round" stroke-linejoin="round"/>
<path d="M26.74 151.85C27.1306 151.512 27.5487 151.208 27.99 150.94C28.9831 150.326 30.0818 149.902 31.23 149.69" stroke="#65948D" stroke-width="3.62" stroke-linecap="round" stroke-linejoin="round"/>
<path d="M15.17 148.75C15.26 147.21 16.69 147.18 17.17 145.31C17.3577 144.018 17.2621 142.701 16.89 141.45C16.7619 141.032 16.8047 140.581 17.0091 140.195C17.2134 139.808 17.5626 139.519 17.98 139.39C18.2326 139.313 18.4996 139.296 18.76 139.34C20.37 139.53 21.39 139.63 22.1 139.1C22.81 138.57 22.35 137.99 23.1 137.1C23.4496 136.67 23.8923 136.325 24.3947 136.091C24.897 135.858 25.4459 135.741 26 135.75C26.11 135.75 28 135.85 28.61 137.06C29.02 137.86 28.61 138.63 28.93 138.77C29.25 138.91 29.93 137.33 31.46 136.9C31.9228 136.772 32.4096 136.757 32.8794 136.856C33.3492 136.955 33.7884 137.166 34.16 137.47C34.5369 137.746 34.8336 138.118 35.0198 138.547C35.206 138.975 35.2751 139.446 35.22 139.91C34.95 140.91 33.89 140.82 33.67 141.71C33.45 142.6 34.4 142.97 35.05 144.71C35.5704 145.747 35.6602 146.947 35.3 148.05C34.83 149.05 34.08 148.88 33.59 149.93C33.1 150.98 33.59 151.43 33.42 152.78C33.42 153.25 33.11 155.33 31.79 156.13C30.47 156.93 29.15 156.03 26.24 156.13C25.7759 156.138 25.3137 156.192 24.86 156.29C23.86 156.51 23.66 156.78 23.14 156.86C22.3807 156.872 21.6393 156.629 21.0339 156.171C20.4286 155.712 19.9942 155.064 19.8 154.33C19.59 153.28 20.27 152.69 19.88 152.21C19.34 151.55 18.1 152.44 16.88 151.72C16.3651 151.409 15.9409 150.968 15.6496 150.442C15.3583 149.915 15.2102 149.322 15.22 148.72" fill="#004D40"/>
<path d="M27.72 152.18C28.49 152.79 28.86 152.8 29.06 152.69C29.53 152.45 29.3 151.48 29.79 151.22C30.12 151.06 30.56 151.29 30.86 151.49" stroke="#65948D" stroke-width="1.45" stroke-linecap="round" stroke-linejoin="round"/>
<path d="M19.65 146.94C19.35 147.45 19.36 147.69 19.45 147.81C19.54 147.93 19.84 147.9 20.12 148.08C20.2487 148.174 20.3569 148.294 20.4377 148.431C20.5185 148.569 20.5703 148.722 20.59 148.88" stroke="#65948D" stroke-width="1.45" stroke-linecap="round" stroke-linejoin="round"/>
<path d="M28.56 144.64C29.56 145.08 30.12 144.96 30.43 144.78C31.11 144.36 31.01 143.39 31.77 143.1C32.24 142.92 32.53 143.19 32.84 142.97C33.15 142.75 33.21 141.97 33.11 141.36" stroke="#65948D" stroke-width="1.45" stroke-linecap="round" stroke-linejoin="round"/>
<path d="M21.63 140.58C21.6545 140.797 21.7274 141.006 21.8434 141.191C21.9593 141.376 22.1154 141.533 22.3 141.65C23.01 142.03 23.8 141.28 24.64 141.65C24.96 141.81 25.2196 142.07 25.38 142.39" stroke="#65948D" stroke-width="1.45" stroke-linecap="round" stroke-linejoin="round"/>
<path d="M24.11 154.84C24.56 155.38 24.89 155.47 25.11 155.44C25.33 155.41 25.54 155.11 25.98 154.97C26.2645 154.89 26.5655 154.89 26.85 154.97" stroke="#65948D" stroke-width="1.45" stroke-linecap="round" stroke-linejoin="round"/>
<path d="M31.63 162.13C29.48 160.89 29.76 159.76 28.25 159.36C25.75 158.7 24.59 161.73 21.1 161.78C18.41 161.83 18 160.04 15.44 160.4C14.4182 160.573 13.4445 160.96 12.5828 161.535C11.7211 162.111 10.9909 162.862 10.44 163.74C9.19 165.74 9.94999 167.04 8.70999 168.01C7.30999 169.11 5.98 167.77 3.86 168.71C2.91519 169.211 2.10647 169.934 1.50367 170.818C0.900859 171.701 0.522074 172.718 0.399997 173.78C0.191342 175.368 0.51864 176.979 1.33 178.36H40C40.93 175 40.36 173.14 39.65 172.05C38.94 170.96 38.19 170.95 37.57 169.75C36.35 167.35 38.31 165.51 37.23 163.98C36.15 162.45 34.41 163.76 31.6 162.13" fill="#71C3B9"/>
</g>
<defs>
<clipPath id="clip0_1_2">
<rect width="463" height="185" fill="white"/>
</clipPath>
</defs>
</svg>
