<svg width="88" height="88" viewBox="0 0 88 88" fill="none" xmlns="http://www.w3.org/2000/svg">
<circle cx="44" cy="44" r="44" fill="#8270B3"/>
<path d="M67.7744 57.6948C67.7744 60.9761 66.749 63.5908 64.6982 65.5391C62.6621 67.4727 59.8643 68.4395 56.3047 68.4395C53.1992 68.4395 50.709 67.7437 48.834 66.3521C46.9736 64.9458 45.8237 62.917 45.3843 60.2656L51.5586 59.7603C51.8809 61.0786 52.4521 62.0381 53.2725 62.6387C54.0928 63.2393 55.1255 63.5396 56.3706 63.5396C57.9087 63.5396 59.1318 63.0488 60.04 62.0674C60.9629 61.0859 61.4243 59.6724 61.4243 57.8267C61.4243 56.2007 60.9922 54.9043 60.1279 53.9375C59.2637 52.9561 58.0552 52.4653 56.5024 52.4653C55.6528 52.4653 54.8765 52.6338 54.1733 52.9707C53.4702 53.293 52.8477 53.791 52.3057 54.4648H46.2852L47.3618 37.0405H65.9727V41.6328H52.9648L52.4595 49.4551C53.9536 48.1367 55.8213 47.4775 58.0625 47.4775C60.0254 47.4775 61.7319 47.895 63.1821 48.73C64.647 49.5503 65.7749 50.7222 66.5659 52.2456C67.3716 53.769 67.7744 55.5854 67.7744 57.6948Z" fill="white"/>
</svg>
