<svg id="Groupe_381" data-name="Groupe 381" xmlns="http://www.w3.org/2000/svg" xmlns:xlink="http://www.w3.org/1999/xlink" width="812.848" height="534.235" viewBox="0 0 812.848 534.235">
  <defs>
    <clipPath id="clip-path">
      <rect id="Rectangle_805" data-name="Rectangle 805" width="812.848" height="534.235" fill="none"/>
    </clipPath>
    <clipPath id="clip-path-2">
      <rect id="Rectangle_769" data-name="Rectangle 769" width="812.846" height="534.235" fill="none"/>
    </clipPath>
    <clipPath id="clip-path-3">
      <rect id="Rectangle_768" data-name="Rectangle 768" width="629.853" height="258.598" fill="none"/>
    </clipPath>
    <clipPath id="clip-path-4">
      <path id="Tracé_2951" data-name="Tracé 2951" d="M308.294,317.855l194.254-97.738,3.909,195.45L481.5,433.172l-137.343-11.9Z" transform="translate(-308.294 -220.117)" fill="none"/>
    </clipPath>
    <clipPath id="clip-path-6">
      <rect id="Rectangle_770" data-name="Rectangle 770" width="645.81" height="524.761" fill="none"/>
    </clipPath>
    <clipPath id="clip-path-7">
      <path id="Tracé_3034" data-name="Tracé 3034" d="M744.049,413.84V347.08L498.36,224.94V416.551H308.294V568.188H408.579v.077h60.574v-.077h28.5l247.724.591Z" transform="translate(-308.294 -224.94)" fill="none"/>
    </clipPath>
    <clipPath id="clip-path-8">
      <rect id="Rectangle_772" data-name="Rectangle 772" width="629.853" height="269.875" fill="none"/>
    </clipPath>
    <clipPath id="clip-path-9">
      <path id="Tracé_3089" data-name="Tracé 3089" d="M222.521,378.551l53.887-48.479,98.651,116.736,76.848.706v29.779h-69.8V599.947H222.521v-221.4Z" transform="translate(-222.521 -330.072)" fill="none"/>
    </clipPath>
    <clipPath id="clip-path-10">
      <path id="Tracé_3091" data-name="Tracé 3091" d="M253.632,539.068V643.66l99.12.095V539.068Z" transform="translate(-253.632 -539.068)" fill="none"/>
    </clipPath>
  </defs>
  <g id="Groupe_380" data-name="Groupe 380" clip-path="url(#clip-path)">
    <path id="Tracé_2907" data-name="Tracé 2907" d="M498.36,465.665H308.294V617.3H497.649Z" transform="translate(-62.9 -95.008)" fill="#e3cbc6"/>
    <rect id="Rectangle_767" data-name="Rectangle 767" width="60.574" height="116.767" transform="translate(345.678 405.605)" fill="#b97d71"/>
    <path id="Tracé_2908" data-name="Tracé 2908" d="M308.294,317.856l194.254-97.738,3.909,195.45-24.954,17.6L344.161,421.277Z" transform="translate(-62.9 -44.91)" fill="#c7978d"/>
    <g id="Groupe_363" data-name="Groupe 363">
      <g id="Groupe_362" data-name="Groupe 362" clip-path="url(#clip-path-2)">
        <g id="Groupe_361" data-name="Groupe 361" transform="translate(135.765 154.96)" opacity="0.23">
          <g id="Groupe_360" data-name="Groupe 360">
            <g id="Groupe_359" data-name="Groupe 359" clip-path="url(#clip-path-3)">
              <g id="Groupe_358" data-name="Groupe 358" transform="translate(109.629 20.247)">
                <g id="Groupe_357" data-name="Groupe 357" clip-path="url(#clip-path-4)">
                  <path id="Tracé_2909" data-name="Tracé 2909" d="M800.418,219.055l-39.366.175-39.366.076-39.366.077-39.366-.046-78.731-.162c-13.122-.049-26.244-.02-39.366.006l-39.366.066-78.731.156-78.731.027q-39.366.059-78.732-.107l-78.731-.267v-.085L249.3,218.7q39.366-.106,78.732-.107l78.731.027,78.731.156,39.366.066c13.122.025,26.243.054,39.366.006l78.731-.162,39.366-.046,39.366.076,39.366.076,39.366.175Z" transform="translate(-280.194 -219.804)" fill="#352d24"/>
                  <path id="Tracé_2910" data-name="Tracé 2910" d="M800.418,253.091l-39.366.174-39.366.076-39.366.076-39.366-.045-78.731-.162c-13.122-.049-26.244-.02-39.366.006l-39.366.066-78.731.156-78.731.027q-39.366.059-78.732-.107l-78.731-.267v-.085l78.731-.267q39.366-.106,78.732-.108l78.731.027,78.731.156,39.366.067c13.122.025,26.243.054,39.366.006l78.731-.162,39.366-.046,39.366.076,39.366.076,39.366.175Z" transform="translate(-280.194 -226.749)" fill="#352d24"/>
                  <path id="Tracé_2911" data-name="Tracé 2911" d="M170.565,229.1l39.366-.175,39.366-.076,39.366-.077,39.366.046,78.731.162c13.122.048,26.244.019,39.366-.006l39.366-.066,78.732-.156,78.731-.027q39.366-.059,78.732.107l78.731.267v.085l-78.731.267q-39.366.106-78.732.107l-78.731-.027-78.732-.156-39.366-.066c-13.122-.025-26.244-.054-39.366-.006l-78.731.162-39.366.046-39.366-.076-39.366-.076-39.366-.175Z" transform="translate(-280.194 -221.872)" fill="#352d24"/>
                  <path id="Tracé_2912" data-name="Tracé 2912" d="M800.418,237.155l-39.366.175-39.366.076-39.366.077-39.366-.046-78.731-.162c-13.122-.049-26.244-.02-39.366.006l-39.366.066-78.731.156-78.731.027q-39.366.059-78.732-.107l-78.731-.267v-.085L249.3,236.8q39.366-.106,78.732-.107l78.731.027,78.731.156,39.366.066c13.122.025,26.243.054,39.366.006l78.731-.162,39.366-.046,39.366.076,39.366.076,39.366.175Z" transform="translate(-280.194 -223.497)" fill="#352d24"/>
                  <path id="Tracé_2913" data-name="Tracé 2913" d="M170.565,245.038l39.366-.174,39.366-.076,39.366-.076,39.366.045,78.731.162c13.122.049,26.244.02,39.366-.006l39.366-.067,78.732-.156,78.731-.027q39.366-.059,78.732.108l78.731.267v.086l-78.731.267q-39.366.106-78.732.108l-78.731-.027-78.732-.156-39.366-.067c-13.122-.025-26.244-.054-39.366-.006l-78.731.162-39.366.046-39.366-.076-39.366-.076-39.366-.174Z" transform="translate(-280.194 -225.123)" fill="#352d24"/>
                  <path id="Tracé_2914" data-name="Tracé 2914" d="M800.418,253.091l-39.366.174-39.366.076-39.366.076-39.366-.045-78.731-.162c-13.122-.049-26.244-.02-39.366.006l-39.366.066-78.731.156-78.731.027q-39.366.059-78.732-.107l-78.731-.267v-.085l78.731-.267q39.366-.106,78.732-.108l78.731.027,78.731.156,39.366.067c13.122.025,26.243.054,39.366.006l78.731-.162,39.366-.046,39.366.076,39.366.076,39.366.175Z" transform="translate(-280.194 -226.749)" fill="#352d24"/>
                  <path id="Tracé_2915" data-name="Tracé 2915" d="M170.565,261.532l39.366-.175,39.366-.076,39.366-.077,39.366.046,78.731.162c13.122.049,26.244.02,39.366-.006l39.366-.066,78.732-.156,78.731-.027q39.366-.059,78.732.107l78.731.267v.085l-78.731.267q-39.366.106-78.732.107l-78.731-.027-78.732-.156-39.366-.066c-13.122-.025-26.244-.054-39.366-.006l-78.731.162-39.366.046-39.366-.076-39.366-.076-39.366-.175Z" transform="translate(-280.194 -228.488)" fill="#352d24"/>
                  <path id="Tracé_2916" data-name="Tracé 2916" d="M800.418,269.585l-39.366.175-39.366.076-39.366.077-39.366-.046-78.731-.162c-13.122-.048-26.244-.019-39.366.006l-39.366.066-78.731.156-78.731.027q-39.366.059-78.732-.107l-78.731-.267V269.5l78.731-.267q39.366-.106,78.732-.107l78.731.027,78.731.156,39.366.066c13.122.025,26.243.054,39.366.006l78.731-.162,39.366-.046,39.366.076,39.366.076,39.366.175Z" transform="translate(-280.194 -230.114)" fill="#352d24"/>
                  <path id="Tracé_2917" data-name="Tracé 2917" d="M170.565,277.468l39.366-.174,39.366-.076,39.366-.076,39.366.045,78.731.162c13.122.049,26.244.02,39.366-.006l39.366-.067,78.732-.156,78.731-.027q39.366-.059,78.732.108l78.731.267v.086l-78.731.267q-39.366.106-78.732.108l-78.731-.027-78.732-.156-39.366-.067c-13.122-.025-26.244-.054-39.366-.006l-78.731.162-39.366.046L249.3,277.8l-39.366-.076-39.366-.174Z" transform="translate(-280.194 -231.74)" fill="#352d24"/>
                  <path id="Tracé_2918" data-name="Tracé 2918" d="M800.418,285.521l-39.366.174-39.366.076-39.366.076-39.366-.045-78.731-.162c-13.122-.049-26.244-.02-39.366.006l-39.366.066-78.731.156-78.731.027q-39.366.059-78.732-.107l-78.731-.267v-.085l78.731-.267q39.366-.106,78.732-.107l78.731.026,78.731.157,39.366.066c13.122.025,26.243.054,39.366.006l78.731-.162,39.366-.046,39.366.076,39.366.076,39.366.175Z" transform="translate(-280.194 -233.365)" fill="#352d24"/>
                  <path id="Tracé_2919" data-name="Tracé 2919" d="M800.418,319.558l-39.366.174-39.366.076-39.366.076-39.366-.045-78.731-.162c-13.122-.049-26.244-.02-39.366.006l-39.366.066-78.731.156-78.731.027q-39.366.059-78.732-.108l-78.731-.267v-.086l78.731-.267q39.366-.106,78.732-.108l78.731.027,78.731.156,39.366.067c13.122.026,26.243.054,39.366.006l78.731-.162,39.366-.046,39.366.076,39.366.076,39.366.174Z" transform="translate(-280.194 -240.31)" fill="#352d24"/>
                  <path id="Tracé_2920" data-name="Tracé 2920" d="M170.565,295.568l39.366-.174,39.366-.076,39.366-.076,39.366.045,78.731.162c13.122.049,26.244.02,39.366-.006l39.366-.067,78.732-.156,78.731-.027q39.366-.059,78.732.108l78.731.267v.086l-78.731.267q-39.366.106-78.732.108L564.223,296l-78.732-.156-39.366-.067c-13.122-.025-26.244-.054-39.366-.006l-78.731.162-39.366.046L249.3,295.9l-39.366-.076-39.366-.174Z" transform="translate(-280.194 -235.432)" fill="#352d24"/>
                  <path id="Tracé_2921" data-name="Tracé 2921" d="M800.418,303.622l-39.366.174-39.366.076-39.366.076-39.366-.045-78.731-.162c-13.122-.049-26.244-.02-39.366.006l-39.366.066-78.731.156L328.028,304q-39.366.059-78.732-.107l-78.731-.267v-.085l78.731-.267q39.366-.106,78.732-.107l78.731.026,78.731.157,39.366.066c13.122.025,26.243.054,39.366.006l78.731-.162,39.366-.046,39.366.076,39.366.076,39.366.175Z" transform="translate(-280.194 -237.058)" fill="#352d24"/>
                  <path id="Tracé_2922" data-name="Tracé 2922" d="M170.565,311.5l39.366-.174,39.366-.076,39.366-.076,39.366.045,78.731.162c13.122.049,26.244.02,39.366-.006l39.366-.066,78.732-.156,78.731-.027q39.366-.059,78.732.108l78.731.267v.086l-78.731.267q-39.366.106-78.732.108l-78.731-.027-78.732-.156-39.366-.067c-13.122-.025-26.244-.054-39.366-.006l-78.731.162-39.366.046-39.366-.076-39.366-.076-39.366-.174Z" transform="translate(-280.194 -238.684)" fill="#352d24"/>
                  <path id="Tracé_2923" data-name="Tracé 2923" d="M800.418,319.558l-39.366.174-39.366.076-39.366.076-39.366-.045-78.731-.162c-13.122-.049-26.244-.02-39.366.006l-39.366.066-78.731.156-78.731.027q-39.366.059-78.732-.108l-78.731-.267v-.086l78.731-.267q39.366-.106,78.732-.108l78.731.027,78.731.156,39.366.067c13.122.026,26.243.054,39.366.006l78.731-.162,39.366-.046,39.366.076,39.366.076,39.366.174Z" transform="translate(-280.194 -240.31)" fill="#352d24"/>
                  <path id="Tracé_2924" data-name="Tracé 2924" d="M170.565,328l39.366-.175,39.366-.076,39.366-.077,39.366.046,78.731.162c13.122.049,26.244.019,39.366-.006l39.366-.066,78.732-.156,78.731-.027q39.366-.059,78.732.107l78.731.267v.085l-78.731.267q-39.366.106-78.732.107l-78.731-.027-78.732-.156-39.366-.066c-13.122-.025-26.244-.054-39.366-.006l-78.731.162-39.366.046-39.366-.076-39.366-.076-39.366-.175Z" transform="translate(-280.194 -242.049)" fill="#352d24"/>
                  <path id="Tracé_2925" data-name="Tracé 2925" d="M800.418,336.052l-39.366.175-39.366.076-39.366.077-39.366-.046-78.731-.162c-13.122-.049-26.244-.02-39.366.006l-39.366.066-78.731.156-78.731.027q-39.366.059-78.732-.107l-78.731-.267v-.085L249.3,335.7q39.366-.106,78.732-.107l78.731.027,78.731.156,39.366.066c13.122.026,26.243.054,39.366.006l78.731-.162,39.366-.046,39.366.076,39.366.076,39.366.175Z" transform="translate(-280.194 -243.675)" fill="#352d24"/>
                  <path id="Tracé_2926" data-name="Tracé 2926" d="M170.565,343.935l39.366-.174,39.366-.076,39.366-.076,39.366.045,78.731.162c13.122.049,26.244.02,39.366-.006l39.366-.067,78.732-.156,78.731-.027q39.366-.059,78.732.108l78.731.267v.086l-78.731.267q-39.366.106-78.732.108l-78.731-.027-78.732-.156-39.366-.067c-13.122-.025-26.244-.054-39.366-.006l-78.731.162-39.366.046-39.366-.076-39.366-.076-39.366-.174Z" transform="translate(-280.194 -245.301)" fill="#352d24"/>
                  <path id="Tracé_2927" data-name="Tracé 2927" d="M800.418,351.988l-39.366.174-39.366.076-39.366.076-39.366-.045-78.731-.162c-13.122-.049-26.244-.02-39.366.006l-39.366.066-78.731.156-78.731.027q-39.366.059-78.732-.107l-78.731-.267V351.9l78.731-.267q39.366-.106,78.732-.108l78.731.027,78.731.157,39.366.066c13.122.025,26.243.054,39.366.006l78.731-.162,39.366-.046,39.366.076,39.366.076,39.366.175Z" transform="translate(-280.194 -246.926)" fill="#352d24"/>
                  <path id="Tracé_2928" data-name="Tracé 2928" d="M800.418,386.025l-39.366.174-39.366.076-39.366.076-39.366-.045-78.731-.162c-13.122-.049-26.244-.02-39.366.006l-39.366.067-78.731.156-78.731.027q-39.366.058-78.732-.108l-78.731-.267v-.086l78.731-.267q39.366-.106,78.732-.108l78.731.027,78.731.156,39.366.067c13.122.025,26.243.054,39.366.006l78.731-.162,39.366-.046,39.366.076,39.366.076,39.366.174Z" transform="translate(-280.194 -253.871)" fill="#352d24"/>
                  <path id="Tracé_2929" data-name="Tracé 2929" d="M170.565,362.035l39.366-.174,39.366-.076,39.366-.076,39.366.045,78.731.162c13.122.049,26.244.02,39.366-.006l39.366-.067,78.732-.156,78.731-.027q39.366-.059,78.732.108l78.731.267v.086l-78.731.267q-39.366.106-78.732.108l-78.731-.027-78.732-.156-39.366-.067c-13.122-.025-26.244-.054-39.366-.006l-78.731.162-39.366.046-39.366-.076-39.366-.076-39.366-.174Z" transform="translate(-280.194 -248.993)" fill="#352d24"/>
                  <path id="Tracé_2930" data-name="Tracé 2930" d="M800.418,370.089l-39.366.174-39.366.076-39.366.076-39.366-.045-78.731-.162c-13.122-.049-26.244-.02-39.366.006l-39.366.066-78.731.156-78.731.027q-39.366.059-78.732-.107l-78.731-.267V370l78.731-.267q39.366-.106,78.732-.108l78.731.027,78.731.157,39.366.066c13.122.025,26.243.054,39.366.006l78.731-.162,39.366-.046,39.366.076,39.366.076,39.366.175Z" transform="translate(-280.194 -250.619)" fill="#352d24"/>
                  <path id="Tracé_2931" data-name="Tracé 2931" d="M170.565,377.971l39.366-.174,39.366-.076,39.366-.076,39.366.045,78.731.162c13.122.049,26.244.02,39.366-.006l39.366-.066,78.732-.156,78.731-.027q39.366-.059,78.732.107l78.731.267v.085l-78.731.267q-39.366.106-78.732.108l-78.731-.027-78.732-.156-39.366-.067c-13.122-.025-26.244-.054-39.366-.006l-78.731.162-39.366.046-39.366-.076-39.366-.076-39.366-.175Z" transform="translate(-280.194 -252.245)" fill="#352d24"/>
                  <path id="Tracé_2932" data-name="Tracé 2932" d="M800.418,386.025l-39.366.174-39.366.076-39.366.076-39.366-.045-78.731-.162c-13.122-.049-26.244-.02-39.366.006l-39.366.067-78.731.156-78.731.027q-39.366.058-78.732-.108l-78.731-.267v-.086l78.731-.267q39.366-.106,78.732-.108l78.731.027,78.731.156,39.366.067c13.122.025,26.243.054,39.366.006l78.731-.162,39.366-.046,39.366.076,39.366.076,39.366.174Z" transform="translate(-280.194 -253.871)" fill="#352d24"/>
                  <path id="Tracé_2933" data-name="Tracé 2933" d="M170.565,394.465l39.366-.174,39.366-.076,39.366-.076,39.366.045,78.731.162c13.122.049,26.244.02,39.366-.006l39.366-.067,78.732-.156,78.731-.027q39.366-.059,78.732.108l78.731.267v.086l-78.731.267q-39.366.106-78.732.108l-78.731-.027-78.732-.156-39.366-.066c-13.122-.026-26.244-.055-39.366-.006l-78.731.162-39.366.046L249.3,394.8l-39.366-.076-39.366-.174Z" transform="translate(-280.194 -255.61)" fill="#352d24"/>
                  <path id="Tracé_2934" data-name="Tracé 2934" d="M800.418,402.519l-39.366.174-39.366.076-39.366.076-39.366-.045-78.731-.162c-13.122-.049-26.244-.02-39.366.006l-39.366.066-78.731.156-78.731.027q-39.366.059-78.732-.107l-78.731-.267v-.085l78.731-.267q39.366-.106,78.732-.107l78.731.026,78.731.157,39.366.066c13.122.025,26.243.054,39.366.006l78.731-.162,39.366-.046,39.366.076,39.366.076,39.366.175Z" transform="translate(-280.194 -257.236)" fill="#352d24"/>
                  <path id="Tracé_2935" data-name="Tracé 2935" d="M170.565,410.4l39.366-.174,39.366-.076,39.366-.076,39.366.045,78.731.162c13.122.049,26.244.02,39.366-.006l39.366-.066,78.732-.156,78.731-.027q39.366-.059,78.732.108l78.731.267v.086l-78.731.267q-39.366.106-78.732.108l-78.731-.027-78.732-.156-39.366-.067c-13.122-.025-26.244-.054-39.366-.006l-78.731.162-39.366.046-39.366-.076-39.366-.076-39.366-.174Z" transform="translate(-280.194 -258.861)" fill="#352d24"/>
                  <path id="Tracé_2936" data-name="Tracé 2936" d="M800.418,418.455l-39.366.174-39.366.076-39.366.076-39.366-.045-78.731-.162c-13.122-.049-26.244-.02-39.366.006l-39.366.066-78.731.156-78.731.027q-39.366.059-78.732-.108l-78.731-.267v-.085L249.3,418.1q39.366-.106,78.732-.108l78.731.027,78.731.156,39.366.067c13.122.025,26.243.054,39.366.006l78.731-.162,39.366-.046,39.366.076,39.366.076,39.366.175Z" transform="translate(-280.194 -260.487)" fill="#352d24"/>
                  <path id="Tracé_2937" data-name="Tracé 2937" d="M800.418,452.491l-39.366.174-39.366.076-39.366.076-39.366-.045-78.731-.162c-13.122-.049-26.244-.02-39.366.006l-39.366.066-78.731.156-78.731.027q-39.366.058-78.732-.107l-78.731-.267v-.086l78.731-.267q39.366-.106,78.732-.107l78.731.026,78.731.157,39.366.066c13.122.025,26.243.054,39.366.006l78.731-.162,39.366-.046,39.366.076,39.366.076,39.366.174Z" transform="translate(-280.194 -267.432)" fill="#352d24"/>
                  <path id="Tracé_2938" data-name="Tracé 2938" d="M170.565,428.5l39.366-.174,39.366-.076,39.366-.076,39.366.045,78.731.162c13.122.049,26.244.02,39.366-.006l39.366-.066,78.732-.156,78.731-.027q39.366-.059,78.732.108l78.731.267v.086l-78.731.267q-39.366.106-78.732.108l-78.731-.027-78.732-.156-39.366-.067c-13.122-.025-26.244-.054-39.366-.006l-78.731.162-39.366.046-39.366-.076-39.366-.076-39.366-.174Z" transform="translate(-280.194 -262.555)" fill="#352d24"/>
                  <path id="Tracé_2939" data-name="Tracé 2939" d="M800.418,436.556l-39.366.174-39.366.076-39.366.076-39.366-.045-78.731-.162c-13.122-.049-26.244-.02-39.366.006l-39.366.067-78.731.156-78.731.027q-39.366.058-78.732-.107l-78.731-.267v-.086L249.3,436.2q39.366-.106,78.732-.107l78.731.026,78.731.157,39.366.066c13.122.025,26.243.054,39.366.006l78.731-.162,39.366-.046,39.366.076,39.366.076,39.366.174Z" transform="translate(-280.194 -264.18)" fill="#352d24"/>
                  <path id="Tracé_2940" data-name="Tracé 2940" d="M170.565,444.438l39.366-.174,39.366-.076,39.366-.076,39.366.045,78.731.162c13.122.049,26.244.019,39.366-.006l39.366-.066,78.732-.156,78.731-.027q39.366-.059,78.732.107l78.731.267v.085l-78.731.267q-39.366.106-78.732.107l-78.731-.026-78.732-.157-39.366-.066c-13.122-.025-26.244-.054-39.366-.006l-78.731.162-39.366.046-39.366-.076-39.366-.076-39.366-.175Z" transform="translate(-280.194 -265.806)" fill="#352d24"/>
                  <path id="Tracé_2941" data-name="Tracé 2941" d="M800.418,452.491l-39.366.174-39.366.076-39.366.076-39.366-.045-78.731-.162c-13.122-.049-26.244-.02-39.366.006l-39.366.066-78.731.156-78.731.027q-39.366.058-78.732-.107l-78.731-.267v-.086l78.731-.267q39.366-.106,78.732-.107l78.731.026,78.731.157,39.366.066c13.122.025,26.243.054,39.366.006l78.731-.162,39.366-.046,39.366.076,39.366.076,39.366.174Z" transform="translate(-280.194 -267.432)" fill="#352d24"/>
                  <path id="Tracé_2942" data-name="Tracé 2942" d="M170.565,460.932l39.366-.174,39.366-.076,39.366-.076,39.366.045,78.731.162c13.122.049,26.244.019,39.366-.006l39.366-.066,78.732-.156,78.731-.027q39.366-.059,78.732.107l78.731.267v.085l-78.731.267q-39.366.106-78.732.107l-78.731-.026-78.732-.157-39.366-.066c-13.122-.025-26.244-.054-39.366-.006l-78.731.162-39.366.046-39.366-.076-39.366-.076-39.366-.175Z" transform="translate(-280.194 -269.171)" fill="#352d24"/>
                  <path id="Tracé_2943" data-name="Tracé 2943" d="M800.418,468.986l-39.366.174-39.366.076-39.366.076-39.366-.045-78.731-.162c-13.122-.049-26.244-.02-39.366.006l-39.366.067-78.731.156-78.731.027q-39.366.059-78.732-.107l-78.731-.267V468.9l78.731-.267q39.366-.106,78.732-.107l78.731.026,78.731.157,39.366.066c13.122.025,26.243.054,39.366.006l78.731-.162,39.366-.046,39.366.076,39.366.076,39.366.174Z" transform="translate(-280.194 -270.797)" fill="#352d24"/>
                  <path id="Tracé_2944" data-name="Tracé 2944" d="M170.565,476.868l39.366-.174,39.366-.076,39.366-.076,39.366.045,78.731.162c13.122.049,26.244.02,39.366-.006l39.366-.067,78.732-.156,78.731-.027q39.366-.059,78.732.107l78.731.267v.086l-78.731.267q-39.366.106-78.732.107l-78.731-.026-78.732-.157-39.366-.066c-13.122-.025-26.244-.054-39.366-.006l-78.731.162-39.366.046L249.3,477.2l-39.366-.076-39.366-.174Z" transform="translate(-280.194 -272.422)" fill="#352d24"/>
                  <path id="Tracé_2945" data-name="Tracé 2945" d="M800.418,484.922l-39.366.174-39.366.076-39.366.076-39.366-.045-78.731-.162c-13.122-.049-26.244-.02-39.366.006l-39.366.067-78.731.156-78.731.027q-39.366.059-78.732-.107l-78.731-.267v-.086l78.731-.267q39.366-.106,78.732-.108l78.731.027,78.731.156,39.366.067c13.122.025,26.243.054,39.366.006l78.731-.162,39.366-.046,39.366.076,39.366.076,39.366.174Z" transform="translate(-280.194 -274.048)" fill="#352d24"/>
                  <path id="Tracé_2946" data-name="Tracé 2946" d="M800.418,518.958l-39.366.174-39.366.076-39.366.076-39.366-.045-78.731-.162c-13.122-.049-26.244-.02-39.366.006l-39.366.067-78.731.156-78.731.027q-39.366.058-78.732-.107l-78.731-.267v-.086l78.731-.267q39.366-.106,78.732-.107l78.731.026,78.731.157,39.366.066c13.122.025,26.243.054,39.366.005l78.731-.162,39.366-.046,39.366.076,39.366.076,39.366.174Z" transform="translate(-280.194 -280.993)" fill="#352d24"/>
                  <path id="Tracé_2947" data-name="Tracé 2947" d="M170.565,494.969l39.366-.174,39.366-.076,39.366-.076,39.366.045,78.731.162c13.122.049,26.244.02,39.366-.006l39.366-.067,78.732-.156,78.731-.027q39.366-.059,78.732.107l78.731.267v.086l-78.731.267q-39.366.106-78.732.107l-78.731-.026-78.732-.157-39.366-.066c-13.122-.026-26.244-.054-39.366-.006l-78.731.162-39.366.046-39.366-.076-39.366-.076-39.366-.174Z" transform="translate(-280.194 -276.116)" fill="#352d24"/>
                  <path id="Tracé_2948" data-name="Tracé 2948" d="M800.418,503.022l-39.366.174-39.366.076-39.366.076-39.366-.045-78.731-.162c-13.122-.049-26.244-.02-39.366.006l-39.366.067-78.731.156-78.731.027q-39.366.058-78.732-.107l-78.731-.267v-.086l78.731-.267q39.366-.106,78.732-.108l78.731.027,78.731.156,39.366.067c13.122.026,26.243.054,39.366.006l78.731-.162,39.366-.046,39.366.076,39.366.076,39.366.174Z" transform="translate(-280.194 -277.741)" fill="#352d24"/>
                  <path id="Tracé_2949" data-name="Tracé 2949" d="M170.565,510.9l39.366-.174,39.366-.076,39.366-.077,39.366.046,78.731.162c13.122.049,26.244.019,39.366-.006l39.366-.067,78.732-.156,78.731-.026q39.366-.059,78.732.107l78.731.267v.086l-78.731.267q-39.366.106-78.732.108l-78.731-.027-78.732-.157-39.366-.066c-13.122-.026-26.244-.054-39.366-.006l-78.731.162-39.366.046-39.366-.077-39.366-.076-39.366-.175Z" transform="translate(-280.194 -279.367)" fill="#352d24"/>
                  <path id="Tracé_2950" data-name="Tracé 2950" d="M800.418,518.958l-39.366.174-39.366.076-39.366.076-39.366-.045-78.731-.162c-13.122-.049-26.244-.02-39.366.006l-39.366.067-78.731.156-78.731.027q-39.366.058-78.732-.107l-78.731-.267v-.086l78.731-.267q39.366-.106,78.732-.107l78.731.026,78.731.157,39.366.066c13.122.025,26.243.054,39.366.005l78.731-.162,39.366-.046,39.366.076,39.366.076,39.366.174Z" transform="translate(-280.194 -280.993)" fill="#352d24"/>
                </g>
              </g>
            </g>
          </g>
        </g>
      </g>
    </g>
    <path id="Tracé_2952" data-name="Tracé 2952" d="M855.743,454.953V597.981l108.569-.858V368.067l-108.569,8.215Z" transform="translate(-174.594 -75.096)" fill="#bfcad3"/>
    <path id="Tracé_2953" data-name="Tracé 2953" d="M546.9,475.826H792.585l1.325,144.142-247.724-.551.711-132.51Z" transform="translate(-111.437 -97.081)" fill="#c7978d"/>
    <path id="Tracé_2954" data-name="Tracé 2954" d="M547.079,224.94v199.7H792.767V347.08Z" transform="translate(-111.619 -45.894)" fill="#e3cbc6"/>
    <path id="Tracé_2955" data-name="Tracé 2955" d="M613.66,359.1l-47.446.9.9,75.832,46.543,1.487" transform="translate(-115.523 -73.266)" fill="#466884"/>
    <path id="Tracé_2956" data-name="Tracé 2956" d="M556.308,224.21l155.249,7.131L903.219,332.656l-110.279,9.1Z" transform="translate(-113.502 -45.745)" fill="#2c5c82"/>
    <path id="Tracé_2957" data-name="Tracé 2957" d="M925.49,371.881v82.737H855.742V373.711Z" transform="translate(-174.594 -75.874)" fill="#8b5e55"/>
    <path id="Tracé_2958" data-name="Tracé 2958" d="M709.748,229.513,554.6,225.539l-7.158-10.288,155.149,9.1Z" transform="translate(-111.692 -43.917)" fill="#275375"/>
    <path id="Tracé_2959" data-name="Tracé 2959" d="M350.9,337.744l-61.284-4.734.553-6.339,57.415,6.244Z" transform="translate(-59.09 -66.65)" fill="#275375"/>
    <path id="Tracé_2960" data-name="Tracé 2960" d="M743.306,345.113l-.847-.426L500.706,222.972,329.482,309.736l-9.689-2.772,180.9-91.669,244,122.846,110.269-7.3V336.9Z" transform="translate(-65.246 -43.926)" fill="#346e9c"/>
    <g id="Groupe_375" data-name="Groupe 375">
      <g id="Groupe_374" data-name="Groupe 374" clip-path="url(#clip-path-2)">
        <path id="Tracé_2961" data-name="Tracé 2961" d="M1019.321,243.262a1.285,1.285,0,0,0,0-2.569,1.285,1.285,0,0,0,0,2.569" transform="translate(-207.716 -49.108)" fill="#f6cfc5"/>
        <path id="Tracé_2962" data-name="Tracé 2962" d="M872.3,540.276c25.9.551,51.8.341,77.693,1.119.034,30.315.006,60.628.362,90.941-25.923.09-51.843.55-77.766.639.014-30.9-.269-61.8-.289-92.7" transform="translate(-177.972 -110.231)" fill="#dfe8ef"/>
        <path id="Tracé_2963" data-name="Tracé 2963" d="M868.221,631.646c-.052-32.86-.474-65.718-.527-98.578,28.1.69,56.2.4,84.29,1.348-1.2,2.2-1.784,3.3-2.933,5.508-25.894-.778-51.794-.569-77.693-1.119.02,30.9.3,61.8.288,92.7-1.35.057-2.034.086-3.426.142" transform="translate(-177.033 -108.76)" fill="#41494d"/>
        <path id="Tracé_2964" data-name="Tracé 2964" d="M969.906,540.27c1.149-2.208,1.734-3.31,2.933-5.508-.021,32.149-.172,64.3.143,96.447l-2.715,0c-.356-30.313-.327-60.626-.361-90.941" transform="translate(-197.887 -109.106)" fill="#48535b"/>
        <path id="Tracé_2965" data-name="Tracé 2965" d="M950.379,651.286c-25.906.083-51.807.575-77.713.666,0,1.473,0,2.207,0,3.672,25.923-.089,51.843-.55,77.766-.639-.02-1.48-.029-2.219-.048-3.7" transform="translate(-178.046 -132.88)" fill="#466884"/>
        <path id="Tracé_2966" data-name="Tracé 2966" d="M921.257,631.655l-1.1.014q-.25-44.985-.334-89.97l1.055,0q.073,44.978.381,89.952" transform="translate(-187.668 -110.521)" fill="#466884"/>
        <path id="Tracé_2967" data-name="Tracé 2967" d="M950,545.04c-25.9-.756-51.8-.551-77.7-1.088,0-1.474,0-2.209,0-3.676,25.9.551,51.8.341,77.693,1.12,0,1.457,0,2.186,0,3.644" transform="translate(-177.972 -110.231)" fill="#466884"/>
        <path id="Tracé_2968" data-name="Tracé 2968" d="M872.3,544.749l2.468.174c.215,27.275.588,54.548.789,81.823,24.908.235,49.817.205,74.724.494.01.923.016,1.386.027,2.309-25.906.083-51.807.575-77.713.666-.011-28.49-.255-56.977-.294-85.467" transform="translate(-177.972 -111.143)" fill="#2f4658"/>
        <path id="Tracé_2969" data-name="Tracé 2969" d="M912.153,442.7c-14.5,1.638-28.977,3.295-43.53,4.423-.12-19.717-.769-39.423-.925-59.139q22.038-1.5,44.032-3.467c2.651-.113,3.989-.172,6.706-.294v57.43c-2.518.407-3.773.618-6.283,1.048" transform="translate(-177.034 -78.391)" fill="#466884"/>
        <path id="Tracé_2970" data-name="Tracé 2970" d="M913.423,391.865c-12.517.77-25.04,1.457-37.569,1.99.449,16.705,1.2,33.4,1.617,50.1,12.125-.852,24.223-1.937,36.331-3.012" transform="translate(-178.698 -79.951)" fill="#466884"/>
        <path id="Tracé_2971" data-name="Tracé 2971" d="M875.807,394.184c2.235-.115,3.341-.175,5.546-.3.067,16.376.348,32.75.4,49.127,10.691-.8,21.356-1.876,32.031-2.851,0,.575,0,.865.007,1.453-12.108,1.075-24.2,2.159-36.33,3.012-.424-16.819-1.195-33.624-1.656-50.442" transform="translate(-178.688 -80.363)" fill="#2f4658"/>
        <path id="Tracé_2972" data-name="Tracé 2972" d="M882.027,393.572c10.89-.334,21.775-.786,32.657-1.3.106,15.88.271,31.761.371,47.642-10.675.975-21.34,2.05-32.03,2.852-.24-16.4-.744-32.8-1-49.2" transform="translate(-179.957 -80.035)" fill="#dfe8ef"/>
        <g id="Groupe_368" data-name="Groupe 368" transform="translate(162.557)" opacity="0.23">
          <g id="Groupe_367" data-name="Groupe 367">
            <g id="Groupe_366" data-name="Groupe 366" clip-path="url(#clip-path-6)">
              <g id="Groupe_365" data-name="Groupe 365" transform="translate(82.837 179.046)">
                <g id="Groupe_364" data-name="Groupe 364" clip-path="url(#clip-path-7)">
                  <path id="Tracé_2973" data-name="Tracé 2973" d="M204.224,334.771l39.366-.174,39.366-.076,39.366-.076,39.366.045,78.731.162c13.122.049,26.244.02,39.366-.006l39.367-.067,78.731-.156,78.731-.027q39.366-.059,78.732.108l78.731.267v.086l-78.731.267q-39.366.106-78.732.108l-78.731-.027-78.731-.156-39.367-.067c-13.122-.025-26.243-.054-39.366-.006l-78.731.162-39.366.046-39.366-.076-39.366-.076-39.366-.174Z" transform="translate(-287.061 -247.27)" fill="#352d24"/>
                  <path id="Tracé_2974" data-name="Tracé 2974" d="M834.077,342.825,794.711,343l-39.366.076-39.366.076-39.366-.045-78.731-.162c-13.122-.049-26.244-.02-39.366.006l-39.366.066-78.732.156-78.731.027q-39.366.059-78.732-.107l-78.731-.267v-.085l78.731-.267q39.366-.106,78.732-.108l78.731.027,78.732.156,39.366.067c13.122.025,26.244.054,39.366.006l78.731-.162,39.366-.046,39.366.076,39.366.076,39.366.175Z" transform="translate(-287.061 -248.896)" fill="#352d24"/>
                  <path id="Tracé_2975" data-name="Tracé 2975" d="M204.224,350.707l39.366-.174,39.366-.076,39.366-.076,39.366.045,78.731.162c13.122.049,26.244.02,39.366-.006l39.367-.066,78.731-.155,78.731-.027q39.366-.06,78.732.107l78.731.267v.086l-78.731.267q-39.366.106-78.732.107l-78.731-.026-78.731-.157-39.367-.066c-13.122-.026-26.243-.054-39.366-.006l-78.731.162-39.366.046-39.366-.077-39.366-.076-39.366-.175Z" transform="translate(-287.061 -250.521)" fill="#352d24"/>
                  <path id="Tracé_2976" data-name="Tracé 2976" d="M834.077,358.761l-39.366.174-39.366.076-39.366.076-39.366-.045-78.731-.162c-13.122-.049-26.244-.02-39.366.006l-39.366.067-78.732.156-78.731.027q-39.366.059-78.732-.108l-78.731-.267v-.086l78.731-.267q39.366-.106,78.732-.108l78.731.027,78.732.156,39.366.067c13.122.025,26.244.054,39.366.006l78.731-.162,39.366-.046,39.366.076,39.366.076,39.366.174Z" transform="translate(-287.061 -252.147)" fill="#352d24"/>
                  <path id="Tracé_2977" data-name="Tracé 2977" d="M834.077,392.8l-39.366.175-39.366.076-39.366.077-39.366-.046-78.731-.162c-13.122-.049-26.244-.02-39.366.006l-39.366.066-78.732.156-78.731.027q-39.366.059-78.732-.107l-78.731-.267v-.085l78.731-.267q39.366-.106,78.732-.107l78.731.027,78.732.156,39.366.066c13.122.025,26.244.054,39.366.006l78.731-.162,39.366-.046,39.366.076,39.366.076,39.366.175Z" transform="translate(-287.061 -259.091)" fill="#352d24"/>
                  <path id="Tracé_2978" data-name="Tracé 2978" d="M204.224,368.808l39.366-.174,39.366-.076,39.366-.076,39.366.045,78.731.162c13.122.049,26.244.02,39.366-.006l39.367-.066,78.731-.156,78.731-.027q39.366-.059,78.732.107l78.731.267v.085l-78.731.267q-39.366.106-78.732.108l-78.731-.027-78.731-.157-39.367-.066c-13.122-.025-26.243-.054-39.366-.006l-78.731.162-39.366.046-39.366-.076-39.366-.076-39.366-.175Z" transform="translate(-287.061 -254.214)" fill="#352d24"/>
                  <path id="Tracé_2979" data-name="Tracé 2979" d="M834.077,376.862l-39.366.174-39.366.076-39.366.076-39.366-.045-78.731-.162c-13.122-.049-26.244-.02-39.366.006l-39.366.067-78.732.156-78.731.027q-39.366.059-78.732-.108l-78.731-.267v-.086l78.731-.267q39.366-.106,78.732-.108l78.731.027,78.732.156,39.366.067c13.122.025,26.244.054,39.366.006l78.731-.162,39.366-.046,39.366.076,39.366.076,39.366.174Z" transform="translate(-287.061 -255.84)" fill="#352d24"/>
                  <path id="Tracé_2980" data-name="Tracé 2980" d="M204.224,384.744l39.366-.175,39.366-.076,39.366-.077,39.366.046,78.731.162c13.122.049,26.244.02,39.366-.006l39.367-.066,78.731-.156,78.731-.027q39.366-.059,78.732.107l78.731.267v.085l-78.731.267q-39.366.106-78.732.107l-78.731-.027-78.731-.156-39.367-.066c-13.122-.025-26.243-.054-39.366-.006l-78.731.162-39.366.046-39.366-.076L243.59,385l-39.366-.175Z" transform="translate(-287.061 -257.466)" fill="#352d24"/>
                  <path id="Tracé_2981" data-name="Tracé 2981" d="M834.077,392.8l-39.366.175-39.366.076-39.366.077-39.366-.046-78.731-.162c-13.122-.049-26.244-.02-39.366.006l-39.366.066-78.732.156-78.731.027q-39.366.059-78.732-.107l-78.731-.267v-.085l78.731-.267q39.366-.106,78.732-.107l78.731.027,78.732.156,39.366.066c13.122.025,26.244.054,39.366.006l78.731-.162,39.366-.046,39.366.076,39.366.076,39.366.175Z" transform="translate(-287.061 -259.091)" fill="#352d24"/>
                  <path id="Tracé_2982" data-name="Tracé 2982" d="M204.224,401.238l39.366-.174,39.366-.076,39.366-.076,39.366.045,78.731.162c13.122.049,26.244.02,39.366-.006l39.367-.066,78.731-.156,78.731-.027q39.366-.059,78.732.108l78.731.267v.086l-78.731.267q-39.366.106-78.732.108l-78.731-.027-78.731-.156-39.367-.067c-13.122-.025-26.243-.054-39.366-.006l-78.731.162-39.366.046-39.366-.076L243.59,401.5l-39.366-.174Z" transform="translate(-287.061 -260.831)" fill="#352d24"/>
                  <path id="Tracé_2983" data-name="Tracé 2983" d="M834.077,409.292l-39.366.174-39.366.076-39.366.076-39.366-.045-78.731-.162c-13.122-.049-26.244-.02-39.366.006l-39.366.066-78.732.156-78.731.027q-39.366.059-78.732-.108l-78.731-.267v-.086l78.731-.267q39.366-.106,78.732-.108l78.731.027,78.732.156,39.366.067c13.122.025,26.244.054,39.366.006l78.731-.162,39.366-.046,39.366.076,39.366.076,39.366.174Z" transform="translate(-287.061 -262.457)" fill="#352d24"/>
                  <path id="Tracé_2984" data-name="Tracé 2984" d="M204.224,417.174,243.59,417l39.366-.076,39.366-.076,39.366.045,78.731.162c13.122.049,26.244.02,39.366-.006l39.367-.066,78.731-.156,78.731-.027q39.366-.059,78.732.107l78.731.267v.085l-78.731.267q-39.366.106-78.732.107l-78.731-.026-78.731-.157-39.367-.066c-13.122-.025-26.243-.054-39.366-.006l-78.731.162-39.366.046-39.366-.076-39.366-.076-39.366-.175Z" transform="translate(-287.061 -264.082)" fill="#352d24"/>
                  <path id="Tracé_2985" data-name="Tracé 2985" d="M834.077,425.228l-39.366.174-39.366.076-39.366.076-39.366-.045-78.731-.162c-13.122-.049-26.244-.02-39.366.006l-39.366.067-78.732.156-78.731.027q-39.366.058-78.732-.108l-78.731-.267v-.086l78.731-.267q39.366-.106,78.732-.108l78.731.027,78.732.156,39.366.066c13.122.026,26.244.055,39.366.006l78.731-.162,39.366-.046,39.366.076,39.366.076,39.366.174Z" transform="translate(-287.061 -265.708)" fill="#352d24"/>
                  <path id="Tracé_2986" data-name="Tracé 2986" d="M834.077,459.264l-39.366.174-39.366.076-39.366.076-39.366-.045-78.731-.162c-13.122-.048-26.244-.019-39.366.006l-39.366.066-78.732.156-78.731.027q-39.366.059-78.732-.107l-78.731-.267v-.085l78.731-.267q39.366-.106,78.732-.107l78.731.026,78.732.157,39.366.066c13.122.025,26.244.054,39.366.006l78.731-.162,39.366-.046,39.366.076,39.366.076,39.366.175Z" transform="translate(-287.061 -272.652)" fill="#352d24"/>
                  <path id="Tracé_2987" data-name="Tracé 2987" d="M204.224,435.275l39.366-.174,39.366-.076,39.366-.076,39.366.045,78.731.162c13.122.048,26.244.019,39.366-.006l39.367-.066,78.731-.156,78.731-.027q39.366-.059,78.732.107l78.731.267v.085l-78.731.267q-39.366.106-78.732.107l-78.731-.026-78.731-.157-39.367-.066c-13.122-.025-26.243-.054-39.366-.006l-78.731.162-39.366.046-39.366-.076-39.366-.076-39.366-.175Z" transform="translate(-287.061 -267.775)" fill="#352d24"/>
                  <path id="Tracé_2988" data-name="Tracé 2988" d="M834.077,443.328l-39.366.174-39.366.076-39.366.076-39.366-.045-78.731-.162c-13.122-.049-26.244-.02-39.366.006l-39.366.067-78.732.156-78.731.027q-39.366.059-78.732-.107l-78.731-.267v-.086l78.731-.267q39.366-.106,78.732-.107l78.731.026,78.732.157,39.366.066c13.122.025,26.244.054,39.366.006l78.731-.162,39.366-.046,39.366.076,39.366.076,39.366.174Z" transform="translate(-287.061 -269.401)" fill="#352d24"/>
                  <path id="Tracé_2989" data-name="Tracé 2989" d="M204.224,451.211l39.366-.174,39.366-.076,39.366-.076,39.366.045,78.731.162c13.122.049,26.244.02,39.366-.006l39.367-.067,78.731-.156,78.731-.027q39.366-.058,78.732.107l78.731.267v.086l-78.731.267q-39.366.106-78.732.107l-78.731-.026-78.731-.157-39.367-.066c-13.122-.025-26.243-.054-39.366-.006l-78.731.162-39.366.046-39.366-.076-39.366-.076-39.366-.174Z" transform="translate(-287.061 -271.027)" fill="#352d24"/>
                  <path id="Tracé_2990" data-name="Tracé 2990" d="M834.077,459.264l-39.366.174-39.366.076-39.366.076-39.366-.045-78.731-.162c-13.122-.048-26.244-.019-39.366.006l-39.366.066-78.732.156-78.731.027q-39.366.059-78.732-.107l-78.731-.267v-.085l78.731-.267q39.366-.106,78.732-.107l78.731.026,78.732.157,39.366.066c13.122.025,26.244.054,39.366.006l78.731-.162,39.366-.046,39.366.076,39.366.076,39.366.175Z" transform="translate(-287.061 -272.652)" fill="#352d24"/>
                  <path id="Tracé_2991" data-name="Tracé 2991" d="M204.224,467.705l39.366-.174,39.366-.076,39.366-.076,39.366.045,78.731.162c13.122.049,26.244.02,39.366-.006l39.367-.067,78.731-.156,78.731-.027q39.366-.059,78.732.107l78.731.267v.086l-78.731.267q-39.366.106-78.732.107l-78.731-.026-78.731-.157-39.367-.066c-13.122-.025-26.243-.054-39.366-.006l-78.731.162-39.366.046-39.366-.076-39.366-.076-39.366-.174Z" transform="translate(-287.061 -274.392)" fill="#352d24"/>
                  <path id="Tracé_2992" data-name="Tracé 2992" d="M834.077,475.759l-39.366.174-39.366.076-39.366.076-39.366-.045-78.731-.162c-13.122-.048-26.244-.019-39.366.006l-39.366.066-78.732.156-78.731.027q-39.366.059-78.732-.107l-78.731-.267v-.085l78.731-.267q39.366-.106,78.732-.107l78.731.026,78.732.157,39.366.066c13.122.025,26.244.054,39.366.006l78.731-.162,39.366-.046,39.366.076,39.366.076,39.366.175Z" transform="translate(-287.061 -276.018)" fill="#352d24"/>
                  <path id="Tracé_2993" data-name="Tracé 2993" d="M204.224,483.641l39.366-.174,39.366-.076,39.366-.076,39.366.045,78.731.162c13.122.049,26.244.02,39.366-.006l39.367-.067,78.731-.156,78.731-.027q39.366-.059,78.732.107l78.731.267v.086l-78.731.267q-39.366.106-78.732.108l-78.731-.027-78.731-.157-39.367-.066c-13.122-.025-26.243-.054-39.366-.006l-78.731.162-39.366.046-39.366-.076L243.59,483.9l-39.366-.174Z" transform="translate(-287.061 -277.643)" fill="#352d24"/>
                  <path id="Tracé_2994" data-name="Tracé 2994" d="M834.077,491.694l-39.366.175-39.366.076-39.366.077-39.366-.046-78.731-.162c-13.122-.049-26.244-.02-39.366.006l-39.366.067-78.732.156-78.731.026q-39.366.058-78.732-.107l-78.731-.268v-.085l78.731-.267q39.366-.106,78.732-.107l78.731.025,78.732.157,39.366.066c13.122.026,26.244.054,39.366.006l78.731-.162,39.366-.046,39.366.077,39.366.076,39.366.175Z" transform="translate(-287.061 -279.269)" fill="#352d24"/>
                  <path id="Tracé_2995" data-name="Tracé 2995" d="M834.077,525.731l-39.366.174-39.366.076-39.366.076-39.366-.045-78.731-.162c-13.122-.049-26.244-.02-39.366.006l-39.366.066-78.732.156-78.731.027q-39.366.059-78.732-.107l-78.731-.267v-.086l78.731-.267q39.366-.106,78.732-.107l78.731.026,78.732.157,39.366.066c13.122.026,26.244.054,39.366.006l78.731-.162,39.366-.046,39.366.076,39.366.076,39.366.174Z" transform="translate(-287.061 -286.213)" fill="#352d24"/>
                  <path id="Tracé_2996" data-name="Tracé 2996" d="M204.224,501.741l39.366-.174,39.366-.076,39.366-.076,39.366.045,78.731.162c13.122.049,26.244.02,39.366-.006l39.367-.067,78.731-.156,78.731-.027q39.366-.058,78.732.107l78.731.267v.086l-78.731.267q-39.366.106-78.732.108l-78.731-.027-78.731-.157-39.367-.066c-13.122-.025-26.243-.054-39.366-.006l-78.731.162-39.366.046-39.366-.076L243.59,502l-39.366-.174Z" transform="translate(-287.061 -281.336)" fill="#352d24"/>
                  <path id="Tracé_2997" data-name="Tracé 2997" d="M834.077,509.8l-39.366.174-39.366.076-39.366.076-39.366-.045-78.731-.162c-13.122-.049-26.244-.02-39.366.006l-39.366.067-78.732.156-78.731.027q-39.366.059-78.732-.107l-78.731-.267v-.086l78.731-.267q39.366-.106,78.732-.107l78.731.026,78.732.157,39.366.066c13.122.025,26.244.054,39.366.006l78.731-.162,39.366-.046,39.366.076,39.366.076,39.366.174Z" transform="translate(-287.061 -282.962)" fill="#352d24"/>
                  <path id="Tracé_2998" data-name="Tracé 2998" d="M204.224,517.677l39.366-.174,39.366-.076,39.366-.076,39.366.045,78.731.162c13.122.049,26.244.02,39.366-.006l39.367-.066,78.731-.156,78.731-.027q39.366-.059,78.732.107l78.731.267v.086l-78.731.267q-39.366.106-78.732.107l-78.731-.026-78.731-.157-39.367-.066c-13.122-.026-26.243-.054-39.366-.006l-78.731.162-39.366.046-39.366-.076-39.366-.076-39.366-.174Z" transform="translate(-287.061 -284.588)" fill="#352d24"/>
                  <path id="Tracé_2999" data-name="Tracé 2999" d="M834.077,525.731l-39.366.174-39.366.076-39.366.076-39.366-.045-78.731-.162c-13.122-.049-26.244-.02-39.366.006l-39.366.066-78.732.156-78.731.027q-39.366.059-78.732-.107l-78.731-.267v-.086l78.731-.267q39.366-.106,78.732-.107l78.731.026,78.732.157,39.366.066c13.122.026,26.244.054,39.366.006l78.731-.162,39.366-.046,39.366.076,39.366.076,39.366.174Z" transform="translate(-287.061 -286.213)" fill="#352d24"/>
                  <path id="Tracé_3000" data-name="Tracé 3000" d="M204.224,534.172,243.59,534l39.366-.076,39.366-.076,39.366.045,78.731.162c13.122.049,26.244.019,39.366-.006l39.367-.066,78.731-.156,78.731-.027q39.366-.059,78.732.107l78.731.267v.085l-78.731.267q-39.366.106-78.732.107l-78.731-.026-78.731-.157-39.367-.066c-13.122-.025-26.243-.054-39.366-.006l-78.731.162-39.366.046-39.366-.076-39.366-.076-39.366-.175Z" transform="translate(-287.061 -287.953)" fill="#352d24"/>
                  <path id="Tracé_3001" data-name="Tracé 3001" d="M834.077,542.225l-39.366.174-39.366.076-39.366.076-39.366-.045-78.731-.162c-13.122-.049-26.244-.02-39.366.006l-39.366.066-78.732.156-78.731.027q-39.366.059-78.732-.107l-78.731-.267v-.086l78.731-.267q39.366-.106,78.732-.107l78.731.026,78.732.157,39.366.066c13.122.025,26.244.054,39.366.006l78.731-.162,39.366-.046,39.366.076,39.366.076,39.366.174Z" transform="translate(-287.061 -289.579)" fill="#352d24"/>
                  <path id="Tracé_3002" data-name="Tracé 3002" d="M204.224,550.108l39.366-.174,39.366-.076,39.366-.076,39.366.045,78.731.162c13.122.049,26.244.02,39.366-.006l39.367-.067,78.731-.156,78.731-.027q39.366-.059,78.732.107l78.731.267v.086l-78.731.267q-39.366.106-78.732.107l-78.731-.026-78.731-.157-39.367-.066c-13.122-.025-26.243-.054-39.366-.006l-78.731.162-39.366.046-39.366-.076-39.366-.076-39.366-.174Z" transform="translate(-287.061 -291.204)" fill="#352d24"/>
                  <path id="Tracé_3003" data-name="Tracé 3003" d="M834.077,558.161l-39.366.174-39.366.076-39.366.076-39.366-.045-78.731-.162c-13.122-.049-26.244-.02-39.366.006l-39.366.067-78.732.156-78.731.027q-39.366.059-78.732-.107l-78.731-.267v-.086l78.731-.267q39.366-.106,78.732-.108l78.731.027,78.732.157,39.366.066c13.122.025,26.244.054,39.366.006l78.731-.162,39.366-.046,39.366.076,39.366.076,39.366.174Z" transform="translate(-287.061 -292.83)" fill="#352d24"/>
                  <path id="Tracé_3004" data-name="Tracé 3004" d="M834.077,592.2l-39.366.174-39.366.076-39.366.076-39.366-.045-78.731-.162c-13.122-.049-26.244-.02-39.366.006l-39.366.067-78.732.156-78.731.027q-39.366.059-78.732-.107l-78.731-.268v-.086l78.731-.267q39.366-.106,78.732-.107l78.731.026,78.732.157,39.366.066c13.122.025,26.244.054,39.366.006l78.731-.162,39.366-.046,39.366.076,39.366.076,39.366.174Z" transform="translate(-287.061 -299.775)" fill="#352d24"/>
                  <path id="Tracé_3005" data-name="Tracé 3005" d="M204.224,568.208l39.366-.174,39.366-.076,39.366-.076,39.366.045,78.731.162c13.122.049,26.244.02,39.366-.006l39.367-.067,78.731-.156,78.731-.027q39.366-.059,78.732.107l78.731.267v.086l-78.731.267q-39.366.106-78.732.107l-78.731-.026-78.731-.157-39.367-.066c-13.122-.026-26.243-.054-39.366-.006l-78.731.162-39.366.046-39.366-.076-39.366-.076-39.366-.174Z" transform="translate(-287.061 -294.897)" fill="#352d24"/>
                  <path id="Tracé_3006" data-name="Tracé 3006" d="M834.077,576.262l-39.366.174-39.366.076-39.366.076-39.366-.045-78.731-.162c-13.122-.049-26.244-.02-39.366.006l-39.366.067-78.732.156-78.731.027q-39.366.059-78.732-.107l-78.731-.267v-.086l78.731-.267q39.366-.106,78.732-.108l78.731.027,78.732.157,39.366.066c13.122.026,26.244.054,39.366.006l78.731-.162,39.366-.046,39.366.076,39.366.076,39.366.174Z" transform="translate(-287.061 -296.523)" fill="#352d24"/>
                  <path id="Tracé_3007" data-name="Tracé 3007" d="M204.224,584.144l39.366-.174,39.366-.076,39.366-.076,39.366.045,78.731.162c13.122.049,26.244.02,39.366-.006l39.367-.067,78.731-.156,78.731-.027q39.366-.058,78.732.107l78.731.267v.086l-78.731.267q-39.366.106-78.732.108l-78.731-.027-78.731-.157-39.367-.066c-13.122-.025-26.243-.054-39.366-.006l-78.731.162-39.366.046-39.366-.076L243.59,584.4l-39.366-.174Z" transform="translate(-287.061 -298.149)" fill="#352d24"/>
                  <path id="Tracé_3008" data-name="Tracé 3008" d="M834.077,592.2l-39.366.174-39.366.076-39.366.076-39.366-.045-78.731-.162c-13.122-.049-26.244-.02-39.366.006l-39.366.067-78.732.156-78.731.027q-39.366.059-78.732-.107l-78.731-.268v-.086l78.731-.267q39.366-.106,78.732-.107l78.731.026,78.732.157,39.366.066c13.122.025,26.244.054,39.366.006l78.731-.162,39.366-.046,39.366.076,39.366.076,39.366.174Z" transform="translate(-287.061 -299.775)" fill="#352d24"/>
                  <path id="Tracé_3009" data-name="Tracé 3009" d="M204.224,600.638l39.366-.174,39.366-.076,39.366-.076,39.366.045,78.731.162c13.122.049,26.244.02,39.366-.005l39.367-.067,78.731-.156,78.731-.027q39.366-.059,78.732.107l78.731.267v.086l-78.731.267q-39.366.106-78.732.108l-78.731-.027-78.731-.157-39.367-.066c-13.122-.026-26.243-.054-39.366-.006l-78.731.162-39.366.046-39.366-.076L243.59,600.9l-39.366-.174Z" transform="translate(-287.061 -301.514)" fill="#352d24"/>
                  <path id="Tracé_3010" data-name="Tracé 3010" d="M834.077,608.692l-39.366.174-39.366.076-39.366.076-39.366-.045-78.731-.162c-13.122-.049-26.244-.02-39.366.005l-39.366.067-78.732.156-78.731.027q-39.366.059-78.732-.107l-78.731-.267v-.086l78.731-.267q39.366-.106,78.732-.107l78.731.026,78.732.157,39.366.066c13.122.026,26.244.054,39.366.006l78.731-.162,39.366-.046,39.366.076,39.366.076,39.366.174Z" transform="translate(-287.061 -303.14)" fill="#352d24"/>
                  <path id="Tracé_3011" data-name="Tracé 3011" d="M204.224,616.574l39.366-.174,39.366-.076,39.366-.076,39.366.045,78.731.162c13.122.049,26.244.02,39.366-.006l39.367-.066,78.731-.156,78.731-.027q39.366-.059,78.732.107l78.731.267v.086l-78.731.267q-39.366.106-78.732.107l-78.731-.026-78.731-.157-39.367-.066c-13.122-.025-26.243-.054-39.366-.006l-78.731.162-39.366.046-39.366-.076-39.366-.076-39.366-.174Z" transform="translate(-287.061 -304.765)" fill="#352d24"/>
                  <path id="Tracé_3012" data-name="Tracé 3012" d="M834.077,624.628l-39.366.174-39.366.076-39.366.076-39.366-.045-78.731-.162c-13.122-.049-26.244-.019-39.366.006l-39.366.066-78.732.156L361.687,625q-39.366.059-78.732-.107l-78.731-.267v-.086l78.731-.267q39.366-.106,78.732-.107l78.731.026,78.732.157,39.366.066c13.122.025,26.244.054,39.366.006l78.731-.162,39.366-.046,39.366.076,39.366.076,39.366.174Z" transform="translate(-287.061 -306.391)" fill="#352d24"/>
                  <path id="Tracé_3013" data-name="Tracé 3013" d="M834.077,658.664l-39.366.174-39.366.076-39.366.076-39.366-.045-78.731-.162c-13.122-.049-26.244-.02-39.366.006l-39.366.067-78.732.156-78.731.027q-39.366.059-78.732-.107l-78.731-.267v-.086l78.731-.267q39.366-.106,78.732-.108l78.731.027,78.732.157,39.366.066c13.122.025,26.244.054,39.366.006l78.731-.162,39.366-.046,39.366.076,39.366.076,39.366.174Z" transform="translate(-287.061 -313.335)" fill="#352d24"/>
                  <path id="Tracé_3014" data-name="Tracé 3014" d="M204.224,634.675l39.366-.174,39.366-.076,39.366-.076,39.366.045,78.731.162c13.122.049,26.244.02,39.366-.006l39.367-.066,78.731-.156,78.731-.027q39.366-.058,78.732.107l78.731.267v.086l-78.731.267q-39.366.106-78.732.107l-78.731-.026-78.731-.157-39.367-.066c-13.122-.025-26.243-.054-39.366-.006l-78.731.162-39.366.046-39.366-.076-39.366-.076-39.366-.174Z" transform="translate(-287.061 -308.458)" fill="#352d24"/>
                  <path id="Tracé_3015" data-name="Tracé 3015" d="M834.077,642.728l-39.366.174-39.366.076-39.366.076-39.366-.045-78.731-.162c-13.122-.049-26.244-.019-39.366.006l-39.366.066-78.732.156-78.731.027q-39.366.058-78.732-.107l-78.731-.267v-.086l78.731-.267q39.366-.106,78.732-.107l78.731.026,78.732.157,39.366.066c13.122.026,26.244.054,39.366.006l78.731-.162,39.366-.046,39.366.076,39.366.076,39.366.174Z" transform="translate(-287.061 -310.084)" fill="#352d24"/>
                  <path id="Tracé_3016" data-name="Tracé 3016" d="M204.224,650.611l39.366-.174,39.366-.076,39.366-.076,39.366.045,78.731.162c13.122.049,26.244.02,39.366-.006l39.367-.067,78.731-.156,78.731-.027q39.366-.059,78.732.107l78.731.267v.086l-78.731.267q-39.366.106-78.732.107l-78.731-.026-78.731-.157-39.367-.066c-13.122-.025-26.243-.054-39.366-.006l-78.731.162-39.366.046-39.366-.076-39.366-.076-39.366-.174Z" transform="translate(-287.061 -311.71)" fill="#352d24"/>
                  <path id="Tracé_3017" data-name="Tracé 3017" d="M834.077,658.664l-39.366.174-39.366.076-39.366.076-39.366-.045-78.731-.162c-13.122-.049-26.244-.02-39.366.006l-39.366.067-78.732.156-78.731.027q-39.366.059-78.732-.107l-78.731-.267v-.086l78.731-.267q39.366-.106,78.732-.108l78.731.027,78.732.157,39.366.066c13.122.025,26.244.054,39.366.006l78.731-.162,39.366-.046,39.366.076,39.366.076,39.366.174Z" transform="translate(-287.061 -313.335)" fill="#352d24"/>
                  <path id="Tracé_3018" data-name="Tracé 3018" d="M224.27,215.721l39.366-.175L303,215.47l39.366-.077,39.366.046,78.731.162c13.122.049,26.244.02,39.366-.006l39.366-.066,78.731-.156,78.731-.027q39.366-.059,78.732.107l78.731.267v.085l-78.731.267q-39.366.106-78.732.107l-78.731-.027L539.2,216l-39.366-.066c-13.122-.025-26.243-.054-39.366-.006l-78.731.162-39.366.046L303,216.058l-39.366-.076-39.366-.175Z" transform="translate(-291.151 -222.98)" fill="#352d24"/>
                  <path id="Tracé_3019" data-name="Tracé 3019" d="M854.124,223.774l-39.366.175-39.366.076-39.366.077-39.366-.046-78.731-.162c-13.122-.049-26.244-.02-39.366.006l-39.366.066-78.731.156-78.731.027q-39.366.058-78.732-.107l-78.731-.267v-.085L303,223.422q39.366-.106,78.732-.107l78.731.027,78.731.156,39.366.066c13.122.025,26.243.054,39.366.006l78.731-.162,39.366-.046,39.366.076,39.366.076,39.366.175Z" transform="translate(-291.151 -224.606)" fill="#352d24"/>
                  <path id="Tracé_3020" data-name="Tracé 3020" d="M854.124,257.811l-39.366.174-39.366.076-39.366.076-39.366-.045-78.731-.162c-13.122-.049-26.244-.02-39.366.006L539.2,258l-78.731.156-78.731.027q-39.366.058-78.732-.107l-78.731-.267v-.085L303,257.459q39.366-.106,78.732-.108l78.731.027,78.731.157,39.366.066c13.122.025,26.243.054,39.366.006l78.731-.162,39.366-.046,39.366.076,39.366.076,39.366.175Z" transform="translate(-291.151 -231.551)" fill="#352d24"/>
                  <path id="Tracé_3021" data-name="Tracé 3021" d="M224.27,233.822l39.366-.175L303,233.571l39.366-.077,39.366.046,78.731.162c13.122.049,26.244.02,39.366-.006l39.366-.066,78.731-.156,78.731-.027q39.366-.059,78.732.107l78.731.267v.085l-78.731.267q-39.366.106-78.732.107l-78.731-.027L539.2,234.1l-39.366-.066c-13.122-.025-26.243-.054-39.366-.006l-78.731.162-39.366.046L303,234.159l-39.366-.076-39.366-.175Z" transform="translate(-291.151 -226.674)" fill="#352d24"/>
                  <path id="Tracé_3022" data-name="Tracé 3022" d="M854.124,241.875l-39.366.175-39.366.076-39.366.077-39.366-.046-78.731-.162c-13.122-.049-26.244-.02-39.366.006l-39.366.066-78.731.156-78.731.027q-39.366.059-78.732-.107l-78.731-.267v-.085L303,241.523q39.366-.106,78.732-.107l78.731.027,78.731.156,39.366.066c13.122.025,26.243.054,39.366.006l78.731-.162,39.366-.046,39.366.076,39.366.076,39.366.175Z" transform="translate(-291.151 -228.299)" fill="#352d24"/>
                  <path id="Tracé_3023" data-name="Tracé 3023" d="M224.27,249.757l39.366-.174L303,249.506l39.366-.076,39.366.045,78.731.162c13.122.049,26.244.02,39.366-.006l39.366-.067,78.731-.156,78.731-.027q39.366-.059,78.732.108l78.731.267v.086l-78.731.267q-39.366.106-78.732.108l-78.731-.027-78.731-.156-39.366-.067c-13.122-.025-26.243-.054-39.366-.006l-78.731.162-39.366.046L303,250.094l-39.366-.076-39.366-.174Z" transform="translate(-291.151 -229.925)" fill="#352d24"/>
                  <path id="Tracé_3024" data-name="Tracé 3024" d="M854.124,257.811l-39.366.174-39.366.076-39.366.076-39.366-.045-78.731-.162c-13.122-.049-26.244-.02-39.366.006L539.2,258l-78.731.156-78.731.027q-39.366.058-78.732-.107l-78.731-.267v-.085L303,257.459q39.366-.106,78.732-.108l78.731.027,78.731.157,39.366.066c13.122.025,26.243.054,39.366.006l78.731-.162,39.366-.046,39.366.076,39.366.076,39.366.175Z" transform="translate(-291.151 -231.551)" fill="#352d24"/>
                  <path id="Tracé_3025" data-name="Tracé 3025" d="M224.27,266.252l39.366-.174L303,266l39.366-.076,39.366.045,78.731.162c13.122.049,26.244.02,39.366-.006l39.366-.066,78.731-.156,78.731-.027q39.366-.059,78.732.107l78.731.267v.085l-78.731.267q-39.366.106-78.732.107l-78.731-.026-78.731-.157-39.366-.066c-13.122-.025-26.243-.054-39.366-.006l-78.731.162-39.366.046L303,266.589l-39.366-.076-39.366-.175Z" transform="translate(-291.151 -233.29)" fill="#352d24"/>
                  <path id="Tracé_3026" data-name="Tracé 3026" d="M854.124,274.306l-39.366.174-39.366.076-39.366.076-39.366-.045-78.731-.162c-13.122-.049-26.244-.02-39.366.006L539.2,274.5l-78.731.156-78.731.027q-39.366.058-78.732-.108l-78.731-.267v-.086L303,273.954q39.366-.106,78.732-.108l78.731.027,78.731.156,39.366.066c13.122.026,26.243.055,39.366.006l78.731-.162,39.366-.046,39.366.076,39.366.076,39.366.174Z" transform="translate(-291.151 -234.916)" fill="#352d24"/>
                  <path id="Tracé_3027" data-name="Tracé 3027" d="M224.27,282.188l39.366-.175L303,281.937l39.366-.077,39.366.046,78.731.162c13.122.048,26.244.019,39.366-.006L539.2,282l78.731-.156,78.731-.027q39.366-.059,78.732.107l78.731.267v.085l-78.731.267q-39.366.106-78.732.107l-78.731-.027-78.731-.156L499.83,282.4c-13.122-.025-26.243-.054-39.366-.006l-78.731.162-39.366.046L303,282.525l-39.366-.076-39.366-.175Z" transform="translate(-291.151 -236.541)" fill="#352d24"/>
                  <path id="Tracé_3028" data-name="Tracé 3028" d="M854.124,290.241l-39.366.175-39.366.076-39.366.077-39.366-.046-78.731-.162c-13.122-.049-26.244-.02-39.366.006l-39.366.066-78.731.156-78.731.027q-39.366.059-78.732-.107l-78.731-.267v-.085L303,289.889q39.366-.106,78.732-.107l78.731.027,78.731.156,39.366.066c13.122.025,26.243.054,39.366.006l78.731-.162,39.366-.046,39.366.076,39.366.076,39.366.175Z" transform="translate(-291.151 -238.167)" fill="#352d24"/>
                  <path id="Tracé_3029" data-name="Tracé 3029" d="M854.124,324.278l-39.366.174-39.366.076-39.366.076-39.366-.045-78.731-.162c-13.122-.049-26.244-.02-39.366.006l-39.366.066-78.731.156-78.731.027q-39.366.059-78.732-.108l-78.731-.267v-.085L303,323.926q39.366-.106,78.732-.108l78.731.027L539.2,324l39.366.067c13.122.025,26.243.054,39.366.006l78.731-.162,39.366-.046,39.366.076,39.366.076,39.366.175Z" transform="translate(-291.151 -245.112)" fill="#352d24"/>
                  <path id="Tracé_3030" data-name="Tracé 3030" d="M224.27,300.289l39.366-.175L303,300.038l39.366-.077,39.366.046,78.731.162c13.122.048,26.244.019,39.366-.006L539.2,300.1l78.731-.156,78.731-.027q39.366-.058,78.732.107l78.731.267v.085l-78.731.267q-39.366.106-78.732.107l-78.731-.027-78.731-.156L499.83,300.5c-13.122-.025-26.243-.054-39.366-.006l-78.731.162-39.366.046L303,300.626l-39.366-.076-39.366-.175Z" transform="translate(-291.151 -240.235)" fill="#352d24"/>
                  <path id="Tracé_3031" data-name="Tracé 3031" d="M854.124,308.342l-39.366.175-39.366.076-39.366.077-39.366-.046-78.731-.162c-13.122-.049-26.244-.02-39.366.006l-39.366.066-78.731.156-78.731.027q-39.366.059-78.732-.107l-78.731-.267v-.085L303,307.99q39.366-.106,78.732-.107l78.731.027,78.731.156,39.366.066c13.122.025,26.243.054,39.366.006l78.731-.162,39.366-.046,39.366.076,39.366.076,39.366.175Z" transform="translate(-291.151 -241.86)" fill="#352d24"/>
                  <path id="Tracé_3032" data-name="Tracé 3032" d="M224.27,316.224l39.366-.174L303,315.973l39.366-.076,39.366.045,78.731.162c13.122.049,26.244.02,39.366-.006l39.366-.067,78.731-.156,78.731-.027q39.366-.058,78.732.108l78.731.267v.086l-78.731.267q-39.366.106-78.732.108l-78.731-.027L539.2,316.5l-39.366-.067c-13.122-.025-26.243-.054-39.366-.006l-78.731.162-39.366.046L303,316.561l-39.366-.076-39.366-.174Z" transform="translate(-291.151 -243.486)" fill="#352d24"/>
                  <path id="Tracé_3033" data-name="Tracé 3033" d="M854.124,324.278l-39.366.174-39.366.076-39.366.076-39.366-.045-78.731-.162c-13.122-.049-26.244-.02-39.366.006l-39.366.066-78.731.156-78.731.027q-39.366.059-78.732-.108l-78.731-.267v-.085L303,323.926q39.366-.106,78.732-.108l78.731.027L539.2,324l39.366.067c13.122.025,26.243.054,39.366.006l78.731-.162,39.366-.046,39.366.076,39.366.076,39.366.175Z" transform="translate(-291.151 -245.112)" fill="#352d24"/>
                </g>
              </g>
            </g>
          </g>
        </g>
        <rect id="Rectangle_771" data-name="Rectangle 771" width="45.778" height="85.93" transform="translate(357.3 436.074)" fill="#4f5d68"/>
        <path id="Tracé_3035" data-name="Tracé 3035" d="M504.844,512.5V638.8h4.374V513.9Z" transform="translate(-103.002 -104.563)" fill="#2f4658"/>
        <path id="Tracé_3036" data-name="Tracé 3036" d="M510.339,512.245v126.5l2.916-.875V512.245Z" transform="translate(-104.123 -104.512)" fill="#466884"/>
        <path id="Tracé_3037" data-name="Tracé 3037" d="M421.143,634.81,432.2,624.578V500.945H413.838Z" transform="translate(-84.434 -102.206)" fill="#8b5e55"/>
        <path id="Tracé_3038" data-name="Tracé 3038" d="M222.521,378.551l53.887-48.479,98.651,116.736,76.848.706v29.779h-69.8V599.947H222.521v-221.4Z" transform="translate(-45.4 -67.344)" fill="#c7978d"/>
        <path id="Tracé_3039" data-name="Tracé 3039" d="M289.9,331.419l59.269,5.176,89.8,111.245H389.4Z" transform="translate(-59.147 -67.618)" fill="#2c5c82"/>
        <path id="Tracé_3040" data-name="Tracé 3040" d="M510.021,479.168l29.5-11.351v26.369L510.31,506.469Z" transform="translate(-104.058 -95.447)" fill="#8b5e55"/>
        <path id="Tracé_3041" data-name="Tracé 3041" d="M510.021,473.145l29.5-9.659v4.083l-29.5,10.716Z" transform="translate(-104.058 -94.564)" fill="#275375"/>
        <path id="Tracé_3042" data-name="Tracé 3042" d="M413.838,473.8l39.987-10.311h66.068l-29.5,9.659Z" transform="translate(-84.434 -94.564)" fill="#41607a"/>
        <path id="Tracé_3043" data-name="Tracé 3043" d="M444.848,543.33H492.7v3.628H448.128v85.9h-3.17Z" transform="translate(-90.761 -110.854)" fill="#121b21"/>
        <g id="Groupe_373" data-name="Groupe 373" transform="translate(0 262.728)" opacity="0.23">
          <g id="Groupe_372" data-name="Groupe 372">
            <g id="Groupe_371" data-name="Groupe 371" clip-path="url(#clip-path-8)">
              <g id="Groupe_370" data-name="Groupe 370" transform="translate(177.121)">
                <g id="Groupe_369" data-name="Groupe 369" clip-path="url(#clip-path-9)">
                  <path id="Tracé_3044" data-name="Tracé 3044" d="M0,341.937l39.366-.175,39.366-.076,39.366-.077,39.366.046,78.731.162c13.122.049,26.244.02,39.366-.006l39.366-.066,78.731-.156,78.731-.027q39.366-.059,78.732.107l78.731.267v.085l-78.731.267q-39.366.106-78.732.107l-78.731-.027-78.731-.156-39.366-.066c-13.122-.025-26.243-.054-39.366-.006l-78.731.162-39.366.046-39.366-.076L39.366,342.2,0,342.022Z" transform="translate(-177.121 -332.414)" fill="#352d24"/>
                  <path id="Tracé_3045" data-name="Tracé 3045" d="M629.853,349.991l-39.366.175-39.366.076-39.366.077-39.366-.046-78.731-.162c-13.122-.049-26.244-.019-39.366.006l-39.366.066-78.732.156-78.731.027q-39.366.058-78.732-.107L0,349.991v-.085l78.731-.267q39.366-.106,78.732-.107l78.731.027,78.732.156,39.366.066c13.122.026,26.244.054,39.366.006l78.731-.162,39.366-.046,39.366.076,39.366.076,39.366.175Z" transform="translate(-177.121 -334.04)" fill="#352d24"/>
                  <path id="Tracé_3046" data-name="Tracé 3046" d="M0,357.873l39.366-.174,39.366-.076,39.366-.076,39.366.045,78.731.162c13.122.049,26.244.02,39.366-.006l39.366-.067,78.731-.156,78.731-.027q39.366-.059,78.732.108l78.731.267v.086l-78.731.267q-39.366.106-78.732.108l-78.731-.027-78.731-.156-39.366-.067c-13.122-.025-26.243-.054-39.366-.006l-78.731.162-39.366.046-39.366-.076-39.366-.076L0,357.959Z" transform="translate(-177.121 -335.666)" fill="#352d24"/>
                  <path id="Tracé_3047" data-name="Tracé 3047" d="M629.853,365.927l-39.366.174-39.366.076-39.366.076-39.366-.045-78.731-.162c-13.122-.049-26.244-.02-39.366.006l-39.366.066-78.732.156-78.731.027q-39.366.058-78.732-.107L0,365.927v-.085l78.731-.267q39.366-.106,78.732-.108l78.731.027,78.732.157,39.366.066c13.122.025,26.244.054,39.366.006l78.731-.162,39.366-.046,39.366.076,39.366.076,39.366.175Z" transform="translate(-177.121 -337.291)" fill="#352d24"/>
                  <path id="Tracé_3048" data-name="Tracé 3048" d="M629.853,399.963l-39.366.174-39.366.076-39.366.076-39.366-.045-78.731-.162c-13.122-.049-26.244-.02-39.366.006l-39.366.067-78.732.156-78.731.027q-39.366.059-78.732-.108L0,399.963v-.086l78.731-.267q39.366-.106,78.732-.108l78.731.027,78.732.156,39.366.067c13.122.025,26.244.054,39.366.006l78.731-.162,39.366-.046,39.366.076,39.366.076,39.366.174Z" transform="translate(-177.121 -344.236)" fill="#352d24"/>
                  <path id="Tracé_3049" data-name="Tracé 3049" d="M0,375.974l39.366-.174,39.366-.076,39.366-.076,39.366.045,78.731.162c13.122.049,26.244.02,39.366-.006l39.366-.067,78.731-.156,78.731-.027q39.366-.058,78.732.108l78.731.267v.086l-78.731.267q-39.366.106-78.732.108l-78.731-.027-78.731-.156-39.366-.067c-13.122-.025-26.243-.054-39.366-.006l-78.731.162-39.366.046-39.366-.076-39.366-.076L0,376.06Z" transform="translate(-177.121 -339.359)" fill="#352d24"/>
                  <path id="Tracé_3050" data-name="Tracé 3050" d="M629.853,384.027l-39.366.174-39.366.076-39.366.076-39.366-.045-78.731-.162c-13.122-.049-26.244-.02-39.366.006l-39.366.066-78.732.156-78.731.027q-39.366.059-78.732-.107L0,384.027v-.085l78.731-.267q39.366-.106,78.732-.108l78.731.027,78.732.157,39.366.066c13.122.025,26.244.054,39.366.006l78.731-.162,39.366-.046,39.366.076,39.366.076,39.366.175Z" transform="translate(-177.121 -340.984)" fill="#352d24"/>
                  <path id="Tracé_3051" data-name="Tracé 3051" d="M0,391.91l39.366-.174,39.366-.076,39.366-.076,39.366.045,78.731.162c13.122.049,26.244.02,39.366-.006l39.366-.066,78.731-.156,78.731-.027q39.366-.058,78.732.107l78.731.267V392l-78.731.267q-39.366.106-78.732.108l-78.731-.027-78.731-.156-39.366-.067c-13.122-.025-26.243-.054-39.366-.006l-78.731.162-39.366.046-39.366-.076-39.366-.076L0,392Z" transform="translate(-177.121 -342.61)" fill="#352d24"/>
                  <path id="Tracé_3052" data-name="Tracé 3052" d="M629.853,399.963l-39.366.174-39.366.076-39.366.076-39.366-.045-78.731-.162c-13.122-.049-26.244-.02-39.366.006l-39.366.067-78.732.156-78.731.027q-39.366.059-78.732-.108L0,399.963v-.086l78.731-.267q39.366-.106,78.732-.108l78.731.027,78.732.156,39.366.067c13.122.025,26.244.054,39.366.006l78.731-.162,39.366-.046,39.366.076,39.366.076,39.366.174Z" transform="translate(-177.121 -344.236)" fill="#352d24"/>
                  <path id="Tracé_3053" data-name="Tracé 3053" d="M0,408.4l39.366-.175,39.366-.076,39.366-.077,39.366.046,78.731.162c13.122.048,26.244.019,39.366-.006l39.366-.066,78.731-.156,78.731-.027q39.366-.059,78.732.107l78.731.267v.085l-78.731.267q-39.366.106-78.732.107l-78.731-.027-78.731-.156-39.366-.066c-13.122-.025-26.243-.054-39.366-.006l-78.731.162-39.366.046-39.366-.076-39.366-.076L0,408.489Z" transform="translate(-177.121 -345.975)" fill="#352d24"/>
                  <path id="Tracé_3054" data-name="Tracé 3054" d="M629.853,416.457l-39.366.175-39.366.076-39.366.077-39.366-.046-78.731-.162c-13.122-.049-26.244-.02-39.366.006l-39.366.066-78.732.156-78.731.027q-39.366.058-78.732-.107L0,416.457v-.085l78.731-.267Q118.1,416,157.463,416l78.731.027,78.732.156,39.366.066c13.122.025,26.244.054,39.366.006l78.731-.162,39.366-.046,39.366.076,39.366.076,39.366.175Z" transform="translate(-177.121 -347.601)" fill="#352d24"/>
                  <path id="Tracé_3055" data-name="Tracé 3055" d="M0,424.34l39.366-.174,39.366-.076,39.366-.076,39.366.045,78.731.162c13.122.049,26.244.02,39.366-.006l39.366-.067,78.731-.156,78.731-.027q39.366-.059,78.732.108l78.731.267v.086l-78.731.267q-39.366.106-78.732.108l-78.731-.027-78.731-.156-39.366-.067c-13.122-.025-26.243-.054-39.366-.006l-78.731.162-39.366.046-39.366-.076L39.366,424.6,0,424.426Z" transform="translate(-177.121 -349.227)" fill="#352d24"/>
                  <path id="Tracé_3056" data-name="Tracé 3056" d="M629.853,432.393l-39.366.175-39.366.076-39.366.077-39.366-.046-78.731-.162c-13.122-.049-26.244-.021-39.366.006l-39.366.067-78.732.156-78.731.027q-39.366.059-78.732-.107L0,432.393v-.085l78.731-.267q39.366-.107,78.732-.107l78.731.025,78.732.158,39.366.065c13.122.026,26.244.055,39.366.006l78.731-.162,39.366-.046,39.366.077,39.366.076,39.366.174Z" transform="translate(-177.121 -350.852)" fill="#352d24"/>
                  <path id="Tracé_3057" data-name="Tracé 3057" d="M629.853,466.43l-39.366.174-39.366.076-39.366.076-39.366-.045-78.731-.162c-13.122-.049-26.244-.019-39.366.006l-39.366.066-78.732.156-78.731.027q-39.366.059-78.732-.107L0,466.43v-.086l78.731-.267q39.366-.106,78.732-.107l78.731.026,78.732.157,39.366.066c13.122.025,26.244.054,39.366.006l78.731-.162,39.366-.046,39.366.076,39.366.076,39.366.174Z" transform="translate(-177.121 -357.797)" fill="#352d24"/>
                  <path id="Tracé_3058" data-name="Tracé 3058" d="M0,442.44l39.366-.174,39.366-.076,39.366-.076,39.366.045,78.731.162c13.122.049,26.244.02,39.366-.006l39.366-.067,78.731-.156,78.731-.027q39.366-.058,78.732.107l78.731.267v.086l-78.731.267q-39.366.106-78.732.108l-78.731-.027-78.731-.157-39.366-.066c-13.122-.025-26.243-.054-39.366-.006l-78.731.162-39.366.046-39.366-.076L39.366,442.7,0,442.526Z" transform="translate(-177.121 -352.919)" fill="#352d24"/>
                  <path id="Tracé_3059" data-name="Tracé 3059" d="M629.853,450.494l-39.366.174-39.366.076-39.366.076-39.366-.045-78.731-.162c-13.122-.049-26.244-.02-39.366.006l-39.366.067-78.732.156-78.731.027q-39.366.059-78.732-.107L0,450.494v-.086l78.731-.267q39.366-.106,78.732-.107l78.731.026,78.732.157,39.366.066c13.122.025,26.244.054,39.366.006l78.731-.162,39.366-.046,39.366.076,39.366.076,39.366.174Z" transform="translate(-177.121 -354.545)" fill="#352d24"/>
                  <path id="Tracé_3060" data-name="Tracé 3060" d="M0,458.376l39.366-.174,39.366-.076,39.366-.076,39.366.045,78.731.162c13.122.049,26.244.02,39.366-.006l39.366-.066,78.731-.156L472.389,458q39.366-.059,78.732.107l78.731.267v.086l-78.731.267q-39.366.106-78.732.107l-78.731-.026-78.731-.157-39.366-.066c-13.122-.025-26.243-.054-39.366-.006l-78.731.162-39.366.046-39.366-.076-39.366-.076L0,458.462Z" transform="translate(-177.121 -356.171)" fill="#352d24"/>
                  <path id="Tracé_3061" data-name="Tracé 3061" d="M629.853,466.43l-39.366.174-39.366.076-39.366.076-39.366-.045-78.731-.162c-13.122-.049-26.244-.019-39.366.006l-39.366.066-78.732.156-78.731.027q-39.366.059-78.732-.107L0,466.43v-.086l78.731-.267q39.366-.106,78.732-.107l78.731.026,78.732.157,39.366.066c13.122.025,26.244.054,39.366.006l78.731-.162,39.366-.046,39.366.076,39.366.076,39.366.174Z" transform="translate(-177.121 -357.797)" fill="#352d24"/>
                  <path id="Tracé_3062" data-name="Tracé 3062" d="M0,474.871l39.366-.174,39.366-.076,39.366-.076,39.366.045,78.731.162c13.122.049,26.244.02,39.366-.006l39.366-.066,78.731-.156,78.731-.027q39.366-.059,78.732.107l78.731.267v.086l-78.731.267q-39.366.106-78.732.107l-78.731-.026-78.731-.157-39.366-.066c-13.122-.025-26.243-.054-39.366-.006l-78.731.162-39.366.046-39.366-.076-39.366-.076L0,474.957Z" transform="translate(-177.121 -359.536)" fill="#352d24"/>
                  <path id="Tracé_3063" data-name="Tracé 3063" d="M629.853,482.924l-39.366.174-39.366.076-39.366.076-39.366-.045-78.731-.162c-13.122-.049-26.244-.02-39.366.006l-39.366.066-78.732.156-78.731.027q-39.366.059-78.732-.107L0,482.924v-.086l78.731-.267q39.366-.106,78.732-.107l78.731.026,78.732.157,39.366.066c13.122.025,26.244.054,39.366.006l78.731-.162,39.366-.046,39.366.076,39.366.076,39.366.174Z" transform="translate(-177.121 -361.162)" fill="#352d24"/>
                  <path id="Tracé_3064" data-name="Tracé 3064" d="M0,490.807l39.366-.174,39.366-.076,39.366-.076,39.366.045,78.731.162c13.122.049,26.244.02,39.366-.006l39.366-.067,78.731-.156,78.731-.027q39.366-.059,78.732.107l78.731.267v.086l-78.731.267q-39.366.106-78.732.107l-78.731-.026-78.731-.157-39.366-.066c-13.122-.025-26.243-.054-39.366-.006l-78.731.162-39.366.046-39.366-.076-39.366-.076L0,490.893Z" transform="translate(-177.121 -362.788)" fill="#352d24"/>
                  <path id="Tracé_3065" data-name="Tracé 3065" d="M629.853,498.86l-39.366.174-39.366.076-39.366.076-39.366-.045-78.731-.162c-13.122-.049-26.244-.02-39.366.006l-39.366.067-78.732.156-78.731.027q-39.366.059-78.732-.107L0,498.86v-.086l78.731-.267q39.366-.106,78.732-.108l78.731.027,78.732.157,39.366.066c13.122.025,26.244.054,39.366.006l78.731-.162,39.366-.046,39.366.076,39.366.076,39.366.174Z" transform="translate(-177.121 -364.413)" fill="#352d24"/>
                  <path id="Tracé_3066" data-name="Tracé 3066" d="M629.853,532.9l-39.366.174-39.366.076-39.366.076-39.366-.045-78.731-.162c-13.122-.049-26.244-.02-39.366.006l-39.366.067-78.732.156-78.731.027q-39.366.059-78.732-.107L0,532.9v-.086l78.731-.267q39.366-.106,78.732-.107l78.731.026,78.732.157,39.366.066c13.122.025,26.244.054,39.366.006l78.731-.162,39.366-.046,39.366.076,39.366.076,39.366.174Z" transform="translate(-177.121 -371.358)" fill="#352d24"/>
                  <path id="Tracé_3067" data-name="Tracé 3067" d="M0,508.907l39.366-.174,39.366-.076,39.366-.076,39.366.045,78.731.162c13.122.049,26.244.02,39.366-.006l39.366-.067,78.731-.156,78.731-.027q39.366-.059,78.732.107l78.731.267v.086l-78.731.267q-39.366.106-78.732.107l-78.731-.026-78.731-.157-39.366-.066c-13.122-.025-26.243-.054-39.366-.006l-78.731.162-39.366.046-39.366-.076-39.366-.076L0,508.993Z" transform="translate(-177.121 -366.48)" fill="#352d24"/>
                  <path id="Tracé_3068" data-name="Tracé 3068" d="M629.853,516.961l-39.366.174-39.366.076-39.366.076-39.366-.045-78.731-.162c-13.122-.049-26.244-.02-39.366.006l-39.366.067-78.732.156-78.731.027q-39.366.059-78.732-.107L0,516.961v-.086l78.731-.267q39.366-.106,78.732-.108l78.731.027,78.732.157,39.366.066c13.122.025,26.244.054,39.366.006l78.731-.162,39.366-.046,39.366.076,39.366.076,39.366.174Z" transform="translate(-177.121 -368.106)" fill="#352d24"/>
                  <path id="Tracé_3069" data-name="Tracé 3069" d="M0,524.843l39.366-.174,39.366-.076,39.366-.076,39.366.045,78.731.162c13.122.048,26.244.019,39.366-.006l39.366-.066,78.731-.156,78.731-.027q39.366-.059,78.732.107l78.731.267v.085l-78.731.267q-39.366.106-78.732.107l-78.731-.026-78.731-.157-39.366-.066c-13.122-.025-26.243-.054-39.366-.005l-78.731.161-39.366.046-39.366-.076L39.366,525.1,0,524.928Z" transform="translate(-177.121 -369.732)" fill="#352d24"/>
                  <path id="Tracé_3070" data-name="Tracé 3070" d="M629.853,532.9l-39.366.174-39.366.076-39.366.076-39.366-.045-78.731-.162c-13.122-.049-26.244-.02-39.366.006l-39.366.067-78.732.156-78.731.027q-39.366.059-78.732-.107L0,532.9v-.086l78.731-.267q39.366-.106,78.732-.107l78.731.026,78.732.157,39.366.066c13.122.025,26.244.054,39.366.006l78.731-.162,39.366-.046,39.366.076,39.366.076,39.366.174Z" transform="translate(-177.121 -371.358)" fill="#352d24"/>
                  <path id="Tracé_3071" data-name="Tracé 3071" d="M0,541.337l39.366-.174,39.366-.076,39.366-.076,39.366.045,78.731.162c13.122.049,26.244.02,39.366-.006l39.366-.067,78.731-.156,78.731-.027q39.366-.059,78.732.107l78.731.267v.086l-78.731.267q-39.366.106-78.732.108l-78.731-.027-78.731-.156-39.366-.067c-13.122-.025-26.243-.054-39.366-.006l-78.731.162-39.366.046-39.366-.076L39.366,541.6,0,541.423Z" transform="translate(-177.121 -373.097)" fill="#352d24"/>
                  <path id="Tracé_3072" data-name="Tracé 3072" d="M629.853,549.391l-39.366.174-39.366.076-39.366.076-39.366-.045-78.731-.162c-13.122-.049-26.244-.02-39.366.006l-39.366.067-78.732.156-78.731.027q-39.366.059-78.732-.107L0,549.391v-.086l78.731-.267q39.366-.106,78.732-.107l78.731.026,78.732.157,39.366.066c13.122.025,26.244.054,39.366.006l78.731-.162,39.366-.046,39.366.076,39.366.076,39.366.174Z" transform="translate(-177.121 -374.723)" fill="#352d24"/>
                  <path id="Tracé_3073" data-name="Tracé 3073" d="M0,557.273l39.366-.174,39.366-.076,39.366-.076,39.366.045,78.731.162c13.122.049,26.244.02,39.366-.005l39.366-.067,78.731-.156,78.731-.027q39.366-.059,78.732.107l78.731.267v.086l-78.731.267q-39.366.106-78.732.107l-78.731-.026-78.731-.157-39.366-.066c-13.122-.026-26.243-.054-39.366-.006l-78.731.162-39.366.046-39.366-.076-39.366-.076L0,557.359Z" transform="translate(-177.121 -376.348)" fill="#352d24"/>
                  <path id="Tracé_3074" data-name="Tracé 3074" d="M629.853,565.327l-39.366.174-39.366.076-39.366.076-39.366-.045-78.731-.162c-13.122-.048-26.244-.019-39.366.006l-39.366.066-78.732.156-78.731.027q-39.366.059-78.732-.107L0,565.327v-.085l78.731-.267q39.366-.106,78.732-.107l78.731.026,78.732.157,39.366.066c13.122.026,26.244.054,39.366.006l78.731-.162,39.366-.046,39.366.076,39.366.076,39.366.175Z" transform="translate(-177.121 -377.974)" fill="#352d24"/>
                  <path id="Tracé_3075" data-name="Tracé 3075" d="M629.853,599.363l-39.366.174-39.366.076-39.366.076-39.366-.045-78.731-.162c-13.122-.048-26.244-.02-39.366.006l-39.366.067-78.732.156-78.731.027q-39.366.058-78.732-.107L0,599.363v-.086l78.731-.267q39.366-.106,78.732-.107l78.731.026,78.732.157,39.366.066c13.122.025,26.244.054,39.366.006L472.389,599l39.366-.046,39.366.076,39.366.076,39.366.174Z" transform="translate(-177.121 -384.919)" fill="#352d24"/>
                  <path id="Tracé_3076" data-name="Tracé 3076" d="M0,575.374l39.366-.174,39.366-.076,39.366-.076,39.366.045,78.731.162c13.122.049,26.244.02,39.366-.006l39.366-.067,78.731-.156L472.389,575q39.366-.059,78.732.107l78.731.267v.086l-78.731.267q-39.366.106-78.732.107l-78.731-.026-78.731-.157-39.366-.066c-13.122-.025-26.243-.054-39.366-.006l-78.731.162-39.366.046-39.366-.076-39.366-.076L0,575.46Z" transform="translate(-177.121 -380.042)" fill="#352d24"/>
                  <path id="Tracé_3077" data-name="Tracé 3077" d="M629.853,583.427l-39.366.174-39.366.076-39.366.076-39.366-.045-78.731-.162c-13.122-.048-26.244-.019-39.366.006l-39.366.066-78.732.156-78.731.027q-39.366.059-78.732-.107L0,583.427v-.085l78.731-.267q39.366-.106,78.732-.107l78.731.026,78.732.157,39.366.066c13.122.025,26.244.054,39.366.005l78.731-.162,39.366-.046,39.366.076,39.366.076,39.366.175Z" transform="translate(-177.121 -381.667)" fill="#352d24"/>
                  <path id="Tracé_3078" data-name="Tracé 3078" d="M0,591.31l39.366-.174,39.366-.076,39.366-.076,39.366.045,78.731.162c13.122.049,26.244.02,39.366-.006l39.366-.067,78.731-.156,78.731-.027q39.366-.059,78.732.107l78.731.267v.086l-78.731.267q-39.366.106-78.732.107l-78.731-.026-78.731-.157-39.366-.066c-13.122-.025-26.243-.054-39.366-.006l-78.731.162-39.366.046-39.366-.076-39.366-.076L0,591.4Z" transform="translate(-177.121 -383.293)" fill="#352d24"/>
                  <path id="Tracé_3079" data-name="Tracé 3079" d="M629.853,599.363l-39.366.174-39.366.076-39.366.076-39.366-.045-78.731-.162c-13.122-.048-26.244-.02-39.366.006l-39.366.067-78.732.156-78.731.027q-39.366.058-78.732-.107L0,599.363v-.086l78.731-.267q39.366-.106,78.732-.107l78.731.026,78.732.157,39.366.066c13.122.025,26.244.054,39.366.006L472.389,599l39.366-.046,39.366.076,39.366.076,39.366.174Z" transform="translate(-177.121 -384.919)" fill="#352d24"/>
                  <path id="Tracé_3080" data-name="Tracé 3080" d="M0,607.8l39.366-.174,39.366-.076,39.366-.076,39.366.045,78.731.162c13.122.049,26.244.02,39.366-.006l39.366-.067,78.731-.156,78.731-.027q39.366-.059,78.732.107l78.731.267v.086l-78.731.267q-39.366.106-78.732.107l-78.731-.026-78.731-.157-39.366-.066c-13.122-.026-26.243-.054-39.366-.006l-78.731.162-39.366.046-39.366-.076-39.366-.076L0,607.89Z" transform="translate(-177.121 -386.658)" fill="#352d24"/>
                  <path id="Tracé_3081" data-name="Tracé 3081" d="M629.853,615.858l-39.366.174-39.366.076-39.366.076-39.366-.045-78.731-.162c-13.122-.049-26.244-.02-39.366.005l-39.366.067-78.732.156-78.731.027q-39.366.059-78.732-.107L0,615.858v-.086l78.731-.267q39.366-.106,78.732-.108l78.731.027,78.732.157,39.366.066c13.122.025,26.244.054,39.366.006l78.731-.162,39.366-.046,39.366.076,39.366.076,39.366.174Z" transform="translate(-177.121 -388.284)" fill="#352d24"/>
                  <path id="Tracé_3082" data-name="Tracé 3082" d="M0,623.74l39.366-.174,39.366-.076,39.366-.076,39.366.045,78.731.162c13.122.048,26.244.019,39.366-.006l39.366-.066,78.731-.156,78.731-.027q39.366-.059,78.732.107l78.731.267v.085l-78.731.267q-39.366.106-78.732.107l-78.731-.026-78.731-.157-39.366-.066c-13.122-.025-26.243-.054-39.366-.006l-78.731.162-39.366.046-39.366-.076L39.366,624,0,623.825Z" transform="translate(-177.121 -389.91)" fill="#352d24"/>
                  <path id="Tracé_3083" data-name="Tracé 3083" d="M629.853,631.794l-39.366.174-39.366.076-39.366.076-39.366-.045-78.731-.162c-13.122-.048-26.244-.02-39.366.006l-39.366.067-78.732.156-78.731.027q-39.366.059-78.732-.107L0,631.794v-.086l78.731-.267q39.366-.106,78.732-.107l78.731.026,78.732.157,39.366.066c13.122.026,26.244.054,39.366.006l78.731-.162,39.366-.046,39.366.076,39.366.076,39.366.174Z" transform="translate(-177.121 -391.535)" fill="#352d24"/>
                  <path id="Tracé_3084" data-name="Tracé 3084" d="M629.853,665.83,590.487,666l-39.366.076-39.366.076-39.366-.045-78.731-.162c-13.122-.048-26.244-.019-39.366.006l-39.366.066-78.732.156-78.731.027q-39.366.059-78.732-.107L0,665.83v-.085l78.731-.267q39.366-.106,78.732-.107l78.731.026,78.732.157,39.366.066c13.122.026,26.244.054,39.366.006l78.731-.162,39.366-.046,39.366.076,39.366.076,39.366.175Z" transform="translate(-177.121 -398.48)" fill="#352d24"/>
                  <path id="Tracé_3085" data-name="Tracé 3085" d="M0,641.841l39.366-.174,39.366-.076,39.366-.076,39.366.045,78.731.162c13.122.048,26.244.019,39.366-.006l39.366-.066,78.731-.156,78.731-.027q39.366-.059,78.732.107l78.731.267v.085l-78.731.267q-39.366.106-78.732.107l-78.731-.026-78.731-.157-39.366-.066c-13.122-.026-26.243-.054-39.366-.006l-78.731.162-39.366.046-39.366-.076L39.366,642.1,0,641.926Z" transform="translate(-177.121 -393.603)" fill="#352d24"/>
                  <path id="Tracé_3086" data-name="Tracé 3086" d="M629.853,649.894l-39.366.174-39.366.076-39.366.076-39.366-.045-78.731-.162c-13.122-.049-26.244-.02-39.366.006l-39.366.067-78.732.156-78.731.027q-39.366.058-78.732-.107L0,649.894v-.086l78.731-.267q39.366-.106,78.732-.107l78.731.026,78.732.157,39.366.066c13.122.025,26.244.054,39.366.006l78.731-.162,39.366-.046,39.366.076,39.366.076,39.366.174Z" transform="translate(-177.121 -395.228)" fill="#352d24"/>
                  <path id="Tracé_3087" data-name="Tracé 3087" d="M0,657.777l39.366-.174,39.366-.076,39.366-.076,39.366.045,78.731.162c13.122.049,26.244.02,39.366-.006l39.366-.067,78.731-.156,78.731-.027q39.366-.059,78.732.107l78.731.267v.086l-78.731.267q-39.366.106-78.732.107l-78.731-.026-78.731-.157-39.366-.066c-13.122-.025-26.243-.054-39.366-.006l-78.731.162-39.366.046-39.366-.076-39.366-.076L0,657.863Z" transform="translate(-177.121 -396.854)" fill="#352d24"/>
                  <path id="Tracé_3088" data-name="Tracé 3088" d="M629.853,665.83,590.487,666l-39.366.076-39.366.076-39.366-.045-78.731-.162c-13.122-.048-26.244-.019-39.366.006l-39.366.066-78.732.156-78.731.027q-39.366.059-78.732-.107L0,665.83v-.085l78.731-.267q39.366-.106,78.732-.107l78.731.026,78.732.157,39.366.066c13.122.026,26.244.054,39.366.006l78.731-.162,39.366-.046,39.366.076,39.366.076,39.366.175Z" transform="translate(-177.121 -398.48)" fill="#352d24"/>
                </g>
              </g>
            </g>
          </g>
        </g>
        <path id="Tracé_3090" data-name="Tracé 3090" d="M253.632,643.661V539.068h99.12V643.755Z" transform="translate(-51.748 -109.984)" fill="#2f4658"/>
      </g>
    </g>
    <g id="Groupe_377" data-name="Groupe 377" transform="translate(201.884 429.084)">
      <g id="Groupe_376" data-name="Groupe 376" clip-path="url(#clip-path-10)">
        <rect id="Rectangle_774" data-name="Rectangle 774" width="131.656" height="5.226" transform="translate(-13.789 4.231)" fill="#4f5d68"/>
        <rect id="Rectangle_775" data-name="Rectangle 775" width="131.656" height="5.226" transform="translate(-13.789 11.846)" fill="#4f5d68"/>
        <rect id="Rectangle_776" data-name="Rectangle 776" width="131.656" height="5.226" transform="translate(-13.789 19.459)" fill="#4f5d68"/>
        <rect id="Rectangle_777" data-name="Rectangle 777" width="131.656" height="5.226" transform="translate(-13.789 27.073)" fill="#4f5d68"/>
        <rect id="Rectangle_778" data-name="Rectangle 778" width="131.656" height="5.226" transform="translate(-13.789 34.688)" fill="#4f5d68"/>
        <rect id="Rectangle_779" data-name="Rectangle 779" width="131.656" height="5.226" transform="translate(-13.789 42.301)" fill="#4f5d68"/>
        <rect id="Rectangle_780" data-name="Rectangle 780" width="131.656" height="5.226" transform="translate(-13.789 49.915)" fill="#4f5d68"/>
        <rect id="Rectangle_781" data-name="Rectangle 781" width="131.656" height="5.226" transform="translate(-13.789 57.529)" fill="#4f5d68"/>
        <rect id="Rectangle_782" data-name="Rectangle 782" width="131.656" height="5.226" transform="translate(-13.789 65.143)" fill="#4f5d68"/>
        <rect id="Rectangle_783" data-name="Rectangle 783" width="131.656" height="5.226" transform="translate(-13.789 72.757)" fill="#4f5d68"/>
        <rect id="Rectangle_784" data-name="Rectangle 784" width="131.656" height="5.226" transform="translate(-13.789 80.371)" fill="#4f5d68"/>
        <rect id="Rectangle_785" data-name="Rectangle 785" width="131.656" height="5.226" transform="translate(-13.789 87.984)" fill="#4f5d68"/>
        <rect id="Rectangle_786" data-name="Rectangle 786" width="131.656" height="5.226" transform="translate(-13.789 95.599)" fill="#4f5d68"/>
        <rect id="Rectangle_787" data-name="Rectangle 787" width="131.656" height="4.012" transform="translate(-13.789 4.839)" fill="#233542"/>
        <rect id="Rectangle_788" data-name="Rectangle 788" width="131.656" height="4.012" transform="translate(-13.789 12.493)" fill="#233542"/>
        <rect id="Rectangle_789" data-name="Rectangle 789" width="131.656" height="4.012" transform="translate(-13.789 20.148)" fill="#233542"/>
        <rect id="Rectangle_790" data-name="Rectangle 790" width="131.656" height="4.012" transform="translate(-13.789 27.802)" fill="#233542"/>
        <rect id="Rectangle_791" data-name="Rectangle 791" width="131.656" height="4.012" transform="translate(-13.789 35.457)" fill="#233542"/>
        <rect id="Rectangle_792" data-name="Rectangle 792" width="131.656" height="4.012" transform="translate(-13.789 43.111)" fill="#233542"/>
        <rect id="Rectangle_793" data-name="Rectangle 793" width="131.656" height="4.012" transform="translate(-13.789 50.766)" fill="#233542"/>
        <rect id="Rectangle_794" data-name="Rectangle 794" width="131.656" height="4.012" transform="translate(-13.789 58.42)" fill="#233542"/>
        <rect id="Rectangle_795" data-name="Rectangle 795" width="131.656" height="4.012" transform="translate(-13.789 66.075)" fill="#233542"/>
        <rect id="Rectangle_796" data-name="Rectangle 796" width="131.656" height="4.012" transform="translate(-13.789 73.729)" fill="#233542"/>
        <rect id="Rectangle_797" data-name="Rectangle 797" width="131.656" height="4.012" transform="translate(-13.789 81.383)" fill="#233542"/>
        <rect id="Rectangle_798" data-name="Rectangle 798" width="131.656" height="4.012" transform="translate(-13.789 89.038)" fill="#233542"/>
        <rect id="Rectangle_799" data-name="Rectangle 799" width="131.656" height="4.012" transform="translate(-13.789 96.692)" fill="#233542"/>
      </g>
    </g>
    <g id="Groupe_379" data-name="Groupe 379">
      <g id="Groupe_378" data-name="Groupe 378" clip-path="url(#clip-path-2)">
        <path id="Tracé_3092" data-name="Tracé 3092" d="M252.52,642.436V537.844h99.12l5.208-4.776H248.182V642.436Z" transform="translate(-50.636 -108.76)" fill="#121b21"/>
        <path id="Tracé_3093" data-name="Tracé 3093" d="M378.159,537.844l5.207-4.776V642.531h-5.207Z" transform="translate(-77.155 -108.76)" fill="#1a2832"/>
        <path id="Tracé_3094" data-name="Tracé 3094" d="M451.3,450.409H373.306L275.9,334.117l-53.7,47.8v-5.249l54.078-49.81L375.6,445.27h75.7Z" transform="translate(-45.335 -66.688)" fill="#346e9c"/>
        <rect id="Rectangle_800" data-name="Rectangle 800" width="179.794" height="90.053" transform="translate(444.902 432.476)" fill="#dfe8ef"/>
        <path id="Tracé_3095" data-name="Tracé 3095" d="M550.669,632.088V536.3H742.6l-5.557,5.6H557.253v90.053Z" transform="translate(-112.351 -109.419)" fill="#41494d"/>
        <path id="Tracé_3096" data-name="Tracé 3096" d="M784.819,541.9l5.557-5.6v95.652h-5.557Z" transform="translate(-160.124 -109.419)" fill="#48535b"/>
        <rect id="Rectangle_801" data-name="Rectangle 801" width="179.794" height="3.652" transform="translate(444.901 518.878)" fill="#466884"/>
        <rect id="Rectangle_802" data-name="Rectangle 802" width="2.753" height="88.099" transform="translate(530.625 433.147)" fill="#466884"/>
        <rect id="Rectangle_803" data-name="Rectangle 803" width="179.794" height="3.628" transform="translate(444.901 432.476)" fill="#466884"/>
        <path id="Tracé_3097" data-name="Tracé 3097" d="M558.941,547.746l4.611.114,1.221,79.346,173.962,1.149v2.28H558.941Z" transform="translate(-114.039 -111.755)" fill="#2f4658"/>
        <path id="Tracé_3098" data-name="Tracé 3098" d="M611.623,439.67l-55.389-.4V352.06l55.389-2.667h8.165v89.838Z" transform="translate(-113.487 -71.286)" fill="#466884"/>
        <path id="Tracé_3099" data-name="Tracé 3099" d="M566.158,360.031l6.931-.209-.612,74.871,41.171,1.148V437.8l-46.542-1.486Z" transform="translate(-115.511 -73.413)" fill="#2f4658"/>
        <path id="Tracé_3100" data-name="Tracé 3100" d="M573.927,359.789l41.306-.115v76.253l-41.171-1.148Z" transform="translate(-117.096 -73.383)" fill="#dfe8ef"/>
      </g>
    </g>
  </g>
</svg>
