<svg width="88" height="88" viewBox="0 0 88 88" fill="none" xmlns="http://www.w3.org/2000/svg">
<circle cx="44" cy="44" r="44" fill="#8270B3"/>
<path d="M67.2251 62.9243V68H45.5601V63.7153C46.1021 62.5288 46.7905 61.3716 47.6255 60.2437C48.4604 59.1011 49.4565 57.9585 50.6138 56.8159C51.7856 55.6587 53.1187 54.4722 54.6128 53.2563C55.6968 52.3774 56.6196 51.5791 57.3813 50.8613C58.1431 50.1289 58.7363 49.4771 59.1611 48.9058C59.6006 48.3345 59.9302 47.7705 60.1499 47.2139C60.3696 46.6426 60.4795 46.0859 60.4795 45.5439C60.4795 44.1963 60.1353 43.1855 59.4468 42.5117C58.7729 41.8379 57.7622 41.501 56.4146 41.501C55.0962 41.501 54.0854 41.8599 53.3823 42.5776C52.6938 43.2808 52.2471 44.3428 52.042 45.7637L45.8237 45.4121C46.1753 42.541 47.2446 40.3511 49.0317 38.8423C50.8335 37.3335 53.2798 36.5791 56.3706 36.5791C59.7104 36.5791 62.2739 37.3408 64.061 38.8643C65.8481 40.3877 66.7417 42.5264 66.7417 45.2803C66.7417 46.833 66.4194 48.2246 65.7749 49.4551C65.1304 50.6855 64.3101 51.8208 63.314 52.8608C62.4937 53.7544 61.5635 54.604 60.5234 55.4097C59.498 56.2153 58.502 56.999 57.5352 57.7607C56.5098 58.5811 55.5723 59.4087 54.7227 60.2437C53.8877 61.0786 53.2651 61.9722 52.855 62.9243H67.2251Z" fill="white"/>
</svg>
