<svg id="Calque_1" data-name="Calque 1" xmlns="http://www.w3.org/2000/svg" xmlns:xlink="http://www.w3.org/1999/xlink" viewBox="0 0 595.28 841.89"><defs><style>.cls-1,.cls-22,.cls-23,.cls-25,.cls-26,.cls-27,.cls-29,.cls-31{fill:none;}.cls-2{fill:#fff2b3;isolation:isolate;opacity:0.8;}.cls-3{clip-path:url(#clip-path);}.cls-4{fill:#909091;}.cls-5{fill:#d7d8d7;}.cls-6{fill:#bcbcbb;}.cls-7{fill:#fff;}.cls-8{fill:#16af96;}.cls-9{fill:#ffd601;}.cls-10{fill:#ed6d51;}.cls-11{fill:#00b3dc;}.cls-12{fill:#d5172b;}.cls-13{clip-path:url(#clip-path-2);}.cls-14{fill:#282828;}.cls-15{fill:#d8b110;}.cls-16{fill:#025a7d;}.cls-17{fill:#383838;}.cls-18{fill:#ffe768;}.cls-19{fill:#161616;}.cls-20{fill:#793728;}.cls-21{clip-path:url(#clip-path-3);}.cls-22,.cls-23,.cls-25{stroke:#65948d;}.cls-22,.cls-23,.cls-25,.cls-26,.cls-27,.cls-29{stroke-linecap:round;stroke-linejoin:round;}.cls-22,.cls-27{stroke-width:2px;}.cls-23,.cls-26{stroke-width:3.62px;}.cls-24{fill:#004d40;}.cls-25,.cls-29,.cls-31{stroke-width:1.45px;}.cls-26,.cls-27,.cls-29{stroke:#028571;}.cls-28{fill:#369d8d;}.cls-30{clip-path:url(#clip-path-4);}.cls-31{stroke:#fff;stroke-miterlimit:10;}.cls-32{fill:#71c3b9;}</style><clipPath id="clip-path"><rect class="cls-1" x="306.76" y="327.81" width="195.61" height="185.37"/></clipPath><clipPath id="clip-path-2"><rect class="cls-1" x="152.37" y="470.35" width="73.86" height="36.01"/></clipPath><clipPath id="clip-path-3"><rect class="cls-1" x="268.37" y="433.83" width="52.07" height="72.53"/></clipPath><clipPath id="clip-path-4"><rect class="cls-1" x="66.37" y="451.23" width="40.14" height="55.13"/></clipPath></defs><path id="Tracé_2337" data-name="Tracé 2337" class="cls-2" d="M277.08,356v59.35h15.53V379h44.54v41.5h42.47v42.74H390V431.62h42.47v45h49.72l11.91,11h34.7V513H147.33v.19l-53.5-.6L94.89,443l34.68.39L129,478.2l6.65.07V434.5H174V387.93h20.71V369.4H211.3L249.11,356Z"/><g id="Groupe_218" data-name="Groupe 218"><g class="cls-3"><g id="Groupe_217" data-name="Groupe 217"><path id="Tracé_2181" data-name="Tracé 2181" class="cls-4" d="M348.69,497.09s-11.24,8-11.37,15.91h-14.7s.89-11.64-9.27-15.91"/><path id="Tracé_2182" data-name="Tracé 2182" class="cls-5" d="M350,497.09s-11.24,8-11.36,15.91H324s.88-11.64-9.28-15.91"/><path id="Tracé_2183" data-name="Tracé 2183" class="cls-4" d="M373.34,513s-11.25-7.95-11.37-15.91h-14.7s.88,11.64-9.28,15.91"/><path id="Tracé_2184" data-name="Tracé 2184" class="cls-5" d="M374.66,513s-11.24-7.95-11.36-15.91H348.6s.88,11.64-9.28,15.91"/><path id="Tracé_2185" data-name="Tracé 2185" class="cls-4" d="M396,497.09s-11.24,8-11.36,15.91h-14.7s.88-11.64-9.28-15.91"/><path id="Tracé_2186" data-name="Tracé 2186" class="cls-5" d="M397.28,497.09s-11.24,8-11.36,15.91h-14.7s.88-11.64-9.28-15.91"/><path id="Tracé_2187" data-name="Tracé 2187" class="cls-4" d="M419.52,513s-11.24-7.95-11.36-15.91h-14.7s.88,11.64-9.28,15.91"/><path id="Tracé_2188" data-name="Tracé 2188" class="cls-5" d="M420.85,513s-11.24-7.95-11.37-15.91h-14.7s.89,11.64-9.27,15.91"/><path id="Tracé_2189" data-name="Tracé 2189" class="cls-4" d="M444.81,497.09s-11.24,8-11.36,15.91h-14.7s.88-11.64-9.28-15.91"/><path id="Tracé_2190" data-name="Tracé 2190" class="cls-5" d="M446.14,497.09s-11.25,8-11.37,15.91h-14.7s.89-11.64-9.28-15.91"/><path id="Tracé_2191" data-name="Tracé 2191" class="cls-4" d="M471.32,513s-11.24-7.95-11.37-15.91h-14.7s.89,11.64-9.27,15.91"/><path id="Tracé_2192" data-name="Tracé 2192" class="cls-5" d="M472.65,513s-11.24-7.95-11.36-15.91h-14.7s.88,11.64-9.28,15.91"/><path id="Tracé_2193" data-name="Tracé 2193" class="cls-5" d="M457.75,361.26H493l-2.83-18.73-32.37-14.72Z"/><path id="Tracé_2194" data-name="Tracé 2194" class="cls-6" d="M457.75,361.26,311.17,426.61,309,411.2l148.75-83.39Z"/><path id="Tracé_2195" data-name="Tracé 2195" class="cls-7" d="M453,368.14,315.15,427.39,313,412l140-77.28Z"/><path id="Tracé_2196" data-name="Tracé 2196" class="cls-7" d="M460.1,497.28h42.27L499,352.36,460.1,334.69Z"/><path id="Tracé_2197" data-name="Tracé 2197" class="cls-5" d="M460.1,497.28H308.56l-1.8-76.86L460.1,334.69Z"/><path id="Tracé_2198" data-name="Tracé 2198" class="cls-8" d="M463.08,489.18v5.3H499v-4.74h-.88Z"/><path id="Tracé_2199" data-name="Tracé 2199" class="cls-6" d="M463.08,489.18v1.18l35.94.51v-1.13Z"/><path id="Tracé_2200" data-name="Tracé 2200" class="cls-9" d="M463.08,481.38v5.3l35,.9.95,0v-4.74Z"/><path id="Tracé_2201" data-name="Tracé 2201" class="cls-6" d="M463.08,482.55l35.06,1.4-.07,3.63v0H499v-4.74l-35.94-1.49Z"/><path id="Tracé_2202" data-name="Tracé 2202" class="cls-10" d="M463.08,473.57v5.3l35,1.46.95,0-.09-4.73Z"/><path id="Tracé_2203" data-name="Tracé 2203" class="cls-11" d="M463.08,464.59v5.3L499,472.57l-.09-4.74Z"/><path id="Tracé_2204" data-name="Tracé 2204" class="cls-10" d="M463.08,455.6v5.3L499,463.58l-.09-4.73Z"/><path id="Tracé_2205" data-name="Tracé 2205" class="cls-12" d="M463.08,446.62v5.3l36,3.86L499,451Z"/><path id="Tracé_2206" data-name="Tracé 2206" class="cls-8" d="M462.9,437.64v5.3l36,3.86-.09-4.74Z"/><path id="Tracé_2207" data-name="Tracé 2207" class="cls-9" d="M462.71,427.69V433l36,5-.09-4.74Z"/><path id="Tracé_2208" data-name="Tracé 2208" class="cls-12" d="M462.71,417.37v5.3l36,6.7-.09-4.74Z"/><path id="Tracé_2209" data-name="Tracé 2209" class="cls-10" d="M462.71,408.89v5.3l36,6.7-.09-4.73Z"/><path id="Tracé_2210" data-name="Tracé 2210" class="cls-8" d="M462.71,398.86v5.3l35.61,7-.09-4.73Z"/><path id="Tracé_2211" data-name="Tracé 2211" class="cls-9" d="M462.71,388.77v5.3l35.24,7-.09-4.74Z"/><path id="Tracé_2212" data-name="Tracé 2212" class="cls-12" d="M462.71,378.47v5.3l35.05,8.14-.09-4.73Z"/><path id="Tracé_2213" data-name="Tracé 2213" class="cls-10" d="M462.71,369v5.3l34.86,8.7-.08-4.74Z"/><path id="Tracé_2214" data-name="Tracé 2214" class="cls-11" d="M462.71,359.44v5.3l34.68,9.45-.09-4.74Z"/><path id="Tracé_2215" data-name="Tracé 2215" class="cls-10" d="M462.71,348.44v5.3L497.2,366l-.08-4.74Z"/><path id="Tracé_2216" data-name="Tracé 2216" class="cls-11" d="M462.71,338.72V344l34.49,14.1-.08-4.73Z"/><path id="Tracé_2217" data-name="Tracé 2217" class="cls-8" d="M457.75,489.18v5.3L311.51,496l-.16-3.38Z"/><path id="Tracé_2218" data-name="Tracé 2218" class="cls-9" d="M457.75,481.38v5.3l-146.32,4.49v-2.84Z"/><path id="Tracé_2219" data-name="Tracé 2219" class="cls-10" d="M457.75,473.57v5.3l-146.24,8.25-.06-3Z"/><path id="Tracé_2220" data-name="Tracé 2220" class="cls-11" d="M457.75,464.59v5.3L311.46,482.16l0-3.24Z"/><path id="Tracé_2221" data-name="Tracé 2221" class="cls-10" d="M457.75,455.6v5.3L310.81,477.15l-.06-2.92Z"/><path id="Tracé_2222" data-name="Tracé 2222" class="cls-12" d="M457.75,446.62v5.3L311.33,472.69l-.05-2.95Z"/><path id="Tracé_2223" data-name="Tracé 2223" class="cls-8" d="M457.56,437.64v5.3L310,468.16,310,465Z"/><path id="Tracé_2224" data-name="Tracé 2224" class="cls-9" d="M457.37,427.69V433l-146.6,29.9,0-2.73Z"/><path id="Tracé_2225" data-name="Tracé 2225" class="cls-12" d="M457.38,417.37v5.3L310,458.11l-.06-3.17Z"/><path id="Tracé_2226" data-name="Tracé 2226" class="cls-10" d="M457.38,408.89v5.3L310.75,452.58l-.05-2.87Z"/><path id="Tracé_2227" data-name="Tracé 2227" class="cls-8" d="M457.37,398.86v5.3L310,447.29l0-2.37Z"/><path id="Tracé_2228" data-name="Tracé 2228" class="cls-9" d="M457.38,388.77v5.3L309.37,443l-.05-2.8Z"/><path id="Tracé_2229" data-name="Tracé 2229" class="cls-12" d="M457.37,378.47v5.3l-148,54-.06-3.05Z"/><path id="Tracé_2230" data-name="Tracé 2230" class="cls-10" d="M457.38,369v5.3L308.46,433.11l0-2.37Z"/><path id="Tracé_2231" data-name="Tracé 2231" class="cls-11" d="M457.37,359.44v5.3l-149,64.55,0-2.36Z"/><path id="Tracé_2232" data-name="Tracé 2232" class="cls-10" d="M457.37,348.44v5.3L308.37,426l-.12-2.14Z"/><path id="Tracé_2233" data-name="Tracé 2233" class="cls-11" d="M457.38,338.72V344L308.26,422.71l0-1.94Z"/><path id="Tracé_2234" data-name="Tracé 2234" class="cls-6" d="M463.08,474.75l35.06,2-.07,3.62.95,0-.09-4.74-35.85-2.07Z"/><path id="Tracé_2235" data-name="Tracé 2235" class="cls-6" d="M463.08,465.77l35.06,3.15-.07,3.61.95,0-.09-4.74-35.85-3.24Z"/><path id="Tracé_2236" data-name="Tracé 2236" class="cls-6" d="M463.08,456.78l35.06,3.15-.07,3.62.95,0-.09-4.74-35.85-3.25Z"/><path id="Tracé_2237" data-name="Tracé 2237" class="cls-6" d="M463.08,447.8l35.11,4.33-.08,3.55.95.1L499,451l-35.89-4.42Z"/><path id="Tracé_2238" data-name="Tracé 2238" class="cls-6" d="M462.9,438.82l35.1,4.32-.07,3.56.95.1-.09-4.74-35.89-4.42Z"/><path id="Tracé_2239" data-name="Tracé 2239" class="cls-6" d="M462.71,428.87l35.11,5.48-.08,3.52.95.13-.09-4.74-35.89-5.57Z"/><path id="Tracé_2240" data-name="Tracé 2240" class="cls-6" d="M462.71,418.54l35.11,7.17-.08,3.52.95.14-.09-4.74-35.89-7.26Z"/><path id="Tracé_2241" data-name="Tracé 2241" class="cls-6" d="M462.71,410.07l35.11,7.17-.08,3.53.95.13-.09-4.74-35.89-7.26Z"/><path id="Tracé_2242" data-name="Tracé 2242" class="cls-6" d="M462.71,400l34.74,7.5-.08,3.52.95.14-.09-4.74-35.52-7.6Z"/><path id="Tracé_2243" data-name="Tracé 2243" class="cls-6" d="M462.71,390l34.36,7.5L497,401l.95.13-.09-4.74-35.15-7.59Z"/><path id="Tracé_2244" data-name="Tracé 2244" class="cls-6" d="M462.71,379.64l34.18,8.62-.08,3.44.95.22-.09-4.74-35-8.71Z"/><path id="Tracé_2245" data-name="Tracé 2245" class="cls-6" d="M462.71,370.16l34,9.18-.07,3.43.94.22-.08-4.74L462.71,369Z"/><path id="Tracé_2246" data-name="Tracé 2246" class="cls-6" d="M462.71,360.62l33.8,9.92-.07,3.43.95.22-.09-4.73-34.59-10Z"/><path id="Tracé_2247" data-name="Tracé 2247" class="cls-6" d="M462.71,349.62l33.62,12.71-.08,3.32.95.34-.09-4.74-34.4-12.81Z"/><path id="Tracé_2248" data-name="Tracé 2248" class="cls-6" d="M462.71,339.9l33.62,14.57-.07,3.27.94.39-.08-4.74-34.41-14.67Z"/><rect id="Rectangle_596" data-name="Rectangle 596" class="cls-7" x="489.75" y="488.74" width="1.08" height="7.17"/><rect id="Rectangle_597" data-name="Rectangle 597" class="cls-6" x="488.67" y="490.03" width="1.08" height="4.45"/><rect id="Rectangle_598" data-name="Rectangle 598" class="cls-7" x="471.66" y="488.74" width="1.08" height="7.17"/><rect id="Rectangle_599" data-name="Rectangle 599" class="cls-6" x="470.58" y="490.03" width="1.08" height="4.45"/><rect id="Rectangle_600" data-name="Rectangle 600" class="cls-7" x="494.47" y="465.25" width="1.08" height="7.17"/><path id="Tracé_2249" data-name="Tracé 2249" class="cls-6" d="M493.39,472.19l1.08.07V467.8h-1.08Z"/><rect id="Rectangle_601" data-name="Rectangle 601" class="cls-7" x="476.28" y="465.05" width="1.08" height="7.17"/><path id="Tracé_2250" data-name="Tracé 2250" class="cls-6" d="M475.2,470.8l1.08.07v-4.53H475.2Z"/><rect id="Rectangle_602" data-name="Rectangle 602" class="cls-7" x="487.69" y="456.93" width="1.08" height="7.17"/><path id="Tracé_2251" data-name="Tracé 2251" class="cls-6" d="M486.61,462.68l1.08.07v-4.53h-1.08Z"/><rect id="Rectangle_603" data-name="Rectangle 603" class="cls-7" x="465.87" y="455.29" width="1.08" height="7.17"/><path id="Tracé_2252" data-name="Tracé 2252" class="cls-6" d="M464.79,461l1.08.08v-4.54h-1.08Z"/><rect id="Rectangle_604" data-name="Rectangle 604" class="cls-7" x="477.36" y="447.62" width="1.08" height="7.17"/><path id="Tracé_2253" data-name="Tracé 2253" class="cls-6" d="M476.28,453.36l1.08.08v-4.53h-1.08Z"/><rect id="Rectangle_605" data-name="Rectangle 605" class="cls-7" x="471.14" y="438" width="1.08" height="7.17"/><path id="Tracé_2254" data-name="Tracé 2254" class="cls-6" d="M470.06,443.74l1.08.08v-4.53h-1.08Z"/><rect id="Rectangle_606" data-name="Rectangle 606" class="cls-7" x="488" y="439.84" width="1.08" height="7.17"/><path id="Tracé_2255" data-name="Tracé 2255" class="cls-6" d="M486.92,445.58l1.08.08v-4.53h-1.08Z"/><rect id="Rectangle_607" data-name="Rectangle 607" class="cls-7" x="476.97" y="429.22" width="1.08" height="7.17"/><path id="Tracé_2256" data-name="Tracé 2256" class="cls-6" d="M475.89,434.83,477,435v-4.47h-1.08Z"/><rect id="Rectangle_608" data-name="Rectangle 608" class="cls-7" x="493.22" y="431.46" width="1.08" height="7.17"/><path id="Tracé_2257" data-name="Tracé 2257" class="cls-6" d="M492.14,437.09l1.08.15v-4.49h-1.08Z"/><rect id="Rectangle_609" data-name="Rectangle 609" class="cls-7" x="466.1" y="417.51" width="1.08" height="7.17"/><path id="Tracé_2258" data-name="Tracé 2258" class="cls-6" d="M465,423.14l1.08.15V418.8H465Z"/><rect id="Rectangle_610" data-name="Rectangle 610" class="cls-7" x="492.14" y="413.91" width="1.08" height="7.17"/><path id="Tracé_2259" data-name="Tracé 2259" class="cls-6" d="M491.06,419.48l1.08.2v-4.49h-1.08Z"/><rect id="Rectangle_611" data-name="Rectangle 611" class="cls-7" x="487.24" y="403.23" width="1.08" height="7.17"/><path id="Tracé_2260" data-name="Tracé 2260" class="cls-6" d="M486.16,408.81l1.08.2v-4.49h-1.08Z"/><rect id="Rectangle_612" data-name="Rectangle 612" class="cls-7" x="479.83" y="401.77" width="1.08" height="7.17"/><path id="Tracé_2261" data-name="Tracé 2261" class="cls-6" d="M478.75,407.35l1.08.2v-4.49h-1.08Z"/><rect id="Rectangle_613" data-name="Rectangle 613" class="cls-7" x="484.14" y="392.6" width="1.08" height="7.17"/><path id="Tracé_2262" data-name="Tracé 2262" class="cls-6" d="M483.06,398.18l1.08.2v-4.49h-1.08Z"/><rect id="Rectangle_614" data-name="Rectangle 614" class="cls-7" x="465.32" y="388.82" width="1.08" height="7.17"/><path id="Tracé_2263" data-name="Tracé 2263" class="cls-6" d="M464.24,394.4l1.08.2v-4.49h-1.08Z"/><rect id="Rectangle_615" data-name="Rectangle 615" class="cls-7" x="469.67" y="379.56" width="1.08" height="7.17"/><path id="Tracé_2264" data-name="Tracé 2264" class="cls-6" d="M468.59,385.14l1.08.24v-4.53h-1.08Z"/><rect id="Rectangle_616" data-name="Rectangle 616" class="cls-7" x="492.79" y="384.94" width="1.08" height="7.17"/><path id="Tracé_2265" data-name="Tracé 2265" class="cls-6" d="M491.71,390.52l1.08.24v-4.53h-1.08Z"/><rect id="Rectangle_617" data-name="Rectangle 617" class="cls-7" x="486.46" y="374.48" width="1.08" height="7.17"/><path id="Tracé_2266" data-name="Tracé 2266" class="cls-6" d="M485.38,380.06l1.08.24v-4.53h-1.08Z"/><rect id="Rectangle_618" data-name="Rectangle 618" class="cls-7" x="487.54" y="356.74" width="1.08" height="7.17"/><path id="Tracé_2267" data-name="Tracé 2267" class="cls-6" d="M486.46,362.32l1.08.3V358h-1.08Z"/><rect id="Rectangle_619" data-name="Rectangle 619" class="cls-7" x="469.87" y="350.55" width="1.08" height="7.17"/><path id="Tracé_2268" data-name="Tracé 2268" class="cls-6" d="M468.78,356.13l1.08.3v-4.59h-1.08Z"/><rect id="Rectangle_620" data-name="Rectangle 620" class="cls-7" x="482.64" y="346.32" width="1.08" height="7.17"/><path id="Tracé_2269" data-name="Tracé 2269" class="cls-6" d="M481.56,351.9l1.08.3v-4.59h-1.08Z"/><rect id="Rectangle_621" data-name="Rectangle 621" class="cls-7" x="480.89" y="481.19" width="1.08" height="7.17"/><rect id="Rectangle_622" data-name="Rectangle 622" class="cls-6" x="479.81" y="482.69" width="1.08" height="4.45"/><rect id="Rectangle_623" data-name="Rectangle 623" class="cls-7" x="488.67" y="474.21" width="1.08" height="7.17"/><rect id="Rectangle_624" data-name="Rectangle 624" class="cls-6" x="487.59" y="475.5" width="1.08" height="4.45"/><rect id="Rectangle_625" data-name="Rectangle 625" class="cls-7" x="467.03" y="473.32" width="1.08" height="7.17"/><rect id="Rectangle_626" data-name="Rectangle 626" class="cls-6" x="465.95" y="474.61" width="1.08" height="4.45"/><path id="Tracé_2270" data-name="Tracé 2270" class="cls-4" d="M311.35,492.57l0,.77,146.36-3v-1.14Z"/><path id="Tracé_2271" data-name="Tracé 2271" class="cls-4" d="M311.43,488.33v.78l146.32-6.6v-1.13Z"/><path id="Tracé_2272" data-name="Tracé 2272" class="cls-4" d="M311.45,484.1v.78l146.3-10.17v-1.14Z"/><path id="Tracé_2273" data-name="Tracé 2273" class="cls-4" d="M311.4,478.92v.78l146.35-14v-1.13Z"/><path id="Tracé_2274" data-name="Tracé 2274" class="cls-4" d="M310.75,474.24V475l147-18.27V455.6Z"/><path id="Tracé_2275" data-name="Tracé 2275" class="cls-4" d="M311.28,469.74v.78l146.47-22.76v-1.14Z"/><path id="Tracé_2276" data-name="Tracé 2276" class="cls-4" d="M310,465v.77l147.58-27v-1.13Z"/><path id="Tracé_2277" data-name="Tracé 2277" class="cls-4" d="M310.73,460.17v.77l146.64-32.11v-1.14Z"/><path id="Tracé_2278" data-name="Tracé 2278" class="cls-4" d="M310,454.94v.77L457.38,418.5v-1.13Z"/><path id="Tracé_2279" data-name="Tracé 2279" class="cls-4" d="M310.7,449.71v.78L457.37,410v-1.14Z"/><path id="Tracé_2280" data-name="Tracé 2280" class="cls-4" d="M309.93,444.92v.78L457.37,400v-1.14Z"/><path id="Tracé_2281" data-name="Tracé 2281" class="cls-4" d="M309.32,440.21V441l148.06-51v-1.12Z"/><path id="Tracé_2282" data-name="Tracé 2282" class="cls-4" d="M309.26,434.69v.77L457.38,379.6v-1.13Z"/><path id="Tracé_2283" data-name="Tracé 2283" class="cls-4" d="M308.42,430.74v.77l149-61.4V369Z"/><path id="Tracé_2284" data-name="Tracé 2284" class="cls-4" d="M308.31,426.93v.78l149.06-67.13v-1.14Z"/><path id="Tracé_2285" data-name="Tracé 2285" class="cls-4" d="M308.25,423.85v.78l149.12-75.07v-1.13Z"/><path id="Tracé_2286" data-name="Tracé 2286" class="cls-4" d="M308.23,420.77v.78l149.14-81.69v-1.14Z"/><rect id="Rectangle_627" data-name="Rectangle 627" class="cls-5" x="414.4" y="403.38" width="1.08" height="7.17"/><path id="Tracé_2287" data-name="Tracé 2287" class="cls-4" d="M415.48,408.42l1.08-.43v-4.13l-1.08.27Z"/><rect id="Rectangle_628" data-name="Rectangle 628" class="cls-5" x="346.46" y="426.59" width="1.08" height="4.15"/><path id="Tracé_2288" data-name="Tracé 2288" class="cls-4" d="M347.54,430.53l1.08-.34V427l-1.08.22Z"/><rect id="Rectangle_629" data-name="Rectangle 629" class="cls-5" x="311.9" y="438.07" width="1.08" height="4.2"/><path id="Tracé_2289" data-name="Tracé 2289" class="cls-4" d="M313,442l1.08-.33v-3.1l-1.08.2Z"/><rect id="Rectangle_630" data-name="Rectangle 630" class="cls-5" x="319.92" y="440.91" width="1.08" height="4.2"/><path id="Tracé_2290" data-name="Tracé 2290" class="cls-4" d="M321,444.82l1.08-.33v-3.1l-1.08.2Z"/><rect id="Rectangle_631" data-name="Rectangle 631" class="cls-5" x="365.36" y="427.12" width="1.08" height="4.2"/><path id="Tracé_2291" data-name="Tracé 2291" class="cls-4" d="M366.44,431l1.08-.33v-3.1l-1.08.2Z"/><rect id="Rectangle_632" data-name="Rectangle 632" class="cls-5" x="442.38" y="402.93" width="1.08" height="6.32"/><path id="Tracé_2292" data-name="Tracé 2292" class="cls-4" d="M443.46,408.8l1.08-.49v-4.66l-1.08.3Z"/><rect id="Rectangle_633" data-name="Rectangle 633" class="cls-5" x="445.97" y="411.46" width="1.08" height="6.32"/><path id="Tracé_2293" data-name="Tracé 2293" class="cls-4" d="M447.05,417.34l1.08-.5v-4.66l-1.08.31Z"/><rect id="Rectangle_634" data-name="Rectangle 634" class="cls-5" x="395.75" y="424.55" width="1.08" height="6.32"/><path id="Tracé_2294" data-name="Tracé 2294" class="cls-4" d="M396.83,430.42l1.08-.49v-4.66l-1.08.3Z"/><rect id="Rectangle_635" data-name="Rectangle 635" class="cls-5" x="340.13" y="440.4" width="1.08" height="4.62"/><path id="Tracé_2295" data-name="Tracé 2295" class="cls-4" d="M341.21,444.7l1.08-.36v-3.41l-1.08.22Z"/><rect id="Rectangle_636" data-name="Rectangle 636" class="cls-5" x="321" y="451.49" width="1.08" height="4.12"/><path id="Tracé_2296" data-name="Tracé 2296" class="cls-4" d="M322.08,455.32l1.08-.33v-3l-1.08.2Z"/><rect id="Rectangle_637" data-name="Rectangle 637" class="cls-5" x="374.44" y="438.13" width="1.08" height="4.74"/><path id="Tracé_2297" data-name="Tracé 2297" class="cls-4" d="M375.52,442.53l1.08-.37v-3.5l-1.08.23Z"/><rect id="Rectangle_638" data-name="Rectangle 638" class="cls-5" x="436.74" y="422.18" width="1.08" height="5.81"/><path id="Tracé_2298" data-name="Tracé 2298" class="cls-4" d="M437.82,427.58l1.08-.45v-4.29l-1.08.28Z"/><rect id="Rectangle_639" data-name="Rectangle 639" class="cls-5" x="411.99" y="437.2" width="1.08" height="5.81"/><path id="Tracé_2299" data-name="Tracé 2299" class="cls-4" d="M413.07,442.61l1.08-.46v-4.28l-1.08.28Z"/><rect id="Rectangle_640" data-name="Rectangle 640" class="cls-5" x="438.9" y="440.81" width="1.08" height="5.81"/><path id="Tracé_2300" data-name="Tracé 2300" class="cls-4" d="M440,446.21l1.08-.45v-4.29l-1.08.28Z"/><rect id="Rectangle_641" data-name="Rectangle 641" class="cls-5" x="426.77" y="451.18" width="1.08" height="5.81"/><path id="Tracé_2301" data-name="Tracé 2301" class="cls-4" d="M427.85,456.58l1.08-.46v-4.28l-1.08.28Z"/><rect id="Rectangle_642" data-name="Rectangle 642" class="cls-5" x="387.35" y="457.25" width="1.08" height="5.08"/><path id="Tracé_2302" data-name="Tracé 2302" class="cls-4" d="M388.43,462l1.08-.4v-3.75l-1.08.25Z"/><rect id="Rectangle_643" data-name="Rectangle 643" class="cls-5" x="323.68" y="472.23" width="1.08" height="3.86"/><path id="Tracé_2303" data-name="Tracé 2303" class="cls-4" d="M324.76,475.82l1.08-.3v-2.85l-1.08.19Z"/><rect id="Rectangle_644" data-name="Rectangle 644" class="cls-5" x="398.2" y="462.95" width="1.08" height="5.07"/><path id="Tracé_2304" data-name="Tracé 2304" class="cls-4" d="M399.28,467.67l1.08-.4v-3.75l-1.08.25Z"/><rect id="Rectangle_645" data-name="Rectangle 645" class="cls-5" x="432.51" y="466.44" width="1.08" height="6.37"/><path id="Tracé_2305" data-name="Tracé 2305" class="cls-4" d="M433.59,472.36l1.08-.5v-4.7l-1.08.31Z"/><rect id="Rectangle_646" data-name="Rectangle 646" class="cls-5" x="350.14" y="474.82" width="1.08" height="4.62"/><path id="Tracé_2306" data-name="Tracé 2306" class="cls-4" d="M351.22,479.12l1.08-.36v-3.41l-1.08.22Z"/><rect id="Rectangle_647" data-name="Rectangle 647" class="cls-5" x="314.62" y="478.04" width="1.08" height="4.29"/><path id="Tracé_2307" data-name="Tracé 2307" class="cls-4" d="M315.7,482l1.08-.34v-3.16l-1.08.2Z"/><rect id="Rectangle_648" data-name="Rectangle 648" class="cls-5" x="334.58" y="482.29" width="1.08" height="3.99"/><path id="Tracé_2308" data-name="Tracé 2308" class="cls-4" d="M335.66,486l1.08-.31v-2.94l-1.08.19Z"/><rect id="Rectangle_649" data-name="Rectangle 649" class="cls-5" x="409.02" y="476.68" width="1.08" height="5.68"/><path id="Tracé_2309" data-name="Tracé 2309" class="cls-4" d="M410.1,482l1.08-.44v-4.2l-1.08.28Z"/><rect id="Rectangle_650" data-name="Rectangle 650" class="cls-5" x="446.58" y="481.6" width="1.08" height="6.36"/><path id="Tracé_2310" data-name="Tracé 2310" class="cls-4" d="M447.66,487.51l1.08-.5v-4.69l-1.08.31Z"/><rect id="Rectangle_651" data-name="Rectangle 651" class="cls-5" x="399.28" y="483.86" width="1.08" height="5.4"/><path id="Tracé_2311" data-name="Tracé 2311" class="cls-4" d="M400.36,488.88l1.08-.43v-4l-1.08.26Z"/><rect id="Rectangle_652" data-name="Rectangle 652" class="cls-5" x="321.67" y="487.24" width="1.08" height="4.21"/><path id="Tracé_2312" data-name="Tracé 2312" class="cls-4" d="M322.75,491.15l1.08-.33v-3.1l-1.08.2Z"/><rect id="Rectangle_653" data-name="Rectangle 653" class="cls-5" x="373.77" y="490.79" width="1.08" height="5.16"/><path id="Tracé_2313" data-name="Tracé 2313" class="cls-4" d="M374.84,495.59l1.08-.4v-3.81l-1.08.25Z"/><rect id="Rectangle_654" data-name="Rectangle 654" class="cls-5" x="319.38" y="491.9" width="1.08" height="4.8"/><path id="Tracé_2314" data-name="Tracé 2314" class="cls-4" d="M320.46,496.37l1.08-.38v-3.54l-1.08.23Z"/><rect id="Rectangle_655" data-name="Rectangle 655" class="cls-5" x="315.7" y="468.33" width="1.08" height="4.04"/><path id="Tracé_2315" data-name="Tracé 2315" class="cls-4" d="M316.79,472.08l1.08-.31v-3l-1.08.2Z"/><rect id="Rectangle_656" data-name="Rectangle 656" class="cls-5" x="356.77" y="449.33" width="1.08" height="4.41"/><path id="Tracé_2316" data-name="Tracé 2316" class="cls-4" d="M357.85,453.43l1.08-.34v-3.26l-1.08.22Z"/><rect id="Rectangle_657" data-name="Rectangle 657" class="cls-5" x="312.46" y="459.14" width="1.08" height="3.53"/><path id="Tracé_2317" data-name="Tracé 2317" class="cls-4" d="M313.54,462.42l1.08-.27v-2.6l-1.08.17Z"/><rect id="Rectangle_658" data-name="Rectangle 658" class="cls-5" x="330.28" y="460.66" width="1.08" height="4.3"/><path id="Tracé_2318" data-name="Tracé 2318" class="cls-4" d="M331.36,464.65l1.08-.33v-3.17l-1.08.21Z"/><rect id="Rectangle_659" data-name="Rectangle 659" class="cls-5" x="379.77" y="451.65" width="1.08" height="4.97"/><path id="Tracé_2319" data-name="Tracé 2319" class="cls-4" d="M380.85,456.28l1.08-.39v-3.67l-1.08.24Z"/><rect id="Rectangle_660" data-name="Rectangle 660" class="cls-5" x="431.78" y="387.6" width="1.08" height="6.32"/><path id="Tracé_2320" data-name="Tracé 2320" class="cls-4" d="M432.86,393.48l1.08-.5v-4.66l-1.08.31Z"/><rect id="Rectangle_661" data-name="Rectangle 661" class="cls-5" x="373.51" y="408.75" width="1.08" height="6.32"/><path id="Tracé_2321" data-name="Tracé 2321" class="cls-4" d="M374.59,414.62l1.08-.49v-4.66l-1.08.31Z"/><rect id="Rectangle_662" data-name="Rectangle 662" class="cls-5" x="318.84" y="429.95" width="1.08" height="4.36"/><path id="Tracé_2322" data-name="Tracé 2322" class="cls-4" d="M319.92,434l1.08-.34v-3.22l-1.08.21Z"/><rect id="Rectangle_663" data-name="Rectangle 663" class="cls-5" x="324.76" y="423.34" width="1.08" height="3.25"/><path id="Tracé_2323" data-name="Tracé 2323" class="cls-4" d="M325.84,426.36l1.08-.25v-2.4l-1.08.16Z"/><rect id="Rectangle_664" data-name="Rectangle 664" class="cls-5" x="347.98" y="413.53" width="1.08" height="4.08"/><path id="Tracé_2324" data-name="Tracé 2324" class="cls-4" d="M349.06,417.33l1.08-.32v-3l-1.08.2Z"/><rect id="Rectangle_665" data-name="Rectangle 665" class="cls-5" x="407.09" y="388.32" width="1.08" height="6.05"/><path id="Tracé_2325" data-name="Tracé 2325" class="cls-4" d="M408.17,393.94l1.08-.47V389l-1.08.29Z"/><rect id="Rectangle_666" data-name="Rectangle 666" class="cls-5" x="429.37" y="371.17" width="1.08" height="6.05"/><path id="Tracé_2326" data-name="Tracé 2326" class="cls-4" d="M430.45,376.79l1.08-.47v-4.46l-1.08.29Z"/><rect id="Rectangle_667" data-name="Rectangle 667" class="cls-5" x="372.43" y="397.24" width="1.08" height="4.3"/><path id="Tracé_2327" data-name="Tracé 2327" class="cls-4" d="M373.51,401.23l1.08-.33v-3.18l-1.08.21Z"/><rect id="Rectangle_668" data-name="Rectangle 668" class="cls-5" x="407.63" y="372.92" width="1.08" height="5.07"/><path id="Tracé_2328" data-name="Tracé 2328" class="cls-4" d="M408.71,377.63l1.08-.4v-3.74l-1.08.25Z"/><rect id="Rectangle_669" data-name="Rectangle 669" class="cls-5" x="429.37" y="353.25" width="1.08" height="5.72"/><path id="Tracé_2329" data-name="Tracé 2329" class="cls-4" d="M430.45,358.57l1.08-.45V353.9l-1.08.28Z"/><rect id="Rectangle_670" data-name="Rectangle 670" class="cls-5" x="346.85" y="398.86" width="1.08" height="3.5"/><path id="Tracé_2330" data-name="Tracé 2330" class="cls-4" d="M347.93,401.87l1.08-.27V399l-1.08.17Z"/><rect id="Rectangle_671" data-name="Rectangle 671" class="cls-5" x="341.21" y="411.31" width="1.08" height="3.83"/><path id="Tracé_2331" data-name="Tracé 2331" class="cls-4" d="M342.29,414.87l1.08-.3v-2.82l-1.08.18Z"/><rect id="Rectangle_672" data-name="Rectangle 672" class="cls-5" x="332.44" y="410.82" width="1.08" height="3.56"/><path id="Tracé_2332" data-name="Tracé 2332" class="cls-4" d="M333.52,413.83l1.08-.25v-2.36l-1.08.16Z"/><rect id="Rectangle_673" data-name="Rectangle 673" class="cls-5" x="313.54" y="420.14" width="1.08" height="3.56"/><path id="Tracé_2333" data-name="Tracé 2333" class="cls-4" d="M314.62,423l1.08-.23v-2.18l-1.08.14Z"/><path id="Tracé_2334" data-name="Tracé 2334" class="cls-4" d="M496.72,497.28s-11.25,8-11.37,15.91h-14.7s.88-11.64-9.28-15.91"/><path id="Tracé_2335" data-name="Tracé 2335" class="cls-5" d="M498,497.28s-11.24,8-11.36,15.91H472s.88-11.64-9.28-15.91"/><path id="Tracé_2336" data-name="Tracé 2336" class="cls-4" d="M501.63,498.75H310.75l-2.19-1.47H502.37Z"/></g></g></g><g id="Groupe_220" data-name="Groupe 220"><g class="cls-13"><g id="Groupe_219" data-name="Groupe 219"><path id="Tracé_2338" data-name="Tracé 2338" class="cls-14" d="M180.56,498.3c0,3.38-2.32,6.12-5.17,6.12s-5.18-2.74-5.18-6.12,2.32-6.12,5.18-6.12,5.17,2.74,5.17,6.12"/><path id="Tracé_2339" data-name="Tracé 2339" class="cls-14" d="M218.84,498.3c0,3.38-2.31,6.12-5.17,6.12s-5.17-2.74-5.17-6.12,2.31-6.12,5.17-6.12,5.17,2.74,5.17,6.12"/><path id="Tracé_2340" data-name="Tracé 2340" class="cls-15" d="M218.22,472.92l1.63,10.86,5.1.16a.66.66,0,0,1,.64.69l-.45,14.9H155L153.78,489a7.16,7.16,0,0,1,2.58-1.52l18.2-2.59,4.32-11.46a3,3,0,0,1,2.73-2l33.53-1.11a3,3,0,0,1,3.08,2.57"/><path id="Tracé_2341" data-name="Tracé 2341" class="cls-9" d="M216.2,474.15,217.82,485l5.1.15a.67.67,0,0,1,.65.69l-.46,14.9H153l.53-11.18a.94.94,0,0,1,.81-.89l18.21-2.59,4.32-11.45a3,3,0,0,1,2.72-1.95l33.54-1.11a3,3,0,0,1,3.08,2.56"/><path id="Tracé_2342" data-name="Tracé 2342" class="cls-16" d="M179.39,478.06,178,484.57l36-1.13-.38-6.41a2.21,2.21,0,0,0-2.3-2.08l-29.85,1.38a2.21,2.21,0,0,0-2.05,1.73"/><path id="Tracé_2343" data-name="Tracé 2343" class="cls-17" d="M155.93,501.23h-2.06a1.5,1.5,0,0,1-1.5-1.5v-5.61l2.85.42Z"/><path id="Tracé_2344" data-name="Tracé 2344" class="cls-18" d="M152.52,492.75l-.11-2.2a.64.64,0,0,1,.61-.67h0l6.46-.32-.28,2.87-5.95.92a.64.64,0,0,1-.73-.53v-.07"/><path id="Tracé_2345" data-name="Tracé 2345" class="cls-17" d="M219.08,501.23h4c.72,0,2.43-1.51,2.43-2.23v-5.29l-2.15.51-3.19.32Z"/><path id="Tracé_2346" data-name="Tracé 2346" class="cls-19" d="M175.38,499.52c0,3.38-2.31,6.12-5.17,6.12s-5.17-2.73-5.17-6.12,2.32-6.12,5.17-6.12,5.17,2.74,5.17,6.12"/><path id="Tracé_2347" data-name="Tracé 2347" class="cls-10" d="M224.16,493.46l.34-6.85-2.88-.14-.1,5.49Z"/><path id="Tracé_2348" data-name="Tracé 2348" class="cls-20" d="M226,491l.27-5.68-1.33-.06-.19,5.48Z"/><path id="Tracé_2349" data-name="Tracé 2349" class="cls-19" d="M214.35,500.24c0,3.38-2.32,6.12-5.17,6.12s-5.18-2.74-5.18-6.12,2.32-6.12,5.18-6.12,5.17,2.74,5.17,6.12"/></g></g></g><g id="Groupe_222" data-name="Groupe 222"><g class="cls-21"><g id="Groupe_221" data-name="Groupe 221"><path id="Tracé_2350" data-name="Tracé 2350" class="cls-22" d="M284.35,465.84c.5,5.33.85,11.09.92,17.21a210.64,210.64,0,0,1-.92,22.33"/><path id="Tracé_2351" data-name="Tracé 2351" class="cls-23" d="M284.83,471.82a12.91,12.91,0,0,0-5.3-3.45,12,12,0,0,0-3-.62"/><path id="Tracé_2352" data-name="Tracé 2352" class="cls-23" d="M285.89,478.67a15,15,0,0,1,1.88-1.39,14.41,14.41,0,0,1,4.9-1.88"/><path id="Tracé_2353" data-name="Tracé 2353" class="cls-24" d="M268.38,474c.14-2.33,2.3-2.38,3-5.22a13.68,13.68,0,0,0-.43-5.83,2.5,2.5,0,0,1,2.82-3.19c2.44.29,4,.43,5.06-.37s.37-1.68,1.48-3.08a5.55,5.55,0,0,1,4.45-2c.16,0,3,.15,3.95,2,.62,1.21,0,2.38.49,2.59.65.29,1.56-2.19,3.82-2.84a4.58,4.58,0,0,1,4.08.87c1,.8,2,2.33,1.6,3.7s-2,1.37-2.35,2.71,1.11,1.9,2.1,4.57c.43,1.14,1.21,3.26.37,5.06-.7,1.51-1.83,1.24-2.59,2.83s0,2.27-.25,4.32c-.08.7-.47,3.86-2.46,5.06s-4-.14-8.39,0a11.37,11.37,0,0,0-2.1.25c-1.55.33-1.81.74-2.6.86-2,.3-4.63-1.64-5.05-3.82-.32-1.59.72-2.48.12-3.21-.82-1-2.69.34-4.57-.74a5.22,5.22,0,0,1-2.51-4.52"/><path id="Tracé_2354" data-name="Tracé 2354" class="cls-25" d="M287.37,479.16c1.16.93,1.72.93,2,.78.71-.36.36-1.84,1.11-2.23.49-.25,1.17.1,1.62.4"/><path id="Tracé_2355" data-name="Tracé 2355" class="cls-25" d="M275.16,471.24c-.46.77-.44,1.13-.3,1.31s.58.14,1,.4a1.79,1.79,0,0,1,.71,1.22"/><path id="Tracé_2356" data-name="Tracé 2356" class="cls-25" d="M288.64,467.76c1.54.66,2.36.48,2.83.2,1-.62.87-2.09,2-2.53.71-.27,1.15.14,1.62-.2s.55-1.52.4-2.43"/><path id="Tracé_2357" data-name="Tracé 2357" class="cls-25" d="M278.16,461.62a2.2,2.2,0,0,0,1,1.62c1.07.56,2.27-.56,3.54,0a2.43,2.43,0,0,1,1.12,1.12"/><path id="Tracé_2358" data-name="Tracé 2358" class="cls-25" d="M281.9,483.18c.69.82,1.18.95,1.52.91s.66-.5,1.32-.71a2.43,2.43,0,0,1,1.31,0"/><path id="Tracé_2359" data-name="Tracé 2359" class="cls-26" d="M300,484.6a13.25,13.25,0,0,1,5.1-3.64,13,13,0,0,1,3.43-.83"/><path id="Tracé_2360" data-name="Tracé 2360" class="cls-26" d="M299.57,449a14.86,14.86,0,0,1,5.72-4.16"/><path id="Tracé_2361" data-name="Tracé 2361" class="cls-26" d="M299.81,470a16,16,0,0,0-6.77-4.37"/><path id="Tracé_2362" data-name="Tracé 2362" class="cls-27" d="M299,505.57c.7-14,1-28.74.63-44.17q-.23-10.47-.78-20.46"/><path id="Tracé_2363" data-name="Tracé 2363" class="cls-28" d="M288.43,449c.94-1.89-3.09-4.43-2.29-7.08.29-1,.93-.9,3.33-2.91,3.39-2.84,3-3.71,4.79-4.58s2.37,0,7.49-.21c4.46-.15,5.28-.83,6.24,0,1.89,1.62-.2,5.12,2.09,7.49,1.24,1.29,2.36.66,3.12,1.88,1.25,2-1.48,4.14-.63,7.07.72,2.48,3,2,4,4.58,1.14,3-1.47,4.82-.21,7.91.87,2.14,2.39,1.94,2.71,3.75.44,2.57-2.52,3.67-2.29,6.45.16,2,1.78,2,2.91,4.79.91,2.23,1.34,5.84-.42,8.12-1.51,2-3.07.9-6.59,3.28-2.89,2-2.7,3.27-5.06,4.21-1.81.72-2.43.16-6.25.21-5.92.07-6.52,1.45-9.22.6-2.12-.66-1.82-1.53-5.93-4.72-4.91-3.83-6.66-3.62-7.33-5.67-.83-2.56,1.73-3.51,2.92-8.53,1.39-5.87-1.47-7.27.41-12.07,1.35-3.42,3.23-3.83,3.33-6.87.09-2.64-1.27-4.33-.2-5.83.94-1.34,2.55-.74,3.12-1.87"/><path id="Tracé_2364" data-name="Tracé 2364" class="cls-29" d="M295.59,443.26c.63,2.15,1.36,2.78,2,2.88,1,.16,1.66-1,2.73-.76.8.2.89,1,1.57,1.44s2.13.66,5-.83"/><path id="Tracé_2365" data-name="Tracé 2365" class="cls-29" d="M309.25,452.52c.27,1.9,0,2.63-.45,2.88-.86.51-2.36-.82-2.89-.3s.39,1.44,0,2.12c-.28.5-1.24.86-4.1.3"/><path id="Tracé_2366" data-name="Tracé 2366" class="cls-29" d="M287.69,460.11a2.85,2.85,0,0,0,1.82,1.82,2.73,2.73,0,0,0,2.89-1.06"/><path id="Tracé_2367" data-name="Tracé 2367" class="cls-29" d="M284.2,468.3c1,3.18,2,4.05,2.74,4.1,1,.06,1.83-1.26,2.73-.91.6.24.52.93,1.06,1.37s1.68.62,4.4-.76"/><path id="Tracé_2368" data-name="Tracé 2368" class="cls-29" d="M305.76,468.3c3.49,1.27,4.77,1,5.22.46.67-.86-.34-2.69.4-3.19.51-.35,1.21.41,2,.15s1.23-1.68,1.36-3.34"/><path id="Tracé_2369" data-name="Tracé 2369" class="cls-29" d="M304.39,474.53c.37,2.32,0,3.07-.45,3.34-1.07.65-3.12-1.3-4.25-.46-.56.41-.38,1.13-.91,1.37s-1.73-.52-2.58-1.37"/><path id="Tracé_2370" data-name="Tracé 2370" class="cls-29" d="M304.39,483.33c1.29,1.73,2.23,2.06,2.89,2,1.47-.2,2-2.58,3.34-2.58a2.33,2.33,0,0,1,1.67,1.22"/><path id="Tracé_2371" data-name="Tracé 2371" class="cls-29" d="M293,487.43c-1.56,1.23-2.48,1.25-3,1.06-1.16-.41-1.3-2-2.43-2.12-.86-.1-1.26.77-2,.6s-1.12-1.23-1.37-2.43"/></g></g></g><g id="Groupe_226" data-name="Groupe 226"><g class="cls-30"><g id="Groupe_225" data-name="Groupe 225"><path id="Tracé_2393" data-name="Tracé 2393" class="cls-26" d="M86.28,481.23a7.65,7.65,0,0,1,5-2.64"/><path id="Tracé_2394" data-name="Tracé 2394" class="cls-26" d="M86,460.2a8.79,8.79,0,0,1,3.38-2.46"/><path id="Tracé_2395" data-name="Tracé 2395" class="cls-26" d="M86.15,472.63a9.5,9.5,0,0,0-4-2.59"/><path id="Tracé_2396" data-name="Tracé 2396" class="cls-27" d="M85.7,493.63c.41-8.27.56-17,.37-26.1-.09-4.13-.25-8.15-.46-12.09"/><path id="Tracé_2397" data-name="Tracé 2397" class="cls-28" d="M79.42,460.2c.56-1.11-1.82-2.61-1.35-4.18.18-.58.55-.53,2-1.72,2-1.68,1.76-2.19,2.83-2.71s1.4,0,4.43-.12c2.63-.08,3.12-.49,3.69,0,1.11,1-.13,3,1.23,4.43.73.76,1.4.39,1.84,1.11.74,1.18-.87,2.45-.37,4.18.43,1.46,1.76,1.17,2.34,2.7.67,1.78-.87,2.85-.12,4.68.51,1.26,1.41,1.14,1.6,2.21.26,1.52-1.49,2.17-1.36,3.81.1,1.2,1,1.2,1.72,2.83.54,1.32.8,3.46-.24,4.8-.89,1.15-1.82.53-3.89,1.94-1.71,1.16-1.6,1.93-3,2.49-1.07.43-1.43.09-3.69.12-3.5.05-3.86.86-5.45.36-1.25-.4-1.08-.91-3.5-2.8-2.9-2.26-3.94-2.13-4.33-3.34-.49-1.52,1-2.08,1.72-5,.82-3.47-.87-4.3.24-7.14.8-2,1.91-2.26,2-4.06,0-1.56-.75-2.55-.12-3.44s1.51-.44,1.84-1.11"/><path id="Tracé_2398" data-name="Tracé 2398" class="cls-29" d="M83.66,456.8c.37,1.28.8,1.65,1.16,1.7.58.1,1-.61,1.62-.44.47.11.52.57.92.85s1.26.39,2.93-.5"/><path id="Tracé_2399" data-name="Tracé 2399" class="cls-29" d="M91.73,462.27c.16,1.13,0,1.56-.27,1.7-.5.3-1.39-.48-1.7-.17s.23.85,0,1.25-.73.51-2.42.18"/><path id="Tracé_2400" data-name="Tracé 2400" class="cls-29" d="M79,466.76a1.71,1.71,0,0,0,1.08,1.08,1.61,1.61,0,0,0,1.7-.63"/><path id="Tracé_2401" data-name="Tracé 2401" class="cls-29" d="M76.93,471.6c.59,1.88,1.16,2.4,1.61,2.42s1.09-.74,1.62-.53c.35.14.31.54.63.8s1,.37,2.6-.44"/><path id="Tracé_2402" data-name="Tracé 2402" class="cls-29" d="M89.66,471.6c2.07.75,2.82.61,3.09.28.4-.51-.2-1.6.23-1.89s.72.24,1.17.09.72-1,.81-2"/><path id="Tracé_2403" data-name="Tracé 2403" class="cls-29" d="M88.85,475.28c.22,1.37,0,1.82-.26,2-.64.39-1.85-.76-2.52-.27-.33.25-.22.67-.53.81s-1-.3-1.53-.81"/><path id="Tracé_2404" data-name="Tracé 2404" class="cls-29" d="M88.86,480.48c.76,1,1.31,1.22,1.7,1.17.87-.12,1.17-1.53,2-1.53a1.39,1.39,0,0,1,1,.72"/><path id="Tracé_2405" data-name="Tracé 2405" class="cls-29" d="M82.13,482.9c-.92.73-1.46.74-1.79.63-.69-.24-.77-1.18-1.44-1.26-.5,0-.74.46-1.16.36s-.67-.72-.81-1.43"/><path id="Tracé_2407" data-name="Tracé 2407" class="cls-31" d="M96.54,492.67c-.12.85-.42,1.14-.65,1.26-.79.38-1.79-.74-2.52-.3-.37.22-.25.62-.65.95a2.2,2.2,0,0,1-2,.12"/><path id="Tracé_2408" data-name="Tracé 2408" class="cls-31" d="M102.46,501.28c-.66,1.59-1.39,2-1.91,2.15-1.16.27-2-.86-3-.42-.83.35-.81,1.24-1.49,1.38s-1.46-.66-2-1.44"/><path id="Tracé_2409" data-name="Tracé 2409" class="cls-22" d="M91.72,471.37c.34,3.53.57,7.33.62,11.38a137.45,137.45,0,0,1-.62,14.77"/><path id="Tracé_2410" data-name="Tracé 2410" class="cls-23" d="M92,475.32a8.52,8.52,0,0,0-3.5-2.28,8.14,8.14,0,0,0-2-.41"/><path id="Tracé_2411" data-name="Tracé 2411" class="cls-23" d="M92.74,479.85a9.28,9.28,0,0,1,1.25-.91,9.41,9.41,0,0,1,3.24-1.25"/><path id="Tracé_2412" data-name="Tracé 2412" class="cls-24" d="M81.17,476.75c.09-1.54,1.52-1.57,2-3.44a9,9,0,0,0-.28-3.86,1.65,1.65,0,0,1,1.09-2.06,1.71,1.71,0,0,1,.78-.05c1.61.19,2.63.29,3.34-.24s.25-1.11,1-2A3.66,3.66,0,0,1,92,463.75c.11,0,2,.1,2.61,1.31.41.8,0,1.57.32,1.71s1-1.44,2.53-1.87a3,3,0,0,1,2.7.57,2.64,2.64,0,0,1,1.06,2.44c-.27,1-1.33.91-1.55,1.8s.73,1.26,1.38,3a4.4,4.4,0,0,1,.25,3.34c-.47,1-1.22.83-1.71,1.88s0,1.5-.17,2.85c0,.47-.31,2.55-1.63,3.35s-2.64-.1-5.55,0a7.12,7.12,0,0,0-1.38.16c-1,.22-1.2.49-1.72.57a3.4,3.4,0,0,1-3.34-2.53c-.21-1.05.47-1.64.08-2.12-.54-.66-1.78.23-3-.49a3.44,3.44,0,0,1-1.66-3"/><path id="Tracé_2413" data-name="Tracé 2413" class="cls-25" d="M93.72,480.18c.77.61,1.14.62,1.34.51.47-.24.24-1.21.73-1.47.33-.16.77.07,1.07.27"/><path id="Tracé_2414" data-name="Tracé 2414" class="cls-25" d="M85.65,474.94c-.3.51-.29.75-.2.87s.39.09.67.27a1.17,1.17,0,0,1,.47.8"/><path id="Tracé_2415" data-name="Tracé 2415" class="cls-25" d="M94.56,472.64c1,.44,1.56.32,1.87.14.68-.42.58-1.39,1.34-1.68.47-.18.76.09,1.07-.13s.37-1,.27-1.61"/><path id="Tracé_2416" data-name="Tracé 2416" class="cls-25" d="M87.63,468.58a1.46,1.46,0,0,0,.67,1.07c.71.38,1.5-.37,2.34,0a1.66,1.66,0,0,1,.74.74"/><path id="Tracé_2417" data-name="Tracé 2417" class="cls-25" d="M90.11,482.84c.45.54.78.63,1,.6s.43-.33.87-.47a1.61,1.61,0,0,1,.87,0"/><path id="Tracé_2406" data-name="Tracé 2406" class="cls-32" d="M97.63,490.13c-2.15-1.24-1.87-2.37-3.38-2.77-2.5-.66-3.66,2.37-7.15,2.42-2.69.05-3.1-1.74-5.66-1.38a7.35,7.35,0,0,0-5,3.34c-1.25,2-.49,3.3-1.73,4.27-1.4,1.1-2.73-.24-4.85.7a6.59,6.59,0,0,0-3.46,5.07,7.19,7.19,0,0,0,.93,4.58H106c.93-3.36.36-5.22-.35-6.31s-1.46-1.1-2.08-2.3c-1.22-2.4.74-4.24-.34-5.77s-2.82-.22-5.63-1.85"/></g></g></g></svg>