<svg xmlns="http://www.w3.org/2000/svg" width="45.559" height="45.559" viewBox="0 0 45.559 45.559">
  <path id="twitter" d="M42.273,0H3.286A3.286,3.286,0,0,0,0,3.286V42.273a3.286,3.286,0,0,0,3.286,3.286H42.273a3.286,3.286,0,0,0,3.286-3.286V3.286A3.286,3.286,0,0,0,42.273,0ZM33.18,17.761q.015.336.015.676A14.775,14.775,0,0,1,18.319,33.313h0A14.8,14.8,0,0,1,10.3,30.964a10.633,10.633,0,0,0,1.247.072A10.492,10.492,0,0,0,18.046,28.8a5.235,5.235,0,0,1-4.885-3.632,5.209,5.209,0,0,0,2.362-.09,5.23,5.23,0,0,1-4.195-5.125c0-.024,0-.045,0-.067a5.193,5.193,0,0,0,2.368.654,5.233,5.233,0,0,1-1.619-6.98,14.845,14.845,0,0,0,10.777,5.463,5.231,5.231,0,0,1,8.91-4.768,10.489,10.489,0,0,0,3.32-1.269,5.249,5.249,0,0,1-2.3,2.892,10.427,10.427,0,0,0,3-.823A10.626,10.626,0,0,1,33.18,17.761Z" fill="#00b2db"/>
</svg>
