<svg id="Groupe_172" data-name="Groupe 172" xmlns="http://www.w3.org/2000/svg" xmlns:xlink="http://www.w3.org/1999/xlink" width="516.849" height="193.03" viewBox="0 0 516.849 193.03">
  <defs>
    <clipPath id="clip-path">
      <rect id="Rectangle_457" data-name="Rectangle 457" width="516.849" height="193.03" fill="none"/>
    </clipPath>
  </defs>
  <path id="Tracé_1165" data-name="Tracé 1165" d="M252.021,424.821H241.269V404.129h11.707Z" transform="translate(-143.806 -240.877)" fill="#78453a"/>
  <path id="Tracé_1166" data-name="Tracé 1166" d="M246.373,298.551h-15.34l-2.627-92.312h19.4Z" transform="translate(-136.139 -122.927)" fill="#5c5c5c"/>
  <path id="Tracé_1167" data-name="Tracé 1167" d="M289.5,424.821h10.752l-2.15-20.692H286.392Z" transform="translate(-170.701 -240.877)" fill="#78453a"/>
  <path id="Tracé_1168" data-name="Tracé 1168" d="M274.491,298.312h15.487l-4.731-92.073h-19.4Z" transform="translate(-158.455 -122.927)" fill="#5c5c5c"/>
  <g id="Groupe_171" data-name="Groupe 171">
    <g id="Groupe_170" data-name="Groupe 170" clip-path="url(#clip-path)">
      <path id="Tracé_1169" data-name="Tracé 1169" d="M356.672,222.255a6.611,6.611,0,1,1-6.611-6.611,6.611,6.611,0,0,1,6.611,6.611" transform="translate(-204.709 -128.533)" fill="#78453a"/>
      <rect id="Rectangle_439" data-name="Rectangle 439" width="11.527" height="12.85" transform="translate(104.573 34.477)" fill="#693c33"/>
      <path id="Tracé_1170" data-name="Tracé 1170" d="M306.075,114.229l8.262,24.825,12,15.027-3.493,12.912s-12.62-12.417-15.809-17.359l-9.256-20.853Z" transform="translate(-177.49 -68.085)" fill="#029c84"/>
      <path id="Tracé_1171" data-name="Tracé 1171" d="M145.436,167.18a6.611,6.611,0,1,0,6.611-6.611,6.611,6.611,0,0,0-6.611,6.611" transform="translate(-86.686 -95.706)" fill="#78453a"/>
      <path id="Tracé_1172" data-name="Tracé 1172" d="M186.844,115.064l-13.079,24.512-6.923-5.491-3.535,13.428s13.412,8.5,16.6,3.557l15.229-21.455Z" transform="translate(-97.338 -68.583)" fill="#02b196"/>
      <path id="Tracé_1173" data-name="Tracé 1173" d="M228.728,100.914h4.934a6.859,6.859,0,0,0,11.527,0h2.99c7.235,0,12.867,6.637,12.077,14.233l-2.873,27.6,3.23,35.786-24.132,4.535-19.424-3.086,1.457-37.81-1.924-27.889c-.288-7.29,5.23-13.366,12.139-13.366" transform="translate(-129.089 -60.149)" fill="#02b196"/>
      <path id="Tracé_1174" data-name="Tracé 1174" d="M244.915,41.659c.4,2.938,3.338,10.816,10.682,12.351,0,0,3.258,1.105,8.479-5.074,3.271-3.872,3.472-6.943,3.472-6.943a67.533,67.533,0,0,0,0-8.576c-.334-3.271-.534-8.348-9.079-9.283s-11.416,2.871-12.284,4.54-1.669,10.048-1.268,12.985" transform="translate(-145.916 -14.298)" fill="#78453a"/>
      <path id="Tracé_1175" data-name="Tracé 1175" d="M306.835,224.224l-9.4.942L298.8,235.4a5.565,5.565,0,0,0,3.486,4.445l.738.289a5.564,5.564,0,0,0,4.192-.054l1.18-.5Z" transform="translate(-177.283 -133.647)" fill="#029c84"/>
      <path id="Tracé_1176" data-name="Tracé 1176" d="M217.8,224.837l9.439.376-.749,10.294a5.564,5.564,0,0,1-3.213,4.646l-.719.333a5.564,5.564,0,0,1-4.187.2l-1.208-.426Z" transform="translate(-129.436 -134.012)" fill="#029c84"/>
      <path id="Tracé_1177" data-name="Tracé 1177" d="M267.514,36.1c.032-2.286.277-5.646-.746-8.693a9.569,9.569,0,0,0-3.628-4.753c-3.611-1.362-7.583-2.43-11.366-1.577-.456.1-6.041.506-3.636,1.758a9.627,9.627,0,0,0-2.783,4.377c-.982,2.792-1.628,7.247-1.06,8.238,1.447-.8,2.162-6.023,3.326-7.195a15.18,15.18,0,0,1,3.783-3.033,19.5,19.5,0,0,0,4.067,1.826c1.249.4,2.516.732,3.774,1.086a14.9,14.9,0,0,0,2.37.586c.586.069,1.35.134,1.89.246a7.768,7.768,0,0,1,2.369,2.616c.362,1.508.453,3.558.7,5.092.112.7.368,1,.564.911.384-.18.363-.709.373-1.487" transform="translate(-145.483 -12.38)" fill="#3a2c26"/>
      <path id="Tracé_1178" data-name="Tracé 1178" d="M287.553,446.582h-7.412a12.551,12.551,0,0,0-6.457,1.793s-5.35,4.676-6.465,5.988-1.524,1.851-1.107,2.983a2.445,2.445,0,0,0,2.338,1.6l19.147-.425a2.445,2.445,0,0,0,2.4-2.445v-7.048a2.445,2.445,0,0,0-2.445-2.445" transform="translate(-158.518 -266.181)" fill="#333"/>
      <path id="Tracé_1179" data-name="Tracé 1179" d="M226.79,446.582h-7.706a15.281,15.281,0,0,0-7.195,1.793l-11.206,5.988a2.4,2.4,0,0,0-1.151,2.983,2.542,2.542,0,0,0,2.431,1.6l24.873-.425a2.493,2.493,0,0,0,2.5-2.445v-7.048a2.5,2.5,0,0,0-2.542-2.445" transform="translate(-118.835 -266.181)" fill="#333"/>
      <path id="Tracé_1180" data-name="Tracé 1180" d="M415.407,424.308H404.736V403.77h11.619Z" transform="translate(-241.239 -240.663)" fill="#f7a881"/>
      <path id="Tracé_1181" data-name="Tracé 1181" d="M349.824,227.715a6.562,6.562,0,1,1-8.266-4.217,6.562,6.562,0,0,1,8.266,4.217" transform="translate(-200.877 -133.022)" fill="#f7a294"/>
      <path id="Tracé_1182" data-name="Tracé 1182" d="M366.906,111.644l-6.892,21.165c-1.18,4.039-8.342,24.743-8.342,24.743l6.367,6.758,11.855-21.765,3.937-21.88Z" transform="translate(-209.611 -66.544)" fill="#5dbdae"/>
      <path id="Tracé_1183" data-name="Tracé 1183" d="M457.8,445.905h-7.356a12.455,12.455,0,0,0-6.409,1.78s-5.31,4.641-6.417,5.943-1.512,1.838-1.1,2.961a2.427,2.427,0,0,0,2.32,1.588l19-.423a2.427,2.427,0,0,0,2.384-2.426v-6.995a2.427,2.427,0,0,0-2.427-2.427" transform="translate(-260.088 -265.777)" fill="#002d3f"/>
      <path id="Tracé_1184" data-name="Tracé 1184" d="M410.038,303.724H393.627l-1.659-96.361h19.256Z" transform="translate(-233.629 -123.597)" fill="#4d3a32"/>
      <path id="Tracé_1185" data-name="Tracé 1185" d="M452.6,424.308l10.671-1.289-2.133-19.248H449.52Z" transform="translate(-267.932 -240.663)" fill="#f7a881"/>
      <path id="Tracé_1186" data-name="Tracé 1186" d="M405.7,31.4s-3.619,24.176-1.869,26.426,3.5,1.375,5.126.75,1.751.908,4.251.7,2.827-1.515,5-1.454c2.456.069,3.661,1.4,5.319,1.473,1.049.044,2.524-.824,3.934-.582s3.18,1.066,3.335.15c1.161-6.858-.847-21.851-2.113-25.912-1.142-3.661-21.467-8.13-22.984-1.555" transform="translate(-240.414 -16.709)" fill="#ffd602"/>
      <path id="Tracé_1187" data-name="Tracé 1187" d="M391.1,446.712l-7.641-.323a15.164,15.164,0,0,0-7.21,1.477l-11.363,5.468a2.385,2.385,0,0,0-1.266,2.909,2.523,2.523,0,0,0,2.343,1.688l24.682.62a2.474,2.474,0,0,0,2.578-2.32l.3-6.988a2.476,2.476,0,0,0-2.419-2.531" transform="translate(-216.66 -266.058)" fill="#002d3f"/>
      <path id="Tracé_1188" data-name="Tracé 1188" d="M437.472,303.724h19.4l-8.489-96.361H429.128Z" transform="translate(-255.777 -123.597)" fill="#4d3a32"/>
      <rect id="Rectangle_440" data-name="Rectangle 440" width="11.441" height="12.754" transform="translate(170.553 35.297)" fill="#f7a294"/>
      <path id="Tracé_1189" data-name="Tracé 1189" d="M392.289,102.827h4.9a6.807,6.807,0,0,0,11.441,0h2.967c7.181,0,12.771,6.587,11.986,14.126l-2.851,27.39c-1.9,12.829-38.579,10.522-38.579-.57l-1.909-27.679c-.286-7.236,5.19-13.266,12.048-13.266" transform="translate(-226.633 -61.289)" fill="#67d0c0"/>
      <path id="Tracé_1190" data-name="Tracé 1190" d="M408.355,44.015c.4,2.915,3.313,10.734,10.6,12.259,0,0,3.234,1.1,8.415-5.036,3.247-3.843,3.445-6.891,3.445-6.891a66.929,66.929,0,0,0,0-8.512c-.331-3.247-.53-8.286-9.012-9.213s-11.331,2.849-12.192,4.506-1.657,9.973-1.259,12.888" transform="translate(-243.333 -15.782)" fill="#f7b9af"/>
      <path id="Tracé_1191" data-name="Tracé 1191" d="M469.055,116.042,479.71,137.8s3.476,5.819,1.678,10.015c-1.124,2.473-5.285,6.358-8.449,1.451l-12.115-18.781Z" transform="translate(-274.67 -69.166)" fill="#67d0c0"/>
      <rect id="Rectangle_441" data-name="Rectangle 441" width="19.256" height="11.184" transform="translate(158.339 172.46)" fill="#3a2c26"/>
      <rect id="Rectangle_442" data-name="Rectangle 442" width="21.351" height="11.184" transform="translate(181.037 173.64) rotate(-6.169)" fill="#3a2c26"/>
      <path id="Tracé_1192" data-name="Tracé 1192" d="M415.106,27c1.3,4.059,15.779,10.377,17.125,6.707s-1.406-7.916-4.257-9.73c-2.981-1.9-7.418-3.054-10.721-2.305-6.125,1.387-8.206,3.533-8.206,6.35a5.34,5.34,0,0,0,.387,2.966c1.68,3.729,5.67-3.987,5.67-3.987" transform="translate(-243.793 -12.779)" fill="#ffd602"/>
      <path id="Tracé_1193" data-name="Tracé 1193" d="M451.791,163.1l-7.619-9.257a3.072,3.072,0,0,1,.42-4.325l6.48-5.333a9.067,9.067,0,0,1,12.763,1.239c3.182,3.866.971,10.387-2.895,13.569l-6.15,3.674c-1.31,1.079-1.92,1.744-3,.434" transform="translate(-264.327 -84.707)" fill="#cecece"/>
      <rect id="Rectangle_443" data-name="Rectangle 443" width="3.9" height="4.929" transform="matrix(0.772, -0.635, 0.635, 0.772, 187.527, 67.13)" fill="#ae6552"/>
      <path id="Tracé_1194" data-name="Tracé 1194" d="M465.386,149.207c-.946,1.023-2.928,4.443-1.292,7.567,0,0,.572,1.513,4.374,1.562a6.281,6.281,0,0,0,3.557-.814,31.683,31.683,0,0,0,3.113-2.562c1.087-1.1,2.888-2.7.657-6.069-1.97-2.974-4.235-2.319-5.1-2.135s-4.363,1.429-5.309,2.451" transform="translate(-276.246 -87.359)" fill="#e8876d"/>
      <path id="Tracé_1195" data-name="Tracé 1195" d="M422.331,170.937l-3.2,1.681c-2.9-5.621,1.361-11.84,5.427-14.3l5.957-4.018c1.607-.972,4.213-.52,5.822,1.009h0c3.669,3.486,3.674,8.109.01,10.324l-9.937,6.01a3.628,3.628,0,0,1-4.08-.707" transform="translate(-249.25 -91.664)" fill="#ddd"/>
      <path id="Tracé_1196" data-name="Tracé 1196" d="M460.823,159.36c-.071-.294,4.382,1.529,7.38-1.376,3.134-3.037,6.075-5.539,7.072-4.53.724.732,2.4,3.027,2.1,3.982-.23.735-1.307,6.074-5.4,7.18-2.643.713-10.819-3.858-11.154-5.256" transform="translate(-274.669 -91.329)" fill="#cecece"/>
      <path id="Tracé_1197" data-name="Tracé 1197" d="M423.392,177.336l.141.134c4.073,3.87,12.528,1.661,16.594-.8,0,0,2.342,2.249,6.48-1.69,2.736-2.6,1.6-3,0-4.527-3.669-3.487-9.613-4.517-13.277-2.3l-9.937,6.01c-1.126.681-1.125,2.1,0,3.173" transform="translate(-251.854 -99.531)" fill="#f9f9f9"/>
      <path id="Tracé_1198" data-name="Tracé 1198" d="M425.494,184.8a6.562,6.562,0,1,1-8.59-3.511,6.562,6.562,0,0,1,8.59,3.511" transform="translate(-246.093 -107.747)" fill="#f7b9af"/>
      <path id="Tracé_1199" data-name="Tracé 1199" d="M429.469,195.974l23.48-5.962s6.685-1.117,8.719-5.2c1.157-2.458,1.425-8.143-4.363-7.38,0,0-12.282,5.865-22.158,2.924-1.572.685-5.679,15.623-5.679,15.623" transform="translate(-255.981 -105.712)" fill="#67d0c0"/>
      <path id="Tracé_1200" data-name="Tracé 1200" d="M71.146,440.255H63.791V426.1H71.8Z" transform="translate(-38.022 -253.972)" fill="#dd825e"/>
      <path id="Tracé_1201" data-name="Tracé 1201" d="M67.283,353.877H56.789l-1.8-63.148H68.263Z" transform="translate(-32.777 -173.286)" fill="#005a7d"/>
      <path id="Tracé_1202" data-name="Tracé 1202" d="M122.064,434.434l7.137-1.777-4.846-13.381-7.771,1.935Z" transform="translate(-69.489 -249.906)" fill="#dd825e"/>
      <path id="Tracé_1203" data-name="Tracé 1203" d="M91.2,351.059l10.28-2.559L83.123,288.163l-12.878,3.206Z" transform="translate(-41.869 -171.757)" fill="#005a7d"/>
      <path id="Tracé_1204" data-name="Tracé 1204" d="M149.456,177.312a4.523,4.523,0,1,1-3.182,5.548,4.523,4.523,0,0,1,3.182-5.548" transform="translate(-87.091 -105.591)" fill="#dd825e"/>
      <rect id="Rectangle_444" data-name="Rectangle 444" width="7.885" height="8.79" transform="translate(30.633 91.788)" fill="#dd825e"/>
      <path id="Tracé_1205" data-name="Tracé 1205" d="M93.626,217.692l13.11-11.5,8.721-11.845,6,2.1s-3.735,9.681-6.428,12.671l-10.31,11.445Z" transform="translate(-55.805 -115.839)" fill="#ffd602"/>
      <path id="Tracé_1206" data-name="Tracé 1206" d="M5.707,177.312a4.523,4.523,0,1,0,3.182,5.548,4.523,4.523,0,0,0-3.182-5.548" transform="translate(0 -105.591)" fill="#dd825e"/>
      <path id="Tracé_1207" data-name="Tracé 1207" d="M33.825,217.692l-13.11-11.5-8.721-11.845-6,2.1s3.735,9.681,6.428,12.671l10.31,11.445Z" transform="translate(-3.574 -115.839)" fill="#ffd602"/>
      <path id="Tracé_1208" data-name="Tracé 1208" d="M55.213,237.868h3.375a4.692,4.692,0,0,0,7.886,0h2.045c4.95,0,8.8,4.54,8.261,9.736l-1.965,18.879,2.046,15.661a43.7,43.7,0,0,1-16.508,3.1c-9.663,0-13.287-2.111-13.287-2.111l1.16-17.046-1.316-19.077a8.576,8.576,0,0,1,8.3-9.144" transform="translate(-27.955 -141.779)" fill="#ffd602"/>
      <path id="Tracé_1209" data-name="Tracé 1209" d="M61.353,187.4c.344,2.523,2.867,9.288,9.174,10.607,0,0,2.8.949,7.281-4.357,2.809-3.325,2.981-5.962,2.981-5.962a57.946,57.946,0,0,0,0-7.365c-.287-2.81-.459-7.169-7.8-7.972s-9.8,2.465-10.549,3.9-1.434,8.629-1.089,11.151" transform="translate(-36.515 -102.655)" fill="#ed956e"/>
      <path id="Tracé_1210" data-name="Tracé 1210" d="M80.761,180.824c.027-1.963.238-4.849-.64-7.465-.7-2.079-1.368-3.208-3.116-4.082a30.492,30.492,0,0,0-11.533-2.838c-4.581.044-3.245,5.325-3.74,6.753-.843,2.4-1.4,6.223-.91,7.074,1.243-.688,1.857-5.172,2.856-6.179.755-.763,14.807,1.2,15.674,2.858.713,1.84.389,3.056.6,4.373.1.6.316.862.485.783.33-.155.311-.609.32-1.277" transform="translate(-36.143 -99.204)" fill="#3a2c26"/>
      <path id="Tracé_1211" data-name="Tracé 1211" d="M127.479,448.442l4.935-1.161a8.585,8.585,0,0,1,4.58.183s4.3,2.276,5.243,2.975,1.3.994,1.2,1.813a1.674,1.674,0,0,1-1.307,1.431L129.319,456.4a1.673,1.673,0,0,1-1.982-1.252l-1.1-4.693a1.673,1.673,0,0,1,1.245-2.011" transform="translate(-75.214 -266.461)" fill="#e2e2e2"/>
      <path id="Tracé_1212" data-name="Tracé 1212" d="M53.887,455.141H48.615a10.453,10.453,0,0,0-4.922,1.226l-7.666,4.1a1.644,1.644,0,0,0-.787,2.04A1.739,1.739,0,0,0,36.9,463.6l17.015-.291a1.705,1.705,0,0,0,1.708-1.672v-4.821a1.707,1.707,0,0,0-1.739-1.673" transform="translate(-20.941 -271.282)" fill="#e2e2e2"/>
      <path id="Tracé_1213" data-name="Tracé 1213" d="M709.358,111.369a6.773,6.773,0,1,1-6.773-6.773,6.773,6.773,0,0,1,6.773,6.773" transform="translate(-414.733 -62.343)" fill="#f7b9af"/>
      <path id="Tracé_1214" data-name="Tracé 1214" d="M644.193,104.5l11,22.455,5.556-12.389,11.43,3.651-10.059,20.532a8.264,8.264,0,0,1-13.916.04L635.7,119.4Z" transform="translate(-378.901 -62.284)" fill="#005a6e"/>
      <path id="Tracé_1215" data-name="Tracé 1215" d="M487.787,111.369a6.773,6.773,0,1,0,6.773-6.773,6.773,6.773,0,0,0-6.773,6.773" transform="translate(-290.741 -62.343)" fill="#f7b9af"/>
      <path id="Tracé_1216" data-name="Tracé 1216" d="M519.113,104.5l-11,22.455-5.556-12.389-11.43,3.651,10.059,20.532a8.264,8.264,0,0,0,13.916.04l12.5-19.384Z" transform="translate(-292.734 -62.284)" fill="#f38a73"/>
      <path id="Tracé_1217" data-name="Tracé 1217" d="M588.821,422.666H577.807v-21.2H589.8Z" transform="translate(-344.396 -239.292)" fill="#f7a881"/>
      <path id="Tracé_1218" data-name="Tracé 1218" d="M583.28,298.209H566.342l-1.713-99.457H584.5Z" transform="translate(-336.542 -118.464)" fill="#005a6e"/>
      <path id="Tracé_1219" data-name="Tracé 1219" d="M627.211,422.666h11.014l-2.2-21.2H624.03Z" transform="translate(-371.947 -239.292)" fill="#f7a881"/>
      <path id="Tracé_1220" data-name="Tracé 1220" d="M611.873,297.011l19.133-2.065-8.149-96.194H602.983Z" transform="translate(-359.402 -118.464)" fill="#005a6e"/>
      <path id="Tracé_1221" data-name="Tracé 1221" d="M578.36,28.345s-3.355,17.748-1.548,20.071,3.613,1.42,5.291.774,1.807.937,4.388.726,6.779-1.09,9.231-.444,6.655,1.6,7.612.183.485-23.533-2.095-26.02c-2.85-2.748-24.282-7.487-22.879,4.71" transform="translate(-343.485 -12.151)" fill="#ae6552"/>
      <rect id="Rectangle_445" data-name="Rectangle 445" width="11.809" height="13.163" transform="translate(240.694 30.261)" fill="#f7a294"/>
      <path id="Tracé_1222" data-name="Tracé 1222" d="M564.961,90.857h5.054a7.026,7.026,0,0,0,11.809,0h3.062c7.412,0,13.182,6.8,12.372,14.58l-2.943,28.27c-1.961,13.241-39.818,10.86-39.818-.589l-1.971-28.568c-.3-7.468,5.357-13.693,12.435-13.693" transform="translate(-329.321 -54.154)" fill="#f06d50"/>
      <path id="Tracé_1223" data-name="Tracé 1223" d="M585.3,30.157c.357,3.009,2.975,11.079,9.519,12.652,0,0,2.9,1.132,7.556-5.2a14.732,14.732,0,0,0,3.094-7.113,79.421,79.421,0,0,0,0-8.785c-.3-3.351-.476-8.551-8.091-9.509s-10.174,2.941-10.947,4.65-1.487,10.293-1.13,13.3" transform="translate(-348.807 -7.186)" fill="#f7b9af"/>
      <path id="Tracé_1224" data-name="Tracé 1224" d="M584.043,433.29H566.724a1.071,1.071,0,0,1-1.071-1.071v-5.782a1.071,1.071,0,0,1,1.071-1.07h17.319a1.071,1.071,0,0,1,1.071,1.07v5.782a1.071,1.071,0,0,1-1.071,1.071" transform="translate(-337.152 -253.536)" fill="#0086a5"/>
      <path id="Tracé_1225" data-name="Tracé 1225" d="M641.8,428.715,622,430.855a.99.99,0,0,1-1.091-.879l-.626-5.793a.99.99,0,0,1,.879-1.091l19.8-2.141a.99.99,0,0,1,1.091.879l.626,5.793a.991.991,0,0,1-.879,1.091" transform="translate(-369.708 -250.901)" fill="#0086a5"/>
      <path id="Tracé_1226" data-name="Tracé 1226" d="M585.579,14.815c1.367,4.282,16.645,10.946,18.065,7.075s-1.483-8.35-4.49-10.263c-3.145-2-7.824-3.221-11.308-2.432-6.461,1.464-8.526,3.73-8.656,6.7s-3.356,3.741,0,6.452,6.389-7.529,6.389-7.529" transform="translate(-344.314 -5.335)" fill="#ae6552"/>
      <path id="Tracé_1227" data-name="Tracé 1227" d="M607.905,91.48l-3.51,10.7-2.419.5-5.5-10.442-.239-1.136a7.137,7.137,0,0,0,5.744,2.971,6.838,6.838,0,0,0,5.865-3.218Z" transform="translate(-355.38 -54.154)" fill="#fff"/>
      <path id="Tracé_1228" data-name="Tracé 1228" d="M592.708,89.918s-.653,6.116-2,13.245c2.9-2.461,7.974-1.041,7.974-1.041Z" transform="translate(-352.086 -53.595)" fill="#f38a73"/>
      <path id="Tracé_1229" data-name="Tracé 1229" d="M616.412,90.367s.7,6.5,2.051,13.634c-2.9-2.461-8.015-1.613-8.015-1.613Z" transform="translate(-363.852 -53.862)" fill="#f38a73"/>
      <path id="Tracé_1230" data-name="Tracé 1230" d="M605.126,160.12s-.426-4.279,2.134-39.994" transform="translate(-360.664 -71.6)" fill="none" stroke="#fff" stroke-width="1.14"/>
      <path id="Tracé_1231" data-name="Tracé 1231" d="M625.111,444.958h-7.592a12.858,12.858,0,0,0-6.615,1.837s-5.481,4.79-6.623,6.134-1.561,1.9-1.134,3.056a2.505,2.505,0,0,0,2.4,1.638l19.613-.436a2.5,2.5,0,0,0,2.46-2.5v-7.22a2.5,2.5,0,0,0-2.5-2.5" transform="translate(-359.402 -265.213)" fill="#002d3f"/>
      <path id="Tracé_1232" data-name="Tracé 1232" d="M561.347,445.791l-7.887-.333a15.653,15.653,0,0,0-7.441,1.525l-11.728,5.644a2.463,2.463,0,0,0-1.307,3,2.6,2.6,0,0,0,2.419,1.742l25.475.64a2.554,2.554,0,0,0,2.661-2.394l.3-7.214a2.556,2.556,0,0,0-2.5-2.612" transform="translate(-317.605 -265.502)" fill="#002d3f"/>
      <path id="Tracé_1233" data-name="Tracé 1233" d="M1138.126,207.223a6.773,6.773,0,1,1-6.773-6.773,6.773,6.773,0,0,1,6.773,6.773" transform="translate(-670.296 -119.476)" fill="#78453a"/>
      <path id="Tracé_1234" data-name="Tracé 1234" d="M1164.327,416.809h-11.014v-21.2h11.993Z" transform="translate(-687.421 -235.8)" fill="#78453a"/>
      <path id="Tracé_1235" data-name="Tracé 1235" d="M1117.184,94.448l-11.31,16.607a12.966,12.966,0,0,0-1.291,12.189l7.636,18.746,11.532-9.7-7.618-15.874,8.179-8.9Z" transform="translate(-657.805 -56.295)" fill="#005a6e"/>
      <path id="Tracé_1236" data-name="Tracé 1236" d="M1207.431,207.223a6.773,6.773,0,1,0,6.773-6.773,6.773,6.773,0,0,0-6.773,6.773" transform="translate(-719.678 -119.476)" fill="#78453a"/>
      <path id="Tracé_1237" data-name="Tracé 1237" d="M1217.833,94.448l11.31,16.607a12.966,12.966,0,0,1,1.291,12.189l-7.636,18.746-11.532-9.7,7.617-15.874-8.179-8.9Z" transform="translate(-721.628 -56.295)" fill="#005a6e"/>
      <path id="Tracé_1238" data-name="Tracé 1238" d="M1146.372,439.1h-7.592a12.858,12.858,0,0,0-6.615,1.837s-5.481,4.79-6.623,6.134-1.561,1.9-1.134,3.056a2.505,2.505,0,0,0,2.4,1.638l19.613-.436a2.5,2.5,0,0,0,2.461-2.5V441.6a2.5,2.5,0,0,0-2.505-2.5" transform="translate(-670.095 -261.721)" fill="#333"/>
      <path id="Tracé_1239" data-name="Tracé 1239" d="M1158.541,287.458h-15.715l-2.691-94.564h19.874Z" transform="translate(-679.567 -114.972)" fill="#4d3a32"/>
      <path id="Tracé_1240" data-name="Tracé 1240" d="M1202.717,416.809h11.014l-2.2-21.2h-11.993Z" transform="translate(-714.972 -235.8)" fill="#78453a"/>
      <path id="Tracé_1241" data-name="Tracé 1241" d="M1206.093,439.1h7.894a15.652,15.652,0,0,1,7.37,1.837l11.48,6.134a2.462,2.462,0,0,1,1.179,3.056,2.6,2.6,0,0,1-2.49,1.638l-25.479-.436a2.554,2.554,0,0,1-2.558-2.5v-7.22a2.556,2.556,0,0,1,2.6-2.5" transform="translate(-717.328 -261.722)" fill="#333"/>
      <path id="Tracé_1242" data-name="Tracé 1242" d="M1187.345,287.213h15.864l-4.846-94.319h-19.874Z" transform="translate(-702.427 -114.973)" fill="#4d3a32"/>
      <rect id="Rectangle_446" data-name="Rectangle 446" width="11.809" height="13.163" transform="translate(473.175 27.895)" fill="#693c33"/>
      <path id="Tracé_1243" data-name="Tracé 1243" d="M1173.126,164.5l-24.716,4.652-19.9-3.169,1.492-38.728-1.971-28.566c-.3-7.471,5.352-13.7,12.436-13.7h5.048a5.968,5.968,0,0,0,.672.912,7.057,7.057,0,0,0,10.88-.526,4.3,4.3,0,0,0,.258-.387h3.068c7.406,0,13.182,6.8,12.372,14.583l-2.948,28.272Z" transform="translate(-672.347 -50.659)" fill="#0086a5"/>
      <path id="Tracé_1244" data-name="Tracé 1244" d="M1157.048,24.3c.41,3.009,3.419,11.079,10.942,12.652,0,0,3.338,1.132,8.686-5.2,3.351-3.967,3.556-7.113,3.556-7.113a69.185,69.185,0,0,0,0-8.785c-.342-3.351-.547-8.551-9.3-9.509s-11.695,2.941-12.584,4.65-1.71,10.293-1.3,13.3" transform="translate(-689.582 -3.694)" fill="#78453a"/>
      <path id="Tracé_1245" data-name="Tracé 1245" d="M1180.278,46.8c0,5.547-5.135,14.116-11.732,14.116s-12.158-8.57-12.158-14.116c0-4.319,1.689,1.018,6.3,3.7,1.31.762.478-1.936,5.863-1.936,4.683,0,4.444,3.005,5.691,2.278,4.55-2.654,6.041-8.393,6.041-4.039" transform="translate(-689.254 -26.926)" fill="#3a2c26"/>
      <path id="Tracé_1246" data-name="Tracé 1246" d="M1185.343,64.282c0,1.127-1.077,2.885-2.4,2.885s-2.4-1.758-2.4-2.885,1.077-1.2,2.4-1.2,2.4.07,2.4,1.2" transform="translate(-703.645 -37.601)" fill="#78453a"/>
      <path id="Tracé_1247" data-name="Tracé 1247" d="M1220.478,211.318l-9.629.965,1.4,10.48a5.7,5.7,0,0,0,3.571,4.553l.756.3a5.7,5.7,0,0,0,4.294-.055l1.209-.51Z" transform="translate(-721.715 -125.954)" fill="#005a6e"/>
      <path id="Tracé_1248" data-name="Tracé 1248" d="M1130.049,211.831l9.665.487-.877,10.536a5.7,5.7,0,0,1-3.341,4.725l-.74.333a5.7,5.7,0,0,1-4.292.158l-1.233-.449Z" transform="translate(-673.067 -126.26)" fill="#005a6e"/>
      <path id="Tracé_1249" data-name="Tracé 1249" d="M1183.767,85.928l-3.51,7.655-2.419.361-5.5-7.473.267-.009a7.056,7.056,0,0,0,10.879-.526Z" transform="translate(-698.759 -51.217)" fill="#fff"/>
      <path id="Tracé_1250" data-name="Tracé 1250" d="M1169.154,84.152a44.324,44.324,0,0,1-1.365,9.888c2.9-1.762,7.34-1.154,7.34-1.154Z" transform="translate(-696.049 -50.158)" fill="#005a6e"/>
      <path id="Tracé_1251" data-name="Tracé 1251" d="M1191.923,84.474a50.077,50.077,0,0,0,1.515,9.758c-2.9-1.762-7.48-1.154-7.48-1.154Z" transform="translate(-706.879 -50.35)" fill="#005a6e"/>
      <path id="Tracé_1252" data-name="Tracé 1252" d="M1178.492,181.54s.456-40.053,3.016-75.768" transform="translate(-702.429 -63.044)" fill="none" stroke="#005a6e" stroke-width="1.14"/>
      <path id="Tracé_1253" data-name="Tracé 1253" d="M1198.206,141.021l3.933-.251a4.764,4.764,0,0,0,4.461-4.754v-9.608l-13.461.616v9.243a4.764,4.764,0,0,0,5.067,4.754" transform="translate(-711.159 -75.344)" fill="#005a6e"/>
      <path id="Tracé_1254" data-name="Tracé 1254" d="M833.819,201.2a6.773,6.773,0,1,1-6.773-6.773,6.773,6.773,0,0,1,6.773,6.773" transform="translate(-488.916 -115.889)" fill="#f7a881"/>
      <path id="Tracé_1255" data-name="Tracé 1255" d="M815.7,86.2,800.037,103.5c-2.445,3.59-1.988,8.38-.35,12.4l7.636,18.746,11.533-9.7-9.982-14.52,10.544-10.258Z" transform="translate(-475.837 -51.38)" fill="#40355c"/>
      <path id="Tracé_1256" data-name="Tracé 1256" d="M911.756,198.174a6.773,6.773,0,1,0,6.773-6.773,6.773,6.773,0,0,0-6.773,6.773" transform="translate(-543.443 -114.083)" fill="#f7a881"/>
      <path id="Tracé_1257" data-name="Tracé 1257" d="M926.374,89.267l13.6,17.57a12.963,12.963,0,0,1,1.291,12.189l-7.636,18.746-11.532-9.7,7.617-15.874-8.18-8.9Z" transform="translate(-549.273 -53.207)" fill="#40355c"/>
      <path id="Tracé_1258" data-name="Tracé 1258" d="M856.247,418.152H845.962V397.826h11.2Z" transform="translate(-504.227 -237.12)" fill="#f7a881"/>
      <path id="Tracé_1259" data-name="Tracé 1259" d="M832.074,439.526h-7.09a13.356,13.356,0,0,0-6.62,1.761l-10.311,5.882a2.432,2.432,0,0,0-1.059,2.93c.344.959,1.242,1.59,3.362,2.7l22.886-.418c.149-1.149,1.171-2.217,1.171-3.527v-6.923a2.371,2.371,0,0,0-2.339-2.4" transform="translate(-480.914 -261.975)" fill="#333"/>
      <path id="Tracé_1260" data-name="Tracé 1260" d="M850.844,295.539H835.027l-1.371-92.094h18.56Z" transform="translate(-496.892 -121.261)" fill="#4d3a32"/>
      <path id="Tracé_1261" data-name="Tracé 1261" d="M902.512,418.152H912.8l-2.056-20.326h-11.2Z" transform="translate(-536.163 -237.12)" fill="#f7a881"/>
      <path id="Tracé_1262" data-name="Tracé 1262" d="M884.219,296.8h15.817l-5.494-93.358H875.983Z" transform="translate(-522.121 -121.261)" fill="#4d3a32"/>
      <rect id="Rectangle_447" data-name="Rectangle 447" width="11.027" height="12.622" transform="translate(351.255 26.291)" fill="#eba07b"/>
      <path id="Tracé_1263" data-name="Tracé 1263" d="M833.656,195.538l36.385-.37L865.5,215.2l-23.637,1.708Z" transform="translate(-496.893 -116.328)" fill="#4d3a32"/>
      <path id="Tracé_1264" data-name="Tracé 1264" d="M854.776,22.17c.361,2.885,3.009,10.624,9.63,12.133,0,0,2.938,1.085,7.644-4.984,2.949-3.8,3.129-6.82,3.129-6.82a72.231,72.231,0,0,0,0-8.424c-.3-3.213-.482-8.2-8.185-9.118S856.7,7.775,855.919,9.415s-1.5,9.87-1.144,12.755" transform="translate(-509.424 -2.868)" fill="#f7a881"/>
      <path id="Tracé_1265" data-name="Tracé 1265" d="M894.3,436.828l-7.057.689a13.353,13.353,0,0,0-6.417,2.4l-9.691,6.856a2.432,2.432,0,0,0-.769,3.019c.436.921,1.39,1.461,3.5,2.472l22.736-2.64c.141-1.273,1.055-2.435.927-3.739l-.673-6.89a2.371,2.371,0,0,0-2.562-2.163" transform="translate(-518.634 -260.361)" fill="#333"/>
      <path id="Tracé_1266" data-name="Tracé 1266" d="M838.106,80.859l5.21-.524a6.664,6.664,0,0,0,11.027,0h2.86c11.491-.48,15.194,5.457,14.438,12.522l-1.922,41.853c-.377,4.163.945,4.456-3.706,4.251-3.352-.147-13.928.7-17.272.983l-16.006.655c-6.23,0-6.925.275-7.186-6.116l1.355-38.961c-.276-6.78,1.879-14.164,11.2-14.664" transform="translate(-492.061 -47.867)" fill="#4a3f65"/>
      <path id="Tracé_1267" data-name="Tracé 1267" d="M870.319,60.958c-6.6,0-8.418-7.594-5.863-10.419,1.017-1.124.478-1.936,5.863-1.936,4.683,0,4.629,1.3,5.691,2.278,2.152,1.983.906,10.077-5.691,10.077" transform="translate(-514.589 -28.969)" fill="#3a2c26"/>
      <path id="Tracé_1268" data-name="Tracé 1268" d="M879.074,58.154c0,1.127-1.077,2.885-2.4,2.885s-2.4-1.758-2.4-2.885,1.077-1.2,2.4-1.2,2.4.07,2.4,1.2" transform="translate(-521.097 -33.949)" fill="#f7a881"/>
      <path id="Tracé_1269" data-name="Tracé 1269" d="M717.794,26.746a34.7,34.7,0,0,0-3.33,9.815c-.3,1.729-1.054,9.854-.243,11.859.431,1.064,2.295-4.452,2.923-5.029,2.082-1.914,3.646-4.846,3.85-10.569.063-1.776.608-4.688-1.1-5.725a3.206,3.206,0,0,0-2.1-.35" transform="translate(-425.488 -15.917)" fill="#ffd602"/>
      <path id="Tracé_1270" data-name="Tracé 1270" d="M676.262,26.746a34.71,34.71,0,0,1,3.33,9.815c.3,1.729,1.993,9.755,1.182,11.76-.431,1.064-3.233-4.353-3.861-4.93-2.082-1.914-3.646-4.846-3.85-10.569-.063-1.776-.608-4.688,1.1-5.725a3.206,3.206,0,0,1,2.1-.35" transform="translate(-401.093 -15.917)" fill="#ffd602"/>
      <path id="Tracé_1271" data-name="Tracé 1271" d="M677.483,420.948H667.2V400.623h11.2Z" transform="translate(-397.677 -238.787)" fill="#f7a881"/>
      <path id="Tracé_1272" data-name="Tracé 1272" d="M653.31,442.323h-7.09a13.356,13.356,0,0,0-6.62,1.761l-10.311,5.882a2.431,2.431,0,0,0-1.059,2.93c.344.959,1.241,1.59,3.362,2.7l22.886-.418c.149-1.149,1.172-2.217,1.172-3.527v-6.923a2.371,2.371,0,0,0-2.339-2.4" transform="translate(-374.364 -263.642)" fill="#333"/>
      <path id="Tracé_1273" data-name="Tracé 1273" d="M672.081,298.336H656.263l-1.371-92.094h18.56Z" transform="translate(-390.342 -122.928)" fill="#004d40"/>
      <path id="Tracé_1274" data-name="Tracé 1274" d="M723.748,420.948h10.285l-2.056-20.326h-11.2Z" transform="translate(-429.613 -238.787)" fill="#f7a881"/>
      <path id="Tracé_1275" data-name="Tracé 1275" d="M705.455,299.6h15.817l-5.494-93.358H697.219Z" transform="translate(-415.571 -122.928)" fill="#004d40"/>
      <rect id="Rectangle_448" data-name="Rectangle 448" width="11.027" height="12.622" transform="translate(279.042 27.421)" fill="#eba07b"/>
      <path id="Tracé_1276" data-name="Tracé 1276" d="M654.892,198.335l36.385-.37-4.537,20.03L663.1,219.7Z" transform="translate(-390.342 -117.995)" fill="#004d40"/>
      <path id="Tracé_1277" data-name="Tracé 1277" d="M631.628,234.466a5.466,5.466,0,1,0,5.464-5.611,5.539,5.539,0,0,0-5.464,5.611" transform="translate(-376.476 -136.407)" fill="#f7a881"/>
      <path id="Tracé_1278" data-name="Tracé 1278" d="M645.141,85.506c-2.58,1.585-4.95,4.09-5.677,7.03-1.638,6.619-5.387,21.935-6.065,26.176-.939,5.871-3.273,27.1-3.045,27.8s10.938-2.336,10.938-2.336,2.572-20.641,2.572-21.809,3.428-24.486,3.769-25.421,7.39-13.117,3.18-12.8a13.2,13.2,0,0,0-5.672,1.363" transform="translate(-375.707 -50.149)" fill="#468e83"/>
      <path id="Tracé_1279" data-name="Tracé 1279" d="M676.674,24.966c.352,2.885,2.931,10.624,9.379,12.132,0,0,2.861,1.085,7.445-4.984a13.914,13.914,0,0,0,3.048-6.82,74.231,74.231,0,0,0,0-8.424c-.293-3.213-.469-8.2-7.972-9.118s-10.024,2.82-10.786,4.459-1.466,9.87-1.114,12.755" transform="translate(-403.27 -4.535)" fill="#f7a881"/>
      <path id="Tracé_1280" data-name="Tracé 1280" d="M715.539,439.625l-7.057.689a13.354,13.354,0,0,0-6.417,2.4l-9.691,6.856a2.432,2.432,0,0,0-.769,3.019c.436.921,1.39,1.461,3.5,2.472l22.736-2.64c.141-1.273,1.055-2.435.927-3.739l-.673-6.89a2.371,2.371,0,0,0-2.562-2.163" transform="translate(-412.084 -262.028)" fill="#333"/>
      <path id="Tracé_1281" data-name="Tracé 1281" d="M664.629,83.7l5.21-.524a6.664,6.664,0,0,0,11.027,0h2.86a11.821,11.821,0,0,1,11.553,13.237l-3.694,34.5c-.378,4.163-1.3,4.412-5.953,4.207a78.579,78.579,0,0,0-10.06.209l-12.149,1.03c-6.23,0-7.508-.408-7.768-6.8l3.661-32.289c-.276-6.78,3.625-13.393,5.313-13.573" transform="translate(-390.797 -49.574)" fill="#67d0c0"/>
      <path id="Tracé_1282" data-name="Tracé 1282" d="M746.153,232.423a5.466,5.466,0,1,1-5.464-5.611,5.539,5.539,0,0,1,5.464,5.611" transform="translate(-438.224 -135.189)" fill="#f7a881"/>
      <path id="Tracé_1283" data-name="Tracé 1283" d="M732.614,85.22a13.05,13.05,0,0,1,5.852,8.325c1.636,6.6,4.781,19.475,5.421,23.474.939,5.871-2.806,28.224-3.033,28.925s-10.938-2.336-10.938-2.336,2.621-21.77,2.621-22.938,1.108-18.9-.642-24.3a60.858,60.858,0,0,0-5.568-13.052c2.575-.524,4.263.679,6.288,1.9" transform="translate(-432.92 -49.585)" fill="#468e83"/>
      <rect id="Rectangle_449" data-name="Rectangle 449" width="5.816" height="19.311" transform="matrix(0.048, -0.999, 0.999, 0.048, 263.174, 179.112)" fill="#003a30"/>
      <rect id="Rectangle_450" data-name="Rectangle 450" width="19.311" height="5.816" transform="translate(288.137 173.763)" fill="#003a30"/>
      <path id="Tracé_1284" data-name="Tracé 1284" d="M674.416,178.9a1.657,1.657,0,0,1,1.673-.583,20.16,20.16,0,0,0,5.223.488c4.67-.182,7.394-1.964,8.712-.631,1.048,1.06-.243,2.623.973,4.839,1.142,2.08,3.127,2.248,3.065,3.091-.089,1.2-4.221,2.079-8.835,2.373-5.464.348-16.122.168-16.648-2.729-.131-.723.328-1.845,3-3.579a3.7,3.7,0,0,0,.9-.808Z" transform="translate(-398.488 -105.907)" fill="#4d9c90"/>
      <path id="Tracé_1285" data-name="Tracé 1285" d="M678.091,7.312c.4.438-1.136,2.488-2.278,3.68-.771.805-3.056,3.19-4.206,2.629-1.277-.623-1.333-4.959.7-7.887,2.534-3.648,7.486-3.915,9.639-4.031,2.38-.128,8.164-.44,11.392,3.68,2.99,3.817,2.723,10.083.526,11.217-1.406.726-2.693-1.119-7.536-3.33-6.643-3.033-11.366-2.825-11.392-4.206-.02-1.058,2.732-2.216,3.155-1.752" transform="translate(-399.766 -0.978)" fill="#ffd602"/>
      <path id="Tracé_1286" data-name="Tracé 1286" d="M940.19,9.079c1.239.321-1.088-2.189,4.725-.117,3.606,1.285,6.141-1.04,7.33,6.556.426,2.722-.589,3.118-.789,7.1-.156,3.1-.249,4.954.614,7.1,1.09,2.712,2.615,3.158,2.453,4.469-.069.559-.6,2.564-8.325,4.119-5.619,1.131-18.33,3.69-21.294-1.49-1.394-2.436-.513-3.566.292-13.524.367-4.538,12.65-13.792,14.993-14.209" transform="translate(-550.844 -4.849)" fill="#1d1613"/>
      <path id="Tracé_1287" data-name="Tracé 1287" d="M934.939,420.948H924.654V400.623h11.2Z" transform="translate(-551.131 -238.787)" fill="#f7a881"/>
      <path id="Tracé_1288" data-name="Tracé 1288" d="M910.766,442.323h-7.09a13.357,13.357,0,0,0-6.62,1.761l-10.311,5.882a2.432,2.432,0,0,0-1.059,2.93c.344.959,1.242,1.59,3.362,2.7l22.886-.418c.149-1.149,1.172-2.217,1.172-3.527v-6.923a2.371,2.371,0,0,0-2.339-2.4" transform="translate(-527.818 -263.642)" fill="#333"/>
      <path id="Tracé_1289" data-name="Tracé 1289" d="M929.536,298.336H913.719l-1.371-92.094h18.56Z" transform="translate(-543.796 -122.928)" fill="#004d40"/>
      <path id="Tracé_1290" data-name="Tracé 1290" d="M981.2,420.948h10.285l-2.056-20.326h-11.2Z" transform="translate(-583.067 -238.787)" fill="#f7a881"/>
      <path id="Tracé_1291" data-name="Tracé 1291" d="M962.911,299.6h15.817l-5.494-93.358H954.675Z" transform="translate(-569.025 -122.928)" fill="#004d40"/>
      <path id="Tracé_1292" data-name="Tracé 1292" d="M959.015,82.283H947.988l.095-14.4H959.11Z" transform="translate(-565.039 -40.459)" fill="#5a3932"/>
      <path id="Tracé_1293" data-name="Tracé 1293" d="M912.348,198.335l36.385-.37-4.537,20.03L920.559,219.7Z" transform="translate(-543.796 -117.995)" fill="#004d40"/>
      <path id="Tracé_1294" data-name="Tracé 1294" d="M889.084,234.466a5.466,5.466,0,1,0,5.464-5.611,5.539,5.539,0,0,0-5.464,5.611" transform="translate(-529.93 -136.407)" fill="#5a3932"/>
      <path id="Tracé_1295" data-name="Tracé 1295" d="M902.6,85.506c-2.58,1.585-4.95,4.09-5.677,7.03-1.638,6.619-5.387,21.935-6.065,26.176-.939,5.871-3.273,27.1-3.045,27.8s10.938-2.336,10.938-2.336,2.572-20.641,2.572-21.809,3.428-24.486,3.77-25.421,7.39-13.117,3.18-12.8a13.2,13.2,0,0,0-5.672,1.363" transform="translate(-529.161 -50.149)" fill="#468e83"/>
      <path id="Tracé_1296" data-name="Tracé 1296" d="M932.113,24.966c.381,2.885,3.169,10.624,10.142,12.132,0,0,3.094,1.085,8.05-4.984,3.106-3.8,3.3-6.82,3.3-6.82a68.582,68.582,0,0,0,0-8.424c-.317-3.213-.507-8.2-8.621-9.118s-10.84,2.82-11.663,4.459-1.585,9.87-1.2,12.755" transform="translate(-555.517 -4.535)" fill="#78453a"/>
      <path id="Tracé_1297" data-name="Tracé 1297" d="M972.995,439.625l-7.057.689a13.354,13.354,0,0,0-6.417,2.4l-9.691,6.856a2.432,2.432,0,0,0-.769,3.019c.436.921,1.39,1.461,3.5,2.472l22.736-2.64c.142-1.273,1.055-2.435.928-3.739l-.673-6.89a2.371,2.371,0,0,0-2.562-2.163" transform="translate(-565.538 -262.028)" fill="#333"/>
      <path id="Tracé_1298" data-name="Tracé 1298" d="M919.379,83.7l5.21-.524s2.606,6.736,5.514,6.736c1.315,0,5.514-6.736,5.514-6.736h2.86a11.821,11.821,0,0,1,11.553,13.237l-3.694,34.5c-.378,4.163,3.765,35.234,1.474,35.935-3.209.982-20.69.242-24.033.526l-12.149,1.03c-6.23,0-.962-32.453-1.222-38.844l3.661-32.289c-.276-6.78,3.625-13.393,5.312-13.573" transform="translate(-541.545 -49.574)" fill="#67d0c0"/>
      <path id="Tracé_1299" data-name="Tracé 1299" d="M1003.609,232.423a5.466,5.466,0,1,1-5.464-5.611,5.539,5.539,0,0,1,5.464,5.611" transform="translate(-591.678 -135.189)" fill="#5a3932"/>
      <path id="Tracé_1300" data-name="Tracé 1300" d="M990.07,85.22a13.05,13.05,0,0,1,5.852,8.325c1.636,6.6,4.781,19.475,5.421,23.474.939,5.871-2.806,28.224-3.033,28.925s-10.938-2.336-10.938-2.336,2.621-21.77,2.621-22.938,1.108-18.9-.642-24.3a60.855,60.855,0,0,0-5.568-13.052c2.575-.524,4.263.679,6.288,1.9" transform="translate(-586.374 -49.585)" fill="#468e83"/>
      <rect id="Rectangle_451" data-name="Rectangle 451" width="5.816" height="19.311" transform="matrix(0.048, -0.999, 0.999, 0.048, 367.176, 179.112)" fill="#003a30"/>
      <rect id="Rectangle_452" data-name="Rectangle 452" width="19.311" height="5.816" transform="translate(392.139 173.763)" fill="#003a30"/>
      <path id="Tracé_1301" data-name="Tracé 1301" d="M958.994,99.819s-1.542,18.349-1.627,29.6.367,47.815.367,47.815" transform="translate(-570.623 -59.496)" fill="none" stroke="#e1f6f2" stroke-width="2.193"/>
      <path id="Tracé_1302" data-name="Tracé 1302" d="M953.447,7.583c-1.457,1.218.285,3.684-3.008,4.215-4.688.755-11.332-3.765-15.111-2.466-2.836.974-.047,1.164-4.431,4.013-2.411,1.567-3.153,3.963-4.674,4.512.671-2.728-1.367-10.034,5.427-14.637A15.471,15.471,0,0,1,940.558,0c5.719-.005,9.88,3.786,10.611,4.452a30.944,30.944,0,0,1,2.278,3.131" transform="translate(-552.067 0)" fill="#1d1613"/>
      <path id="Tracé_1303" data-name="Tracé 1303" d="M766.889,5.339a7.285,7.285,0,0,1,3.768,2.191c2.065,2.392.85,4.824,2.1,10.866.789,3.807,1.47,3.8,1.577,6.485.111,2.753-.589,3.118-.789,7.1-.156,3.1-.249,4.954.613,7.1,1.091,2.712,2.615,3.158,2.454,4.469-.069.559-.6,2.564-8.325,4.119-5.619,1.131-18.33,3.69-21.294-1.49-1.394-2.436-.513-3.566.292-13.524.367-4.538,1.307-5.061,1.811-8.033.473-2.788,1.315-7.752,4.907-12.093a21.732,21.732,0,0,1,12.881-7.186" transform="translate(-444.804 -3.182)" fill="#5d3f31"/>
      <path id="Tracé_1304" data-name="Tracé 1304" d="M753.462,420.948H743.176V400.623h11.2Z" transform="translate(-442.963 -238.787)" fill="#f7a881"/>
      <path id="Tracé_1305" data-name="Tracé 1305" d="M729.289,442.323H722.2a13.356,13.356,0,0,0-6.62,1.761l-10.311,5.882a2.432,2.432,0,0,0-1.059,2.93h0c.344.959,1.241,1.59,3.362,2.7l22.886-.418c.149-1.149,1.172-2.217,1.172-3.527v-6.923a2.371,2.371,0,0,0-2.339-2.4" transform="translate(-419.65 -263.642)" fill="#333"/>
      <path id="Tracé_1306" data-name="Tracé 1306" d="M750.082,296.724H734.264l1.14-93.187,16.048,1.092Z" transform="translate(-437.651 -121.317)" fill="#4d3a32"/>
      <path id="Tracé_1307" data-name="Tracé 1307" d="M799.726,420.948h10.285l-2.056-20.326h-11.2Z" transform="translate(-474.899 -238.787)" fill="#f7a881"/>
      <path id="Tracé_1308" data-name="Tracé 1308" d="M781.433,299.6H797.25l-5.494-93.358H773.2Z" transform="translate(-460.857 -122.928)" fill="#4d3a32"/>
      <rect id="Rectangle_453" data-name="Rectangle 453" width="11.027" height="21.062" transform="translate(309.734 27.421)" fill="#eba07b"/>
      <path id="Tracé_1309" data-name="Tracé 1309" d="M730.87,198.335l36.385-.37-4.537,20.03L739.081,219.7Z" transform="translate(-435.628 -117.995)" fill="#4d3a32"/>
      <path id="Tracé_1310" data-name="Tracé 1310" d="M707.606,234.466a5.466,5.466,0,1,0,5.464-5.611,5.539,5.539,0,0,0-5.464,5.611" transform="translate(-421.762 -136.407)" fill="#f7a881"/>
      <path id="Tracé_1311" data-name="Tracé 1311" d="M721.119,85.506c-2.58,1.585-4.95,4.09-5.677,7.03-1.638,6.619-5.387,21.935-6.065,26.176-.939,5.871-3.273,27.1-3.045,27.8s10.938-2.336,10.938-2.336,2.572-20.641,2.572-21.809,3.428-24.486,3.769-25.421,7.39-13.117,3.18-12.8a13.2,13.2,0,0,0-5.672,1.363" transform="translate(-420.993 -50.149)" fill="#f06d50"/>
      <path id="Tracé_1312" data-name="Tracé 1312" d="M751.434,24.966c.369,2.885,3.075,10.624,9.84,12.132,0,0,3,1.085,7.811-4.984,3.013-3.8,3.2-6.82,3.2-6.82a70.715,70.715,0,0,0,0-8.424c-.308-3.213-.492-8.2-8.364-9.118S753.4,10.572,752.6,12.211s-1.538,9.87-1.169,12.755" transform="translate(-447.826 -4.535)" fill="#f7a881"/>
      <path id="Tracé_1313" data-name="Tracé 1313" d="M791.517,439.625l-7.057.689a13.353,13.353,0,0,0-6.417,2.4l-9.691,6.856a2.432,2.432,0,0,0-.769,3.019c.436.921,1.39,1.461,3.5,2.472l22.736-2.64c.141-1.273,1.055-2.435.927-3.739l-.673-6.89a2.371,2.371,0,0,0-2.562-2.163" transform="translate(-457.37 -262.028)" fill="#333"/>
      <path id="Tracé_1314" data-name="Tracé 1314" d="M741.539,83.7l5.21-.524,5.514,12.255,5.514-12.255h2.86a11.821,11.821,0,0,1,11.553,13.237l-3.694,34.5c-.378,4.163-1.3,4.412-5.954,4.207a78.579,78.579,0,0,0-10.06.209l-16.6,1.03c-6.23,0,.349-39.088.349-39.088-.276-6.78,3.625-13.393,5.312-13.573" transform="translate(-437.014 -49.574)" fill="#f38a73"/>
      <path id="Tracé_1315" data-name="Tracé 1315" d="M822.131,232.423a5.466,5.466,0,1,1-5.464-5.611,5.539,5.539,0,0,1,5.464,5.611" transform="translate(-483.51 -135.189)" fill="#f7a881"/>
      <path id="Tracé_1316" data-name="Tracé 1316" d="M808.592,85.22a13.05,13.05,0,0,1,5.852,8.325c1.636,6.6,4.781,19.475,5.421,23.474.939,5.871-2.806,28.224-3.033,28.925s-10.938-2.336-10.938-2.336,2.621-21.77,2.621-22.938,1.108-18.9-.642-24.3A60.858,60.858,0,0,0,802.3,83.317c2.575-.524,4.263.679,6.288,1.9" transform="translate(-478.206 -49.585)" fill="#f06d50"/>
      <path id="Tracé_1317" data-name="Tracé 1317" d="M768.524,4.7c-.617,1.8,2.149,3.005-.394,5.163-3.622,3.071-11.646,2.638-14.208,5.7-1.923,2.3-1.051,3.707-3.33,8.412a29.867,29.867,0,0,1-3.681,5.783c-.837-2.681-2.733-10.072.7-17.526a15.474,15.474,0,0,1,5.959-7.361C758.463,1.91,763.985,3,764.955,3.195a31.022,31.022,0,0,1,3.569,1.5" transform="translate(-444.426 -1.693)" fill="#5d3f31"/>
      <path id="Tracé_1318" data-name="Tracé 1318" d="M778.014,117.635s-2.6,34.526-1.2,37.155" transform="translate(-462.767 -70.115)" fill="none" stroke="#f06d50" stroke-width="2.193"/>
      <path id="Tracé_1319" data-name="Tracé 1319" d="M1060.6,5.339a7.285,7.285,0,0,1,3.768,2.191c2.065,2.392.85,4.824,2.1,10.866.789,3.807,1.47,3.8,1.577,6.485.111,2.753-.589,3.118-.788,7.1-.156,3.1-.249,4.954.613,7.1,1.091,2.712,2.615,3.158,2.454,4.469-.069.559-.6,2.564-8.325,4.119-5.619,1.131-18.33,3.69-21.294-1.49-1.394-2.436-.513-3.566.292-13.524.367-4.538,1.307-5.061,1.811-8.033.473-2.788,1.314-7.752,4.907-12.093A21.732,21.732,0,0,1,1060.6,5.339" transform="translate(-619.868 -3.182)" fill="#3a2c26"/>
      <path id="Tracé_1320" data-name="Tracé 1320" d="M1050.31,420.948h-10.285V400.623h11.2Z" transform="translate(-619.896 -238.787)" fill="#f7a881"/>
      <path id="Tracé_1321" data-name="Tracé 1321" d="M1026.136,442.323h-7.09a13.356,13.356,0,0,0-6.62,1.761l-10.311,5.882a2.432,2.432,0,0,0-1.059,2.93c.344.959,1.241,1.59,3.362,2.7l22.886-.418c.149-1.149,1.172-2.217,1.172-3.527v-6.923a2.371,2.371,0,0,0-2.339-2.4" transform="translate(-596.583 -263.642)" fill="#333"/>
      <path id="Tracé_1322" data-name="Tracé 1322" d="M1044.907,298.336h-15.817l-1.371-92.094h18.559Z" transform="translate(-612.562 -122.928)" fill="#005a6e"/>
      <path id="Tracé_1323" data-name="Tracé 1323" d="M1096.574,420.948h10.285l-2.056-20.326h-11.2Z" transform="translate(-651.832 -238.787)" fill="#f7a881"/>
      <path id="Tracé_1324" data-name="Tracé 1324" d="M1078.281,299.6H1094.1l-5.494-93.358h-18.559Z" transform="translate(-637.79 -122.928)" fill="#005a6e"/>
      <rect id="Rectangle_454" data-name="Rectangle 454" width="11.027" height="12.622" transform="translate(429.648 27.421)" fill="#ae6552"/>
      <path id="Tracé_1325" data-name="Tracé 1325" d="M1027.719,198.335l36.384-.37-4.537,20.03-23.637,1.708Z" transform="translate(-612.562 -117.995)" fill="#005a6e"/>
      <path id="Tracé_1326" data-name="Tracé 1326" d="M1004.454,234.466a5.466,5.466,0,1,0,5.464-5.611,5.539,5.539,0,0,0-5.464,5.611" transform="translate(-598.695 -136.407)" fill="#ae6552"/>
      <path id="Tracé_1327" data-name="Tracé 1327" d="M1017.967,85.506c-2.58,1.585-4.95,4.09-5.677,7.03-1.638,6.619-5.387,21.935-6.065,26.176-.939,5.871-3.273,27.1-3.045,27.8s10.938-2.336,10.938-2.336,2.572-20.641,2.572-21.809,3.428-24.486,3.769-25.421,7.39-13.117,3.18-12.8a13.2,13.2,0,0,0-5.672,1.363" transform="translate(-597.926 -50.149)" fill="#40355c"/>
      <path id="Tracé_1328" data-name="Tracé 1328" d="M1050.233,24.966c.341,2.885,2.844,10.624,9.1,12.132,0,0,2.776,1.085,7.224-4.984a14.154,14.154,0,0,0,2.958-6.82,76.458,76.458,0,0,0,0-8.424c-.284-3.213-.455-8.2-7.737-9.118s-9.727,2.82-10.467,4.459-1.422,9.87-1.081,12.755" transform="translate(-625.927 -4.535)" fill="#b97e61"/>
      <path id="Tracé_1329" data-name="Tracé 1329" d="M1088.365,439.625l-7.057.689a13.354,13.354,0,0,0-6.417,2.4l-9.691,6.856a2.432,2.432,0,0,0-.769,3.019c.436.921,1.39,1.461,3.5,2.472l22.736-2.64c.141-1.273,1.055-2.435.927-3.739l-.673-6.89a2.371,2.371,0,0,0-2.562-2.163" transform="translate(-634.303 -262.028)" fill="#333"/>
      <path id="Tracé_1330" data-name="Tracé 1330" d="M1037.6,83.7l5.21-.524a6.664,6.664,0,0,0,11.027,0h2.86a11.821,11.821,0,0,1,11.553,13.237l-3.694,34.5c-.378,4.163-.584,12.6-5.236,12.392a78.431,78.431,0,0,0-10.059.209l-19.909.084c-2.429-.29,2.935-46.328,2.935-46.328-.276-6.78,3.625-13.393,5.313-13.573" transform="translate(-613.157 -49.574)" fill="#4a3f65"/>
      <path id="Tracé_1331" data-name="Tracé 1331" d="M1118.979,232.423a5.466,5.466,0,1,1-5.464-5.611,5.539,5.539,0,0,1,5.464,5.611" transform="translate(-660.443 -135.189)" fill="#ae6552"/>
      <path id="Tracé_1332" data-name="Tracé 1332" d="M1105.44,85.22a13.051,13.051,0,0,1,5.852,8.325c1.636,6.6,4.781,19.475,5.421,23.474.939,5.871-2.806,28.224-3.033,28.925s-10.938-2.336-10.938-2.336,2.621-21.77,2.621-22.938,1.109-18.9-.642-24.3a60.858,60.858,0,0,0-5.568-13.052c2.575-.524,4.263.679,6.288,1.9" transform="translate(-655.139 -49.585)" fill="#40355c"/>
      <rect id="Rectangle_455" data-name="Rectangle 455" width="5.816" height="19.311" transform="matrix(0.048, -0.999, 0.999, 0.048, 414.583, 179.29)" fill="#337b8b"/>
      <rect id="Rectangle_456" data-name="Rectangle 456" width="19.311" height="5.816" transform="translate(438.631 174.347) rotate(-2.393)" fill="#337b8b"/>
      <path id="Tracé_1333" data-name="Tracé 1333" d="M1062.236,4.7c-.617,1.8,2.149,3.005-.394,5.163-3.621,3.071-11.647,2.638-14.208,5.7-1.923,2.3-1.051,3.707-3.33,8.412a29.872,29.872,0,0,1-3.681,5.783c-.837-2.681-2.733-10.072.7-17.526a15.474,15.474,0,0,1,5.959-7.361C1052.175,1.91,1057.7,3,1058.667,3.195a31.012,31.012,0,0,1,3.569,1.5" transform="translate(-619.49 -1.693)" fill="#3a2c26"/>
      <path id="Tracé_1334" data-name="Tracé 1334" d="M1084.895,117.36c-.07.48.082,4.734,1.13,6.485a6.065,6.065,0,0,0,3.067,2.541,4.07,4.07,0,0,0,1.928-.614c1.767-1.131,2.175-6.28,1.586-9.113a27.924,27.924,0,0,1-7.712.7" transform="translate(-646.632 -69.533)" fill="#468e83"/>
    </g>
  </g>
</svg>
