<svg id="Groupe_222" data-name="Groupe 222" xmlns="http://www.w3.org/2000/svg" xmlns:xlink="http://www.w3.org/1999/xlink" width="52.07" height="72.533" viewBox="0 0 52.07 72.533">
  <defs>
    <clipPath id="clip-path">
      <rect id="Rectangle_676" data-name="Rectangle 676" width="52.07" height="72.533" fill="none"/>
    </clipPath>
  </defs>
  <g id="Groupe_221" data-name="Groupe 221" clip-path="url(#clip-path)">
    <path id="Tracé_2350" data-name="Tracé 2350" d="M73.161,146.61c.509,5.336.85,11.089.925,17.213a208.214,208.214,0,0,1-.925,22.334" transform="translate(-57.19 -114.604)" fill="none" stroke="#66948d" stroke-linecap="round" stroke-linejoin="round" stroke-width="2"/>
    <path id="Tracé_2351" data-name="Tracé 2351" d="M45.808,159.444a12.986,12.986,0,0,0-5.3-3.456,12.552,12.552,0,0,0-2.962-.617" transform="translate(-29.353 -121.453)" fill="none" stroke="#66948d" stroke-linecap="round" stroke-linejoin="round" stroke-width="3.615"/>
    <path id="Tracé_2352" data-name="Tracé 2352" d="M80.227,193.686a14.06,14.06,0,0,1,1.882-1.388,14.378,14.378,0,0,1,4.9-1.882" transform="translate(-62.713 -148.847)" fill="none" stroke="#66948d" stroke-linecap="round" stroke-linejoin="round" stroke-width="3.615"/>
    <path id="Tracé_2353" data-name="Tracé 2353" d="M.007,113.484c.142-2.331,2.3-2.38,2.956-5.214a13.67,13.67,0,0,0-.429-5.832A2.491,2.491,0,0,1,5.36,99.249c2.439.283,3.99.428,5.059-.37.986-.736.37-1.682,1.481-3.085a5.53,5.53,0,0,1,4.442-1.974c.163.006,3,.142,3.949,1.974.628,1.209.035,2.384.494,2.591.649.293,1.561-2.187,3.825-2.838a4.592,4.592,0,0,1,4.072.864c.981.8,1.973,2.337,1.6,3.7-.4,1.475-2.011,1.373-2.344,2.715-.327,1.317,1.108,1.9,2.1,4.566.426,1.148,1.211,3.262.37,5.059-.707,1.51-1.836,1.247-2.591,2.838-.7,1.476.006,2.264-.247,4.319-.086.7-.473,3.855-2.468,5.059-1.866,1.127-4-.144-8.391,0a11.267,11.267,0,0,0-2.1.247c-1.541.335-1.805.746-2.591.864-1.971.295-4.63-1.643-5.059-3.825-.312-1.589.721-2.481.124-3.208-.821-1-2.69.338-4.566-.74a5.215,5.215,0,0,1-2.514-4.522" transform="translate(0 -73.336)" fill="#004d40"/>
    <path id="Tracé_2354" data-name="Tracé 2354" d="M87,202.167c1.164.924,1.726.928,2.024.775.708-.364.364-1.843,1.113-2.226.487-.249,1.164.1,1.619.4" transform="translate(-68.008 -156.833)" fill="none" stroke="#66948d" stroke-linecap="round" stroke-linejoin="round" stroke-width="1.446"/>
    <path id="Tracé_2355" data-name="Tracé 2355" d="M29.684,171.35c-.458.776-.432,1.134-.3,1.315.188.267.587.141,1.012.4a1.789,1.789,0,0,1,.708,1.214" transform="translate(-22.903 -133.944)" fill="none" stroke="#66948d" stroke-linecap="round" stroke-linejoin="round" stroke-width="1.446"/>
    <path id="Tracé_2356" data-name="Tracé 2356" d="M92.813,137.663c1.544.664,2.368.485,2.834.2,1.029-.623.872-2.09,2.024-2.53.706-.27,1.144.137,1.619-.2.595-.424.552-1.518.4-2.429" transform="translate(-72.552 -103.734)" fill="none" stroke="#66948d" stroke-linecap="round" stroke-linejoin="round" stroke-width="1.446"/>
    <path id="Tracé_2357" data-name="Tracé 2357" d="M44.818,127.312a2.211,2.211,0,0,0,1.012,1.619c1.07.561,2.27-.567,3.542,0a2.445,2.445,0,0,1,1.113,1.113" transform="translate(-35.034 -99.519)" fill="none" stroke="#66948d" stroke-linecap="round" stroke-linejoin="round" stroke-width="1.446"/>
    <path id="Tracé_2358" data-name="Tracé 2358" d="M61.969,226.05c.684.817,1.179.956,1.518.911.481-.064.656-.5,1.316-.708a2.339,2.339,0,0,1,1.316,0" transform="translate(-48.441 -176.702)" fill="none" stroke="#66948d" stroke-linecap="round" stroke-linejoin="round" stroke-width="1.446"/>
    <path id="Tracé_2359" data-name="Tracé 2359" d="M145.038,216.556a13.181,13.181,0,0,1,5.1-3.643,12.884,12.884,0,0,1,3.435-.833" transform="translate(-113.376 -165.783)" fill="none" stroke="#028571" stroke-linecap="round" stroke-linejoin="round" stroke-width="3.615"/>
    <path id="Tracé_2360" data-name="Tracé 2360" d="M142.888,54.63a14.9,14.9,0,0,1,5.724-4.163" transform="translate(-111.695 -39.45)" fill="none" stroke="#028571" stroke-linecap="round" stroke-linejoin="round" stroke-width="3.615"/>
    <path id="Tracé_2361" data-name="Tracé 2361" d="M119.765,150.186A15.913,15.913,0,0,0,113,145.815" transform="translate(-88.332 -113.983)" fill="none" stroke="#028571" stroke-linecap="round" stroke-linejoin="round" stroke-width="3.615"/>
    <path id="Tracé_2362" data-name="Tracé 2362" d="M139.93,97.219c.7-14,.958-28.745.624-44.179q-.226-10.461-.78-20.451" transform="translate(-109.261 -25.475)" fill="none" stroke="#028571" stroke-linecap="round" stroke-linejoin="round" stroke-width="2"/>
    <path id="Tracé_2363" data-name="Tracé 2363" d="M56.994,15.181c.946-1.886-3.086-4.428-2.29-7.077.295-.98.928-.9,3.33-2.914C61.422,2.349,61,1.485,62.822.611,64.669-.278,65.2.568,70.315.4c4.462-.145,5.279-.826,6.244,0,1.891,1.619-.205,5.124,2.082,7.493,1.244,1.289,2.366.662,3.122,1.873,1.25,2-1.475,4.147-.625,7.077.72,2.48,2.974,1.98,3.955,4.579,1.139,3.016-1.472,4.815-.208,7.909.875,2.142,2.394,1.939,2.706,3.747.444,2.571-2.511,3.671-2.289,6.453.161,2.03,1.781,2.025,2.914,4.787.914,2.23,1.342,5.847-.416,8.118-1.51,1.951-3.073.9-6.59,3.283-2.894,1.966-2.7,3.267-5.067,4.211-1.812.721-2.427.16-6.244.208-5.92.075-6.527,1.452-9.227.606-2.114-.663-1.818-1.532-5.922-4.726-4.914-3.824-6.669-3.614-7.331-5.663-.83-2.567,1.726-3.518,2.914-8.534,1.39-5.868-1.469-7.266.416-12.073,1.342-3.421,3.228-3.829,3.33-6.868.089-2.642-1.269-4.326-.208-5.828.947-1.341,2.555-.742,3.122-1.873" transform="translate(-36.94 -0.001)" fill="#359d8d"/>
    <path id="Tracé_2364" data-name="Tracé 2364" d="M124.662,43.176c.634,2.156,1.362,2.785,1.973,2.884.975.157,1.654-1.033,2.732-.759.8.2.884.968,1.563,1.444.742.52,2.134.656,4.964-.837" transform="translate(-97.448 -33.751)" fill="none" stroke="#028571" stroke-linecap="round" stroke-linejoin="round" stroke-width="1.446"/>
    <path id="Tracé_2365" data-name="Tracé 2365" d="M160.609,85.592c.272,1.9-.031,2.631-.455,2.884-.853.509-2.352-.815-2.884-.3-.431.415.39,1.44,0,2.125-.286.5-1.24.856-4.1.3" transform="translate(-119.733 -66.907)" fill="none" stroke="#028571" stroke-linecap="round" stroke-linejoin="round" stroke-width="1.446"/>
    <path id="Tracé_2366" data-name="Tracé 2366" d="M88.5,120.359a2.834,2.834,0,0,0,1.822,1.822,2.706,2.706,0,0,0,2.884-1.062" transform="translate(-69.183 -94.084)" fill="none" stroke="#028571" stroke-linecap="round" stroke-linejoin="round" stroke-width="1.446"/>
    <path id="Tracé_2367" data-name="Tracé 2367" d="M72.512,157.907c1,3.18,1.956,4.052,2.732,4.1,1.008.06,1.831-1.266,2.732-.911.6.235.525.927,1.062,1.366s1.679.623,4.4-.759" transform="translate(-56.682 -123.435)" fill="none" stroke="#028571" stroke-linecap="round" stroke-linejoin="round" stroke-width="1.446"/>
    <path id="Tracé_2368" data-name="Tracé 2368" d="M171.249,136.709c3.489,1.267,4.771,1.036,5.222.461.674-.859-.344-2.694.395-3.194.516-.349,1.216.406,1.973.152.857-.288,1.228-1.681,1.366-3.339" transform="translate(-133.865 -102.237)" fill="none" stroke="#028571" stroke-linecap="round" stroke-linejoin="round" stroke-width="1.446"/>
    <path id="Tracé_2369" data-name="Tracé 2369" d="M135.64,186.415c.371,2.325-.028,3.078-.455,3.34-1.072.658-3.117-1.293-4.25-.455-.561.414-.38,1.127-.911,1.366-.677.3-1.722-.517-2.581-1.366" transform="translate(-99.622 -145.72)" fill="none" stroke="#028571" stroke-linecap="round" stroke-linejoin="round" stroke-width="1.446"/>
    <path id="Tracé_2370" data-name="Tracé 2370" d="M164.991,224.571c1.292,1.727,2.229,2.062,2.884,1.973,1.469-.2,1.978-2.587,3.34-2.58a2.325,2.325,0,0,1,1.67,1.214" transform="translate(-128.973 -175.072)" fill="none" stroke="#028571" stroke-linecap="round" stroke-linejoin="round" stroke-width="1.446"/>
    <path id="Tracé_2371" data-name="Tracé 2371" d="M81.316,235.192c-1.555,1.229-2.481,1.256-3.036,1.062-1.166-.406-1.3-2-2.429-2.125-.859-.1-1.262.77-1.973.607s-1.123-1.23-1.366-2.429" transform="translate(-56.682 -181.594)" fill="none" stroke="#028571" stroke-linecap="round" stroke-linejoin="round" stroke-width="1.446"/>
  </g>
</svg>
