<svg width="517" height="621" viewBox="0 0 517 621" fill="none" xmlns="http://www.w3.org/2000/svg">
<g clip-path="url(#clip0_1_2)">
<path d="M33.1 297.24C32.84 296.76 30.23 289.98 26.53 288.57C24.2156 287.756 21.6881 287.788 19.3948 288.659C17.1015 289.531 15.1905 291.185 14 293.33C12.8 295.71 12.9 301.63 13 305.56C13 306.56 13 305.85 13.44 310.56C13.78 314.66 13.84 316.04 14.44 317.95C14.8307 319.189 15.3679 320.378 16.04 321.49C22.87 321.01 28.63 321.58 30.97 319.96C31.97 319.3 38.79 310.53 37.82 306.15C37.59 305.15 37.06 305.15 35.42 302.15C34.03 299.62 33.89 298.69 33.11 297.25" fill="#E8876D"/>
<path d="M37.52 305.49C37.52 305.49 38.6 307.86 39.27 309.39C39.94 310.92 42.54 315.94 44.56 316.83C44.56 316.83 44.72 318.89 41.02 318.3C37.32 317.71 33.6 310.2 33.6 310.2L37.52 305.49Z" fill="#E8876D"/>
<path d="M34.32 311.05C34.32 311.05 38.86 335.47 38.77 336.27C38.68 337.07 36.88 337.65 35.98 337.27C35.08 336.89 32.57 326.21 31.98 323.99C31.39 321.77 28.79 312.37 29.06 310.78C29.33 309.19 34.29 311.05 34.29 311.05" fill="#E8876D"/>
<path d="M29.71 312.71C29.11 313.11 29.16 319.08 30.77 326.28C31.88 331.28 34.17 335.15 34.45 336.97C34.68 338.4 32.62 339.55 31.63 338.75C29.6399 335.673 28.1041 332.325 27.07 328.81C24.68 321.15 22.92 312.94 22.92 312.94L29.71 312.71Z" fill="#E8876D"/>
<path d="M18.87 314.86C19.6803 319.464 20.7792 324.013 22.16 328.48C23.0784 331.455 24.2045 334.362 25.53 337.18C27.03 339.91 28.72 338.94 29.2 337.31C29.44 336.52 27.8 334.53 25.92 327.2C24.04 319.87 23.37 308.2 23.37 308.2L18.87 314.86Z" fill="#E8876D"/>
<path d="M15.23 318.73C15.91 323.32 17.66 331.67 20.33 334.03C20.6079 334.338 20.9962 334.523 21.4103 334.546C21.8243 334.568 22.2305 334.426 22.54 334.15C22.7005 334 22.8296 333.82 22.92 333.62C23.25 333.02 18.92 321.57 20.06 317.97L15.23 318.73Z" fill="#E8876D"/>
<path d="M149.23 565.92C152.33 570.37 148.75 572.48 150.61 582.92C152.73 594.92 158.31 597.08 157.01 605.22C156.559 607.878 155.551 610.41 154.051 612.651C152.552 614.891 150.595 616.789 148.31 618.22C139.88 623.29 126.91 621.74 121.44 615.68C120.535 614.655 119.802 613.49 119.27 612.23C116.52 606.41 119.5 604.23 119.04 595.1C118.582 589.79 117.818 584.511 116.75 579.29V579.29C114.51 565.54 113.45 564.29 114.92 562.29C119.92 555.48 142.76 556.66 149.23 565.94" fill="#E1D6C0"/>
<path d="M142.77 545.9C142.49 543.82 140.16 542.56 138.2 541.51C135.941 540.327 133.434 539.696 130.884 539.668C128.334 539.64 125.814 540.217 123.53 541.35C122.33 541.97 120.32 543.05 119.78 545.1C119.581 545.915 119.609 546.769 119.86 547.57C120.86 550.95 125.74 554.45 130.95 554.43C137.03 554.43 143.26 549.59 142.77 545.9" fill="#041A1F"/>
<path d="M142 526.72C141.39 530.81 141.35 547.95 141.76 551.14L121.46 551.78C121.36 547.16 120.4 526.96 120.01 521.78L142.01 526.71" fill="#E8876D"/>
<path d="M142.72 546.09C141.62 546.65 139.94 548.41 138.07 549.35C136.979 549.954 135.846 550.478 134.68 550.92C132.591 551.55 130.377 551.65 128.24 551.21C123.16 550.21 121.55 545.75 120.18 546.33C118.45 547.07 120.94 550.79 119.57 554.15C118.35 557.15 117.89 557.15 117.16 560.29C116.28 564.08 116.92 566.76 117.8 571.58C118.6 575.95 119.62 581.49 120.06 586.58C120.84 595.7 119.06 595.75 120.38 600C121.84 604.81 126.66 613.28 135.04 614C143.42 614.72 151.16 607.06 152.93 600.43C153.8 597.13 152.65 593.13 150.35 585.15C148.66 579.32 147.35 575.87 146.76 572.55C145.908 568.072 145.32 563.547 145 559C144.66 554.42 144.24 553.63 142.69 546.08" fill="#002D37"/>
<path d="M155.83 295.8C156.03 295.28 157.69 288.16 161.31 286.15C165.85 283.63 172.14 284.84 175.07 288.77C176.68 290.93 177.47 296.77 177.95 300.7C178.07 301.7 177.95 301 178.26 305.7C178.53 309.81 178.68 311.18 178.35 313.18C178.127 314.473 177.751 315.735 177.23 316.94C172.11 317.471 166.94 316.658 162.23 314.58C161.14 314.08 151.97 309.86 152.32 305.38C152.4 304.31 152.94 304.23 154.19 301C155.24 298.26 155.24 297.32 155.83 295.77" fill="#E8876D"/>
<path d="M152.48 304.69C152.48 304.69 151.78 307.2 151.35 308.81C150.92 310.42 149.15 315.81 147.28 316.99C147.28 316.99 147.44 319.05 151.01 317.89C154.58 316.73 157.09 308.73 157.09 308.73L152.48 304.69Z" fill="#E8876D"/>
<path d="M156 309.69C156 309.69 155.3 334.52 155.52 335.29C155.74 336.06 157.59 337 158.43 336.49C159.27 335.98 160.8 324.7 161.01 322.41C161.22 320.12 161.64 310.14 161.13 308.61C160.62 307.08 156 309.69 156 309.69" fill="#E8876D"/>
<path d="M161.31 310.62C162.43 311.12 161.31 336.22 161.31 337.41C161.37 338.86 163.84 339.35 164.69 338.41C165.3 337.73 168.06 309.79 168.06 309.79L161.31 310.62Z" fill="#E8876D"/>
<path d="M172.06 310.88C172.06 310.88 172.41 332.47 171.54 335.46C170.67 338.45 169.18 338.89 168.36 337.46C167.96 336.74 167.59 333.12 167.83 325.55C168.07 317.98 166.24 305.44 166.24 305.44L172.06 310.88Z" fill="#E8876D"/>
<path d="M178.15 314.32C178.162 319.441 177.848 324.558 177.21 329.64C176.81 332.12 175.58 332.64 174.88 332.2C173.55 331.43 173.01 312.67 173.01 312.67L178.15 314.32Z" fill="#E8876D"/>
<path d="M138 571.2C137.978 571.42 138.021 571.641 138.124 571.837C138.228 572.032 138.386 572.192 138.581 572.298C138.775 572.403 138.996 572.448 139.216 572.428C139.436 572.408 139.645 572.323 139.817 572.185C139.989 572.046 140.117 571.86 140.183 571.649C140.249 571.438 140.251 571.212 140.19 571C140.128 570.788 140.005 570.599 139.836 570.456C139.667 570.314 139.46 570.225 139.24 570.2H139.11C138.83 570.186 138.557 570.284 138.349 570.471C138.141 570.659 138.016 570.921 138 571.2" fill="#002229"/>
<path d="M125.68 571C125.658 571.22 125.701 571.441 125.804 571.637C125.908 571.832 126.066 571.992 126.261 572.098C126.455 572.203 126.676 572.248 126.896 572.228C127.116 572.208 127.325 572.123 127.497 571.985C127.669 571.846 127.797 571.66 127.863 571.449C127.929 571.238 127.931 571.012 127.87 570.8C127.808 570.588 127.685 570.399 127.516 570.256C127.347 570.114 127.14 570.025 126.92 570H126.79C126.651 569.992 126.512 570.011 126.381 570.058C126.25 570.104 126.129 570.175 126.026 570.268C125.923 570.361 125.839 570.474 125.78 570.599C125.72 570.725 125.686 570.861 125.68 571" fill="#002229"/>
<path d="M138.6 577.57C138.582 577.716 138.594 577.865 138.633 578.007C138.673 578.149 138.74 578.282 138.831 578.398C138.922 578.514 139.035 578.611 139.164 578.683C139.292 578.756 139.434 578.802 139.58 578.82C139.726 578.838 139.875 578.826 140.017 578.787C140.159 578.747 140.292 578.68 140.408 578.589C140.524 578.498 140.621 578.385 140.693 578.256C140.766 578.128 140.812 577.986 140.83 577.84C140.847 577.693 140.834 577.544 140.792 577.401C140.751 577.259 140.682 577.127 140.589 577.011C140.496 576.896 140.381 576.8 140.251 576.73C140.12 576.659 139.977 576.615 139.83 576.6H139.69C139.55 576.584 139.408 576.599 139.273 576.642C139.139 576.685 139.015 576.757 138.911 576.851C138.806 576.945 138.722 577.061 138.665 577.19C138.608 577.319 138.579 577.459 138.58 577.6" fill="#002229"/>
<path d="M126.52 577.46C126.493 577.61 126.497 577.764 126.532 577.912C126.566 578.061 126.631 578.201 126.721 578.323C126.812 578.446 126.926 578.549 127.058 578.626C127.19 578.703 127.336 578.752 127.487 578.77C127.638 578.789 127.792 578.776 127.938 578.733C128.084 578.69 128.22 578.617 128.338 578.52C128.455 578.423 128.551 578.302 128.62 578.167C128.69 578.031 128.73 577.882 128.74 577.73C128.758 577.583 128.746 577.433 128.705 577.29C128.665 577.147 128.596 577.014 128.502 576.898C128.409 576.783 128.293 576.687 128.163 576.617C128.032 576.547 127.888 576.504 127.74 576.49H127.6C127.32 576.476 127.047 576.574 126.839 576.761C126.631 576.949 126.506 577.211 126.49 577.49" fill="#002229"/>
<path d="M140.66 585C140.638 585.22 140.681 585.441 140.784 585.637C140.888 585.832 141.046 585.992 141.241 586.098C141.435 586.203 141.656 586.248 141.876 586.228C142.096 586.208 142.305 586.123 142.477 585.985C142.649 585.846 142.777 585.66 142.843 585.449C142.909 585.238 142.911 585.012 142.85 584.8C142.788 584.588 142.665 584.399 142.496 584.256C142.327 584.114 142.12 584.025 141.9 584H141.77C141.49 583.986 141.217 584.084 141.009 584.271C140.801 584.459 140.676 584.721 140.66 585" fill="#002229"/>
<path d="M126.7 584.91C126.678 585.129 126.721 585.35 126.824 585.545C126.927 585.74 127.086 585.9 127.279 586.006C127.473 586.111 127.694 586.157 127.913 586.137C128.133 586.118 128.342 586.034 128.514 585.896C128.686 585.759 128.814 585.573 128.881 585.363C128.948 585.153 128.952 584.928 128.892 584.716C128.832 584.504 128.71 584.314 128.543 584.171C128.375 584.027 128.169 583.937 127.95 583.91H127.81C127.53 583.896 127.257 583.994 127.049 584.181C126.841 584.369 126.716 584.63 126.7 584.91" fill="#002229"/>
<path d="M138.5 571.42C136.745 572.316 134.793 572.759 132.823 572.708C130.853 572.657 128.927 572.115 127.22 571.13" stroke="white" stroke-width="2.83" stroke-linecap="round" stroke-linejoin="round"/>
<path d="M139.14 577.7C137.73 578.589 136.13 579.131 134.47 579.28C132.155 579.471 129.839 578.918 127.86 577.7" stroke="white" stroke-width="2.83" stroke-linecap="round" stroke-linejoin="round"/>
<path d="M140.59 585.27C138.613 586.072 136.494 586.461 134.361 586.413C132.228 586.365 130.128 585.88 128.19 584.99" stroke="white" stroke-width="2.83" stroke-linecap="round" stroke-linejoin="round"/>
<path d="M145.26 604.13C145.69 604.53 142.38 610.04 137.26 610.69C130.7 611.52 124.49 604.13 124.85 603.69C125.01 603.51 126.33 604.6 129.68 605.69C132.04 606.46 135.34 607.55 138.87 606.98C142.95 606.32 145.01 603.83 145.31 604.12" fill="#345760"/>
<path d="M30.3 279.23L31.9 293.23L11 295.14V281.23L30.3 279.23Z" fill="#55C2DF"/>
<path d="M4.91001 576.59C3.26001 578.42 -0.839991 583 0.500009 586.5C1.50001 588.97 5.28001 591.38 36.87 589.81C65.1 588.4 73.4 585.91 80.95 581.54C86.28 578.46 95.42 572.04 94.17 568.32C93.17 565.32 85.63 565.32 75.99 565.57C23.34 566.63 12.8 567.79 4.91001 576.57" fill="#E1D6C0"/>
<path d="M105.47 94.31L90.09 91.84L70.26 95.84L74.15 102.01L104.52 98.6L105.47 94.31Z" fill="#009EC2"/>
<path d="M75.72 97.05L46.36 109.54L107.12 129.89L125.74 106.74L105.48 98.11L101 97.05H75.72Z" fill="#E8876D"/>
<path d="M51.75 527.36C52.39 529.96 55.5 536.79 52.55 542.74C50.22 547.44 44.38 551.74 39.25 555.65C33.64 559.88 34.55 560.33 28.97 564.83C20.28 571.83 13.56 570.32 11.33 575.83C11 576.67 9.95999 579.62 11.33 581.71C13.51 585.03 20.33 584.02 25.66 583.18C33.46 581.94 35.91 580.18 44.39 577.67C50.2 575.93 55.12 575.04 64.96 573.26C70.74 572.26 77.26 571.19 84.43 570.32C82.63 563.13 83.6 554.88 82.6 545.71C81.8886 539.244 81.5214 532.745 81.5 526.24C72.43 526.61 60.8 526.98 51.74 527.34" fill="#E8876D"/>
<path d="M51.78 147.53C51.2091 148.371 50.5915 149.179 49.93 149.95L41.93 206.87V212L39.93 217.53L39.55 217.91C39.4309 217.158 39.1696 216.435 38.78 215.78C35.05 209.87 21.33 207.25 21.33 207.25C20.122 207.15 18.906 207.269 17.74 207.6C16.0115 208.063 14.5046 209.126 13.49 210.6C13.3705 210.777 13.2604 210.961 13.16 211.15C13.16 211.04 13.16 210.93 13.16 210.82C13.16 209.27 17.4 173.37 21.88 149.3C22.82 143.913 24.0267 138.58 25.5 133.3C29.5 119.95 35.81 114.3 35.81 114.3C36.0915 114.083 36.3854 113.883 36.69 113.7C39.3043 112.019 42.4039 111.255 45.5 111.53C48.85 111.98 52.5 114.17 55.43 120.11C61.08 131.57 55.05 142.71 51.77 147.47" fill="#00B3DC"/>
<path d="M83.33 546.83C80.0891 549.416 76.3417 551.293 72.33 552.34C68.76 553.27 64.33 554.41 59.85 552.71C53.42 550.29 52.73 544.36 48.85 544.63C46.41 544.79 45.96 547.15 41.13 551.97C39.13 553.97 36.38 555.97 30.85 560.06C23.85 565.23 20.27 567.82 17.99 568.87C13.48 570.94 9.88001 571.6 8.07001 575.12C7.34938 576.321 7.08992 577.742 7.34001 579.12C8.42001 583.22 15.72 584.29 17.99 584.63C21.76 585.18 25.38 584.92 31.21 583.53C39.73 581.53 40.87 579.94 49.58 577.28C55.4356 575.364 61.4642 574.025 67.58 573.28C77.38 572.17 81.58 573.53 84.11 570.34C85.63 568.42 85.51 565.48 85.21 559.69C84.9829 555.357 84.3671 551.053 83.37 546.83" fill="#002D37"/>
<path d="M38.93 550.14C41.2522 552.752 43.2007 555.673 44.72 558.82" stroke="white" stroke-width="2.83" stroke-linecap="round" stroke-linejoin="round"/>
<path d="M34.11 553.31C35.4287 554.915 36.6253 556.616 37.69 558.4C38.26 559.4 38.76 560.27 39.21 561.16" stroke="white" stroke-width="2.83" stroke-linecap="round" stroke-linejoin="round"/>
<path d="M29.29 556.2C30.7231 557.454 31.9336 558.942 32.87 560.6C33.3663 561.48 33.7814 562.404 34.11 563.36" stroke="white" stroke-width="2.83" stroke-linecap="round" stroke-linejoin="round"/>
<path d="M115.8 43.51C113.7 56.73 109.13 77.98 101.68 85.92C100.23 87.47 106.03 50.4 104.74 48.92C100.55 44.23 105.6 37.7 103.23 34.45C103.71 29.34 99.31 22.95 102.63 18.45C107.88 18.45 115.18 21.86 115.94 28.96C116.574 33.7727 116.526 38.6505 115.8 43.45" fill="#3A2C26"/>
<path d="M37.87 236L34.87 253.76C34.02 262.16 31.37 282.54 31.37 282.54C31.37 282.54 8.87001 284.79 8.94001 281.05C9.09001 273.84 9.74001 218.16 13.94 209.17C14.02 208.992 14.1102 208.818 14.21 208.65C15.1593 207.205 16.5688 206.123 18.21 205.58C19.3522 205.179 20.55 204.96 21.76 204.93C21.76 204.93 35.64 205.93 39.86 210.75C40.2986 211.276 40.6192 211.89 40.8 212.55C42.16 217.01 40.08 225.92 37.96 236" fill="#00B3DC"/>
<path d="M146.73 541.59C143.81 541.59 129.14 540.77 117.06 540.59C117.06 540.59 105.24 443.4 102.26 417.87C99.92 397.87 93.48 328.59 93.48 328.59L89.58 327.64V328C83.35 322 72.35 332.36 66.98 313.26C63.5404 300.933 63.02 287.973 65.46 275.41C65.79 273.62 66.16 271.94 66.56 270.41H141.82L142.11 275.35C143.95 298.3 146.01 332.9 145.77 375.79C145.68 391.21 145.36 398.07 145.24 410.68C144.98 438.02 147 541.3 146.73 541.68" fill="#062D3E"/>
<path d="M117.09 275.38C118.927 280.042 122.009 284.11 126 287.14C131.25 291.14 133.35 291.5 135.79 291.81" stroke="white" stroke-width="2.83" stroke-linecap="round" stroke-linejoin="round"/>
<path d="M93.48 328.45L89.58 327.5C89.58 323.67 89.77 360.44 88.41 390.36C87.41 412.36 86.11 428.07 85.64 434.36C84.12 454.22 83.08 500.43 84.64 542.76C72.74 542.76 60.64 541.14 48.76 541.14C49.15 494.68 47.33 442.27 45.51 415.91C44.02 394.29 42.63 381.58 41.51 357.53C39.72 320.75 40.08 290.6 40.7 270.38H92.29C93.37 296.69 93.82 300.82 93.55 328.47" fill="#062D3E"/>
<path d="M65.46 275.38C63.6719 279.919 60.6949 283.892 56.8414 286.883C52.988 289.875 48.4003 291.773 43.56 292.38" stroke="white" stroke-width="2.83" stroke-linecap="round" stroke-linejoin="round"/>
<path d="M91.16 277.74L89.14 321.26" stroke="white" stroke-width="2.83" stroke-linecap="round" stroke-linejoin="round"/>
<path d="M99 277.74L98.46 297.74C98.4084 298.512 98.1882 299.262 97.815 299.94C97.4418 300.617 96.9247 301.204 96.3 301.66C95.499 302.189 94.56 302.471 93.6 302.47" stroke="white" stroke-width="2.83" stroke-linecap="round" stroke-linejoin="round"/>
<path d="M103.93 94.41C103.79 96.5177 103.79 98.6323 103.93 100.74C104.19 102.33 101.12 104.04 97.59 105.46C96.59 105.85 95.59 106.22 94.59 106.56C91.03 107.78 87.82 108.56 87.82 108.56C87.82 108.56 71.82 107.29 71.49 103.97C71.4 103.11 71.3 99.25 71.29 95.09C71.29 91.84 71.29 88.4 71.49 86.09C71.73 82.82 71.99 79.54 72.18 77.16C72.36 75 72.48 73.58 72.48 73.58L95.11 72.8L105.11 72.46C105.11 72.46 104.84 76.22 104.54 81.03C104.28 85.29 104 90.36 103.87 94.35" fill="#E8876D"/>
<g opacity="0.2">
<g opacity="0.2">
<g opacity="0.2">
<g opacity="0.2">
<path opacity="0.2" d="M51.78 147.53C51.2092 148.374 50.5916 149.185 49.93 149.96L42.33 204.54C42.33 204.54 35.47 206.92 27.86 195.7C23.55 189.34 29.97 142.11 33.38 133.3C34.1936 128.979 36.2552 124.992 39.31 121.83C40.87 120.83 51.77 147.53 51.77 147.53" fill="#41385A"/>
</g>
</g>
</g>
</g>
<path d="M84.81 107.56L87.03 112.12L82.7 110.34L84.81 107.56Z" fill="#009EC2"/>
<path d="M87.77 107.56L86.2 112.12L89.68 109.72L87.77 107.56Z" fill="#009EC2"/>
<g opacity="0.2">
<g opacity="0.2">
<g opacity="0.2">
<g opacity="0.2">
<path opacity="0.2" d="M103.93 94.41C103.93 95.74 103.86 97.96 103.86 97.96L112.77 99.59C112.77 99.59 114.9 107.19 111.38 108.59C110.38 108.98 99.62 107.83 94.65 106.59C89.68 105.35 80.4 94 80.4 94L71.55 86.18C71.78 82.91 72.05 79.64 72.24 77.26L76.68 77.79L95.17 72.9L105.17 72.55C105.17 72.55 104.9 76.32 104.6 81.12C104.34 85.39 104.06 90.46 103.93 94.44" fill="#41385A"/>
</g>
</g>
</g>
</g>
<path d="M156.66 154.83L151.66 162.74L146.66 170.79L145.1 173.27C144.54 183.2 142.02 209.32 142.01 209.4C139.44 232.85 143.73 247.4 142.19 272.84C142.177 273.345 142.009 273.834 141.708 274.24C141.408 274.646 140.989 274.95 140.51 275.11C140.314 275.177 140.107 275.211 139.9 275.21C105.95 282.14 67.52 282.02 41.4 274.76C40.7259 274.732 40.0882 274.447 39.6177 273.963C39.1472 273.48 38.8797 272.835 38.87 272.16C37.34 246.93 41.1 225.09 40.14 201.71C39.5189 186.975 37.2412 172.356 33.35 158.13C29.9 145.44 28.46 125.34 30.96 121.01C31.45 120.16 31.96 119.34 32.53 118.54C40.11 107.72 61.83 101.92 66.71 100.09C71.83 102.18 86.88 111.27 86.88 111.27C86.88 111.27 104.95 101.87 108.77 97.91C111.61 97.91 121.63 100.77 125.83 102.79C130.83 105.18 146.16 106.99 153.45 118.86C153.58 119.09 153.72 119.32 153.86 119.55C156.35 123.89 157.95 139.91 156.67 154.83" fill="#00B3DC"/>
<path d="M59.82 34.43C58.59 36.74 56.31 48.79 60.22 62.31C65.91 81.98 69.65 84.88 71.37 86.03C75.4637 88.6487 80.3285 89.7917 85.16 89.27C94.71 88.27 100.36 80.92 101.58 79.34C109.58 68.91 107.3 55.57 104.58 40.01C103.13 31.64 101.73 29.85 100.73 28.86C95.64 23.81 61.73 30.67 59.73 34.43" fill="#E8876D"/>
<path d="M100.1 50C98.1442 50.9773 96.0891 51.7416 93.97 52.28C93.5715 52.3814 93.1611 52.4285 92.75 52.42C92.3472 52.4281 91.9447 52.3912 91.55 52.31C89.7744 51.972 88.0523 51.3969 86.43 50.6C87.6056 49.0211 89.2294 47.8329 91.09 47.19C91.6318 47.0469 92.1896 46.973 92.75 46.97C93.2971 46.9733 93.8427 47.0268 94.38 47.13C96.4605 47.6917 98.4061 48.6679 100.1 50Z" fill="white"/>
<path d="M95.61 49.87C95.5281 50.3527 95.3099 50.802 94.9813 51.165C94.6526 51.528 94.2271 51.7895 93.7548 51.9188C93.2826 52.0481 92.7832 52.0398 92.3155 51.8948C91.8478 51.7499 91.4312 51.4743 91.1148 51.1006C90.7984 50.7269 90.5954 50.2707 90.5295 49.7854C90.4637 49.3002 90.5379 48.8063 90.7433 48.3618C90.9487 47.9174 91.2768 47.5408 91.689 47.2765C92.1012 47.0122 92.5804 46.8712 93.07 46.87C93.8036 46.9337 94.4822 47.2848 94.958 47.8467C95.4338 48.4087 95.6682 49.136 95.61 49.87" fill="black"/>
<path d="M100.1 50C98.4061 48.6679 96.4605 47.6917 94.38 47.13C93.8428 47.0263 93.2971 46.9727 92.75 46.97C92.1929 46.973 91.6384 47.0469 91.1 47.19C89.2352 47.83 87.6074 49.0186 86.43 50.6" stroke="#563329" stroke-width="1.62" stroke-linejoin="round"/>
<path d="M62.51 50C64.4693 50.9773 66.5277 51.7416 68.65 52.28C69.045 52.3819 69.4522 52.429 69.86 52.42C70.2629 52.4286 70.6654 52.3917 71.06 52.31C72.8388 51.972 74.5642 51.3969 76.19 50.6C75.0109 49.0204 73.3837 47.8322 71.52 47.19C70.9815 47.0475 70.4271 46.9736 69.87 46.97C69.3196 46.9731 68.7706 47.0266 68.23 47.13C66.1524 47.6911 64.2099 48.6675 62.52 50" fill="white"/>
<path d="M67 49.87C67.0819 50.3527 67.3001 50.802 67.6287 51.165C67.9574 51.528 68.3829 51.7895 68.8552 51.9188C69.3274 52.0481 69.8268 52.0398 70.2945 51.8948C70.7622 51.7499 71.1788 51.4743 71.4952 51.1006C71.8116 50.7269 72.0146 50.2707 72.0804 49.7854C72.1463 49.3002 72.0721 48.8063 71.8667 48.3618C71.6613 47.9174 71.3332 47.5408 70.921 47.2765C70.5088 47.0122 70.0296 46.8712 69.54 46.87C68.8064 46.9337 68.1278 47.2848 67.652 47.8467C67.1762 48.4087 66.9418 49.136 67 49.87Z" fill="black"/>
<path d="M158.27 276.06L157.27 289.64L177.4 290.41L177.6 276.06H158.27Z" fill="#55C2DF"/>
<path d="M62.51 50C64.2039 48.6679 66.1495 47.6917 68.23 47.13C68.7673 47.0268 69.3129 46.9732 69.86 46.97C70.4204 46.973 70.9782 47.0469 71.52 47.19C73.3806 47.8329 75.0044 49.0211 76.18 50.6" stroke="#563329" stroke-width="1.62" stroke-linejoin="round"/>
<path d="M86.13 44.37C86.8776 43.0402 88.0352 41.9878 89.43 41.37C90.7761 40.7511 92.2497 40.4598 93.73 40.52C95.2095 40.5784 96.6548 40.9825 97.95 41.7C99.2842 42.4129 100.359 43.5295 101.02 44.89V44.96C101.034 44.9906 101.035 45.0254 101.024 45.0571C101.013 45.0888 100.99 45.1149 100.96 45.13C100.943 45.1375 100.924 45.1413 100.905 45.1413C100.886 45.1413 100.867 45.1375 100.85 45.13C99.7158 44.576 98.5345 44.1242 97.32 43.78C96.1027 43.4492 94.8509 43.2613 93.59 43.22C92.3304 43.1594 91.0681 43.25 89.83 43.49C89.2111 43.626 88.6001 43.7963 88 44C87.3949 44.179 86.8006 44.3927 86.22 44.64C86.2059 44.6483 86.1901 44.6533 86.1738 44.6547C86.1575 44.6562 86.1411 44.6539 86.1257 44.6482C86.1104 44.6424 86.0965 44.6333 86.0852 44.6215C86.0738 44.6097 86.0652 44.5956 86.06 44.58C86.0504 44.5633 86.0453 44.5443 86.0453 44.525C86.0453 44.5057 86.0504 44.4867 86.06 44.47L86.13 44.37Z" fill="#5D3F31"/>
<path d="M62.13 44.35C62.8781 43.0206 64.0356 41.9684 65.43 41.35C66.7767 40.7406 68.2469 40.4531 69.724 40.5104C71.2011 40.5676 72.6446 40.9681 73.94 41.68C75.2747 42.3956 76.3517 43.5111 77.02 44.87V44.95C77.0267 44.9644 77.0305 44.98 77.0311 44.9959C77.0316 45.0118 77.0291 45.0277 77.0235 45.0426C77.0179 45.0574 77.0094 45.0711 76.9985 45.0827C76.9876 45.0942 76.9746 45.1035 76.96 45.11C76.9452 45.1199 76.9278 45.1252 76.91 45.1252C76.8922 45.1252 76.8748 45.1199 76.86 45.11C75.7227 44.5527 74.538 44.0975 73.32 43.75C72.1023 43.4225 70.8505 43.2379 69.59 43.2C68.3304 43.1397 67.0681 43.2304 65.83 43.47C65.209 43.6062 64.5977 43.7833 64 44C63.3911 44.1774 62.7934 44.3911 62.21 44.64C62.1794 44.6482 62.1469 44.6457 62.1178 44.633C62.0887 44.6203 62.0648 44.5981 62.05 44.57C62.0428 44.5543 62.0391 44.5373 62.0391 44.52C62.0391 44.5028 62.0428 44.4857 62.05 44.47L62.13 44.35Z" fill="#5D3F31"/>
<path d="M80.63 51.69C80.31 53.2 79.93 54.69 79.54 56.15L78.96 58.36C78.77 59.09 78.59 59.82 78.43 60.56C78.2535 61.269 78.1364 61.9915 78.08 62.72C78.0651 62.873 78.0651 63.027 78.08 63.18C78.0996 63.2905 78.1479 63.394 78.22 63.48C78.4341 63.6933 78.6992 63.8482 78.99 63.93C79.6994 64.1095 80.4283 64.2002 81.16 64.2C81.91 64.2 82.68 64.2 83.44 64.14C82.709 64.3936 81.9556 64.5777 81.19 64.69C80.3987 64.82 79.5914 64.82 78.8 64.69C78.3415 64.6104 77.915 64.4023 77.57 64.09C77.3802 63.8955 77.2455 63.6538 77.18 63.39C77.1288 63.1669 77.102 62.9389 77.1 62.71C77.1281 61.912 77.2319 61.1184 77.41 60.34C77.58 59.58 77.79 58.84 78.01 58.1C78.23 57.36 78.48 56.63 78.75 55.92C79.2774 54.4743 79.8987 53.0646 80.61 51.7" fill="#5D3F31"/>
<path d="M86.21 78.45C85.1032 78.9474 83.9195 79.2518 82.71 79.35C82.0933 79.4139 81.47 79.3664 80.87 79.21C80.2811 79.0487 79.7161 78.81 79.19 78.5C79.19 78.5 79.19 78.5 79.19 78.5C79.78 78.5 80.37 78.64 80.96 78.75C81.5231 78.8713 82.0949 78.9482 82.67 78.98C83.2596 78.9835 83.8484 78.9367 84.43 78.84C85.0162 78.7563 85.5947 78.6259 86.16 78.45C86.16 78.45 86.16 78.45 86.16 78.45" fill="#5D3F31"/>
<path d="M75.72 73.5C75.72 73.5 79.31 76.45 82.2 76.45C85.48 76.45 89.68 73.5 89.68 73.5C87.6042 72.8385 85.4387 72.5012 83.26 72.5C80.7215 72.6029 78.1976 72.9376 75.72 73.5" fill="white"/>
<path d="M75.72 73.5C78.0249 73.0044 80.3657 72.6934 82.72 72.57C85.0748 72.6885 87.416 72.9995 89.72 73.5C89.72 73.5 88.2 71.59 83.66 71.07C80.8109 70.8223 77.9774 71.6938 75.76 73.5" fill="#B97E61"/>
<path d="M108.61 19.82C105.29 24.29 103.96 29.49 103.48 34.61C103.153 34.2359 102.784 33.9004 102.38 33.61C98.92 30.91 92.08 33.35 91.03 34.43C90.4809 34.9792 89.8779 35.4717 89.23 35.9C88.9857 36.0615 88.7281 36.202 88.46 36.32C85.31 37.77 82.9 36.26 79.28 36.45C77.98 36.53 76.83 36.8 72.11 39.02C60.47 44.52 57.43 42.22 55.61 41.02C53.17 39.43 50.61 39.84 52.78 34.02C53.17 32.97 51.32 32.69 50.89 31.45C50.05 29.01 51.54 32.14 52.52 29.45C54.52 23.69 51.87 21.59 53.6 17.55C54.5 15.44 56.66 12.69 62.51 10.66C62.9379 9.12574 63.7083 7.70854 64.7632 6.5151C65.818 5.32165 67.1299 4.38307 68.6 3.77C71.103 2.85311 73.8646 2.94636 76.3 4.03C79.3 0.350004 81.65 -0.269996 83.19 -0.149996C86.86 0.120004 87.86 4.63 93.87 6.6C96.05 7.32 96.12 6.79001 98.73 7.68001C101.09 8.48001 104.27 9.57001 106.44 12.55C107.929 14.687 108.69 17.2467 108.61 19.85" fill="#4D3A32"/>
<path d="M104.69 48.11C108.61 44.03 112.19 45.49 113.31 47.71C114.78 50.63 114.91 56.64 111.69 61.43C110.95 62.53 108.61 65.85 105.2 64.53C100.7 62.77 103.99 48.85 104.69 48.12" fill="#E8876D"/>
<g opacity="0.2">
<g opacity="0.2">
<g opacity="0.2">
<g opacity="0.2">
<path opacity="0.2" d="M146.75 196.19C146.75 196.28 144.89 245.59 144.07 271.4C144.07 272.5 141.44 275.4 141.44 275.4L150.85 541.13C150.85 541.13 149.62 541.13 144.45 541.2C142.77 504.7 131.8 332.2 130.1 295.75C129.79 289.06 108.87 280.75 108.87 280.75C108.78 278.69 128.69 279.16 128.74 277.9C129.23 264.06 133.84 256.85 135.74 234.84C136.9 221.75 134.04 197.63 135.62 179.53C135.92 176.04 146.7 181.53 146.7 196.25" fill="#41385A"/>
</g>
</g>
</g>
</g>
<path d="M169 203.5C169.64 209.75 166.46 212.7 162.61 213.13C159.264 213.468 155.903 213.622 152.54 213.59C151.553 213.665 150.562 213.533 149.63 213.2C149.24 212.87 148.56 215.92 148.5 217.01L145.09 214.12C145.09 214.12 138.87 201.63 138.19 199.9L130.33 179.74L129.09 164.89C127.668 159.152 126.563 153.34 125.78 147.48C125.09 142.31 124.86 137.34 124.58 132.79C123 107.41 149.58 105.98 154.7 123.38C159.98 141.44 164.79 162.48 169 203.5" fill="#00B3DC"/>
<path d="M179 273.72C178.32 280.79 157.23 277.3 157.23 277.3L152.48 258.05C150.128 252.845 148.733 247.259 148.36 241.56L146.83 210.81C146.83 210.81 149.13 206.66 150.25 205.11C151.43 203.573 152.932 202.313 154.651 201.418C156.37 200.523 158.264 200.015 160.2 199.93C160.596 199.9 160.994 199.9 161.39 199.93C163.06 199.99 166.08 200.45 167.95 202.93C172.95 209.43 179.68 266.72 179 273.79" fill="#00B3DC"/>
<g opacity="0.2">
<g opacity="0.2">
<g opacity="0.2">
<g opacity="0.2">
<path opacity="0.2" d="M89.58 328L84.58 542.77L79.21 541.15C79.16 525.15 84.79 397.15 86.71 373.49C87.64 362 88.55 328 89.54 328" fill="#41385A"/>
</g>
</g>
</g>
</g>
<path d="M125.73 146C125.73 145.9 125.73 145.8 125.73 145.7C125.73 145.6 125.73 145.52 125.73 145.43V145.38C125.73 145.29 125.73 145.21 125.73 145.13C125.73 145.05 125.65 144.76 125.6 144.56L125.54 144.32C125.54 144.22 125.48 144.11 125.44 144.01V143.94V143.88C125.482 143.548 125.502 143.214 125.5 142.88V142.59C125.505 142.493 125.505 142.397 125.5 142.3C125.51 142.21 125.51 142.12 125.5 142.03C125.505 141.937 125.505 141.843 125.5 141.75C125.5 141.65 125.5 141.56 125.5 141.47C125.5 141.38 125.45 141.28 125.43 141.18L125.27 140.67L125.18 140.44C125.18 140.36 125.12 140.28 125.09 140.22C124.98 139.99 124.87 139.76 124.74 139.54C124.703 139.47 124.659 139.403 124.61 139.34C124.208 138.708 123.701 138.15 123.11 137.69L122.92 137.55L122.71 137.41C122.57 137.31 122.43 137.23 122.28 137.14H122.22H122.14L121.8 136.98L121.66 136.92L121.43 136.82L121.19 136.74L120.96 136.67C120.617 136.57 120.265 136.5 119.91 136.46H119.67H119.46H118.73C118.47 136.46 118.21 136.46 117.95 136.53H117.87H117.78L117.47 136.59L117.16 136.66L116.86 136.74H116.71H116.57H116.51L116.31 136.81L115.85 137L115.63 137.1C115.283 137.26 114.948 137.447 114.63 137.66L114.33 137.87L114.09 138.05L113.73 138.35C113.652 138.415 113.578 138.485 113.51 138.56L113.32 138.75L113.26 138.81L113.07 139.01C112.532 139.609 112.084 140.283 111.74 141.01C111.696 141.091 111.656 141.175 111.62 141.26L111.5 141.56C111.5 141.64 111.44 141.71 111.42 141.78V141.89V142.02C111.416 142.036 111.416 142.054 111.42 142.07C111.42 142.18 111.36 142.28 111.33 142.37C111.33 142.48 111.33 142.58 111.26 142.69C111.239 142.766 111.222 142.842 111.21 142.92V142.92V143.11C111.21 143.31 111.16 143.51 111.15 143.67C111.145 143.753 111.145 143.837 111.15 143.92C111.15 144.05 111.15 144.18 111.15 144.31C111.135 144.6 111.135 144.89 111.15 145.18C111.144 145.273 111.144 145.367 111.15 145.46C111.168 145.656 111.201 145.85 111.25 146.04C111.264 146.128 111.284 146.215 111.31 146.3C111.303 146.356 111.303 146.414 111.31 146.47C111.322 146.525 111.339 146.578 111.36 146.63V146.63C111.374 146.705 111.394 146.778 111.42 146.85V146.92C111.456 147.039 111.499 147.156 111.55 147.27C111.55 147.27 111.55 147.27 111.55 147.32C111.591 147.429 111.637 147.536 111.69 147.64V147.69C111.69 147.81 111.8 147.93 111.86 148.05L112.02 148.34V148.43L112.16 148.65L112.26 148.8C112.33 148.92 112.4 149.01 112.46 149.1L112.67 149.38L113 149.78C113.078 149.872 113.162 149.958 113.25 150.04L113.34 150.14L113.61 150.39L113.9 150.65L114.19 150.88L114.41 151.04C114.54 151.14 114.68 151.23 114.82 151.32L115.07 151.47L115.35 151.63L115.55 151.73L115.83 151.86L116.15 152L116.48 152.12H116.54H116.6H116.71H116.83L117.06 152.19H117.14L117.53 152.28L117.89 152.34C118.336 152.417 118.788 152.454 119.24 152.45H119.57C119.696 152.46 119.824 152.46 119.95 152.45C120.036 152.46 120.124 152.46 120.21 152.45H120.42L120.69 152.39C120.779 152.381 120.866 152.36 120.95 152.33L121.27 152.24L121.5 152.17L121.67 152.1L121.91 152.01C122 151.978 122.087 151.938 122.17 151.89C122.483 151.747 122.783 151.58 123.07 151.39L123.29 151.24C123.649 150.988 123.984 150.704 124.29 150.39L124.43 150.23C124.49 150.17 124.54 150.1 124.6 150.03C124.671 149.956 124.734 149.876 124.79 149.79C124.82 149.744 124.854 149.701 124.89 149.66C125 149.5 125.09 149.36 125.17 149.22L125.29 149C125.331 148.932 125.367 148.862 125.4 148.79C125.508 148.587 125.601 148.376 125.68 148.16C125.711 148.085 125.738 148.008 125.76 147.93V147.87C125.76 147.8 125.81 147.72 125.83 147.64C125.835 147.61 125.835 147.58 125.83 147.55V147.55C125.853 147.488 125.869 147.425 125.88 147.36L125.94 147.07C125.946 146.97 125.946 146.87 125.94 146.77C125.936 146.737 125.936 146.703 125.94 146.67C125.946 146.634 125.946 146.596 125.94 146.56C125.94 146.56 125.94 146.48 125.94 146.44C125.94 146.4 125.94 146.24 125.94 146.14C125.94 146.04 125.94 145.9 125.94 145.78C125.94 145.66 125.94 145.57 125.94 145.47L125.73 146ZM118.94 148.39H118.62H118.3L118.06 148.32H117.93H117.86C117.639 148.241 117.427 148.137 117.23 148.01C117.173 147.979 117.119 147.942 117.07 147.9C116.99 147.852 116.916 147.795 116.85 147.73L116.58 147.48C116.532 147.438 116.488 147.391 116.45 147.34L116.33 147.19C116.289 147.144 116.252 147.093 116.22 147.04C116.158 146.95 116.101 146.857 116.05 146.76C115.868 146.451 115.739 146.112 115.67 145.76C115.664 145.677 115.664 145.593 115.67 145.51C115.67 145.51 115.67 145.46 115.67 145.43C115.67 145.4 115.67 145.23 115.67 145.13C115.67 144.292 115.974 143.482 116.526 142.851C117.077 142.221 117.839 141.811 118.67 141.7L118.99 141.65L118.94 148.39ZM118.94 140.97H118.68C117.703 141.062 116.796 141.517 116.137 142.244C115.479 142.971 115.116 143.919 115.12 144.9V145.11C115.115 145.18 115.115 145.25 115.12 145.32V145.55V145.72C115.294 146.527 115.713 147.261 116.32 147.82L116.54 148C116.693 148.122 116.857 148.229 117.03 148.32L117.28 148.45C117.373 148.498 117.47 148.539 117.57 148.57C117.667 148.609 117.767 148.639 117.87 148.66L118.2 148.74H118.52H118.77V151H118.46H118.24H118H117.9H117.71H117.51C117.282 150.94 117.059 150.867 116.84 150.78L116.63 150.69L116.42 150.59C116.064 150.422 115.729 150.214 115.42 149.97L115.24 149.82C115.18 149.82 115.13 149.72 115.07 149.67C114.596 149.221 114.203 148.693 113.91 148.11C113.91 148.04 113.84 147.96 113.81 147.88C113.74 147.734 113.68 147.584 113.63 147.43C113.609 147.368 113.592 147.304 113.58 147.24C113.574 147.187 113.574 147.133 113.58 147.08C113.551 146.988 113.527 146.895 113.51 146.8V146.63C113.51 146.57 113.51 146.52 113.51 146.45C113.47 146.185 113.45 145.918 113.45 145.65C113.458 144.262 113.984 142.927 114.926 141.907C115.868 140.888 117.157 140.257 118.54 140.14H118.84L118.94 140.97ZM118.94 138.86H118.67C117.145 138.957 115.715 139.631 114.671 140.746C113.627 141.861 113.047 143.332 113.05 144.86C113.048 145.155 113.071 145.449 113.12 145.74C113.11 145.8 113.11 145.86 113.12 145.92V145.92C113.11 145.973 113.11 146.027 113.12 146.08C113.132 146.165 113.152 146.249 113.18 146.33L113.24 146.57C113.24 146.64 113.29 146.73 113.32 146.8V146.87C113.347 146.956 113.381 147.039 113.42 147.12L113.55 147.39L113.65 147.59C113.751 147.792 113.868 147.986 114 148.17L114.17 148.4L114.34 148.62V148.67C114.45 148.806 114.57 148.933 114.7 149.05C114.949 149.298 115.22 149.522 115.51 149.72L115.73 149.86C115.881 149.96 116.038 150.05 116.2 150.13L116.42 150.23L116.66 150.33L116.85 150.4L117.18 150.5H117.28H117.38C117.587 150.558 117.797 150.601 118.01 150.63H118.18H118.45H118.71V151.94H118.41H117.94H117.63H117.35L117.09 151.89H117H116.8C116.593 151.834 116.39 151.767 116.19 151.69L115.88 151.58C115.507 151.42 115.143 151.24 114.79 151.04L114.72 150.99L114.52 150.85L114.26 150.68L113.92 150.43L113.72 150.26L113.64 150.19C113.526 150.098 113.42 149.997 113.32 149.89L113.05 149.6C112.95 149.5 112.86 149.39 112.77 149.28C112.688 149.188 112.611 149.091 112.54 148.99C112.46 148.89 112.38 148.77 112.3 148.65L112.12 148.36V148.29C112.014 148.112 111.917 147.928 111.83 147.74C111.806 147.695 111.786 147.648 111.77 147.6V147.55L111.71 147.41C111.71 147.33 111.64 147.25 111.61 147.18L111.49 146.86C111.49 146.74 111.42 146.64 111.39 146.52C111.36 146.4 111.34 146.37 111.32 146.28L111.26 146.02C111.254 146.004 111.254 145.986 111.26 145.97C111.26 145.84 111.2 145.7 111.18 145.57C111.16 145.44 111.18 145.37 111.18 145.26V145.17V145.08V145C111.18 144.89 111.18 144.78 111.18 144.66C111.18 144.54 111.18 144.41 111.18 144.28C111.176 142.237 111.955 140.271 113.355 138.783C114.755 137.296 116.671 136.4 118.71 136.28H119.01L118.94 138.86ZM119.42 136.27H119.73L120.17 136.34L120.42 136.39L120.64 136.44L120.83 136.5C121.273 136.634 121.699 136.818 122.1 137.05C122.218 137.116 122.331 137.19 122.44 137.27H122.49L122.67 137.4C122.79 137.481 122.904 137.572 123.01 137.67L123.18 137.82L123.26 137.89L123.33 137.96L123.5 138.13L123.59 138.23L123.64 138.29L123.72 138.39L123.78 138.46L123.93 138.65C124.154 138.965 124.348 139.299 124.51 139.65C124.549 139.714 124.583 139.78 124.61 139.85C124.614 139.89 124.614 139.93 124.61 139.97V140.05C124.641 140.125 124.668 140.202 124.69 140.28C124.713 140.332 124.733 140.385 124.75 140.44V140.44V140.49C124.771 140.549 124.788 140.609 124.8 140.67C124.833 140.775 124.859 140.882 124.88 140.99L124.94 141.29L125 143L124.3 142.1L123.96 141.69L123.67 141.39L123.37 141.11C123.348 141.082 123.321 141.058 123.29 141.04L123 140.81L122.91 140.74L122.61 140.54L122.17 140.27L121.9 140.14L121.57 139.98L121.3 139.87L121.08 139.79L120.9 139.73H120.82L120.59 139.67L120.33 139.6C120.056 139.545 119.779 139.505 119.5 139.48H119.25L119.42 136.27ZM119.42 139.35H119.73L120.13 139.4H120.21L120.62 139.49L120.95 139.59L121.2 139.67L121.48 139.77H121.56L121.82 139.89C121.944 139.945 122.064 140.009 122.18 140.08C122.3 140.14 122.38 140.2 122.47 140.25L122.67 140.39L122.76 140.45L122.94 140.58L123.12 140.73L123.27 140.85L123.48 141.05L123.75 141.33L123.87 141.48C123.939 141.552 124.002 141.629 124.06 141.71L124.26 141.98L124.41 142.2L124.56 142.44C124.62 142.55 124.68 142.66 124.73 142.77C124.802 142.906 124.865 143.046 124.92 143.19V143.26V144C124.807 144.556 124.619 145.095 124.36 145.6L123.99 146.34L123.84 145.52C123.84 145.41 123.79 145.29 123.76 145.17C123.73 145.05 123.69 144.94 123.66 144.82C123.63 144.7 123.58 144.62 123.55 144.52V144.45V144.39L123.48 144.25V144.19V144.12L123.38 143.95C123.32 143.87 123.28 143.79 123.22 143.71C123.16 143.63 123.04 143.45 122.94 143.33L122.73 143.11L122.58 142.95C122.225 142.613 121.824 142.327 121.39 142.1L121.2 142.01L121.01 141.93L120.8 141.85C120.457 141.728 120.101 141.645 119.74 141.6H119.49L119.42 139.35ZM119.42 141.45L119.75 141.51L120.11 141.58L120.43 141.67L120.76 141.8C120.854 141.83 120.945 141.87 121.03 141.92V141.92L121.33 142.09C121.53 142.215 121.721 142.356 121.9 142.51L122.16 142.75L122.3 142.91L122.41 143.04C122.698 143.385 122.931 143.773 123.1 144.19V144.26C123.104 144.297 123.104 144.333 123.1 144.37V144.46L123.15 144.62C123.144 144.666 123.144 144.714 123.15 144.76C123.146 144.817 123.146 144.873 123.15 144.93C123.213 145.236 123.246 145.548 123.25 145.86C123.26 146.003 123.26 146.147 123.25 146.29V147L123.19 147.08C122.207 148.113 120.888 148.761 119.47 148.91H119.16L119.42 141.45ZM119.42 148.88H119.68C120.667 148.798 121.619 148.483 122.46 147.96L123.46 147.33L122.82 148.33C122.474 148.864 122.019 149.318 121.485 149.663C120.95 150.008 120.349 150.235 119.72 150.33H119.4L119.42 148.88ZM125.49 146.08C125.495 146.157 125.495 146.233 125.49 146.31C125.495 146.397 125.495 146.483 125.49 146.57C125.49 146.66 125.49 146.76 125.49 146.86C125.49 146.96 125.49 147.01 125.49 147.09C125.49 147.17 125.44 147.3 125.42 147.4C125.4 147.5 125.33 147.7 125.29 147.83C125.25 147.96 125.2 148.08 125.15 148.2L125 148.54C124.93 148.68 124.87 148.8 124.8 148.92C124.746 149.029 124.682 149.132 124.61 149.23C124.564 149.314 124.51 149.395 124.45 149.47V149.56C124.317 149.742 124.174 149.915 124.02 150.08L123.94 150.16C123.869 150.245 123.792 150.325 123.71 150.4V150.4L123.49 150.59L123.41 150.66C123.33 150.73 123.24 150.81 123.13 150.89L122.84 151.1H122.79L122.5 151.28L122.18 151.45C122.08 151.45 121.99 151.55 121.85 151.6C121.617 151.703 121.376 151.786 121.13 151.85L120.85 151.93L120.35 152.03H120.03H119.72V150.72H119.97C121.031 150.584 122.02 150.111 122.792 149.371C123.564 148.632 124.078 147.664 124.26 146.61V146.53L124.31 146.47L124.56 146.15C124.732 145.933 124.885 145.702 125.02 145.46C125.1 145.34 125.16 145.22 125.23 145.09L125.7 144.17L125.75 145.17C125.75 145.31 125.75 145.46 125.75 145.61C125.75 145.76 125.75 145.81 125.75 145.91" fill="white"/>
<path d="M105.47 94.31C101.47 99.17 95.27 103.52 87.77 107.56L93.57 121.73C105.9 110.55 110.16 103.36 110.85 97.93L105.47 94.31Z" fill="#55C2DF"/>
<path d="M70.26 95.82C73.44 100.7 78.57 104.45 84.81 107.56L79.21 120.79C72.29 115.47 64.95 108.7 62.21 100.1L70.26 95.82Z" fill="#55C2DF"/>
<path d="M367.6 53.22C367.6 53.22 371.5 59.11 358.72 91.6C358.72 91.6 355.89 100.32 354.9 116.09C353.91 131.86 352.66 87 352.66 87L367.6 53.22Z" fill="#B5533C"/>
<path d="M320.45 567.21C320.37 563.61 320.72 563 320.09 562.01C318.89 560.13 316.78 559.83 312.92 559.34C309.015 558.899 305.062 559.201 301.27 560.23C298.07 561.07 296.45 561.51 295.8 562.9C294.64 565.39 296.89 568.8 298.6 570.51C304.92 576.88 318.67 576.37 320.66 572.7C321.11 571.87 320.56 571.63 320.45 567.21Z" fill="#062D3E"/>
<path d="M267.51 588.62C266.42 589.62 266.27 591.8 266.25 592.29C266.071 593.502 266.372 594.737 267.09 595.73C267.9 596.73 269.09 597.12 273.26 597.91C276.57 598.54 278.26 598.91 280.12 599.05C286.24 599.68 286.97 599.2 296.94 599.51C301.07 599.64 302.41 599.38 304.77 598.65C307.57 597.79 307.67 597.35 310.68 596.42C312.29 595.92 312.92 595.98 319.68 595.15C323.32 594.71 323.93 594.59 324.31 594.15C325.65 592.46 321.98 588.69 320.38 587.15C315.701 588.552 310.92 589.588 306.08 590.25C299.67 591.13 292.66 592.09 284.22 590.83C275.78 589.57 269.76 586.58 267.54 588.65" fill="#062D3E"/>
<path d="M359.35 568.28C359.46 564.68 358.99 564.07 359.83 563.08C361.41 561.2 364.21 560.9 369.3 560.41C374.453 559.97 379.642 560.27 384.71 561.3C388.94 562.13 391.07 562.58 391.93 563.96C393.47 566.45 390.49 569.86 388.24 571.58C379.88 577.94 361.71 577.44 359.07 573.77C358.48 572.94 359.21 572.7 359.35 568.28" fill="#062D3E"/>
<path d="M355.79 584.8C355.24 585.5 356.1 586.03 355.79 589.5C355.66 590.84 355.46 591.63 356.2 592.35C356.94 593.07 358.02 593.24 359.75 593.49C362.991 594.089 366.268 594.47 369.56 594.63C377.29 594.71 377.69 596.48 387.51 597.19C392.7 597.57 396.6 597.3 404.41 596.76C411.99 596.24 415.41 595.57 418.41 593.92C418.97 593.61 422.73 591.47 421.96 590.07C421.34 588.96 418.16 588.84 416.96 588.79C404.63 588.29 383.44 586.63 380.02 586.37C367.69 585.44 357.52 582.61 355.81 584.8" fill="#062D3E"/>
<path d="M340 107.8L309 119.28L311.46 145.82L368 145L376 118.55L340 107.8Z" fill="#F5A782"/>
<path d="M318.51 555.25C318.413 561.53 318.727 567.811 319.45 574.05L288.67 574.27C290.898 570.972 292.652 567.377 293.88 563.59C296.12 556.59 295.88 550.83 295.3 541.59C295.07 537.59 292.55 522.94 291.39 516.26C299.83 515.76 314.52 509.85 322.97 509.36C323.36 513.77 318.61 548.61 318.51 555.26" fill="#F5A782"/>
<path d="M319 565.71C318.645 565.393 318.231 565.149 317.781 564.993C317.331 564.836 316.855 564.771 316.38 564.8C315.21 565.07 315.26 566.47 314.14 567.4C313.25 568.13 311.5 568.68 307.78 568.01C307.84 566.19 308.05 565.91 308.72 562.83C309.56 558.91 310.41 557.68 309.46 556.72C307.86 555.08 304.14 557.34 296.94 556.72C291.78 556.27 289.75 554.72 288.34 555.8C286.69 557.01 288.86 559.57 288.72 564.06C288.58 568.31 286.45 569.12 284.6 571.83C282.23 575.32 279.6 577.54 274.33 581.92C268.88 586.47 266.02 588.07 266.1 590.92C266.194 591.761 266.457 592.574 266.875 593.31C267.293 594.045 267.856 594.689 268.53 595.2C271.41 597.41 275.02 596.51 282.17 596.42C295.1 596.27 296.24 598.57 302.92 596.73C306.82 595.65 307.43 594.56 312.45 593.52C318.45 592.27 320.26 593.26 321.98 591.83C324.66 589.62 320.98 586.53 320.86 577.61C320.78 572.41 321.86 567.9 318.99 565.68" fill="#025A7D"/>
<path d="M291.19 240.47C291.11 239.73 293.07 239.6 294.96 237.23C296.85 234.86 296.72 232.84 297.75 232.72C298.78 232.6 299.75 234.2 299.9 235.72C300.17 237.94 298.53 239.92 297.16 240.81C294.64 242.44 291.3 241.45 291.16 240.51" fill="#F5A782"/>
<path d="M355.48 122.12C353.75 127.87 330.05 134.54 329.88 122.34C329.74 112.15 325.88 83.19 325.88 83.19H356.5V114C356.604 116.736 356.266 119.471 355.5 122.1" fill="#F5A782"/>
<g opacity="0.2">
<g opacity="0.2">
<g opacity="0.2">
<g opacity="0.2">
<path opacity="0.2" d="M360.5 126.08L325.85 94.71L323.67 92.71H325.85L356.47 92.12V112.78L364.83 115.28C364.83 115.28 360.95 124.65 360.5 126.14" fill="#41385A"/>
</g>
</g>
</g>
</g>
<path d="M392.54 148.05C392.54 148.05 377.18 222.98 381.54 253.27H298.69C298.69 227.27 306.39 227.67 279.15 138.88C278.32 124.14 291.23 123.62 291.23 123.62C291.23 123.62 314.11 111.75 319.51 113.79C341.09 121.94 345.51 122.64 368.16 114.3C371.74 112.98 387.28 118.94 387.28 118.94C387.28 118.94 393.37 133.32 392.55 148.06" fill="#FFD601"/>
<path d="M358.82 544.79C360.451 552.991 361.139 561.352 360.87 569.71L384.08 569.42C382.668 560.904 382.382 552.24 383.23 543.65C384.38 531.91 387.89 513.16 383.74 509.35C378.69 504.72 362.65 506.94 355.6 512.13C353.53 513.65 357.6 538.48 358.82 544.78" fill="#F5A782"/>
<path d="M292.59 243.45C292.59 243.45 286.97 257.18 277.82 260.54C277.82 260.54 279.48 243.27 284.27 240.64C289.06 238.01 289.9 238.87 289.9 238.87L292.59 243.45Z" fill="#061C27"/>
<path d="M356.83 586.8C354.03 584.72 356.95 582.64 358.92 571.13C359.22 569.36 359.6 566.77 361.84 566.13C363.04 565.79 363.84 566.29 367.26 566.56C370.68 566.83 372.36 566.94 373.31 566.27C374.64 565.34 372.89 563.83 372.9 560.57C372.9 558.77 372.9 556.42 374.98 555.02C375.89 554.4 376.98 554.11 386.67 554.02C393.06 553.96 393.9 554.07 394.6 554.59C396.29 555.83 394.6 557.59 394.81 561.85C394.932 563.87 395.427 565.85 396.27 567.69C396.61 568.39 398.01 571.1 404.2 575.38C411.82 580.65 415.49 580.54 419.01 584.78C420.4 586.45 422.47 588.93 421.1 590.9C420.1 592.29 417.85 592.9 405.87 593.9C391.43 595.15 387.05 594.98 383.96 594.76C376.67 594.22 373.53 593.11 372.27 592.62C369.81 591.62 369.46 591.09 366.27 589.77C360.27 587.32 358.78 588.19 356.88 586.77" fill="#025A7D"/>
<path d="M388.61 408.2C390.55 440 391.34 542 391.34 542L362.84 542.35L352.49 542.49C352.49 542.49 355.32 458.35 352.69 400.49C351.91 383.3 348.48 362.49 346.41 349.49C344.84 339.58 342.25 310.34 342.13 309.93V309.84C342.123 309.91 342.123 309.98 342.13 310.05C341.29 314.44 336.39 366.65 332.92 403.12C327.51 460.02 327.62 542.27 327.62 542.27H287.82C287.82 542.27 297.04 419.62 294.45 393.27C295.03 356.95 287.92 323.55 288.57 295.97C289.06 275.02 298.57 230.02 298.57 230.02C314.57 228.67 320.01 233.08 328.98 233.44C328.98 233.44 358.91 230.02 385.59 230.02C385.59 230.02 388.23 267.02 391.89 293.15C394.2 309.58 390.25 377.99 388.67 408.24" fill="#01445E"/>
<path d="M385.57 231.85C385.57 231.85 369.12 235.34 341.79 237.05C314.46 238.76 296.79 238.72 296.79 238.72L294.92 248.53C294.92 248.53 316.16 248.59 342.31 247.61C357.139 247.131 371.921 245.678 386.56 243.26L385.57 231.85Z" fill="#347C97"/>
<path d="M385.57 231.85C385.57 231.85 369.12 235.34 341.79 237.05C314.46 238.76 296.79 238.72 296.79 238.72L294.92 248.53C294.92 248.53 316.16 248.59 342.31 247.61C357.139 247.131 371.921 245.678 386.56 243.26L385.57 231.85Z" stroke="white" stroke-width="1.61" stroke-linecap="round" stroke-linejoin="round"/>
<path d="M346.61 252C346.44 262.25 344.61 287.22 345.61 301.7" stroke="white" stroke-width="1.61" stroke-linecap="round" stroke-linejoin="round"/>
<path d="M337.64 253.24C337.46 258.95 336.98 275.41 337 284.31C338.972 285.79 341.127 287.01 343.41 287.94" stroke="white" stroke-width="1.61" stroke-linecap="round" stroke-linejoin="round"/>
<path d="M366.8 260C368.94 261.76 371.28 263.56 373.85 265.34C378.523 268.583 383.452 271.439 388.59 273.88" stroke="white" stroke-width="1.61" stroke-linecap="round" stroke-linejoin="round"/>
<path d="M314.46 260C311.514 266.137 306.738 271.21 300.79 274.52" stroke="white" stroke-width="1.61" stroke-linecap="round" stroke-linejoin="round"/>
<path d="M348 242.52C348 245.82 345.55 247.69 342 248.05C340.568 248.192 339.138 247.76 338.024 246.849C336.91 245.938 336.204 244.622 336.06 243.19C336.06 242.97 336.06 242.74 336.06 242.52C336.03 241.001 336.596 239.53 337.637 238.424C338.679 237.317 340.112 236.662 341.63 236.6C342.432 236.566 343.232 236.691 343.986 236.967C344.739 237.243 345.431 237.664 346.022 238.208C346.612 238.751 347.09 239.405 347.428 240.133C347.766 240.861 347.957 241.648 347.99 242.45V242.52" fill="#9ABDCB"/>
<path d="M348 242.52C348 245.82 345.55 247.69 342 248.05C340.568 248.192 339.138 247.76 338.024 246.849C336.91 245.938 336.204 244.622 336.06 243.19C336.06 242.97 336.06 242.74 336.06 242.52C336.03 241.001 336.596 239.53 337.637 238.424C338.679 237.317 340.112 236.662 341.63 236.6C342.432 236.566 343.232 236.691 343.986 236.967C344.739 237.243 345.431 237.664 346.022 238.208C346.612 238.751 347.09 239.405 347.428 240.133C347.766 240.861 347.957 241.648 347.99 242.45L348 242.52Z" stroke="white" stroke-width="1.5" stroke-linecap="round" stroke-linejoin="round"/>
<path d="M346.39 242C346.382 242.497 346.271 242.988 346.065 243.44C345.858 243.893 345.56 244.298 345.19 244.63C343.26 246.68 340.19 246.73 340.11 246.48C340.03 246.23 342.28 246.12 343.64 244.28C345 242.44 344.44 239.97 345.1 239.85C345.57 239.77 346.33 240.9 346.39 242Z" fill="white"/>
<path d="M277.77 248.13C279.37 243.42 283.77 241.56 284.77 241.13C286.607 240.366 288.593 240.024 290.58 240.13C291.835 240.262 293.074 240.516 294.28 240.89C299.14 242.02 300.38 241.37 304.28 242.39C305.44 242.69 306.02 243.24 308.09 244.26C307.423 248.009 306.238 251.647 304.57 255.07C302.79 258.71 299.18 265.21 294.34 265.14C293.169 265.051 292.023 264.749 290.96 264.25C288.3 263.22 285.78 261.859 283.46 260.2C280.15 257.69 278.17 256.2 277.46 253.42C277.052 251.643 277.178 249.786 277.82 248.08" fill="#F5A782"/>
<path d="M302.81 243.11L315.41 245.38C315.41 245.38 320.86 246.28 323.41 246.56C324.122 246.622 324.787 246.942 325.28 247.46C325.593 247.739 325.782 248.13 325.807 248.548C325.831 248.966 325.688 249.377 325.41 249.69C325.246 249.88 325.036 250.025 324.8 250.11C323.64 250.77 305 248.91 305 248.91L302.81 243.11Z" fill="#F5A782"/>
<path d="M302.81 249.66L315.41 251.66C315.41 251.66 320.91 252.45 323.41 252.66C324.093 252.707 324.741 252.981 325.25 253.44C326.25 254.39 325.71 255.3 324.78 255.76C323.61 256.33 303.58 254.76 303.58 254.76L302.81 249.66Z" fill="#F5A782"/>
<path d="M299.9 255.35L312.5 257.35C312.5 257.35 318 258.14 320.5 258.35C321.182 258.403 321.828 258.677 322.34 259.13C323.34 260.08 322.8 260.99 321.86 261.45C320.7 262.02 300.66 260.45 300.66 260.45L299.9 255.35Z" fill="#F5A782"/>
<path d="M299.72 259.37L300.21 260.03C301.21 261.8 303.21 262.6 305.21 263.03C306.86 263.39 308.78 263.79 310.01 264.03C310.686 264.132 311.308 264.455 311.78 264.95C312.71 265.95 312.09 266.84 311.12 267.23C309.91 267.71 293.32 265.04 293.32 265.04L299.72 259.37Z" fill="#F5A782"/>
<path d="M230.36 205.31C244.19 224.69 255.65 242.08 277.82 260.54C279.87 253.9 281.19 246.62 289.9 238.87C283.73 233.46 258.64 186.93 243.29 185.87C240.921 185.703 238.55 186.166 236.418 187.214C234.287 188.262 232.472 189.856 231.157 191.834C229.843 193.812 229.077 196.104 228.937 198.474C228.797 200.845 229.288 203.211 230.36 205.33" fill="#FFD601"/>
<path d="M315.21 115.41C311.21 114.81 294.83 119.64 288.93 122.61C278.23 128.01 271.15 134.74 262.73 146.52C249.25 165.37 239.67 178.98 233.73 187.52C230.19 192.62 229.16 198.58 231.51 201.93C234.68 206.46 249.25 203.52 259.68 197.76C271.55 185.1 279.92 168.66 292.89 157.7C294.69 157.22 302.77 157.13 304.27 145.83C305.99 132.83 315.84 116.83 315.27 115.43" fill="#FFD601"/>
<path d="M333.16 28.34C333.16 28.34 316.16 23.17 314.24 30.03C311.89 38.29 310.65 36.48 308.24 43.56C307.06 47.09 310.24 53.22 310.24 53.22C310.24 53.22 312.4 57.28 311.07 63.99C309.74 70.7 315.3 75.17 315.3 75.17L333.16 28.34Z" fill="#B5533C"/>
<path d="M315.7 77.56C316.95 83.76 324.25 100.14 340.09 102.43C340.09 102.43 347.17 104.34 357.46 90.49C363.91 81.81 363.93 75.25 363.93 75.25C363.93 75.25 363.93 63.91 362.78 56.99C361.63 50.07 360.53 39.29 342.21 38.44C323.89 37.59 318.29 46.08 316.67 49.75C315.05 53.42 314.46 71.36 315.67 77.56" fill="#F5A782"/>
<path d="M361.11 60.28C361.54 60.28 361.75 61.23 362.85 61.45C363.73 61.63 364.3 61.16 365.32 60.83C366.545 60.416 367.867 60.3846 369.11 60.74C371.74 61.9 371.69 69.74 368.61 75.01C367.91 76.21 366.54 78.47 364.2 78.87C363.463 78.991 362.708 78.9292 362 78.69C357.3 76.74 359.37 60.42 361.11 60.29" fill="#F5A782"/>
<path d="M339.75 66.39C339.41 67.57 339.07 68.75 338.75 69.95C338.43 71.15 338.12 72.32 337.89 73.52C337.769 74.0999 337.692 74.6883 337.66 75.28C337.625 75.5287 337.625 75.7812 337.66 76.03C337.678 76.1473 337.712 76.2616 337.76 76.37C337.795 76.4892 337.846 76.6034 337.91 76.71C338.573 77.6612 339.446 78.4479 340.46 79.01C340.46 79.01 340.46 79.06 340.46 79.08C339.812 79.0205 339.182 78.8407 338.6 78.55C337.973 78.2595 337.432 77.8116 337.03 77.25C336.814 76.9502 336.661 76.6101 336.58 76.25C336.515 75.8895 336.515 75.5204 336.58 75.16C336.698 74.5317 336.851 73.9107 337.04 73.3C337.75 70.9115 338.619 68.573 339.64 66.3C339.65 66.2926 339.662 66.2887 339.675 66.2887C339.688 66.2887 339.7 66.2926 339.71 66.3C339.71 66.3 339.71 66.3 339.71 66.36" fill="#5D3F31"/>
<path d="M356.65 61.94C355.014 63.4809 353.114 64.714 351.04 65.58C350.669 65.7096 350.282 65.7903 349.89 65.82C349.509 65.84 349.127 65.8198 348.75 65.76C346.92 65.3974 345.205 64.5981 343.75 63.43C344.836 61.9288 346.303 60.7447 348 60C348.497 59.7989 349.024 59.6806 349.56 59.65C350.078 59.6198 350.599 59.65 351.11 59.74C353.085 60.1712 354.974 60.9283 356.7 61.98" fill="white"/>
<path d="M358.64 57.42C357.496 56.3559 356.19 55.4815 354.77 54.83C353.44 54.1864 351.962 53.9135 350.49 54.04C349.767 54.148 349.061 54.3497 348.39 54.64C347.69 54.93 346.99 55.24 346.26 55.48C344.745 56.003 343.18 56.3683 341.59 56.57C341.575 56.5729 341.559 56.5725 341.544 56.5689C341.529 56.5653 341.515 56.5585 341.503 56.5491C341.49 56.5396 341.48 56.5277 341.473 56.5141C341.466 56.5005 341.461 56.4854 341.46 56.47C341.453 56.456 341.449 56.4406 341.449 56.425C341.449 56.4094 341.453 56.394 341.46 56.38C342.001 55.7401 342.619 55.1691 343.3 54.68C343.97 54.1984 344.683 53.7799 345.43 53.43C346.186 53.081 346.987 52.8387 347.81 52.71C348.661 52.5466 349.524 52.4529 350.39 52.43C352.12 52.4631 353.804 52.9944 355.24 53.96C356.61 54.8524 357.812 55.9797 358.79 57.29C358.801 57.3003 358.81 57.3127 358.816 57.3264C358.821 57.3402 358.824 57.355 358.824 57.37C358.824 57.385 358.821 57.3998 358.816 57.4136C358.81 57.4273 358.801 57.4397 358.79 57.45C358.77 57.4663 358.746 57.4751 358.72 57.4751C358.694 57.4751 358.67 57.4663 358.65 57.45L358.64 57.42Z" fill="#5D3F31"/>
<path d="M344.49 92.48C344.011 92.9107 343.488 93.2894 342.93 93.61C342.356 93.9418 341.719 94.1496 341.06 94.22C340.379 94.2961 339.691 94.1962 339.06 93.93C338.456 93.6614 337.923 93.2577 337.5 92.75C337.5 92.75 337.5 92.75 337.5 92.75C338.062 93.0217 338.639 93.2588 339.23 93.46C339.789 93.6775 340.38 93.8024 340.98 93.83C342.224 93.7211 343.409 93.252 344.39 92.48" fill="#8B5F4A"/>
<path d="M352 62.33C352.12 64.2 351.14 65.79 349.81 65.87C348.48 65.95 347.31 64.5 347.19 62.63C347.07 60.76 348.05 59.18 349.38 59.1C350.71 59.02 351.88 60.46 352 62.33" fill="black"/>
<path d="M343.73 63.43C344.372 62.3597 345.214 61.4228 346.21 60.67C347.216 59.8631 348.452 59.3941 349.74 59.33C351.006 59.3483 352.254 59.6239 353.41 60.14C354.555 60.615 355.642 61.2189 356.65 61.94C355.551 61.3969 354.418 60.9226 353.26 60.52C352.136 60.1012 350.949 59.878 349.75 59.86C348.561 59.9213 347.414 60.3164 346.44 61C345.432 61.6852 344.521 62.5025 343.73 63.43" fill="#563329"/>
<path d="M320.82 64.09C322.624 65.42 324.658 66.4065 326.82 67C327.2 67.0882 327.591 67.1219 327.98 67.1C328.363 67.0697 328.742 66.9993 329.11 66.89C330.89 66.3068 332.503 65.3015 333.81 63.96C332.566 62.5783 330.974 61.556 329.2 61C328.684 60.8673 328.152 60.8134 327.62 60.84C327.098 60.8805 326.581 60.9777 326.08 61.13C324.176 61.8031 322.398 62.79 320.82 64.05" fill="white"/>
<path d="M318.59 59.05C319.292 57.7284 320.291 56.5883 321.51 55.72C322.781 54.8104 324.273 54.2579 325.83 54.12C326.615 54.0551 327.405 54.0551 328.19 54.12C328.947 54.181 329.691 54.3493 330.4 54.62C331.1 54.8809 331.771 55.2162 332.4 55.62C333.048 56.0306 333.634 56.5324 334.14 57.11C334.153 57.1281 334.161 57.1495 334.162 57.1717C334.164 57.194 334.159 57.2162 334.149 57.2359C334.138 57.2556 334.123 57.2721 334.103 57.2834C334.084 57.2947 334.062 57.3005 334.04 57.3C332.597 57.2282 331.164 57.0206 329.76 56.68C329.09 56.53 328.45 56.32 327.81 56.11C327.19 55.8992 326.544 55.7714 325.89 55.73C324.562 55.6801 323.242 55.9619 322.05 56.55C320.793 57.1601 319.678 58.0291 318.78 59.1V59.1C318.77 59.1109 318.757 59.1196 318.744 59.1255C318.73 59.1314 318.715 59.1345 318.7 59.1345C318.685 59.1345 318.67 59.1314 318.656 59.1255C318.643 59.1196 318.63 59.1109 318.62 59.1C318.605 59.0819 318.596 59.0588 318.596 59.035C318.596 59.0112 318.605 58.9881 318.62 58.97" fill="#5D3F31"/>
<path d="M324.5 63.82C324.61 65.69 325.79 67.14 327.11 67.06C328.43 66.98 329.43 65.39 329.31 63.52C329.19 61.65 328.02 60.2 326.69 60.28C325.36 60.36 324.38 61.95 324.5 63.82Z" fill="black"/>
<path d="M333.83 64C332.924 63.1822 331.916 62.4863 330.83 61.93C329.778 61.3704 328.588 61.1207 327.4 61.21C326.212 61.3783 325.062 61.7504 324 62.31C322.899 62.8516 321.833 63.4628 320.81 64.14C321.72 63.2938 322.727 62.5586 323.81 61.95C324.89 61.2885 326.095 60.8594 327.35 60.69C328.632 60.5901 329.913 60.8981 331.01 61.57C332.093 62.1932 333.047 63.0181 333.82 64" fill="#563329"/>
<path d="M333.46 88.59C333.46 88.59 337.74 91.78 340.61 91.59C343.84 91.39 347.25 87.71 347.25 87.71C344.889 87.1792 342.468 86.9606 340.05 87.06C337.795 87.2904 335.578 87.801 333.45 88.58" fill="white"/>
<path d="M333.46 88.59C335.604 87.8636 337.815 87.3544 340.06 87.07C342.474 87.0766 344.884 87.2941 347.26 87.72C347.26 87.72 345.38 85.52 340.84 85.15C336.3 84.78 333.46 88.59 333.46 88.59Z" fill="#B97E61"/>
<path d="M322.54 26.49C322.54 26.49 313.69 42 351.1 48.64C368.78 51.79 361.68 69.64 361.68 69.64C361.68 69.64 372.27 55.88 370.14 43.56C368.01 31.24 353.74 29.56 353.74 29.56C353.74 29.56 347.04 20.93 335.88 21.56C324.72 22.19 322.54 26.48 322.54 26.48" fill="#ED6D51"/>
<path d="M363.39 85.29C363.39 84.29 363.6 79.57 363.64 79.1H364.16L364.75 79.05H365.13C365.19 79.48 366.13 83.67 366.2 84.69C366.23 85.18 363.39 85.74 363.39 85.29Z" stroke="#FFE768" stroke-width="1.4" stroke-miterlimit="10"/>
<path d="M366.18 78C366.201 78.3507 366.118 78.6997 365.94 79.0031C365.763 79.3065 365.5 79.5507 365.185 79.7049C364.869 79.8592 364.515 79.9166 364.167 79.87C363.818 79.8233 363.492 79.6746 363.228 79.4427C362.964 79.2108 362.775 78.9059 362.684 78.5666C362.593 78.2273 362.604 77.8686 362.717 77.5358C362.829 77.203 363.038 76.9109 363.316 76.6963C363.594 76.4818 363.93 76.3543 364.28 76.33V76.33C364.514 76.3151 364.748 76.3465 364.97 76.4224C365.192 76.4984 365.396 76.6173 365.572 76.7725C365.747 76.9277 365.891 77.116 365.993 77.3266C366.096 77.5372 366.156 77.7661 366.17 78" fill="#16AF96"/>
<path d="M447.25 193.59C440.25 204.14 424.92 194.08 424.85 194.03C404.7 180.66 393.52 161.91 388.85 152.28C377.19 128.39 380.75 119.76 380.75 119.76C380.75 119.76 380.55 117.32 383.62 117.61C403.39 119.45 440.62 177.12 444.62 182.69C448.18 187.75 449.28 190.61 447.31 193.59" fill="#FFD601"/>
<path d="M461.23 134.88L460.77 132.19C460.52 130.732 460.633 129.234 461.1 127.83C461.692 126.102 462.755 124.574 464.168 123.417C465.581 122.26 467.289 121.52 469.1 121.28L484.35 116.63C489.83 115.86 490.68 117.49 491.57 122.71L493.24 132.53C494.13 137.76 494.07 137.27 488.9 138.97C488.9 138.97 477.9 144.11 472.79 142.97C467.68 141.83 462.1 140.09 461.21 134.87" fill="#F5A782"/>
<path d="M509.82 107.89C510.37 109.04 506.66 111.19 505.52 111.74L485.41 121.28C485.136 121.411 484.838 121.487 484.534 121.504C484.23 121.52 483.926 121.476 483.639 121.375C483.352 121.274 483.088 121.117 482.862 120.914C482.635 120.71 482.451 120.464 482.32 120.19C482.189 119.916 482.113 119.618 482.096 119.314C482.08 119.01 482.124 118.706 482.225 118.419C482.326 118.132 482.483 117.868 482.686 117.642C482.89 117.415 483.136 117.231 483.41 117.1V117.1L503.51 107.56C504.66 107.01 509.26 106.74 509.8 107.89" fill="#F5A782"/>
<path d="M517.22 114.9C517.62 116.17 514.71 118.24 513.44 118.65L490.44 125.97C489.841 126.126 489.205 126.049 488.662 125.752C488.119 125.456 487.709 124.964 487.516 124.375C487.324 123.787 487.363 123.148 487.625 122.587C487.888 122.027 488.355 121.588 488.93 121.36V121.36L512 114C513.27 113.6 516.85 113.6 517.26 114.88" fill="#F5A782"/>
<path d="M516.56 124C516.92 125.27 514.47 126.1 513.21 126.46L491.91 132.36C491.311 132.497 490.682 132.398 490.154 132.083C489.626 131.769 489.24 131.263 489.075 130.671C488.91 130.079 488.98 129.446 489.27 128.904C489.559 128.362 490.046 127.952 490.63 127.76L511.93 121.86C513.2 121.51 516.21 122.74 516.56 124Z" fill="#F5A782"/>
<path d="M510.7 133.16C510.92 134.44 508.18 135.5 506.91 135.72L490.13 138.4C489.527 138.481 488.916 138.324 488.426 137.963C487.936 137.603 487.605 137.066 487.502 136.466C487.4 135.866 487.534 135.25 487.877 134.747C488.22 134.244 488.744 133.894 489.34 133.77V133.77L506.12 131.09C507.39 130.87 510.48 131.89 510.7 133.16" fill="#F5A782"/>
<path d="M463.94 124.67C463.58 123.3 465.75 120.61 468.08 115.58C470.33 110.71 469.59 106.81 471.2 106.26C472.65 105.77 473.65 108.07 474.38 110.8C475.47 114.88 472.8 117.93 471.56 121.96C470.95 124.96 471.62 129.13 470.33 129.82C468.63 130.73 464.2 125.66 463.94 124.67" fill="#F5A782"/>
<g opacity="0.1">
<g opacity="0.1">
<g opacity="0.1">
<g opacity="0.1">
<path opacity="0.1" d="M475.16 122.28C475.16 122.28 481.16 128.06 479.78 132.55C478.4 137.04 481.84 135.38 481.84 135.38C481.84 135.38 482.75 126.65 479.79 123.26C477.11 120.26 475.03 119.38 475.16 122.26" fill="#41385A"/>
</g>
</g>
</g>
</g>
<path d="M450.91 148.57L461.25 129.8L474.4 140.4L466.19 158.74L450.91 148.57Z" fill="#F5A782"/>
<g opacity="0.2">
<g opacity="0.2">
<g opacity="0.2">
<g opacity="0.2">
<path opacity="0.2" d="M342.1 309.78V309.86L342.03 309.98C341.98 310.04 342.03 309.98 342.03 309.77" fill="#41385A"/>
</g>
</g>
</g>
</g>
<g opacity="0.2">
<g opacity="0.2">
<g opacity="0.2">
<g opacity="0.2">
<path opacity="0.2" d="M362.85 542.32V542.45H352.49C352.49 542.45 355.32 458.31 352.69 400.45C351.91 383.26 348.48 362.45 346.41 349.45C344.84 339.54 342.32 310.36 342.13 309.88C342.53 309.17 344.13 306.19 346.52 304.81C350.33 305.28 357.89 346.69 359.32 358.25C365.24 406.43 362.93 537.61 362.84 542.34" fill="#41385A"/>
</g>
</g>
</g>
</g>
<path d="M425.35 186.06C433.27 163.6 442.35 152.15 456.59 133.56C457.59 132.25 473 150.16 472.72 150.56C471.1 153.08 457.25 183.95 444.72 196.37C444.03 196.61 435.26 199.56 429.8 195.84C425.47 192.89 424.53 191.42 425.35 186.03" fill="#FFD601"/>
<g opacity="0.2">
<g opacity="0.2">
<g opacity="0.2">
<g opacity="0.2">
<path opacity="0.2" d="M313.23 114.16C313.23 114.16 312.88 118.7 319.51 120.06C320.547 121.366 321.907 122.379 323.456 122.998C325.005 123.617 326.688 123.821 328.34 123.59C329.676 124.613 331.219 125.333 332.861 125.701C334.503 126.069 336.205 126.075 337.85 125.72C343.4 128.47 347.23 127.07 347.23 127.07C347.23 127.07 351.94 128.53 355.48 125.45C361.82 125.27 362.75 122.45 362.75 122.45C362.75 122.45 367.51 122.95 369.02 119.45C369.984 119.067 370.815 118.412 371.413 117.565C372.012 116.719 372.351 115.716 372.39 114.68C372.39 114.68 368.06 113.45 365.79 114.68C359.046 117.867 351.708 119.605 344.25 119.78C334.66 119.72 323.46 116.39 320.73 114.18C318 111.97 313.23 114.18 313.23 114.18" fill="#41385A"/>
</g>
</g>
</g>
</g>
<path d="M313.23 113.55C313.23 113.55 312.88 118.09 319.51 119.45C320.549 120.754 321.91 121.764 323.458 122.381C325.007 122.998 326.689 123.201 328.34 122.97C329.677 123.992 331.219 124.713 332.86 125.082C334.502 125.452 336.204 125.461 337.85 125.11C343.4 127.85 347.23 126.46 347.23 126.46C347.23 126.46 351.94 127.91 355.48 124.83C361.82 124.65 362.75 121.83 362.75 121.83C362.75 121.83 367.51 122.34 369.02 118.83C369.983 118.449 370.814 117.796 371.412 116.951C372.011 116.106 372.35 115.105 372.39 114.07C372.39 114.07 368.06 112.83 365.79 114.07C359.047 117.262 351.708 118.999 344.25 119.17C334.66 119.11 323.46 115.78 320.73 113.57C318 111.36 313.23 113.57 313.23 113.57" fill="white"/>
<path d="M190.79 567C190.7 563.38 191.06 562.77 190.42 561.76C189.22 559.87 187.08 559.56 183.2 559.08C179.266 558.629 175.281 558.931 171.46 559.97C168.23 560.81 166.6 561.26 165.95 562.66C164.78 565.17 167.05 568.6 168.77 570.33C175.13 576.74 188.99 576.23 190.99 572.54C191.45 571.7 190.89 571.46 190.79 567.01" fill="#062D3E"/>
<path d="M137.45 588.53C136.35 589.53 136.2 591.74 136.18 592.23C135.999 593.452 136.3 594.696 137.02 595.7C137.84 596.7 139.02 597.1 143.24 597.9C146.57 598.54 148.24 598.9 150.16 599.06C156.32 599.69 157.05 599.21 167.1 599.52C171.26 599.65 172.61 599.38 174.99 598.65C177.81 597.79 177.91 597.34 180.94 596.4C182.56 595.9 183.2 595.96 189.94 595.13C193.61 594.68 194.22 594.56 194.6 594.13C195.96 592.43 192.25 588.63 190.65 587.08C185.937 588.487 181.123 589.53 176.25 590.2C169.79 591.08 162.73 592.05 154.25 590.78C145.77 589.51 139.69 586.5 137.45 588.58" fill="#062D3E"/>
<path d="M230 568C230.12 564.37 229.65 563.76 230.49 562.76C232.08 560.87 234.9 560.56 240.03 560.07C245.22 559.628 250.446 559.931 255.55 560.97C259.82 561.81 261.97 562.26 262.83 563.66C264.38 566.17 261.38 569.6 259.11 571.33C250.7 577.74 232.38 577.23 229.73 573.54C229.13 572.71 229.87 572.46 230.01 568.01" fill="#062D3E"/>
<path d="M226.39 584.69C225.83 585.4 226.7 585.92 226.39 589.43C226.26 590.78 226.05 591.57 226.81 592.3C227.57 593.03 228.63 593.19 230.38 593.44C233.643 594.048 236.944 594.432 240.26 594.59C248.05 594.67 248.46 596.45 258.34 597.17C263.57 597.55 267.5 597.28 275.34 596.74C282.98 596.22 286.43 595.54 289.43 593.87C289.99 593.56 293.79 591.41 293 590C292.38 588.88 289.17 588.76 288 588.71C275.57 588.2 254.23 586.53 250.78 586.27C238.36 585.33 228.12 582.49 226.39 584.69Z" fill="#062D3E"/>
<path d="M228.27 15.35C230.817 15.3655 233.297 16.1689 235.37 17.65C237.759 19.199 239.749 21.2887 241.18 23.75C243.78 28.14 242.46 29.75 244.48 34.15C247.15 39.97 250.33 39.04 252.01 43.55C254.08 49.13 249.47 51.26 250.07 59.41C250.6 66.61 254.39 67.41 254.16 74.04C253.96 79.83 251.06 80.3 250.36 85.8C249.21 94.8 256.52 97.6 256.6 106.18C256.67 113.72 251.12 123.4 241.97 125.55C233.03 127.65 224.31 121.72 220.66 115.22C218.91 112.09 217.83 107.94 220.88 91.76C225.7 66.16 231.16 61.93 227.76 54.1C223.35 44 211.51 45 210.54 36C209.61 27.41 219.81 19.51 221.31 18.35C224.5 15.88 226.71 15.35 228.26 15.35" fill="#B5533C"/>
<g opacity="0.2">
<g opacity="0.2">
<g opacity="0.2">
<g opacity="0.2">
<path opacity="0.2" d="M237.51 72.64C240.04 74.47 237.15 84.77 230.98 91.29C228.962 93.4033 226.593 95.1524 223.98 96.46C223.29 94.64 221.38 88.92 223.84 82.97C226.84 75.69 235.11 70.97 237.47 72.64" fill="#41385A"/>
</g>
</g>
</g>
</g>
<path d="M228.73 107.93L225.91 107.54V109.76H228.73V107.93Z" fill="#062D3E"/>
<path d="M210.49 104.11L179.21 115.68L181.68 142.42L238.68 141.58L246.68 114.94L210.49 104.11Z" fill="#F5A782"/>
<path d="M188.83 554.92C188.731 561.247 189.049 567.574 189.78 573.86L158.78 574.07C161.018 570.747 162.775 567.124 164 563.31C166.26 556.31 166 550.46 165.44 541.15C165.2 537.15 162.67 522.36 161.49 515.63C170 515.13 184.8 509.18 193.31 508.63C193.71 513.08 188.92 548.18 188.82 554.88" fill="#F5A782"/>
<path d="M189.32 565.46C188.965 565.139 188.55 564.892 188.098 564.734C187.646 564.576 187.168 564.51 186.69 564.54C185.51 564.81 185.56 566.22 184.43 567.16C183.53 567.9 181.77 568.45 178.03 567.77C178.09 565.94 178.3 565.66 178.97 562.56C179.83 558.61 180.67 557.37 179.72 556.4C178.11 554.74 174.36 557.02 167.11 556.4C161.91 555.95 159.86 554.4 158.45 555.47C156.78 556.69 158.97 559.27 158.82 563.79C158.69 568.08 156.54 568.89 154.68 571.62C152.29 575.14 149.61 577.38 144.33 581.79C138.84 586.38 135.95 587.98 136.04 590.88C136.132 591.729 136.397 592.55 136.818 593.293C137.24 594.036 137.809 594.685 138.49 595.2C141.39 597.42 145.03 596.51 152.23 596.43C165.23 596.27 166.41 598.59 173.13 596.74C177.06 595.65 177.68 594.55 182.73 593.5C188.73 592.25 190.6 593.24 192.33 591.8C195.03 589.57 191.33 586.46 191.2 577.47C191.13 572.24 192.2 567.68 189.32 565.47" fill="#025A7D"/>
<path d="M160 244.71C159.91 243.96 161.88 243.83 163.8 241.45C165.72 239.07 165.57 237.02 166.61 236.9C167.65 236.78 168.61 238.39 168.77 239.9C169.05 242.14 167.39 244.13 166.02 245.02C163.47 246.67 160.11 245.67 160.02 244.72" fill="#F5A782"/>
<path d="M226.07 118.53C224.34 124.33 219.72 130.78 207.57 128.83C189.78 126 196.22 99 196.22 99V79.32H227.07V110.38C227.179 113.133 226.841 115.885 226.07 118.53" fill="#F5A782"/>
<g opacity="0.2">
<g opacity="0.2">
<g opacity="0.2">
<g opacity="0.2">
<path opacity="0.2" d="M231.13 122.53L196.22 90.92L194.03 88.92H196.22L227.07 88.33V108.93L235.5 111.67C235.5 111.67 231.58 121.11 231.13 122.61" fill="#41385A"/>
</g>
</g>
</g>
</g>
<path d="M268.48 144.78C268.48 144.78 247.94 220.16 252.31 250.67H168.86C168.86 224.42 176.62 224.87 149.17 135.41C148.34 120.56 161.34 120.04 161.34 120.04C161.34 120.04 174.59 109.8 180.09 115.68C195.96 132.68 218.09 133.18 233.54 119.08C235.527 117.48 237.881 116.4 240.389 115.936C242.898 115.471 245.482 115.638 247.91 116.42C254.22 118.48 259.83 120.03 259.83 120.03C265.756 126.876 268.85 135.723 268.48 144.77" fill="#FFD601"/>
<path d="M229.45 544.38C231.09 552.641 231.781 561.062 231.51 569.48L254.89 569.2C253.467 560.608 253.178 551.867 254.03 543.2C255.19 531.37 258.73 512.48 254.55 508.64C249.46 503.98 233.29 506.22 226.2 511.44C224.12 512.98 228.2 537.99 229.45 544.34" fill="#F5A782"/>
<g opacity="0.2">
<g opacity="0.2">
<g opacity="0.2">
<g opacity="0.2">
<path opacity="0.2" d="M191.71 107.93C191.71 107.93 195.53 130.01 198.71 148.93C201.89 167.85 204.47 186.31 205.17 195.25C205.87 204.19 203.45 233.05 203.45 233.05C203.45 233.05 193.31 212.52 192.24 202.33C189.44 175.65 174.66 117.55 174.63 113.64C174.6 109.73 191.63 107.9 191.63 107.9" fill="#41385A"/>
</g>
</g>
</g>
</g>
<path d="M161.38 249.35C161.38 249.35 153.9 262.29 144.31 264.35C144.31 264.35 148.31 247.35 153.46 245.35C158.61 243.35 159.32 244.35 159.32 244.35L161.38 249.35Z" fill="#061C27"/>
<path d="M227.44 586.7C224.62 584.61 227.56 582.51 229.54 570.92C229.84 569.13 230.22 566.52 232.48 565.92C233.69 565.58 234.48 566.08 237.95 566.35C241.25 566.6 243.08 566.74 244.05 566.06C245.38 565.12 243.62 563.6 243.63 560.32C243.63 558.5 243.63 556.14 245.73 554.72C246.64 554.1 247.73 553.81 257.5 553.72C263.94 553.66 264.79 553.78 265.5 554.3C267.2 555.55 265.5 557.3 265.71 561.61C265.831 563.647 266.329 565.645 267.18 567.5C267.53 568.21 268.94 570.94 275.18 575.24C282.86 580.55 286.56 580.44 290.11 584.71C291.51 586.4 293.59 588.9 292.21 590.88C291.21 592.28 288.93 592.88 276.86 593.88C262.31 595.14 257.86 594.97 254.78 594.75C247.45 594.2 244.28 593.09 243.01 592.59C240.54 591.59 240.17 591.05 236.91 589.72C230.85 587.25 229.36 588.12 227.45 586.72" fill="#025A7D"/>
<path d="M259.46 406.76C261.46 438.84 262.21 541.54 262.21 541.54L233.49 541.9L223.07 542.03C223.07 542.03 225.92 457.25 223.27 398.97C222.48 381.65 219.03 360.66 216.94 347.56C215.36 337.56 212.75 308.11 212.62 307.7V307.6C212.62 307.66 212.62 307.74 212.62 307.82C211.78 312.24 206.84 364.82 203.35 401.59C197.89 458.92 198.01 541.78 198.01 541.78H157.91C157.91 541.78 167.2 418.21 164.59 391.68C165.17 355.09 158.01 321.44 158.67 293.68C159.16 272.58 168.76 227.24 168.76 227.24C184.87 225.88 190.36 230.32 199.39 230.68C199.39 230.68 229.55 227.24 256.39 227.24C256.39 227.24 259.05 264.53 262.74 290.84C265.06 307.39 261.08 376.32 259.49 406.84" fill="#01445E"/>
<path d="M240.64 231L184.41 236.8L185.64 248.26L241.86 242.46L240.64 231Z" fill="#347C97"/>
<path d="M240.64 231L184.41 236.8L185.64 248.26L241.86 242.46L240.64 231Z" stroke="white" stroke-width="2.83" stroke-linecap="round" stroke-linejoin="round"/>
<path d="M217.15 249.35C216.97 259.67 215.15 284.83 216.15 299.42" stroke="white" stroke-width="2.83" stroke-linecap="round" stroke-linejoin="round"/>
<path d="M208.11 250.64C207.93 256.39 207.44 272.98 207.46 281.94C209.446 283.434 211.618 284.664 213.92 285.6" stroke="white" stroke-width="2.83" stroke-linecap="round" stroke-linejoin="round"/>
<path d="M237.48 257.4C239.63 259.18 241.99 260.99 244.58 262.78C249.288 266.043 254.251 268.922 259.42 271.39" stroke="white" stroke-width="2.83" stroke-linecap="round" stroke-linejoin="round"/>
<path d="M184.75 257.4C181.781 263.568 176.979 268.667 171 272" stroke="white" stroke-width="2.83" stroke-linecap="round" stroke-linejoin="round"/>
<path d="M218.54 239.83C218.54 243.15 216.07 245.04 212.54 245.41C211.824 245.483 211.101 245.415 210.412 245.208C209.722 245.001 209.081 244.66 208.523 244.205C207.966 243.75 207.504 243.189 207.163 242.555C206.823 241.921 206.611 241.226 206.54 240.51C206.54 240.29 206.54 240.06 206.54 239.83C206.502 238.296 207.067 236.808 208.114 235.686C209.161 234.564 210.607 233.898 212.14 233.83C213.773 233.762 215.367 234.346 216.571 235.452C217.774 236.558 218.49 238.097 218.56 239.73V239.79" fill="#9ABDCB"/>
<path d="M218.54 239.83C218.54 243.15 216.07 245.04 212.54 245.41C211.824 245.483 211.101 245.415 210.412 245.208C209.722 245.001 209.081 244.66 208.523 244.205C207.966 243.75 207.504 243.189 207.163 242.555C206.823 241.921 206.611 241.226 206.54 240.51C206.54 240.29 206.54 240.06 206.54 239.83C206.502 238.296 207.067 236.808 208.114 235.686C209.161 234.564 210.607 233.898 212.14 233.83C213.774 233.762 215.369 234.345 216.574 235.451C217.78 236.557 218.497 238.096 218.57 239.73L218.54 239.83Z" stroke="white" stroke-width="2.65" stroke-linecap="round" stroke-linejoin="round"/>
<path d="M216.92 239.36C216.911 239.861 216.798 240.354 216.588 240.808C216.378 241.263 216.075 241.669 215.7 242C213.76 244.07 210.7 244.12 210.59 243.87C210.48 243.62 212.77 243.5 214.14 241.66C215.51 239.82 214.94 237.31 215.62 237.19C216.09 237.11 216.85 238.24 216.92 239.36Z" fill="white"/>
<path d="M203.84 299.9C193.68 309.34 153.9 299.9 153.9 299.9C156.22 290.23 164.45 248.05 164.9 234.9C165.21 226.52 166.83 219.06 165.52 211.47C162.8 195.72 159.34 182.87 156.98 172.68C151.98 151.09 153.79 121.33 159.98 119.35C175.11 114.54 185.58 110.52 185.58 110.52C192.12 127.89 195.17 154.86 199.72 178.57C206.72 215.26 201.15 285.3 203.79 299.93" fill="#062D3E"/>
<g opacity="0.2">
<g opacity="0.2">
<g opacity="0.2">
<g opacity="0.2">
<path opacity="0.2" d="M162.37 255.47L185.63 261.09L184.75 268.38C184.75 268.38 175.53 299.97 160.03 299.38C157.34 299.28 155.8 297.5 155.03 294.7L162.37 255.47Z" fill="#41385A"/>
</g>
</g>
</g>
</g>
<g opacity="0.2">
<g opacity="0.2">
<g opacity="0.2">
<g opacity="0.2">
<path opacity="0.2" d="M169.55 202.47L165.55 211.47C162.83 195.72 157.55 173.09 154.25 163.17L160 149.91L169.86 191.91C170.54 195.401 170.42 199.001 169.51 202.44" fill="#41385A"/>
</g>
</g>
</g>
</g>
<path d="M146.45 252.43C148.07 247.68 152.54 245.8 153.45 245.43C155.305 244.666 157.307 244.325 159.31 244.43C160.575 244.567 161.824 244.825 163.04 245.2C167.93 246.34 169.17 245.69 173.04 246.72C174.2 247.02 174.79 247.57 176.87 248.6C176.201 252.38 175.01 256.048 173.33 259.5C171.54 263.16 167.9 269.71 163.03 269.64C161.848 269.552 160.692 269.247 159.62 268.74C156.938 267.708 154.398 266.341 152.06 264.67C148.72 262.13 146.73 260.61 146.06 257.83C145.646 256.04 145.774 254.167 146.43 252.45" fill="#F5A782"/>
<path d="M171.68 247.37L184.37 249.65C184.37 249.65 189.86 250.55 192.43 250.84C193.146 250.9 193.814 251.22 194.31 251.74C194.626 252.021 194.817 252.415 194.844 252.836C194.87 253.258 194.728 253.672 194.45 253.99C194.28 254.176 194.072 254.322 193.84 254.42C192.66 255.08 173.84 253.2 173.84 253.2L171.68 247.37Z" fill="#F5A782"/>
<path d="M171.68 254L184.37 256C184.37 256 189.91 256.8 192.47 257C193.156 257.046 193.808 257.321 194.32 257.78C195.32 258.78 194.78 259.65 193.84 260.12C192.66 260.69 172.48 259.12 172.48 259.12L171.68 254Z" fill="#F5A782"/>
<path d="M168.75 259.7L181.44 261.7C181.44 261.7 186.99 262.5 189.54 262.7C190.227 262.75 190.878 263.028 191.39 263.49C192.39 264.49 191.86 265.36 190.91 265.82C189.74 266.4 169.55 264.82 169.55 264.82L168.75 259.7Z" fill="#F5A782"/>
<path d="M168.56 263.75L169.06 264.41C170.06 266.2 172.13 267 174.13 267.41C175.79 267.77 177.73 268.17 178.96 268.41C179.638 268.52 180.263 268.846 180.74 269.34C181.68 270.34 181.05 271.25 180.08 271.63C178.86 272.12 162.15 269.43 162.15 269.43L168.56 263.75Z" fill="#F5A782"/>
<g opacity="0.2">
<g opacity="0.2">
<g opacity="0.2">
<g opacity="0.2">
<path opacity="0.2" d="M183.66 109.25C183.66 109.25 190.19 129.73 193.11 148.67C196.03 167.61 199.46 185.87 200.11 194.81C200.76 203.75 203.5 233.08 203.5 233.08C203.5 233.08 189.5 212.08 188.41 201.88C185.41 174.88 174.72 117.58 174.69 113.67C174.66 109.76 183.69 109.25 183.69 109.25" fill="#41385A"/>
</g>
</g>
</g>
</g>
<path d="M190.53 107.93C190.53 107.93 193.66 130.01 196.58 148.93C199.5 167.85 201.67 186.31 202.3 195.25C202.93 204.19 203.48 233.05 203.48 233.05C203.48 233.05 191.57 212.52 190.6 202.32C188.07 175.65 176.89 116.57 176.86 112.66C176.83 108.75 190.53 107.9 190.53 107.9" fill="#004059"/>
<path d="M104.47 202.78C115.63 224.02 124.69 242.94 144.31 264.39C147.26 258.05 149.57 250.96 159.31 244.39C153.89 238.15 135.2 188.27 120.03 185.1C119.31 184.97 113.11 183.78 108.2 188.29C106.28 190.107 104.911 192.428 104.25 194.987C103.588 197.547 103.661 200.24 104.46 202.76" fill="#062D3E"/>
<path d="M174.84 117.73C170.74 117.39 163.91 116.1 158.17 119.47C147.76 125.58 141.07 132.81 133.36 145.2C121 165 112.26 179.31 106.81 188.27C103.58 193.62 102.92 199.68 105.5 202.9C108.98 207.25 123.44 203.35 133.56 196.9C144.67 183.4 152.04 166.34 164.37 154.49C166.14 153.89 174.27 153.27 175.05 141.82C175.95 128.63 175.53 119.11 174.84 117.73" fill="#062D3E"/>
<path d="M184.36 80.63C186.72 78.93 191.2 80.06 193.83 82.5C196.2 84.7 196.59 88.06 197.28 94.7C197.8 99.75 198.17 103.7 196.99 108.76C196.22 112.06 195.52 115.07 192.99 117.94C190.602 120.474 187.497 122.218 184.09 122.94C180.209 123.92 176.129 123.771 172.33 122.51C171.238 118.064 171.162 113.429 172.11 108.95C174.41 98.61 181.11 96.7 182.37 86.14C182.6 84.21 182.67 81.86 184.37 80.62" fill="#B5533C"/>
<path d="M187.38 72.58C188.24 78.9 194.55 95.83 210.33 99.13C210.33 99.13 217.33 101.5 228.55 88.23C235.55 79.9 236.01 73.3 236.01 73.3C236.01 73.3 236.73 61.9 236.01 54.87C235.29 47.84 234.86 36.93 216.5 34.93C198.14 32.93 191.97 41.09 190.1 44.68C188.23 48.27 186.51 66.27 187.38 72.59" fill="#F5A782"/>
<path d="M234.12 58.08C234.56 58.08 234.71 59.08 235.81 59.36C236.68 59.6 237.28 59.16 238.33 58.9C239.584 58.5559 240.914 58.6048 242.14 59.04C244.71 60.38 244.14 68.27 240.74 73.36C239.95 74.52 238.44 76.71 236.06 76.96C235.307 77.0313 234.549 76.918 233.85 76.63C229.25 74.38 232.36 58.1 234.12 58.07" fill="#F5A782"/>
<path d="M189.71 54.58C189.28 54.58 189.13 55.58 188.03 55.86C187.16 56.1 186.55 55.66 185.51 55.4C184.255 55.0585 182.925 55.1109 181.7 55.55C179.12 56.88 179.7 64.77 183.1 69.86C183.88 71.02 185.4 73.21 187.78 73.46C188.529 73.5372 189.286 73.4237 189.98 73.13C194.58 70.88 191.47 54.61 189.71 54.58Z" stroke="black" stroke-width="1.42" stroke-miterlimit="10"/>
<path d="M229.54 59.46C227.795 60.9073 225.803 62.0285 223.66 62.77C223.283 62.881 222.893 62.9382 222.5 62.94C222.113 62.9381 221.727 62.8911 221.35 62.8C219.529 62.3189 217.849 61.4105 216.45 60.15C217.622 58.6903 219.166 57.5744 220.92 56.92C221.43 56.7535 221.963 56.6658 222.5 56.66C223.026 56.6662 223.549 56.7333 224.06 56.86C226.021 57.4104 227.874 58.2896 229.54 59.46" fill="white"/>
<path d="M231.82 55.05C230.739 53.9021 229.479 52.9364 228.09 52.19C226.788 51.4676 225.319 51.1019 223.83 51.13C223.095 51.1829 222.372 51.3377 221.68 51.59C220.96 51.85 220.24 52.11 219.49 52.31C217.931 52.7366 216.333 53.0046 214.72 53.11C214.69 53.1101 214.661 53.0989 214.638 53.0785C214.616 53.0581 214.603 53.0301 214.6 53C214.591 52.9706 214.591 52.9394 214.6 52.91C215.196 52.2938 215.868 51.7561 216.6 51.31C217.302 50.8684 218.041 50.4902 218.81 50.18C219.596 49.8868 220.416 49.6953 221.25 49.61C222.115 49.5002 222.988 49.4601 223.86 49.49C225.6 49.6312 227.263 50.2699 228.65 51.33C229.313 51.8295 229.932 52.3849 230.5 52.99C231.064 53.5803 231.569 54.2232 232.01 54.91C232.029 54.9304 232.04 54.9572 232.04 54.985C232.04 55.0129 232.029 55.0396 232.01 55.06C231.992 55.0755 231.969 55.084 231.945 55.084C231.921 55.084 231.898 55.0755 231.88 55.06L231.82 55.05Z" fill="#5D3F31"/>
<path d="M215.17 87.9C214.639 88.1685 214.088 88.3926 213.52 88.57C212.94 88.7344 212.342 88.8251 211.74 88.84C211.135 88.8822 210.528 88.8282 209.94 88.68C209.359 88.5166 208.81 88.2526 208.32 87.9V87.9C208.92 87.97 209.47 88.11 210.04 88.2C210.61 88.29 211.16 88.43 211.73 88.46C212.89 88.5057 214.046 88.3152 215.13 87.9V87.9" fill="#8B5F4A"/>
<path d="M225.24 60C225.24 61.89 224.15 63.42 222.81 63.42C221.47 63.42 220.38 61.89 220.38 60C220.38 58.11 221.47 56.58 222.81 56.58C224.15 56.58 225.24 58.11 225.24 60Z" fill="black"/>
<path d="M216.45 60.15C217.161 59.1109 218.068 58.2208 219.12 57.53C220.182 56.7819 221.451 56.3865 222.75 56.4C224.017 56.4904 225.254 56.8303 226.39 57.4C227.512 57.9458 228.569 58.6167 229.54 59.4C228.467 58.7877 227.358 58.24 226.22 57.76C225.114 57.2715 223.935 56.9707 222.73 56.87C221.53 56.86 220.351 57.1893 219.33 57.82C218.271 58.442 217.302 59.2057 216.45 60.09" fill="#563329"/>
<path d="M193.37 59.37C195.116 60.8146 197.108 61.9325 199.25 62.67C199.626 62.7833 200.017 62.8372 200.41 62.83C200.794 62.8318 201.176 62.7882 201.55 62.7C203.375 62.2211 205.058 61.3125 206.46 60.05C205.286 58.5925 203.742 57.477 201.99 56.82C201.48 56.6535 200.947 56.5658 200.41 56.56C199.885 56.5678 199.362 56.6315 198.85 56.75C196.891 57.3091 195.039 58.1912 193.37 59.36" fill="white"/>
<path d="M191.45 54.16C191.829 53.5174 192.294 52.9288 192.83 52.41C193.363 51.873 193.957 51.3998 194.6 51C195.935 50.1692 197.468 49.7101 199.04 49.67C199.833 49.6612 200.626 49.7181 201.41 49.84C202.171 49.9427 202.913 50.1584 203.61 50.48C204.295 50.7979 204.946 51.1867 205.55 51.64C206.171 52.0982 206.727 52.64 207.2 53.25C207.211 53.2612 207.22 53.2744 207.226 53.289C207.232 53.3036 207.235 53.3192 207.235 53.335C207.235 53.3508 207.232 53.3664 207.226 53.381C207.22 53.3956 207.211 53.4089 207.2 53.42C207.188 53.427 207.174 53.4307 207.16 53.4307C207.146 53.4307 207.132 53.427 207.12 53.42V53.42C205.674 53.2608 204.247 52.9594 202.86 52.52C202.204 52.3242 201.559 52.0905 200.93 51.82C200.317 51.5698 199.676 51.3984 199.02 51.31C197.688 51.1884 196.347 51.3908 195.11 51.9C193.805 52.4316 192.629 53.2363 191.66 54.26C191.65 54.2709 191.637 54.2796 191.624 54.2855C191.61 54.2915 191.595 54.2945 191.58 54.2945C191.565 54.2945 191.55 54.2915 191.536 54.2855C191.523 54.2796 191.51 54.2709 191.5 54.26C191.488 54.2406 191.481 54.2181 191.481 54.195C191.481 54.172 191.488 54.1494 191.5 54.13" fill="#5D3F31"/>
<path d="M197.67 59.89C197.67 61.77 198.75 63.31 200.1 63.31C201.45 63.31 202.53 61.78 202.53 59.89C202.53 58 201.44 56.47 200.1 56.47C198.76 56.47 197.67 58 197.67 59.89Z" fill="black"/>
<path d="M206.46 60.05C205.602 59.1678 204.63 58.4043 203.57 57.78C202.552 57.1527 201.376 56.8267 200.18 56.84C198.973 56.9288 197.792 57.2301 196.69 57.73C195.55 58.2025 194.441 58.747 193.37 59.36C194.339 58.5742 195.396 57.903 196.52 57.36C197.652 56.7813 198.891 56.441 200.16 56.36C201.458 56.3388 202.729 56.7311 203.79 57.48C204.836 58.1791 205.741 59.0677 206.46 60.1" fill="#563329"/>
<path d="M203.38 83.7C205.96 84.7697 208.709 85.3724 211.5 85.48C215.79 85.48 220.1 82.64 220.1 82.64C220.1 82.64 216.19 82.89 211.5 82.89C208.773 82.8893 206.053 83.1607 203.38 83.7Z" fill="#B97E61"/>
<path d="M208 24.2C208 24.2 212 40.68 224.76 45.74C237.52 50.8 240.1 46.45 240.1 46.45L228.1 30.03L208 24.2Z" fill="#B5533C"/>
<path d="M175.42 45.45C175.6 44.45 175.92 42.91 175.99 42.01C176.038 41.5397 176.112 41.0724 176.21 40.61C176.21 40.48 176.28 40.35 176.33 40.17C178.014 35.0982 180.72 30.4254 184.28 26.44C189.982 19.9706 197.575 15.4596 205.984 13.5464C214.393 11.6331 223.19 12.4146 231.13 15.78C218.67 23.3 215.98 28.59 216.07 32.14C216.269 33.541 216.121 34.9693 215.64 36.3C214.31 39.48 211.36 39.58 207.18 43.47C204.81 45.67 205.48 45.9 203.18 48.06C198.8 52.14 196.47 51.18 194.43 53.52C190.3 58.22 197.23 64.93 193.85 74.18C191.85 79.6 188.91 78.86 187.25 84.36C184.95 91.99 190.25 94.63 188.11 100.86C185.97 107.09 179.73 106.86 174.91 115.78C173.768 117.912 172.901 120.18 172.33 122.53C165.08 120.3 163.39 118.04 163.22 116.36C162.84 112.66 169.67 109.81 169.22 104.31C168.987 103.295 168.7 102.294 168.36 101.31C166.78 96.14 166.12 95.53 165.64 93.14C165.1 90.47 164.64 88.05 165.78 85.82C167.31 82.91 170.18 83.11 171.78 79.75C172.294 78.4798 172.553 77.1204 172.54 75.75C172.93 69.65 170.08 69.11 171.11 63.42C171.96 58.68 174.11 58.18 174.7 52.65C174.85 51.25 175.07 47.97 175.5 45.45" fill="#ED6D51"/>
<path d="M238.39 85.27C237.818 85.4919 237.213 85.6202 236.6 85.65H236C235.39 85.6191 234.789 85.4909 234.22 85.27C234.571 84.6939 234.78 84.0427 234.83 83.37C234.89 82.37 234.53 82 234.65 80.86C234.751 80.3018 234.888 79.7507 235.06 79.21C235.27 78.34 235.4 77.62 235.47 77.16H237C237.048 77.7959 237.173 78.4236 237.37 79.03C237.6 79.77 237.74 79.84 237.86 80.35C238.11 81.35 237.74 81.88 237.72 82.9C237.722 83.7473 237.957 84.5777 238.4 85.3" fill="#FFE768"/>
<path d="M238.11 76.16C238.11 76.516 238.004 76.864 237.807 77.16C237.609 77.456 237.328 77.6867 236.999 77.823C236.67 77.9592 236.308 77.9949 235.959 77.9254C235.61 77.8559 235.289 77.6845 235.037 77.4328C234.785 77.181 234.614 76.8603 234.545 76.5112C234.475 76.162 234.511 75.8001 234.647 75.4712C234.783 75.1423 235.014 74.8611 235.31 74.6633C235.606 74.4656 235.954 74.36 236.31 74.36V74.36C236.787 74.36 237.245 74.5496 237.583 74.8872C237.92 75.2248 238.11 75.6826 238.11 76.16" fill="#16AF96"/>
<path d="M277.42 220.59C274 222.59 268 219 263 212C262.19 210.88 263 209.81 262.22 208.53L262.12 208.35C261.91 207.98 261.71 207.61 261.5 207.22C261.5 207.15 261.42 207.08 261.39 207.01C250.59 185.17 249.46 163.08 251.09 152.41C251.09 152.2 251.16 151.99 251.19 151.78L251 151.59L250.95 151.54L251.33 150.25L256.51 133.1L260.51 119.97L259.64 115.65C261.8 116.94 265.73 119.96 267.28 122.65C281.81 147.88 283.71 200.24 284.33 207.08C284.88 213.3 280.59 218.74 277.49 220.56" fill="#062D3E"/>
<g opacity="0.2">
<g opacity="0.2">
<g opacity="0.2">
<g opacity="0.2">
<path opacity="0.2" d="M258.92 200.69C258.92 200.62 258.84 200.55 258.81 200.48C248.01 178.64 246.88 156.55 248.51 145.88C248.51 145.66 248.58 145.46 248.61 145.25L248.42 145.06L248.37 145.01L248.75 143.72L254.58 132.05C258.43 139.82 260.98 144.14 264.81 155.22C270.37 171.35 262.81 192.68 258.92 200.69" fill="#41385A"/>
</g>
</g>
</g>
</g>
<path d="M272.16 299.68C264.99 299.01 254.61 301.68 242.59 301.51C235.193 301.475 227.868 300.047 221 297.3C221.92 283.64 220.1 212.07 227.13 175.39C231.68 151.67 228.13 128.2 230.21 108.49C230.21 108.49 245.3 112.49 259.6 115.67C273.83 126.11 262.78 157.77 260.79 167.92C257.69 183.72 259.03 192.72 256.98 217.61C256.87 218.89 256.76 220.22 256.63 221.61C257.12 234.79 278.86 298.77 272.19 299.7" fill="#062D3E"/>
<g opacity="0.2">
<g opacity="0.2">
<g opacity="0.2">
<g opacity="0.2">
<path opacity="0.2" d="M212.6 307.6V307.68C212.6 307.74 212.54 307.78 212.53 307.81C212.52 307.84 212.53 307.81 212.53 307.59" fill="#41385A"/>
</g>
</g>
</g>
</g>
<g opacity="0.2">
<g opacity="0.2">
<g opacity="0.2">
<g opacity="0.2">
<path opacity="0.2" d="M233.5 541.89V542H223.07C223.07 542 225.92 457.22 223.27 398.94C222.48 381.61 219.03 360.62 216.94 347.52C215.36 337.52 212.82 308.14 212.63 307.66C213.04 306.94 214.63 303.94 217.05 302.56C220.89 303.02 228.51 344.76 229.94 356.4C235.94 404.94 233.58 537.1 233.49 541.87" fill="#41385A"/>
</g>
</g>
</g>
</g>
<g opacity="0.2">
<g opacity="0.2">
<g opacity="0.2">
<g opacity="0.2">
<path opacity="0.2" d="M272.16 299.68C264.99 299.01 254.61 301.68 242.59 301.51C244.01 289.65 246.53 267.79 246.72 260.99C246.94 252.99 254.63 225.68 256.95 217.61C256.84 218.89 256.73 220.22 256.6 221.61C257.09 234.78 278.83 298.76 272.16 299.7" fill="#41385A"/>
</g>
</g>
</g>
</g>
<path d="M251.32 278.05C251.62 277.58 254.13 273.79 258.14 272.56C263.14 271.01 269.61 273.76 271.69 278.27C272.83 280.75 272.58 283.58 272.23 287.55C272.14 288.55 272.16 287.84 271.47 292.61C270.88 296.74 270.74 298.13 269.99 300.04C269.502 301.278 268.868 302.453 268.1 303.54C262.91 302.989 257.953 301.093 253.72 298.04C252.72 297.32 244.53 291.21 245.82 286.83C246.12 285.83 246.68 285.83 248.59 282.89C250.21 280.39 250.41 279.46 251.32 278.04" fill="#F5A782"/>
<path d="M246.14 286.15C246.14 286.15 244.91 288.5 244.14 290C243.37 291.5 240.48 296.46 238.38 297.25C238.38 297.25 237.67 298.81 241.45 298.42C245.23 298.03 249.84 291.13 249.84 291.13L246.14 286.15Z" fill="#F5A782"/>
<path d="M248.54 291.85C248.54 291.85 243.84 316.69 243.88 317.51C243.92 318.33 244.02 319.91 244.96 319.57C245.9 319.23 250.15 307.74 250.84 305.52C251.53 303.3 254.04 293.52 253.84 291.85C253.64 290.18 248.52 291.85 248.52 291.85" fill="#F5A782"/>
<path d="M253.65 293.89C253.65 293.89 248.54 319.62 248.54 320.96C248.54 322.3 248.79 324.56 249.34 324.66C249.89 324.76 250.74 325.08 252.23 320.19C253.72 315.3 260.51 294.48 260.51 294.48L253.65 293.89Z" fill="#F5A782"/>
<path d="M264.25 296.41C264.25 296.41 260.05 317.89 258.56 320.67C257.07 323.45 256.12 323.84 255.34 323.55C254.56 323.26 255.15 317.47 256.98 310.02C258.81 302.57 259.62 289.74 259.62 289.74L264.25 296.41Z" fill="#F5A782"/>
<path d="M269 301.49C267.37 309.58 264.62 318.08 263.13 317.6C261.64 317.12 264.26 298.77 264.26 298.77L269 301.49Z" fill="#F5A782"/>
<path d="M284.14 210.79C284.67 234.789 281.451 258.724 274.6 281.73C274.12 283.33 252 272.27 252.11 271.73C252.75 268.78 254.78 224.03 262.2 207.87C262.76 207.41 269.99 201.51 276.46 203.08C281.58 204.33 283 205.38 284.14 210.76" fill="#062D3E"/>
<g opacity="0.2">
<g opacity="0.2">
<g opacity="0.2">
<g opacity="0.2">
<path opacity="0.2" d="M231.63 108.45C232.56 108.6 233.5 108.72 234.43 108.91C237.36 109.49 239.94 111.91 240.76 112.74C241.58 113.57 236.49 190.43 234.4 200.14C232.31 209.85 222.14 231.26 222.14 231.26C222.14 231.26 222.79 189.7 227.45 146.84C228.91 133.39 231.64 108.45 231.64 108.45" fill="#41385A"/>
</g>
</g>
</g>
</g>
<path d="M228.73 107.93C229.66 108.08 231.42 108.2 232.35 108.39C235.405 109.189 238.287 110.545 240.85 112.39C241.66 113.24 234.4 189.88 232.31 199.59C230.22 209.3 222.13 230.71 222.13 230.71C222.13 230.71 220.7 189.15 225.36 146.29C226.82 132.84 228.73 107.9 228.73 107.9" fill="#004059"/>
<path d="M254.56 155C254.56 154.91 254.56 154.82 254.56 154.74V154.5V154.28C254.56 154.12 254.49 153.96 254.45 153.78L254.39 153.58L254.3 153.31V153.25V153.19C254.332 152.918 254.349 152.644 254.35 152.37V152C254.35 151.91 254.35 151.84 254.35 151.75V151.52C254.356 151.44 254.356 151.36 254.35 151.28C254.35 151.19 254.35 151.11 254.35 151.04L254.29 150.79C254.24 150.62 254.19 150.48 254.15 150.35C254.11 150.22 254.1 150.21 254.07 150.15C254.04 150.09 254.02 150.02 253.99 149.96C253.9 149.758 253.8 149.561 253.69 149.37C253.69 149.31 253.62 149.25 253.58 149.2C253.233 148.654 252.793 148.173 252.28 147.78L252.11 147.65C252.049 147.616 251.992 147.576 251.94 147.53L251.56 147.3H251.51H251.45L251.15 147.16H251.1C251.063 147.137 251.022 147.12 250.98 147.11L250.78 147.02L250.58 146.95L250.38 146.89C250.078 146.81 249.77 146.75 249.46 146.71H249.26H248.46C248.24 146.71 248.01 146.71 247.79 146.77H247.61L247.34 146.82L247.07 146.88L246.81 146.95H246.69H246.56H246.49H246.44L246.27 147.01C246.137 147.059 246.007 147.116 245.88 147.18H245.83C245.763 147.202 245.699 147.232 245.64 147.27C245.349 147.41 245.069 147.571 244.8 147.75C244.709 147.808 244.622 147.871 244.54 147.94L244.34 148.09L244.02 148.35L243.83 148.53L243.66 148.7C243.644 148.697 243.626 148.697 243.61 148.7V148.7C243.551 148.755 243.498 148.815 243.45 148.88C242.979 149.406 242.588 149.999 242.29 150.64L242.19 150.85C242.19 150.92 242.12 151.02 242.09 151.11C242.06 151.2 242.09 151.24 242.02 151.3V151.4V151.51C242.02 151.51 241.97 151.69 241.95 151.77L241.89 152.04C241.885 152.107 241.885 152.173 241.89 152.24V152.24C241.885 152.293 241.885 152.347 241.89 152.4C241.89 152.58 241.89 152.74 241.83 152.89C241.77 153.04 241.83 153.03 241.83 153.1C241.83 153.17 241.83 153.33 241.83 153.45C241.815 153.696 241.815 153.944 241.83 154.19V154.44C241.83 154.61 241.88 154.78 241.91 154.93L241.97 155.17V155.31C241.97 155.31 241.97 155.4 241.97 155.45L242.03 155.64V155.69C242.03 155.69 242.1 155.9 242.14 156C242.169 156.093 242.206 156.183 242.25 156.27V156.32L242.4 156.63L242.53 156.88V156.96C242.567 157.022 242.607 157.082 242.65 157.14C242.673 157.189 242.7 157.236 242.73 157.28C242.785 157.37 242.845 157.457 242.91 157.54L243.09 157.77C243.18 157.89 243.28 158 243.38 158.11C243.445 158.191 243.515 158.268 243.59 158.34L243.67 158.43L243.9 158.64L244.15 158.86C244.228 158.933 244.312 159 244.4 159.06L244.59 159.2L244.95 159.44L245.16 159.57L245.41 159.71L245.58 159.8L245.82 159.91L246.1 160.03L246.38 160.13H246.43H246.48H246.58H246.68L246.88 160.19H246.95L247.28 160.26L247.59 160.32C247.977 160.38 248.368 160.41 248.76 160.41H249.04H249.37H249.6H249.78H250.01L250.24 160.35L250.52 160.27L250.71 160.21L250.86 160.15C250.933 160.131 251.003 160.104 251.07 160.07L251.3 159.97C251.566 159.844 251.823 159.701 252.07 159.54L252.26 159.4C252.56 159.181 252.842 158.937 253.1 158.67L253.22 158.54L253.37 158.36L253.53 158.16C253.557 158.118 253.587 158.078 253.62 158.04C253.72 157.9 253.8 157.77 253.87 157.66L253.97 157.48C253.97 157.41 254.04 157.35 254.07 157.29C254.16 157.115 254.24 156.934 254.31 156.75C254.338 156.685 254.361 156.618 254.38 156.55V156.5C254.408 156.435 254.431 156.368 254.45 156.3C254.444 156.277 254.444 156.253 254.45 156.23V156.23C254.45 156.17 254.45 156.12 254.45 156.06L254.51 155.81C254.51 155.73 254.51 155.64 254.51 155.55C254.506 155.523 254.506 155.496 254.51 155.47C254.51 155.37 254.51 155.37 254.51 155.27C254.515 155.183 254.515 155.097 254.51 155.01C254.51 154.9 254.51 154.8 254.51 154.7V155H254.56ZM248.42 157.52H248.15L247.87 157.47L247.67 157.41H247.55H247.49C247.303 157.34 247.122 157.253 246.95 157.15L246.8 157.05L246.61 156.9L246.39 156.69C246.345 156.652 246.305 156.608 246.27 156.56L246.17 156.44C246.134 156.399 246.101 156.355 246.07 156.31L246 156C245.839 155.722 245.731 155.417 245.68 155.1C245.674 155.027 245.674 154.953 245.68 154.88V154.81C245.675 154.723 245.675 154.637 245.68 154.55C245.673 153.819 245.934 153.111 246.413 152.558C246.892 152.006 247.556 151.647 248.28 151.55H248.56L248.42 157.52ZM248.42 151.11H248.2C247.356 151.192 246.572 151.586 246.003 152.215C245.433 152.843 245.118 153.662 245.12 154.51V154.69C245.115 154.75 245.115 154.81 245.12 154.87V155.07C245.115 155.12 245.115 155.17 245.12 155.22C245.261 155.911 245.61 156.543 246.12 157.03L246.31 157.19C246.442 157.292 246.583 157.382 246.73 157.46L246.94 157.57C247.023 157.612 247.11 157.645 247.2 157.67C247.281 157.706 247.365 157.736 247.45 157.76L247.73 157.82H248.01H248.23V159.15H247.96H247.77H247.62H247.54C247.487 159.16 247.433 159.16 247.38 159.15V159.15H247.21C247.012 159.102 246.818 159.038 246.63 158.96L246.45 158.88L246.26 158.79C245.963 158.648 245.684 158.47 245.43 158.26L245.27 158.13C245.219 158.092 245.172 158.048 245.13 158C244.719 157.613 244.38 157.156 244.13 156.65L244.04 156.45C243.98 156.32 243.93 156.19 243.88 156.06C243.877 156.007 243.877 155.953 243.88 155.9C243.877 155.853 243.877 155.807 243.88 155.76C243.858 155.681 243.842 155.601 243.83 155.52V155.37V155.21C243.798 154.981 243.782 154.751 243.78 154.52C243.788 153.322 244.242 152.171 245.054 151.291C245.866 150.41 246.977 149.865 248.17 149.76H248.44L248.42 151.11ZM248.42 149.29H248.19C246.875 149.376 245.642 149.96 244.741 150.922C243.841 151.884 243.34 153.152 243.34 154.47C243.337 154.728 243.354 154.985 243.39 155.24V155.39V155.53C243.402 155.601 243.419 155.671 243.44 155.74C243.44 155.82 243.44 155.89 243.49 155.95C243.54 156.01 243.54 156.09 243.56 156.15C243.556 156.17 243.556 156.19 243.56 156.21V156.21C243.582 156.282 243.609 156.352 243.64 156.42C243.671 156.499 243.707 156.576 243.75 156.65C243.776 156.712 243.806 156.772 243.84 156.83C243.93 157.002 244.031 157.169 244.14 157.33L244.29 157.52L244.44 157.71V157.76C244.54 157.88 244.64 157.98 244.75 158.09C244.967 158.302 245.202 158.496 245.45 158.67L245.64 158.79C245.772 158.875 245.909 158.951 246.05 159.02L246.23 159.11L246.45 159.2L246.6 159.26H246.65L246.94 159.35H247.02H247.11C247.29 159.402 247.474 159.439 247.66 159.46H248H248.24H248.46V160.59H248.21H247.81H247.54H247.29L247.07 160.54H247L246.83 160.49C246.65 160.447 246.473 160.394 246.3 160.33L246.04 160.23C245.716 160.096 245.402 159.938 245.1 159.76H245.03L244.86 159.64C244.778 159.599 244.7 159.549 244.63 159.49L244.34 159.28L244.17 159.13L244.1 159.07L243.83 158.82C243.75 158.73 243.67 158.66 243.6 158.57C243.511 158.481 243.428 158.388 243.35 158.29L243.15 158.04L242.95 157.75L242.8 157.51V157.44C242.7 157.28 242.63 157.12 242.55 156.97C242.546 156.93 242.546 156.89 242.55 156.85V156.8C242.538 156.758 242.521 156.718 242.5 156.68C242.469 156.615 242.442 156.548 242.42 156.48C242.42 156.4 242.35 156.31 242.32 156.21L242.23 155.92L242.17 155.71C242.15 155.638 242.133 155.564 242.12 155.49C242.115 155.474 242.115 155.456 242.12 155.44C242.087 155.325 242.064 155.208 242.05 155.09C242.044 155.003 242.044 154.917 242.05 154.83V154.6C242.045 154.503 242.045 154.407 242.05 154.31C242.05 154.21 242.05 154.09 242.05 153.97C242.052 152.212 242.727 150.521 243.935 149.244C245.144 147.966 246.795 147.2 248.55 147.1H248.81L248.42 149.29ZM248.84 147.05H249.11L249.49 147.11H249.71L249.89 147.16H250.06C250.444 147.273 250.813 147.43 251.16 147.63L251.45 147.82L251.61 147.93L251.9 148.16L252.05 148.29C252.071 148.316 252.094 148.339 252.12 148.36L252.18 148.42L252.32 148.56L252.4 148.65L252.48 148.73L252.53 148.79L252.65 148.95C252.848 149.208 253.019 149.487 253.16 149.78C253.16 149.78 253.21 149.89 253.24 149.95L253.29 150.05V150.12C253.318 150.185 253.341 150.252 253.36 150.32C253.374 150.368 253.39 150.414 253.41 150.46V150.54C253.414 150.59 253.414 150.64 253.41 150.69C253.439 150.782 253.463 150.875 253.48 150.97C253.48 151.05 253.48 151.14 253.48 151.23L253.65 152.23L253.05 151.45C252.963 151.33 252.863 151.21 252.75 151.09C252.672 150.999 252.588 150.912 252.5 150.83L252.24 150.59L252.17 150.53L251.92 150.33L251.84 150.27L251.59 150.1C251.465 150.014 251.335 149.938 251.2 149.87L250.97 149.75L250.69 149.62L250.45 149.52L250.27 149.45L250.11 149.4H250.04H249.84L249.62 149.34C249.38 149.29 249.14 149.26 248.9 149.23H248.68L248.84 147.05ZM248.84 149.71H249.11H249.45H249.52L249.87 149.79C249.969 149.809 250.065 149.836 250.16 149.87L250.37 149.94L250.61 150.03H250.69L250.91 150.13C251.018 150.173 251.122 150.227 251.22 150.29C251.308 150.331 251.392 150.381 251.47 150.44L251.65 150.56L251.72 150.61L251.88 150.72L252.04 150.85C252.084 150.878 252.125 150.911 252.16 150.95L252.35 151.12L252.58 151.37L252.69 151.49C252.749 151.552 252.802 151.619 252.85 151.69L253.02 151.92L253.15 152.12C253.2 152.2 253.25 152.27 253.28 152.33L253.43 152.61C253.49 152.73 253.55 152.85 253.6 152.98V153.04V153.11C253.509 153.594 253.348 154.063 253.12 154.5L252.8 155.14L252.67 154.43C252.67 154.33 252.67 154.23 252.6 154.13L252.51 153.83C252.51 153.73 252.44 153.65 252.41 153.57V153.51V153.46L252.35 153.34V153.28V153.23C252.327 153.178 252.301 153.128 252.27 153.08L252.13 152.87C252.06 152.76 251.97 152.65 251.89 152.54L251.71 152.35L251.58 152.22C251.283 151.927 250.947 151.678 250.58 151.48L250.41 151.4L250.25 151.33L250.07 151.26C249.771 151.16 249.463 151.089 249.15 151.05H248.94L248.84 149.71ZM248.84 151.53L249.12 151.58L249.44 151.64L249.71 151.72L250 151.83L250.23 151.93H250.28L250.53 152.08C250.707 152.189 250.874 152.312 251.03 152.45C251.11 152.512 251.184 152.582 251.25 152.66C251.295 152.698 251.335 152.742 251.37 152.79L251.47 152.9C251.719 153.201 251.921 153.539 252.07 153.9V153.96V154.06C252.068 154.083 252.068 154.107 252.07 154.13C252.07 154.13 252.07 154.22 252.07 154.27V154.39C252.07 154.44 252.07 154.49 252.07 154.54C252.122 154.804 252.149 155.071 252.15 155.34C252.16 155.463 252.16 155.587 252.15 155.71V155.79L252.1 155.86C251.25 156.749 250.113 157.309 248.89 157.44H248.62L248.84 151.53ZM248.84 157.95H249.06C249.913 157.875 250.738 157.605 251.47 157.16L252.35 156.61L251.8 157.49C251.505 157.958 251.113 158.357 250.651 158.661C250.189 158.964 249.667 159.165 249.12 159.25H248.84V157.95ZM254.08 155.53C254.08 155.6 254.08 155.67 254.08 155.73V155.96C254.085 156.04 254.085 156.12 254.08 156.2C254.086 156.267 254.086 156.333 254.08 156.4L254.02 156.68L253.91 157.04L253.79 157.37C253.74 157.46 253.7 157.57 253.66 157.66C253.62 157.75 253.54 157.88 253.49 157.99C253.44 158.1 253.39 158.16 253.32 158.26L253.18 158.47V158.52C253.065 158.676 252.941 158.827 252.81 158.97L252.75 159.04L252.55 159.24L252.36 159.41L252.3 159.47L252.05 159.66L251.8 159.84H251.75L251.51 159.99L251.23 160.14L250.94 160.27C250.735 160.358 250.525 160.432 250.31 160.49L250.08 160.55L249.64 160.64H249.36H249.1V159.51H249.31C250.227 159.395 251.083 158.987 251.751 158.348C252.419 157.709 252.864 156.871 253.02 155.96V156H253.07C253.14 155.91 253.22 155.82 253.29 155.72C253.438 155.53 253.572 155.33 253.69 155.12C253.75 155.02 253.8 154.91 253.86 154.8L254.27 154L254.32 154.9C254.32 155.02 254.32 155.15 254.32 155.27C254.325 155.36 254.325 155.45 254.32 155.54" fill="white"/>
</g>
<defs>
<clipPath id="clip0_1_2">
<rect width="517" height="621" fill="white"/>
</clipPath>
</defs>
</svg>
