<svg id="Groupe_273" data-name="Groupe 273" xmlns="http://www.w3.org/2000/svg" xmlns:xlink="http://www.w3.org/1999/xlink" width="119.38" height="82.133" viewBox="0 0 119.38 82.133">
  <defs>
    <clipPath id="clip-path">
      <rect id="Rectangle_735" data-name="Rectangle 735" width="119.38" height="82.133" fill="none"/>
    </clipPath>
  </defs>
  <g id="Groupe_272" data-name="Groupe 272" clip-path="url(#clip-path)">
    <path id="Tracé_2744" data-name="Tracé 2744" d="M208.317,106.752h0a9.742,9.742,0,0,1,9.743,9.743v0a1.7,1.7,0,0,1-1.7,1.7h-8.043a1.7,1.7,0,0,1-1.7-1.7v-8.045a1.7,1.7,0,0,1,1.7-1.7" transform="translate(-112.495 -58.122)" fill="#00577d"/>
    <path id="Tracé_2745" data-name="Tracé 2745" d="M190.182,138.548H136.31a2.211,2.211,0,0,0-2.21,2.211v11.558a2.211,2.211,0,0,0,2.21,2.211h4.9v2.479a.525.525,0,0,0,.722.515,4,4,0,0,0,2.314-2.994h45.935a2.21,2.21,0,0,0,2.21-2.211V140.759a2.21,2.21,0,0,0-2.21-2.211" transform="translate(-73.012 -75.434)" fill="#00a7d6"/>
    <path id="Tracé_2746" data-name="Tracé 2746" d="M148.6,154.075a7.985,7.985,0,0,1-1.993.382,2.549,2.549,0,0,1-1.983-.753,2.516,2.516,0,0,1-.62-1.783v-1.86a2.362,2.362,0,0,1,2.6-2.546,8.081,8.081,0,0,1,1.984.353l-.267,1.1a6.168,6.168,0,0,0-1.716-.334q-1.382,0-1.383,1.529v1.653q0,1.53,1.383,1.529a6.24,6.24,0,0,0,1.687-.344Z" transform="translate(-78.404 -80.315)" fill="#fff"/>
    <path id="Tracé_2747" data-name="Tracé 2747" d="M160.355,154.222a2.114,2.114,0,0,1-.583,1.517,2.019,2.019,0,0,1-1.529.61,2.06,2.06,0,0,1-1.553-.61,2.106,2.106,0,0,1-.587-1.517v-1.106a2.107,2.107,0,0,1,.583-1.521,2.036,2.036,0,0,1,1.539-.605,2.03,2.03,0,0,1,2.131,2.127Zm-1.22-.088V153.2q0-1.1-.911-1.1t-.9,1.1v.928q0,1.1.92,1.1.891,0,.892-1.1" transform="translate(-84.992 -82.208)" fill="#fff"/>
    <path id="Tracé_2748" data-name="Tracé 2748" d="M171.763,154.222a2.112,2.112,0,0,1-.583,1.517,2.017,2.017,0,0,1-1.529.61,2.058,2.058,0,0,1-1.553-.61,2.1,2.1,0,0,1-.588-1.517v-1.106a2.1,2.1,0,0,1,.583-1.521,2.039,2.039,0,0,1,1.538-.605,2.029,2.029,0,0,1,2.131,2.127Zm-1.221-.088V153.2q0-1.1-.911-1.1t-.9,1.1v.928q0,1.1.92,1.1.892,0,.892-1.1" transform="translate(-91.203 -82.208)" fill="#fff"/>
    <path id="Tracé_2749" data-name="Tracé 2749" d="M183.246,154.365a1.99,1.99,0,0,1-.536,1.406,1.773,1.773,0,0,1-1.359.577,2.581,2.581,0,0,1-1.072-.276q.036.486.048,1.106v.877h-1.221v-7h1.033l.038.267a2.461,2.461,0,0,1,1.175-.333,1.778,1.778,0,0,1,1.357.572,1.977,1.977,0,0,1,.536,1.4Zm-1.222-.137v-1.157q0-.967-.777-.967a2.188,2.188,0,0,0-.92.2v2.759a3.086,3.086,0,0,0,.92.17q.777,0,.777-1" transform="translate(-97.517 -82.208)" fill="#fff"/>
    <path id="Tracé_2750" data-name="Tracé 2750" d="M194.383,150.935a.193.193,0,0,1-.218.22h-2.68v.161q0,1.011,1.054,1.012a5.162,5.162,0,0,0,1.436-.3l.265,1.04a5.36,5.36,0,0,1-1.7.373,2.245,2.245,0,0,1-1.706-.66,2.033,2.033,0,0,1-.573-1.471v-1.1a2.156,2.156,0,0,1,.543-1.48,2.063,2.063,0,0,1,3.033.011,2.165,2.165,0,0,1,.543,1.474Zm-.781-4.32-2.517,1.03-.343-.791,2.441-1.183Zm-.439,3.633q-.057-1.058-.839-1.058t-.839,1.058Z" transform="translate(-103.592 -79.312)" fill="#fff"/>
    <path id="Tracé_2751" data-name="Tracé 2751" d="M204.286,151.084l-.151,1.068a2.751,2.751,0,0,0-.474-.047,1.539,1.539,0,0,0-.852.372v3.643c0,.1-.048.153-.145.153h-1.076v-5.207h1.059l.029.477a1.78,1.78,0,0,1,1.02-.553,1.857,1.857,0,0,1,.59.1" transform="translate(-109.756 -82.208)" fill="#fff"/>
    <path id="Tracé_2752" data-name="Tracé 2752" d="M212.367,156.273h-1.042l-.038-.277a1.476,1.476,0,0,1-1.042.353,1.865,1.865,0,0,1-1.224-.4,1.445,1.445,0,0,1-.525-1.183,1.355,1.355,0,0,1,.59-1.2,2.236,2.236,0,0,1,1.3-.344h.763a1.815,1.815,0,0,0-.147-.875.562.562,0,0,0-.52-.241,5.386,5.386,0,0,0-1.421.238l-.267-1.059a5.562,5.562,0,0,1,1.692-.3,1.835,1.835,0,0,1,1.386.515,1.88,1.88,0,0,1,.5,1.363Zm-1.221-1.068V154.06h-.72a.725.725,0,0,0-.53.177.59.59,0,0,0-.181.443.664.664,0,0,0,.171.457.579.579,0,0,0,.473.22,2.347,2.347,0,0,0,.786-.153" transform="translate(-113.518 -82.208)" fill="#fff"/>
    <path id="Tracé_2753" data-name="Tracé 2753" d="M221.2,154.6a2.559,2.559,0,0,1-.839.153,1.642,1.642,0,0,1-1.268-.5,1.5,1.5,0,0,1-.391-1.049v-2.813h-.677v-.925h.763l.181-1.412h.944v1.412h1.069v.925h-1.069v2.7q0,.542.449.542.123,0,.715-.086Z" transform="translate(-118.704 -80.611)" fill="#fff"/>
    <path id="Tracé_2754" data-name="Tracé 2754" d="M227.862,153.59c0,.1-.047.153-.144.153h-1.067V149.46l-.573-.057v-.868h1.783Zm.171-6.466a.737.737,0,0,1-.229.548.757.757,0,0,1-.552.225.765.765,0,0,1-.772-.773.76.76,0,0,1,.224-.552.735.735,0,0,1,.548-.229.782.782,0,0,1,.781.781" transform="translate(-123.091 -79.678)" fill="#fff"/>
    <path id="Tracé_2755" data-name="Tracé 2755" d="M236.2,151.157l-1.774,5.207h-1.259l-1.773-5.207h1.28l.691,2.176.432,1.61.423-1.61.7-2.176Z" transform="translate(-125.986 -82.299)" fill="#fff"/>
    <path id="Tracé_2756" data-name="Tracé 2756" d="M247.237,153.841a.193.193,0,0,1-.219.219h-2.681v.161q0,1.013,1.056,1.012a5.146,5.146,0,0,0,1.434-.3l.266,1.04a5.374,5.374,0,0,1-1.7.372,2.234,2.234,0,0,1-1.708-.668,2.017,2.017,0,0,1-.572-1.46v-1.1a2.158,2.158,0,0,1,.544-1.489,1.961,1.961,0,0,1,1.516-.648,1.935,1.935,0,0,1,1.516.668,2.134,2.134,0,0,1,.544,1.469Zm-1.221-.687q-.057-1.049-.839-1.05t-.84,1.05Z" transform="translate(-132.368 -82.208)" fill="#fff"/>
    <path id="Tracé_2757" data-name="Tracé 2757" d="M156.567,109.077h-14.94a7.527,7.527,0,0,1-7.527-7.527V97.529A7.527,7.527,0,0,1,141.627,90h14.94a7.527,7.527,0,0,1,7.527,7.526v4.021a7.527,7.527,0,0,1-7.527,7.527" transform="translate(-73.012 -49.003)" fill="#00577d"/>
    <path id="Tracé_2758" data-name="Tracé 2758" d="M152.484,99.318l-3.792,11.492h-2.177l-3.792-11.492h2.158l2.729,8.529.662-2.2,2.073-6.332Z" transform="translate(-77.706 -54.075)" fill="#fff"/>
    <path id="Tracé_2759" data-name="Tracé 2759" d="M168.622,109.318c0,.172-.081.258-.241.258h-1.808v-7.247l-.968-.1v-1.469h3.017Zm.291-10.943a1.25,1.25,0,0,1-.387.928,1.288,1.288,0,0,1-.936.379,1.3,1.3,0,0,1-1.308-1.307,1.288,1.288,0,0,1,.38-.937,1.247,1.247,0,0,1,.928-.387,1.321,1.321,0,0,1,1.322,1.324" transform="translate(-90.165 -52.841)" fill="#fff"/>
    <path id="Tracé_2760" data-name="Tracé 2760" d="M182.989,109.741a.328.328,0,0,1-.37.372h-4.535v.272q0,1.714,1.785,1.713a8.719,8.719,0,0,0,2.428-.5l.451,1.76a9.12,9.12,0,0,1-2.873.629,3.778,3.778,0,0,1-2.889-1.13,3.415,3.415,0,0,1-.969-2.469v-1.855a3.652,3.652,0,0,1,.92-2.518,3.316,3.316,0,0,1,2.566-1.1,3.272,3.272,0,0,1,2.566,1.13,3.611,3.611,0,0,1,.92,2.486Zm-2.064-1.162q-.1-1.775-1.421-1.775t-1.419,1.775Z" transform="translate(-95.835 -57.122)" fill="#fff"/>
    <path id="Tracé_2761" data-name="Tracé 2761" d="M86.261,101.4h0a1.848,1.848,0,0,1,1.848,1.848v26.434a4.619,4.619,0,0,1-4.619,4.619H57.061a1.848,1.848,0,0,1-1.848-1.848v-.005A31.048,31.048,0,0,1,86.261,101.4" transform="translate(-30.061 -55.21)" fill="#00577d"/>
    <path id="Tracé_2762" data-name="Tracé 2762" d="M31.294,23.934a3.863,3.863,0,0,0-2.322.817c-.1.084-11.423,9.144-19.741,15.972A3.525,3.525,0,0,0,8,44.329a3.648,3.648,0,0,0,2.773,2.729c8.815,2.1,16.829,6.539,21.985,12.185h0a8.383,8.383,0,0,0,9.493,1.5,54.924,54.924,0,0,1,15.4-5.171A5.349,5.349,0,0,0,62.118,50.3a6.608,6.608,0,0,0-2.551-5.219L33.756,24.752a3.863,3.863,0,0,0-2.462-.818" transform="translate(-4.299 -13.031)" fill="#ffd600"/>
    <path id="Tracé_2763" data-name="Tracé 2763" d="M2.363,84.308A2.334,2.334,0,0,0,.025,86.633c-.048,9.375-.014,34.662-.013,34.917v.005A3.444,3.444,0,0,0,3.453,125h12.7a4.929,4.929,0,0,0,4.9-4.39,29.582,29.582,0,0,1,6.5-16.186,6.376,6.376,0,0,0-.073-8.026A32.025,32.025,0,0,0,2.363,84.308" transform="translate(0 -45.903)" fill="#00a7d6"/>
    <path id="Tracé_2764" data-name="Tracé 2764" d="M17.872,131.3a3.749,3.749,0,0,1-2.218-.727,3.787,3.787,0,0,1-.831-5.283.46.46,0,0,1,.644-.1l5.369,3.911a.461.461,0,0,1,.1.644,3.754,3.754,0,0,1-2.469,1.51,3.8,3.8,0,0,1-.595.047" transform="translate(-7.677 -68.113)" fill="#fff"/>
    <path id="Tracé_2765" data-name="Tracé 2765" d="M40.437,123.918a.692.692,0,0,1-.682-.584,3.54,3.54,0,0,0-4.042-2.944.691.691,0,1,1-.214-1.365,4.924,4.924,0,0,1,5.621,4.1.691.691,0,0,1-.575.79.729.729,0,0,1-.108.008" transform="translate(-19.01 -64.771)" fill="#fff"/>
    <path id="Tracé_2766" data-name="Tracé 2766" d="M20.4,109.324a.691.691,0,0,1-.682-.584,3.537,3.537,0,0,0-4.042-2.944.691.691,0,1,1-.214-1.365,4.921,4.921,0,0,1,5.621,4.1.691.691,0,0,1-.576.79.723.723,0,0,1-.108.008" transform="translate(-8.101 -56.825)" fill="#fff"/>
    <path id="Tracé_2767" data-name="Tracé 2767" d="M93.327,146.174a3.877,3.877,0,0,1-2.979-1.318.755.755,0,0,1,.08-1.066l5.693-4.9a.754.754,0,0,1,1.065.08,3.85,3.85,0,0,1,.868,3.088,4.865,4.865,0,0,1-4.727,4.11" transform="translate(-49.091 -75.524)" fill="#fff"/>
    <path id="Tracé_2768" data-name="Tracé 2768" d="M96.147,124.182c-1.035-.248-1.686.387-1.452,1.419a3.377,3.377,0,0,0,2.3,2.319c1.035.248,1.686-.387,1.452-1.419a3.378,3.378,0,0,0-2.3-2.319" transform="translate(-51.532 -67.583)" fill="#fff"/>
    <path id="Tracé_2769" data-name="Tracé 2769" d="M78.018,139.1c-1.035-.248-1.686.387-1.452,1.419a3.377,3.377,0,0,0,2.3,2.319c1.035.248,1.686-.387,1.452-1.419a3.378,3.378,0,0,0-2.3-2.319" transform="translate(-41.661 -75.703)" fill="#fff"/>
    <path id="Tracé_2770" data-name="Tracé 2770" d="M76.377,81.028a3.8,3.8,0,0,1-3.593-5.023.674.674,0,0,1,.338-.386.683.683,0,0,1,.512-.033L79.559,77.6a.671.671,0,0,1,.419.851,3.807,3.807,0,0,1-3.6,2.577" transform="translate(-39.518 -41.135)" fill="#fff"/>
    <path id="Tracé_2771" data-name="Tracé 2771" d="M93.847,70.356a1.568,1.568,0,1,0-1.989.981,1.569,1.569,0,0,0,1.989-.981" transform="translate(-49.433 -37.177)" fill="#fff"/>
    <path id="Tracé_2772" data-name="Tracé 2772" d="M70.391,62.4a1.521,1.521,0,1,0-1.929.951,1.521,1.521,0,0,0,1.929-.951" transform="translate(-36.713 -32.88)" fill="#fff"/>
    <path id="Tracé_2773" data-name="Tracé 2773" d="M112.635,25.852a4.808,4.808,0,0,0-6.591,6.506l-1.222,1.13a.307.307,0,0,0,.06.5,3.281,3.281,0,0,0,2.851.15c.046.028.089.061.137.087a4.816,4.816,0,0,0,4.766-8.37" transform="translate(-57.017 -13.734)" fill="#ffd600"/>
    <path id="Tracé_2774" data-name="Tracé 2774" d="M13.385,11.647l-1.309-1.358A6.6,6.6,0,1,0,9.758,12.4a4.1,4.1,0,0,0,3.427.154.555.555,0,0,0,.2-.9" transform="translate(-0.015 0)" fill="#00a7d6"/>
  </g>
</svg>
