<svg id="Groupe_391" data-name="Groupe 391" xmlns="http://www.w3.org/2000/svg" xmlns:xlink="http://www.w3.org/1999/xlink" width="181.911" height="125.117" viewBox="0 0 181.911 125.117">
  <defs>
    <clipPath id="clip-path">
      <rect id="Rectangle_811" data-name="Rectangle 811" width="181.911" height="125.117" fill="none"/>
    </clipPath>
  </defs>
  <g id="Groupe_390" data-name="Groupe 390" clip-path="url(#clip-path)">
    <path id="Tracé_3193" data-name="Tracé 3193" d="M25.886,135.382H182.171a2.264,2.264,0,0,0,2.257-2.257L194.8,21.105a2.264,2.264,0,0,0-2.257-2.257H36.26A2.264,2.264,0,0,0,34,21.105L23.629,133.125a2.264,2.264,0,0,0,2.257,2.257" transform="translate(-12.892 -10.283)" fill="#00b3dc"/>
    <path id="Tracé_3194" data-name="Tracé 3194" d="M182.195,137.614H30.3A5.812,5.812,0,0,1,24.5,131.82V39.492A5.812,5.812,0,0,1,30.3,33.7h151.9a5.812,5.812,0,0,1,5.795,5.795V131.82a5.812,5.812,0,0,1-5.795,5.795" transform="translate(-13.368 -18.385)" fill="#ccdee5"/>
    <path id="Tracé_3195" data-name="Tracé 3195" d="M101.621,141.434h-1.282a1.669,1.669,0,0,1-1.664-1.664V57.558a1.669,1.669,0,0,1,1.664-1.664h1.282a1.669,1.669,0,0,1,1.664,1.664V139.77a1.669,1.669,0,0,1-1.664,1.664" transform="translate(-53.837 -30.496)" fill="#fff"/>
    <path id="Tracé_3196" data-name="Tracé 3196" d="M119.378,141.434H118.1a1.669,1.669,0,0,1-1.664-1.664V57.558a1.669,1.669,0,0,1,1.664-1.664h1.282a1.669,1.669,0,0,1,1.664,1.664V139.77a1.669,1.669,0,0,1-1.664,1.664" transform="translate(-63.525 -30.496)" fill="#fff"/>
    <path id="Tracé_3197" data-name="Tracé 3197" d="M137.135,141.434h-1.282a1.669,1.669,0,0,1-1.664-1.664V57.558a1.669,1.669,0,0,1,1.664-1.664h1.282a1.669,1.669,0,0,1,1.664,1.664V139.77a1.669,1.669,0,0,1-1.664,1.664" transform="translate(-73.213 -30.496)" fill="#fff"/>
    <path id="Tracé_3198" data-name="Tracé 3198" d="M154.892,141.434H153.61a1.669,1.669,0,0,1-1.664-1.664V57.558a1.669,1.669,0,0,1,1.664-1.664h1.282a1.669,1.669,0,0,1,1.664,1.664V139.77a1.669,1.669,0,0,1-1.664,1.664" transform="translate(-82.902 -30.496)" fill="#fff"/>
    <path id="Tracé_3199" data-name="Tracé 3199" d="M172.649,141.434h-1.282a1.669,1.669,0,0,1-1.664-1.664V57.558a1.669,1.669,0,0,1,1.664-1.664h1.282a1.669,1.669,0,0,1,1.664,1.664V139.77a1.669,1.669,0,0,1-1.664,1.664" transform="translate(-92.59 -30.496)" fill="#fff"/>
    <path id="Tracé_3200" data-name="Tracé 3200" d="M190.406,141.434h-1.282a1.669,1.669,0,0,1-1.664-1.664V57.558a1.669,1.669,0,0,1,1.664-1.664h1.282a1.669,1.669,0,0,1,1.664,1.664V139.77a1.669,1.669,0,0,1-1.664,1.664" transform="translate(-102.278 -30.496)" fill="#fff"/>
    <path id="Tracé_3201" data-name="Tracé 3201" d="M208.163,141.434h-1.282a1.669,1.669,0,0,1-1.664-1.664V57.558a1.669,1.669,0,0,1,1.664-1.664h1.282a1.669,1.669,0,0,1,1.664,1.664V139.77a1.669,1.669,0,0,1-1.664,1.664" transform="translate(-111.966 -30.496)" fill="#fff"/>
    <path id="Tracé_3202" data-name="Tracé 3202" d="M225.92,141.434h-1.282a1.669,1.669,0,0,1-1.664-1.664V57.558a1.669,1.669,0,0,1,1.664-1.664h1.282a1.669,1.669,0,0,1,1.664,1.664V139.77a1.669,1.669,0,0,1-1.664,1.664" transform="translate(-121.654 -30.496)" fill="#fff"/>
    <path id="Tracé_3203" data-name="Tracé 3203" d="M243.677,141.434H242.4a1.669,1.669,0,0,1-1.664-1.664V57.558a1.669,1.669,0,0,1,1.664-1.664h1.282a1.669,1.669,0,0,1,1.664,1.664V139.77a1.669,1.669,0,0,1-1.664,1.664" transform="translate(-131.343 -30.496)" fill="#fff"/>
    <path id="Tracé_3204" data-name="Tracé 3204" d="M261.434,141.434h-1.282a1.669,1.669,0,0,1-1.664-1.664V57.558a1.669,1.669,0,0,1,1.664-1.664h1.282a1.669,1.669,0,0,1,1.664,1.664V139.77a1.669,1.669,0,0,1-1.664,1.664" transform="translate(-141.031 -30.496)" fill="#fff"/>
    <path id="Tracé_3205" data-name="Tracé 3205" d="M279.191,141.434h-1.282a1.669,1.669,0,0,1-1.664-1.664V57.558a1.669,1.669,0,0,1,1.664-1.664h1.282a1.669,1.669,0,0,1,1.664,1.664V139.77a1.669,1.669,0,0,1-1.664,1.664" transform="translate(-150.719 -30.496)" fill="#fff"/>
    <path id="Tracé_3206" data-name="Tracé 3206" d="M296.948,141.434h-1.282A1.669,1.669,0,0,1,294,139.77V57.558a1.669,1.669,0,0,1,1.664-1.664h1.282a1.669,1.669,0,0,1,1.664,1.664V139.77a1.669,1.669,0,0,1-1.664,1.664" transform="translate(-160.407 -30.496)" fill="#fff"/>
    <path id="Tracé_3207" data-name="Tracé 3207" d="M314.705,141.434h-1.282a1.669,1.669,0,0,1-1.664-1.664V57.558a1.669,1.669,0,0,1,1.664-1.664h1.282a1.669,1.669,0,0,1,1.664,1.664V139.77a1.669,1.669,0,0,1-1.664,1.664" transform="translate(-170.095 -30.496)" fill="#fff"/>
    <path id="Tracé_3208" data-name="Tracé 3208" d="M332.462,141.434H331.18a1.669,1.669,0,0,1-1.664-1.664V57.558a1.669,1.669,0,0,1,1.664-1.664h1.282a1.669,1.669,0,0,1,1.664,1.664V139.77a1.669,1.669,0,0,1-1.664,1.664" transform="translate(-179.784 -30.496)" fill="#fff"/>
    <path id="Tracé_3209" data-name="Tracé 3209" d="M350.219,141.434h-1.282a1.669,1.669,0,0,1-1.664-1.664V57.558a1.669,1.669,0,0,1,1.664-1.664h1.282a1.669,1.669,0,0,1,1.665,1.664V139.77a1.669,1.669,0,0,1-1.665,1.664" transform="translate(-189.472 -30.496)" fill="#fff"/>
    <path id="Tracé_3210" data-name="Tracé 3210" d="M177.711,124.2,26.053,132.757a5.811,5.811,0,0,1-6.112-5.458l-5.2-92.182A5.811,5.811,0,0,1,20.2,29.005l151.658-8.561a5.812,5.812,0,0,1,6.112,5.459l5.2,92.182a5.812,5.812,0,0,1-5.459,6.112" transform="translate(-8.036 -11.149)" fill="#d6e4ea"/>
    <path id="Tracé_3211" data-name="Tracé 3211" d="M97.21,143.031l-1.28.072a1.669,1.669,0,0,1-1.755-1.568L89.541,59.454A1.669,1.669,0,0,1,91.108,57.7l1.28-.072a1.669,1.669,0,0,1,1.756,1.568l4.633,82.081a1.669,1.669,0,0,1-1.568,1.755" transform="translate(-48.852 -31.44)" fill="#fff"/>
    <path id="Tracé_3212" data-name="Tracé 3212" d="M114.938,142.03l-1.28.072a1.669,1.669,0,0,1-1.755-1.568l-4.634-82.081a1.669,1.669,0,0,1,1.568-1.755l1.28-.072a1.669,1.669,0,0,1,1.756,1.568l4.633,82.081a1.669,1.669,0,0,1-1.568,1.755" transform="translate(-58.524 -30.894)" fill="#fff"/>
    <path id="Tracé_3213" data-name="Tracé 3213" d="M132.667,141.03l-1.28.072a1.669,1.669,0,0,1-1.755-1.568L125,57.453a1.669,1.669,0,0,1,1.568-1.755l1.28-.072a1.669,1.669,0,0,1,1.756,1.568l4.633,82.081a1.669,1.669,0,0,1-1.568,1.755" transform="translate(-68.197 -30.348)" fill="#fff"/>
    <path id="Tracé_3214" data-name="Tracé 3214" d="M150.4,140.029l-1.28.072a1.669,1.669,0,0,1-1.755-1.568l-4.634-82.081a1.669,1.669,0,0,1,1.568-1.755l1.28-.072a1.669,1.669,0,0,1,1.756,1.568l4.633,82.081a1.669,1.669,0,0,1-1.568,1.755" transform="translate(-77.87 -29.802)" fill="#fff"/>
    <path id="Tracé_3215" data-name="Tracé 3215" d="M168.125,139.028l-1.28.072a1.669,1.669,0,0,1-1.755-1.568l-4.634-82.081a1.669,1.669,0,0,1,1.568-1.755l1.28-.072a1.669,1.669,0,0,1,1.756,1.568l4.633,82.081a1.669,1.669,0,0,1-1.568,1.755" transform="translate(-87.543 -29.256)" fill="#fff"/>
    <path id="Tracé_3216" data-name="Tracé 3216" d="M185.853,138.027l-1.28.072a1.669,1.669,0,0,1-1.755-1.568L178.184,54.45a1.669,1.669,0,0,1,1.568-1.755l1.28-.072a1.669,1.669,0,0,1,1.756,1.568l4.633,82.081a1.669,1.669,0,0,1-1.568,1.755" transform="translate(-97.215 -28.709)" fill="#fff"/>
    <path id="Tracé_3217" data-name="Tracé 3217" d="M203.582,137.026l-1.28.072a1.669,1.669,0,0,1-1.755-1.568l-4.634-82.081a1.669,1.669,0,0,1,1.568-1.755l1.28-.072a1.669,1.669,0,0,1,1.756,1.568l4.633,82.081a1.669,1.669,0,0,1-1.568,1.755" transform="translate(-106.888 -28.163)" fill="#fff"/>
    <path id="Tracé_3218" data-name="Tracé 3218" d="M221.311,136.026l-1.28.072a1.669,1.669,0,0,1-1.755-1.568l-4.634-82.081a1.669,1.669,0,0,1,1.568-1.755l1.28-.072a1.669,1.669,0,0,1,1.756,1.568l4.633,82.081a1.669,1.669,0,0,1-1.568,1.755" transform="translate(-116.561 -27.618)" fill="#fff"/>
    <path id="Tracé_3219" data-name="Tracé 3219" d="M239.04,135.025l-1.28.072A1.669,1.669,0,0,1,236,133.53l-4.634-82.081a1.669,1.669,0,0,1,1.568-1.755l1.28-.072a1.669,1.669,0,0,1,1.756,1.568l4.633,82.081a1.669,1.669,0,0,1-1.568,1.755" transform="translate(-126.234 -27.072)" fill="#fff"/>
    <path id="Tracé_3220" data-name="Tracé 3220" d="M256.769,134.024l-1.28.072a1.669,1.669,0,0,1-1.755-1.568L249.1,50.447a1.669,1.669,0,0,1,1.568-1.755l1.28-.072a1.669,1.669,0,0,1,1.756,1.568l4.633,82.081a1.669,1.669,0,0,1-1.568,1.755" transform="translate(-135.907 -26.525)" fill="#fff"/>
    <path id="Tracé_3221" data-name="Tracé 3221" d="M274.5,133.023l-1.28.072a1.669,1.669,0,0,1-1.755-1.568l-4.634-82.081a1.669,1.669,0,0,1,1.568-1.755l1.28-.072a1.669,1.669,0,0,1,1.756,1.568l4.633,82.081a1.669,1.669,0,0,1-1.568,1.755" transform="translate(-145.58 -25.979)" fill="#fff"/>
    <path id="Tracé_3222" data-name="Tracé 3222" d="M292.226,132.023l-1.28.072a1.669,1.669,0,0,1-1.755-1.568l-4.634-82.081a1.669,1.669,0,0,1,1.568-1.755l1.28-.072a1.669,1.669,0,0,1,1.756,1.568l4.633,82.081a1.669,1.669,0,0,1-1.568,1.755" transform="translate(-155.252 -25.434)" fill="#fff"/>
    <path id="Tracé_3223" data-name="Tracé 3223" d="M309.955,131.022l-1.28.072a1.669,1.669,0,0,1-1.755-1.568l-4.634-82.081a1.669,1.669,0,0,1,1.568-1.755l1.28-.072a1.669,1.669,0,0,1,1.756,1.568l4.633,82.081a1.669,1.669,0,0,1-1.568,1.755" transform="translate(-164.925 -24.888)" fill="#fff"/>
    <path id="Tracé_3224" data-name="Tracé 3224" d="M327.684,130.021l-1.28.072a1.669,1.669,0,0,1-1.755-1.568l-4.634-82.081a1.669,1.669,0,0,1,1.568-1.755l1.28-.072a1.669,1.669,0,0,1,1.756,1.568l4.633,82.081a1.669,1.669,0,0,1-1.568,1.755" transform="translate(-174.598 -24.341)" fill="#fff"/>
    <path id="Tracé_3225" data-name="Tracé 3225" d="M345.413,129.02l-1.28.072a1.669,1.669,0,0,1-1.755-1.568l-4.634-82.081a1.669,1.669,0,0,1,1.568-1.755l1.28-.072a1.669,1.669,0,0,1,1.756,1.568l4.633,82.081a1.669,1.669,0,0,1-1.568,1.755" transform="translate(-184.271 -23.795)" fill="#fff"/>
    <path id="Tracé_3226" data-name="Tracé 3226" d="M76.131,30.851l-64.4-1.19a.721.721,0,0,1-.791-.614L18.019.613A.721.721,0,0,1,18.809,0H66.1a.76.76,0,0,1,.781.519l.085.319L76.8,29.881a.729.729,0,0,1-.657.97h-.013" transform="translate(-5.971)" fill="#00b3dc"/>
    <path id="Tracé_3227" data-name="Tracé 3227" d="M168.917,135.423H12.632a2.264,2.264,0,0,1-2.257-2.257L0,21.146a2.264,2.264,0,0,1,2.257-2.257H158.543a2.264,2.264,0,0,1,2.257,2.257l10.374,112.019a2.264,2.264,0,0,1-2.257,2.257" transform="translate(0 -10.306)" fill="#00b3dc"/>
  </g>
</svg>
