<svg id="Groupe_226" data-name="Groupe 226" xmlns="http://www.w3.org/2000/svg" xmlns:xlink="http://www.w3.org/1999/xlink" width="40.139" height="55.129" viewBox="0 0 40.139 55.129">
  <defs>
    <clipPath id="clip-path">
      <rect id="Rectangle_678" data-name="Rectangle 678" width="40.139" height="55.129" fill="none"/>
    </clipPath>
  </defs>
  <g id="Groupe_225" data-name="Groupe 225" clip-path="url(#clip-path)">
    <path id="Tracé_2393" data-name="Tracé 2393" d="M154.355,214.725a7.788,7.788,0,0,1,3.013-2.152,7.612,7.612,0,0,1,2.029-.492" transform="translate(-134.445 -184.726)" fill="none" stroke="#028571" stroke-linecap="round" stroke-linejoin="round" stroke-width="3.615"/>
    <path id="Tracé_2394" data-name="Tracé 2394" d="M152.205,52.927a8.806,8.806,0,0,1,3.382-2.46" transform="translate(-132.573 -43.957)" fill="none" stroke="#028571" stroke-linecap="round" stroke-linejoin="round" stroke-width="3.615"/>
    <path id="Tracé_2395" data-name="Tracé 2395" d="M126.315,148.4a9.4,9.4,0,0,0-4-2.583" transform="translate(-106.541 -127.007)" fill="none" stroke="#028571" stroke-linecap="round" stroke-linejoin="round" stroke-width="3.615"/>
    <path id="Tracé_2396" data-name="Tracé 2396" d="M149.183,70.776c.412-8.269.566-16.984.369-26.1q-.134-6.181-.461-12.083" transform="translate(-129.86 -28.385)" fill="none" stroke="#028571" stroke-linecap="round" stroke-linejoin="round" stroke-width="2"/>
    <path id="Tracé_2397" data-name="Tracé 2397" d="M62.326,8.97c.559-1.114-1.823-2.616-1.353-4.181.174-.579.548-.531,1.968-1.722C64.943,1.388,64.7.878,65.77.361c1.092-.525,1.4-.025,4.428-.123,2.636-.085,3.119-.488,3.689,0,1.117.956-.121,3.028,1.23,4.427.735.761,1.4.391,1.845,1.107.739,1.183-.871,2.45-.369,4.181.425,1.466,1.757,1.17,2.337,2.706.673,1.782-.87,2.845-.123,4.673.517,1.266,1.414,1.146,1.6,2.214.262,1.519-1.483,2.169-1.353,3.813.1,1.2,1.052,1.2,1.722,2.829.54,1.317.793,3.455-.246,4.8-.892,1.152-1.816.529-3.893,1.94-1.71,1.161-1.594,1.93-2.994,2.488-1.071.426-1.434.094-3.69.123-3.5.044-3.857.858-5.452.358C63.25,35.5,63.426,34.987,61,33.1c-2.9-2.26-3.94-2.135-4.332-3.346-.491-1.517,1.02-2.078,1.722-5.042.821-3.467-.868-4.293.246-7.133.793-2.021,1.907-2.263,1.968-4.058.052-1.561-.75-2.556-.123-3.444.56-.792,1.51-.439,1.845-1.107" transform="translate(-49.276 -0.001)" fill="#359d8d"/>
    <path id="Tracé_2398" data-name="Tracé 2398" d="M133.979,43.176c.375,1.274.8,1.646,1.166,1.7.576.093.977-.61,1.614-.448.471.119.522.572.923.853.438.307,1.261.387,2.933-.494" transform="translate(-116.698 -37.607)" fill="none" stroke="#028571" stroke-linecap="round" stroke-linejoin="round" stroke-width="1.446"/>
    <path id="Tracé_2399" data-name="Tracé 2399" d="M166.883,85.592c.161,1.124-.019,1.555-.269,1.7-.5.3-1.39-.482-1.7-.179-.255.245.23.851,0,1.256-.169.3-.733.506-2.422.179" transform="translate(-141.529 -74.552)" fill="none" stroke="#028571" stroke-linecap="round" stroke-linejoin="round" stroke-width="1.446"/>
    <path id="Tracé_2400" data-name="Tracé 2400" d="M97.822,120.359a1.674,1.674,0,0,0,1.076,1.076,1.6,1.6,0,0,0,1.7-.628" transform="translate(-85.204 -104.834)" fill="none" stroke="#028571" stroke-linecap="round" stroke-linejoin="round" stroke-width="1.446"/>
    <path id="Tracé_2401" data-name="Tracé 2401" d="M81.829,157.907c.59,1.879,1.156,2.394,1.614,2.422.6.035,1.082-.748,1.614-.538.352.139.31.548.628.807s.992.368,2.6-.448" transform="translate(-71.274 -137.539)" fill="none" stroke="#028571" stroke-linecap="round" stroke-linejoin="round" stroke-width="1.446"/>
    <path id="Tracé_2402" data-name="Tracé 2402" d="M180.566,134.287c2.062.749,2.819.612,3.085.273.4-.508-.2-1.592.233-1.887.3-.206.719.24,1.166.09.506-.17.726-.993.807-1.973" transform="translate(-157.276 -113.919)" fill="none" stroke="#028571" stroke-linecap="round" stroke-linejoin="round" stroke-width="1.446"/>
    <path id="Tracé_2403" data-name="Tracé 2403" d="M141.6,186.416c.219,1.373-.017,1.818-.269,1.973-.633.389-1.841-.764-2.511-.269-.331.245-.225.666-.538.807-.4.18-1.017-.305-1.525-.807" transform="translate(-119.12 -162.371)" fill="none" stroke="#028571" stroke-linecap="round" stroke-linejoin="round" stroke-width="1.446"/>
    <path id="Tracé_2404" data-name="Tracé 2404" d="M174.309,224.323c.763,1.021,1.317,1.218,1.7,1.166.868-.117,1.168-1.528,1.973-1.525a1.373,1.373,0,0,1,.986.717" transform="translate(-151.826 -195.076)" fill="none" stroke="#028571" stroke-linecap="round" stroke-linejoin="round" stroke-width="1.446"/>
    <path id="Tracé_2405" data-name="Tracé 2405" d="M87.031,234.012c-.919.726-1.466.742-1.794.628-.689-.24-.77-1.179-1.435-1.256-.507-.058-.746.455-1.166.359s-.664-.727-.807-1.435" transform="translate(-71.274 -202.344)" fill="none" stroke="#028571" stroke-linecap="round" stroke-linejoin="round" stroke-width="1.446"/>
    <path id="Tracé_2407" data-name="Tracé 2407" d="M194.727,321.247c-.128.854-.428,1.142-.658,1.256-.781.384-1.786-.739-2.511-.3-.376.228-.254.62-.658.957a2.209,2.209,0,0,1-1.973.12" transform="translate(-164.558 -279.811)" fill="none" stroke="#fff" stroke-width="1.446"/>
    <path id="Tracé_2408" data-name="Tracé 2408" d="M222.449,388c-.661,1.594-1.391,2.032-1.913,2.152-1.157.267-1.988-.861-3.049-.419-.829.346-.815,1.24-1.495,1.375-.7.138-1.457-.656-2.033-1.435" transform="translate(-186.361 -337.954)" fill="none" stroke="#fff" stroke-width="1.446"/>
    <path id="Tracé_2409" data-name="Tracé 2409" d="M196.523,156.108c.337,3.528.562,7.332.612,11.381a137.694,137.694,0,0,1-.612,14.766" transform="translate(-171.174 -135.972)" fill="none" stroke="#66948d" stroke-linecap="round" stroke-linejoin="round" stroke-width="2"/>
    <path id="Tracé_2410" data-name="Tracé 2410" d="M162.136,168.6a8.587,8.587,0,0,0-3.5-2.285,8.3,8.3,0,0,0-1.958-.408" transform="translate(-136.468 -144.512)" fill="none" stroke="#66948d" stroke-linecap="round" stroke-linejoin="round" stroke-width="3.615"/>
    <path id="Tracé_2411" data-name="Tracé 2411" d="M204.429,207.287a9.321,9.321,0,0,1,1.244-.918,9.5,9.5,0,0,1,3.243-1.244" transform="translate(-178.061 -178.667)" fill="none" stroke="#66948d" stroke-linecap="round" stroke-linejoin="round" stroke-width="3.615"/>
    <path id="Tracé_2412" data-name="Tracé 2412" d="M114.664,110.038c.094-1.541,1.522-1.573,1.954-3.447a9.032,9.032,0,0,0-.284-3.856,1.647,1.647,0,0,1,1.868-2.107c1.613.187,2.638.283,3.345-.245.652-.487.245-1.112.979-2.04a3.657,3.657,0,0,1,2.937-1.305c.108,0,1.981.094,2.611,1.305.415.8.023,1.576.326,1.713.429.194,1.032-1.446,2.529-1.876a3.036,3.036,0,0,1,2.692.571,2.633,2.633,0,0,1,1.061,2.447c-.263.975-1.33.908-1.55,1.795-.216.871.733,1.257,1.387,3.019a4.459,4.459,0,0,1,.245,3.345c-.467,1-1.214.824-1.713,1.876-.463.976,0,1.5-.163,2.855-.057.462-.313,2.549-1.632,3.345-1.234.745-2.645-.1-5.548,0a7.442,7.442,0,0,0-1.387.163c-1.019.222-1.194.493-1.713.571a3.408,3.408,0,0,1-3.345-2.529c-.206-1.051.477-1.64.082-2.121-.543-.66-1.778.223-3.019-.49a3.448,3.448,0,0,1-1.662-2.99" transform="translate(-99.87 -84.519)" fill="#004d40"/>
    <path id="Tracé_2413" data-name="Tracé 2413" d="M212.01,217.571c.77.611,1.141.613,1.338.512.468-.24.241-1.218.736-1.472.322-.165.769.069,1.07.268" transform="translate(-184.664 -188.623)" fill="none" stroke="#66948d" stroke-linecap="round" stroke-linejoin="round" stroke-width="1.446"/>
    <path id="Tracé_2414" data-name="Tracé 2414" d="M147.7,183.791c-.3.513-.285.75-.2.87.124.176.388.093.669.268a1.183,1.183,0,0,1,.468.8" transform="translate(-128.426 -160.085)" fill="none" stroke="#66948d" stroke-linecap="round" stroke-linejoin="round" stroke-width="1.446"/>
    <path id="Tracé_2415" data-name="Tracé 2415" d="M218.513,143.826c1.021.439,1.565.32,1.873.134.68-.412.576-1.382,1.338-1.673.467-.178.756.09,1.07-.134.393-.281.365-1,.268-1.606" transform="translate(-190.328 -122.419)" fill="none" stroke="#66948d" stroke-linecap="round" stroke-linejoin="round" stroke-width="1.446"/>
    <path id="Tracé_2416" data-name="Tracé 2416" d="M164.808,134.515a1.462,1.462,0,0,0,.669,1.07c.708.371,1.5-.375,2.342,0a1.616,1.616,0,0,1,.736.736" transform="translate(-143.55 -117.165)" fill="none" stroke="#66948d" stroke-linecap="round" stroke-linejoin="round" stroke-width="1.446"/>
    <path id="Tracé_2417" data-name="Tracé 2417" d="M184,245c.452.54.78.632,1,.6.318-.042.434-.33.87-.468a1.548,1.548,0,0,1,.87,0" transform="translate(-160.267 -213.397)" fill="none" stroke="#66948d" stroke-linecap="round" stroke-linejoin="round" stroke-width="1.446"/>
    <path id="Tracé_2406" data-name="Tracé 2406" d="M31.251,282.208c-2.147-1.242-1.866-2.372-3.371-2.77-2.5-.662-3.664,2.366-7.155,2.423-2.693.045-3.1-1.739-5.655-1.385a7.337,7.337,0,0,0-4.962,3.347c-1.25,2.024-.49,3.3-1.731,4.27-1.4,1.1-2.732-.241-4.847.692a6.6,6.6,0,0,0-3.462,5.078,7.174,7.174,0,0,0,.923,4.578H39.651c.935-3.366.363-5.227-.346-6.309-.757-1.155-1.462-1.1-2.077-2.308-1.223-2.4.741-4.235-.346-5.77-.981-1.385-2.812-.217-5.63-1.846" transform="translate(0 -243.313)" fill="#67d0c0"/>
  </g>
</svg>
