<svg width="88" height="88" viewBox="0 0 88 88" fill="none" xmlns="http://www.w3.org/2000/svg">
<circle cx="44" cy="44" r="44" fill="#8270B3"/>
<path d="M67.4009 59.4087C67.4009 62.3091 66.4487 64.5503 64.5444 66.1323C62.6401 67.7144 59.9302 68.5054 56.4146 68.5054C53.0894 68.5054 50.4453 67.7437 48.4824 66.2202C46.5195 64.6821 45.3696 62.4702 45.0327 59.5845L51.3169 59.0352C51.7124 62.0088 53.4043 63.4956 56.3926 63.4956C57.8721 63.4956 59.022 63.1294 59.8423 62.397C60.6626 61.6646 61.0728 60.5439 61.0728 59.0352C61.0728 57.6582 60.5747 56.6035 59.5786 55.8711C58.5825 55.1387 57.103 54.7725 55.1401 54.7725H52.9868V49.7847H55.0083C56.7808 49.7847 58.1138 49.4258 59.0073 48.708C59.9009 47.9756 60.3477 46.9355 60.3477 45.5879C60.3477 44.3135 59.9888 43.3174 59.271 42.5996C58.5679 41.8672 57.5352 41.501 56.1729 41.501C54.8984 41.501 53.8657 41.8525 53.0747 42.5557C52.2983 43.2588 51.8516 44.2549 51.7344 45.5439L45.5601 45.1045C45.8823 42.4385 46.9883 40.3511 48.8779 38.8423C50.7676 37.3335 53.2358 36.5791 56.2827 36.5791C59.52 36.5791 62.0469 37.3115 63.8633 38.7764C65.6943 40.2266 66.6099 42.2407 66.6099 44.8188C66.6099 46.7524 66.0386 48.3418 64.896 49.5869C63.7681 50.832 62.1348 51.6597 59.9961 52.0698V52.1577C62.3691 52.436 64.1929 53.2197 65.4673 54.5088C66.7563 55.7832 67.4009 57.4165 67.4009 59.4087Z" fill="white"/>
</svg>
