<svg id="Groupe_271" data-name="Groupe 271" xmlns="http://www.w3.org/2000/svg" xmlns:xlink="http://www.w3.org/1999/xlink" width="168.699" height="82.133" viewBox="0 0 168.699 82.133">
  <defs>
    <clipPath id="clip-path">
      <rect id="Rectangle_40" data-name="Rectangle 40" width="168.699" height="82.133" fill="none"/>
    </clipPath>
  </defs>
  <g id="Groupe_33" data-name="Groupe 33" clip-path="url(#clip-path)">
    <path id="Tracé_78" data-name="Tracé 78" d="M532.829,22.612l-.595,2.343a3.946,3.946,0,0,1-2.376-1.023,2.975,2.975,0,0,1-.891-2.244V0h2.872V21.556q0,.86.99,1.057" transform="translate(-442.803 -0.004)" fill="#00577c"/>
    <path id="Tracé_79" data-name="Tracé 79" d="M584.922,50.916a.554.554,0,0,1-.626.627H574.23v1.28a4.609,4.609,0,0,0,.921,2.921,4.039,4.039,0,0,0,3.356,1.443,23.794,23.794,0,0,0,5.066-.99l.691,2.509a19.011,19.011,0,0,1-5.775,1.155,6.822,6.822,0,0,1-7.129-7.03V48.771a7.026,7.026,0,0,1,1.819-4.885,6.815,6.815,0,0,1,9.958.033,7.134,7.134,0,0,1,1.786,4.852m-2.87.495v-.459a4.758,4.758,0,0,0-.92-3.016,3.488,3.488,0,0,0-2.991-1.376,3.573,3.573,0,0,0-2.991,1.344,4.838,4.838,0,0,0-.921,3.015v.492Z" transform="translate(-478.289 -34.942)" fill="#00577c"/>
    <path id="Tracé_80" data-name="Tracé 80" d="M686.021,54.822a4.655,4.655,0,0,1-1.55,3.672,6.066,6.066,0,0,1-4.159,1.366,17.018,17.018,0,0,1-5.082-.99l.495-2.574a19.8,19.8,0,0,0,4.587.891q2.9,0,2.9-2.4,0-1.416-1.98-2.4-3.565-1.746-3.7-1.812a4.633,4.633,0,0,1-1.98-3.951,4.424,4.424,0,0,1,1.551-3.556,5.9,5.9,0,0,1,3.96-1.318,12.2,12.2,0,0,1,4.291.858l-.66,2.442a12.122,12.122,0,0,0-3.631-.627q-2.74,0-2.739,2.239,0,1.352,1.98,2.24,3.334,1.516,3.729,1.779a4.832,4.832,0,0,1,1.98,4.15" transform="translate(-565.241 -34.942)" fill="#00577c"/>
    <path id="Tracé_81" data-name="Tracé 81" d="M544.946,382.934c0,.352-.166.528-.5.528h-2.377V372.8H531.844v10.661h-2.871v-23.5h2.871v10.164h10.231V359.964h2.872" transform="translate(-442.808 -301.329)" fill="#00577c"/>
    <path id="Tracé_82" data-name="Tracé 82" d="M671.958,382.934q0,.528-.5.528H658.592v-23.5h2.87v20.824h10.5" transform="translate(-551.313 -301.329)" fill="#00577c"/>
    <path id="Tracé_83" data-name="Tracé 83" d="M787.581,383.457h-2.9L782.4,364.315l-.628,3.234-3.2,11.188q-.889,3.137-3.332,3.135t-3.334-3.135l-3.235-11.188-.581-3.2-.42,4.162-1.911,14.948h-2.929l3-23.5h3.6l5.14,18.022q.3,1.055.666,1.054t.666-1.054l5.158-18.022h3.523" transform="translate(-638.57 -301.324)" fill="#00577c"/>
    <path id="Tracé_84" data-name="Tracé 84" d="M541.379,208.836a14.669,14.669,0,0,1-3.432.4,10.744,10.744,0,0,1-4.073-.692,7.436,7.436,0,0,1-2.777-1.9,7.764,7.764,0,0,1-1.6-2.806,10.817,10.817,0,0,1-.523-3.382v-6.435a10.933,10.933,0,0,1,.523-3.416,7.772,7.772,0,0,1,1.6-2.805,7.425,7.425,0,0,1,2.777-1.9,10.743,10.743,0,0,1,4.073-.693,15.873,15.873,0,0,1,3.465.377q1.683.375,3.4.834l-.924,3.774q-1.485-.463-3.086-.793a14.434,14.434,0,0,0-2.854-.331,5.306,5.306,0,0,0-2.442.481,3.923,3.923,0,0,0-1.454,1.24,4.426,4.426,0,0,0-.708,1.7,9.839,9.839,0,0,0-.182,1.868v5.722a10.613,10.613,0,0,0,.165,1.835,4.506,4.506,0,0,0,.676,1.718,3.706,3.706,0,0,0,1.452,1.258,5.513,5.513,0,0,0,2.493.479,12.642,12.642,0,0,0,2.82-.362q1.569-.363,3.021-.825l1.055,3.728q-1.815.529-3.465.925" transform="translate(-442.805 -155.037)" fill="#00577c"/>
    <path id="Tracé_85" data-name="Tracé 85" d="M658.832,203.505a8.78,8.78,0,0,1-1.766,2.971,8.362,8.362,0,0,1-2.822,2.013,9.1,9.1,0,0,1-3.746.744,8.816,8.816,0,0,1-3.729-.76,8.308,8.308,0,0,1-2.79-2.046,9.164,9.164,0,0,1-1.749-2.97,10.284,10.284,0,0,1-.61-3.531v-5.38a10.525,10.525,0,0,1,.61-3.581,9.144,9.144,0,0,1,1.749-2.987,8.133,8.133,0,0,1,2.79-2.029,8.987,8.987,0,0,1,3.729-.743,8.752,8.752,0,0,1,3.762.776,8.588,8.588,0,0,1,2.805,2.079,9.212,9.212,0,0,1,1.766,2.986,10.2,10.2,0,0,1,.611,3.5v5.38a10.516,10.516,0,0,1-.611,3.58m-3.581-8.6a8.416,8.416,0,0,0-.266-2.1,5.632,5.632,0,0,0-.847-1.864,4.735,4.735,0,0,0-1.479-1.353,4.69,4.69,0,0,0-4.322,0,4.552,4.552,0,0,0-1.462,1.353,5.594,5.594,0,0,0-.814,1.864,8.975,8.975,0,0,0-.249,2.1v4.653a8.838,8.838,0,0,0,.249,2.063,5.738,5.738,0,0,0,.814,1.88,4.567,4.567,0,0,0,5.783,1.353,4.464,4.464,0,0,0,1.479-1.353,5.778,5.778,0,0,0,.847-1.88,8.287,8.287,0,0,0,.266-2.063Z" transform="translate(-537.106 -155.037)" fill="#00577c"/>
    <path id="Tracé_86" data-name="Tracé 86" d="M789.231,203.505a8.787,8.787,0,0,1-1.765,2.971,8.367,8.367,0,0,1-2.822,2.013,9.1,9.1,0,0,1-3.745.744,8.816,8.816,0,0,1-3.729-.76,8.3,8.3,0,0,1-2.79-2.046,9.134,9.134,0,0,1-1.749-2.97,10.279,10.279,0,0,1-.61-3.531v-5.38a10.52,10.52,0,0,1,.61-3.581,9.115,9.115,0,0,1,1.749-2.987,8.12,8.12,0,0,1,2.79-2.029,8.988,8.988,0,0,1,3.729-.743,8.749,8.749,0,0,1,3.762.776,8.581,8.581,0,0,1,2.805,2.079,9.22,9.22,0,0,1,1.765,2.986,10.184,10.184,0,0,1,.611,3.5v5.38a10.5,10.5,0,0,1-.611,3.58m-3.581-8.6a8.412,8.412,0,0,0-.266-2.1,5.634,5.634,0,0,0-.847-1.864,4.731,4.731,0,0,0-1.479-1.353,4.691,4.691,0,0,0-4.322,0,4.547,4.547,0,0,0-1.461,1.353,5.586,5.586,0,0,0-.815,1.864,8.98,8.98,0,0,0-.248,2.1v4.653a8.842,8.842,0,0,0,.248,2.063,5.73,5.73,0,0,0,.815,1.88,4.567,4.567,0,0,0,5.783,1.353,4.46,4.46,0,0,0,1.479-1.353,5.779,5.779,0,0,0,.847-1.88,8.283,8.283,0,0,0,.266-2.063Z" transform="translate(-646.265 -155.037)" fill="#00577c"/>
    <path id="Tracé_87" data-name="Tracé 87" d="M920.636,194.483a8.467,8.467,0,0,1-.514,2.971,6.95,6.95,0,0,1-1.505,2.426,7.16,7.16,0,0,1-2.451,1.65,8.56,8.56,0,0,1-3.343.611h-2.649v8.184h-4.19v-23.5h6.864a8.34,8.34,0,0,1,3.333.627,7.35,7.35,0,0,1,2.443,1.667,6.974,6.974,0,0,1,1.5,2.425,8.422,8.422,0,0,1,.511,2.937m-4.257-.017a5.066,5.066,0,0,0-.183-1.329,3.463,3.463,0,0,0-.6-1.217,3.083,3.083,0,0,0-1.111-.888,3.785,3.785,0,0,0-1.693-.345h-2.621v7.591h2.656a3.687,3.687,0,0,0,1.675-.345,3.119,3.119,0,0,0,1.094-.887,3.465,3.465,0,0,0,.6-1.216,5.2,5.2,0,0,0,.183-1.365" transform="translate(-758.407 -156.394)" fill="#00577c"/>
    <path id="Tracé_88" data-name="Tracé 88" d="M997.211,151.177l-1.944-1.055,1.944-3.165a3.59,3.59,0,0,1-2.835-3.327,3.387,3.387,0,0,1,1.134-2.353,3.3,3.3,0,0,1,2.268-.974,3.51,3.51,0,0,1,2.31,1.1,3.105,3.105,0,0,1,1.011,2.231,2.991,2.991,0,0,1-.486,1.7" transform="translate(-832.4 -117.448)" fill="#00577c"/>
    <path id="Tracé_89" data-name="Tracé 89" d="M44.02,64.115A31.892,31.892,0,0,0,57.689,59.6a19.747,19.747,0,0,1-13.669,8.94m0,4.974A24.7,24.7,0,0,0,65.361,53.095a32.209,32.209,0,0,0,4.491-6.754c.044.653.075,1.312.075,1.976A28.919,28.919,0,0,1,44.02,77.044Zm0-43.959A19.748,19.748,0,0,1,60.764,49.051c0,.631-.033,1.256-.092,1.873A27.126,27.126,0,0,1,44.02,59.156ZM26.094,44.286A14.966,14.966,0,0,1,39.085,29.477V59.095A14.966,14.966,0,0,1,26.094,44.286m17.926-19.7V19.59A28.949,28.949,0,0,1,67.741,37.306a27.034,27.034,0,0,1-2.475,7.166A24.7,24.7,0,0,0,44.02,24.583M16.382,44.1a24.693,24.693,0,0,1,22.7-24.58V24.5a19.887,19.887,0,0,0,0,39.581v4.606a24.693,24.693,0,0,1-22.7-24.58M44.02,14.64V5.1A27.248,27.248,0,0,1,67.889,27.787,33.792,33.792,0,0,0,44.02,14.64M4.936,41.087A36.156,36.156,0,0,1,39.085,5.03v9.545a29.592,29.592,0,0,0,0,59.055v3.512A36.156,36.156,0,0,1,4.936,41.087M41.046.041a41.046,41.046,0,1,0,0,82.091A33.813,33.813,0,0,0,72.834,36.785,32.114,32.114,0,0,0,41.046,0Z" transform="translate(0 0)" fill="#5dc3e5"/>
    <path id="Tracé_90" data-name="Tracé 90" d="M294.042,316.392l-6.29,6a29,29,0,0,1-19.437,18.543l-6.3,6.008a33.865,33.865,0,0,0,32.024-30.553" transform="translate(-219.337 -264.854)" fill="#00577c"/>
    <path id="Tracé_91" data-name="Tracé 91" d="M130.931,174.537a28.94,28.94,0,0,1,5.287,8.338,26.989,26.989,0,0,1-2.474,7.166,24.605,24.605,0,0,0-6.393-12.417l-3.737,3.222a19.649,19.649,0,0,1,5.628,13.774c0,.632-.033,1.257-.092,1.874a27.136,27.136,0,0,1-16.652,8.233v-14.3l-4.934,4.254v9.98a14.905,14.905,0,0,1-7.645-3.389l-3.787,3.265a19.81,19.81,0,0,0,11.433,5.1v4.607A24.59,24.59,0,0,1,92.6,207.584l-3.755,3.238a29.517,29.517,0,0,0,18.718,8.377v3.511a35.972,35.972,0,0,1-21.994-9.065L81.8,216.894A40.885,40.885,0,0,0,109.525,227.7c.547,0,1.092-.016,1.633-.041l6.3-6.008a28.616,28.616,0,0,1-4.958.962v-3.528a24.7,24.7,0,0,0,21.34-20.422,32.185,32.185,0,0,0,4.49-6.754c.045.654.075,1.312.075,1.976a28.754,28.754,0,0,1-1.512,9.222l6.291-6c.1-1.06.157-2.133.157-3.22a33.662,33.662,0,0,0-1.45-9.777L131.676,173.9M112.5,214.112v-4.427a31.9,31.9,0,0,0,13.669-4.513,19.75,19.75,0,0,1-13.669,8.94" transform="translate(-68.478 -145.569)" fill="#ffd600"/>
    <path id="Tracé_92" data-name="Tracé 92" d="M392.666,137.435c-.539-.7-1.113-1.377-1.7-2.035l-2.987,2.575,10.214,10.213c-.179-.59-.368-1.177-.578-1.754a32.019,32.019,0,0,0-1.529-15.449l-4.066,3.506a26.81,26.81,0,0,1,.65,2.943" transform="translate(-324.777 -109.649)" fill="#00a7d6"/>
    <path id="Tracé_93" data-name="Tracé 93" d="M312.061,97.978l12.366,12.367,2.987-2.575a33.853,33.853,0,0,0-15.353-9.791" transform="translate(-261.229 -82.018)" fill="#00577c"/>
    <path id="Tracé_94" data-name="Tracé 94" d="M222.561,0V.041a41.22,41.22,0,0,0-5.726.408l8.7,8.7V5.1a27.254,27.254,0,0,1,23.219,19.741l4.066-3.506A32.181,32.181,0,0,0,222.561,0" transform="translate(-181.514)" fill="#00577c"/>
    <path id="Tracé_95" data-name="Tracé 95" d="M39.088,31.78V51.418l4.934-4.254V31.86a19.682,19.682,0,0,1,11.116,5.72l3.737-3.222a24.6,24.6,0,0,0-14.854-7.472V21.892a28.826,28.826,0,0,1,18.434,9.379l.744-.641L50.833,18.262a33.565,33.565,0,0,0-6.811-1.319V11.451l-8.7-8.7a41.018,41.018,0,0,0-22,70.877l3.767-3.249A36.088,36.088,0,0,1,39.088,7.332v9.545A29.574,29.574,0,0,0,20.37,67.556l3.756-3.237A24.638,24.638,0,0,1,39.088,21.825V26.8A19.877,19.877,0,0,0,27.655,61.275l3.788-3.265a14.914,14.914,0,0,1,7.645-26.23" transform="translate(-0.003 -2.303)" fill="#00a7d6"/>
  </g>
</svg>
