<svg width="403" height="662" viewBox="0 0 403 662" fill="none" xmlns="http://www.w3.org/2000/svg">
<g clip-path="url(#clip0_2_2)">
<path d="M128.165 105.549L91.5783 121.846L168.265 146.093L191.138 116.641L165.528 106.245L159.836 105.011L128.165 105.549Z" fill="#78453A"/>
<path d="M85.1019 168.475C83.959 169.041 82.785 169.543 81.5854 169.976L37.566 227.126L34.3609 232.763L28.774 237.573C28.774 237.573 -7.26733 243.404 3.70608 213.645C5.8099 207.949 31.5473 175.406 51.3708 151.917C55.7341 146.618 60.3601 141.54 65.2312 136.704C77.918 124.648 88.2534 122.375 88.2534 122.375C88.2534 122.375 88.7523 122.304 89.583 122.273C91.8723 122.189 96.6978 122.43 100.547 125.365C103.922 127.935 106.544 132.575 106.061 140.883C105.125 156.894 91.646 165.31 85.1019 168.472" fill="#F06D50"/>
<path d="M73.7893 295.017C73.7893 295.017 91.6031 298.115 93.6396 298.581C95.6761 299.046 102.68 300.237 105.1 298.87C105.1 298.87 107.286 300.258 103.909 303.542C100.532 306.825 90.1809 304.894 90.1809 304.894L73.7893 295.017Z" fill="#E8876D"/>
<path d="M179.016 35.7628C177.199 52.4615 172.762 79.3867 163.921 89.799C162.189 91.838 167.192 45.0084 165.477 43.2701C159.934 37.6427 165.874 29.1533 162.692 25.2192C162.988 18.7783 157.078 11.0455 160.96 5.23288C167.556 4.92968 176.903 8.73193 178.295 17.5888C179.388 23.5828 179.631 29.7011 179.016 35.7628" fill="#111111"/>
<path d="M44.4819 231.829L53.4442 252.583L53.4515 252.598C58.301 262.019 69.4695 285.279 69.4695 285.279C69.4695 285.279 47.3289 303.033 44.8505 299.053C40.0696 291.373 4.5571 239.756 2.77732 227.442C2.73878 227.176 6.17399 210.243 6.17399 210.243C6.17399 210.243 21.4455 201.774 29.2041 203.972C30.0248 204.226 30.7822 204.651 31.4259 205.22C35.9142 208.982 39.8157 219.777 44.4819 231.83" fill="#F06D50"/>
<path d="M226.758 661.908C223.098 662.011 204.667 661.261 189.507 661.354C189.507 661.354 172.604 539.638 168.316 507.664C164.947 482.549 155.39 395.805 155.39 395.805L150.475 394.699L150.48 395.046C142.533 387.706 128.957 400.88 121.81 377.028C117.231 361.631 116.298 345.38 119.085 329.56C119.465 327.314 119.9 325.197 120.361 323.237L214.817 321.631L215.283 327.825C218.078 356.593 221.404 399.966 222.02 453.79C222.243 473.155 221.974 481.77 222.097 497.586C222.361 531.91 227.088 661.472 226.757 661.906" fill="#002D3F"/>
<path d="M183.89 328.465C186.298 334.277 190.258 339.315 195.335 343.03C201.998 347.884 204.645 348.34 207.714 348.676" stroke="white" stroke-width="1.32219" stroke-linecap="round" stroke-linejoin="round"/>
<path d="M155.386 395.565L150.471 394.459C150.451 389.658 151.415 435.788 150.351 473.37C149.568 500.964 148.269 520.745 147.804 528.63C146.328 553.586 146 611.599 148.844 664.678C133.906 664.932 118.723 663.159 103.785 663.413C103.276 605.105 99.8756 539.372 97.0343 506.335C94.701 479.227 92.6778 463.304 90.6997 433.147C87.6751 387.035 87.4798 349.185 87.8274 323.796L152.565 322.695C154.484 355.69 155.137 360.863 155.387 395.568" fill="#002D3F"/>
<path d="M119.089 329.566C116.948 335.307 113.301 340.365 108.529 344.208C103.758 348.051 98.0388 350.537 91.9738 351.405" stroke="white" stroke-width="1.32219" stroke-linecap="round" stroke-linejoin="round"/>
<path d="M151.4 331.978L149.784 386.638" stroke="white" stroke-width="1.32219" stroke-linecap="round" stroke-linejoin="round"/>
<path d="M161.239 331.809C161.155 340.181 161.071 348.551 160.987 356.921C160.938 357.89 160.676 358.837 160.222 359.695C159.768 360.553 159.131 361.3 158.357 361.886C157.362 362.568 156.189 362.942 154.982 362.962" stroke="white" stroke-width="1.32219" stroke-linecap="round" stroke-linejoin="round"/>
<path d="M333.85 161.713L332.843 158.349C332.295 156.526 332.201 154.597 332.57 152.73C333.054 150.424 334.175 148.301 335.805 146.6C337.435 144.899 339.508 143.688 341.791 143.105L360.532 134.756C367.41 132.91 368.761 134.856 370.718 141.394L374.394 153.674C376.352 160.213 376.201 159.603 369.868 162.584C369.868 162.584 356.619 170.878 349.915 170.246C343.21 169.614 335.807 168.251 333.849 161.717" fill="#78453A"/>
<path d="M391.67 119.584C392.548 120.969 388.16 124.306 386.776 125.185L362.606 140.54C362.276 140.75 361.908 140.892 361.522 140.96C361.137 141.027 360.742 141.018 360.36 140.933C359.978 140.848 359.617 140.688 359.297 140.463C358.976 140.239 358.703 139.953 358.494 139.623C358.284 139.292 358.141 138.924 358.074 138.538C358.006 138.153 358.015 137.758 358.101 137.376C358.186 136.994 358.345 136.633 358.57 136.313C358.795 135.992 359.081 135.72 359.411 135.51L383.58 120.155C384.965 119.276 390.79 118.201 391.673 119.584" fill="#78453A"/>
<path d="M402.231 127.373C402.949 128.934 399.551 132.045 397.989 132.762L369.761 145.739C369.388 145.91 368.985 146.007 368.575 146.022C368.165 146.038 367.756 145.973 367.371 145.83C366.986 145.688 366.633 145.471 366.332 145.192C366.031 144.913 365.788 144.578 365.617 144.205C365.445 143.832 365.349 143.429 365.333 143.019C365.318 142.609 365.383 142.2 365.525 141.815C365.668 141.43 365.885 141.077 366.163 140.776C366.442 140.475 366.778 140.232 367.151 140.061L395.378 127.084C396.939 126.366 401.513 125.812 402.231 127.374" fill="#78453A"/>
<path d="M402.824 139.138C403.472 140.698 400.487 142.154 398.924 142.805L372.645 153.704C371.894 154.005 371.055 153.999 370.31 153.685C369.564 153.372 368.972 152.777 368.662 152.03C368.352 151.283 368.35 150.444 368.654 149.695C368.959 148.946 369.547 148.347 370.291 148.028L396.57 137.13C398.131 136.482 402.18 137.583 402.823 139.143" fill="#78453A"/>
<path d="M396.777 151.737C397.254 153.33 393.926 155.116 392.335 155.595L371.321 161.654C370.941 161.768 370.542 161.806 370.147 161.766C369.752 161.726 369.369 161.609 369.02 161.421C368.67 161.233 368.361 160.978 368.111 160.67C367.86 160.363 367.672 160.009 367.558 159.629C367.444 159.249 367.406 158.85 367.446 158.455C367.486 158.06 367.603 157.677 367.791 157.328C367.979 156.978 368.234 156.67 368.542 156.419C368.849 156.168 369.203 155.98 369.583 155.866L390.597 149.801C392.189 149.324 396.304 150.141 396.778 151.732" fill="#78453A"/>
<path d="M335.7 148.24C335.029 146.551 337.381 142.777 339.556 135.984C341.662 129.409 340.108 124.537 342.076 123.583C343.847 122.724 345.486 125.508 346.849 128.879C348.888 133.921 345.962 138.243 345.008 143.58C344.692 147.463 346.216 152.734 344.682 153.815C342.658 155.241 336.191 149.468 335.703 148.241" fill="#78453A"/>
<g opacity="0.2">
<g opacity="0.2">
<g opacity="0.2">
<path opacity="0.2" d="M349.666 143.435C349.666 143.435 358.217 149.866 357.179 155.826C356.141 161.785 360.246 159.105 360.246 159.105C360.246 159.105 360.041 147.813 355.724 143.957C351.826 140.474 349.033 139.751 349.662 143.435" fill="#78453A"/>
</g>
</g>
</g>
<path d="M163.513 101.63C163.399 104.279 163.463 106.932 163.705 109.571C164.068 111.566 160.245 113.779 155.857 115.63C154.63 116.151 153.359 116.631 152.125 117.076C147.681 118.689 143.668 119.781 143.668 119.781C143.668 119.781 123.601 118.527 123.087 114.367C122.953 113.302 122.743 108.447 122.641 103.239C122.558 99.1486 122.55 94.8385 122.706 91.961C122.927 87.8471 123.185 83.7305 123.378 80.7464C123.551 78.0287 123.681 76.2399 123.681 76.2399L152.064 74.7851L164.605 74.1408C164.605 74.1408 164.344 78.8736 164.066 84.9071C163.836 90.2635 163.591 96.6355 163.515 101.636" fill="#78453A"/>
<path d="M163.513 101.63C163.487 103.297 163.498 106.085 163.498 106.085L174.721 107.942C174.721 107.942 177.554 117.429 173.166 119.278C171.94 119.799 158.389 118.571 152.123 117.075C145.857 115.579 133.975 101.579 133.975 101.579L122.706 91.961C122.927 87.8471 123.185 83.7305 123.378 80.7464L128.964 81.3136L152.06 74.7832L164.601 74.1389C164.601 74.1389 164.34 78.8717 164.062 84.9052C163.832 90.2616 163.587 96.6336 163.511 101.634" fill="#5A3932"/>
<path d="M230.97 176.328L224.906 186.362L218.741 196.57L216.839 199.72C216.351 212.191 213.753 245.024 213.743 245.133C211.007 274.618 216.708 292.803 215.31 324.743C215.303 325.377 215.102 325.994 214.733 326.51C214.365 327.026 213.847 327.417 213.25 327.629C213.005 327.711 212.748 327.754 212.49 327.756C170.033 337.181 121.801 337.852 88.8633 329.304C88.0174 329.278 87.213 328.931 86.6141 328.333C86.0153 327.735 85.6672 326.931 85.6407 326.086C84.252 308.296 84.9932 291.822 85.5995 275.591C86.074 262.962 86.4731 250.484 85.7207 237.649C84.633 219.17 81.4634 200.873 76.272 183.106C75.8023 181.481 75.3568 179.755 74.9373 177.964C71.2769 162.294 69.756 141.498 72.4841 136.57C73.0769 135.491 73.7234 134.449 74.4074 133.437C83.6765 119.694 110.828 111.955 116.899 109.563C123.373 112.073 142.456 123.159 142.456 123.159C142.456 123.159 164.939 110.974 169.644 105.929C173.203 105.869 185.845 109.243 191.159 111.682C197.446 114.581 216.755 116.526 226.151 131.262C226.334 131.544 226.513 131.831 226.685 132.125C229.908 137.509 232.257 157.579 230.965 176.331" fill="#F06D50"/>
<path d="M108.275 27.8128C106.875 30.7854 104.753 46.0419 110.485 62.7453C118.83 87.0545 123.697 90.4548 125.922 91.7964C131.213 94.8258 137.38 95.9614 143.403 95.0162C155.318 93.1651 161.95 83.6137 163.38 81.5538C172.8 67.9898 169.094 51.399 164.778 32.0607C162.454 21.6552 160.582 19.5044 159.263 18.3185C152.579 12.3023 110.554 22.9757 108.276 27.8118" fill="#78453A"/>
<path d="M159.727 44.8803C157.334 46.2244 154.804 47.307 152.18 48.1095C151.687 48.2562 151.179 48.3431 150.666 48.3683C150.162 48.3924 149.658 48.3675 149.159 48.2939C146.91 47.9803 144.712 47.3667 142.626 46.4694C142.626 46.4694 144.937 42.9351 148.265 41.9082C148.933 41.6935 149.625 41.5657 150.325 41.5281C151.012 41.4975 151.701 41.5341 152.381 41.6372C155.919 42.1282 159.725 44.8813 159.725 44.8813" fill="white"/>
<path d="M152.768 44.89C152.701 45.5019 152.459 46.0816 152.072 46.5606C151.686 47.0396 151.17 47.3977 150.586 47.5928C150.002 47.7878 149.374 47.8115 148.777 47.6611C148.18 47.5107 147.639 47.1924 147.217 46.744C146.795 46.2956 146.511 45.7357 146.397 45.1307C146.283 44.5256 146.346 43.9007 146.576 43.3298C146.806 42.7589 147.195 42.2659 147.697 41.9091C148.199 41.5524 148.792 41.3468 149.407 41.3166C150.325 41.3505 151.192 41.7445 151.821 42.4134C152.45 43.0822 152.791 43.972 152.768 44.89" fill="black"/>
<path d="M159.727 44.8803C159.727 44.8803 155.922 42.1272 152.383 41.6362C151.703 41.533 151.014 41.4965 150.327 41.5271C149.627 41.5647 148.935 41.6925 148.267 41.9072C144.938 42.9351 142.628 46.4683 142.628 46.4683" stroke="#5A3932" stroke-width="0.75811" stroke-linejoin="round"/>
<path d="M112.609 47.1897C115.122 48.2939 117.748 49.1242 120.439 49.6664C120.943 49.7636 121.457 49.7999 121.969 49.7744C122.474 49.7486 122.976 49.673 123.466 49.5489C125.672 49.0167 127.798 48.1913 129.785 47.0948C129.785 47.0948 127.14 43.8038 123.726 43.1066C123.041 42.9575 122.339 42.8978 121.638 42.9291C120.952 42.9661 120.271 43.0694 119.604 43.2377C116.13 44.072 112.613 47.1847 112.613 47.1847" fill="white"/>
<path d="M116.907 46.648C117.034 47.2503 117.331 47.8037 117.762 48.2426C118.194 48.6815 118.742 48.9876 119.343 49.1247C119.943 49.2618 120.57 49.2241 121.149 49.0162C121.728 48.8082 122.236 48.4386 122.612 47.9512C122.988 47.4637 123.217 46.8788 123.271 46.2655C123.325 45.6523 123.202 45.0364 122.917 44.4907C122.632 43.945 122.197 43.4923 121.663 43.1863C121.129 42.8802 120.518 42.7335 119.903 42.7635C118.993 42.887 118.169 43.3639 117.608 44.0909C117.047 44.8179 116.795 45.7366 116.907 46.648" fill="black"/>
<path d="M331.276 180.722L345.95 171.97L332.326 150.665L317.393 160.738L331.276 180.722Z" fill="#4AC9E6"/>
<path d="M112.609 47.1897C112.609 47.1897 116.126 44.077 119.601 43.2427C120.267 43.0745 120.948 42.9711 121.634 42.9341C122.335 42.9029 123.037 42.9626 123.723 43.1117C127.135 43.8089 129.781 47.0999 129.781 47.0999" stroke="#5A3932" stroke-width="0.75811" stroke-linejoin="round"/>
<path d="M141.871 38.6639C141.728 38.0709 141.789 37.4467 142.046 36.893C142.302 36.3394 142.739 35.8889 143.284 35.615C147.741 32.5794 154.496 32.6816 159.084 35.3834C159.472 35.6246 159.846 35.8853 160.207 36.1646C160.585 36.3872 160.958 36.695 160.573 38.429C160.549 38.5215 160.545 38.7076 160.425 38.7316C159.506 38.9303 158.918 38.3351 158.107 38.1309C153.664 36.3726 148.714 36.3969 144.289 38.1987C143.565 38.533 142.807 38.79 142.029 38.9653C141.869 38.9961 141.882 38.7678 141.871 38.6679" fill="#212121"/>
<path d="M111.775 40.1188C111.499 39.1082 111.422 38.6974 112.221 38.1747C114.665 36.0241 117.812 34.8442 121.068 34.8584C124.306 34.8472 127.444 35.9835 129.925 38.0658C130.247 38.3864 130.767 38.3406 130.478 39.8809C130.457 39.9813 130.459 40.1643 130.33 40.1835C129.917 40.2283 129.501 40.1347 129.147 39.9175C126.62 38.7981 123.88 38.2426 121.117 38.2896C118.354 38.3366 115.634 38.9849 113.147 40.1895C112.771 40.318 112.511 40.6555 111.936 40.4102C111.816 40.3742 111.815 40.2032 111.778 40.1128" fill="#212121"/>
<path d="M135.419 48.1823C134.743 52.8622 133.231 57.4672 132.906 62.1581C132.809 64.0603 135.517 63.7742 136.881 63.821C137.828 63.7979 138.78 63.7087 139.741 63.6073C137.922 64.4009 135.935 64.7352 133.956 64.5809C131.094 64.2975 131.635 61.2434 131.949 59.2135C132.647 55.4065 133.814 51.7006 135.423 48.1803" fill="#212121"/>
<path d="M144.058 81.3941C141.411 82.7145 137.909 83.5092 135.263 81.8437C136.763 81.8062 138.197 82.256 139.694 82.2145C141.174 82.0915 142.637 81.8162 144.061 81.3931" fill="#212121"/>
<path d="M130.605 75.8231C130.605 75.8231 135.282 79.2976 138.914 79.1189C143.018 78.9191 148.108 74.9614 148.108 74.9614C145.467 74.2487 142.731 73.951 139.999 74.079C136.821 74.3695 133.677 74.9517 130.606 75.8181" fill="white"/>
<path d="M130.605 75.8242C133.457 75.0614 136.364 74.5273 139.3 74.2269C142.251 74.238 145.196 74.4853 148.108 74.9665C148.108 74.9665 146.089 72.6671 140.354 72.2865C136.769 72.1564 133.274 73.4246 130.606 75.8231" fill="#5A3932"/>
<path d="M176.617 12.928C172.735 18.7407 164.488 21.8457 164.191 28.2876C143.58 20.1065 109.947 31.5775 106.546 31.2822C99.9599 30.7099 98.2612 29.5225 97.5328 26.8631C96.4994 23.0865 101.903 21.2822 98.1631 16.8645C93.2062 11.012 98.3109 0.786312 112.231 2.98537C136.262 6.77807 138.064 -0.573693 157.154 0.812269C166.843 1.51581 174.943 5.70537 176.618 12.929" fill="#212121"/>
<path d="M166.823 41.0356C171.528 35.7131 174.61 38.4595 176.144 41.1772C178.164 44.7529 178.704 52.2789 174.952 58.4814C174.091 59.9045 171.365 64.2131 167.009 62.7567C161.266 60.8357 167.619 47.2418 166.823 41.0376" fill="#5A3932"/>
<g style="mix-blend-mode:multiply" opacity="0.2">
<g style="mix-blend-mode:multiply" opacity="0.2">
<g style="mix-blend-mode:multiply" opacity="0.2">
<g style="mix-blend-mode:multiply" opacity="0.2">
<path d="M213.084 267.528C214.946 285.8 215.7 304.168 215.341 322.531C215.148 324.355 214.848 326.167 214.445 327.956L231.927 661.231C231.927 661.231 230.387 661.303 223.898 661.468C221.01 615.687 203.57 399.464 200.651 353.74C200.115 345.347 173.69 335.319 173.69 335.319C173.53 332.736 198.529 332.896 198.558 331.312C198.884 313.937 204.509 304.792 206.497 277.122C207.676 260.678 212.772 249.134 213.084 267.532" fill="#41385A"/>
</g>
</g>
</g>
</g>
<path d="M279.755 213.615C283.528 220.534 281.291 225.498 277.033 227.866C273.323 229.874 269.507 231.68 265.602 233.277C264.466 233.754 263.272 234.079 262.051 234.244C244.148 235.6 228.898 213.474 224.174 205.174C219.449 196.874 214.821 188.286 214.821 188.286C210.394 182.333 206.295 176.142 202.543 169.741C199.238 164.095 196.556 158.445 194.024 153.324C179.879 124.711 209.982 110.14 224.319 127.812C239.197 146.153 254.976 168.173 279.755 213.615Z" fill="#F06D50"/>
<path d="M332.797 181.507L314.819 198.718C310.625 204.53 305.421 209.542 299.455 213.515C299.455 213.515 275.446 231.036 269.54 232.753C263.633 234.47 260.994 234.506 258.613 234.267C250.697 233.467 246.747 226.672 246.747 226.672C246.46 226.264 246.199 225.838 245.968 225.397C244.992 223.555 243.611 219.969 245.086 216.409C246.65 212.639 256.731 203.582 268.833 193.794C283.699 181.767 301.615 168.635 310.559 162.841C312.073 161.815 313.649 160.884 315.279 160.054C323.403 156.372 332.797 181.502 332.797 181.502" fill="#F06D50"/>
<g style="mix-blend-mode:multiply" opacity="0.2">
<g style="mix-blend-mode:multiply" opacity="0.2">
<g style="mix-blend-mode:multiply" opacity="0.2">
<g style="mix-blend-mode:multiply" opacity="0.2">
<path d="M150.48 395.046L148.843 664.673L142.063 662.758C141.663 642.636 145.999 481.894 147.895 452.191C148.82 437.745 149.239 395.067 150.481 395.046" fill="#41385A"/>
</g>
</g>
</g>
</g>
<path d="M76.7899 295.648C76.111 295.549 67.3433 293.069 63.1402 295.722C60.5634 297.431 58.6779 300 57.8205 302.97C56.9631 305.941 57.1895 309.12 58.4594 311.938C59.9488 314.936 65.9735 319.285 70.0088 322.12C71.0111 322.825 70.3408 322.289 75.388 325.454C79.7619 328.196 81.185 329.177 83.5678 330.009C85.1055 330.547 86.7008 330.905 88.3213 331.073C92.9847 323.842 99.7676 313.245 99.9149 309.67C99.9751 308.213 78.8225 295.945 76.7898 295.647" fill="#78453A"/>
<path d="M91.589 304.818C91.589 304.818 119.532 318.63 120.27 319.321C121.008 320.013 120.235 322.257 119.176 322.875C118.117 323.493 105.501 317.98 102.848 316.874C100.196 315.767 88.773 311.337 87.3716 309.866C85.9701 308.394 91.587 304.818 91.587 304.818" fill="#78453A"/>
<path d="M89.7894 310.697C89.7277 311.598 95.766 316.045 104.213 319.845C110.022 322.458 115.685 323.109 117.717 324.187C119.327 325.04 118.931 327.967 117.388 328.361C112.799 328.046 108.279 327.071 103.968 325.468C94.4794 322.094 84.9088 317.69 84.9088 317.69L89.7894 310.697Z" fill="#78453A"/>
<path d="M83.7911 323.2C89.0212 325.855 94.4154 328.173 99.9408 330.14C103.619 331.463 107.387 332.519 111.217 333.301C115.085 333.852 115.386 331.423 114.114 329.716C113.499 328.887 110.267 329.04 101.487 325.404C92.7064 321.768 80.5287 313.7 80.5287 313.7L83.7911 323.2Z" fill="#78453A"/>
<path d="M84.9362 329.776C90.0538 332.544 99.7554 337.067 104.136 336.16C104.463 336.131 104.776 336.021 105.049 335.84C105.322 335.659 105.545 335.413 105.699 335.123C105.852 334.834 105.931 334.511 105.927 334.183C105.924 333.856 105.839 333.534 105.679 333.248C105.323 332.467 90.5428 328.241 87.8057 324.343L84.9362 329.776Z" fill="#78453A"/>
<path d="M68.4364 285.936L75.155 293.624L56.7508 312.461L47.3741 299.458L68.4364 285.936Z" fill="#4AC9E6"/>
<g style="mix-blend-mode:multiply" opacity="0.2">
<g style="mix-blend-mode:multiply" opacity="0.2">
<g style="mix-blend-mode:multiply" opacity="0.2">
<g style="mix-blend-mode:multiply" opacity="0.2">
<path d="M89.4907 290.302C87.8552 292.715 86.778 293.312 85.0069 293.1C85.4804 280.471 86.4731 250.485 85.7248 237.65C84.6375 219.171 81.4678 200.874 76.2761 183.106C75.8063 181.481 75.4751 180.239 75.0555 178.448C75.5784 177.723 75.8594 176.896 76.0919 177.038C76.7995 177.475 82.0187 183.284 83.5387 191.435C87.805 202.501 94.9127 282.326 89.4957 290.301" fill="#41385A"/>
</g>
</g>
</g>
</g>
<g style="mix-blend-mode:multiply" opacity="0.2">
<g style="mix-blend-mode:multiply" opacity="0.2">
<g style="mix-blend-mode:multiply" opacity="0.2">
<g style="mix-blend-mode:multiply" opacity="0.2">
<path d="M310.56 162.845C286.749 187.443 272.171 226.876 270.048 211.232C269.224 205.158 270.533 199.336 268.834 193.798C283.702 181.77 301.616 168.639 310.562 162.845" fill="#41385A"/>
</g>
</g>
</g>
</g>
<path d="M166.616 39.7977C167.142 49.5746 156.764 82.0344 152.163 73.096C148.176 67.275 145.609 67.2457 139.083 66.7414C126.206 65.939 124.594 74.3259 124.594 74.3259C124.594 74.3259 123.088 81.7196 111.284 64.6313C115.701 90.6557 126.398 97.5839 142.093 96.3008C157.747 95.0234 166.215 78.1606 166.215 78.1606C166.215 78.1606 173.87 63.5673 166.617 39.7977L166.616 39.7977ZM150.924 83.459C151.341 86.7529 146.04 83.1819 140.029 83.2841C134.018 83.3863 128.876 86.7677 128.417 83.4815C127.288 75.3984 128.204 70.9815 139.825 71.2681C152.156 71.5736 149.838 74.899 150.924 83.459" fill="#111111"/>
</g>
<defs>
<clipPath id="clip0_2_2">
<rect width="403" height="662" fill="white"/>
</clipPath>
</defs>
</svg>
