<svg width="88" height="88" viewBox="0 0 88 88" fill="none" xmlns="http://www.w3.org/2000/svg">
<circle cx="44" cy="44" r="44" fill="#8270B3"/>
<path d="M67.4009 57.8706C67.4009 61.1665 66.478 63.752 64.6323 65.627C62.7866 67.502 60.2378 68.4395 56.9858 68.4395C53.3384 68.4395 50.5332 67.165 48.5703 64.6162C46.6221 62.0527 45.6479 58.2588 45.6479 53.2344C45.6479 47.7119 46.6367 43.5591 48.6143 40.7759C50.6064 37.978 53.4482 36.5791 57.1396 36.5791C59.7617 36.5791 61.8271 37.1577 63.3359 38.3149C64.8594 39.4722 65.936 41.2666 66.5659 43.6982L60.7432 44.5112C60.2012 42.4751 58.9561 41.457 57.0078 41.457C55.3525 41.457 54.0488 42.2847 53.0967 43.9399C52.1592 45.5952 51.6904 48.1074 51.6904 51.4766C52.3496 50.3779 53.2651 49.5356 54.437 48.9497C55.6089 48.3638 56.9346 48.0708 58.4141 48.0708C61.1826 48.0708 63.3726 48.9497 64.9839 50.7075C66.5952 52.4653 67.4009 54.853 67.4009 57.8706ZM61.2046 58.0464C61.2046 56.2886 60.7944 54.9482 59.9741 54.0254C59.1685 53.0879 58.0552 52.6191 56.6343 52.6191C55.272 52.6191 54.1807 53.0586 53.3604 53.9375C52.54 54.8018 52.1299 55.9517 52.1299 57.3872C52.1299 58.5884 52.3203 59.6577 52.7012 60.5952C53.0967 61.5327 53.646 62.2725 54.3491 62.8145C55.0522 63.3564 55.8652 63.6274 56.7881 63.6274C58.1797 63.6274 59.2637 63.1367 60.04 62.1553C60.8164 61.1592 61.2046 59.7896 61.2046 58.0464Z" fill="white"/>
</svg>
