<svg id="Groupe_398" data-name="Groupe 398" xmlns="http://www.w3.org/2000/svg" xmlns:xlink="http://www.w3.org/1999/xlink" width="106.781" height="172.159" viewBox="0 0 106.781 172.159">
  <defs>
    <clipPath id="clip-path">
      <rect id="Rectangle_814" data-name="Rectangle 814" width="106.781" height="172.159" fill="none"/>
    </clipPath>
    <clipPath id="clip-path-3">
      <rect id="Rectangle_812" data-name="Rectangle 812" width="82.893" height="118.856" fill="none"/>
    </clipPath>
  </defs>
  <g id="Groupe_397" data-name="Groupe 397" clip-path="url(#clip-path)">
    <g id="Groupe_396" data-name="Groupe 396">
      <g id="Groupe_395" data-name="Groupe 395" clip-path="url(#clip-path)">
        <path id="Tracé_3228" data-name="Tracé 3228" d="M6.113,207.353l9.2-2.358-1.9-7.415,6.325-1.623L18.189,189.9l3.83-.981-1.391-5.432,9.641-2.47-1.334-5.2,3.6-.924-2.164-8.444,1.622-2.744,6.143-1.574L36.513,155.8l.195-.049,3.511-.9-.9-3.516-.025-.1.1-.025,3.424-.877-.878-3.422-.026-.1.086,0,3-.087a4.594,4.594,0,0,0,4.16-6.229c.075.021.15.043.224.061a26.491,26.491,0,1,0-13.554-8.834L0,192.254l.882,2.174,1.759,4.346,2.894,7.156.562,1.385Zm53.574-97.92a6.5,6.5,0,1,1,8.9-2.282,6.494,6.494,0,0,1-8.9,2.282" transform="translate(0 -49.053)" fill="#ffd602"/>
        <path id="Tracé_3229" data-name="Tracé 3229" d="M3.739,253.684l38.017-64.226-3.208-1.9L1.98,249.338Z" transform="translate(-1.098 -103.964)" fill="#c19c00"/>
        <path id="Tracé_3230" data-name="Tracé 3230" d="M13,279.873l9.2-2.358L20.3,270.1l6.325-1.623-1.551-6.054,3.83-.981-1.391-5.432,9.641-2.47-1.334-5.2,3.6-.924-2.164-8.445,1.622-2.744,6.143-1.574L43.4,228.318l.195-.049,3.511-.9-.9-3.516-.025-.1.1-.024,3.424-.877-.878-3.422-.027-.1.087,0-1.473.005L12.419,278.449l.562,1.385Z" transform="translate(-6.884 -121.573)" fill="#c19c00"/>
        <path id="Tracé_3231" data-name="Tracé 3231" d="M131.276,106.371a6.5,6.5,0,1,1-5.595,3.188,6.468,6.468,0,0,1,5.595-3.188m0-1.6a8.132,8.132,0,0,0-6.969,3.971,8.093,8.093,0,0,0,6.957,12.213,8.131,8.131,0,0,0,6.969-3.97,8.093,8.093,0,0,0-6.957-12.214" transform="translate(-68.276 -58.076)" fill="#c19c00"/>
        <g id="Groupe_394" data-name="Groupe 394" transform="translate(0 39.444)" opacity="0.18">
          <g id="Groupe_393" data-name="Groupe 393">
            <g id="Groupe_392" data-name="Groupe 392" clip-path="url(#clip-path-3)">
              <path id="Tracé_3232" data-name="Tracé 3232" d="M6.113,207.354l9.2-2.358-1.9-7.415,6.325-1.623L18.189,189.9l3.83-.981-1.391-5.432,9.641-2.47-1.334-5.2,3.6-.923-2.164-8.445,1.622-2.744,6.143-1.574L36.513,155.8l.195-.049,3.511-.9-.9-3.516-.025-.1.1-.024,3.424-.877-.878-3.422-.027-.1.087,0,3-.087a4.594,4.594,0,0,0,4.16-6.229c.075.021.15.043.224.061a26.49,26.49,0,1,0-13.554-8.833L0,192.254l.882,2.174,1.759,4.346,2.894,7.156.562,1.385Z" transform="translate(0 -88.497)"/>
            </g>
          </g>
        </g>
        <path id="Tracé_3233" data-name="Tracé 3233" d="M68.1,226.886l8.377-4.474-3.6-6.753,5.761-3.078-2.944-5.513,3.488-1.863-2.64-4.946,8.778-4.686-2.528-4.734,3.277-1.75L81.954,181.4l.926-3.05,5.593-2.987-3.081-5.769.176-.094,3.2-1.707-1.708-3.2-.049-.091.091-.049,3.117-1.663-1.666-3.115-.049-.091.083-.022,2.9-.8a4.594,4.594,0,0,0,2.564-7.039c.078,0,.156.007.232.006a26.492,26.492,0,1,0-15.263-5.365L58.575,213.668l1.371,1.9,2.741,3.8,4.509,6.262.875,1.215ZM96.9,119.049a6.495,6.495,0,1,1,8.1-4.327,6.494,6.494,0,0,1-8.1,4.327" transform="translate(-32.468 -54.727)" fill="#ffd602"/>
        <path id="Tracé_3234" data-name="Tracé 3234" d="M64.393,279.253,86.082,207.84l-3.567-1.084L61.652,275.448Z" transform="translate(-34.173 -114.604)" fill="#c19c00"/>
        <path id="Tracé_3235" data-name="Tracé 3235" d="M78.817,302.526l8.378-4.474-3.6-6.753,5.761-3.078-2.944-5.513,3.488-1.863-2.64-4.946,8.778-4.687L93.5,266.478l3.277-1.75-4.106-7.692.927-3.05L99.195,251l-3.081-5.769.176-.094,3.2-1.707-1.709-3.2-.049-.091.091-.049,3.117-1.663-1.666-3.115-.049-.091.083-.023-1.428.356L77.918,301.278l.875,1.214Z" transform="translate(-43.19 -130.367)" fill="#c19c00"/>
        <path id="Tracé_3236" data-name="Tracé 3236" d="M138.728,113.811a6.5,6.5,0,1,1-6.212,4.609,6.5,6.5,0,0,1,6.212-4.609m0-1.6a8.1,8.1,0,1,0,2.354.351,8.045,8.045,0,0,0-2.354-.351" transform="translate(-72.411 -62.2)" fill="#c19c00"/>
        <path id="Tracé_3237" data-name="Tracé 3237" d="M127.914,57c7.248,5.627,25.125,1.817,35.886-11.979,11.164-14.313,9.447-32.761-.092-38.61s-28.053,3.4-36.036,15.1c-3.358,4.92-7.783,15.456-7.077,20.62" transform="translate(-66.804 -2.552)" fill="none" stroke="#bcbcbc" stroke-width="9.21"/>
      </g>
    </g>
  </g>
</svg>
