<svg id="Calque_1" data-name="Calque 1" xmlns="http://www.w3.org/2000/svg" xmlns:xlink="http://www.w3.org/1999/xlink" viewBox="0 0 595.28 841.89"><defs><style>.cls-1,.cls-23,.cls-39,.cls-41,.cls-47,.cls-59,.cls-64,.cls-9{fill:none;}.cls-2{clip-path:url(#clip-path);}.cls-3{clip-path:url(#clip-path-2);}.cls-4{fill:#e8876d;}.cls-5{fill:#e1d6c0;}.cls-6{fill:#041a1f;}.cls-7{fill:#002d37;}.cls-8{fill:#002229;}.cls-39,.cls-41,.cls-59,.cls-9{stroke:#fff;stroke-linecap:round;}.cls-23,.cls-39,.cls-41,.cls-59,.cls-9{stroke-linejoin:round;}.cls-9{stroke-width:2.83px;}.cls-10{fill:#345760;}.cls-11{fill:#55c2df;}.cls-12{fill:#009ec2;}.cls-13{fill:#00b3dc;}.cls-14{clip-path:url(#clip-path-3);}.cls-15{fill:#3a2c26;}.cls-16{fill:#062d3e;}.cls-17{opacity:0.2;}.cls-18{clip-path:url(#clip-path-5);}.cls-19{fill:#41385a;}.cls-20{clip-path:url(#clip-path-6);}.cls-21{fill:#fff;}.cls-22{clip-path:url(#clip-path-7);}.cls-23{stroke:#563329;stroke-width:1.62px;}.cls-24{clip-path:url(#clip-path-9);}.cls-25{fill:#5d3f31;}.cls-26{fill:#b97e61;}.cls-27{fill:#4d3a32;}.cls-28{clip-path:url(#clip-path-11);}.cls-29{clip-path:url(#clip-path-12);}.cls-30{clip-path:url(#clip-path-13);}.cls-31{fill:#b5533c;}.cls-32{fill:#f5a782;}.cls-33{fill:#025a7d;}.cls-34{clip-path:url(#clip-path-15);}.cls-35{fill:#ffd601;}.cls-36{fill:#061c27;}.cls-37{fill:#01445e;}.cls-38{fill:#347c97;}.cls-39{stroke-width:1.61px;}.cls-40{fill:#9abdcb;}.cls-41{stroke-width:1.5px;}.cls-42{fill:#8b5f4a;}.cls-43{clip-path:url(#clip-path-16);}.cls-44{fill:#563329;}.cls-45{clip-path:url(#clip-path-18);}.cls-46{fill:#ed6d51;}.cls-47{stroke:#ffe768;stroke-width:1.4px;}.cls-47,.cls-64{stroke-miterlimit:10;}.cls-48{fill:#16af96;}.cls-49{opacity:0.1;}.cls-50{clip-path:url(#clip-path-20);}.cls-51{clip-path:url(#clip-path-21);}.cls-52{clip-path:url(#clip-path-22);}.cls-53{clip-path:url(#clip-path-23);}.cls-54{clip-path:url(#clip-path-24);}.cls-55{clip-path:url(#clip-path-25);}.cls-56{clip-path:url(#clip-path-26);}.cls-57{clip-path:url(#clip-path-27);}.cls-58{clip-path:url(#clip-path-28);}.cls-59{stroke-width:2.65px;}.cls-60{clip-path:url(#clip-path-29);}.cls-61{clip-path:url(#clip-path-30);}.cls-62{clip-path:url(#clip-path-31);}.cls-63{fill:#004059;}.cls-64{stroke:#000;stroke-width:1.42px;}.cls-65{clip-path:url(#clip-path-32);}.cls-66{clip-path:url(#clip-path-34);}.cls-67{fill:#ffe768;}.cls-68{clip-path:url(#clip-path-36);}.cls-69{clip-path:url(#clip-path-37);}.cls-70{clip-path:url(#clip-path-38);}.cls-71{clip-path:url(#clip-path-39);}.cls-72{clip-path:url(#clip-path-40);}</style><clipPath id="clip-path"><rect class="cls-1" x="74.24" y="108.8" width="178.78" height="621.47"/></clipPath><clipPath id="clip-path-2"><rect class="cls-1" x="74.24" y="108.8" width="178.78" height="621.47"/></clipPath><clipPath id="clip-path-3"><path class="cls-1" d="M122.81,653.63c-2.44.16-2.89,2.52-7.72,7.34-2,2-4.75,4-10.28,8.09-7,5.17-10.58,7.76-12.86,8.81-4.51,2.07-8.11,2.73-9.92,6.25a5.76,5.76,0,0,0-.73,4c1.08,4.1,8.38,5.17,10.65,5.51,3.77.55,7.39.29,13.22-1.1,8.52-2,9.66-3.59,18.37-6.25a94.7,94.7,0,0,1,18-4c9.8-1.11,14,.25,16.53-2.94,1.53-1.92,1.41-4.86,1.1-10.65a72.45,72.45,0,0,0-1.83-12.86,29.64,29.64,0,0,1-11,5.51c-3.57.93-8,2.07-12.49.37-6.29-2.36-7.09-8.09-10.77-8.09h-.25"/></clipPath><clipPath id="clip-path-5"><rect class="cls-1" x="100.42" y="230.81" width="25.35" height="82.94"/></clipPath><clipPath id="clip-path-6"><rect class="cls-1" x="145.55" y="181.52" width="41.86" height="36.16"/></clipPath><clipPath id="clip-path-7"><path class="cls-1" d="M165.1,156.2c-2.69.69-4.94,3.09-4.67,3.41s2.2,1.16,5.13,1.71a5.28,5.28,0,0,0,1.19.11,4.57,4.57,0,0,0,1.22-.14A30.32,30.32,0,0,0,174.1,159a15.93,15.93,0,0,0-5.71-2.87,9,9,0,0,0-1.64-.16,6.62,6.62,0,0,0-1.65.22"/></clipPath><clipPath id="clip-path-9"><path class="cls-1" d="M142.23,156.14a16,16,0,0,0-5.72,2.87,30.63,30.63,0,0,0,6.14,2.28,4.45,4.45,0,0,0,1.21.14,5.36,5.36,0,0,0,1.2-.11c2.92-.55,4.86-1.39,5.13-1.71s-2-2.72-4.67-3.41a6.64,6.64,0,0,0-1.66-.22,9,9,0,0,0-1.63.16"/></clipPath><clipPath id="clip-path-11"><rect class="cls-1" x="182.87" y="287.47" width="41.98" height="362.73"/></clipPath><clipPath id="clip-path-12"><rect class="cls-1" x="153.25" y="436.97" width="10.33" height="214.76"/></clipPath><clipPath id="clip-path-13"><rect class="cls-1" x="303.02" y="130.53" width="288.24" height="578.01"/></clipPath><clipPath id="clip-path-15"><rect class="cls-1" x="397.67" y="201.06" width="41.16" height="34.02"/></clipPath><clipPath id="clip-path-16"><path class="cls-1" d="M423.5,168.61A4.91,4.91,0,0,0,422,169a10.5,10.5,0,0,0-4.23,3.47,11.54,11.54,0,0,0,5,2.32,4.86,4.86,0,0,0,1.14.07,4.53,4.53,0,0,0,1.15-.24,18.68,18.68,0,0,0,5.61-3.64,18.21,18.21,0,0,0-5.59-2.24,6.64,6.64,0,0,0-1.18-.1h-.37"/></clipPath><clipPath id="clip-path-18"><path class="cls-1" d="M401.61,169.88a7.25,7.25,0,0,0-1.53.29,18.08,18.08,0,0,0-5.26,2.92,18.26,18.26,0,0,0,6,2.91,4.11,4.11,0,0,0,1.16.1,5.49,5.49,0,0,0,1.13-.21,11.61,11.61,0,0,0,4.7-2.93A10.38,10.38,0,0,0,403.2,170a5.64,5.64,0,0,0-1.29-.17h-.29"/></clipPath><clipPath id="clip-path-20"><rect class="cls-1" x="549.16" y="229.49" width="6.81" height="15.19"/></clipPath><clipPath id="clip-path-21"><rect class="cls-1" x="416.03" y="418.78" width="0.1" height="0.23"/></clipPath><clipPath id="clip-path-22"><rect class="cls-1" x="416.14" y="413.8" width="21.22" height="237.66"/></clipPath><clipPath id="clip-path-23"><rect class="cls-1" x="387.23" y="222.18" width="59.16" height="14.25"/></clipPath><clipPath id="clip-path-24"><rect class="cls-1" x="177.83" y="121.53" width="189.31" height="587.01"/></clipPath><clipPath id="clip-path-25"><rect class="cls-1" x="177.83" y="121.53" width="189.31" height="587.01"/></clipPath><clipPath id="clip-path-26"><rect class="cls-1" x="296.66" y="181.29" width="15.76" height="24.17"/></clipPath><clipPath id="clip-path-27"><rect class="cls-1" x="268.03" y="197.25" width="41.47" height="34.28"/></clipPath><clipPath id="clip-path-28"><rect class="cls-1" x="248.67" y="216.93" width="30.67" height="125.15"/></clipPath><clipPath id="clip-path-29"><rect class="cls-1" x="229.05" y="364.47" width="30.58" height="43.95"/></clipPath><clipPath id="clip-path-30"><rect class="cls-1" x="228.25" y="258.91" width="16.08" height="61.54"/></clipPath><clipPath id="clip-path-31"><rect class="cls-1" x="248.67" y="218.25" width="28.81" height="123.83"/></clipPath><clipPath id="clip-path-32"><path class="cls-1" d="M294.91,165.92a10.41,10.41,0,0,0-4.46,3.23,11.78,11.78,0,0,0,4.9,2.65,5,5,0,0,0,1.15.14,4.17,4.17,0,0,0,1.16-.17,18.73,18.73,0,0,0,5.87-3.31,17.88,17.88,0,0,0-5.47-2.6,6.88,6.88,0,0,0-1.56-.2,5.69,5.69,0,0,0-1.59.26"/></clipPath><clipPath id="clip-path-34"><path class="cls-1" d="M272.85,165.76a18.31,18.31,0,0,0-5.48,2.61,18.84,18.84,0,0,0,5.88,3.3,4.12,4.12,0,0,0,1.16.17,4.87,4.87,0,0,0,1.14-.14,11.82,11.82,0,0,0,4.91-2.65,10.45,10.45,0,0,0-4.47-3.23,5.62,5.62,0,0,0-1.58-.26,6.81,6.81,0,0,0-1.56.2"/></clipPath><clipPath id="clip-path-36"><rect class="cls-1" x="321.91" y="241.06" width="18.88" height="68.63"/></clipPath><clipPath id="clip-path-37"><rect class="cls-1" x="286.53" y="416.6" width="0.1" height="0.24"/></clipPath><clipPath id="clip-path-38"><rect class="cls-1" x="286.63" y="411.58" width="21.38" height="239.45"/></clipPath><clipPath id="clip-path-39"><rect class="cls-1" x="316.59" y="326.61" width="30.84" height="83.91"/></clipPath><clipPath id="clip-path-40"><rect class="cls-1" x="296.13" y="217.45" width="18.72" height="122.8"/></clipPath></defs><g id="Groupe_103" data-name="Groupe 103"><g class="cls-2"><g id="Groupe_102" data-name="Groupe 102"><g id="Groupe_77" data-name="Groupe 77"><g class="cls-3"><g id="Groupe_76" data-name="Groupe 76"><path id="Tracé_545" data-name="Tracé 545" class="cls-4" d="M107.1,406.24c-.26-.48-2.87-7.26-6.57-8.67A10.39,10.39,0,0,0,88,402.33c-1.2,2.38-1.1,8.3-1,12.23,0,1,0,.29.44,5,.34,4.1.4,5.48,1,7.39a16.35,16.35,0,0,0,1.6,3.54c6.83-.48,12.59.09,14.93-1.53,1-.66,7.82-9.43,6.85-13.81-.23-1-.76-1-2.4-4-1.39-2.53-1.53-3.46-2.31-4.9"/><path id="Tracé_546" data-name="Tracé 546" class="cls-4" d="M111.52,414.49s1.08,2.37,1.75,3.9,3.27,6.55,5.29,7.44c0,0,.16,2.06-3.54,1.47s-7.42-8.1-7.42-8.1Z"/><path id="Tracé_547" data-name="Tracé 547" class="cls-4" d="M108.32,420.05s4.54,24.42,4.45,25.22-1.89,1.38-2.79,1-3.41-11.06-4-13.28-3.19-11.62-2.92-13.21,5.23.27,5.23.27"/><path id="Tracé_548" data-name="Tracé 548" class="cls-4" d="M103.71,421.71c-.6.4-.55,6.37,1.06,13.57,1.11,5,3.4,8.87,3.68,10.69.23,1.43-1.83,2.58-2.82,1.78a38.1,38.1,0,0,1-4.56-9.94c-2.39-7.66-4.15-15.87-4.15-15.87Z"/><path id="Tracé_549" data-name="Tracé 549" class="cls-4" d="M92.87,423.86a111.61,111.61,0,0,0,3.29,13.62,66.56,66.56,0,0,0,3.37,8.7c1.5,2.73,3.19,1.76,3.67.13.24-.79-1.4-2.78-3.28-10.11s-2.55-19-2.55-19Z"/><path id="Tracé_550" data-name="Tracé 550" class="cls-4" d="M89.23,427.73c.68,4.59,2.43,12.94,5.1,15.3a1.57,1.57,0,0,0,2.21.12,1.66,1.66,0,0,0,.38-.53c.33-.6-4-12.05-2.86-15.65Z"/><path id="Tracé_551" data-name="Tracé 551" class="cls-5" d="M223.23,674.92c3.1,4.45-.48,6.56,1.38,17,2.12,12,7.7,14.16,6.4,22.3a19.11,19.11,0,0,1-8.7,13c-8.43,5.07-21.4,3.52-26.87-2.54a12.64,12.64,0,0,1-2.17-3.45c-2.75-5.82.23-8-.23-17.13a138.08,138.08,0,0,0-2.29-15.81h0c-2.24-13.75-3.3-15-1.83-17,5-6.81,27.84-5.63,34.31,3.65"/><path id="Tracé_552" data-name="Tracé 552" class="cls-6" d="M216.77,654.9c-.28-2.08-2.61-3.34-4.57-4.39a16.15,16.15,0,0,0-14.67-.16c-1.2.62-3.21,1.7-3.75,3.75a4.61,4.61,0,0,0,.08,2.47c1,3.38,5.88,6.88,11.09,6.86,6.08,0,12.31-4.84,11.82-8.53"/><path id="Tracé_553" data-name="Tracé 553" class="cls-4" d="M216,635.72c-.61,4.09-.65,21.23-.24,24.42l-20.3.64c-.1-4.62-1.06-24.82-1.45-30l22,4.93"/><path id="Tracé_554" data-name="Tracé 554" class="cls-7" d="M216.72,655.09c-1.1.56-2.78,2.32-4.65,3.26a26.05,26.05,0,0,1-3.39,1.57,13.13,13.13,0,0,1-6.44.29c-5.08-1-6.69-5.46-8.06-4.88-1.73.74.76,4.46-.61,7.82-1.22,3-1.68,3-2.41,6.14-.88,3.79-.24,6.47.64,11.29.8,4.37,1.82,9.91,2.26,15,.78,9.12-1,9.17.32,13.42,1.46,4.81,6.28,13.28,14.66,14s16.12-6.94,17.89-13.57c.87-3.3-.28-7.3-2.58-15.28-1.69-5.83-3-9.28-3.59-12.6A116.11,116.11,0,0,1,219,668c-.34-4.58-.76-5.37-2.31-12.92"/><path id="Tracé_555" data-name="Tracé 555" class="cls-4" d="M229.83,404.8c.2-.52,1.86-7.64,5.48-9.65,4.54-2.52,10.83-1.31,13.76,2.62,1.61,2.16,2.4,8,2.88,11.93.12,1,0,.3.31,5,.27,4.11.42,5.48.09,7.48a16.59,16.59,0,0,1-1.12,3.76,29.59,29.59,0,0,1-15-2.36c-1.09-.5-10.26-4.72-9.91-9.2.08-1.07.62-1.15,1.87-4.38,1.05-2.74,1.05-3.68,1.64-5.23"/><path id="Tracé_556" data-name="Tracé 556" class="cls-4" d="M226.48,413.69s-.7,2.51-1.13,4.12-2.2,7-4.07,8.18c0,0,.16,2.06,3.73.9s6.08-9.16,6.08-9.16Z"/><path id="Tracé_557" data-name="Tracé 557" class="cls-4" d="M230,418.69s-.7,24.83-.48,25.6,2.07,1.71,2.91,1.2,2.37-11.79,2.58-14.08.63-12.27.12-13.8-5.13,1.08-5.13,1.08"/><path id="Tracé_558" data-name="Tracé 558" class="cls-4" d="M235.31,419.62c1.12.5,0,25.6,0,26.79.06,1.45,2.53,1.94,3.38,1,.61-.68,3.37-28.62,3.37-28.62Z"/><path id="Tracé_559" data-name="Tracé 559" class="cls-4" d="M246.06,419.88s.35,21.59-.52,24.58-2.36,3.43-3.18,2c-.4-.72-.77-4.34-.53-11.91s-1.59-20.11-1.59-20.11Z"/><path id="Tracé_560" data-name="Tracé 560" class="cls-4" d="M252.15,423.32a120.71,120.71,0,0,1-.94,15.32c-.4,2.48-1.63,3-2.33,2.56-1.33-.77-1.87-19.53-1.87-19.53Z"/><path id="Tracé_561" data-name="Tracé 561" class="cls-8" d="M212,680.2a1.12,1.12,0,1,0,1.24-1h-.13a1.06,1.06,0,0,0-1.11,1"/><path id="Tracé_562" data-name="Tracé 562" class="cls-8" d="M199.68,680a1.12,1.12,0,1,0,1.24-1h-.13a1.05,1.05,0,0,0-1.11,1"/><path id="Tracé_563" data-name="Tracé 563" class="cls-8" d="M212.6,686.57a1.12,1.12,0,1,0,2.23.27,1.12,1.12,0,0,0-1-1.24h-.14a1,1,0,0,0-1.11,1"/><path id="Tracé_564" data-name="Tracé 564" class="cls-8" d="M200.52,686.46a1.12,1.12,0,1,0,2.22.27,1.11,1.11,0,0,0-1-1.24h-.14a1.06,1.06,0,0,0-1.11,1"/><path id="Tracé_565" data-name="Tracé 565" class="cls-8" d="M214.66,694a1.12,1.12,0,1,0,1.24-1h-.13a1.06,1.06,0,0,0-1.11,1"/><path id="Tracé_566" data-name="Tracé 566" class="cls-8" d="M200.7,693.91a1.12,1.12,0,1,0,1.25-1h-.14a1.06,1.06,0,0,0-1.11,1"/><path id="Tracé_567" data-name="Tracé 567" class="cls-9" d="M212.5,680.42a11.82,11.82,0,0,1-11.28-.29"/><path id="Tracé_568" data-name="Tracé 568" class="cls-9" d="M213.14,686.7a10.52,10.52,0,0,1-4.67,1.58,10.9,10.9,0,0,1-6.61-1.58"/><path id="Tracé_569" data-name="Tracé 569" class="cls-9" d="M214.59,694.27a15.63,15.63,0,0,1-12.4-.28"/><path id="Tracé_570" data-name="Tracé 570" class="cls-10" d="M219.26,713.13c.43.4-2.88,5.91-8,6.56-6.56.83-12.77-6.56-12.41-7,.16-.18,1.48.91,4.83,2,2.36.77,5.66,1.86,9.19,1.29,4.08-.66,6.14-3.15,6.44-2.86"/><path id="Tracé_571" data-name="Tracé 571" class="cls-11" d="M104.3,388.23l1.6,14L85,404.14V390.23Z"/><path id="Tracé_572" data-name="Tracé 572" class="cls-5" d="M78.91,685.59c-1.65,1.83-5.75,6.41-4.41,9.91,1,2.47,4.78,4.88,36.37,3.31,28.23-1.41,36.53-3.9,44.08-8.27,5.33-3.08,14.47-9.5,13.22-13.22-1-3-8.54-3-18.18-2.75-52.65,1.06-63.19,2.22-71.08,11"/><path id="Tracé_573" data-name="Tracé 573" class="cls-12" d="M179.47,203.31l-15.38-2.47-19.83,4,3.89,6.17,30.37-3.41Z"/><path id="Tracé_574" data-name="Tracé 574" class="cls-4" d="M149.72,206.05l-29.36,12.49,60.76,20.35,18.62-23.15-20.26-8.63L175,206.05Z"/><path id="Tracé_575" data-name="Tracé 575" class="cls-4" d="M125.75,636.36c.64,2.6,3.75,9.43.8,15.38-2.33,4.7-8.17,9-13.3,12.91-5.61,4.23-4.7,4.68-10.28,9.18-8.69,7-15.41,5.49-17.64,11-.33.84-1.37,3.79,0,5.88,2.18,3.32,9,2.31,14.33,1.47,7.8-1.24,10.25-3,18.73-5.51,5.81-1.74,10.73-2.63,20.57-4.41,5.78-1,12.3-2.07,19.47-2.94-1.8-7.19-.83-15.44-1.83-24.61a183.54,183.54,0,0,1-1.1-19.47c-9.07.37-20.7.74-29.76,1.1"/><path id="Tracé_576" data-name="Tracé 576" class="cls-13" d="M125.78,256.53a27.15,27.15,0,0,1-1.85,2.42l-8,56.92V321l-2,5.53-.38.38a6,6,0,0,0-.77-2.13c-3.73-5.91-17.45-8.53-17.45-8.53a10.1,10.1,0,0,0-3.59.35,7.52,7.52,0,0,0-4.25,3,6.16,6.16,0,0,0-.33.55c0-.11,0-.22,0-.33,0-1.55,4.24-37.45,8.72-61.52q1.41-8.08,3.62-16c4-13.35,10.31-19,10.31-19a9.23,9.23,0,0,1,.88-.6,14,14,0,0,1,8.81-2.17c3.35.45,7,2.64,9.93,8.58,5.65,11.46-.38,22.6-3.66,27.36"/><path id="Tracé_577" data-name="Tracé 577" class="cls-7" d="M157.33,655.83a29.64,29.64,0,0,1-11,5.51c-3.57.93-8,2.07-12.48.37-6.43-2.42-7.12-8.35-11-8.08-2.44.16-2.89,2.52-7.72,7.34-2,2-4.75,4-10.28,8.09-7,5.17-10.58,7.76-12.86,8.81-4.51,2.07-8.11,2.73-9.92,6.25a5.77,5.77,0,0,0-.73,4c1.08,4.1,8.38,5.17,10.65,5.51,3.77.55,7.39.29,13.22-1.1,8.52-2,9.66-3.59,18.37-6.25a94.7,94.7,0,0,1,18-4c9.8-1.11,14,.25,16.53-2.94,1.52-1.92,1.4-4.86,1.1-10.65a72.47,72.47,0,0,0-1.84-12.86"/></g></g></g><g id="Groupe_79" data-name="Groupe 79"><g class="cls-14"><g id="Groupe_78" data-name="Groupe 78"><path id="Tracé_578" data-name="Tracé 578" class="cls-9" d="M112.93,659.14a37.78,37.78,0,0,1,5.79,8.68"/><path id="Tracé_579" data-name="Tracé 579" class="cls-9" d="M108.11,662.31a41.63,41.63,0,0,1,3.58,5.09c.57,1,1.07,1.87,1.52,2.76"/><path id="Tracé_580" data-name="Tracé 580" class="cls-9" d="M103.29,665.2a16.87,16.87,0,0,1,3.58,4.4,16.64,16.64,0,0,1,1.24,2.76"/></g></g></g><g id="Groupe_87" data-name="Groupe 87"><g class="cls-3"><g id="Groupe_86" data-name="Groupe 86"><path id="Tracé_582" data-name="Tracé 582" class="cls-15" d="M189.8,152.51c-2.1,13.22-6.67,34.47-14.12,42.41-1.45,1.55,4.35-35.52,3.06-37-4.19-4.69.86-11.22-1.51-14.47.48-5.11-3.92-11.5-.6-16,5.25,0,12.55,3.41,13.31,10.51a51.72,51.72,0,0,1-.14,14.49"/><path id="Tracé_583" data-name="Tracé 583" class="cls-13" d="M111.87,345l-3,17.76h0c-.85,8.4-3.5,28.78-3.5,28.78s-22.5,2.25-22.43-1.49c.15-7.21.8-62.89,5-71.88a5.12,5.12,0,0,1,.27-.52,7.67,7.67,0,0,1,4-3.07,11.6,11.6,0,0,1,3.55-.65s13.88,1,18.1,5.82a4.78,4.78,0,0,1,.94,1.8c1.36,4.46-.72,13.37-2.84,23.45"/><path id="Tracé_584" data-name="Tracé 584" class="cls-16" d="M220.73,650.59c-2.92,0-17.59-.82-29.67-1,0,0-11.82-97.19-14.8-122.72-2.34-20-8.78-89.28-8.78-89.28l-3.9-.95V437c-6.23-6-17.23,4.36-22.6-14.74a82.39,82.39,0,0,1-1.52-37.85c.33-1.79.7-3.47,1.1-5h75.26l.29,4.94c1.84,22.95,3.9,57.55,3.66,100.44-.09,15.42-.41,22.28-.53,34.89-.26,27.34,1.76,130.62,1.49,131"/><path id="Tracé_585" data-name="Tracé 585" class="cls-9" d="M191.09,384.38A27.36,27.36,0,0,0,200,396.14c5.25,4,7.35,4.36,9.79,4.67"/><path id="Tracé_586" data-name="Tracé 586" class="cls-16" d="M167.48,437.45l-3.9-.95c0-3.83.19,32.94-1.17,62.86-1,22-2.3,37.71-2.77,44-1.52,19.86-2.56,66.07-1,108.4-11.9,0-24-1.62-35.88-1.62.39-46.46-1.43-98.87-3.25-125.23-1.49-21.62-2.88-34.33-4-58.38-1.79-36.78-1.43-66.93-.81-87.15h51.59c1.08,26.31,1.53,30.44,1.26,58.09"/><path id="Tracé_587" data-name="Tracé 587" class="cls-9" d="M139.46,384.38a27.17,27.17,0,0,1-21.9,17"/><line id="Ligne_167" data-name="Ligne 167" class="cls-9" x1="165.16" y1="386.74" x2="163.14" y2="430.26"/><path id="Tracé_588" data-name="Tracé 588" class="cls-9" d="M173,386.74l-.54,20a5.29,5.29,0,0,1-2.16,3.92,4.89,4.89,0,0,1-2.7.81"/><path id="Tracé_589" data-name="Tracé 589" class="cls-4" d="M177.93,203.41a47.76,47.76,0,0,0,0,6.33c.26,1.59-2.81,3.3-6.34,4.72-1,.39-2,.76-3,1.1-3.56,1.22-6.77,2-6.77,2s-16-1.27-16.33-4.59c-.09-.86-.19-4.72-.2-8.88,0-3.25,0-6.69.2-9,.24-3.27.5-6.55.69-8.93.18-2.16.3-3.58.3-3.58l22.63-.78,10-.34s-.27,3.76-.57,8.57c-.26,4.26-.54,9.33-.67,13.32"/><g id="Groupe_82" data-name="Groupe 82" class="cls-17"><g id="Groupe_81" data-name="Groupe 81"><g class="cls-18"><g id="Groupe_80" data-name="Groupe 80"><path id="Tracé_590" data-name="Tracé 590" class="cls-19" d="M125.78,256.53a27.29,27.29,0,0,1-1.85,2.43l-7.6,54.58s-6.86,2.38-14.47-8.84c-4.31-6.36,2.11-53.59,5.52-62.4a22.5,22.5,0,0,1,5.93-11.47c1.56-1,12.46,25.7,12.46,25.7"/></g></g></g></g><path id="Tracé_591" data-name="Tracé 591" class="cls-12" d="M158.81,216.56l2.22,4.56-4.33-1.78Z"/><path id="Tracé_592" data-name="Tracé 592" class="cls-12" d="M161.77,216.56l-1.57,4.56,3.48-2.4Z"/><g id="Groupe_85" data-name="Groupe 85" class="cls-17"><g id="Groupe_84" data-name="Groupe 84"><g class="cls-20"><g id="Groupe_83" data-name="Groupe 83"><path id="Tracé_593" data-name="Tracé 593" class="cls-19" d="M177.93,203.41c0,1.33-.07,3.55-.07,3.55l8.91,1.63s2.13,7.6-1.39,9c-1,.39-11.76-.76-16.73-2S154.4,203,154.4,203l-8.85-7.82c.23-3.27.5-6.54.69-8.92l4.44.53,18.49-4.89,10-.35s-.27,3.77-.57,8.57c-.26,4.27-.54,9.34-.67,13.32"/></g></g></g></g><path id="Tracé_594" data-name="Tracé 594" class="cls-13" d="M230.66,263.83l-5,7.91-5,8.05-1.56,2.48c-.56,9.93-3.08,36.05-3.09,36.13-2.57,23.45,1.72,38,.18,63.44a2.46,2.46,0,0,1-1.68,2.27,1.86,1.86,0,0,1-.61.1c-33.95,6.93-72.38,6.81-98.5-.45a2.64,2.64,0,0,1-2.53-2.6c-1.53-25.23,2.23-47.07,1.27-70.45a196.55,196.55,0,0,0-6.79-43.58c-3.45-12.69-4.89-32.79-2.39-37.12.49-.85,1-1.67,1.57-2.47,7.58-10.82,29.3-16.62,34.18-18.45,5.12,2.09,20.17,11.18,20.17,11.18s18.07-9.4,21.89-13.36c2.84,0,12.86,2.86,17.06,4.88,5,2.39,20.33,4.2,27.62,16.07.13.23.27.46.41.69,2.49,4.34,4.09,20.36,2.81,35.28"/><path id="Tracé_595" data-name="Tracé 595" class="cls-4" d="M133.82,143.43c-1.23,2.31-3.51,14.36.4,27.88,5.69,19.67,9.43,22.57,11.15,23.72a21.34,21.34,0,0,0,13.79,3.24c9.55-1,15.2-8.35,16.42-9.93,8-10.43,5.72-23.77,3-39.33-1.45-8.37-2.85-10.16-3.85-11.15-5.09-5.05-39,1.81-41,5.57"/><path id="Tracé_596" data-name="Tracé 596" class="cls-21" d="M174.1,159a30.54,30.54,0,0,1-6.13,2.28,4.57,4.57,0,0,1-1.22.14,5.42,5.42,0,0,1-1.2-.11,20.17,20.17,0,0,1-5.12-1.71,9.8,9.8,0,0,1,4.66-3.41,6.64,6.64,0,0,1,1.66-.22,8.92,8.92,0,0,1,1.63.16A16,16,0,0,1,174.1,159"/></g></g></g><g id="Groupe_89" data-name="Groupe 89"><g class="cls-22"><g id="Groupe_88" data-name="Groupe 88"><path id="Tracé_597" data-name="Tracé 597" d="M169.61,158.87a2.57,2.57,0,1,1-2.54-3,2.79,2.79,0,0,1,2.54,3"/></g></g></g><g id="Groupe_91" data-name="Groupe 91"><g class="cls-3"><g id="Groupe_90" data-name="Groupe 90"><path id="Tracé_599" data-name="Tracé 599" class="cls-23" d="M174.1,159a16,16,0,0,0-5.72-2.87,8.83,8.83,0,0,0-1.63-.16,6.56,6.56,0,0,0-1.65.22,9.78,9.78,0,0,0-4.67,3.41"/><path id="Tracé_600" data-name="Tracé 600" class="cls-21" d="M136.51,159a30.63,30.63,0,0,0,6.14,2.28,4.45,4.45,0,0,0,1.21.14,5.36,5.36,0,0,0,1.2-.11,20.24,20.24,0,0,0,5.13-1.71,9.82,9.82,0,0,0-4.67-3.41,6.62,6.62,0,0,0-1.65-.22,9,9,0,0,0-1.64.16,15.93,15.93,0,0,0-5.71,2.87"/></g></g></g><g id="Groupe_93" data-name="Groupe 93"><g class="cls-24"><g id="Groupe_92" data-name="Groupe 92"><path id="Tracé_601" data-name="Tracé 601" d="M141,158.87a2.57,2.57,0,1,0,2.54-3,2.79,2.79,0,0,0-2.54,3"/></g></g></g><g id="Groupe_101" data-name="Groupe 101"><g class="cls-3"><g id="Groupe_100" data-name="Groupe 100"><path id="Tracé_603" data-name="Tracé 603" class="cls-11" d="M232.27,385.06l-1,13.58,20.13.77.2-14.35Z"/><path id="Tracé_604" data-name="Tracé 604" class="cls-23" d="M136.51,159a16,16,0,0,1,5.72-2.87,8.92,8.92,0,0,1,1.63-.16,6.64,6.64,0,0,1,1.66.22,9.8,9.8,0,0,1,4.66,3.41"/><path id="Tracé_605" data-name="Tracé 605" class="cls-25" d="M160.13,153.37a7.07,7.07,0,0,1,3.3-3,9.38,9.38,0,0,1,4.3-.85,9.48,9.48,0,0,1,4.22,1.18,7.17,7.17,0,0,1,3.07,3.19l0,.07a.13.13,0,0,1-.06.17.14.14,0,0,1-.11,0,21.23,21.23,0,0,0-3.53-1.35,16.25,16.25,0,0,0-3.73-.56,15.77,15.77,0,0,0-3.76.27A17.11,17.11,0,0,0,162,153a16.43,16.43,0,0,0-1.78.64.11.11,0,0,1-.16-.06.11.11,0,0,1,0-.11Z"/><path id="Tracé_606" data-name="Tracé 606" class="cls-25" d="M136.13,153.35a7.08,7.08,0,0,1,3.3-3,9.52,9.52,0,0,1,8.51.33,7.25,7.25,0,0,1,3.08,3.19l0,.08a.12.12,0,0,1-.06.16.09.09,0,0,1-.1,0,21.37,21.37,0,0,0-3.54-1.36,16.24,16.24,0,0,0-3.73-.55,15.81,15.81,0,0,0-3.76.27A14.45,14.45,0,0,0,138,153a15.86,15.86,0,0,0-1.79.64.14.14,0,0,1-.16-.07.12.12,0,0,1,0-.1Z"/><path id="Tracé_607" data-name="Tracé 607" class="cls-25" d="M154.63,160.69c-.32,1.51-.7,3-1.09,4.46l-.58,2.21c-.19.73-.37,1.46-.53,2.2a13.14,13.14,0,0,0-.35,2.16,2.36,2.36,0,0,0,0,.46.64.64,0,0,0,.14.3,1.77,1.77,0,0,0,.77.45,8.84,8.84,0,0,0,2.17.27c.75,0,1.52,0,2.28-.06a12.32,12.32,0,0,1-2.25.55,7.37,7.37,0,0,1-2.39,0,2.46,2.46,0,0,1-1.23-.6,1.53,1.53,0,0,1-.39-.7,3.16,3.16,0,0,1-.08-.68,12.61,12.61,0,0,1,.31-2.37c.17-.76.38-1.5.6-2.24s.47-1.47.74-2.18a35.31,35.31,0,0,1,1.86-4.22"/><path id="Tracé_608" data-name="Tracé 608" class="cls-25" d="M160.21,187.45a10.64,10.64,0,0,1-3.5.9,5.18,5.18,0,0,1-1.84-.14,6.9,6.9,0,0,1-1.68-.71s0,0,0,0h0c.59,0,1.18.14,1.77.25a11,11,0,0,0,1.71.23,10.36,10.36,0,0,0,1.76-.14,11.12,11.12,0,0,0,1.73-.39s0,0,0,0,0,0,0,0"/><path id="Tracé_609" data-name="Tracé 609" class="cls-21" d="M149.72,182.5s3.59,2.95,6.48,2.95c3.28,0,7.48-2.95,7.48-2.95a21.18,21.18,0,0,0-6.42-1,41.69,41.69,0,0,0-7.54,1"/><path id="Tracé_610" data-name="Tracé 610" class="cls-26" d="M149.72,182.5a44.34,44.34,0,0,1,7-.93,43.2,43.2,0,0,1,7,.93s-1.52-1.91-6.06-2.43a11,11,0,0,0-7.9,2.43"/><path id="Tracé_611" data-name="Tracé 611" class="cls-27" d="M182.61,128.82c-3.32,4.47-4.65,9.67-5.13,14.79a6.54,6.54,0,0,0-1.1-1c-3.46-2.7-10.3-.26-11.35.82a11.56,11.56,0,0,1-1.8,1.47,5.19,5.19,0,0,1-.77.42c-3.15,1.45-5.56-.06-9.18.13-1.3.08-2.45.35-7.17,2.57-11.64,5.5-14.68,3.2-16.5,2-2.44-1.59-5-1.18-2.83-7,.39-1.05-1.46-1.33-1.89-2.57-.84-2.44.65.69,1.63-2,2-5.76-.65-7.86,1.08-11.9.9-2.11,3.06-4.86,8.91-6.89a10.53,10.53,0,0,1,6.09-6.89,10.26,10.26,0,0,1,7.7.26c3-3.68,5.35-4.3,6.89-4.18,3.67.27,4.67,4.78,10.68,6.75,2.18.72,2.25.19,4.86,1.08,2.36.8,5.54,1.89,7.71,4.87a12.12,12.12,0,0,1,2.17,7.3"/><path id="Tracé_612" data-name="Tracé 612" class="cls-4" d="M178.69,157.11c3.92-4.08,7.5-2.62,8.62-.4,1.47,2.92,1.6,8.93-1.62,13.72-.74,1.1-3.08,4.42-6.49,3.1-4.5-1.76-1.21-15.68-.51-16.41"/><g id="Groupe_96" data-name="Groupe 96" class="cls-17"><g id="Groupe_95" data-name="Groupe 95"><g class="cls-28"><g id="Groupe_94" data-name="Groupe 94"><path id="Tracé_613" data-name="Tracé 613" class="cls-19" d="M220.75,305.19c0,.09-1.86,49.4-2.68,75.21,0,1.1-2.63,4-2.63,4l9.41,265.73s-1.23,0-6.4.07c-1.68-36.5-12.65-209-14.35-245.45-.31-6.69-21.23-15-21.23-15-.09-2.06,19.82-1.59,19.87-2.85.49-13.84,5.1-21.05,7-43.06,1.16-13.09-1.7-37.21-.12-55.31.3-3.49,11.08,2,11.08,16.72"/></g></g></g></g><path id="Tracé_614" data-name="Tracé 614" class="cls-13" d="M243,312.5c.64,6.25-2.54,9.2-6.39,9.63a91.6,91.6,0,0,1-10.07.46,7.06,7.06,0,0,1-2.91-.39c-.39-.33-1.07,2.72-1.13,3.81l-3.41-2.89s-6.22-12.49-6.9-14.22l-7.86-20.16-1.24-14.85a160.9,160.9,0,0,1-3.31-17.41c-.69-5.17-.92-10.14-1.2-14.69-1.58-25.38,25-26.81,30.12-9.41,5.28,18.06,10.09,39.1,14.3,80.12"/><path id="Tracé_615" data-name="Tracé 615" class="cls-13" d="M253,382.72c-.68,7.07-21.77,3.58-21.77,3.58l-4.75-19.25a47.59,47.59,0,0,1-4.12-16.49l-1.53-30.75s2.3-4.15,3.42-5.7a13.28,13.28,0,0,1,9.95-5.18,7.92,7.92,0,0,1,1.19,0c1.67.06,4.69.52,6.56,3,5,6.5,11.73,63.79,11.05,70.86"/><g id="Groupe_99" data-name="Groupe 99" class="cls-17"><g id="Groupe_98" data-name="Groupe 98"><g class="cls-29"><g id="Groupe_97" data-name="Groupe 97"><path id="Tracé_616" data-name="Tracé 616" class="cls-19" d="M163.58,437l-5,214.77-5.37-1.62c-.05-16,5.58-144,7.5-167.66.93-11.49,1.84-45.49,2.83-45.49"/></g></g></g></g><path id="Tracé_617" data-name="Tracé 617" class="cls-21" d="M199.73,255c0-.1,0-.2,0-.3s0-.18,0-.27v-.05h0c0-.09,0-.17,0-.25s-.08-.37-.13-.57l-.06-.24,0,0c0-.1-.06-.21-.1-.31l0-.07v-.06a7.69,7.69,0,0,0,.06-1v-.29a2.83,2.83,0,0,0,0-.29,1.24,1.24,0,0,0,0-.27,2.7,2.7,0,0,0,0-.28c0-.1,0-.19,0-.28s-.05-.19-.07-.29l-.16-.51-.09-.23c0-.08-.06-.16-.09-.22-.11-.23-.22-.46-.35-.68a1.37,1.37,0,0,0-.13-.2,6.55,6.55,0,0,0-1.5-1.65l-.19-.14-.21-.14c-.14-.1-.28-.18-.43-.27l-.06,0-.08,0-.34-.16,0,0-.14-.06-.23-.1-.24-.08-.23-.07a6.3,6.3,0,0,0-1.05-.21l-.24,0-.21,0h-.73c-.26,0-.52,0-.78.07h0l-.08,0h-.09l-.31.06h0l-.31.07-.3.08-.15,0-.14,0,0,0h0l-.06,0-.2.07-.46.19,0,0-.22.1a7.3,7.3,0,0,0-1,.56l-.3.21-.24.18-.36.3a2.23,2.23,0,0,0-.22.21h0l0,0-.19.19-.06.06h0l-.19.2a8.33,8.33,0,0,0-1.33,2,2.72,2.72,0,0,0-.12.25l-.12.3c0,.08-.06.15-.08.22l0,.11,0,.13,0,0a.11.11,0,0,0,0,.05c0,.11-.06.21-.09.3v0h0s0,0,0,0h0v0c0,.11,0,.21-.07.32h0v0s0,0,0,0h0a1.89,1.89,0,0,0-.05.23v0l0,.19c0,.2-.05.4-.06.56a2.18,2.18,0,0,0,0,.25c0,.13,0,.26,0,.39a8.44,8.44,0,0,0,0,.87,2.36,2.36,0,0,0,0,.28,3.7,3.7,0,0,0,.1.58,2,2,0,0,0,.06.26.71.71,0,0,0,0,.17,1,1,0,0,0,.05.16h0a1.41,1.41,0,0,0,.06.22l0,.07,0,0a2.84,2.84,0,0,0,.13.35v0h0s0,0,0,.05a3.09,3.09,0,0,0,.14.32l0,.05c0,.12.11.24.17.36l0,0v0h0l.16.29h0l0,.09.14.22.1.15c.07.12.14.21.2.3l.21.28.33.4a3.07,3.07,0,0,0,.25.26l.09.1.27.25.29.26.29.23.22.16c.13.1.27.19.41.28l.25.15.28.16.2.1.28.13,0,0h0l.32.14.33.12.06,0,.06,0,.11,0,.12,0,.23.07h0l.08,0,.39.09.36.06a7.53,7.53,0,0,0,1.35.11h.33a2.43,2.43,0,0,0,.38,0,1.09,1.09,0,0,0,.26,0l.21,0,.27-.06a1.1,1.1,0,0,0,.26-.06l.32-.09.23-.07.17-.07.24-.09a1.57,1.57,0,0,0,.26-.12,6.62,6.62,0,0,0,.9-.5l.22-.15a7.12,7.12,0,0,0,1-.85l.14-.16c.06-.06.11-.13.17-.2a1.68,1.68,0,0,0,.19-.24,1.13,1.13,0,0,1,.1-.13c.11-.16.2-.3.28-.44l0,0,.12-.22a2.12,2.12,0,0,0,.11-.21,5,5,0,0,0,.28-.63,2.09,2.09,0,0,0,.08-.23l0-.06c0-.07.05-.15.07-.23h0a.29.29,0,0,0,0-.09v0a1.05,1.05,0,0,0,.05-.19h0v0l.06-.29a2.72,2.72,0,0,0,0-.3.44.44,0,0,1,0-.1.37.37,0,0,0,0-.11s0-.08,0-.12,0-.2,0-.3,0-.24,0-.36,0-.21,0-.31m-7,2.92-.32,0-.32,0-.24-.07-.13,0-.07,0a3.07,3.07,0,0,1-.63-.31.91.91,0,0,1-.16-.11,1.18,1.18,0,0,1-.22-.17l-.27-.25a.86.86,0,0,1-.13-.14l-.12-.15a1,1,0,0,1-.11-.15,2.61,2.61,0,0,1-.17-.28,3.17,3.17,0,0,1-.38-1,1.87,1.87,0,0,1,0-.25s0-.05,0-.08,0-.2,0-.3a3.46,3.46,0,0,1,3-3.43l.32-.05Zm0-7.42-.26,0a3.93,3.93,0,0,0-3.56,3.93v.21a1.49,1.49,0,0,0,0,.21l0,.23,0,.17a4,4,0,0,0,1.2,2.1l.22.18,0,0h0a3.17,3.17,0,0,0,.49.32l.25.13h0a1.78,1.78,0,0,0,.29.12,1.71,1.71,0,0,0,.3.09l.33.08.32,0,.25,0V260l-.31,0-.22,0H192l-.1,0-.19,0h0l-.2,0h0a5.82,5.82,0,0,1-.67-.22l-.21-.09-.21-.1a5.16,5.16,0,0,1-1-.62l-.18-.15c-.06,0-.11-.1-.17-.15a5.62,5.62,0,0,1-1.16-1.56c0-.07-.07-.15-.1-.23a3.52,3.52,0,0,1-.18-.45,1.33,1.33,0,0,1-.05-.19.75.75,0,0,1,0-.16,2.29,2.29,0,0,1-.07-.28l0-.17c0-.06,0-.11,0-.18a5.39,5.39,0,0,1-.06-.8,5.56,5.56,0,0,1,5.09-5.51l.3,0Zm0-2.11-.27,0a6,6,0,0,0-5.62,6,5.14,5.14,0,0,0,.07.88.57.57,0,0,0,0,.18h0v0a.45.45,0,0,0,0,.16,1.29,1.29,0,0,0,.06.25l.06.24c0,.07.05.16.08.23v0l0,.07v0a1.86,1.86,0,0,0,.1.25l.13.27.1.2a4.25,4.25,0,0,0,.35.58l.17.23.17.22,0,.05a3.24,3.24,0,0,0,.36.38,5.77,5.77,0,0,0,.81.67l.22.14a4.39,4.39,0,0,0,.47.27l.22.1.24.1.19.07,0,0,.33.1.1,0,.1,0a4.7,4.7,0,0,0,.63.13h.17l.27,0h.26v1.31l-.3,0-.47,0-.31,0-.28,0-.26-.05H191l0,0h0l-.2,0a6.21,6.21,0,0,1-.61-.2l-.31-.11a11,11,0,0,1-1.09-.54l-.07-.05-.2-.14-.26-.17-.34-.25-.2-.17-.08-.07,0,0a3.13,3.13,0,0,1-.32-.3l-.27-.29c-.1-.1-.19-.21-.28-.32a3.25,3.25,0,0,1-.23-.29h0c-.08-.1-.16-.22-.24-.34l-.18-.29,0-.07,0,0a5.89,5.89,0,0,1-.29-.55.84.84,0,0,1-.06-.14l0-.05-.06-.14c0-.08-.07-.16-.1-.23l-.12-.32c0-.12-.07-.22-.1-.34s-.05-.15-.07-.24l-.06-.26a.07.07,0,0,1,0-.05c0-.13-.06-.27-.08-.4s0-.2,0-.31v-.09l0-.09v-.08c0-.11,0-.22,0-.34s0-.25,0-.38a8,8,0,0,1,7.53-8l.3,0Zm.48-2.59.31,0,.44.07.25.05.22.05.19.06a6,6,0,0,1,1.27.55,3.35,3.35,0,0,1,.34.22l.05,0,.18.13a2.88,2.88,0,0,1,.34.27l.17.15.08.07.07.07.17.17.09.1.05.06.08.1.06.07.15.19a6.19,6.19,0,0,1,.58,1,1.24,1.24,0,0,1,.1.2.61.61,0,0,1,0,.12l0,.08a2.09,2.09,0,0,1,.08.23,1.38,1.38,0,0,1,.06.16v0l0,.05a1.21,1.21,0,0,1,.05.18,3,3,0,0,1,.08.32l.06.3v0L199,252l-.7-.9-.34-.41,0,0h0l-.29-.3-.3-.28a.27.27,0,0,0-.08-.07l-.29-.23-.09-.07-.3-.2-.44-.27-.27-.13-.33-.16-.27-.11-.22-.08-.18-.06h-.08l0,0-.23-.06-.26-.07a7.54,7.54,0,0,0-.83-.12l-.25,0Zm0,3.08.31,0,.4.05h.08l.41.09.33.1.25.08.28.1.08,0,.26.12,0,0a3.13,3.13,0,0,1,.36.19c.12.06.2.12.29.17l.2.14.09.06.18.13,0,0,.18.15.15.12.21.2.27.28.12.15a2.11,2.11,0,0,1,.19.23l.2.27.15.22.15.24c.06.11.12.22.17.33a3.89,3.89,0,0,1,.19.42l0,.07V253a6.22,6.22,0,0,1-.56,1.6l-.37.74-.15-.82c0-.11-.05-.23-.08-.35s-.07-.23-.1-.35-.08-.2-.11-.3l0-.07,0-.06-.07-.14h0l0-.06h0a.05.05,0,0,1,0,0l0,0,0-.07-.1-.17c-.06-.08-.1-.16-.16-.24s-.18-.26-.28-.38l-.21-.22-.15-.16a5.27,5.27,0,0,0-1.19-.85l-.19-.09-.19-.08-.21-.08a5,5,0,0,0-1.06-.25l-.25,0Zm0,2.1.33.06.36.07h0l.32.09.33.13a1.36,1.36,0,0,1,.27.12l0,0,0,0,.3.17a4.65,4.65,0,0,1,.57.42l.26.24.14.16.11.13a4.34,4.34,0,0,1,.69,1.15l0,.07a.49.49,0,0,1,0,.11l0,.09v0l.05.16a.57.57,0,0,0,0,.14,1.36,1.36,0,0,0,0,.17,4.9,4.9,0,0,1,.1.93,3,3,0,0,1,0,.43V256l-.06.08a6,6,0,0,1-3.72,1.83l-.31,0Zm0,7.43.26,0a6.24,6.24,0,0,0,2.78-.92l1-.63-.64,1a4.49,4.49,0,0,1-3.1,2l-.32,0Zm6.07-2.8a1.64,1.64,0,0,1,0,.23,2.46,2.46,0,0,1,0,.26c0,.09,0,.19,0,.29s0,.15,0,.23-.05.21-.07.31-.09.3-.13.43-.09.25-.14.37l-.15.34c-.07.14-.13.26-.2.38a2.16,2.16,0,0,1-.19.31,1.67,1.67,0,0,1-.16.24l0,.09v0h0a5.66,5.66,0,0,1-.43.52l-.08.08a2.43,2.43,0,0,1-.23.24h0l0,0-.22.19-.08.07c-.08.07-.17.15-.28.23l-.29.21-.05,0-.29.18,0,0-.32.17c-.1,0-.19.1-.33.15h0a4.72,4.72,0,0,1-.72.25l-.28.08-.5.1-.32,0-.31,0v-1.31l.25,0a5,5,0,0,0,4.29-4.11l0-.08.05-.06.25-.32a5.17,5.17,0,0,0,.46-.69c.08-.12.14-.24.21-.37l.47-.92.05,1c0,.14,0,.29,0,.44s0,.2,0,.3"/><path id="Tracé_618" data-name="Tracé 618" class="cls-11" d="M179.47,203.31c-4,4.86-10.2,9.21-17.7,13.25l5.8,14.17c12.33-11.18,16.59-18.37,17.28-23.8Z"/><path id="Tracé_619" data-name="Tracé 619" class="cls-11" d="M144.26,204.82c3.18,4.88,8.31,8.63,14.55,11.74l-5.6,13.23c-6.92-5.32-14.26-12.09-17-20.69Z"/></g></g></g></g></g></g><g id="Groupe_341" data-name="Groupe 341"><g class="cls-30"><g id="Groupe_340" data-name="Groupe 340"><g id="Groupe_313" data-name="Groupe 313"><g class="cls-30"><g id="Groupe_312" data-name="Groupe 312"><path id="Tracé_2832" data-name="Tracé 2832" class="cls-31" d="M441.6,162.22s3.9,5.89-8.88,38.38c0,0-2.83,8.72-3.82,24.49S426.66,196,426.66,196Z"/><path id="Tracé_2833" data-name="Tracé 2833" class="cls-16" d="M394.45,676.21c-.08-3.6.27-4.21-.36-5.2-1.2-1.88-3.31-2.18-7.17-2.67a31.15,31.15,0,0,0-11.65.89c-3.2.84-4.82,1.28-5.47,2.67-1.16,2.49,1.09,5.9,2.8,7.61,6.32,6.37,20.07,5.86,22.06,2.19.45-.83-.1-1.07-.21-5.49"/><path id="Tracé_2834" data-name="Tracé 2834" class="cls-16" d="M341.51,697.62c-1.09,1-1.24,3.18-1.26,3.67a4.7,4.7,0,0,0,.84,3.44c.81,1,2,1.39,6.17,2.18,3.31.63,5,1,6.86,1.14,6.12.63,6.85.15,16.82.46,4.13.13,5.47-.13,7.83-.86,2.8-.86,2.9-1.3,5.91-2.23,1.61-.5,2.24-.44,9-1.27,3.64-.44,4.25-.56,4.63-1,1.34-1.69-2.33-5.46-3.93-7a94.41,94.41,0,0,1-14.3,3.1c-6.41.88-13.42,1.84-21.86.58s-14.46-4.25-16.68-2.18"/><path id="Tracé_2835" data-name="Tracé 2835" class="cls-16" d="M433.35,677.28c.11-3.6-.36-4.21.48-5.2,1.58-1.88,4.38-2.18,9.47-2.67a54.22,54.22,0,0,1,15.41.89c4.23.83,6.36,1.28,7.22,2.66,1.54,2.49-1.44,5.9-3.69,7.62-8.36,6.36-26.53,5.86-29.17,2.19-.59-.83.14-1.07.28-5.49"/><path id="Tracé_2836" data-name="Tracé 2836" class="cls-16" d="M429.79,693.8c-.55.7.31,1.23,0,4.7-.13,1.34-.33,2.13.41,2.85s1.82.89,3.55,1.14a73.5,73.5,0,0,0,9.81,1.14c7.73.08,8.13,1.85,17.95,2.56,5.19.38,9.09.11,16.9-.43,7.58-.52,11-1.19,14-2.84.56-.31,4.32-2.45,3.55-3.85-.62-1.11-3.8-1.23-5-1.28-12.33-.5-33.52-2.16-36.94-2.42-12.33-.93-22.5-3.76-24.21-1.57"/><path id="Tracé_2837" data-name="Tracé 2837" class="cls-32" d="M414,216.8,383,228.28l2.46,26.54L442,254,450,227.55Z"/><path id="Tracé_2838" data-name="Tracé 2838" class="cls-32" d="M392.51,664.25a143.84,143.84,0,0,0,.94,18.8l-30.78.22a42.48,42.48,0,0,0,5.21-10.68c2.24-7,2-12.76,1.42-22-.23-4-2.75-18.65-3.91-25.33,8.44-.5,23.13-6.41,31.58-6.9.39,4.41-4.36,39.25-4.46,45.9"/><path id="Tracé_2839" data-name="Tracé 2839" class="cls-33" d="M393,674.71a3.6,3.6,0,0,0-2.62-.91c-1.17.27-1.12,1.67-2.24,2.6-.89.73-2.64,1.28-6.36.61.06-1.82.27-2.1.94-5.18.84-3.92,1.69-5.15.74-6.11-1.6-1.64-5.32.62-12.52,0-5.16-.45-7.19-2-8.6-.92-1.65,1.21.52,3.77.38,8.26-.14,4.25-2.27,5.06-4.12,7.77-2.37,3.49-5,5.71-10.27,10.09-5.45,4.55-8.31,6.15-8.23,9a6.24,6.24,0,0,0,2.43,4.28c2.88,2.21,6.49,1.31,13.64,1.22,12.93-.15,14.07,2.15,20.75.31,3.9-1.08,4.51-2.17,9.53-3.21,6-1.25,7.81-.26,9.53-1.69,2.68-2.21-1-5.3-1.12-14.22-.08-5.2,1-9.71-1.87-11.93"/><path id="Tracé_2840" data-name="Tracé 2840" class="cls-32" d="M365.19,349.47c-.08-.74,1.88-.87,3.77-3.24s1.76-4.39,2.79-4.51,2,1.48,2.15,3c.27,2.22-1.37,4.2-2.74,5.09-2.52,1.63-5.86.64-6-.3"/><path id="Tracé_2841" data-name="Tracé 2841" class="cls-32" d="M429.48,231.12c-1.73,5.75-25.43,12.42-25.6.22-.14-10.19-4-39.15-4-39.15h30.62V223a25.48,25.48,0,0,1-1,8.1"/><g id="Groupe_305" data-name="Groupe 305" class="cls-17"><g id="Groupe_304" data-name="Groupe 304"><g class="cls-34"><g id="Groupe_303" data-name="Groupe 303"><path id="Tracé_2842" data-name="Tracé 2842" class="cls-19" d="M434.5,235.08l-34.65-31.37-2.18-2,2.18,0,30.62-.59v20.66l8.36,2.5s-3.88,9.37-4.33,10.86"/></g></g></g></g><path id="Tracé_2843" data-name="Tracé 2843" class="cls-35" d="M466.54,257.05s-15.36,74.93-11,105.22H372.69c0-26,7.7-25.6-19.54-114.39-.83-14.74,12.08-15.26,12.08-15.26s22.88-11.87,28.28-9.83c21.58,8.15,26,8.85,48.65.51,3.58-1.32,19.12,4.64,19.12,4.64s6.09,14.38,5.27,29.12"/><path id="Tracé_2844" data-name="Tracé 2844" class="cls-32" d="M432.82,653.79a109.66,109.66,0,0,1,2.05,24.92l23.21-.29a98.42,98.42,0,0,1-.85-25.77c1.15-11.74,4.66-30.49.51-34.3-5.05-4.63-21.09-2.41-28.14,2.78-2.07,1.52,2,26.35,3.22,32.65"/><path id="Tracé_2845" data-name="Tracé 2845" class="cls-36" d="M366.59,352.45s-5.62,13.73-14.77,17.09c0,0,1.66-17.27,6.45-19.9s5.63-1.77,5.63-1.77Z"/><path id="Tracé_2846" data-name="Tracé 2846" class="cls-33" d="M430.83,695.8c-2.8-2.08.12-4.16,2.09-15.67.3-1.77.68-4.36,2.92-5,1.2-.34,2,.16,5.42.43s5.1.38,6.05-.29c1.33-.93-.42-2.44-.41-5.7,0-1.8,0-4.15,2.08-5.55.91-.62,2-.91,11.69-1,6.39-.06,7.23.05,7.93.57,1.69,1.24,0,3,.21,7.26a16.41,16.41,0,0,0,1.46,5.84c.34.7,1.74,3.41,7.93,7.69,7.62,5.27,11.29,5.16,14.81,9.4,1.39,1.67,3.46,4.15,2.09,6.12-1,1.39-3.25,2-15.23,3-14.44,1.25-18.82,1.08-21.91.86-7.29-.54-10.43-1.65-11.69-2.14-2.46-1-2.81-1.53-6-2.85-6-2.45-7.49-1.58-9.39-3"/><path id="Tracé_2847" data-name="Tracé 2847" class="cls-37" d="M462.61,517.2C464.55,549,465.34,651,465.34,651l-28.5.35-10.35.14s2.83-84.14.2-142c-.78-17.19-4.21-38-6.28-51-1.57-9.91-4.16-39.15-4.28-39.56l0-.09a1.12,1.12,0,0,0,0,.21c-.84,4.39-5.74,56.6-9.21,93.07-5.41,56.9-5.3,139.15-5.3,139.15h-39.8s9.22-122.65,6.63-149c.58-36.32-6.53-69.72-5.88-97.3.49-20.95,10-65.95,10-65.95,16-1.35,21.44,3.06,30.41,3.42,0,0,29.93-3.42,56.61-3.42,0,0,2.64,37,6.3,63.13,2.31,16.43-1.64,84.84-3.22,115.09"/><path id="Tracé_2848" data-name="Tracé 2848" class="cls-38" d="M459.57,340.85s-16.45,3.49-43.78,5.2-45,1.67-45,1.67l-1.87,9.81s21.24.06,47.39-.92a338.44,338.44,0,0,0,44.25-4.35Z"/><path id="Tracé_2849" data-name="Tracé 2849" class="cls-39" d="M459.57,340.85s-16.45,3.49-43.78,5.2-45,1.67-45,1.67l-1.87,9.81s21.24.06,47.39-.92a338.44,338.44,0,0,0,44.25-4.35Z"/><path id="Tracé_2850" data-name="Tracé 2850" class="cls-39" d="M420.61,361c-.17,10.25-2,35.22-1,49.7"/><path id="Tracé_2851" data-name="Tracé 2851" class="cls-39" d="M411.64,362.24c-.18,5.71-.66,22.17-.64,31.07a28.77,28.77,0,0,0,6.41,3.63"/><path id="Tracé_2852" data-name="Tracé 2852" class="cls-39" d="M440.8,369c2.14,1.76,4.48,3.56,7.05,5.34a104.43,104.43,0,0,0,14.74,8.54"/><path id="Tracé_2853" data-name="Tracé 2853" class="cls-39" d="M388.46,369a32.92,32.92,0,0,1-13.67,14.52"/><path id="Tracé_2854" data-name="Tracé 2854" class="cls-40" d="M422,351.52c0,3.3-2.45,5.17-6,5.53a5.43,5.43,0,0,1-5.94-4.86c0-.22,0-.45,0-.67a5.81,5.81,0,0,1,5.57-5.92,6.11,6.11,0,0,1,6.36,5.85v.07"/><path id="Tracé_2855" data-name="Tracé 2855" class="cls-41" d="M422,351.52c0,3.3-2.45,5.17-6,5.53a5.43,5.43,0,0,1-5.94-4.86c0-.22,0-.45,0-.67a5.81,5.81,0,0,1,5.57-5.92,6.11,6.11,0,0,1,6.36,5.85Z"/><path id="Tracé_2856" data-name="Tracé 2856" class="cls-21" d="M420.39,351a3.61,3.61,0,0,1-1.2,2.63c-1.93,2.05-5,2.1-5.08,1.85s2.17-.36,3.53-2.2.8-4.31,1.46-4.43c.47-.08,1.23,1.05,1.29,2.15"/><path id="Tracé_2859" data-name="Tracé 2859" class="cls-32" d="M351.77,357.13c1.6-4.71,6-6.57,7-7a13.28,13.28,0,0,1,5.81-1,19.29,19.29,0,0,1,3.7.76c4.86,1.13,6.1.48,10,1.5,1.16.3,1.74.85,3.81,1.87a41.11,41.11,0,0,1-3.52,10.81c-1.78,3.64-5.39,10.14-10.23,10.07a9.67,9.67,0,0,1-3.38-.89,34,34,0,0,1-7.5-4.05c-3.31-2.51-5.29-4-6-6.78a9.27,9.27,0,0,1,.36-5.34"/><path id="Tracé_2860" data-name="Tracé 2860" class="cls-32" d="M376.81,352.11l12.6,2.27s5.45.9,8,1.18a2.93,2.93,0,0,1,1.87.9,1.58,1.58,0,0,1,.13,2.23,1.46,1.46,0,0,1-.61.42c-1.16.66-19.8-1.2-19.8-1.2Z"/><path id="Tracé_2861" data-name="Tracé 2861" class="cls-32" d="M376.81,358.66l12.6,2s5.5.79,8,1a3.06,3.06,0,0,1,1.84.78c1,.95.46,1.86-.47,2.32-1.17.57-21.2-1-21.2-1Z"/><path id="Tracé_2862" data-name="Tracé 2862" class="cls-32" d="M373.9,364.35l12.6,2s5.5.79,8,1a3.14,3.14,0,0,1,1.84.78c1,.95.46,1.86-.48,2.32-1.16.57-21.2-1-21.2-1Z"/><path id="Tracé_2863" data-name="Tracé 2863" class="cls-32" d="M373.72,368.37l.49.66c1,1.77,3,2.57,5,3,1.65.36,3.57.76,4.8,1a3.08,3.08,0,0,1,1.77.92c.93,1,.31,1.89-.66,2.28-1.21.48-17.8-2.19-17.8-2.19Z"/><path id="Tracé_2864" data-name="Tracé 2864" class="cls-35" d="M304.36,314.31c13.83,19.38,25.29,36.77,47.46,55.23,2.05-6.64,3.37-13.92,12.08-21.67-6.17-5.41-31.26-51.94-46.61-53a13.43,13.43,0,0,0-12.93,19.46"/><path id="Tracé_2865" data-name="Tracé 2865" class="cls-35" d="M389.21,224.41c-4-.6-20.38,4.23-26.28,7.2-10.7,5.4-17.78,12.13-26.2,23.91-13.48,18.85-23.06,32.46-29,41-3.54,5.1-4.57,11.06-2.22,14.41,3.17,4.53,17.74,1.59,28.17-4.17,11.87-12.66,20.24-29.1,33.21-40.06,1.8-.48,9.88-.57,11.38-11.87,1.72-13,11.57-29,11-30.4"/><path id="Tracé_2866" data-name="Tracé 2866" class="cls-31" d="M407.16,137.34s-17-5.17-18.92,1.69c-2.35,8.26-3.59,6.45-6,13.53-1.18,3.53,2,9.66,2,9.66s2.16,4.06.83,10.77,4.23,11.18,4.23,11.18Z"/><path id="Tracé_2867" data-name="Tracé 2867" class="cls-32" d="M389.7,186.56c1.25,6.2,8.55,22.58,24.39,24.87,0,0,7.08,1.91,17.37-11.94,6.45-8.68,6.47-15.24,6.47-15.24s0-11.34-1.15-18.26-2.25-17.7-20.57-18.55-23.92,7.64-25.54,11.31-2.21,21.61-1,27.81"/><path id="Tracé_2868" data-name="Tracé 2868" class="cls-32" d="M435.11,169.28c.43,0,.64.95,1.74,1.17.88.18,1.45-.29,2.47-.62a6.37,6.37,0,0,1,3.79-.09c2.63,1.16,2.58,9-.5,14.27-.7,1.2-2.07,3.46-4.41,3.86a4.56,4.56,0,0,1-2.2-.18c-4.7-1.95-2.63-18.27-.89-18.4"/><path id="Tracé_2869" data-name="Tracé 2869" class="cls-25" d="M413.75,175.39c-.34,1.18-.68,2.36-1,3.56s-.63,2.37-.86,3.57a11.62,11.62,0,0,0-.23,1.76,2.68,2.68,0,0,0,0,.75,1.33,1.33,0,0,0,.1.34,1.47,1.47,0,0,0,.15.34,7.6,7.6,0,0,0,2.55,2.3h0s0,.05,0,.07h0s0,0,0,0a5.23,5.23,0,0,1-1.86-.53,4,4,0,0,1-1.57-1.3,2.75,2.75,0,0,1-.45-1,3.07,3.07,0,0,1,0-1.09,16.83,16.83,0,0,1,.46-1.86,56.15,56.15,0,0,1,2.6-7,.06.06,0,0,1,.07,0s0,0,0,.06"/><path id="Tracé_2870" data-name="Tracé 2870" class="cls-21" d="M430.65,170.94a18.68,18.68,0,0,1-5.61,3.64,4.53,4.53,0,0,1-1.15.24,5.45,5.45,0,0,1-1.14-.06,11.58,11.58,0,0,1-5-2.33A10.41,10.41,0,0,1,422,169a4.91,4.91,0,0,1,1.56-.35,6.7,6.7,0,0,1,1.55.09,18.21,18.21,0,0,1,5.59,2.24"/><path id="Tracé_2871" data-name="Tracé 2871" class="cls-25" d="M432.64,166.42a14.65,14.65,0,0,0-3.87-2.59,8.21,8.21,0,0,0-4.28-.79,8.42,8.42,0,0,0-2.1.6c-.7.29-1.4.6-2.13.84a23.3,23.3,0,0,1-4.67,1.09.11.11,0,0,1-.13-.1.1.1,0,0,1,0-.09,10.23,10.23,0,0,1,1.84-1.7,13.35,13.35,0,0,1,2.13-1.25,9,9,0,0,1,2.38-.72,15.91,15.91,0,0,1,2.58-.28,9,9,0,0,1,4.85,1.53,13.89,13.89,0,0,1,3.55,3.33.11.11,0,0,1,0,.16.11.11,0,0,1-.14,0Z"/><path id="Tracé_2872" data-name="Tracé 2872" class="cls-42" d="M418.49,201.48a9.12,9.12,0,0,1-1.56,1.13,4.74,4.74,0,0,1-1.87.61,4,4,0,0,1-2-.29,4.31,4.31,0,0,1-1.56-1.18,0,0,0,0,1,0,0s0,0,0,0a15.32,15.32,0,0,0,1.73.71,5.53,5.53,0,0,0,1.75.37,6.42,6.42,0,0,0,3.41-1.35h0s0,0,0,0"/></g></g></g><g id="Groupe_315" data-name="Groupe 315"><g class="cls-43"><g id="Groupe_314" data-name="Groupe 314"><path id="Tracé_2873" data-name="Tracé 2873" d="M426,171.33c.12,1.87-.86,3.46-2.19,3.54s-2.5-1.37-2.62-3.24.86-3.45,2.19-3.53,2.5,1.36,2.62,3.23"/></g></g></g><g id="Groupe_317" data-name="Groupe 317"><g class="cls-30"><g id="Groupe_316" data-name="Groupe 316"><path id="Tracé_2875" data-name="Tracé 2875" class="cls-44" d="M417.73,172.43a9.75,9.75,0,0,1,2.48-2.76,6.13,6.13,0,0,1,3.53-1.34,9.33,9.33,0,0,1,3.67.81,16.31,16.31,0,0,1,3.24,1.8,29.59,29.59,0,0,0-3.39-1.42,10.5,10.5,0,0,0-3.51-.66,6.33,6.33,0,0,0-3.31,1.14,13.63,13.63,0,0,0-2.71,2.43"/><path id="Tracé_2876" data-name="Tracé 2876" class="cls-21" d="M394.82,173.09a18.26,18.26,0,0,0,6,2.91,4.11,4.11,0,0,0,1.16.1,5.49,5.49,0,0,0,1.13-.21,11.61,11.61,0,0,0,4.7-2.93A10.38,10.38,0,0,0,403.2,170a5.28,5.28,0,0,0-1.58-.16,7.22,7.22,0,0,0-1.54.29,18.1,18.1,0,0,0-5.26,2.92"/><path id="Tracé_2877" data-name="Tracé 2877" class="cls-25" d="M392.59,168.05a9.64,9.64,0,0,1,2.92-3.33,8.75,8.75,0,0,1,4.32-1.6,14.32,14.32,0,0,1,2.36,0,8,8,0,0,1,2.21.5,10.46,10.46,0,0,1,2,1,8,8,0,0,1,1.74,1.49.12.12,0,0,1-.1.19,23,23,0,0,1-4.28-.62c-.67-.15-1.31-.36-1.95-.57a7.43,7.43,0,0,0-1.92-.38,8,8,0,0,0-3.84.82,9.92,9.92,0,0,0-3.27,2.55h0a.11.11,0,0,1-.16,0,.1.1,0,0,1,0-.13"/></g></g></g><g id="Groupe_319" data-name="Groupe 319"><g class="cls-45"><g id="Groupe_318" data-name="Groupe 318"><path id="Tracé_2878" data-name="Tracé 2878" d="M398.5,172.82c.11,1.87,1.29,3.32,2.61,3.24s2.32-1.67,2.2-3.54-1.29-3.32-2.62-3.24-2.31,1.67-2.19,3.54"/></g></g></g><g id="Groupe_339" data-name="Groupe 339"><g class="cls-30"><g id="Groupe_338" data-name="Groupe 338"><path id="Tracé_2880" data-name="Tracé 2880" class="cls-44" d="M407.83,173a14,14,0,0,0-3-2.07,6.3,6.3,0,0,0-3.43-.72,10.43,10.43,0,0,0-3.4,1.1,28.88,28.88,0,0,0-3.19,1.83,15.69,15.69,0,0,1,3-2.19,9.11,9.11,0,0,1,3.54-1.26,6.1,6.1,0,0,1,3.66.88,9.79,9.79,0,0,1,2.81,2.43"/><path id="Tracé_2881" data-name="Tracé 2881" class="cls-21" d="M407.46,197.59s4.28,3.19,7.15,3c3.23-.2,6.64-3.88,6.64-3.88a27.65,27.65,0,0,0-7.2-.65,27.27,27.27,0,0,0-6.6,1.52"/><path id="Tracé_2882" data-name="Tracé 2882" class="cls-26" d="M407.46,197.59a33.8,33.8,0,0,1,6.6-1.52,41.46,41.46,0,0,1,7.2.65s-1.88-2.2-6.42-2.57-7.38,3.44-7.38,3.44"/><path id="Tracé_2883" data-name="Tracé 2883" class="cls-46" d="M396.54,135.49S387.69,151,425.1,157.64c17.68,3.15,10.58,21,10.58,21s10.59-13.76,8.46-26.08-16.4-14-16.4-14-6.7-8.63-17.86-8-13.34,4.92-13.34,4.92"/><path id="Tracé_2884" data-name="Tracé 2884" class="cls-47" d="M437.39,194.29c0-1,.21-5.72.25-6.19l.52,0,.59-.05.38,0c.06.43,1,4.62,1.07,5.64C440.23,194.18,437.39,194.74,437.39,194.29Z"/><path id="Tracé_2885" data-name="Tracé 2885" class="cls-48" d="M440.18,187a1.78,1.78,0,1,1-1.9-1.67h0a1.78,1.78,0,0,1,1.89,1.67"/><path id="Tracé_2886" data-name="Tracé 2886" class="cls-35" d="M521.25,302.59c-7,10.55-22.33.49-22.4.44-20.15-13.37-31.33-32.12-36-41.75-11.66-23.89-8.1-32.52-8.1-32.52s-.2-2.44,2.87-2.15c19.77,1.84,57,59.51,61,65.08,3.56,5.06,4.66,7.92,2.69,10.9"/><path id="Tracé_2888" data-name="Tracé 2888" class="cls-32" d="M535.23,243.88l-.46-2.69a9,9,0,0,1,.33-4.36,9.82,9.82,0,0,1,8-6.55l15.25-4.65c5.48-.77,6.33.86,7.22,6.08l1.67,9.82c.89,5.23.83,4.74-4.34,6.44,0,0-11,5.14-16.11,4s-10.69-2.88-11.58-8.1"/><path id="Tracé_2889" data-name="Tracé 2889" class="cls-32" d="M583.82,216.89h0c.55,1.15-3.16,3.3-4.3,3.85l-20.11,9.54a2.31,2.31,0,1,1-2-4.18h0l20.1-9.54c1.15-.55,5.75-.82,6.29.33"/><path id="Tracé_2890" data-name="Tracé 2890" class="cls-32" d="M591.22,223.9h0c.4,1.27-2.51,3.34-3.78,3.75l-23,7.32a2.43,2.43,0,0,1-1.51-4.61h0L586,223c1.27-.4,4.85-.4,5.26.88"/><path id="Tracé_2891" data-name="Tracé 2891" class="cls-32" d="M590.56,233h0c.36,1.27-2.09,2.1-3.35,2.46l-21.3,5.9a2.39,2.39,0,0,1-1.28-4.6l21.3-5.9c1.27-.35,4.28.88,4.63,2.14"/><path id="Tracé_2892" data-name="Tracé 2892" class="cls-32" d="M584.7,242.16h0c.22,1.28-2.52,2.34-3.79,2.56l-16.78,2.68a2.35,2.35,0,0,1-.79-4.63h0l16.78-2.68c1.27-.22,4.36.8,4.58,2.07"/><path id="Tracé_2893" data-name="Tracé 2893" class="cls-32" d="M537.94,233.67c-.36-1.37,1.81-4.06,4.14-9.09,2.25-4.87,1.51-8.77,3.12-9.32,1.45-.49,2.45,1.81,3.18,4.54,1.09,4.08-1.58,7.13-2.82,11.16-.61,3,.06,7.17-1.23,7.86-1.7.91-6.13-4.16-6.39-5.15"/><g id="Groupe_325" data-name="Groupe 325" class="cls-49"><g id="Groupe_324" data-name="Groupe 324"><g class="cls-50"><g id="Groupe_323" data-name="Groupe 323"><path id="Tracé_2894" data-name="Tracé 2894" class="cls-19" d="M549.16,231.28s6,5.78,4.62,10.27,2.06,2.83,2.06,2.83.91-8.73-2.05-12.12c-2.68-3-4.76-3.88-4.63-1"/></g></g></g></g><path id="Tracé_2895" data-name="Tracé 2895" class="cls-32" d="M524.91,257.57l10.34-18.77,13.15,10.6-8.21,18.34Z"/><g id="Groupe_328" data-name="Groupe 328" class="cls-17"><g id="Groupe_327" data-name="Groupe 327"><g class="cls-51"><g id="Groupe_326" data-name="Groupe 326"><path id="Tracé_2896" data-name="Tracé 2896" class="cls-19" d="M416.1,418.78l0,.08h0l-.07.12c-.05.06,0,0,0-.21"/></g></g></g></g><g id="Groupe_331" data-name="Groupe 331" class="cls-17"><g id="Groupe_330" data-name="Groupe 330"><g class="cls-52"><g id="Groupe_329" data-name="Groupe 329"><path id="Tracé_2897" data-name="Tracé 2897" class="cls-19" d="M436.85,651.32v.13H426.49s2.83-84.14.2-142c-.78-17.19-4.21-38-6.28-51-1.57-9.91-4.09-39.09-4.28-39.57.4-.71,2-3.69,4.39-5.07,3.81.47,11.37,41.88,12.8,53.44,5.92,48.18,3.61,179.36,3.52,184.09"/></g></g></g></g><path id="Tracé_2899" data-name="Tracé 2899" class="cls-35" d="M499.35,295.06c7.92-22.46,17-33.91,31.24-52.5,1-1.31,16.41,16.6,16.13,17-1.62,2.52-15.47,33.39-28,45.81-.69.24-9.46,3.19-14.92-.53-4.33-2.95-5.27-4.42-4.45-9.81"/><g id="Groupe_337" data-name="Groupe 337" class="cls-17"><g id="Groupe_336" data-name="Groupe 336"><g class="cls-53"><g id="Groupe_335" data-name="Groupe 335"><path id="Tracé_2900" data-name="Tracé 2900" class="cls-19" d="M387.23,223.16s-.35,4.54,6.28,5.9a9.58,9.58,0,0,0,8.83,3.53,11.61,11.61,0,0,0,9.51,2.13c5.55,2.75,9.38,1.35,9.38,1.35s4.71,1.46,8.25-1.62c6.34-.18,7.27-3,7.27-3s4.76.5,6.27-3a5.35,5.35,0,0,0,3.37-4.77s-4.33-1.23-6.6,0a53.35,53.35,0,0,1-21.54,5.1c-9.59-.06-20.79-3.39-23.52-5.6s-7.5,0-7.5,0"/></g></g></g></g><path id="Tracé_2901" data-name="Tracé 2901" class="cls-21" d="M387.23,222.55s-.35,4.54,6.28,5.9a9.59,9.59,0,0,0,8.83,3.52,11.65,11.65,0,0,0,9.51,2.14c5.55,2.74,9.38,1.35,9.38,1.35s4.71,1.45,8.25-1.63c6.34-.18,7.27-3,7.27-3s4.76.51,6.27-3a5.34,5.34,0,0,0,3.37-4.76s-4.33-1.24-6.6,0a53.19,53.19,0,0,1-21.54,5.1c-9.59-.06-20.79-3.39-23.52-5.6s-7.5,0-7.5,0"/></g></g></g></g></g></g><g id="Groupe_148" data-name="Groupe 148"><g class="cls-54"><g id="Groupe_147" data-name="Groupe 147"><g id="Groupe_123" data-name="Groupe 123"><g class="cls-55"><g id="Groupe_122" data-name="Groupe 122"><path id="Tracé_620" data-name="Tracé 620" class="cls-16" d="M264.79,676c-.09-3.62.27-4.23-.37-5.24-1.2-1.89-3.34-2.2-7.22-2.68a31.19,31.19,0,0,0-11.74.89c-3.23.84-4.86,1.29-5.51,2.69-1.17,2.51,1.1,5.94,2.82,7.67,6.36,6.41,20.22,5.9,22.22,2.21.46-.84-.1-1.08-.2-5.53"/><path id="Tracé_621" data-name="Tracé 621" class="cls-16" d="M211.45,697.53c-1.1,1-1.25,3.21-1.27,3.7a4.76,4.76,0,0,0,.84,3.47c.82,1,2,1.4,6.22,2.2,3.33.64,5,1,6.92,1.16,6.16.63,6.89.15,16.94.46,4.16.13,5.51-.14,7.89-.87,2.82-.86,2.92-1.31,5.95-2.25,1.62-.5,2.26-.44,9-1.27,3.67-.45,4.28-.57,4.66-1,1.36-1.7-2.35-5.5-3.95-7.05a96,96,0,0,1-14.4,3.12c-6.46.88-13.52,1.85-22,.58s-14.56-4.28-16.8-2.2"/><path id="Tracé_622" data-name="Tracé 622" class="cls-16" d="M304,677c.12-3.63-.35-4.24.49-5.24,1.59-1.89,4.41-2.2,9.54-2.69a54.61,54.61,0,0,1,15.52.9c4.27.84,6.42,1.29,7.28,2.69,1.55,2.51-1.45,5.94-3.72,7.67-8.41,6.41-26.73,5.9-29.38,2.21-.6-.83.14-1.08.28-5.53"/><path id="Tracé_623" data-name="Tracé 623" class="cls-16" d="M300.39,693.69c-.56.71.31,1.23,0,4.74-.13,1.35-.34,2.14.42,2.87s1.82.89,3.57,1.14a72.92,72.92,0,0,0,9.88,1.15c7.79.08,8.2,1.86,18.08,2.58,5.23.38,9.16.11,17-.43,7.64-.52,11.09-1.2,14.09-2.87.56-.31,4.36-2.46,3.57-3.87-.62-1.12-3.83-1.24-5-1.29-12.43-.51-33.77-2.18-37.22-2.44-12.42-.94-22.66-3.78-24.39-1.58"/><path id="Tracé_624" data-name="Tracé 624" class="cls-31" d="M302.27,124.35a12.34,12.34,0,0,1,7.1,2.3,18.13,18.13,0,0,1,5.81,6.1c2.6,4.39,1.28,6,3.3,10.4,2.67,5.82,5.85,4.89,7.53,9.4,2.07,5.58-2.54,7.71-1.94,15.86.53,7.2,4.32,8,4.09,14.63-.2,5.79-3.1,6.26-3.8,11.76-1.15,9,6.16,11.8,6.24,20.38.07,7.54-5.48,17.22-14.63,19.37-8.94,2.1-17.66-3.83-21.31-10.33-1.75-3.13-2.83-7.28.22-23.46,4.82-25.6,10.28-29.83,6.88-37.66C297.35,153,285.51,154,284.54,145c-.93-8.59,9.27-16.49,10.77-17.65,3.19-2.47,5.4-3,6.95-3"/><g id="Groupe_106" data-name="Groupe 106" class="cls-17"><g id="Groupe_105" data-name="Groupe 105"><g class="cls-56"><g id="Groupe_104" data-name="Groupe 104"><path id="Tracé_625" data-name="Tracé 625" class="cls-19" d="M311.51,181.64c2.53,1.83-.36,12.13-6.53,18.65a25.39,25.39,0,0,1-7,5.17c-.69-1.82-2.6-7.54-.14-13.49,3-7.28,11.27-12,13.63-10.33"/></g></g></g></g><path id="Tracé_626" data-name="Tracé 626" class="cls-16" d="M302.73,216.93l-2.82-.39v2.22h2.82Z"/><path id="Tracé_627" data-name="Tracé 627" class="cls-32" d="M284.49,213.11l-31.28,11.57,2.47,26.74,57-.84,8-26.64Z"/><path id="Tracé_628" data-name="Tracé 628" class="cls-32" d="M262.83,663.92a144.42,144.42,0,0,0,.95,18.94l-31,.21A42.58,42.58,0,0,0,238,672.31c2.26-7,2-12.85,1.44-22.16-.24-4-2.77-18.79-3.95-25.52,8.51-.5,23.31-6.45,31.82-7,.4,4.45-4.39,39.55-4.49,46.25"/><path id="Tracé_629" data-name="Tracé 629" class="cls-33" d="M263.32,674.46a3.58,3.58,0,0,0-2.63-.92c-1.18.27-1.13,1.68-2.26,2.62-.9.74-2.66,1.29-6.4.61.06-1.83.27-2.11.94-5.21.86-3.95,1.7-5.19.75-6.16-1.61-1.66-5.36.62-12.61,0-5.2-.45-7.25-2-8.66-.93-1.67,1.22.52,3.8.37,8.32-.13,4.29-2.28,5.1-4.14,7.83-2.39,3.52-5.07,5.76-10.35,10.17-5.49,4.59-8.38,6.19-8.29,9.09a6.26,6.26,0,0,0,2.45,4.32c2.9,2.22,6.54,1.31,13.74,1.23,13-.16,14.18,2.16,20.9.31,3.93-1.09,4.55-2.19,9.6-3.24,6-1.25,7.87-.26,9.6-1.7,2.7-2.23-1-5.34-1.13-14.33-.07-5.23,1-9.79-1.88-12"/><path id="Tracé_630" data-name="Tracé 630" class="cls-32" d="M234,353.71c-.09-.75,1.88-.88,3.8-3.26s1.77-4.43,2.81-4.55,2,1.49,2.16,3c.28,2.24-1.38,4.23-2.75,5.12-2.55,1.65-5.91.65-6-.3"/><path id="Tracé_631" data-name="Tracé 631" class="cls-32" d="M300.07,227.53c-1.73,5.8-6.35,12.25-18.5,10.3C263.78,235,270.22,208,270.22,208V188.32h30.85v31.06a25.51,25.51,0,0,1-1,8.15"/><g id="Groupe_109" data-name="Groupe 109" class="cls-17"><g id="Groupe_108" data-name="Groupe 108"><g class="cls-57"><g id="Groupe_107" data-name="Groupe 107"><path id="Tracé_632" data-name="Tracé 632" class="cls-19" d="M305.13,231.53l-34.91-31.61-2.19-2,2.19,0,30.85-.59v20.6l8.43,2.74s-3.92,9.44-4.37,10.94"/></g></g></g></g><path id="Tracé_633" data-name="Tracé 633" class="cls-35" d="M342.48,253.78s-20.54,75.38-16.17,105.89H242.86c0-26.25,7.76-25.8-19.69-115.26-.83-14.85,12.17-15.37,12.17-15.37s13.25-10.24,18.75-4.36c15.87,17,38,17.5,53.45,3.4a15.39,15.39,0,0,1,14.37-2.66c6.31,2.06,11.92,3.61,11.92,3.61a35.58,35.58,0,0,1,8.65,24.74"/><path id="Tracé_634" data-name="Tracé 634" class="cls-32" d="M303.45,653.38a110.66,110.66,0,0,1,2.06,25.1l23.38-.28a99.52,99.52,0,0,1-.86-26c1.16-11.83,4.7-30.72.52-34.56-5.09-4.66-21.26-2.42-28.35,2.8-2.08,1.54,2,26.55,3.25,32.9"/><g id="Groupe_112" data-name="Groupe 112" class="cls-17"><g id="Groupe_111" data-name="Groupe 111"><g class="cls-58"><g id="Groupe_110" data-name="Groupe 110"><path id="Tracé_635" data-name="Tracé 635" class="cls-19" d="M265.71,216.93s3.82,22.08,7,41,5.76,37.38,6.46,46.32-1.72,37.8-1.72,37.8-10.14-20.53-11.21-30.72c-2.8-26.68-17.58-84.78-17.61-88.69s17-5.74,17-5.74"/></g></g></g></g><path id="Tracé_636" data-name="Tracé 636" class="cls-36" d="M235.38,358.35s-7.48,12.94-17.07,15c0,0,4-17,9.15-19s5.86-1,5.86-1Z"/><path id="Tracé_637" data-name="Tracé 637" class="cls-33" d="M301.44,695.7c-2.82-2.09.12-4.19,2.1-15.78.3-1.79.68-4.4,2.94-5,1.21-.34,2,.16,5.47.43,3.3.25,5.13.39,6.1-.29,1.33-.94-.43-2.46-.42-5.74,0-1.82,0-4.18,2.1-5.6.91-.62,2-.91,11.77-1,6.44-.06,7.29.06,8,.58,1.7,1.25,0,3,.21,7.31a16.48,16.48,0,0,0,1.47,5.89c.35.71,1.76,3.44,8,7.74,7.68,5.31,11.38,5.2,14.93,9.47,1.4,1.69,3.48,4.19,2.1,6.17-1,1.4-3.28,2-15.35,3-14.55,1.26-19,1.09-22.08.87-7.33-.55-10.5-1.66-11.77-2.16-2.47-1-2.84-1.54-6.1-2.87-6.06-2.47-7.55-1.6-9.46-3"/><path id="Tracé_638" data-name="Tracé 638" class="cls-37" d="M333.46,515.76c2,32.08,2.75,134.78,2.75,134.78l-28.72.36-10.42.13s2.85-84.78.2-143.06c-.79-17.32-4.24-38.31-6.33-51.41-1.58-10-4.19-39.45-4.32-39.86l0-.1c0,.06,0,.14,0,.22-.84,4.42-5.78,57-9.27,93.77-5.46,57.33-5.34,140.19-5.34,140.19h-40.1s9.29-123.57,6.68-150.1c.58-36.59-6.58-70.24-5.92-98,.49-21.1,10.09-66.44,10.09-66.44,16.11-1.36,21.6,3.08,30.63,3.44,0,0,30.16-3.44,57-3.44,0,0,2.66,37.29,6.35,63.6,2.32,16.55-1.66,85.48-3.25,116"/><path id="Tracé_639" data-name="Tracé 639" class="cls-38" d="M314.64,340l-56.23,5.8,1.23,11.46,56.22-5.8Z"/><path id="Tracé_640" data-name="Tracé 640" class="cls-9" d="M314.64,340l-56.23,5.8,1.23,11.46,56.22-5.8Z"/><path id="Tracé_641" data-name="Tracé 641" class="cls-9" d="M291.15,358.35c-.18,10.32-2,35.48-1,50.07"/><path id="Tracé_642" data-name="Tracé 642" class="cls-9" d="M282.11,359.64c-.18,5.75-.67,22.34-.65,31.3a28.78,28.78,0,0,0,6.46,3.66"/><path id="Tracé_643" data-name="Tracé 643" class="cls-9" d="M311.48,366.4c2.15,1.78,4.51,3.59,7.1,5.38a106.92,106.92,0,0,0,14.84,8.61"/><path id="Tracé_644" data-name="Tracé 644" class="cls-9" d="M258.75,366.4A33.2,33.2,0,0,1,245,381"/><path id="Tracé_645" data-name="Tracé 645" class="cls-40" d="M292.54,348.83c0,3.32-2.47,5.21-6,5.58a5.47,5.47,0,0,1-6-4.9c0-.22,0-.45,0-.68a5.86,5.86,0,0,1,5.6-6,6.17,6.17,0,0,1,6.42,5.9v.06"/><path id="Tracé_646" data-name="Tracé 646" class="cls-59" d="M292.54,348.83c0,3.32-2.47,5.21-6,5.58a5.47,5.47,0,0,1-6-4.9c0-.22,0-.45,0-.68a5.86,5.86,0,0,1,5.6-6,6.18,6.18,0,0,1,6.43,5.9Z"/><path id="Tracé_647" data-name="Tracé 647" class="cls-21" d="M290.92,348.36A3.61,3.61,0,0,1,289.7,351c-1.94,2.07-5,2.12-5.11,1.87s2.18-.37,3.55-2.21.8-4.35,1.48-4.47c.47-.08,1.23,1.05,1.3,2.17"/><path id="Tracé_648" data-name="Tracé 648" class="cls-16" d="M277.84,408.9c-10.16,9.44-49.94,0-49.94,0,2.32-9.67,10.55-51.85,11-65,.31-8.38,1.93-15.84.62-23.43h0c-2.72-15.75-6.18-28.6-8.54-38.79-5-21.59-3.19-51.35,3-53.33,15.13-4.81,25.6-8.83,25.6-8.83,6.54,17.37,9.59,44.34,14.14,68.05,7,36.69,1.43,106.73,4.07,121.36"/><g id="Groupe_115" data-name="Groupe 115" class="cls-17"><g id="Groupe_114" data-name="Groupe 114"><g class="cls-60"><g id="Groupe_113" data-name="Groupe 113"><path id="Tracé_649" data-name="Tracé 649" class="cls-19" d="M236.37,364.47l23.26,5.62-.88,7.29s-9.22,31.59-24.72,31c-2.69-.1-4.23-1.88-5-4.68Z"/></g></g></g></g><g id="Groupe_118" data-name="Groupe 118" class="cls-17"><g id="Groupe_117" data-name="Groupe 117"><g class="cls-61"><g id="Groupe_116" data-name="Groupe 116"><path id="Tracé_650" data-name="Tracé 650" class="cls-19" d="M243.55,311.47l-4,9c-2.72-15.75-8-38.38-11.3-48.3L234,258.91l9.86,42a23.56,23.56,0,0,1-.35,10.53"/></g></g></g></g><path id="Tracé_651" data-name="Tracé 651" class="cls-32" d="M220.45,361.43c1.62-4.75,6.09-6.63,7-7a13.53,13.53,0,0,1,5.86-1,19.93,19.93,0,0,1,3.73.77c4.89,1.14,6.13.49,10,1.52,1.16.3,1.75.85,3.83,1.88a41.4,41.4,0,0,1-3.54,10.9c-1.79,3.66-5.43,10.21-10.3,10.14a9.63,9.63,0,0,1-3.41-.9,34,34,0,0,1-7.56-4.07c-3.34-2.54-5.33-4.06-6-6.84a9.24,9.24,0,0,1,.37-5.38"/><path id="Tracé_652" data-name="Tracé 652" class="cls-32" d="M245.68,356.37l12.69,2.28s5.49.9,8.06,1.19a2.94,2.94,0,0,1,1.88.9,1.6,1.6,0,0,1,.14,2.25,1.74,1.74,0,0,1-.61.43c-1.18.66-20-1.22-20-1.22Z"/><path id="Tracé_653" data-name="Tracé 653" class="cls-32" d="M245.68,363l12.69,2s5.54.8,8.1,1a3.08,3.08,0,0,1,1.85.78c1,1,.46,1.87-.48,2.34-1.18.57-21.36-1-21.36-1Z"/><path id="Tracé_654" data-name="Tracé 654" class="cls-32" d="M242.75,368.7l12.69,2s5.55.8,8.1,1a3.1,3.1,0,0,1,1.85.79c1,1,.47,1.87-.48,2.33-1.17.58-21.36-1-21.36-1Z"/><path id="Tracé_655" data-name="Tracé 655" class="cls-32" d="M242.56,372.75l.5.66c1,1.79,3.07,2.59,5.07,3,1.66.36,3.6.76,4.83,1a3.18,3.18,0,0,1,1.78.93c.94,1,.31,1.91-.66,2.29-1.22.49-17.93-2.2-17.93-2.2Z"/><g id="Groupe_121" data-name="Groupe 121" class="cls-17"><g id="Groupe_120" data-name="Groupe 120"><g class="cls-62"><g id="Groupe_119" data-name="Groupe 119"><path id="Tracé_656" data-name="Tracé 656" class="cls-19" d="M257.66,218.25s6.53,20.48,9.45,39.42,6.35,37.2,7,46.14,3.39,38.27,3.39,38.27-14-21-15.09-31.2c-3-27-13.69-84.3-13.72-88.21s9-4.42,9-4.42"/></g></g></g></g><path id="Tracé_657" data-name="Tracé 657" class="cls-63" d="M264.53,216.93s3.13,22.08,6.05,41,5.09,37.38,5.72,46.32,1.18,37.8,1.18,37.8-11.91-20.53-12.88-30.73c-2.53-26.67-13.71-85.75-13.74-89.66s13.67-4.76,13.67-4.76"/><path id="Tracé_658" data-name="Tracé 658" class="cls-16" d="M178.47,311.78c11.16,21.24,20.22,40.16,39.84,61.61,2.95-6.34,5.26-13.43,15-20-5.42-6.24-24.11-56.12-39.28-59.29-.72-.13-6.92-1.32-11.83,3.19a14.07,14.07,0,0,0-3.74,14.47"/><path id="Tracé_659" data-name="Tracé 659" class="cls-16" d="M248.84,226.73c-4.1-.34-10.93-1.63-16.67,1.74-10.41,6.11-17.1,13.34-24.81,25.73C195,274,186.26,288.31,180.81,297.27c-3.23,5.35-3.89,11.41-1.31,14.63,3.48,4.35,17.94.45,28.06-6,11.11-13.5,18.48-30.56,30.81-42.41,1.77-.6,9.9-1.22,10.68-12.67.9-13.19.48-22.71-.21-24.09"/><path id="Tracé_660" data-name="Tracé 660" class="cls-31" d="M258.36,189.63c2.36-1.7,6.84-.57,9.47,1.87,2.37,2.2,2.76,5.56,3.45,12.2.52,5.05.89,9-.29,14.06-.77,3.3-1.47,6.31-4,9.18a17.1,17.1,0,0,1-8.9,5,21,21,0,0,1-11.76-.43,30.43,30.43,0,0,1-.22-13.56c2.3-10.34,9-12.25,10.26-22.81.23-1.93.3-4.28,2-5.52"/><path id="Tracé_661" data-name="Tracé 661" class="cls-32" d="M261.38,181.58c.86,6.32,7.17,23.25,22.95,26.55,0,0,7,2.37,18.22-10.9,7-8.33,7.46-14.93,7.46-14.93s.72-11.4,0-18.43-1.15-17.94-19.51-19.94-24.53,6.16-26.4,9.75-3.59,21.59-2.72,27.91"/><path id="Tracé_662" data-name="Tracé 662" class="cls-32" d="M308.12,167.08c.44,0,.59,1,1.69,1.28.87.24,1.47-.2,2.52-.46a6.36,6.36,0,0,1,3.81.14c2.57,1.34,2,9.23-1.4,14.32-.79,1.16-2.3,3.35-4.68,3.6a4.65,4.65,0,0,1-2.21-.33c-4.6-2.25-1.49-18.53.27-18.56"/><path id="Tracé_663" data-name="Tracé 663" class="cls-64" d="M263.71,163.58c-.43,0-.58,1-1.68,1.28-.87.24-1.48-.2-2.52-.46a6.35,6.35,0,0,0-3.81.15c-2.58,1.33-2,9.22,1.4,14.31.78,1.16,2.3,3.35,4.68,3.6a4.47,4.47,0,0,0,2.2-.33C268.58,179.88,265.47,163.61,263.71,163.58Z"/><path id="Tracé_664" data-name="Tracé 664" class="cls-25" d="M286.27,171.87c-.42,1.17-.84,2.33-1.23,3.51s-.78,2.35-1.09,3.54a11.4,11.4,0,0,0-.34,1.76,2.42,2.42,0,0,0,0,.76,1.3,1.3,0,0,0,.08.34l.05.18.08.17a4.43,4.43,0,0,0,1,1.31,14.36,14.36,0,0,0,1.42,1.16h0a.06.06,0,0,1,0,.08,0,0,0,0,1-.05,0,5.32,5.32,0,0,1-1.83-.64,4.2,4.2,0,0,1-1.5-1.4l-.14-.25-.11-.26a3.41,3.41,0,0,1-.14-.55,2.72,2.72,0,0,1,0-.57,3,3,0,0,1,.08-.52,15.19,15.19,0,0,1,.57-1.85c.42-1.19.91-2.33,1.42-3.47s1-2.26,1.63-3.37a.06.06,0,0,1,.07,0h0a.05.05,0,0,1,0,.07"/><path id="Tracé_665" data-name="Tracé 665" class="cls-21" d="M303.54,168.46a18.89,18.89,0,0,1-5.88,3.31,4.17,4.17,0,0,1-1.16.17,5,5,0,0,1-1.15-.14,11.84,11.84,0,0,1-4.9-2.65,10.39,10.39,0,0,1,4.47-3.23,5.28,5.28,0,0,1,1.58-.26,6.81,6.81,0,0,1,1.56.2,18,18,0,0,1,5.48,2.6"/><path id="Tracé_666" data-name="Tracé 666" class="cls-25" d="M305.82,164.05a14.65,14.65,0,0,0-3.73-2.86,8.45,8.45,0,0,0-4.26-1.06,7.94,7.94,0,0,0-2.15.46c-.72.26-1.44.52-2.19.72a24,24,0,0,1-4.77.8.12.12,0,0,1-.12-.11.16.16,0,0,1,0-.09,10.08,10.08,0,0,1,2-1.6,13.94,13.94,0,0,1,2.21-1.13,9.84,9.84,0,0,1,2.44-.57,16.3,16.3,0,0,1,2.61-.12,9.1,9.1,0,0,1,4.79,1.84,14.53,14.53,0,0,1,1.85,1.66,12.77,12.77,0,0,1,1.51,1.92.11.11,0,0,1,0,.15.1.1,0,0,1-.13,0Z"/><path id="Tracé_667" data-name="Tracé 667" class="cls-42" d="M289.17,196.9a10.76,10.76,0,0,1-1.65.67,7.17,7.17,0,0,1-1.78.27,5.73,5.73,0,0,1-1.8-.16,5.17,5.17,0,0,1-1.62-.78,0,0,0,0,1,0,0h0s0,0,0,0c.6.07,1.15.21,1.72.3s1.12.23,1.69.26a8.56,8.56,0,0,0,3.4-.56,0,0,0,0,1,0,0h0s0,0,0,0"/></g></g></g><g id="Groupe_125" data-name="Groupe 125"><g class="cls-65"><g id="Groupe_124" data-name="Groupe 124"><path id="Tracé_668" data-name="Tracé 668" d="M299.24,169c0,1.89-1.09,3.42-2.43,3.42s-2.43-1.53-2.43-3.42,1.09-3.42,2.43-3.42,2.43,1.53,2.43,3.42"/></g></g></g><g id="Groupe_127" data-name="Groupe 127"><g class="cls-55"><g id="Groupe_126" data-name="Groupe 126"><path id="Tracé_670" data-name="Tracé 670" class="cls-44" d="M290.45,169.15a9.65,9.65,0,0,1,2.67-2.62,6.19,6.19,0,0,1,3.63-1.13,9.65,9.65,0,0,1,3.64,1,16.55,16.55,0,0,1,3.15,2,31,31,0,0,0-3.32-1.64,10.88,10.88,0,0,0-3.49-.89,6.37,6.37,0,0,0-3.4.95,13.48,13.48,0,0,0-2.88,2.27"/><path id="Tracé_671" data-name="Tracé 671" class="cls-21" d="M267.37,168.37a18.84,18.84,0,0,0,5.88,3.3,3.78,3.78,0,0,0,1.16.16,4.86,4.86,0,0,0,1.14-.13,11.82,11.82,0,0,0,4.91-2.65,10.45,10.45,0,0,0-4.47-3.23,5.28,5.28,0,0,0-1.58-.26,7.4,7.4,0,0,0-1.56.19,18.31,18.31,0,0,0-5.48,2.61"/><path id="Tracé_672" data-name="Tracé 672" class="cls-25" d="M265.45,163.16a8.32,8.32,0,0,1,1.38-1.75A9.76,9.76,0,0,1,268.6,160a8.83,8.83,0,0,1,4.44-1.33,14.38,14.38,0,0,1,2.37.17,7.72,7.72,0,0,1,2.2.64,10.82,10.82,0,0,1,1.94,1.16,8.39,8.39,0,0,1,1.65,1.61.12.12,0,0,1,0,.17.08.08,0,0,1-.08,0h0a22.12,22.12,0,0,1-4.26-.9,17.7,17.7,0,0,1-1.93-.7,7.81,7.81,0,0,0-1.91-.51,8.29,8.29,0,0,0-3.91.59,9.88,9.88,0,0,0-3.45,2.36h0a.11.11,0,0,1-.16,0,.12.12,0,0,1,0-.13"/></g></g></g><g id="Groupe_129" data-name="Groupe 129"><g class="cls-66"><g id="Groupe_128" data-name="Groupe 128"><path id="Tracé_673" data-name="Tracé 673" d="M271.67,168.89c0,1.88,1.08,3.42,2.43,3.42s2.43-1.53,2.43-3.42-1.09-3.42-2.43-3.42-2.43,1.53-2.43,3.42"/></g></g></g><g id="Groupe_146" data-name="Groupe 146"><g class="cls-55"><g id="Groupe_145" data-name="Groupe 145"><path id="Tracé_675" data-name="Tracé 675" class="cls-44" d="M280.46,169.05a13.79,13.79,0,0,0-2.89-2.27,6.33,6.33,0,0,0-3.39-.94,10.27,10.27,0,0,0-3.49.89,29.16,29.16,0,0,0-3.32,1.63,16.19,16.19,0,0,1,3.15-2,9.3,9.3,0,0,1,3.64-1,6.12,6.12,0,0,1,3.63,1.12,10.08,10.08,0,0,1,2.67,2.62"/><path id="Tracé_676" data-name="Tracé 676" class="cls-26" d="M277.38,192.7a23.57,23.57,0,0,0,8.12,1.78c4.29,0,8.6-2.84,8.6-2.84s-3.91.25-8.6.25a41,41,0,0,0-8.12.81"/><path id="Tracé_677" data-name="Tracé 677" class="cls-31" d="M282,133.2s4,16.48,16.76,21.54,15.34.71,15.34.71l-12-16.42Z"/><path id="Tracé_678" data-name="Tracé 678" class="cls-46" d="M249.42,154.45c.18-1,.5-2.54.57-3.44a13.15,13.15,0,0,1,.22-1.4c0-.13.07-.26.12-.44a39.11,39.11,0,0,1,7.95-13.73,41.08,41.08,0,0,1,46.85-10.66c-12.46,7.52-15.15,12.81-15.06,16.36a8.66,8.66,0,0,1-.43,4.16c-1.33,3.18-4.28,3.28-8.46,7.17-2.37,2.2-1.7,2.43-4,4.59-4.38,4.08-6.71,3.12-8.75,5.46-4.13,4.7,2.8,11.41-.58,20.66-2,5.42-4.94,4.68-6.6,10.18-2.3,7.63,3,10.27.86,16.5s-8.38,6-13.2,14.92a28.6,28.6,0,0,0-2.58,6.75c-7.25-2.23-8.94-4.49-9.11-6.17-.38-3.7,6.45-6.55,6-12.05a29.37,29.37,0,0,0-.86-3c-1.58-5.17-2.24-5.78-2.72-8.17-.54-2.67-1-5.09.14-7.32,1.53-2.91,4.4-2.71,6-6.07a10.4,10.4,0,0,0,.76-4c.39-6.1-2.46-6.64-1.43-12.33.85-4.74,3-5.24,3.59-10.77.15-1.4.37-4.68.8-7.2"/><path id="Tracé_679" data-name="Tracé 679" class="cls-67" d="M312.39,194.27a5.72,5.72,0,0,1-1.79.38H310a5.72,5.72,0,0,1-1.78-.38,4.26,4.26,0,0,0,.61-1.9c.06-1-.3-1.37-.18-2.51a13.26,13.26,0,0,1,.41-1.65c.21-.87.34-1.59.41-2.05H311a8,8,0,0,0,.37,1.87c.23.74.37.81.49,1.32.25,1-.12,1.53-.14,2.55a4.61,4.61,0,0,0,.68,2.4"/><path id="Tracé_680" data-name="Tracé 680" class="cls-48" d="M312.11,185.16a1.8,1.8,0,1,1-1.8-1.8h0a1.8,1.8,0,0,1,1.8,1.8"/><path id="Tracé_681" data-name="Tracé 681" class="cls-16" d="M351.42,329.59C348,331.59,342,328,337,321c-.81-1.12,0-2.19-.78-3.47h0l-.1-.18c-.21-.37-.41-.74-.62-1.13,0-.07-.08-.14-.11-.21-10.8-21.84-11.93-43.93-10.3-54.6,0-.21.07-.42.1-.63l-.19-.19-.05-.05.38-1.29,5.18-17.15,4-13.13-.87-4.32c2.16,1.29,6.09,4.31,7.64,7,14.53,25.23,16.43,77.59,17.05,84.43.55,6.22-3.74,11.66-6.84,13.48"/><g id="Groupe_132" data-name="Groupe 132" class="cls-17"><g id="Groupe_131" data-name="Groupe 131"><g class="cls-68"><g id="Groupe_130" data-name="Groupe 130"><path id="Tracé_682" data-name="Tracé 682" class="cls-19" d="M332.92,309.69c0-.07-.08-.14-.11-.21-10.8-21.84-11.93-43.93-10.3-54.6,0-.22.07-.42.1-.63l-.19-.19-.05-.05.38-1.29,5.83-11.67c3.85,7.77,6.4,12.09,10.23,23.17,5.56,16.13-2,37.46-5.89,45.47"/></g></g></g></g><path id="Tracé_683" data-name="Tracé 683" class="cls-16" d="M346.16,408.68c-7.17-.67-17.55,2-29.57,1.83A58.88,58.88,0,0,1,295,406.3c.92-13.66-.9-85.23,6.13-121.91,4.55-23.72,1-47.19,3.08-66.9,0,0,15.09,4,29.39,7.18,14.23,10.44,3.18,42.1,1.19,52.25-3.1,15.8-1.76,24.8-3.81,49.69-.11,1.28-.22,2.61-.35,4,.49,13.18,22.23,77.16,15.56,78.09"/><g id="Groupe_135" data-name="Groupe 135" class="cls-17"><g id="Groupe_134" data-name="Groupe 134"><g class="cls-69"><g id="Groupe_133" data-name="Groupe 133"><path id="Tracé_684" data-name="Tracé 684" class="cls-19" d="M286.6,416.6l0,.08h0c0,.06-.06.1-.07.13s0,0,0-.22"/></g></g></g></g><g id="Groupe_138" data-name="Groupe 138" class="cls-17"><g id="Groupe_137" data-name="Groupe 137"><g class="cls-70"><g id="Groupe_136" data-name="Groupe 136"><path id="Tracé_685" data-name="Tracé 685" class="cls-19" d="M307.5,650.89V651H297.07s2.85-84.78.2-143.06c-.79-17.33-4.24-38.32-6.33-51.42-1.58-10-4.12-39.38-4.31-39.86.41-.72,2-3.72,4.42-5.1,3.84.46,11.46,42.2,12.89,53.84,6,48.54,3.64,180.7,3.55,185.47"/></g></g></g></g><g id="Groupe_141" data-name="Groupe 141" class="cls-17"><g id="Groupe_140" data-name="Groupe 140"><g class="cls-71"><g id="Groupe_139" data-name="Groupe 139"><path id="Tracé_686" data-name="Tracé 686" class="cls-19" d="M346.16,408.68c-7.17-.67-17.55,2-29.57,1.83,1.42-11.86,3.94-33.72,4.13-40.52.22-8,7.91-35.31,10.23-43.38-.11,1.28-.22,2.61-.35,4,.49,13.17,22.23,77.15,15.56,78.09"/></g></g></g></g><path id="Tracé_687" data-name="Tracé 687" class="cls-32" d="M325.32,387.05c.3-.47,2.81-4.26,6.82-5.49,5-1.55,11.47,1.2,13.55,5.71,1.14,2.48.89,5.31.54,9.28-.09,1-.07.29-.76,5.06-.59,4.13-.73,5.52-1.48,7.43a16.66,16.66,0,0,1-1.89,3.5,30,30,0,0,1-14.38-5.5c-1-.72-9.19-6.83-7.9-11.21.3-1,.86-1,2.77-3.94,1.62-2.5,1.82-3.43,2.73-4.85"/><path id="Tracé_688" data-name="Tracé 688" class="cls-32" d="M320.14,395.15s-1.23,2.35-2,3.85-3.66,6.46-5.76,7.25c0,0-.71,1.56,3.07,1.17s8.39-7.29,8.39-7.29Z"/><path id="Tracé_689" data-name="Tracé 689" class="cls-32" d="M322.54,400.85s-4.7,24.84-4.66,25.66.14,2.4,1.08,2.06,5.19-11.83,5.88-14.05,3.2-12,3-13.67-5.32,0-5.32,0"/><path id="Tracé_690" data-name="Tracé 690" class="cls-32" d="M327.65,402.89s-5.11,25.73-5.11,27.07.25,3.6.8,3.7,1.4.42,2.89-4.47,8.28-25.71,8.28-25.71Z"/><path id="Tracé_691" data-name="Tracé 691" class="cls-32" d="M338.25,405.41s-4.2,21.48-5.69,24.26-2.44,3.17-3.22,2.88-.19-6.08,1.64-13.53,2.64-20.28,2.64-20.28Z"/><path id="Tracé_692" data-name="Tracé 692" class="cls-32" d="M343,410.49c-1.63,8.09-4.38,16.59-5.87,16.11s1.13-18.83,1.13-18.83Z"/><path id="Tracé_693" data-name="Tracé 693" class="cls-16" d="M358.14,319.79a230.71,230.71,0,0,1-9.54,70.94c-.48,1.6-22.6-9.46-22.49-10,.64-2.95,2.67-47.7,10.09-63.86.56-.46,7.79-6.36,14.26-4.79,5.12,1.25,6.54,2.3,7.68,7.68"/><g id="Groupe_144" data-name="Groupe 144" class="cls-17"><g id="Groupe_143" data-name="Groupe 143"><g class="cls-72"><g id="Groupe_142" data-name="Groupe 142"><path id="Tracé_694" data-name="Tracé 694" class="cls-19" d="M305.63,217.45c.93.15,1.87.27,2.8.46,2.93.58,5.51,3,6.33,3.83s-4.27,77.69-6.36,87.4-12.26,31.12-12.26,31.12.65-41.56,5.31-84.42c1.46-13.45,4.19-38.39,4.19-38.39"/></g></g></g></g><path id="Tracé_695" data-name="Tracé 695" class="cls-63" d="M302.73,216.93c.93.15,2.69.27,3.62.46a25.67,25.67,0,0,1,8.5,4c.81.85-6.45,77.49-8.54,87.2s-10.18,31.12-10.18,31.12-1.43-41.56,3.23-84.42c1.46-13.45,3.37-38.39,3.37-38.39"/><path id="Tracé_696" data-name="Tracé 696" class="cls-21" d="M328.56,264c0-.09,0-.18,0-.26l0-.24v0h0l0-.22c0-.16-.07-.32-.11-.5l-.06-.2v0l-.09-.27,0-.06v-.06a7.37,7.37,0,0,0,.05-.82V261c0-.09,0-.16,0-.25l0-.23a1.72,1.72,0,0,0,0-.24c0-.09,0-.17,0-.24l-.06-.25c-.05-.17-.1-.31-.14-.44s-.05-.14-.08-.2-.05-.13-.08-.19a6.54,6.54,0,0,0-.3-.59c0-.06-.07-.12-.11-.17a5.51,5.51,0,0,0-1.3-1.42l-.17-.13a1,1,0,0,1-.17-.12l-.38-.23-.05,0-.06,0-.3-.14-.05,0a.43.43,0,0,0-.12-.05l-.2-.09-.2-.07-.2-.06a7.12,7.12,0,0,0-.92-.18l-.2,0h-.8c-.22,0-.45,0-.67.06h-.18l-.27.05h0l-.27.06-.26.07-.12,0-.13,0h-.07l-.05,0-.17.06a3.76,3.76,0,0,0-.39.17l-.05,0a.82.82,0,0,0-.19.09,7,7,0,0,0-.84.48,2.48,2.48,0,0,0-.26.19l-.2.15-.32.26-.19.18h0l0,0-.17.17a.12.12,0,0,0-.05,0h0a1.29,1.29,0,0,0-.16.18,7.16,7.16,0,0,0-1.16,1.76l-.1.21c0,.07-.07.17-.1.26s0,.13-.07.19l0,.1,0,.11a.43.43,0,0,0,0,0s0,0,0,0-.05.18-.07.26h0s0,0,0,0h0v0l-.06.27h0v0s0,0,0,0h0a1.42,1.42,0,0,0,0,.2v0h0a.88.88,0,0,0,0,.16c0,.18,0,.34-.06.49s0,.14,0,.21,0,.23,0,.35a6.12,6.12,0,0,0,0,.74l0,.25c0,.17.05.34.08.49l.06.24,0,.14s0,.09,0,.14h0l.06.19,0,.05s0,0,0,0,.07.21.11.31h0l0,0a1.69,1.69,0,0,0,.11.27l0,.05.15.31,0,0h0l.13.25h0l0,.08a1.88,1.88,0,0,0,.12.18,1,1,0,0,0,.08.14,2.93,2.93,0,0,0,.18.26l.18.23c.09.12.19.23.29.34a2.4,2.4,0,0,0,.21.23l.08.09.23.21.25.22a2.19,2.19,0,0,0,.25.2l.19.14.36.24.21.13.25.14.17.09.24.11,0,0h0l.28.12.28.1.05,0,.05,0,.1,0,.1,0,.2.06h0l.07,0,.33.07.31.06a7.68,7.68,0,0,0,1.17.09h.28l.33,0,.23,0,.18,0,.23,0,.23-.06.28-.08.19-.06.15-.06a1,1,0,0,0,.21-.08l.23-.1a6.52,6.52,0,0,0,.77-.43l.19-.14a6.46,6.46,0,0,0,.84-.73l.12-.13.15-.18.16-.2a.94.94,0,0,1,.09-.12c.1-.14.18-.27.25-.38l0,0,.1-.18c0-.07.07-.13.1-.19a5.22,5.22,0,0,0,.24-.54,1.59,1.59,0,0,0,.07-.2l0-.05a1.59,1.59,0,0,0,.07-.2h0a.14.14,0,0,1,0-.07v0c0-.06,0-.11,0-.17h0v0l.06-.25c0-.08,0-.17,0-.26a.25.25,0,0,1,0-.08,198408082740.58,198408082740.58,0,0,1,0-.2,2.46,2.46,0,0,0,0-.26c0-.11,0-.21,0-.31V264m-6.09,2.52-.27,0-.28-.05-.2-.06-.12,0-.06,0a3.36,3.36,0,0,1-.54-.26l-.15-.1-.19-.15-.22-.21a.74.74,0,0,1-.12-.13l-.1-.12a1.47,1.47,0,0,1-.1-.13L320,265a2.62,2.62,0,0,1-.32-.9,1.43,1.43,0,0,1,0-.22v-.07a2.28,2.28,0,0,1,0-.26,3,3,0,0,1,2.6-3l.28,0Zm0-6.41-.22,0a3.41,3.41,0,0,0-3.08,3.4v.18a1.1,1.1,0,0,0,0,.18l0,.2a.77.77,0,0,0,0,.15,3.46,3.46,0,0,0,1,1.81l.19.16,0,0h0a3,3,0,0,0,.42.27l.21.11h0a1.39,1.39,0,0,0,.26.1,1.84,1.84,0,0,0,.25.09l.28.06.28,0,.22,0v1.33l-.27,0-.19,0h-.15l-.08,0a.45.45,0,0,1-.16,0h0l-.17,0h0a3.93,3.93,0,0,1-.58-.19l-.18-.08-.19-.09a4,4,0,0,1-.83-.53l-.16-.13a.86.86,0,0,1-.14-.13,4.74,4.74,0,0,1-1-1.35l-.09-.2c-.06-.13-.11-.26-.16-.39a1.24,1.24,0,0,1,0-.16,1.21,1.21,0,0,1,0-.14,2,2,0,0,1-.05-.24l0-.15,0-.16a5.34,5.34,0,0,1-.05-.69,4.81,4.81,0,0,1,4.39-4.76l.27,0Zm0-1.82-.23,0a5.19,5.19,0,0,0-4.85,5.18,5,5,0,0,0,.05.77l0,.15h0l0,.14a1.6,1.6,0,0,0,.05.21c0,.08,0,.15.05.21s.05.14.07.2v0a.14.14,0,0,0,0,.06v0a1.8,1.8,0,0,0,.08.21,1.63,1.63,0,0,0,.11.23,1.5,1.5,0,0,0,.09.18,5.09,5.09,0,0,0,.3.5l.15.19.15.19,0,.05c.1.12.2.22.31.33a5.67,5.67,0,0,0,.7.58l.19.12a4,4,0,0,0,.41.23l.18.09.22.09.15.06.05,0,.29.09.08,0,.09,0a3.35,3.35,0,0,0,.55.11H322l.24,0,.22,0v1.13l-.25,0-.4,0-.27,0-.25,0-.22-.05H321l-.17-.05a4.64,4.64,0,0,1-.53-.16l-.26-.1a7.49,7.49,0,0,1-.94-.47l-.07,0-.17-.12a1.14,1.14,0,0,1-.23-.15l-.29-.21-.17-.15-.07-.06,0,0-.27-.25c-.08-.09-.16-.16-.23-.25a3.33,3.33,0,0,1-.25-.28l-.2-.25h0v0l-.2-.29-.15-.24,0-.07,0,0c-.1-.16-.17-.32-.25-.47a.61.61,0,0,1,0-.12l0-.05a.61.61,0,0,0-.05-.12,1.67,1.67,0,0,1-.08-.2c0-.08-.07-.17-.1-.27l-.09-.29-.06-.21a2.25,2.25,0,0,1-.05-.22.09.09,0,0,1,0-.05,2.17,2.17,0,0,1-.07-.35,1.78,1.78,0,0,1,0-.26v-.23a2.83,2.83,0,0,1,0-.29c0-.1,0-.22,0-.34a6.89,6.89,0,0,1,6.5-6.87h.26Zm.42-2.24.27,0,.38.06.22,0,.18.05.17,0a5.06,5.06,0,0,1,1.1.47l.29.19,0,0,.16.11.29.23.15.13a.46.46,0,0,0,.07.07l.06.06.14.14.08.09a.1.1,0,0,1,0,0l.08.08.05.06.12.16a4.75,4.75,0,0,1,.51.83s.05.11.08.17l.05.1,0,.07a1.59,1.59,0,0,1,.07.2,1.21,1.21,0,0,0,.05.14v.08a.88.88,0,0,1,0,.15,2.29,2.29,0,0,1,.07.28c0,.08,0,.17,0,.26v0l.17,1-.6-.78q-.13-.18-.3-.36l0,0h0a3.07,3.07,0,0,0-.25-.26l-.26-.24-.07-.06-.25-.2-.08-.06-.25-.17a3.29,3.29,0,0,0-.39-.23l-.23-.12-.28-.13-.24-.1-.18-.07-.16-.05h-.07l0,0-.2,0-.22-.06c-.24-.05-.48-.08-.72-.11l-.22,0Zm0,2.66.27,0,.34,0h.07l.35.08a2,2,0,0,1,.29.08l.21.07.24.09.08,0,.22.1,0,0a1.82,1.82,0,0,1,.31.16,1.37,1.37,0,0,1,.25.15l.18.12.07.05.16.11,0,0,.16.13a.58.58,0,0,1,.12.1l.19.17.23.25.11.12a1.56,1.56,0,0,1,.16.2l.17.23.13.2c.05.08.1.15.13.21l.15.28c.06.12.12.24.17.37l0,.06v.07a5,5,0,0,1-.48,1.39l-.32.64-.13-.71c0-.1,0-.2-.07-.3l-.09-.3c0-.1-.07-.18-.1-.26l0-.06,0-.05-.06-.12h0l0-.06h0l0,0v0l0-.05a1.09,1.09,0,0,0-.08-.15l-.14-.21c-.07-.11-.16-.22-.24-.33l-.18-.19-.13-.13a4.42,4.42,0,0,0-1-.74l-.17-.08-.16-.07-.18-.07a4.73,4.73,0,0,0-.92-.21l-.21,0Zm0,1.82.28.05.32.06h0l.27.08.29.11.23.1.05,0h0l.25.15a3.59,3.59,0,0,1,.5.37,1.45,1.45,0,0,1,.22.21.74.74,0,0,1,.12.13l.1.11a3.91,3.91,0,0,1,.6,1l0,.06,0,.1a.41.41,0,0,0,0,.07v0s0,.09,0,.14l0,.12c0,.05,0,.1,0,.15a4.26,4.26,0,0,1,.08.8,2.23,2.23,0,0,1,0,.37v.08l-.05.07a5.21,5.21,0,0,1-3.21,1.58l-.27,0Zm0,6.42.22,0a5.59,5.59,0,0,0,2.41-.79l.88-.55-.55.88a3.87,3.87,0,0,1-2.68,1.76l-.28,0Zm5.24-2.42c0,.07,0,.14,0,.2l0,.23a2,2,0,0,1,0,.24,1.18,1.18,0,0,1,0,.2l-.06.28-.11.36-.12.33c-.05.09-.09.2-.13.29s-.12.22-.17.33-.1.17-.17.27l-.14.21,0,.05v0h0a5.54,5.54,0,0,1-.37.45l-.06.07-.2.2h0l0,0-.19.17-.06.06-.25.19-.25.18-.05,0-.24.15,0,0-.28.15-.29.13h0a4.7,4.7,0,0,1-.63.22l-.23.06-.44.09-.28,0-.26,0v-1.13l.21,0a4.31,4.31,0,0,0,3.71-3.55V265l.05,0c.07-.09.15-.18.22-.28a4.81,4.81,0,0,0,.4-.6c.06-.1.11-.21.17-.32l.41-.8.05.9c0,.12,0,.25,0,.37a2.44,2.44,0,0,1,0,.27"/></g></g></g></g></g></g></svg>