<svg id="Groupe_345" data-name="Groupe 345" xmlns="http://www.w3.org/2000/svg" xmlns:xlink="http://www.w3.org/1999/xlink" width="45.569" height="45.559" viewBox="0 0 45.569 45.559">
  <defs>
    <clipPath id="clip-path">
      <rect id="Rectangle_760" data-name="Rectangle 760" width="45.569" height="45.559" fill="none"/>
    </clipPath>
  </defs>
  <g id="Groupe_344" data-name="Groupe 344" clip-path="url(#clip-path)">
    <path id="Tracé_2904" data-name="Tracé 2904" d="M41.653,45.559H3.916a1.087,1.087,0,0,0-.2-.081,4.632,4.632,0,0,1-2.682-1.614A5.675,5.675,0,0,1,0,41.644V3.916a.677.677,0,0,0,.075-.152A4.58,4.58,0,0,1,4.7,0q18.087,0,36.173,0A5.113,5.113,0,0,1,42.1.148,4.58,4.58,0,0,1,45.568,4.74q0,18.038,0,36.076c0,.133,0,.267-.006.4a4.559,4.559,0,0,1-1.551,3.189,5.458,5.458,0,0,1-2.359,1.154M38.708,38.7c.007-.12.017-.206.017-.293q0-6.361,0-12.722a7.021,7.021,0,0,0-.557-2.815,7.85,7.85,0,0,0-6.628-5.039A6.847,6.847,0,0,0,25.4,20.5c-.087.1-.166.208-.249.313l-.105-.045v-2.5H18.27V38.7h6.8v-.539q0-5.538,0-11.076c0-.281.01-.564.036-.844a3.433,3.433,0,0,1,4.27-2.854A3.476,3.476,0,0,1,31.891,26.9q.009,5.627,0,11.254v.54ZM6.874,38.685h6.769V18.248H6.874Zm7.468-28.418a4.1,4.1,0,1,0-4.118,4.071,4.1,4.1,0,0,0,4.118-4.071" transform="translate(0 0)" fill="#00b3dc"/>
  </g>
</svg>
