<svg xmlns="http://www.w3.org/2000/svg" width="1943" height="641.435" viewBox="0 0 1943 641.435">
  <g id="Groupe_169" data-name="Groupe 169" transform="translate(0 -0.001)">
    <path id="Tracé_1163" data-name="Tracé 1163" d="M96.054,163.98l4.093,315.471H295.178l-3.155-246.556L265.8,122.714Z" transform="translate(126.795 161.985)" fill="#82c4d8"/>
    <path id="Tracé_1153" data-name="Tracé 1153" d="M498.138,131.363l-42.1,116.523V468.032H789.525V231.474l-79.35-100.112Z" transform="translate(601.983 173.402)" fill="#82c4d8"/>
    <path id="Tracé_1152" data-name="Tracé 1152" d="M588.869,167.36l-58.128,87.314v165.84h482.037V242.376L881.62,167.36Z" transform="translate(700.594 220.919)" fill="#97d5e8"/>
    <path id="Tracé_1154" data-name="Tracé 1154" d="M375.4,113.929V491.045H634.2V301.986H543.142V113.929Z" transform="translate(495.544 150.389)" fill="#97d5e8"/>
    <path id="Tracé_1155" data-name="Tracé 1155" d="M180.084,157.891,101.661,242.4l2.55,194.3h334.2l-2.369-185L392.576,155.1Z" transform="translate(134.195 204.739)" fill="#97d5e8"/>
    <path id="Tracé_1156" data-name="Tracé 1156" d="M176.537,236.762l2.879,221.493h333.46L510.2,247.822,466.663,138.769Z" transform="translate(233.034 183.178)" fill="#97d5e8"/>
    <path id="Tracé_1157" data-name="Tracé 1157" d="M385.95,95.619l2.958,209.234-91.05,1.109,2.956,211.953H559.588L553.674,93.573Z" transform="translate(393.183 123.518)" fill="#97d5e8"/>
    <path id="Tracé_1158" data-name="Tracé 1158" d="M771.686,227.286V341.41H924.351V283.846H870.635v-56.56Z" transform="translate(1018.649 300.023)" fill="#97d5e8"/>
    <path id="Tracé_1159" data-name="Tracé 1159" d="M777.907,221.777l1.745,62.933-53.711.332,1.745,64.45H880.339l-3.489-128.33Z" transform="translate(958.264 291.94)" fill="#97d5e8"/>
    <path id="Tracé_1160" data-name="Tracé 1160" d="M88.476,119.07,91.052,301.1,0,302.208,2.573,486.957H261.346L256.2,117.026Z" transform="translate(0 154.477)" fill="#97d5e8"/>
    <path id="Tracé_1161" data-name="Tracé 1161" d="M432.925,0,265.2,2.045l2.956,209.234-91.05,1.111,2.958,429.043H438.839Z" transform="translate(233.79 0)" fill="#97d5e8"/>
    <path id="Tracé_1162" data-name="Tracé 1162" d="M716.421,141.147l1.292,316.415H865.264l-1.912-318.269Z" transform="translate(945.697 183.871)" fill="#97d5e8"/>
    <path id="Tracé_1164" data-name="Tracé 1164" d="M658.855,101.62,664.8,553.044H859.846L855.473,219.83,828.69,66.961Z" transform="translate(869.708 88.389)" fill="#97d5e8"/>
  </g>
</svg>
