<svg width="88" height="88" viewBox="0 0 88 88" fill="none" xmlns="http://www.w3.org/2000/svg">
<circle cx="44" cy="44" r="44" fill="#8270B3"/>
<path d="M67.0493 41.9404C65.6577 44.1377 64.3394 46.269 63.0942 48.3345C61.8638 50.3853 60.7871 52.458 59.8643 54.5527C58.9414 56.6328 58.209 58.7788 57.667 60.9907C57.1396 63.2026 56.876 65.5391 56.876 68H50.438C50.438 65.6416 50.6943 63.4077 51.207 61.2983C51.7197 59.1743 52.5327 56.9404 53.646 54.5967C54.3784 53.0732 55.3452 51.3301 56.5464 49.3672C57.7476 47.4043 59.3369 44.9873 61.3145 42.1162H45.9336V37.0405H67.0493V41.9404Z" fill="white"/>
</svg>
