<svg id="Groupe_220" data-name="Groupe 220" xmlns="http://www.w3.org/2000/svg" xmlns:xlink="http://www.w3.org/1999/xlink" width="73.86" height="36.012" viewBox="0 0 73.86 36.012">
  <defs>
    <clipPath id="clip-path">
      <rect id="Rectangle_675" data-name="Rectangle 675" width="73.86" height="36.012" fill="none"/>
    </clipPath>
  </defs>
  <g id="Groupe_219" data-name="Groupe 219" clip-path="url(#clip-path)">
    <path id="Tracé_2338" data-name="Tracé 2338" d="M133.789,157.149c0,3.381-2.315,6.122-5.172,6.122s-5.172-2.741-5.172-6.122,2.315-6.122,5.172-6.122,5.172,2.741,5.172,6.122" transform="translate(-105.606 -129.201)" fill="#282828"/>
    <path id="Tracé_2339" data-name="Tracé 2339" d="M398.707,157.149c0,3.381-2.315,6.122-5.172,6.122s-5.172-2.741-5.172-6.122,2.315-6.122,5.172-6.122,5.172,2.741,5.172,6.122" transform="translate(-332.239 -129.201)" fill="#282828"/>
    <path id="Tracé_2340" data-name="Tracé 2340" d="M74.16,2.569,75.784,13.43l5.1.158a.667.667,0,0,1,.646.687l-.454,14.9H10.955L9.715,18.625a7.287,7.287,0,0,1,2.578-1.519L30.5,14.514,34.821,3.061a3.015,3.015,0,0,1,2.721-1.95L71.078,0A3.015,3.015,0,0,1,74.16,2.569" transform="translate(-8.311 0)" fill="#d8b10e"/>
    <path id="Tracé_2341" data-name="Tracé 2341" d="M67.477,11.106,69.1,21.967l5.1.158a.667.667,0,0,1,.646.687l-.454,14.9H4.272L4.8,26.527a.94.94,0,0,1,.806-.885L23.819,23.05,28.139,11.6a3.015,3.015,0,0,1,2.721-1.95L64.4,8.538a3.015,3.015,0,0,1,3.081,2.567" transform="translate(-3.655 -7.303)" fill="#ffd602"/>
    <path id="Tracé_2342" data-name="Tracé 2342" d="M178.4,34.916l-1.439,6.511L212.979,40.3l-.374-6.412a2.206,2.206,0,0,0-2.3-2.075l-29.85,1.378a2.206,2.206,0,0,0-2.052,1.728" transform="translate(-151.386 -27.212)" fill="#005a7d"/>
    <path id="Tracé_2343" data-name="Tracé 2343" d="M3.557,171.578H1.5a1.5,1.5,0,0,1-1.5-1.5v-5.618l2.847.422Z" transform="translate(0 -140.696)" fill="#383838"/>
    <path id="Tracé_2344" data-name="Tracé 2344" d="M.348,136.093l-.108-2.2a.639.639,0,0,1,.607-.67l6.467-.316-.282,2.864-5.948.927a.639.639,0,0,1-.737-.6" transform="translate(-0.205 -113.696)" fill="#ffe667"/>
    <path id="Tracé_2345" data-name="Tracé 2345" d="M461.608,169.158h3.955c.718,0,2.435-1.515,2.435-2.233v-5.29l-2.158.511-3.183.319Z" transform="translate(-394.898 -138.276)" fill="#383838"/>
    <path id="Tracé_2346" data-name="Tracé 2346" d="M98,165.615c0,3.381-2.315,6.122-5.172,6.122S87.66,169,87.66,165.615s2.315-6.122,5.172-6.122S98,162.234,98,165.615" transform="translate(-74.992 -136.444)" fill="#161616"/>
    <path id="Tracé_2347" data-name="Tracé 2347" d="M481.132,118.544l.335-6.844-2.874-.14-.1,5.486Z" transform="translate(-409.345 -95.437)" fill="#f06d50"/>
    <path id="Tracé_2348" data-name="Tracé 2348" d="M501.807,108.953l.277-5.673-1.332-.065-.189,5.481Z" transform="translate(-428.225 -88.299)" fill="#783728"/>
    <path id="Tracé_2349" data-name="Tracé 2349" d="M367.6,170.586c0,3.381-2.315,6.122-5.172,6.122s-5.172-2.741-5.172-6.122,2.315-6.122,5.172-6.122,5.172,2.741,5.172,6.122" transform="translate(-305.626 -140.696)" fill="#161616"/>
  </g>
</svg>
