<svg id="Groupe_148" data-name="Groupe 148" xmlns="http://www.w3.org/2000/svg" xmlns:xlink="http://www.w3.org/1999/xlink" width="189.31" height="587.009" viewBox="0 0 189.31 587.009">
  <defs>
    <clipPath id="clip-path">
      <rect id="Rectangle_174" data-name="Rectangle 174" width="189.31" height="587.009" fill="none"/>
    </clipPath>
    <clipPath id="clip-path-2">
      <rect id="Rectangle_166" data-name="Rectangle 166" width="189.31" height="587.011" fill="none"/>
    </clipPath>
    <clipPath id="clip-path-3">
      <rect id="Rectangle_160" data-name="Rectangle 160" width="15.763" height="24.165" fill="none"/>
    </clipPath>
    <clipPath id="clip-path-4">
      <rect id="Rectangle_161" data-name="Rectangle 161" width="41.469" height="34.275" fill="none"/>
    </clipPath>
    <clipPath id="clip-path-5">
      <rect id="Rectangle_162" data-name="Rectangle 162" width="30.666" height="125.15" fill="none"/>
    </clipPath>
    <clipPath id="clip-path-6">
      <rect id="Rectangle_163" data-name="Rectangle 163" width="30.58" height="43.947" fill="none"/>
    </clipPath>
    <clipPath id="clip-path-7">
      <rect id="Rectangle_164" data-name="Rectangle 164" width="16.084" height="61.537" fill="none"/>
    </clipPath>
    <clipPath id="clip-path-8">
      <rect id="Rectangle_165" data-name="Rectangle 165" width="28.812" height="123.832" fill="none"/>
    </clipPath>
    <clipPath id="clip-path-9">
      <path id="Tracé_669" data-name="Tracé 669" d="M297.55,115.106a10.475,10.475,0,0,0-4.468,3.229,11.727,11.727,0,0,0,4.907,2.651,4.921,4.921,0,0,0,1.145.136,4.106,4.106,0,0,0,1.163-.168,18.692,18.692,0,0,0,5.874-3.305,18.239,18.239,0,0,0-5.476-2.606,6.776,6.776,0,0,0-1.562-.192,5.26,5.26,0,0,0-1.584.256" transform="translate(-293.082 -114.85)" fill="none"/>
    </clipPath>
    <clipPath id="clip-path-11">
      <path id="Tracé_674" data-name="Tracé 674" d="M238.5,114.792a18.247,18.247,0,0,0-5.475,2.606A18.691,18.691,0,0,0,238.9,120.7a4.1,4.1,0,0,0,1.163.168,4.942,4.942,0,0,0,1.145-.136,11.734,11.734,0,0,0,4.907-2.651,10.479,10.479,0,0,0-4.468-3.228,5.26,5.26,0,0,0-1.584-.256,6.8,6.8,0,0,0-1.562.192" transform="translate(-233.022 -114.6)" fill="none"/>
    </clipPath>
    <clipPath id="clip-path-13">
      <rect id="Rectangle_168" data-name="Rectangle 168" width="18.879" height="68.634" fill="none"/>
    </clipPath>
    <clipPath id="clip-path-14">
      <rect id="Rectangle_169" data-name="Rectangle 169" width="0.104" height="0.237" fill="none"/>
    </clipPath>
    <clipPath id="clip-path-15">
      <rect id="Rectangle_170" data-name="Rectangle 170" width="21.381" height="239.446" fill="none"/>
    </clipPath>
    <clipPath id="clip-path-16">
      <rect id="Rectangle_171" data-name="Rectangle 171" width="30.836" height="83.911" fill="none"/>
    </clipPath>
    <clipPath id="clip-path-17">
      <rect id="Rectangle_172" data-name="Rectangle 172" width="18.716" height="122.802" fill="none"/>
    </clipPath>
  </defs>
  <g id="Groupe_147" data-name="Groupe 147" clip-path="url(#clip-path)">
    <g id="Groupe_123" data-name="Groupe 123" transform="translate(0 -0.002)">
      <g id="Groupe_122" data-name="Groupe 122" clip-path="url(#clip-path-2)">
        <path id="Tracé_620" data-name="Tracé 620" d="M185.988,1429.865c-.084-3.628.272-4.238-.367-5.243-1.2-1.893-3.336-2.2-7.218-2.685a31.211,31.211,0,0,0-11.744.895c-3.226.839-4.853,1.288-5.505,2.686-1.171,2.508,1.1,5.943,2.814,7.673,6.368,6.412,20.224,5.9,22.23,2.206.452-.833-.106-1.075-.209-5.531" transform="translate(-99.033 -875.431)" fill="#002d3f"/>
        <path id="Tracé_621" data-name="Tracé 621" d="M85.422,1496.623c-1.1,1.022-1.25,3.206-1.271,3.7a4.748,4.748,0,0,0,.847,3.467c.815.975,2.05,1.4,6.214,2.2,3.336.638,5,.958,6.92,1.156,6.16.636,6.894.151,16.946.462,4.158.129,5.51-.137,7.886-.866,2.826-.867,2.917-1.312,5.953-2.254,1.619-.5,2.256-.44,9.038-1.271,3.667-.449,4.282-.566,4.66-1.04,1.357-1.7-2.346-5.5-3.954-7.049a95.177,95.177,0,0,1-14.4,3.12c-6.461.886-13.519,1.855-22.029.578-8.638-1.3-14.562-4.275-16.8-2.2" transform="translate(-51.805 -920.621)" fill="#002d3f"/>
        <path id="Tracé_622" data-name="Tracé 622" d="M327.474,1432.666c.111-3.627-.359-4.238.485-5.243,1.59-1.893,4.41-2.2,9.541-2.685a54.213,54.213,0,0,1,15.524.9c4.264.839,6.414,1.288,7.277,2.686,1.548,2.508-1.449,5.943-3.719,7.673-8.417,6.413-26.734,5.9-29.384,2.207-.6-.833.14-1.076.277-5.532" transform="translate(-201.33 -877.156)" fill="#002d3f"/>
        <path id="Tracé_623" data-name="Tracé 623" d="M318.646,1487.721c-.552.707.317,1.232,0,4.735-.123,1.35-.331,2.144.42,2.869.7.679,1.826.895,3.574,1.148a74.232,74.232,0,0,0,9.882,1.148c7.793.079,8.2,1.862,18.081,2.582,5.229.381,9.163.11,17.03-.431,7.642-.525,11.085-1.2,14.087-2.869.564-.313,4.359-2.464,3.574-3.874-.623-1.118-3.832-1.241-5.046-1.291-12.423-.506-33.772-2.179-37.214-2.439-12.419-.939-22.666-3.784-24.389-1.578" transform="translate(-196.091 -915.56)" fill="#002d3f"/>
        <path id="Tracé_624" data-name="Tracé 624" d="M295.349,7.325a12.261,12.261,0,0,1,7.1,2.3,18.007,18.007,0,0,1,5.811,6.1c2.608,4.389,1.282,6,3.3,10.4,2.669,5.819,5.855,4.889,7.532,9.4,2.075,5.577-2.538,7.712-1.937,15.854.531,7.2,4.322,7.968,4.089,14.634-.2,5.793-3.1,6.26-3.8,11.765-1.15,9.041,6.162,11.8,6.241,20.373.069,7.546-5.483,17.22-14.635,19.369-8.933,2.1-17.66-3.829-21.305-10.33-1.753-3.125-2.833-7.279.215-23.458,4.823-25.6,10.288-29.833,6.886-37.662-4.41-10.149-16.251-9.151-17.217-18.077-.93-8.586,9.27-16.492,10.761-17.647,3.192-2.474,5.4-2.949,6.958-3.013" transform="translate(-170.914 -4.504)" fill="#b4523c"/>
        <g id="Groupe_106" data-name="Groupe 106" transform="translate(118.829 59.764)" opacity="0.2">
          <g id="Groupe_105" data-name="Groupe 105">
            <g id="Groupe_104" data-name="Groupe 104" clip-path="url(#clip-path-3)">
              <path id="Tracé_625" data-name="Tracé 625" d="M324.1,155.879c2.53,1.829-.357,12.126-6.528,18.651a25.371,25.371,0,0,1-6.958,5.165c-.69-1.816-2.6-7.539-.144-13.486,3.011-7.285,11.275-12.033,13.63-10.33" transform="translate(-309.251 -155.531)" fill="#41385a"/>
            </g>
          </g>
        </g>
        <path id="Tracé_626" data-name="Tracé 626" d="M320.532,247.647l-2.821-.392v2.217h2.821Z" transform="translate(-195.631 -152.246)" fill="#002d3f"/>
        <path id="Tracé_627" data-name="Tracé 627" d="M227.456,238.332,196.183,249.9l2.471,26.737,57.032-.833,7.989-26.647Z" transform="translate(-120.8 -146.752)" fill="#f7a881"/>
        <path id="Tracé_628" data-name="Tracé 628" d="M173.03,1337.448a145.362,145.362,0,0,0,.954,18.938l-31.016.215a42.569,42.569,0,0,0,5.249-10.761c2.261-7.056,1.977-12.851,1.432-22.167-.235-4.013-2.768-18.79-3.942-25.515,8.51-.5,23.305-6.456,31.815-6.959.4,4.448-4.392,39.547-4.492,46.247" transform="translate(-88.033 -795.057)" fill="#f7a881"/>
        <path id="Tracé_629" data-name="Tracé 629" d="M137.1,1422.409a3.614,3.614,0,0,0-2.636-.925c-1.178.278-1.13,1.684-2.259,2.619-.9.742-2.657,1.29-6.4.616.063-1.832.271-2.111.941-5.213.855-3.952,1.7-5.192.753-6.162-1.616-1.653-5.359.624-12.615,0-5.2-.448-7.246-1.96-8.661-.925-1.669,1.221.521,3.8.377,8.32-.138,4.287-2.285,5.1-4.142,7.832-2.393,3.515-5.074,5.755-10.356,10.169-5.486,4.584-8.372,6.193-8.285,9.09a6.265,6.265,0,0,0,2.448,4.314c2.9,2.227,6.538,1.318,13.745,1.233,13.021-.155,14.175,2.164,20.9.308,3.93-1.084,4.544-2.183,9.6-3.235,6.015-1.251,7.867-.264,9.6-1.7,2.7-2.229-1-5.338-1.13-14.329-.076-5.234,1.036-9.79-1.883-12.017" transform="translate(-51.606 -869.479)" fill="#005a7d"/>
        <path id="Tracé_630" data-name="Tracé 630" d="M146.111,591.711c-.087-.75,1.889-.872,3.8-3.26,1.846-2.312,1.773-4.425,2.81-4.547.934-.11,1.98,1.487,2.164,2.986.276,2.243-1.381,4.238-2.754,5.128-2.547,1.651-5.906.651-6.017-.307" transform="translate(-89.966 -359.535)" fill="#f7a881"/>
        <path id="Tracé_631" data-name="Tracé 631" d="M268.484,213.013c-1.735,5.8-6.354,12.251-18.5,10.3-17.789-2.85-11.353-29.827-11.353-29.827V173.8h30.85v31.062a25.382,25.382,0,0,1-1,8.155" transform="translate(-146.241 -107.014)" fill="#f7a881"/>
        <g id="Groupe_109" data-name="Groupe 109" transform="translate(90.201 75.722)" opacity="0.2">
          <g id="Groupe_108" data-name="Groupe 108">
            <g id="Groupe_107" data-name="Groupe 107" clip-path="url(#clip-path-4)">
              <path id="Tracé_632" data-name="Tracé 632" d="M271.849,231.331l-34.911-31.609-2.192-2.029,2.192-.043,30.85-.593v20.6l8.426,2.738s-3.915,9.44-4.366,10.941" transform="translate(-234.746 -197.058)" fill="#41385a"/>
            </g>
          </g>
        </g>
        <path id="Tracé_633" data-name="Tracé 633" d="M237.24,294.619S216.707,370,221.076,400.509H137.625c.036-26.245,7.758-25.8-19.691-115.254-.829-14.851,12.173-15.377,12.173-15.377s13.252-10.231,18.744-4.359c15.878,16.977,37.992,17.508,53.457,3.4a15.375,15.375,0,0,1,14.366-2.657c6.306,2.063,11.921,3.613,11.921,3.613a35.5,35.5,0,0,1,8.645,24.74" transform="translate(-72.595 -162.373)" fill="#ffd602"/>
        <path id="Tracé_634" data-name="Tracé 634" d="M320.773,1322.829a110.331,110.331,0,0,1,2.063,25.108l23.38-.287a99.531,99.531,0,0,1-.86-25.969c1.165-11.829,4.7-30.717.517-34.554-5.082-4.664-21.252-2.424-28.349,2.8-2.081,1.531,1.986,26.548,3.248,32.9" transform="translate(-195.157 -790.984)" fill="#f7a881"/>
        <g id="Groupe_112" data-name="Groupe 112" transform="translate(70.842 95.403)" opacity="0.2" style="mix-blend-mode: multiply;isolation: isolate">
          <g id="Groupe_111" data-name="Groupe 111">
            <g id="Groupe_110" data-name="Groupe 110" clip-path="url(#clip-path-5)">
              <path id="Tracé_635" data-name="Tracé 635" d="M201.4,248.276s3.819,22.083,7.044,41.024,5.755,37.384,6.458,46.326-1.726,37.8-1.726,37.8S203.041,352.893,201.97,342.7c-2.8-26.673-17.575-84.777-17.607-88.683s17.036-5.741,17.036-5.741" transform="translate(-184.363 -248.278)" fill="#41385a"/>
            </g>
          </g>
        </g>
        <path id="Tracé_636" data-name="Tracé 636" d="M122.412,608.017s-7.481,12.945-17.076,15.046c0,0,4.02-17.013,9.156-18.981s5.86-1,5.86-1Z" transform="translate(-64.861 -371.199)" fill="#011c28"/>
        <path id="Tracé_637" data-name="Tracé 637" d="M319.821,1441.359c-2.818-2.087.126-4.187,2.1-15.782.3-1.786.688-4.4,2.943-5.022,1.21-.335,2,.168,5.466.43,3.308.251,5.138.39,6.1-.287,1.333-.941-.428-2.46-.42-5.739,0-1.818.01-4.179,2.1-5.6.914-.619,2.013-.913,11.774-1,6.437-.06,7.287.056,7.989.574,1.7,1.256-.023,2.994.21,7.317a16.569,16.569,0,0,0,1.472,5.883c.346.713,1.757,3.44,7.99,7.748,7.681,5.308,11.376,5.2,14.927,9.469,1.4,1.683,3.483,4.188,2.1,6.169-.973,1.4-3.275,1.972-15.348,3.013-14.545,1.254-18.958,1.09-22.076.861-7.337-.54-10.5-1.656-11.774-2.152-2.473-.964-2.835-1.54-6.1-2.87-6.063-2.471-7.547-1.6-9.461-3.013" transform="translate(-196.215 -867.189)" fill="#005a7d"/>
        <path id="Tracé_638" data-name="Tracé 638" d="M242.178,737.837c1.946,32.077,2.745,134.774,2.745,134.774l-28.711.357-10.426.132s2.852-84.773.2-143.06c-.79-17.322-4.243-38.311-6.326-51.412-1.584-9.988-4.192-39.442-4.319-39.86-.01-.036-.02-.066-.03-.092-.015.061-.026.133-.041.214-.84,4.421-5.781,57.024-9.275,93.772-5.455,57.33-5.338,140.193-5.338,140.193h-40.1s9.29-123.574,6.682-150.1c.581-36.59-6.581-70.247-5.924-98.036.494-21.1,10.09-66.437,10.09-66.437,16.115-1.36,21.6,3.076,30.636,3.443,0,0,30.157-3.443,57.04-3.443,0,0,2.659,37.288,6.346,63.605,2.322,16.548-1.655,85.471-3.25,115.949" transform="translate(-86.548 -343.603)" fill="#00445e"/>
        <path id="Tracé_639" data-name="Tracé 639" d="M265.943,568.6l-56.226,5.8,1.221,11.46,56.226-5.8Z" transform="translate(-129.133 -350.115)" fill="#337b97"/>
        <path id="Tracé_640" data-name="Tracé 640" d="M265.943,568.6l-56.226,5.8,1.221,11.46,56.226-5.8Z" transform="translate(-129.133 -350.115)" fill="none" stroke="#fff" stroke-linecap="round" stroke-linejoin="round" stroke-width="2.832"/>
        <path id="Tracé_641" data-name="Tracé 641" d="M292.777,616.309c-.18,10.325-2.022,35.481-1.036,50.073" transform="translate(-179.462 -379.492)" fill="none" stroke="#fff" stroke-linecap="round" stroke-linejoin="round" stroke-width="2.832"/>
        <path id="Tracé_642" data-name="Tracé 642" d="M270.34,619.669c-.18,5.751-.667,22.337-.646,31.3a28.912,28.912,0,0,0,6.456,3.658" transform="translate(-166.065 -381.561)" fill="none" stroke="#fff" stroke-linecap="round" stroke-linejoin="round" stroke-width="2.832"/>
        <path id="Tracé_643" data-name="Tracé 643" d="M347.808,637.263c2.154,1.779,4.518,3.588,7.1,5.38a106.324,106.324,0,0,0,14.849,8.608" transform="translate(-214.163 -392.394)" fill="none" stroke="#fff" stroke-linecap="round" stroke-linejoin="round" stroke-width="2.832"/>
        <path id="Tracé_644" data-name="Tracé 644" d="M188.517,637.263A33.138,33.138,0,0,1,174.744,651.9" transform="translate(-107.599 -392.394)" fill="none" stroke="#fff" stroke-linecap="round" stroke-linejoin="round" stroke-width="2.832"/>
        <path id="Tracé_645" data-name="Tracé 645" d="M279.258,581.959c0,3.32-2.47,5.209-6.012,5.574a5.469,5.469,0,0,1-6.012-5.574,5.85,5.85,0,0,1,5.6-5.96,6.162,6.162,0,0,1,6.42,5.96" transform="translate(-164.55 -354.655)" fill="#99bdcb"/>
        <path id="Tracé_646" data-name="Tracé 646" d="M279.258,581.959c0,3.32-2.47,5.209-6.012,5.574a5.469,5.469,0,0,1-6.012-5.574,5.85,5.85,0,0,1,5.6-5.96A6.162,6.162,0,0,1,279.258,581.959Z" transform="translate(-164.55 -354.655)" fill="none" stroke="#fff" stroke-linecap="round" stroke-linejoin="round" stroke-width="2.651"/>
        <path id="Tracé_647" data-name="Tracé 647" d="M284.161,586.835a3.607,3.607,0,0,1-1.214,2.644c-1.943,2.067-5.037,2.116-5.115,1.864-.066-.216,2.181-.368,3.554-2.211,1.467-1.969.8-4.35,1.474-4.465.476-.081,1.235,1.051,1.3,2.168" transform="translate(-171.075 -360.006)" fill="#fff"/>
        <path id="Tracé_648" data-name="Tracé 648" d="M180.249,444.338c-10.167,9.437-49.945,0-49.945,0,2.323-9.667,10.549-51.847,11.033-65.017.31-8.383,1.931-15.843.62-23.431v-.005c-2.72-15.754-6.178-28.609-8.545-38.8-5.011-21.586-3.185-51.342,3.027-53.322,15.129-4.815,25.6-8.83,25.6-8.83,6.539,17.365,9.587,44.34,14.135,68.048,7.039,36.688,1.432,106.733,4.075,121.363" transform="translate(-80.235 -156.971)" fill="#002d3f"/>
        <g id="Groupe_115" data-name="Groupe 115" transform="translate(51.223 242.943)" opacity="0.2" style="mix-blend-mode: multiply;isolation: isolate">
          <g id="Groupe_114" data-name="Groupe 114">
            <g id="Groupe_113" data-name="Groupe 113" clip-path="url(#clip-path-6)">
              <path id="Tracé_649" data-name="Tracé 649" d="M140.621,632.25l23.266,5.618L163,645.157s-9.219,31.594-24.713,31.033c-2.689-.1-4.232-1.885-4.981-4.686Z" transform="translate(-133.307 -632.25)" fill="#41385a"/>
            </g>
          </g>
        </g>
        <g id="Groupe_118" data-name="Groupe 118" transform="translate(50.421 137.378)" opacity="0.2" style="mix-blend-mode: multiply;isolation: isolate">
          <g id="Groupe_117" data-name="Groupe 117">
            <g id="Groupe_116" data-name="Groupe 116" clip-path="url(#clip-path-7)">
              <path id="Tracé_650" data-name="Tracé 650" d="M146.515,410.078l-3.993,8.977c-2.72-15.754-7.972-38.38-11.3-48.3l5.785-13.234,9.867,42.03a23.51,23.51,0,0,1-.358,10.53" transform="translate(-131.221 -357.519)" fill="#41385a"/>
            </g>
          </g>
        </g>
        <path id="Tracé_651" data-name="Tracé 651" d="M109.915,611.441c1.62-4.745,6.092-6.625,7.016-7.014a13.441,13.441,0,0,1,5.859-1,19.18,19.18,0,0,1,3.724.772c4.893,1.139,6.139.486,10.052,1.514,1.166.306,1.752.855,3.837,1.881a41.482,41.482,0,0,1-3.546,10.9c-1.792,3.662-5.425,10.208-10.3,10.143a9.744,9.744,0,0,1-3.412-.9,34.113,34.113,0,0,1-7.553-4.074c-3.338-2.538-5.332-4.054-6.045-6.837a9.273,9.273,0,0,1,.369-5.379" transform="translate(-67.299 -371.546)" fill="#f7a881"/>
        <path id="Tracé_652" data-name="Tracé 652" d="M176.566,611.149l12.692,2.287s5.492.9,8.062,1.186a2.993,2.993,0,0,1,1.885.9,1.594,1.594,0,0,1-.477,2.677c-1.176.664-19.952-1.214-19.952-1.214Z" transform="translate(-108.721 -376.314)" fill="#f7a881"/>
        <path id="Tracé_653" data-name="Tracé 653" d="M176.566,628.33l12.692,2s5.544.8,8.1,1.038a3.1,3.1,0,0,1,1.849.784c1.016.961.464,1.872-.477,2.336-1.176.579-21.363-1-21.363-1Z" transform="translate(-108.721 -386.893)" fill="#f7a881"/>
        <path id="Tracé_654" data-name="Tracé 654" d="M168.953,643.252l12.692,1.995s5.544.8,8.1,1.038a3.1,3.1,0,0,1,1.849.784c1.016.961.464,1.872-.477,2.336-1.176.579-21.363-1-21.363-1Z" transform="translate(-104.033 -396.082)" fill="#f7a881"/>
        <path id="Tracé_655" data-name="Tracé 655" d="M158.187,653.783l.5.667c1.012,1.784,3.064,2.586,5.068,3.021,1.658.36,3.6.769,4.832.988a3.1,3.1,0,0,1,1.78.931c.935,1.039.312,1.9-.664,2.289-1.219.482-17.929-2.2-17.929-2.2Z" transform="translate(-93.454 -402.566)" fill="#f7a881"/>
        <g id="Groupe_121" data-name="Groupe 121" transform="translate(70.842 96.721)" opacity="0.2" style="mix-blend-mode: multiply;isolation: isolate">
          <g id="Groupe_120" data-name="Groupe 120">
            <g id="Groupe_119" data-name="Groupe 119" clip-path="url(#clip-path-8)">
              <path id="Tracé_656" data-name="Tracé 656" d="M193.347,251.706s6.536,20.48,9.455,39.42,6.347,37.2,6.983,46.139,3.391,38.273,3.391,38.273-13.967-21.023-15.092-31.2c-2.982-26.981-13.692-84.305-13.72-88.212s8.983-4.422,8.983-4.422" transform="translate(-184.364 -251.708)" fill="#41385a"/>
            </g>
          </g>
        </g>
        <path id="Tracé_657" data-name="Tracé 657" d="M203.732,248.276s3.131,22.083,6.05,41.024,5.087,37.384,5.724,46.326,1.18,37.8,1.18,37.8-11.912-20.535-12.881-30.728c-2.536-26.673-13.713-85.753-13.741-89.659s13.669-4.765,13.669-4.765" transform="translate(-117.032 -152.875)" fill="#004059"/>
        <path id="Tracé_658" data-name="Tracé 658" d="M.642,466.435C11.8,487.676,20.863,506.6,40.475,528.052c2.955-6.348,5.262-13.431,15.016-19.983-5.422-6.243-24.11-56.117-39.282-59.287-.721-.136-6.92-1.319-11.832,3.19A14.047,14.047,0,0,0,.642,466.435" transform="translate(0 -276.189)" fill="#002d3f"/>
        <path id="Tracé_659" data-name="Tracé 659" d="M71.146,272.932c-4.1-.345-10.931-1.627-16.672,1.742-10.414,6.112-17.1,13.337-24.814,25.723C17.322,320.211,8.567,334.515,3.115,343.469-.121,348.819-.776,354.882,1.8,358.1c3.483,4.348,17.943.456,28.061-6,11.116-13.5,18.477-30.555,30.812-42.413,1.774-.6,9.895-1.211,10.676-12.668.9-13.191.481-22.708-.207-24.083" transform="translate(-0.133 -167.732)" fill="#002d3f"/>
        <path id="Tracé_660" data-name="Tracé 660" d="M188.872,175.921c2.356-1.7,6.835-.576,9.469,1.865,2.37,2.2,2.76,5.559,3.444,12.2.52,5.052.89,8.984-.287,14.06-.767,3.3-1.465,6.315-4.017,9.182a17.081,17.081,0,0,1-8.9,5.022,21.082,21.082,0,0,1-11.765-.43,30.417,30.417,0,0,1-.215-13.558c2.3-10.342,8.99-12.25,10.258-22.812.232-1.935.3-4.286,2.009-5.524" transform="translate(-108.34 -107.82)" fill="#b4523c"/>
        <path id="Tracé_661" data-name="Tracé 661" d="M217.059,95.428c.861,6.313,7.174,23.243,22.956,26.543,0,0,7,2.375,18.221-10.9,7.03-8.321,7.461-14.921,7.461-14.921s.717-11.4,0-18.43-1.148-17.94-19.512-19.949-24.534,6.169-26.4,9.756-3.587,21.593-2.726,27.905" transform="translate(-133.514 -35.376)" fill="#f7a881"/>
        <path id="Tracé_662" data-name="Tracé 662" d="M334.811,118.525c.436-.007.586.99,1.681,1.287.87.236,1.477-.2,2.524-.465a6.335,6.335,0,0,1,3.809.146c2.575,1.334,2.029,9.227-1.4,14.312-.785,1.165-2.3,3.35-4.681,3.6a4.53,4.53,0,0,1-2.206-.323c-4.6-2.256-1.488-18.533.269-18.562" transform="translate(-204.517 -72.98)" fill="#f7a881"/>
        <path id="Tracé_663" data-name="Tracé 663" d="M208.081,109.422c-.436-.007-.587.99-1.681,1.287-.87.236-1.477-.2-2.524-.465a6.333,6.333,0,0,0-3.809.146c-2.575,1.334-2.029,9.227,1.4,14.312.785,1.166,2.3,3.35,4.681,3.6a4.53,4.53,0,0,0,2.206-.323C212.948,125.728,209.838,109.451,208.081,109.422Z" transform="translate(-122.199 -67.375)" fill="none" stroke="#000" stroke-width="1.416"/>
        <path id="Tracé_664" data-name="Tracé 664" d="M276.1,130.877c-.419,1.17-.841,2.338-1.226,3.516-.4,1.171-.783,2.35-1.093,3.534a11.914,11.914,0,0,0-.341,1.761,2.809,2.809,0,0,0,0,.759,1.582,1.582,0,0,0,.081.348l.053.175.083.17a4.479,4.479,0,0,0,1,1.311,15.074,15.074,0,0,0,1.414,1.162l0,0a.056.056,0,0,1-.041.1,5.258,5.258,0,0,1-1.83-.648,4.13,4.13,0,0,1-1.5-1.4l-.136-.241-.106-.262a2.427,2.427,0,0,1-.141-.553,2.575,2.575,0,0,1-.018-.573,3.64,3.64,0,0,1,.08-.518,16.2,16.2,0,0,1,.573-1.846c.425-1.188.913-2.337,1.418-3.477.524-1.132,1.054-2.258,1.633-3.361a.054.054,0,0,1,.073-.023.056.056,0,0,1,.026.067" transform="translate(-167.664 -80.541)" fill="#5d3f31"/>
        <path id="Tracé_665" data-name="Tracé 665" d="M306.172,117.649a18.7,18.7,0,0,1-5.874,3.306,4.119,4.119,0,0,1-1.163.168,4.962,4.962,0,0,1-1.145-.136,11.735,11.735,0,0,1-4.907-2.651,10.475,10.475,0,0,1,4.468-3.229,5.26,5.26,0,0,1,1.584-.256,6.8,6.8,0,0,1,1.562.192,18.248,18.248,0,0,1,5.476,2.606" transform="translate(-180.466 -70.718)" fill="#fff"/>
        <path id="Tracé_666" data-name="Tracé 666" d="M305.5,101.713a14.794,14.794,0,0,0-3.728-2.851,8.337,8.337,0,0,0-4.259-1.067,8.128,8.128,0,0,0-2.153.466c-.718.254-1.437.52-2.187.714a23.842,23.842,0,0,1-4.771.8.118.118,0,0,1-.123-.111.122.122,0,0,1,.03-.085,9.667,9.667,0,0,1,1.96-1.6,13.242,13.242,0,0,1,2.212-1.127,9.452,9.452,0,0,1,2.443-.574,15.022,15.022,0,0,1,2.609-.119A9,9,0,0,1,302.316,98a14.044,14.044,0,0,1,1.849,1.655,12.838,12.838,0,0,1,1.514,1.924.109.109,0,0,1-.17.134Z" transform="translate(-177.51 -59.198)" fill="#5d3f31"/>
        <path id="Tracé_667" data-name="Tracé 667" d="M278.747,196.052a9.9,9.9,0,0,1-1.647.672,7.43,7.43,0,0,1-1.78.276,5.817,5.817,0,0,1-1.8-.166,5.146,5.146,0,0,1-1.624-.782.028.028,0,0,1-.007-.039.029.029,0,0,1,.028-.011c.6.075,1.158.218,1.725.3s1.114.231,1.687.262a8.481,8.481,0,0,0,3.4-.563.027.027,0,0,1,.035.016.027.027,0,0,1-.014.034" transform="translate(-167.411 -120.686)" fill="#8b5f49"/>
      </g>
    </g>
    <g id="Groupe_125" data-name="Groupe 125" transform="translate(112.616 44.131)">
      <g id="Groupe_124" data-name="Groupe 124" clip-path="url(#clip-path-9)">
        <path id="Tracé_668" data-name="Tracé 668" d="M308.176,118.01c0,1.888-1.087,3.419-2.429,3.419s-2.429-1.53-2.429-3.419,1.087-3.419,2.429-3.419,2.429,1.53,2.429,3.419" transform="translate(-299.385 -114.691)"/>
      </g>
    </g>
    <g id="Groupe_127" data-name="Groupe 127" transform="translate(0 -0.002)">
      <g id="Groupe_126" data-name="Groupe 126" clip-path="url(#clip-path-2)">
        <path id="Tracé_670" data-name="Tracé 670" d="M293.082,117.91a9.908,9.908,0,0,1,2.669-2.622,6.2,6.2,0,0,1,3.632-1.123,9.471,9.471,0,0,1,3.642,1.042,16.009,16.009,0,0,1,3.147,2.017,30,30,0,0,0-3.316-1.638,10.642,10.642,0,0,0-3.493-.889,6.337,6.337,0,0,0-3.395.944,13.575,13.575,0,0,0-2.885,2.27" transform="translate(-180.466 -70.293)" fill="#573329"/>
        <path id="Tracé_671" data-name="Tracé 671" d="M233.022,117.4A18.689,18.689,0,0,0,238.9,120.7a4.106,4.106,0,0,0,1.163.168,4.964,4.964,0,0,0,1.145-.136,11.735,11.735,0,0,0,4.907-2.651,10.478,10.478,0,0,0-4.468-3.229,5.259,5.259,0,0,0-1.584-.256,6.8,6.8,0,0,0-1.562.192,18.239,18.239,0,0,0-5.476,2.606" transform="translate(-143.484 -70.564)" fill="#fff"/>
        <path id="Tracé_672" data-name="Tracé 672" d="M228,101.114a8.6,8.6,0,0,1,1.376-1.75,10.04,10.04,0,0,1,1.771-1.414,8.869,8.869,0,0,1,4.447-1.337,14.915,14.915,0,0,1,2.369.171,7.837,7.837,0,0,1,2.2.641,11,11,0,0,1,1.937,1.165,8.042,8.042,0,0,1,1.649,1.609.119.119,0,0,1-.025.166.121.121,0,0,1-.081.023h0a23.047,23.047,0,0,1-4.266-.9c-.666-.192-1.3-.444-1.928-.7a7.411,7.411,0,0,0-1.906-.509,8.245,8.245,0,0,0-3.915.587,9.829,9.829,0,0,0-3.443,2.363l-.007.007a.109.109,0,0,1-.173-.13" transform="translate(-140.381 -59.486)" fill="#5d3f31"/>
      </g>
    </g>
    <g id="Groupe_129" data-name="Groupe 129" transform="translate(89.538 44.035)">
      <g id="Groupe_128" data-name="Groupe 128" clip-path="url(#clip-path-11)">
        <path id="Tracé_673" data-name="Tracé 673" d="M244.21,117.76c0,1.888,1.087,3.419,2.429,3.419s2.429-1.53,2.429-3.419-1.087-3.419-2.429-3.419-2.429,1.53-2.429,3.419" transform="translate(-239.911 -114.441)"/>
      </g>
    </g>
    <g id="Groupe_146" data-name="Groupe 146" transform="translate(0 -0.002)">
      <g id="Groupe_145" data-name="Groupe 145" clip-path="url(#clip-path-2)">
        <path id="Tracé_675" data-name="Tracé 675" d="M246.111,117.66a13.579,13.579,0,0,0-2.885-2.27,6.337,6.337,0,0,0-3.395-.944,10.643,10.643,0,0,0-3.493.889,30.007,30.007,0,0,0-3.316,1.638,16.005,16.005,0,0,1,3.147-2.017,9.47,9.47,0,0,1,3.642-1.042,6.2,6.2,0,0,1,3.632,1.123,9.9,9.9,0,0,1,2.669,2.622" transform="translate(-143.483 -70.139)" fill="#573329"/>
        <path id="Tracé_676" data-name="Tracé 676" d="M259.065,183.52a23.678,23.678,0,0,0,8.12,1.773c4.29,0,8.6-2.837,8.6-2.837s-3.909.253-8.6.253a40.26,40.26,0,0,0-8.12.811" transform="translate(-159.52 -112.346)" fill="#b97e61"/>
        <path id="Tracé_677" data-name="Tracé 677" d="M271.2,30.356s3.986,16.486,16.759,21.546,15.343.709,15.343.709L291.325,36.189Z" transform="translate(-166.989 -18.69)" fill="#b4523c"/>
        <path id="Tracé_678" data-name="Tracé 678" d="M166.7,32.916c.181-1.05.5-2.545.577-3.444a11.334,11.334,0,0,1,.221-1.394c.029-.131.064-.264.115-.44a39.06,39.06,0,0,1,7.954-13.732A42.166,42.166,0,0,1,200.755.378a41.687,41.687,0,0,1,21.664,2.87c-12.469,7.521-15.15,12.81-15.064,16.356a8.666,8.666,0,0,1-.43,4.161c-1.331,3.185-4.284,3.284-8.465,7.174-2.369,2.2-1.7,2.431-4.017,4.591-4.378,4.08-6.707,3.12-8.752,5.452-4.127,4.706,2.808,11.418-.574,20.66-1.983,5.419-4.942,4.685-6.6,10.186-2.3,7.623,3.013,10.266.861,16.5-2.168,6.281-8.388,6-13.2,14.922a28.365,28.365,0,0,0-2.583,6.743c-7.246-2.229-8.94-4.49-9.111-6.169-.375-3.7,6.448-6.553,5.954-12.052-.025-.28-.3-1.191-.861-3.013-1.583-5.177-2.241-5.786-2.726-8.178-.541-2.67-1.029-5.082.143-7.318,1.527-2.911,4.4-2.71,5.977-6.066a10.559,10.559,0,0,0,.767-3.977c.39-6.109-2.464-6.642-1.435-12.339.856-4.739,2.988-5.24,3.587-10.761.153-1.407.374-4.684.809-7.2" transform="translate(-95.115 0.004)" fill="#f06d50"/>
        <path id="Tracé_679" data-name="Tracé 679" d="M343.518,176.248a5.651,5.651,0,0,1-1.785.381c-.087.005-.174.011-.261.011-.115,0-.223,0-.332-.011a5.651,5.651,0,0,1-1.784-.381,4.128,4.128,0,0,0,.609-1.9c.06-1.028-.3-1.366-.179-2.508a12.864,12.864,0,0,1,.413-1.654c.212-.865.337-1.583.414-2.045.174-.005.353-.005.528-.011.2-.005.4-.011.593-.011.131-.005.256-.005.387-.011a8.11,8.11,0,0,0,.364,1.866c.234.745.375.811.495,1.328.245,1.039-.125,1.523-.141,2.546a4.59,4.59,0,0,0,.68,2.4" transform="translate(-208.959 -103.509)" fill="#ffe667"/>
        <path id="Tracé_680" data-name="Tracé 680" d="M343.691,162.7a1.8,1.8,0,1,1-1.8-1.8,1.8,1.8,0,0,1,1.8,1.8" transform="translate(-209.415 -99.075)" fill="#02b196"/>
        <path id="Tracé_681" data-name="Tracé 681" d="M408.549,373.348c-3.422,2-9.431-1.627-14.438-8.557-.811-1.12-.042-2.186-.78-3.47,0,0,0,0-.009-.005-.036-.06-.068-.12-.1-.185-.21-.365-.415-.74-.62-1.121-.036-.071-.077-.141-.114-.212-10.8-21.842-11.927-43.929-10.3-54.6.032-.217.068-.424.1-.631-.05-.06-.114-.119-.187-.19l-.055-.049.387-1.289,5.176-17.158,3.959-13.121-.865-4.329c2.16,1.295,6.091,4.315,7.64,7.006,14.528,25.229,16.432,77.585,17.052,84.429.547,6.218-3.744,11.663-6.846,13.48" transform="translate(-234.961 -165.286)" fill="#002d3f"/>
        <g id="Groupe_132" data-name="Groupe 132" transform="translate(144.079 119.53)" opacity="0.2" style="mix-blend-mode: multiply;isolation: isolate">
          <g id="Groupe_131" data-name="Groupe 131">
            <g id="Groupe_130" data-name="Groupe 130" clip-path="url(#clip-path-13)">
              <path id="Tracé_682" data-name="Tracé 682" d="M385.977,379.7c-.036-.071-.078-.141-.114-.212-10.8-21.842-11.927-43.929-10.3-54.6.032-.217.068-.424.1-.631-.05-.06-.114-.12-.187-.191l-.055-.049.387-1.29,5.827-11.666c3.846,7.768,6.4,12.085,10.227,23.169,5.564,16.129-1.985,37.458-5.89,45.465" transform="translate(-374.964 -311.069)" fill="#41385a"/>
            </g>
          </g>
        </g>
        <path id="Tracé_683" data-name="Tracé 683" d="M356.036,440.918c-7.171-.672-17.552,2.022-29.567,1.834a58.927,58.927,0,0,1-21.626-4.207c.927-13.665-.9-85.236,6.132-121.918,4.548-23.714,1.049-47.189,3.081-66.9,0,0,15.086,4.049,29.393,7.187,14.231,10.431,3.173,42.1,1.187,52.247-3.1,15.8-1.763,24.8-3.81,49.685q-.161,1.925-.346,3.978c.484,13.171,22.222,77.153,15.555,78.09" transform="translate(-187.707 -153.771)" fill="#002d3f"/>
        <g id="Groupe_135" data-name="Groupe 135" transform="translate(108.699 295.073)" opacity="0.2" style="mix-blend-mode: multiply;isolation: isolate">
          <g id="Groupe_134" data-name="Groupe 134">
            <g id="Groupe_133" data-name="Groupe 133" clip-path="url(#clip-path-14)">
              <path id="Tracé_684" data-name="Tracé 684" d="M282.955,767.918c.01.025.025.051.036.081,0,0,0,0,0,.01-.036.056-.061.1-.072.122-.046.061-.036.005.041-.214" transform="translate(-282.887 -767.918)" fill="#41385a"/>
            </g>
          </g>
        </g>
        <g id="Groupe_138" data-name="Groupe 138" transform="translate(108.803 290.051)" opacity="0.2" style="mix-blend-mode: multiply;isolation: isolate">
          <g id="Groupe_137" data-name="Groupe 137">
            <g id="Groupe_136" data-name="Groupe 136" clip-path="url(#clip-path-15)">
              <path id="Tracé_685" data-name="Tracé 685" d="M304.019,994.162v.133H293.593s2.852-84.773.2-143.061c-.79-17.322-4.243-38.312-6.326-51.412-1.584-9.988-4.121-39.386-4.314-39.87.407-.713,2.017-3.713,4.421-5.1,3.841.468,11.46,42.2,12.891,53.841,5.964,48.539,3.637,180.7,3.55,185.472" transform="translate(-283.157 -754.849)" fill="#41385a"/>
            </g>
          </g>
        </g>
        <g id="Groupe_141" data-name="Groupe 141" transform="translate(138.761 205.079)" opacity="0.2" style="mix-blend-mode: multiply;isolation: isolate">
          <g id="Groupe_140" data-name="Groupe 140">
            <g id="Groupe_139" data-name="Groupe 139" clip-path="url(#clip-path-16)">
              <path id="Tracé_686" data-name="Tracé 686" d="M390.691,615.779c-7.171-.672-17.552,2.022-29.567,1.834,1.416-11.857,3.937-33.723,4.126-40.517.224-8.048,7.91-35.317,10.233-43.385q-.161,1.925-.346,3.978c.484,13.171,22.222,77.153,15.555,78.091" transform="translate(-361.124 -533.711)" fill="#41385a"/>
            </g>
          </g>
        </g>
        <path id="Tracé_687" data-name="Tracé 687" d="M374.8,681.507c.3-.472,2.808-4.254,6.821-5.488,5.027-1.545,11.468,1.2,13.548,5.715,1.14,2.475.89,5.309.541,9.277-.087.986-.071.293-.755,5.059-.593,4.131-.729,5.52-1.482,7.428a16.676,16.676,0,0,1-1.892,3.5,29.976,29.976,0,0,1-14.381-5.5c-.981-.718-9.185-6.829-7.9-11.206.305-1.04.859-1,2.774-3.947,1.622-2.492,1.816-3.426,2.727-4.84" transform="translate(-227.313 -415.991)" fill="#f7a881"/>
        <path id="Tracé_688" data-name="Tracé 688" d="M357.85,712.1s-1.225,2.345-1.988,3.851-3.654,6.46-5.755,7.251c0,0-.712,1.556,3.072,1.163s8.387-7.289,8.387-7.289Z" transform="translate(-215.545 -438.478)" fill="#f7a881"/>
        <path id="Tracé_689" data-name="Tracé 689" d="M369.149,725.767s-4.706,24.84-4.66,25.655.14,2.4,1.072,2.061,5.194-11.833,5.882-14.05,3.2-12.036,3.018-13.667-5.312,0-5.312,0" transform="translate(-224.435 -446.444)" fill="#f7a881"/>
        <path id="Tracé_690" data-name="Tracé 690" d="M381.709,732.237S376.6,757.96,376.6,759.3c0,1.471.253,3.6.8,3.7s1.4.425,2.891-4.466,8.282-25.706,8.282-25.706Z" transform="translate(-231.893 -450.874)" fill="#f7a881"/>
        <path id="Tracé_691" data-name="Tracé 691" d="M402.665,728.1s-4.194,21.483-5.685,24.264-2.443,3.165-3.225,2.877-.191-6.079,1.641-13.531,2.646-20.276,2.646-20.276Z" transform="translate(-242.248 -444.224)" fill="#f7a881"/>
        <path id="Tracé_692" data-name="Tracé 692" d="M419.587,747.658c-1.639,8.087-4.38,16.592-5.871,16.112s1.123-18.83,1.123-18.83Z" transform="translate(-254.463 -458.696)" fill="#f7a881"/>
        <path id="Tracé_693" data-name="Tracé 693" d="M417.91,503.251a230.73,230.73,0,0,1-9.536,70.939c-.481,1.592-22.6-9.459-22.494-9.967.64-2.945,2.678-47.7,10.09-63.854.566-.467,7.79-6.364,14.268-4.789,5.121,1.245,6.537,2.3,7.672,7.672" transform="translate(-237.605 -304.987)" fill="#002d3f"/>
        <g id="Groupe_144" data-name="Groupe 144" transform="translate(118.301 95.922)" opacity="0.2" style="mix-blend-mode: multiply;isolation: isolate">
          <g id="Groupe_143" data-name="Groupe 143">
            <g id="Groupe_142" data-name="Groupe 142" clip-path="url(#clip-path-17)">
              <path id="Tracé_694" data-name="Tracé 694" d="M317.375,249.628c.932.152,1.87.27,2.8.455,2.926.585,5.512,2.991,6.332,3.836s-4.275,77.69-6.362,87.4-12.266,31.113-12.266,31.113.653-41.555,5.314-84.42c1.462-13.447,4.186-38.383,4.186-38.383" transform="translate(-307.875 -249.629)" fill="#41385a"/>
            </g>
          </g>
        </g>
        <path id="Tracé_695" data-name="Tracé 695" d="M314.145,248.276c.932.152,2.689.27,3.615.455a25.616,25.616,0,0,1,8.5,4.037c.819.845-6.444,77.489-8.531,87.2s-10.185,31.113-10.185,31.113-1.428-41.555,3.233-84.42c1.462-13.447,3.367-38.383,3.367-38.383" transform="translate(-189.244 -152.875)" fill="#004059"/>
        <path id="Tracé_696" data-name="Tracé 696" d="M371.015,357.333c0-.09-.01-.174-.019-.258s-.016-.161-.026-.236c0-.01,0-.019,0-.029l0-.013v-.007c-.01-.077-.023-.148-.033-.22-.029-.161-.064-.319-.109-.493-.019-.071-.035-.139-.058-.2l-.013-.045c-.026-.087-.055-.181-.087-.268l-.019-.058.006-.058a6.037,6.037,0,0,0,.058-.822c0-.084,0-.167,0-.252s-.01-.164-.016-.245-.016-.161-.029-.239-.02-.161-.036-.235c-.013-.09-.029-.168-.045-.242s-.039-.168-.058-.248c-.052-.171-.1-.313-.142-.442-.026-.068-.048-.136-.077-.2s-.051-.132-.081-.19a6.346,6.346,0,0,0-.3-.584c-.036-.061-.071-.12-.11-.178a5.753,5.753,0,0,0-1.3-1.419c-.055-.042-.11-.084-.168-.123s-.119-.087-.177-.122c-.126-.084-.248-.158-.371-.229l-.051-.026-.068-.039c-.09-.045-.194-.1-.3-.142l-.042-.019c-.039-.019-.078-.035-.12-.052-.074-.032-.139-.058-.206-.084s-.135-.048-.2-.071-.132-.042-.2-.061A6.565,6.565,0,0,0,365.7,349l-.2-.016c-.065-.007-.123-.01-.187-.013h-.264c-.12,0-.239,0-.352.01-.219.01-.445.029-.671.061l-.016,0h-.016a.529.529,0,0,1-.074.013.63.63,0,0,0-.071.013c-.1.013-.184.032-.267.048l-.026.006h-.01c-.09.02-.184.039-.274.065s-.177.045-.258.071l-.126.039-.126.035-.029.013-.038.013-.052.019c-.058.02-.116.039-.171.061-.155.058-.281.11-.393.165l-.045.019c-.065.026-.129.055-.194.087a6.5,6.5,0,0,0-.838.487c-.093.061-.181.12-.264.184s-.139.1-.2.155c-.106.077-.2.161-.316.261-.068.061-.132.116-.19.177l-.01.01-.013.01a.157.157,0,0,0-.032.032c-.061.055-.116.11-.168.164a.7.7,0,0,0-.048.055l-.013.013c-.058.058-.113.116-.161.174a7.1,7.1,0,0,0-1.154,1.761c-.042.08-.071.148-.1.216s-.071.165-.1.255c-.026.068-.052.129-.071.193l-.032.1-.035.106c0,.007-.01.029-.016.048s-.01.029-.013.045c-.032.093-.051.177-.074.261v.01l0,.01a.048.048,0,0,0-.007.019l0,.013,0,.013c-.026.094-.045.184-.064.277l0,.01v.013a.076.076,0,0,0-.01.039l0,.006v.01c-.016.068-.026.132-.036.2l0,.016,0,.013a1.342,1.342,0,0,0-.026.161c-.026.18-.045.342-.055.49-.006.078-.01.142-.013.21-.007.116-.007.229-.007.345a7.181,7.181,0,0,0,.036.745c.01.084.019.165.032.248.022.171.048.335.084.493.016.081.035.158.052.232.013.058.023.1.035.145s.026.093.042.135l0,.01v.01c.016.065.039.129.058.19l.016.058a.366.366,0,0,0,.013.035c.039.11.071.21.113.307l0,.01,0,.007a.373.373,0,0,0,.013.038c.035.1.077.187.116.274l.019.048c.048.1.1.206.148.31.01.016.016.029.023.038l0,.01.007.007c.042.087.084.164.132.249l0,0,.006.01.042.081c.035.061.077.123.116.187a1.437,1.437,0,0,0,.087.132c.061.1.12.181.178.261s.119.158.181.235c.09.116.187.229.287.342.068.081.139.155.213.229.023.026.051.055.077.084.081.074.155.145.229.216s.168.145.252.219.168.139.251.2c.065.045.129.093.194.136a3.721,3.721,0,0,0,.355.242c.074.048.145.09.213.132.084.048.164.09.245.136.061.035.116.064.171.09.087.042.164.08.242.113l.042.02h0c.084.039.177.077.274.116s.191.074.284.106c.023.01.035.013.051.019s.036.01.052.016l.1.032.1.032a2.022,2.022,0,0,0,.2.058h.013l.013.006.068.019c.116.029.222.055.335.074s.2.042.306.058a7.289,7.289,0,0,0,1.168.094c.1,0,.19,0,.287-.01.113,0,.219-.013.326-.023.081-.007.155-.016.229-.029s.126-.016.177-.026c.09-.016.164-.032.239-.048s.151-.032.226-.051c.1-.026.19-.052.277-.081.068-.019.132-.039.194-.061s.1-.039.148-.058c.081-.029.145-.052.21-.081.084-.036.154-.065.226-.1a6.2,6.2,0,0,0,.771-.436c.065-.045.129-.09.19-.135a5.816,5.816,0,0,0,.838-.735l.123-.132c.052-.058.1-.119.148-.174s.11-.135.161-.206c.026-.039.058-.078.09-.12.1-.139.178-.261.248-.377l.02-.035c.035-.061.074-.123.106-.187s.068-.123.1-.184a5.208,5.208,0,0,0,.242-.545c.026-.064.048-.129.071-.193l.02-.055a1.993,1.993,0,0,0,.061-.2l0-.01,0-.013a.573.573,0,0,0,.023-.071l0-.02c.016-.055.029-.109.042-.167l0-.007V359l.006-.016.007-.019c.02-.09.036-.171.052-.252s.029-.168.042-.255c0-.026.007-.055.013-.087s.006-.065.01-.1a.971.971,0,0,0,.013-.1c.01-.087.016-.174.019-.258q.01-.16.01-.31c0-.09,0-.181-.007-.268m-6.086,2.519-.271-.032a2.375,2.375,0,0,1-.277-.048c-.071-.019-.139-.035-.206-.055a.867.867,0,0,1-.116-.042.451.451,0,0,1-.058-.02,2.709,2.709,0,0,1-.542-.267.921.921,0,0,1-.145-.1c-.061-.042-.126-.09-.19-.142-.078-.068-.152-.139-.229-.216a.832.832,0,0,1-.113-.126c-.038-.045-.071-.084-.1-.122a1.465,1.465,0,0,1-.1-.129,2,2,0,0,1-.148-.242,2.8,2.8,0,0,1-.329-.9,1.591,1.591,0,0,1-.032-.216.468.468,0,0,1-.007-.074,2.165,2.165,0,0,1-.013-.261,2.993,2.993,0,0,1,2.6-2.96l.274-.039Zm0-6.411-.219.022a3.4,3.4,0,0,0-3.077,3.4c0,.061,0,.12,0,.181a1.481,1.481,0,0,0,.016.178c.006.074.016.139.026.2a1.4,1.4,0,0,0,.029.148,3.448,3.448,0,0,0,1.039,1.816c.065.061.132.113.187.158l.026.019.01.007.01.01a3.157,3.157,0,0,0,.423.274c.071.038.142.074.213.11l.032.013a2.215,2.215,0,0,0,.251.1,2.326,2.326,0,0,0,.255.081c.1.026.191.048.281.065s.181.029.277.038l.219.023v1.332l-.268-.022c-.064-.007-.129-.013-.193-.023l-.081-.01-.061-.01a.4.4,0,0,1-.084-.016,1.356,1.356,0,0,1-.161-.029l-.026-.006a1.59,1.59,0,0,1-.171-.038l-.032-.007a5.553,5.553,0,0,1-.578-.19c-.061-.026-.122-.048-.184-.078l-.184-.09a4.673,4.673,0,0,1-.839-.539q-.077-.058-.155-.126c-.048-.042-.1-.084-.142-.129a4.8,4.8,0,0,1-1-1.351c-.032-.065-.061-.129-.09-.2a3.415,3.415,0,0,1-.155-.393,1.655,1.655,0,0,1-.048-.161.756.756,0,0,1-.042-.139,2.161,2.161,0,0,1-.058-.239c-.01-.048-.019-.1-.029-.148s-.02-.1-.026-.158a4.72,4.72,0,0,1-.048-.687,4.8,4.8,0,0,1,4.392-4.76l.264-.02Zm0-1.819-.229.016a5.208,5.208,0,0,0-4.853,5.186,5.024,5.024,0,0,0,.055.764,1.378,1.378,0,0,0,.029.152v.013l0,.013a1.044,1.044,0,0,0,.026.135,2.1,2.1,0,0,0,.052.216c.016.077.035.145.055.209s.042.136.068.2l.006.02,0,.016a.3.3,0,0,0,.026.064l.006.016.007.016a1.93,1.93,0,0,0,.084.216c.032.08.071.158.106.229s.061.126.09.177a4.658,4.658,0,0,0,.306.5c.048.068.093.132.142.194s.1.129.152.19l.038.048c.1.116.2.223.313.329a5.343,5.343,0,0,0,.7.577c.058.039.119.078.187.12a4.435,4.435,0,0,0,.41.232c.068.035.126.065.187.09s.142.065.213.09.11.045.158.065l.045.016c.09.029.19.061.29.09l.081.023.09.022a5.125,5.125,0,0,0,.548.11l.074.01.071.01.236.02.222.016,0,.226v.9l-.255-.013c-.151-.01-.284-.019-.4-.035-.087-.01-.177-.023-.268-.036s-.164-.026-.248-.045a1.779,1.779,0,0,1-.219-.045h-.051l-.026-.016-.029-.007c-.058-.013-.116-.029-.174-.045a4.922,4.922,0,0,1-.529-.168c-.087-.029-.174-.061-.265-.1a7.033,7.033,0,0,1-.938-.465l-.068-.042c-.058-.039-.119-.074-.174-.116a2.138,2.138,0,0,1-.223-.148c-.08-.058-.174-.129-.29-.219-.058-.045-.116-.1-.178-.148-.022-.016-.045-.039-.068-.058l-.035-.029c-.1-.09-.194-.171-.274-.255s-.155-.158-.232-.245a3.322,3.322,0,0,1-.242-.277,2.929,2.929,0,0,1-.2-.251l-.01-.01,0-.006-.01-.013q-.1-.13-.2-.29a2.728,2.728,0,0,1-.155-.248c-.016-.023-.029-.045-.042-.065l-.013-.02c-.1-.164-.177-.316-.252-.474a.855.855,0,0,1-.055-.116l-.023-.048c-.019-.039-.035-.081-.052-.12-.032-.068-.058-.135-.084-.2-.032-.081-.071-.177-.1-.277s-.061-.19-.09-.287c-.019-.068-.042-.136-.058-.21s-.039-.151-.055-.222a.15.15,0,0,1-.01-.048,2.973,2.973,0,0,1-.068-.348c-.013-.074-.029-.168-.039-.264l-.01-.078-.01-.077v-.029a.217.217,0,0,1,0-.042c-.01-.1-.016-.193-.019-.29s-.01-.223-.01-.336a6.884,6.884,0,0,1,6.5-6.873l.258-.013Zm.423-2.235.264.026c.123.013.245.032.383.058.075.016.145.029.216.045s.123.029.187.045.109.032.164.048a4.977,4.977,0,0,1,1.1.477c.11.065.2.123.294.184l.039.029c.055.035.106.071.158.109a3.548,3.548,0,0,1,.294.236c.048.042.1.084.148.129.023.022.045.045.068.065l.065.061c.048.045.093.1.139.145.023.022.052.051.081.084a.623.623,0,0,0,.042.052l.071.081.051.065a1.4,1.4,0,0,1,.126.161,5.241,5.241,0,0,1,.506.822c.029.051.055.113.084.174.013.032.029.068.045.1l.029.068c.029.074.052.135.074.2.013.038.032.093.048.142l.013.035.01.039a1.344,1.344,0,0,1,.048.158,2.656,2.656,0,0,1,.068.274c.019.087.035.177.051.261l0,.022.174.967-.6-.777c-.093-.123-.193-.236-.3-.358l-.026-.023,0-.006-.006-.006c-.081-.09-.161-.174-.248-.255s-.171-.164-.258-.242c-.023-.019-.045-.039-.071-.058-.084-.071-.168-.136-.249-.2-.026-.016-.055-.039-.08-.058-.078-.055-.161-.113-.255-.174-.138-.09-.264-.168-.387-.232-.074-.042-.151-.081-.229-.116-.1-.048-.187-.093-.284-.132-.081-.036-.158-.068-.236-.1-.061-.026-.123-.045-.187-.068a1.328,1.328,0,0,0-.161-.052h-.068l-.029-.029c-.068-.019-.136-.039-.2-.055s-.148-.038-.223-.055a5.779,5.779,0,0,0-.719-.106l-.219-.02Zm0,2.66.267.029c.12.016.232.029.342.048l.065.01c.132.022.245.048.352.074s.2.051.287.084a1.9,1.9,0,0,1,.219.071c.081.026.164.058.239.091.02.006.048.019.074.029.074.032.149.065.219.1a.358.358,0,0,1,.035.016c.106.048.21.107.313.161s.171.1.248.151a1.923,1.923,0,0,1,.177.116l.071.052c.051.035.106.077.158.116l.042.032.161.132a1.125,1.125,0,0,1,.123.106c.055.048.12.106.181.168.077.081.158.161.236.245.039.042.074.084.109.129.055.058.106.126.164.2s.116.155.168.229a1.738,1.738,0,0,1,.129.2c.052.074.094.145.129.206.052.094.1.184.148.281a3.587,3.587,0,0,1,.168.364l.026.065-.013.071a5.239,5.239,0,0,1-.477,1.384l-.326.645-.126-.713c-.016-.094-.042-.2-.071-.3s-.058-.2-.09-.3-.065-.174-.1-.258a.5.5,0,0,1-.026-.058l-.026-.055c-.019-.039-.038-.081-.058-.119l0,0v0l-.029-.055v-.01a.132.132,0,0,1-.016-.029l-.019-.032c-.013-.019-.023-.038-.032-.054a1.4,1.4,0,0,0-.084-.148c-.048-.074-.09-.142-.136-.206a3.511,3.511,0,0,0-.248-.329c-.055-.064-.116-.129-.177-.193l-.132-.132a4.187,4.187,0,0,0-1.029-.735c-.055-.029-.11-.055-.164-.081l-.165-.071c-.068-.026-.123-.048-.181-.068a4.168,4.168,0,0,0-.913-.216l-.213-.023Zm0,1.816.28.048c.1.016.2.035.313.061.007,0,.019,0,.035.01.087.022.181.045.271.077a2.944,2.944,0,0,1,.29.11c.08.032.168.074.232.106a.2.2,0,0,0,.042.019l.023.013a2.408,2.408,0,0,1,.255.149,3.215,3.215,0,0,1,.493.367,2.027,2.027,0,0,1,.222.207,1.238,1.238,0,0,1,.126.135,1.4,1.4,0,0,1,.094.109,3.936,3.936,0,0,1,.6,1l.023.061c.013.032.022.062.035.094.007.016.016.045.026.074l.006.019c.013.039.029.087.042.142.013.039.023.081.032.123s.023.094.035.142a3.859,3.859,0,0,1,.087.806,3.417,3.417,0,0,1-.023.371l-.01.081-.055.061a5.219,5.219,0,0,1-3.209,1.587l-.267.032Zm0,6.418.219-.019a5.505,5.505,0,0,0,2.406-.793l.887-.542-.555.877a3.867,3.867,0,0,1-2.68,1.754l-.277.042Zm5.237-2.415c0,.068-.006.132-.013.2s-.013.142-.022.223-.023.164-.036.248c-.013.065-.022.132-.038.2-.02.09-.042.184-.065.274-.032.132-.071.258-.106.365s-.081.223-.123.322-.084.2-.129.294c-.058.119-.113.225-.171.329-.048.084-.1.171-.164.267-.039.068-.09.139-.139.21l-.038.055-.01.016-.013.013c-.12.161-.242.31-.368.448-.019.023-.042.045-.065.068a2.823,2.823,0,0,1-.2.206v0l-.019.016c-.061.061-.126.116-.187.168-.022.023-.048.045-.068.061-.071.061-.148.126-.242.194s-.164.12-.251.181a.457.457,0,0,0-.048.029c-.081.052-.161.1-.248.151a.262.262,0,0,0-.029.019c-.106.061-.2.11-.28.148s-.168.084-.287.133l-.007,0-.01,0a.023.023,0,0,1-.016.007,4.286,4.286,0,0,1-.626.219,2.377,2.377,0,0,1-.236.061c-.148.039-.31.068-.432.087-.1.013-.19.026-.28.035l-.267.029v-1.132l.213-.026a4.315,4.315,0,0,0,3.715-3.551l.01-.068.045-.052c.074-.09.148-.18.219-.277a5.014,5.014,0,0,0,.4-.6c.061-.1.116-.21.174-.319l.406-.8.048.893c.006.123.016.251.016.377,0,.09-.007.177-.01.264" transform="translate(-220.281 -214.875)" fill="#fff"/>
      </g>
    </g>
  </g>
</svg>
