<?xml version="1.0" encoding="UTF-8" standalone="no"?>
<!-- Generator: Adobe Illustrator 25.3.1, SVG Export Plug-In . SVG Version: 6.00 Build 0)  -->

<svg
   xmlns:dc="http://purl.org/dc/elements/1.1/"
   xmlns:cc="http://creativecommons.org/ns#"
   xmlns:rdf="http://www.w3.org/1999/02/22-rdf-syntax-ns#"
   xmlns:svg="http://www.w3.org/2000/svg"
   xmlns="http://www.w3.org/2000/svg"
   xmlns:sodipodi="http://sodipodi.sourceforge.net/DTD/sodipodi-0.dtd"
   xmlns:inkscape="http://www.inkscape.org/namespaces/inkscape"
   version="1.1"
   id="Calque_1"
   x="0px"
   y="0px"
   viewBox="0 0 134.53999 154.96451"
   xml:space="preserve"
   sodipodi:docname="bouton-repondre.svg"
   width="134.53999"
   height="154.96451"
   inkscape:version="0.92.5 (2060ec1f9f, 2020-04-08)"><metadata
   id="metadata15"><rdf:RDF><cc:Work
       rdf:about=""><dc:format>image/svg+xml</dc:format><dc:type
         rdf:resource="http://purl.org/dc/dcmitype/StillImage" /><dc:title></dc:title></cc:Work></rdf:RDF></metadata><defs
   id="defs13" /><sodipodi:namedview
   pagecolor="#ffffff"
   bordercolor="#666666"
   borderopacity="1"
   objecttolerance="10"
   gridtolerance="10"
   guidetolerance="10"
   inkscape:pageopacity="0"
   inkscape:pageshadow="2"
   inkscape:window-width="1848"
   inkscape:window-height="1043"
   id="namedview11"
   showgrid="false"
   fit-margin-top="0"
   fit-margin-left="0"
   fit-margin-right="0"
   fit-margin-bottom="0"
   inkscape:zoom="0.21851852"
   inkscape:cx="109.87593"
   inkscape:cy="74.179714"
   inkscape:window-x="72"
   inkscape:window-y="0"
   inkscape:window-maximized="1"
   inkscape:current-layer="Calque_1" />
<style
   type="text/css"
   id="style2">
	.st0{fill:#FDCF1D;}
	.st1{fill:none;stroke:#3280C2;stroke-width:14;stroke-miterlimit:10;}
</style>
<path
   class="st0"
   d="m 134.53,77.184788 c 0,12.45 0,24.900002 0.01,37.350002 0,0.58 -0.12,0.95 -0.66,1.25 -3.2,1.85 -6.38,3.73 -9.56,5.61 -2.79,1.66 -5.57,3.34 -8.36,5 -2.79,1.66 -5.6,3.28 -8.39,4.94 -2.79,1.66 -5.56,3.34 -8.35,5 -2.4,1.43 -4.83,2.82 -7.24,4.25 -2.41,1.42 -4.8,2.87 -7.2,4.3 -2.04,1.21 -4.1,2.4 -6.14,3.61 -2,1.18 -3.99,2.37 -5.99,3.56 -1.32,0.78 -2.62,1.58 -3.95,2.34 -0.41,0.23 -0.85,0.44 -1.3,0.54 -0.48,0.11 -0.89,-0.1 -1.35,-0.39 -1.89,-1.2 -3.86,-2.28 -5.8,-3.4 -2.1,-1.21 -4.21,-2.42 -6.31,-3.64 -2.1,-1.22 -4.2,-2.44 -6.3,-3.66 -2.12,-1.23 -4.24,-2.46 -6.37,-3.69 -2.08,-1.2 -4.16,-2.41 -6.24,-3.61 -2.12,-1.23 -4.24,-2.47 -6.37,-3.7 -2.05,-1.19 -4.11,-2.38 -6.17,-3.57 -2.51,-1.46 -5.02,-2.92 -7.52,-4.38 -2.44,-1.43 -4.87,-2.85 -7.31,-4.29 -2.43,-1.44 -4.86,-2.88 -7.28,-4.34 -0.18,-0.11 -0.27,-0.38 -0.35,-0.6 -0.05,-0.14 -0.01,-0.31 -0.01,-0.47 0,-25.140002 0,-50.280002 -0.02,-75.420002 0,-0.76 0.28,-1.1 0.89,-1.44 2.21,-1.24 4.38,-2.54 6.58,-3.81 2.47,-1.43 4.94,-2.84 7.41,-4.27 2.42,-1.4 4.82,-2.83 7.24,-4.24 2.1,-1.22 4.2,-2.43 6.3,-3.66 2.1,-1.22 4.19,-2.46 6.28,-3.68 2.05,-1.2 4.11,-2.38 6.16,-3.58 2.12,-1.23 4.24,-2.48 6.36,-3.71 2.46,-1.43 4.94,-2.85 7.4,-4.28 2.03,-1.18 4.06,-2.36 6.09,-3.54 1.71,-1 3.41,-2.01 5.12,-3.00000004 0.39,-0.22 0.79,-0.47 1.22,-0.54 0.52,-0.09 0.98,0.07 1.51,0.4 2.3,1.45000004 4.68,2.76000004 7.03,4.13000004 2.46,1.44 4.91,2.89 7.37,4.33 2.42,1.41 4.84,2.81 7.26,4.21 2.51,1.46 5.01,2.93 7.52,4.39 2.44,1.42 4.89,2.83 7.33,4.26 2.1,1.22 4.19,2.46 6.29,3.68 2.05,1.2 4.11,2.39 6.16,3.58 2.12,1.24 4.23,2.48 6.35,3.71 2.03,1.18 4.06,2.36 6.09,3.54 1.32,0.77 2.64,1.55 3.98,2.29 0.46,0.25 0.59,0.55 0.58,1.06 -0.02,4.74 -0.01,9.48 -0.01,14.22 v 23.36 z m -17.37,0.45 v -24.56 c 0,-0.37 0.06,-0.76 -0.02,-1.11 -0.07,-0.29 -0.26,-0.65 -0.51,-0.8 -1.69,-0.98 -3.41,-1.9 -5.11,-2.86 -3.72,-2.1 -7.43,-4.23 -11.15,-6.33 -3.72,-2.1 -7.47,-4.16 -11.19,-6.25 -3.72,-2.1 -7.43,-4.23 -11.15,-6.33 -3.4,-1.92 -6.81,-3.82 -10.23,-5.71 -0.24,-0.13 -0.65,-0.19 -0.86,-0.07 -1.6,0.87 -3.17,1.8 -4.75,2.7 -1.74,0.99 -3.49,1.98 -5.23,2.97 -1.72,0.98 -3.44,1.95 -5.16,2.93 -2.13,1.22 -4.26,2.44 -6.39,3.66 -2.15,1.23 -4.31,2.45 -6.47,3.68 -2.11,1.2 -4.22,2.41 -6.33,3.61 -2.52,1.44 -5.05,2.87 -7.57,4.3 -2.13,1.21 -4.25,2.45 -6.4,3.63 -0.7,0.38 -1.04,0.85 -0.95,1.64 0.04,0.39 0.02,0.79 0.02,1.19 -0.01,16.18 -0.02,32.37 0,48.550002 0,0.42 0.33,1.01 0.68,1.22 2.3,1.39 4.66,2.7 7,4.03 2.91,1.65 5.84,3.29 8.75,4.95 2.52,1.44 5.03,2.9 7.55,4.34 2.52,1.43 5.06,2.84 7.58,4.27 2.89,1.65 5.76,3.32 8.64,4.97 2.96,1.69 5.92,3.36 8.89,5.01 0.24,0.13 0.6,0.16 0.86,0.09 0.37,-0.11 0.7,-0.35 1.05,-0.55 4.11,-2.33 8.21,-4.67 12.33,-6.98 4.12,-2.31 8.26,-4.59 12.38,-6.89 3.94,-2.2 7.88,-4.4 11.81,-6.62 3.75,-2.11 7.48,-4.25 11.23,-6.34 0.52,-0.29 0.71,-0.59 0.7,-1.17 -0.01,-8.380002 0,-16.780002 0,-25.170002"
   id="path4"
   inkscape:connector-curvature="0"
   style="fill:#fdcf1d" />
<polyline
   class="st1"
   points="147.43,517.68 147.43,544.34 197.28,544.34 "
   id="polyline6"
   style="fill:none;stroke:#3280c2;stroke-width:14;stroke-miterlimit:10"
   transform="translate(-106.48,-459.21521)" />
<polyline
   class="st1"
   points="183.83,523.8 204.37,544.34 183.83,564.88 "
   id="polyline8"
   style="fill:none;stroke:#3280c2;stroke-width:14;stroke-miterlimit:10"
   transform="translate(-106.48,-459.21521)" />
</svg>