<?xml version="1.0" encoding="UTF-8"?>
<svg id="Calque_2" data-name="Calque 2" xmlns="http://www.w3.org/2000/svg" viewBox="0 0 253.88 76.07">
  <defs>
    <style>
      .cls-1 {
        fill: #dc4d39;
        stroke-width: 0px;
      }
    </style>
  </defs>
  <g id="Layer_1" data-name="Layer 1">
    <path class="cls-1" d="m253.26,41.32l-.7-.37c.03-.39.08-1.15.36-1.01-.48-1.43-.3.24-.75-.59.63-1.85-.3-5.11.81-5.53-.53-.67-.41,1.77-.78-.21,1.19-.56-.2-2.29.34-3.98.62.52.29,2.12.84.43-1.04-1.02.23-3.3.03-4.73-.83-.07-.35-3.11-.62-5.5.28.15.45-4.51.75-6.74l.14.07c-.84-.43-.68-2.73-.85-4.41.5.07.7.37.92,1.27v-1.57c-.27-.37-.41-.86-.51-1.88l.63.4-.02-.48-.04-.57c-.04-.47-.07-.93-.11-1.41-.08-.93-.18-1.83-.24-2.76-1.49.06-2.91.07-4.54-.08-.13.26.61.61.72.95.04.12.02.23-.08.34h-1.66c.05-.17.23-.33.7-.39-.32.04-1.01.23-1.58.11l1.3-.47c-1.4-.2-.73.39-1.85.35.02-.4-.83-.28-.67-.6.29-.04.98.16,1.4,0-1.26-.07-2.79-.31-3.29-.6.11.22,0,.53-.92.58-2.39.03-.82-.47-2.21-.68-.58.27-2.1,0-2.14.58-.7,0-.83-.28-1.1-.44-1.24.26-5.77.07-4.38.7l.32.04c-.06,0-.13.02-.2.03-4.05.59-8.42-.33-12.44-.08v-.2c-2.39.23-5.34.13-7.05.56-.71,0-1.68-.36-1.37-.6-1.83.15-2.04.37-4.69.04,1.84-.34-.64-.31,1.89-.25-2.38-.17-2.92-.49-5.48.05.87-.51-1.79-.64-2.93-.49l1.67.36c-1.27.07-2.39.03-3.52-.01l.61-.67c-4.88-.81-8.8,1.38-12.51.02-1.29.47,2.65.33,1.5.87-2.24-.09-4.58-1.04-5.28-1.05-3.07-.37-2.87.97-6.08.72.41.24.8.87-1.6,1.09-2.25-.09-2.76-1-1.34-1.19.54-.02.8.06.78.14.73-.09,1.68-.19.79-.45l-.29.24c-1.11-.24-4.2-.22-3.48-.61-1.7.23-.73.39.53.51-2.88-.34-4.5-.01-7.46-.24.47.13.91.41.44.41-4.35-.29-1.91.45-4.86.55-1.67-.36.6-.86-2.37-.56-1.81-.24-.38-.63.34-.82-2.7.46-5.05-.3-6.59-.38l1.42-.19c-.85.11-1.55.11-2.26.11l.81.47c-.84-.08-1.54-.08-1.53-.28-.86.31.66.79-1.05,1.21-1.11-.24-3.39.26-3.78-.37,3.5.21-.39-.63,2.58-.73-.57.08-1.27.07-2.11-.01-.13-.07.12-.13.35-.17-3.35-.56-1.54.71-5.02.7.44-.35-.81-.67-1.37-.6,1.4,0,.67.59-.61.86-2.23-.28-2.42.21-3.59.17l1.33.13c-.45.35-1.57.31-3.12.42-.13-.28,1.41-.19.86-.31-1.72.62-3.9-.65-6.3-.23-1.11-.24-.11-.67-1.09-.83-2.7.46-2.92-.49-5.75-.11.82.48.96.36-1.04.83l4.66-.34-2.99.69c1.41,0,2.97-.3,3.81-.22-1.42.39-1.28.27-.6.67-1.92-.72-3.81.42-6.04-.07l.07-1.18c-3.34-.53-5.94.61-10.28.31l1.39.21c-.58.47-2.68.07-4.08.26.13-.4-.75-.54-1.35-.78.07.29-3.18-.03-3.57.76l-1.94-.52c-3.5-.21-4,1.12-7.37.99,1.01-.43-.52-.71,1.74-1.02-1.12,0-2.14-.08-2.15.2-.66-.25-3.12.53-4.15.16-.47.17-.63.59-1.89.55-.09-.05-.06-.11-.03-.15-.26.17-1.86.26-.84.66-3.46-1.23-9.68.09-12.7-.97-2.45.13-5.41.26-7.64.29.14-.12,0-.2.43-.16-3.07-.37-1.89,1.13-5.39.72-1.79-.64,1.86-.35.74-.59-.48-1.3-4.22.18-6.58-.58l.57-.08c-1.8-.44-4.39.49-7.33.4,0,0,.14-.11.02-.2-2.01.66-5.82.88-8.64,1.07.88-.51,1.28-.27.75-.79-1.27.07.37.83-2.16.97-.82-.28-2.65-.52-2.89-1.07l2.39-.03c-1.22-.71-3.09.02-4.35-.1l.16-.31c-3.66.1-3.71.89-7.64.83l.41.24c-2.15.78-1.8-.44-3.94.14l-.65-.79c-1.42.19-4.97.76-7.51.91,1.44-.59,4.41-.88,6.26-1.23-1.41,0-4.78.06-5.51.45.57-.08,1.28-.27,1.84-.15-1.72.62-3.99.93-6.79.91.16-.5-.56-.71-1.68-.82-.15-.01-.31-.02-.47-.03-.22,0-.45-.02-.69-.03-.48-.01-.98-.02-1.49-.03-1.05-.02-2.15-.04-3.22-.06-.07,1.91-.22,3.67-.69,4.7.65,4.45-.28,8.65-.17,13.73,1.36-1.8.04,1.48,1.43,1.17.09,1.17.07,1.62-.02,1.73l.06-.25c-.03.11-.04.17-.07.26h0l-.83,3.57c-.41.85-.31-1.12-.62-1.01-.11,2.58-.59,1.08-.96,2.79.5-.35.71.9.52,2.37l.64-2.07c.74,3.61-1.17,3.12-.44,6.75l-.44-1.15c.26,1.87,0,6.88,1.11,8.71-.16.33-.54.77-.64-.06-.17,4.46,1.19,9.93.5,13.39l-.34-.34c.1.83.64,1.45.3,2.49-.14-.05-.34-.34-.36.05.12.44.6,2.21.4,3.31l-.38-.94c-.22,2.17.01,3.84.33,5.42.17.79.33,1.56.5,2.36.08.4.15.81.21,1.23.03.17.06.54.08.84.02.31.04.63.06.96-.54.12-.88,1.79-1.11,4.06,1.82.18,4.24.27,5.91.34l-.14.12c.47,0,.93,0,1.38,0,.35,0,.69,0,1.03-.01.67-.01,1.33-.04,1.96-.07,1.27-.07,2.49-.17,3.69-.29,2.4-.24,4.74-.54,7.42-.71,3.32.96,11.24.4,16.58.94-.82-.16.13-.69,1.08-.77,1.25.18,3.46-.61,3.26.2l-.45-.02c.94.79,3.52.58,5.53.6l.33-1.06c5.25,1.54,13.77-.56,16.64.81,1.27-.26,2.84-.26,4.1-.53l-.07.57c3.51.14,5.27.22,9.61.08l-.89.4c2.45.04,3.09-1.63,5.35-1.67l.68.85c4.27-.01,8.6.73,12.82-.04-.07.12-.2.37-.89.4,2.01.02,7.78.57,7.05-.59.05.76,4.41.07,6.72-.26l-.36.56c1.95-.71,2.01-.91,4.73-1.1.64.07.56.45-.29.3,2.15.29,1.67-.53,4.28-.23l-.97.36c2.21.04,2.03-.15,3.25-.56,1.39-.22,4.19.14,4.52.64.3-.31,1.51-.72,2.81-.57.18.19-.3.31-.54.37,3.7.38,5.5-.65,8.04-.1.05.18.22.28.43.33-2.94-.01-5.3-.04-5.08-.08,0,.51,2.37.6.48,1.31,1.9-.39,5.16-1.23,7.47-.99.11.05.22.1.31.18l-.24.06c.53.05,1.01,0,1.46-.08.74.08,1.21.15,1.91.15.27.42,2.72.23,3.9.25-.1-.56,1.45-.47,0-.94.19.04-.22.07-1.01.09-.18.02-.39.03-.5.06.02-.01.05-.03.08-.05-.78,0-1.79.02-2.94.04.93-.29,1.91-.53,3.22-.21.61-.36,1.27-.73,1.65-.91,1.62.78,4.74,1.21,5.17,1.69,3.61-.32,8.51-.21,10.78-1.26,1.03-.14,1.18.3,1.56.47-.59.11-1.3.09-1.62.24,2.05-.27,6.08-.11,6.57-.84,2.59.33-1.45.68,2.1.56l-.48.23c6.99,1.18,11.37-1.88,19.12-.37-.54-.09-.81-.14-.92-.26,8.84.67,18.22-.63,26.94.43,2.48.21,2.75-.26,4.26-.62l.54.6,2.59-.7c3.67-.51,6.35,1.48,11,.52l-.6-.41c1.67.08,5.28-.24,5.01.23.17-.07.55-.42,1.2-.21l.05.32,4.1-.54c3.18.23-.5,1.25,4.14,1.32,1.72-.12,4.91-.92,4.26-1.13-.7-.02-1.78-.2-1.83-.51l1.58-.16c.02-.06.04-.12.06-.18h.25v-.58c.1-.25.14-.5,0-.74v-15.02l.18.17-.18-.49v-2.11c.14.06.25.26.31.68.47-1.53-.34-1.36.19-2.68.08-.15.13-.08.16.06l-.28-1.5c.2.29.67-.25.53.67.55-2.69-.71-4.34,0-5.35l.06.22c-.24-2.79-.51-1.61-.97-2.01v-1.75l1.18-1.29Zm-109.71,33.91s.07-.04.09-.07c-.07.11-.16.21-.31.28-.79.08-1.05-.03-1.16-.15.37,0,.81-.03,1.38-.07Zm108.63-23.56c-.03.09-.07.15-.1.2v-.89c.04.22.07.44.1.69Z"/>
  </g>
</svg>