<svg id="Groupe_7" data-name="Groupe 7" xmlns="http://www.w3.org/2000/svg" xmlns:xlink="http://www.w3.org/1999/xlink" width="1947.026" height="140.001" viewBox="0 0 1947.026 140.001">
  <defs>
    <clipPath id="clip-path">
      <rect id="Rectangle_3" data-name="Rectangle 3" width="1947.026" height="140.001" fill="none"/>
    </clipPath>
  </defs>
  <g id="Groupe_6" data-name="Groupe 6" clip-path="url(#clip-path)">
    <path id="Tracé_164" data-name="Tracé 164" d="M1947.023,41.081c-23.32,3.934-56.148,4.64-75.362,2.581-18.37-1.968-44.062-8-64.706-12.839-9.837-2.308-18.337-4.3-24.942-5.621-.955-.245-97.062-24.484-211.623-25.195-.771,0-1.538-.007-2.316-.007-46.426,0-111.11,8.451-182.59,19.339-43.773-2.878-85.053-3.185-118.778.818-66.432,7.884-115.031,7.17-162.027,6.489-72.373-1.056-140.744-2.051-262.54,29.495-35.653,9.236-78.4,17.664-125.117,25.275C598.278,84.063,464.947,83.041,331.393,73.4,248.541,67.419,175.7,63.325,111.378,61.084l-1.028,1.751c64.308,2.242,138.158,5.306,220.993,11.285,93.537,6.751,186.949,9.275,275.338,9.275,36.012,0,71.176-.422,105.181-1.147q-9.252,1.483-18.688,2.934c-47.837.944-86.72,1.434-98.452,1.169C557.646,85.531,341.537,79.8,293.974,77c-29.391-1.729-112.98-4.765-183.624-7.882l1.028-.309c70.629,3.117,153.169,7.182,182.554,8.91,47.571,2.8,263.7,8.533,300.773,9.354,2.108.045,5.087.067,8.841.067,16.352,0,47.333-.427,84.215-1.135C486.228,116.419,226.28,132.581,134.215,133.84c-7.045.1-126.057,2.646-134.215,3l111.378-1.589c8.162-.351,15.8-.593,22.846-.689,47.844-.652,172.127-6.515,318.417-19.966,71.306-6.56,159.207-16.044,241.543-28.72,10.755-.207,21.946-.443,33.384-.7C715.2,87.627,706.36,89.263,702.6,89.713c-24.486,2.94-193.426,21.749-210.1,23.5-15.977,1.681-138.845,13.418-171.224,14.869-11.494.517-38.007,1.753-68.707,3.181-53.747,2.507-120.635,5.627-129.878,5.936-1.706.057-5.657.284-11.316.644L6.33,140c5.674-.359,114.683-2.024,116.389-2.08,9.247-.309,76.137-3.429,129.887-5.936,30.7-1.428,57.211-2.665,68.7-3.182,32.393-1.45,155.289-13.187,171.269-14.868,16.671-1.76,185.619-20.568,210.105-23.508,4.169-.5,14.542-2.445,29.028-5.346,76.465-1.726,162.433-4.272,197.6-6.644,66.956-4.514,152.255-10.844,178.455-13.676,1.549-.165,155.92-16.973,251.87-37.42,6.262-1.335,12.755-2.575,19.39-3.747,55.561,5.2,136.816,14.441,163.489,17.9,34.071,4.424,131.589,23.578,163.63,29.873l6.633,1.3c21.515,4.21,85.4,20.961,87.7,21.563,4.761,3.2,60.305,18.764,114.41,3.373,13.044-3.71,23.561-7.212,32.128-10.461m0-41.96c-.835.182-1.712.383-2.65.6-10.459,2.378-26.255,5.967-51.6,3.151-33.261-3.7-82.329-11.684-111.5-20.5C1779.979,28.2,1653.657,5.028,1615.9,5.028c-.562,0-1.107.006-1.63.016l-2.785.055c-35.58.7-134.02,2.649-215.413,14.979q-3.647-.27-7.271-.517C1458.979,8.911,1522.39.72,1568.074.72c.773,0,1.545,0,2.31.007,114.469.711,210.494,24.927,211.472,25.177,6.611,1.321,15.1,3.311,24.936,5.622,20.664,4.845,46.378,10.877,64.794,12.85,19.669,2.1,52.151,1.457,75.434-2.5M842.319,56.838c121.7-31.521,190.021-30.517,262.349-29.472,47.03.686,95.648,1.391,162.123-6.493,32.856-3.9,72.9-3.715,115.429-1.037q-6.745,1.033-13.561,2.089c-17.617-1.574-31.693-2.614-39.068-2.729-12.237-.2-37.387,2.324-66.519,5.236-44.771,4.474-95.519,9.539-121.49,7.234-43.2-3.834-139.022-.494-159.8,1.439-10.613.99-78.214,15.257-143.588,29.051-32.128,6.781-63.35,13.369-87.916,18.417q-13.554.387-27.4.708c43.3-7.2,84.264-15.333,119.438-24.443M1365.7,22.383c-16.981,2.639-34.272,5.377-51.741,8.148-89.406,14.174-181.856,28.831-260.217,34.233-68.978,4.757-174.769,12.054-299.3,15.685,23.914-4.93,53.5-11.17,83.9-17.59C903.7,49.07,971.278,34.809,981.85,33.825c20.761-1.934,116.511-5.276,159.668-1.439,26.035,2.305,76.823-2.763,121.624-7.241,29.113-2.908,54.285-5.444,66.438-5.23,6.959.11,19.886,1.04,36.122,2.468m-634.1,61.984c-10.964.247-21.727.478-32.121.691q9.248-1.449,18.385-2.945,14.325-.321,28.363-.708-7.863,1.609-14.627,2.962m627.885-57.729c-95.916,20.442-250.248,37.241-251.8,37.407C1081.5,66.879,996.217,73.2,929.267,77.717c-34.548,2.333-118.127,4.835-193.547,6.56q6.839-1.383,14.671-2.99c126.3-3.6,233.674-11,303.4-15.8,78.394-5.408,170.858-20.068,260.279-34.242,18.452-2.926,36.71-5.821,54.613-8.6q3.71.333,7.617.694c-5.742,1.037-11.36,2.136-16.813,3.3m19.514-3.769q-3.765-.354-7.366-.677,6.981-1.084,13.887-2.134c2.453.163,4.9.321,7.375.5q-7.057,1.095-13.9,2.31m568.018,63.6c-8.454,3.182-18.975,6.65-32.325,10.447-56.367,16.038-111.414-1.562-113.856-3.305l-.115-.056c-.658-.169-65.983-17.319-87.807-21.592l-6.631-1.3c-32.049-6.3-129.581-25.457-163.68-29.884-26.254-3.412-105.4-12.417-160.886-17.656q7.083-1.223,14.385-2.328c67.1,4.992,139.047,15.616,198.076,25.85,109.41,18.966,199.235,40.674,200.1,40.882,21.195,6.92,53.115,15.644,85.541,11.529,28.8-3.659,48.36-6.7,67.194-16.361m0-.809c-18.834,9.741-38.4,12.785-67.289,16.456-32.272,4.1-64.1-4.6-85.253-11.507-.893-.213-90.738-21.929-200.17-40.9C1536.179,35.865,1465.53,25.41,1399.3,20.323c80.721-11.9,177.087-13.812,212.2-14.505l2.785-.054c35.555-.751,165.55,23.136,166.82,23.367,29.18,8.825,78.3,16.824,111.593,20.52,25.456,2.836,41.331-.778,51.834-3.161.882-.2,1.709-.39,2.5-.564" fill="#00b1dc"/>
  </g>
</svg>
