<svg xmlns="http://www.w3.org/2000/svg" xmlns:xlink="http://www.w3.org/1999/xlink" width="232" height="232" viewBox="0 0 232 232">
  <defs>
    <clipPath id="clip-path">
      <circle id="Ellipse_25" data-name="Ellipse 25" cx="116" cy="116" r="116" transform="translate(2288 -808)" fill="#fff"/>
    </clipPath>
    <clipPath id="clip-path-2">
      <rect id="Rectangle_795" data-name="Rectangle 795" width="350.366" height="259.596" fill="none"/>
    </clipPath>
    <clipPath id="clip-path-4">
      <rect id="Rectangle_791" data-name="Rectangle 791" width="25.869" height="46.988" fill="none"/>
    </clipPath>
    <clipPath id="clip-path-5">
      <rect id="Rectangle_792" data-name="Rectangle 792" width="13.6" height="30.963" fill="none"/>
    </clipPath>
    <clipPath id="clip-path-6">
      <path id="Tracé_3206" data-name="Tracé 3206" d="M53.66,43.936C44.642,45.5,7.341,64.043,4.768,71.132s14.95,9.109,26.249,7.706S59.723,75.565,62.2,72s9.326-15.969,9.326-15.969C69.85,49.283,64.107,43.69,56.473,43.69a16.259,16.259,0,0,0-2.813.246" transform="translate(-4.514 -43.69)" fill="none"/>
    </clipPath>
    <clipPath id="clip-path-8">
      <path id="Tracé_3213" data-name="Tracé 3213" d="M45.864,6.3c-6.228,9.526-6.1,21.608-6.1,21.608L44.5,32.439l-5.419,1.224s-3.259,21.4-.792,32.508S52.336,96.946,63.051,84.1c6.012-7.2,3.186-52.91-1.044-64.278C58.873,11.4,54.934,2.8,50.569,2.8c-1.523,0-3.1,1.046-4.7,3.51" transform="translate(-37.363 -2.795)" fill="none"/>
    </clipPath>
    <clipPath id="clip-path-9">
      <path id="Tracé_3218" data-name="Tracé 3218" d="M71.972,29.392C69.8,40.654,57,53.389,56.007,62.779s4.439,14.234,7.547,19.649c2.51,4.375,2.683,4.637,6.193-1.077S91,37.342,83.82,19.825c-2.307-5.632-4.13-7.818-5.615-7.818-3.135,0-4.761,9.743-6.233,17.385" transform="translate(-55.887 -12.007)" fill="none"/>
    </clipPath>
  </defs>
  <g id="Groupe_de_masques_4" data-name="Groupe de masques 4" transform="translate(-2288 808)" clip-path="url(#clip-path)">
    <g id="Groupe_478" data-name="Groupe 478" transform="translate(2214.644 -816.989)">
      <g id="Groupe_443" data-name="Groupe 443" clip-path="url(#clip-path-2)">
        <path id="Tracé_3133" data-name="Tracé 3133" d="M101.642,0,20.171,92.611,39.154,236.86l243.327,17.193L331.4,109.119,273.235,8.976Z" transform="translate(18.962 0)" fill="#ed8349"/>
        <path id="Tracé_3134" data-name="Tracé 3134" d="M23.76,96.034l7.514,75.247,251.052,16.405,34.8-111.193Z" transform="translate(22.336 71.91)" fill="#f4c8b2"/>
        <g id="Groupe_434" data-name="Groupe 434">
          <g id="Groupe_433" data-name="Groupe 433" clip-path="url(#clip-path-2)">
            <path id="Tracé_3135" data-name="Tracé 3135" d="M146.155,31.814S155.549,63.181,155.3,87.2" transform="translate(137.396 29.907)" fill="none" stroke="#0d292f" stroke-width="1"/>
            <line id="Ligne_54" data-name="Ligne 54" x1="2.456" y2="63.846" transform="translate(292.705 52.034)" fill="none" stroke="#0d292f" stroke-width="1"/>
            <path id="Tracé_3136" data-name="Tracé 3136" d="M158.418,34.091s-5.527,17.146-5.527,31.606V88.361" transform="translate(143.728 32.048)" fill="none" stroke="#0d292f" stroke-width="1"/>
            <path id="Tracé_3137" data-name="Tracé 3137" d="M171.178,33.71s-8.465,2.249-12.455,21.1A265.86,265.86,0,0,0,153.8,85.415" transform="translate(144.581 31.69)" fill="none" stroke="#2f8f59" stroke-width="0.5"/>
            <path id="Tracé_3138" data-name="Tracé 3138" d="M168.636,24.288c-5.007-4.689-9.954-2.528-9.954-2.528s-5.112-8.4-11.669-2.254c-10,9.367-11.8,16.267-11.8,16.267a66.9,66.9,0,0,1,7.72-8.249c-5.725,9.772-7.65,13.144-8.932,17.208s-.343,6.107-.343,6.107S138.7,38.455,141.3,35.5s3.894-4.743,3.894-4.743a72.247,72.247,0,0,0-9.949,22.9,8.6,8.6,0,0,0,.72,6.73s2.055-8.309,4.109-12.764c1.795-3.894,8.185-13.891,8.185-13.891s-8.915,20.324-9.533,23.056.918,7.475.918,7.475.446-4.972,2.551-8.292,8.34-19.226,8.34-19.226-5.88,17.086-6.451,19.542-2.545,7.685-2.545,7.685,4.811-5.591,6.257-8.629,5.9-16.908,5.9-16.908-1.907,13.9-3.508,16.525a32.5,32.5,0,0,0-2.588,5.471s5.876-5.572,7.753-10.505a106.741,106.741,0,0,0,3.133-11.652s.394,8.459-.89,10.857,3.4-.716,4.747-6.546a39.684,39.684,0,0,0,1.22-9.407s3.244,6.59.923,10.2c4.317-5.952,2.415-12.931,2.415-12.931s2.126,4.482,1.634,7.456c3.795-5.554,2.972-10.923.093-13.619" transform="translate(125.336 16.224)" fill="#0d292f"/>
            <path id="Tracé_3139" data-name="Tracé 3139" d="M168.9,30.366c-6.773-.9-9.652,2.239-9.652,2.239s-8.94-3.061-10.917,3.044c-3.013,9.308-.621,14.073-.621,14.073a33.69,33.69,0,0,1,1.752-7.789c.753,7.945,1.053,10.665,2.274,13.557a7.1,7.1,0,0,0,3.147,3.75S152.1,50,152.592,47.272A36.006,36.006,0,0,0,153.148,43s-.334,7.735,4.633,17.315a7.865,7.865,0,0,0,4.373,3.719s-2.964-5.7-3.768-9.109c-.7-2.984-1.03-11.311-1.03-11.311s4.039,15.4,5.062,17.249,4.955,4.088,4.955,4.088-2.423-3.116-2.547-5.873-3.9-14.531-3.9-14.531,4.73,12.337,5.636,14.009a50.173,50.173,0,0,1,2.21,5.512s.84-5.122.33-7.467-4.61-12.24-4.61-12.24,6.228,8.959,6.377,11.115a16.844,16.844,0,0,0,.931,4.216s1.731-5.51.512-9.138a63.447,63.447,0,0,0-3.95-8.086s5.073,4.868,5.359,6.771,2.406-1.7.25-5.663a27.348,27.348,0,0,0-4.272-6.036s6.381,2.689,6.493,5.7c.227-5.149-5.263-8.573-5.263-8.573s4.274,1.859,5.537,3.806c.021-4.716-3.673-7.591-7.568-8.109" transform="translate(138.013 28.393)" fill="#0d292f"/>
            <path id="Tracé_3140" data-name="Tracé 3140" d="M155.088,15.855c5.958-3.4,10.271-.147,10.271-.147s6.918-6.982,11.873.512c7.557,11.435,7.7,18.563,7.7,18.563a67.014,67.014,0,0,0-5.6-9.817c3.3,10.835,4.39,14.56,4.695,18.813s-1.083,6.02-1.083,6.02-2.035-13.218-3.876-16.7-2.687-5.518-2.687-5.518a72.248,72.248,0,0,1,4.363,24.588,8.594,8.594,0,0,1-2.264,6.377s-.07-8.558-1.034-13.367c-.842-4.206-4.738-15.412-4.738-15.412s3.954,21.839,3.923,24.639-2.629,7.058-2.629,7.058.72-4.941-.555-8.657S169.8,32.171,169.8,32.171s1.756,17.984,1.74,20.507.693,8.067.693,8.067-3.382-6.557-4.084-9.848-1.82-17.818-1.82-17.818-1.37,13.967-.421,16.89a32.377,32.377,0,0,1,1.247,5.921s-4.423-6.782-5.1-12.015a106.964,106.964,0,0,1-.345-12.061s-2.346,8.135-1.651,10.765-3.137-1.484-3.1-7.469a39.635,39.635,0,0,1,1-9.433s-4.685,5.657-3.267,9.712c-2.817-6.79.652-13.138.652-13.138s-3.108,3.865-3.321,6.872c-2.4-6.282-.355-11.313,3.071-13.268" transform="translate(141.925 11.987)" fill="#0d292f"/>
            <path id="Tracé_3141" data-name="Tracé 3141" d="M151.75,24.274c6.788.854,8.614,5.124,8.614,5.124s9.522-.951,9.588,6.361c.1,11.152-3.632,15.782-3.632,15.782a44.021,44.021,0,0,0,.656-9.12c-3.112,8.608-4.22,11.543-6.264,14.417s-4.154,3.3-4.154,3.3,5.452-9.487,5.8-12.649a47.918,47.918,0,0,1,.749-4.893s-2,8.672-9.662,17.942a7.983,7.983,0,0,1-5.325,2.929s4.565-5.51,6.363-9.076c1.571-3.118,4.39-12.263,4.39-12.263s-8.515,15.976-10.053,17.75-6,3.18-6,3.18,3.269-2.794,4.216-5.818,8.117-15.055,8.117-15.055-8.259,12.393-9.634,14a62.332,62.332,0,0,0-3.783,5.51s.733-5.911,1.928-8.373S151.783,41,151.783,41s-8.686,8.238-9.477,10.587a21.727,21.727,0,0,1-2.163,4.421s-.01-6.585,2.254-10.277a76.735,76.735,0,0,1,6.23-7.89s-6.344,4.012-7.19,6.047-1.8-2.543,1.463-6.352a31.09,31.09,0,0,1,5.923-5.527s-6.949,1.238-7.962,4.551c1.329-5.774,7.64-8.071,7.64-8.071s-4.67.892-6.47,2.708a8.869,8.869,0,0,1,9.72-6.926" transform="translate(131.744 22.756)" fill="#0d292f"/>
            <path id="Tracé_3142" data-name="Tracé 3142" d="M150.62,20.908c5.06-1.8,7.933,1.3,7.933,1.3s6.294-4.423,9.078,2.033c4.243,9.852,3.37,15.363,3.37,15.363a52.492,52.492,0,0,0-2.955-8.335c1.048,8.8,1.374,11.823,1.022,15.14S167.4,50.9,167.4,50.9s.256-10.465-.683-13.4-1.308-4.621-1.308-4.621a56.576,56.576,0,0,1-.031,19.544,6.723,6.723,0,0,1-2.623,4.6A73.922,73.922,0,0,0,163.8,46.585c-.07-3.356-1.525-12.527-1.525-12.527s.035,17.371-.376,19.523-3,5.075-3,5.075a17.092,17.092,0,0,0,.766-6.746c-.469-3.038.033-16.4.033-16.4s-1.127,14.1-1.488,16.039-.578,6.309-.578,6.309-1.7-5.518-1.789-8.148S156.9,35.728,156.9,35.728,153.922,46.3,154.25,48.682a25.322,25.322,0,0,1,.144,4.734s-2.472-5.836-2.274-9.96a83.647,83.647,0,0,1,1.4-9.339s-2.93,5.944-2.757,8.067S148.55,40.605,149.4,36a31.119,31.119,0,0,1,2.068-7.13s-4.388,3.711-3.857,7.033a12.893,12.893,0,0,1,2.314-10.032S147,28.42,146.424,30.705c-.984-5.17,1.286-8.763,4.2-9.8" transform="translate(137.429 19.127)" fill="#2f8f59"/>
            <path id="Tracé_3143" data-name="Tracé 3143" d="M162.074,33.666a5.114,5.114,0,0,1,5.475.9s4.344-3.054,6.263,1.4c2.929,6.8,2.328,10.6,2.328,10.6a36.161,36.161,0,0,0-2.041-5.752c.724,6.076.949,8.16.706,10.449a4.933,4.933,0,0,1-1.15,3.1s.179-7.221-.469-9.246-.9-3.189-.9-3.189a39,39,0,0,1-.021,13.487,4.634,4.634,0,0,1-1.81,3.174,50.81,50.81,0,0,0,.724-7.2c-.049-2.316-1.053-8.645-1.053-8.645s.025,11.986-.26,13.472a10.175,10.175,0,0,1-2.068,3.5,11.8,11.8,0,0,0,.528-4.656c-.324-2.1.023-11.32.023-11.32s-.778,9.727-1.026,11.068-.4,4.354-.4,4.354a31.673,31.673,0,0,1-1.234-5.622c-.06-1.818.729-9.646.729-9.646s-2.058,7.295-1.833,8.94a17.439,17.439,0,0,1,.1,3.265s-1.705-4.028-1.568-6.874a57.589,57.589,0,0,1,.964-6.445s-2.022,4.1-1.9,5.566-1.525-1.086-.935-4.266a21.491,21.491,0,0,1,1.426-4.92s-3.028,2.563-2.662,4.852a8.9,8.9,0,0,1,1.6-6.922,8.8,8.8,0,0,0-2.419,3.337c-.679-3.568.887-6.047,2.895-6.761" transform="translate(149.488 31.285)" fill="#2f8f59"/>
            <path id="Tracé_3144" data-name="Tracé 3144" d="M160.878,17.023s-.468-2.425-6.8-3.318-7.233.784-7.233.784l7.219.4s-6.7.6-9.1,1.17a12.321,12.321,0,0,0-4.251,2.023s10.663-1.461,11.7-1.061S141.895,19.5,140.38,19.518s4.464,2.431,11.976-.087a11.416,11.416,0,0,1-8.724,2.864s5.615,1.818,8.946-.043c-3,2.316-4.839,2.388-4.839,2.388a31.9,31.9,0,0,0,9.2-.58c3.694-1.527,3.835-3.475,4.126-4.854a3.207,3.207,0,0,0-.182-2.183" transform="translate(131.744 12.637)" fill="#2f8f59"/>
            <path id="Tracé_3145" data-name="Tracé 3145" d="M156.595,33.908s3.174.665,7.469-6.552,2.72-9.153,2.72-9.153l-4.154,8.534s2.675-8.414,3.2-11.607a16.155,16.155,0,0,0-.293-6.171s-3.641,13.648-4.652,14.706,2.347-13.994,3.089-15.839S158.768,12,158,22.368a14.981,14.981,0,0,1,.962-12.015s-5.052,5.873-4.487,10.851c-1.286-4.8-.438-7.072-.438-7.072a41.887,41.887,0,0,0-3.962,11.431c-.027,5.244,2.26,6.406,3.781,7.46a4.223,4.223,0,0,0,2.736.885" transform="translate(141.083 7.045)" fill="#5daf7f"/>
            <path id="Tracé_3146" data-name="Tracé 3146" d="M175.748,81.535c-.1,1.086-.233,2.25-.388,3.492-1.63,12.416-6.305,31.06-6.305,31.06h-24.27s-2.192-30.381-2.445-37.734c-.233-7.353,9.739-10.418,9.739-10.418L149.635,56.3h23.339l-3.415,10.612a8.3,8.3,0,0,1,2.968,2.192c1.862,2.056,3.8,5.82,3.221,12.436" transform="translate(133.805 52.921)" fill="#b8e1f3"/>
            <g id="Groupe_429" data-name="Groupe 429" transform="translate(283.789 122.021)" opacity="0.58">
              <g id="Groupe_428" data-name="Groupe 428">
                <g id="Groupe_427" data-name="Groupe 427" clip-path="url(#clip-path-4)">
                  <path id="Tracé_3147" data-name="Tracé 3147" d="M146.278,109.883,168.822,62.9c1.863,2.056,3.8,5.82,3.22,12.436-.1,1.086-.233,2.25-.388,3.492l-15.4,31.06Z" transform="translate(-146.278 -62.896)" fill="#fff"/>
                </g>
              </g>
            </g>
            <path id="Tracé_3148" data-name="Tracé 3148" d="M163.153,81.292c3.306-.85-5.745-9.464,2.377-10.521,3.459-.45,1.337,9.112,3.5,7.184s-2.9-6.012,2.161-8.183,8.466,1.647,7.287,4.34.854,4.431,1.674,1.913,2.883-.161,5.023.859a3.558,3.558,0,0,0,3.839-.6s-.881,4.051-3.816,4.934-6.088-3.354-6.113-1.348,3.944,2.375,5.541,3.383.782,5.56-2.423,5.335-3.112-6.912-5.3-5.9-1.841,6.685.646,7.256.813,5.358-2.751,5.306-6.024-5.818-6.127-8.34c-.064-1.57-1.009,3.806.1,6.443s-5.242,7.209-9.495,1.866c-2.186-2.747-3.347-12.075,3.867-13.932" transform="translate(148.172 64.987)" fill="#2f8f59"/>
            <path id="Tracé_3149" data-name="Tracé 3149" d="M171.807,84.291c3.044-.043,5.682-7.269,11.365-5.551s9.912,7.136,4.757,7.136-9.646,1.983-6.872,2.908,7.271-2.633,11.5-.6c5.617,2.71,9.448,12.042,4.757,10.787-3.771-1.009-9.052-4.311-10.639-2.46-1.977,2.307,4.158,1.3,7.33,3.106s5.027,5.021,1.789,7.4c-2.565,1.886-6.144-.66-8.721-2.115s4.757,5.023,4.889,6.74-2.049,4.1-.991,5.551,1.917,3.3-1.816,1.587-2.185-4.2-2.082-5.814c.264-4.163-2.908-8.261-2.908-8.261s-1.255,3.172-.2,4.891-.312,5.622-1.453,6.21c-2.821,1.455-5.217-.184-5.617-3.766-.745-6.641,5.925-8.218,4.161-9.407s-3.207-.722-6.078,4.914c-1.083,2.122-2.644,4.889-5.814,4.361a5.518,5.518,0,0,1-2.512-9.384c3.834-3.964,8.307-2.823,8.986-4.493s-1.321-2.361-3.832-1.709-6.872,10.9-10.505,9.078-6.674-7.9-3.913-13.976c2.247-4.939,5.056-7.008,14.419-7.136" transform="translate(146.95 73.772)" fill="#2f8f59"/>
            <path id="Tracé_3150" data-name="Tracé 3150" d="M170.431,82.865s-8.325-8.986-13.348-8.193-7.136,6.078-3.04,6.144,13.745,2.576,10.969,5.089-8.69-2.776-13.132-2.776-8.938,5.682-4.179,7.006,10.89,3.7,7.624,3.964-8.181-1.057-9.027.793,2.035,5.814,0,7.267,1.271,1.983,4.441,1.455,6.08-2.512,5.948-4.891,2.642-2.379,3.7-.793-1.983,7.533,2.379,7.8,5.682-5.153,3.436-7.4-2.906-4.361-.264-4.757,5.419,3.436,5.946,7,2.512,7.929,6.74,4.625,5.948-7.731,2.644-10.308-2.078-7.258,1.6-3.564,8.967,9.906,11.214,5.149,2.747-10.356-4.757-13.348c-14.929-5.948-18.9-.264-18.9-.264" transform="translate(136.934 70.15)" fill="#0d292f"/>
            <path id="Tracé_3151" data-name="Tracé 3151" d="M145.576,61.57l25.78,12.2-18.747,40.6,5.857,45.4H154.63l-6.065-43.56-29.322,2.941-4.738,41.539h-3.768l2.906-43.376-2.906-12.682,27.9-2.941Z" transform="translate(104.101 57.88)" fill="#fff8d2"/>
            <path id="Tracé_3152" data-name="Tracé 3152" d="M116.316,84.88l-9.584,37.333,1.707,1.1,10.634-34.1Z" transform="translate(100.335 79.793)" fill="#fff8d2"/>
            <path id="Tracé_3153" data-name="Tracé 3153" d="M130.119,87.115l-1.744,28.954h-2.014l.268-28.954Z" transform="translate(118.787 81.894)" fill="#fff8d2"/>
            <path id="Tracé_3154" data-name="Tracé 3154" d="M113.9,105.68l33.819-2.966,15.928-31.369" transform="translate(107.074 67.069)" fill="none" stroke="#ea6c36" stroke-width="0.5"/>
            <path id="Tracé_3155" data-name="Tracé 3155" d="M75.84,59.335l-25.78,12.2,18.747,40.6-5.857,45.4h3.836l6.065-43.56,29.322,2.941,4.738,41.539h3.768l-2.906-43.376,2.906-12.682-27.9-2.941Z" transform="translate(47.06 55.779)" fill="#fff8d2"/>
            <path id="Tracé_3156" data-name="Tracé 3156" d="M81.707,82.646l9.584,37.333-1.707,1.1L78.95,86.982Z" transform="translate(74.218 77.692)" fill="#fff8d2"/>
            <path id="Tracé_3157" data-name="Tracé 3157" d="M63.745,84.88l1.744,28.954H67.5L67.236,84.88Z" transform="translate(59.925 79.793)" fill="#fff8d2"/>
            <path id="Tracé_3158" data-name="Tracé 3158" d="M102.248,103.445l-33.819-2.966L52.5,69.11" transform="translate(49.354 64.968)" fill="none" stroke="#ea6c36" stroke-width="0.5"/>
            <path id="Tracé_3159" data-name="Tracé 3159" d="M99.366,82.521l6.057,31.858L91.146,138.639" transform="translate(85.683 77.575)" fill="none" stroke="#ea6c36" stroke-width="1"/>
            <path id="Tracé_3160" data-name="Tracé 3160" d="M106.04,81.384,98.5,115.448l7.933,25.543" transform="translate(92.601 76.507)" fill="none" stroke="#ea6c36" stroke-width="1"/>
            <path id="Tracé_3161" data-name="Tracé 3161" d="M74.2,79.742v6.916a167.866,167.866,0,0,0,52.719,6.684c28.917-1.1,47.035-6.746,47.035-6.746V79.742Z" transform="translate(69.757 74.963)" fill="#ea6c36"/>
            <path id="Tracé_3162" data-name="Tracé 3162" d="M173.958,84.336c0,5.236-22.33,9.481-49.877,9.481S74.2,89.572,74.2,84.336s22.33-9.481,49.877-9.481,49.877,4.245,49.877,9.481" transform="translate(69.757 70.369)" fill="#fff8d2"/>
            <path id="Tracé_3163" data-name="Tracé 3163" d="M105.08,52.715s4-6.336,3.843-7.392-3.176,1.5-3.176,1.5-1.1-6.187-1.769-5.939-1.416,7.2-1.416,7.2-3.24-2.767-3.49-2.673.268,3.795,2.183,5.863,3.135,2.553,3.826,1.436" transform="translate(93.078 38.429)" fill="#096eb7"/>
            <path id="Tracé_3164" data-name="Tracé 3164" d="M104.731,47.77s.844,6.829-.925,12.158-4.2,7.739-4.823,18.91" transform="translate(93.051 44.907)" fill="none" stroke="#0d292f" stroke-width="0.25"/>
            <path id="Tracé_3165" data-name="Tracé 3165" d="M100.842,78.073s-2.687-21.558-2.32-25.846,4.055-5.3,4.225-.572c.124,3.389-1.905,26.418-1.905,26.418" transform="translate(92.585 45.624)" fill="#0d292f"/>
            <path id="Tracé_3166" data-name="Tracé 3166" d="M102.777,77.255s11.3-6.065,12.682-8.179-6.342,1.286-6.342,1.286,6.893-6.891,7.628-10.383-2.778-1.93-4.237.46-3.667,5.6-3.667,5.6,2.206-11.027,0-14.613-3.583,1.249-3.583,3.061,1.286,13.026,1.286,13.026-2.757-7.448-4.87-8-.92,4.043.826,7.075l1.746,3.032s-3.952-4.685-5.882-3.95,3.768,9.466,3.768,9.466l-.735,2.664Z" transform="translate(92.095 47.136)" fill="#2f8f59"/>
            <path id="Tracé_3167" data-name="Tracé 3167" d="M101.084,65.8s5.878-7.8,7.741-8.93,4.348-.867,3.969-.262-5.671,4.631-7.066,5.779-4.645,3.413-4.645,3.413" transform="translate(95.026 52.721)" fill="#0d292f"/>
            <path id="Tracé_3168" data-name="Tracé 3168" d="M105.933,55.047a119.331,119.331,0,0,0-5.882,19.36" transform="translate(94.055 51.748)" fill="none" stroke="#0d292f" stroke-width="0.25"/>
            <path id="Tracé_3169" data-name="Tracé 3169" d="M104.926,60.968s6.249-4.132,6.542-5.159-3.512.062-3.512.062,1.538-6.09.828-6.138-4.253,5.983-4.253,5.983-1.816-3.853-2.084-3.872-1.313,3.57-.419,6.243,1.808,3.616,2.9,2.881" transform="translate(95.582 46.752)" fill="#096eb7"/>
            <path id="Tracé_3170" data-name="Tracé 3170" d="M100.946,66.858s10.777-8.585,12.7-9.136,3.748.122,3.372.858-16.234,9.015-16.234,9.015Z" transform="translate(94.743 54.073)" fill="#0d292f"/>
            <path id="Tracé_3171" data-name="Tracé 3171" d="M100.665,66.593s9.386-4.7,11.73-5.556,4.967-.8,4.685.307-3,3.614-7.425,4.165a78.094,78.094,0,0,0-9.136,1.816Z" transform="translate(94.495 56.825)" fill="#0d292f"/>
            <path id="Tracé_3172" data-name="Tracé 3172" d="M103.948,71.965s-11.3-6.065-12.682-8.179,6.342,1.286,6.342,1.286-6.893-6.891-7.628-10.383,2.778-1.93,4.237.46,3.667,5.6,3.667,5.6-2.206-11.027,0-14.613,3.583,1.251,3.583,3.061S100.18,62.23,100.18,62.23s2.757-7.45,4.87-8,.92,4.043-.826,7.075l-1.746,3.032s3.952-4.685,5.882-3.95-3.768,9.466-3.768,9.466l.735,2.664Z" transform="translate(84.493 42.164)" fill="#2f8f59"/>
            <path id="Tracé_3173" data-name="Tracé 3173" d="M116.894,75.886l-5.878,18.857H100.481l-.252-.7-6.5-18.411H101.7V63.78h7.605V75.633l4.52.155Z" transform="translate(88.112 59.957)" fill="#97291a"/>
            <path id="Tracé_3174" data-name="Tracé 3174" d="M104.355,69.314S93.6,60.94,92.959,58.643s4.031,1.31,6.158,3.125a19.217,19.217,0,0,1,5.238,7.545" transform="translate(87.331 54.431)" fill="#0d292f"/>
            <path id="Tracé_3175" data-name="Tracé 3175" d="M104.869,72.695s-.9-7.667-4.274-12.463a15.2,15.2,0,0,0-7.824-5.927s-.446,1.333,1.346,3.492,6.753,7.126,8,9.192a56.664,56.664,0,0,1,2.757,5.706" transform="translate(87.165 51.05)" fill="#0d292f"/>
            <path id="Tracé_3176" data-name="Tracé 3176" d="M96.49,51.233s3.186,7.432,5.727,24.3" transform="translate(90.707 48.162)" fill="none" stroke="#0d292f" stroke-width="0.25"/>
            <path id="Tracé_3177" data-name="Tracé 3177" d="M99.9,59s-7.351-5.6-7.628-6.893,4.321.369,4.321.369-1.391-7.628-.512-7.628,4.74,7.72,4.74,7.72,2.555-4.594,2.885-4.594,1.323,4.5,0,7.72S101.18,60,99.9,59" transform="translate(86.731 42.163)" fill="#096eb7"/>
            <path id="Tracé_3178" data-name="Tracé 3178" d="M100.425,81.063c3.032-16.95-2.045-13.336-.9-22.222A21.769,21.769,0,0,1,106.235,45.4" transform="translate(93.4 42.682)" fill="none" stroke="#5daf7f" stroke-width="0.21"/>
            <path id="Tracé_3179" data-name="Tracé 3179" d="M101.945,46.656a1.019,1.019,0,0,0,0-2.037,1.019,1.019,0,0,0,0,2.037" transform="translate(94.911 41.945)" fill="#f4c8b2"/>
            <path id="Tracé_3180" data-name="Tracé 3180" d="M102.422,47.85a1.019,1.019,0,0,0,0-2.037,1.019,1.019,0,0,0,0,2.037" transform="translate(95.36 43.067)" fill="#f4c8b2"/>
            <path id="Tracé_3181" data-name="Tracé 3181" d="M103.377,46.915a1.019,1.019,0,0,0,0-2.037,1.019,1.019,0,0,0,0,2.037" transform="translate(96.258 42.188)" fill="#f4c8b2"/>
            <path id="Tracé_3182" data-name="Tracé 3182" d="M101.159,47.9a1.019,1.019,0,0,0,0-2.037,1.019,1.019,0,0,0,0,2.037" transform="translate(94.173 43.113)" fill="#f4c8b2"/>
            <path id="Tracé_3183" data-name="Tracé 3183" d="M101.945,49.281a1.019,1.019,0,0,0,0-2.037,1.019,1.019,0,0,0,0,2.037" transform="translate(94.911 44.413)" fill="#f4c8b2"/>
            <path id="Tracé_3184" data-name="Tracé 3184" d="M103.357,48.715a1.019,1.019,0,0,0,0-2.037,1.019,1.019,0,0,0,0,2.037" transform="translate(96.239 43.88)" fill="#f4c8b2"/>
            <path id="Tracé_3185" data-name="Tracé 3185" d="M103.05,45.591a1.018,1.018,0,0,0,0-2.035,1.018,1.018,0,0,0,0,2.035" transform="translate(95.949 40.946)" fill="#f4c8b2"/>
            <path id="Tracé_3186" data-name="Tracé 3186" d="M104.57,45.921a1.019,1.019,0,0,0,0-2.037,1.019,1.019,0,0,0,0,2.037" transform="translate(97.379 41.254)" fill="#f4c8b2"/>
            <path id="Tracé_3187" data-name="Tracé 3187" d="M104.033,47.76a1.019,1.019,0,0,0,0-2.037,1.019,1.019,0,0,0,0,2.037" transform="translate(96.874 42.983)" fill="#f4c8b2"/>
            <g id="Groupe_432" data-name="Groupe 432" transform="translate(188.34 123.737)" opacity="0.5">
              <g id="Groupe_431" data-name="Groupe 431">
                <g id="Groupe_430" data-name="Groupe 430" clip-path="url(#clip-path-5)">
                  <path id="Tracé_3188" data-name="Tracé 3188" d="M110.679,75.789l-5.335,18.954H97.331l-.252-.7,7.663-30.265h1.416V75.633Z" transform="translate(-97.079 -63.78)" fill="#d93a3a"/>
                </g>
              </g>
            </g>
            <path id="Tracé_3189" data-name="Tracé 3189" d="M71.526,56.031C69.65,48.477,62.675,42.369,53.66,43.937S7.339,64.044,4.768,71.133s14.95,9.109,26.247,7.706S59.723,75.568,62.2,72s9.328-15.969,9.328-15.969" transform="translate(4.243 41.071)" fill="#0c393f"/>
            <path id="Tracé_3190" data-name="Tracé 3190" d="M63.051,84.1c6.012-7.205,3.186-52.911-1.044-64.28S52.088-3.223,45.864,6.3s-6.1,21.608-6.1,21.608L44.5,32.439,39.08,33.663s-3.261,21.4-.793,32.51S52.336,96.946,63.051,84.1" transform="translate(35.124 2.628)" fill="#0c393f"/>
            <path id="Tracé_3191" data-name="Tracé 3191" d="M37.566,47.356S51.669,62.492,54.6,97.169s.275,92.209.275,92.209l-4.7.489s7.425-75.428,1.232-99.714S37.351,55.411,37.351,55.411Z" transform="translate(35.112 44.518)" fill="#0c393f"/>
            <path id="Tracé_3192" data-name="Tracé 3192" d="M37.566,47.356S51.669,62.492,54.6,97.169s.275,92.209.275,92.209l-4.7.489s7.425-75.428,1.232-99.714S37.351,55.411,37.351,55.411Z" transform="translate(35.112 44.518)" fill="none" stroke="#0c393f" stroke-width="0.723"/>
            <path id="Tracé_3193" data-name="Tracé 3193" d="M57.112,47.461s1.839,45.516,1.084,62.949-8.482,87.844-8.482,87.844l-4.194.343s6.059-44.635,9.654-73.986c2.586-21.123,1.977-55.207.21-73.261s-1.267-17.146,1.729-3.89" transform="translate(42.792 35.382)" fill="#0c393f"/>
            <path id="Tracé_3194" data-name="Tracé 3194" d="M57.112,47.461s1.839,45.516,1.084,62.949-8.482,87.844-8.482,87.844l-4.194.343s6.059-44.635,9.654-73.986c2.586-21.123,1.977-55.207.21-73.261S54.116,34.2,57.112,47.461Z" transform="translate(42.792 35.382)" fill="none" stroke="#0c393f" stroke-width="0.723"/>
            <path id="Tracé_3195" data-name="Tracé 3195" d="M63.553,82.427c-3.108-5.417-8.54-10.261-7.545-19.651S69.8,40.654,71.971,29.391s4.674-27.085,11.848-9.566S73.257,75.637,69.746,81.35s-3.682,5.452-6.193,1.077" transform="translate(52.539 11.288)" fill="#0c393f"/>
            <path id="Tracé_3196" data-name="Tracé 3196" d="M75.75,51.828c-4.532,10-18,94.753-20.442,114.382s-4.338,24.4-4.338,24.4l-3.288-.45s1.482-13.724,8.385-50.354C62,108.284,65.986,76.288,70.029,63.274s6.926-17.026,6.926-17.026Z" transform="translate(44.823 43.476)" fill="#0c393f"/>
            <path id="Tracé_3197" data-name="Tracé 3197" d="M75.75,51.828c-4.532,10-18,94.753-20.442,114.382s-4.338,24.4-4.338,24.4l-3.288-.45s1.482-13.724,8.385-50.354C62,108.284,65.986,76.288,70.029,63.274s6.926-17.026,6.926-17.026Z" transform="translate(44.823 43.476)" fill="none" stroke="#0c393f" stroke-width="0.723"/>
          </g>
        </g>
        <g id="Groupe_436" data-name="Groupe 436" transform="translate(8.757 84.761)">
          <g id="Groupe_435" data-name="Groupe 435" clip-path="url(#clip-path-6)">
            <path id="Tracé_3198" data-name="Tracé 3198" d="M1.6,71.156C24.652,60.45,49.1,50.94,74.96,52c1.352.054,1.35-2.049,0-2.1C48.73,48.822,23.923,58.479.543,69.34c-1.226.57-.159,2.382,1.061,1.816" transform="translate(-8.757 -37.936)" fill="#5daf7f"/>
            <path id="Tracé_3199" data-name="Tracé 3199" d="M6.738,52.92A38.684,38.684,0,0,0,21.095,58.5c1.325.227,1.894-1.8.559-2.027A37.172,37.172,0,0,1,7.8,51.1C6.655,50.37,5.6,52.19,6.738,52.92" transform="translate(-2.883 -36.881)" fill="#5daf7f"/>
            <path id="Tracé_3200" data-name="Tracé 3200" d="M14.284,49.428c5.3,4.78,12.4,6.043,19.259,6.81,1.343.149,1.331-1.956,0-2.1-6.261-.7-12.929-1.826-17.771-6.195-1-.9-2.495.58-1.488,1.488" transform="translate(4.356 -39.959)" fill="#5daf7f"/>
            <path id="Tracé_3201" data-name="Tracé 3201" d="M25.337,45.6c2.5,2.891,6.041,4.91,9.153,7.068,3.058,2.122,6.276,4.181,10,4.854,1.323.239,1.89-1.787.559-2.029-3.556-.642-6.579-2.615-9.5-4.641-2.972-2.062-6.342-3.979-8.726-6.74-.887-1.024-2.369.468-1.488,1.488" transform="translate(14.807 -43.621)" fill="#5daf7f"/>
            <path id="Tracé_3202" data-name="Tracé 3202" d="M9.752,72.309c.243-3.409,2.146-6.641,4.132-9.326a25.33,25.33,0,0,1,7.665-7.1,1.052,1.052,0,0,0-1.061-1.816,27.867,27.867,0,0,0-8.42,7.857C9.839,64.936,7.92,68.5,7.649,72.309c-.1,1.35,2.008,1.344,2.1,0" transform="translate(-1.57 -34.076)" fill="#5daf7f"/>
            <path id="Tracé_3203" data-name="Tracé 3203" d="M17.543,75.218A56.16,56.16,0,0,1,28.369,53.683c.85-1.04-.631-2.538-1.486-1.488A58.553,58.553,0,0,0,15.516,74.659a1.052,1.052,0,0,0,2.027.559" transform="translate(5.794 -36.03)" fill="#5daf7f"/>
            <path id="Tracé_3204" data-name="Tracé 3204" d="M26.189,75.213c-1.03-9.539,5.442-17.366,12.543-22.846,1.055-.815.01-2.644-1.061-1.816-7.65,5.9-14.7,14.355-13.584,24.662.144,1.331,2.249,1.346,2.1,0" transform="translate(13.776 -37.438)" fill="#5daf7f"/>
            <path id="Tracé_3205" data-name="Tracé 3205" d="M34.25,71.03a31.174,31.174,0,0,1,8.965-19.17c.966-.953-.522-2.441-1.486-1.488A33.463,33.463,0,0,0,32.147,71.03c-.142,1.344,1.961,1.335,2.1,0" transform="translate(21.457 -37.696)" fill="#5daf7f"/>
          </g>
        </g>
        <g id="Groupe_438" data-name="Groupe 438">
          <g id="Groupe_437" data-name="Groupe 437" clip-path="url(#clip-path-2)">
            <path id="Tracé_3207" data-name="Tracé 3207" d="M35.854,104.048l51.288-4.784L76.317,150.107l-37.234-1.581Z" transform="translate(33.705 93.315)" fill="#096eb7"/>
            <path id="Tracé_3208" data-name="Tracé 3208" d="M35.854,104.048l51.288-4.784L76.317,150.107l-37.234-1.581Z" transform="translate(33.705 93.315)" fill="none" stroke="#096eb7" stroke-width="0.723"/>
          </g>
        </g>
        <g id="Groupe_440" data-name="Groupe 440" transform="translate(72.487 5.422)">
          <g id="Groupe_439" data-name="Groupe 439" clip-path="url(#clip-path-8)">
            <path id="Tracé_3209" data-name="Tracé 3209" d="M38.063,7.478a52.049,52.049,0,0,1,26.773,24.01c.632,1.2,2.448.134,1.816-1.063A54.243,54.243,0,0,0,38.621,5.451c-1.259-.5-1.806,1.537-.559,2.027" transform="translate(-37.368 -0.371)" fill="#5daf7f"/>
            <path id="Tracé_3210" data-name="Tracé 3210" d="M36.366,17.2a58.087,58.087,0,0,1,16.487,9.227A90.338,90.338,0,0,1,59.9,32.866a43.8,43.8,0,0,1,6.623,7.458c.716,1.145,2.534.091,1.816-1.061a43.709,43.709,0,0,0-6.552-7.485,91.673,91.673,0,0,0-7.861-7.17,61.226,61.226,0,0,0-17-9.435c-1.271-.464-1.82,1.568-.557,2.027" transform="translate(-38.973 8.776)" fill="#5daf7f"/>
            <path id="Tracé_3211" data-name="Tracé 3211" d="M36.3,26.578c6.439,2.751,12.954,5.537,18.683,9.625A41.442,41.442,0,0,1,68.315,52.225c.58,1.222,2.394.157,1.816-1.061A43.366,43.366,0,0,0,56.943,35.046C51.01,30.6,44.136,27.656,37.358,24.762c-1.23-.526-2.3,1.286-1.061,1.816" transform="translate(-38.884 17.766)" fill="#5daf7f"/>
            <path id="Tracé_3212" data-name="Tracé 3212" d="M38.013,37.79A64,64,0,0,1,65.4,52.348c1,.9,2.495-.578,1.488-1.488a66.241,66.241,0,0,0-28.311-15.1,1.052,1.052,0,0,0-.559,2.027" transform="translate(-37.457 28.163)" fill="#5daf7f"/>
          </g>
        </g>
        <g id="Groupe_442" data-name="Groupe 442" transform="translate(108.425 23.294)">
          <g id="Groupe_441" data-name="Groupe 441" clip-path="url(#clip-path-9)">
            <path id="Tracé_3214" data-name="Tracé 3214" d="M63.4,14.569a47.067,47.067,0,0,1,14.236,32.56,1.052,1.052,0,0,0,2.1,0A49.231,49.231,0,0,0,64.885,13.081c-.974-.941-2.462.543-1.488,1.488" transform="translate(-49.126 -11.28)" fill="#5daf7f"/>
            <path id="Tracé_3215" data-name="Tracé 3215" d="M61.57,23.2a61.657,61.657,0,0,1,12.508,31.48c.132,1.335,2.237,1.348,2.1,0A64.23,64.23,0,0,0,63.058,21.71c-.826-1.069-2.307.431-1.488,1.488" transform="translate(-50.77 -3.231)" fill="#5daf7f"/>
            <path id="Tracé_3216" data-name="Tracé 3216" d="M58.223,31.285A47.17,47.17,0,0,1,68.229,43.416a46.637,46.637,0,0,1,3.294,7.019q.7,1.886,1.228,3.824.236.861.44,1.731a8.306,8.306,0,0,1,.452,1.874q.454-.262.908-.52c-.052-.008-.1-.014-.153-.019l.908.522c-.027-.047-.056-.091-.083-.136q-.084.637-.165,1.275l.072-.093c.819-1.057-.658-2.557-1.486-1.488l-.074.093a1.1,1.1,0,0,0-.163,1.275,1.327,1.327,0,0,0,1.145.675,1.031,1.031,0,0,0,.908-.522c.588-1.022.01-2.425-.241-3.494Q74.713,53.257,74,51.14a49.585,49.585,0,0,0-3.409-7.811A48.9,48.9,0,0,0,59.711,29.8c-1.019-.883-2.512.6-1.488,1.488" transform="translate(-54.015 4.462)" fill="#5daf7f"/>
            <path id="Tracé_3217" data-name="Tracé 3217" d="M54.426,38.891a38.371,38.371,0,0,1,19.036,19c.561,1.23,2.373.163,1.816-1.061a40.128,40.128,0,0,0-19.791-19.76c-1.222-.555-2.293,1.257-1.061,1.816" transform="translate(-57.775 11.461)" fill="#5daf7f"/>
          </g>
        </g>
      </g>
    </g>
  </g>
</svg>
