<svg xmlns="http://www.w3.org/2000/svg" xmlns:xlink="http://www.w3.org/1999/xlink" width="232" height="232" viewBox="0 0 232 232">
  <defs>
    <clipPath id="clip-path">
      <circle id="Ellipse_19" data-name="Ellipse 19" cx="116" cy="116" r="116" transform="translate(6752 512)" fill="#fff" stroke="#707070" stroke-width="1"/>
    </clipPath>
    <clipPath id="clip-path-2">
      <rect id="Rectangle_783" data-name="Rectangle 783" width="334.755" height="266.964" fill="none" stroke="rgba(0,0,0,0)" stroke-width="1"/>
    </clipPath>
    <clipPath id="clip-path-3">
      <path id="Tracé_3077" data-name="Tracé 3077" d="M77.336,230.191c-36.032,16.715-19.992,44.651,4.3,51.519,11.423,3.23,22.554.01,32.312-3.211,10.99-3.627,20.236-7.255,26.2-1.667,11.256,10.548,22.143,30.021,48.731,28.916s54.4-27.511,55.106-36.834c.327-4.33,5.069-3.671,10.355-3.012,6.092.76,12.906,1.519,14.515-5.361,1.379-5.9-8.3-23.181-21.148-26.186s-69.933-8.462-69.933-8.462-20.287-1.037-42.942-1.037c-22.927,0-48.279,1.062-57.491,5.335" transform="translate(-56.245 -224.856)" fill="none" stroke="rgba(0,0,0,0)" stroke-width="1"/>
    </clipPath>
    <clipPath id="clip-path-5">
      <path id="Tracé_3100" data-name="Tracé 3100" d="M425.713,229.03s1.342,5.215,3.429,14.172c1.63,6.995-.484,17.43-.484,17.43l11.362-1.77s.4-2.494-2.656-13.232a47.674,47.674,0,0,0-9.738-17.855Z" transform="translate(-425.713 -227.774)" fill="none" stroke="rgba(0,0,0,0)" stroke-width="1"/>
    </clipPath>
    <clipPath id="clip-path-7">
      <path id="Tracé_3104" data-name="Tracé 3104" d="M56.687,215.036c-1.376,9.187-.779,11.2-.779,11.2l9.564.246s-2.858-8.385-2.261-14.33c.766-7.613,1.317-12.06,1.317-12.06l-1.713-.831a39.654,39.654,0,0,0-6.129,15.773" transform="translate(-55.779 -199.263)" fill="none" stroke="rgba(0,0,0,0)" stroke-width="1"/>
    </clipPath>
  </defs>
  <g id="Groupe_de_masques_2" data-name="Groupe de masques 2" transform="translate(-6752 -512)" clip-path="url(#clip-path)">
    <g id="Groupe_476" data-name="Groupe 476" transform="translate(6703.445 488.15)">
      <g id="Groupe_413" data-name="Groupe 413">
        <path id="Tracé_3072" data-name="Tracé 3072" d="M46.622,49.527.534,102.069,24.233,238.5l164.15,22.516,133.438-64.757L285.808,46.526l-127-37.431Z" transform="translate(-0.203 -3.456)" fill="#c5ebf9" stroke="rgba(0,0,0,0)" stroke-width="1"/>
        <g id="Groupe_400" data-name="Groupe 400">
          <g id="Groupe_399" data-name="Groupe 399" clip-path="url(#clip-path-2)">
            <path id="Tracé_3073" data-name="Tracé 3073" d="M227.267,19.443q15.115,4.275,30.965,8.861L293.53,38.6l37.725,157.24-28.308,13.846-23.469,11.608-42.194,20.964-44.806,22.085-84.294-11.272L21.277,241.236Q16.09,211.389,11.016,182.2c.554-.1,2.847,8.165,1.664-.29-5.007-33.758-3.9-33.951-2.788-34.143.555-.1,4.379,25.208,3.475,16.715,4.379,25.208,11.96,67.207,8.131,41.875-.905-8.5-7.3-42.02-7.926-50.561-.629-8.56,3.123,8.107,2.5-.433l-5.843-33.632c-.9-8.486,3.126,8.116,1.665-.29q-.821-5.431-1.776-11.353-.482-2.956-.982-6.026-.245-1.476-.492-2.979-.084-.54-.169-1.089l1.205-1.344,2.7-3.058,5.517-6.267L29.31,76.294,53.09,49.1c.423.371,6.484-5.686-4.555,7.328L10.083,100.45l22.7,128.865,157.5,21.239,126.385-61.609q-16.936-70.185-33.828-140.186l-120.8-35.693L66.37,47.315c-32.191,11.3-8.494,1.566,15.29-7.9-7.922,3.154-8.209,2.359-16.148,5.52-.143-.4,3.679-2.373,11.538-5.729s19.756-8.092,35.76-14.01L88.731,33.87c-8.121,2.628-.286-.795-.477-1.324,4.017-1.448,8.03-2.894,11.027-4.012a30.078,30.078,0,0,0,4.929-2.039l-.382-1.059L71.733,37c4.009-1.445,8.02-2.89,11.016-4.007a30.007,30.007,0,0,0,4.932-2.039L87.3,29.9c15.957-6.049,40.218-14.194,56.184-20.248l-.286-.794C127.04,14.379,103.066,23.319,87.013,29.1c7.94-3.162,7.845-3.426,7.653-3.956,10.9-4.064,21.879-7.911,32.849-11.786q8.226-2.906,16.433-5.867l8.189-3.008L161.683.9c4.294,1.212,5.739,1.572,8.149,2.2L161.677.7,142.719,7.53c2.1-.96,4.66-2.034,7.573-3.2l4.626-1.811,2.491-.949L161.657,0l9.283,2.678,8.075,2.38,16.848,5.064c11.3,3.415,22.415,6.779,31.4,9.321" transform="translate(-3.219)" fill="#c5ebf9" stroke="rgba(0,0,0,0)" stroke-width="1"/>
            <path id="Tracé_3074" data-name="Tracé 3074" d="M291.472,243.6l30.35,2.943,13.136,43.172L217.885,350.052,174.713,353,11.839,330.429.534,226.764l24.06-.339Z" transform="translate(-0.203 -86.032)" fill="#ed8349" stroke="rgba(0,0,0,0)" stroke-width="1"/>
            <path id="Tracé_3075" data-name="Tracé 3075" d="M177.769,225.894s-82.119-4.2-100.433,4.3c-36.032,16.715-19.992,44.652,4.3,51.52s47.256-15.428,58.511-4.879,22.143,30.021,48.731,28.916,54.4-27.51,55.106-36.833,21.865,4.475,24.87-8.373c1.379-5.9-8.3-23.182-21.148-26.186s-69.933-8.463-69.933-8.463" transform="translate(-21.371 -85.436)" fill="#2e80ca" stroke="rgba(0,0,0,0)" stroke-width="1"/>
          </g>
        </g>
        <g id="Groupe_402" data-name="Groupe 402" transform="translate(34.874 139.42)">
          <g id="Groupe_401" data-name="Groupe 401" clip-path="url(#clip-path-3)">
            <path id="Tracé_3076" data-name="Tracé 3076" d="M58.847,213.891a48.93,48.93,0,0,0,22.692-6.81c2.406-1.433,5.238-3.136,7.808-2.023,2.476,1.074,3.256,4.433,2.316,6.964s-3.107,4.379-5.265,6c-11.711,8.8-21.949,11.187-31.417,20.962-3.034,3.132-5.063,6.289-4.032,10.526.816,3.353,3.224,4.923,5.13,5.964,4.853,2.653,10.5,2.868,14.256-1.439,1.944-2.232,2.344-5.368,2.8-8.292.763-4.872,1.98-9.818,4.834-13.84s7.654-6.966,12.555-6.426,9.274,5.378,8.276,10.208c-.558,2.7-2.536,4.873-4.639,6.652-9.516,8.048-23.022,10.952-31.021,20.51a4.358,4.358,0,0,0-1.354,3.332c.231,1.341,1.537,2.191,2.75,2.809,9.99,5.089,15.136,5.144,25.543.974,4.388-1.758,10.357-5.844,12.7-9.952,3.4-5.977,5.522-9.715,3.474-16.28a38.227,38.227,0,0,1-1.839-15.673c.393-6.866,6.575-13.78,13.359-12.652a7.614,7.614,0,0,1,4.458,2.638,9.937,9.937,0,0,1,1.9,4.707c.812,5.376.3,7.9-2.813,14.038-2.6,5.131-5.6,7.419-8.509,12.382s-1.663,11.7,0,17.212,4.265,7.927,9.493,5.526c3.872-1.778,3.811-4.329,4.513-8.531s.676-8.615,2.433-12.5,6.156-7.079,10.161-5.624c4.047,1.471,5.338,6.812,4.209,10.968s-3.927,7.627-5.834,11.488-2.807,8.811-.23,12.261c2.984,3.995,9.462,3.851,13.409.8s5.808-8.076,6.794-12.964c1.668-8.272,1.135-17.56-4.116-24.165-4.1-5.154-10.419-7.934-15.576-12.028-2.348-1.864-4.6-4.278-4.865-7.264a10.262,10.262,0,0,1,1.774-6.057,23.338,23.338,0,0,1,18-11.055,4.59,4.59,0,0,1,3.652.9c1.263,1.27.826,3.42.026,5.024-2,4.011-5.632,7-7.8,10.925s-2.19,9.831,1.774,11.925c2.775,1.466,6.218.371,8.917-1.232,8.363-4.964,13.407-14.185,21.49-19.593a15.862,15.862,0,0,1,9.294-3.1c3.318.146,6.7,2.136,7.718,5.3.979,3.03-.382,6.424-2.6,8.711s-5.162,3.693-8.042,5.051l-15.257,7.2c-2.684,1.266-5.435,2.58-7.473,4.738s-3.225,5.385-2.168,8.158c1.525,4,6.734,5.159,10.968,4.523,10.91-1.638,27.522-17.5,31.61-7.25,3.607,9.04-14.585,12.308-23.329,16.584a94.979,94.979,0,0,0-15.192,9.29c-4.061,3.041-8.037,6.639-9.686,11.437s-.128,11.014,4.48,13.136c3.965,1.825,8.772.086,12.057-2.788s5.519-6.73,8.27-10.118a41.049,41.049,0,0,1,12.578-10.35c2.845-1.51,6.218-2.694,9.235-1.566,2.184.816,3.759,2.69,5.4,4.345,3.306,3.332,7.413,6.082,12.047,6.824s9.815-.858,12.487-4.717,1.972-9.942-2.006-12.431c-1.891-1.183-4.218-1.481-6.158-2.582a8.354,8.354,0,0,1,2.3-15.416c3.691-.827,7.406.89,10.97,2.156a48.583,48.583,0,0,0,24.088,2.142c4.1-.68,8.645-2.35,10.146-6.228,1.9-4.916-2.154-10.007-6.118-13.484a16.8,16.8,0,0,0-5.809-3.735c-5.467-1.713-10.976,1.926-16.023,4.638-7.658,4.115-17.925,11.585-25,6.528-6.111-4.371,1.632-14.842,6.543-20.528,1.4-1.624,2.989-3.4,2.94-5.55-.05-2.212-1.874-4-3.834-5.025a13.6,13.6,0,0,0-15.747,2.656c-6.4,6.8-3.575,26.83-12.6,24.429-3.279-.872-1.525-7.5.627-10.122,4.8-5.845,11.287-11.191,12.163-18.7a14.579,14.579,0,0,0-11.961-15.527" transform="translate(-54.13 -213.063)" fill="none" stroke="#c5ebf9" stroke-width="1.129"/>
          </g>
        </g>
        <g id="Groupe_404" data-name="Groupe 404">
          <g id="Groupe_403" data-name="Groupe 403" clip-path="url(#clip-path-2)">
            <path id="Tracé_3078" data-name="Tracé 3078" d="M454.261,213.5s-37.775-78-46.115-75.55S342.9,209.088,342.9,209.088s40.228,7.849,68.682,7.849,42.681-3.434,42.681-3.434" transform="translate(-130.287 -52.395)" fill="#249f6d" stroke="rgba(0,0,0,0)" stroke-width="1"/>
            <path id="Tracé_3079" data-name="Tracé 3079" d="M361.417,229.126s-28.372-58.587-34.636-56.744-49.006,53.428-49.006,53.428,30.215,5.9,51.586,5.9,32.057-2.579,32.057-2.579" transform="translate(-105.542 -65.482)" fill="#54cc96" stroke="rgba(0,0,0,0)" stroke-width="1"/>
            <path id="Tracé_3080" data-name="Tracé 3080" d="M117.233,208.6s-28.944-46.967-36.3-45.5-18.642,15.714-25.02,15.215-15.208-7.366-21.586-2.951-21.1,27.473-21.1,27.473a225.386,225.386,0,0,0,47.586,9.321c25.213,1.919,56.417-3.563,56.417-3.563" transform="translate(-5.026 -61.961)" fill="#249f6d" stroke="rgba(0,0,0,0)" stroke-width="1"/>
            <path id="Tracé_3081" data-name="Tracé 3081" d="M401.38,263.847c1.408-.019,2.629-3.363,5.258-2.568s4.586,3.3,2.2,3.3-4.463.917-3.179,1.346,3.364-1.218,5.319-.275c2.6,1.253,4.372,5.571,2.2,4.99-1.745-.467-4.188-1.994-4.922-1.138-.915,1.067,1.924.6,3.391,1.437s2.326,2.324.828,3.424c-1.187.872-2.843-.306-4.035-.978s2.2,2.323,2.263,3.118-.948,1.9-.459,2.568.887,1.528-.841.734-1.01-1.943-.963-2.69a6.64,6.64,0,0,0-1.345-3.821s-.581,1.467-.092,2.262a2.814,2.814,0,0,1-.673,2.874c-1.3.673-2.413-.086-2.6-1.742-.344-3.072,2.742-3.8,1.927-4.352s-1.484-.334-2.813,2.273c-.5.982-1.223,2.262-2.69,2.018A2.553,2.553,0,0,1,399,272.285c1.773-1.834,3.843-1.306,4.158-2.079s-.612-1.092-1.773-.791-3.18,5.04-4.861,4.2a5.028,5.028,0,0,1-1.81-6.466c1.039-2.286,2.339-3.242,6.67-3.3" transform="translate(-149.784 -99.228)" fill="#249f6d" stroke="rgba(0,0,0,0)" stroke-width="1"/>
            <path id="Tracé_3082" data-name="Tracé 3082" d="M390.249,259.392s-3.852-4.157-6.175-3.791-3.3,2.812-1.406,2.844,6.359,1.192,5.074,2.354-4.02-1.284-6.076-1.284-4.134,2.629-1.933,3.24,5.038,1.712,3.527,1.835-3.785-.489-4.176.366.941,2.69,0,3.363.587.917,2.054.672,2.813-1.161,2.752-2.262,1.223-1.1,1.712-.367-.917,3.485,1.1,3.607a2.067,2.067,0,0,0,1.59-3.424c-1.04-1.039-1.345-2.018-.123-2.2s2.507,1.59,2.752,3.24,1.161,3.669,3.118,2.14,2.751-3.577,1.223-4.769-.961-3.358.742-1.648,4.149,4.583,5.189,2.382,1.271-4.792-2.2-6.176c-6.907-2.752-8.743-.122-8.743-.122" transform="translate(-143.924 -97.109)" fill="#0e353c" stroke="rgba(0,0,0,0)" stroke-width="1"/>
            <path id="Tracé_3083" data-name="Tracé 3083" d="M185.906,303.828c1.917,1.491,2.825-7.349,6.953-3.24,1.758,1.751-4.546,4.717-2.517,5.1s2.122-4.245,5.544-2.344,2.756,5.481.729,5.988-2.122,2.408-.348,1.774,1.345,1.553,1.7,3.2a2.529,2.529,0,0,0,2,1.9s-2.661,1.267-4.435,0-.761-4.885-1.9-4.027.38,3.252.507,4.59-2.788,2.858-4.055.957,2.535-4.758,1.014-5.547-4.562,1.872-3.8,3.519-2.661,2.788-4.182.761.653-5.921,2.028-7.076c.855-.719-2.581,1.087-3.58,2.862s-6.337.187-5.18-4.531c.594-2.425,5.339-7.137,9.521-3.885" transform="translate(-66.957 -113.792)" fill="#249f6d" stroke="rgba(0,0,0,0)" stroke-width="1"/>
            <path id="Tracé_3084" data-name="Tracé 3084" d="M170.531,300.016c.763,3.191,9.187-5.365,10.07,2.455.376,3.332-8.778,1.137-6.961,3.25s5.825-2.685,7.828,2.21-1.722,8.109-4.289,6.931-4.273.747-1.866,1.577.107,2.773-.908,4.813a3.417,3.417,0,0,0,.509,3.7s-3.877-.911-4.678-3.746,3.324-5.794,1.4-5.853-2.346,3.751-3.343,5.269-5.355.66-5.086-2.415,6.692-2.878,5.755-4.994-6.393-1.879-6.983.5-5.162.693-5.053-2.731,5.69-5.693,8.115-5.75c1.509-.035-3.641-1.033-6.193-.006s-6.842-5.154-1.637-9.154c2.674-2.055,11.658-3.017,13.323,3.944" transform="translate(-58.798 -111.922)" fill="#54cc96" stroke="rgba(0,0,0,0)" stroke-width="1"/>
            <path id="Tracé_3085" data-name="Tracé 3085" d="M380.066,322.05c5.738-.4,14.137,9.076,11.539,14.472s-10.2,3.924-14.372-1.472-4.146-12.51,2.833-13" transform="translate(-142.255 -122.36)" fill="#fcf9da" stroke="rgba(0,0,0,0)" stroke-width="1"/>
            <path id="Tracé_3086" data-name="Tracé 3086" d="M397.121,316.214c2.782-1.9,5.667-1.418,7.994,1.335s.364,7.466-3.07,6.99-6.585-7.192-4.924-8.325" transform="translate(-150.715 -119.713)" fill="#fcf9da" stroke="rgba(0,0,0,0)" stroke-width="1"/>
            <path id="Tracé_3087" data-name="Tracé 3087" d="M419.124,310.547c-3.571,2.737-.738,6.868,3.883,8.34s8.382-3.107,7.237-5.07-6.214-7.032-11.12-3.271" transform="translate(-158.636 -117.48)" fill="#fcf9da" stroke="rgba(0,0,0,0)" stroke-width="1"/>
            <path id="Tracé_3088" data-name="Tracé 3088" d="M444.04,317.839c-2.21,2.558-.49,5.57,3.271,7.023s7.522-5.2,5.723-7.023-6.05-3.407-8.994,0" transform="translate(-168.344 -120.003)" fill="#fcf9da" stroke="rgba(0,0,0,0)" stroke-width="1"/>
            <path id="Tracé_3089" data-name="Tracé 3089" d="M471.257,316.01c-3.589,2.494-4.906,4.837-3.107,8.123s13.082,4.267,15.7,1.977,2.289-9.843.49-10.972-8.667-2.195-13.082.873" transform="translate(-177.572 -119.306)" fill="#fcf9da" stroke="rgba(0,0,0,0)" stroke-width="1"/>
            <path id="Tracé_3090" data-name="Tracé 3090" d="M506.765,316.585c-3.806,2.155-1.308,7.617,2.126,8.123s8.415-2.765,6.906-6.2-5.925-3.683-9.032-1.923" transform="translate(-191.823 -119.881)" fill="#fcf9da" stroke="rgba(0,0,0,0)" stroke-width="1"/>
            <path id="Tracé_3091" data-name="Tracé 3091" d="M362.6,338.536c2.956.885,5.724,7.649,1.635,10.284s-9.975.018-10.629-3.906,2.849-8.217,8.994-6.378" transform="translate(-134.324 -128.462)" fill="#fcf9da" stroke="rgba(0,0,0,0)" stroke-width="1"/>
            <path id="Tracé_3092" data-name="Tracé 3092" d="M337.566,345.924c3.664,1.94,5.047,6.05,1.442,8.994s-8.348.621-9.82-2.387,2.2-9.877,8.378-6.607" transform="translate(-124.954 -131.108)" fill="#fcf9da" stroke="rgba(0,0,0,0)" stroke-width="1"/>
            <path id="Tracé_3093" data-name="Tracé 3093" d="M316.509,363.016c6.292,1.241,6.384,9.761,3.6,13.2s-11.941,1.962-13.9-4.089,3.924-10.365,10.3-9.107" transform="translate(-116.2 -137.847)" fill="#fcf9da" stroke="rgba(0,0,0,0)" stroke-width="1"/>
            <path id="Tracé_3094" data-name="Tracé 3094" d="M294.893,378.187c3.63,1.528,4.252,6.868,0,9.975s-9.975-2.617-8.176-6.868,5.069-4.415,8.176-3.107" transform="translate(-108.811 -143.421)" fill="#fcf9da" stroke="rgba(0,0,0,0)" stroke-width="1"/>
            <path id="Tracé_3095" data-name="Tracé 3095" d="M277.75,373.026c1.071,3.438-6.009,6.453-8.728,4.164s-2.72-7.032.879-7.359,6.7-.477,7.849,3.2" transform="translate(-101.479 -140.46)" fill="#fcf9da" stroke="rgba(0,0,0,0)" stroke-width="1"/>
            <path id="Tracé_3096" data-name="Tracé 3096" d="M252.823,376.9c2.4,1.5,3.6,6.281,0,9.879s-10.793,5.7-14.227,1.705,0-9.064,4.415-10.863,7.359-2.26,9.812-.721" transform="translate(-90.124 -142.851)" fill="#fcf9da" stroke="rgba(0,0,0,0)" stroke-width="1"/>
            <path id="Tracé_3097" data-name="Tracé 3097" d="M227.54,385.321c-1.377,3.821-3.925,6.3-7.195,3.682s1.895-8.5,4.218-9.157,4.776.485,2.977,5.476" transform="translate(-83.321 -144.261)" fill="#fcf9da" stroke="rgba(0,0,0,0)" stroke-width="1"/>
            <path id="Tracé_3098" data-name="Tracé 3098" d="M427.625,227.774a47.67,47.67,0,0,1,9.739,17.855c3.057,10.739,2.656,13.233,2.656,13.233l-11.362,1.769s2.114-10.435.484-17.429c-2.088-8.957-3.43-14.172-3.43-14.172Z" transform="translate(-161.752 -86.544)" fill="#e2524b" stroke="rgba(0,0,0,0)" stroke-width="1"/>
          </g>
        </g>
        <g id="Groupe_406" data-name="Groupe 406" transform="translate(263.96 141.23)">
          <g id="Groupe_405" data-name="Groupe 405" clip-path="url(#clip-path-5)">
            <path id="Tracé_3099" data-name="Tracé 3099" d="M422.537,232.872a2.161,2.161,0,0,0,1.945.525c1.107-.142,2.184-.515,3.276-.741a6.733,6.733,0,0,1,3.63.014,2.089,2.089,0,0,1,.913.517c.52.751-.318.91-.749,1.029a13.349,13.349,0,0,1-1.85.323,10.085,10.085,0,0,0-2.943.758c-.723.332-1.635.814-1.879,1.643a1.594,1.594,0,0,0,.753,1.745,3.507,3.507,0,0,0,2.835.071c1.264-.33,2.519-.7,3.788-1.012a6.809,6.809,0,0,1,1.91-.264c.776.035,2.276.423,1.651,1.522a2.473,2.473,0,0,1-1.673.912c-.664.175-1.333.332-2,.485-1.242.286-2.489.558-3.719.9-1.58.433-3.949.976-4.6,2.724-.582,1.568.8,2.915,2.258,3.189a5.553,5.553,0,0,0,2.96-.46,28.849,28.849,0,0,1,3.432-1.2,16.079,16.079,0,0,1,3.8-.456c.975,0,3.253-.156,3.431,1.158.207,1.519-1.859,1.737-2.889,1.7a32.526,32.526,0,0,0-3.7.028,25.121,25.121,0,0,0-3.536.541,5.153,5.153,0,0,0-2.669,1.14,2.76,2.76,0,0,0,.59,3.984c1.719,1.29,3.986.763,5.885.266a16.222,16.222,0,0,1,3.814-.6c1.037-.02,3.211-.15,3.789.951.668,1.271-.855,2.333-1.9,2.548a23.668,23.668,0,0,1-3.722.186,65.354,65.354,0,0,0-7.576.766c-1.3.208-3.835.543-3.067,2.507.752,1.924,3.284,2.019,4.988,1.789a19.166,19.166,0,0,1,7.419-.037c1,.25,2.878.728,2.755,2.066-.037.4.587.4.624,0,.184-2-2.728-2.623-4.168-2.867a24.558,24.558,0,0,0-7.044.267,4.292,4.292,0,0,1-3.594-.856c-.513-.515-.681-1.328.025-1.749a4.787,4.787,0,0,1,1.634-.42,63.961,63.961,0,0,1,8-.843c1.824-.077,4.512.345,5.809-1.289a2.056,2.056,0,0,0-1.321-3.437,14.72,14.72,0,0,0-6.773.451c-1.967.513-6.034,1.133-6.166-1.992-.061-1.458,1.38-1.884,2.545-2.163a23.949,23.949,0,0,1,3.944-.607c1.272-.087,2.523.007,3.792,0a3.46,3.46,0,0,0,2.442-.75,2.037,2.037,0,0,0,.65-1.9,1.982,1.982,0,0,0-1.677-1.294,15.166,15.166,0,0,0-6.853.445c-2,.56-5.069,2.69-6.935.821-.981-.983-.368-2.189.642-2.839a11.5,11.5,0,0,1,3.259-1.212c1.279-.345,2.574-.623,3.864-.923a9.236,9.236,0,0,0,3.213-1.011,1.643,1.643,0,0,0,.734-1.8,2.238,2.238,0,0,0-1.94-1.235,8.631,8.631,0,0,0-3.33.468,37.852,37.852,0,0,1-3.832,1c-.709.111-2-.025-1.959-1.03.029-.7.79-1.1,1.357-1.378a11.439,11.439,0,0,1,3.6-.882c.774-.109,2.132-.221,2.594-.967.378-.611-.11-1.274-.616-1.615-1.795-1.213-4.211-.6-6.138-.122-.936.23-2.509.892-3.3.069-.279-.29-.72.151-.441.441" transform="translate(-424.472 -229.295)" fill="#a83b24" stroke="rgba(0,0,0,0)" stroke-width="1"/>
          </g>
        </g>
        <g id="Groupe_408" data-name="Groupe 408">
          <g id="Groupe_407" data-name="Groupe 407" clip-path="url(#clip-path-2)">
            <path id="Tracé_3101" data-name="Tracé 3101" d="M416.136,221.561l4.737-8.428,13.8-.887-7.108,6.02-7.232,4.239,9.92-1.716,10.122,7.364-11.081-.076-8.183-3.715,7.2,6.472s-.97,9.275-1.029,8.827-7.242-5.151-7.242-5.151l-.665-9.466-5.168,3.6s-1.878,13.278-1.891,12.437-6.564-12.87-6.564-12.87l9.061-4.578-6.139-2.483-7.944,3.714,8.815-10.24,6.688,2.326Z" transform="translate(-152.26 -80.644)" fill="#0e353c" stroke="rgba(0,0,0,0)" stroke-width="1"/>
            <path id="Tracé_3102" data-name="Tracé 3102" d="M62.816,199.263a39.66,39.66,0,0,0-6.129,15.773c-1.376,9.187-.779,11.2-.779,11.2l9.564.247s-2.858-8.385-2.261-14.33c.766-7.614,1.317-12.06,1.317-12.06Z" transform="translate(-21.194 -75.711)" fill="#e2524b" stroke="rgba(0,0,0,0)" stroke-width="1"/>
          </g>
        </g>
        <g id="Groupe_410" data-name="Groupe 410" transform="translate(34.585 123.552)">
          <g id="Groupe_409" data-name="Groupe 409" clip-path="url(#clip-path-7)">
            <path id="Tracé_3103" data-name="Tracé 3103" d="M64.142,202.826c-.581.756-2.106.335-2.9.247a11.748,11.748,0,0,0-2.7-.085c-.849.1-3.058.75-2.624,2.028.207.609,1.055.668,1.589.72a25.541,25.541,0,0,1,3.216.2,3.283,3.283,0,0,1,1.672.723c.713.808-.324,1.474-1.076,1.507a17.215,17.215,0,0,1-2.93-.339c-1.347-.181-3.666-.714-4.616.67a1.179,1.179,0,0,0,.107,1.474,2.951,2.951,0,0,0,2.006.736,45.685,45.685,0,0,1,6.6.865c.889.246,2.182.876,1.86,2.033-.363,1.3-1.966,1.456-3.069,1.257-1.05-.191-2.054-.545-3.117-.692a13.864,13.864,0,0,0-2.9-.1c-1.142.084-3.557.149-3.918,1.576-.38,1.5,1.448,2.134,2.586,2.025,1.017-.1,2.012-.336,3.035-.411a20.5,20.5,0,0,1,3.171.014c1,.082,2.5.129,2.766,1.347a2.208,2.208,0,0,1-1.683,2.442c-1.929.639-4.093-.209-6.079-.079-1.218.079-3.529.2-4.012,1.616-.454,1.329.92,2.382,2.081,2.529a16.285,16.285,0,0,0,3.393-.221q1.961-.17,3.929-.2a31.691,31.691,0,0,1,3.525.073c.791.078,1.474.606.959,1.442a2.621,2.621,0,0,1-1.516,1.036,14.5,14.5,0,0,1-3.746.162,13.964,13.964,0,0,0-3.052.415c-1.331.345-3.978,1.161-3.619,2.987.064.328.565.189.5-.138-.247-1.26,1.853-1.926,2.732-2.2a12.749,12.749,0,0,1,3.165-.535c1.727-.084,3.756.374,5.265-.714.912-.658,1.543-2.184.221-2.778a5.438,5.438,0,0,0-2.011-.246q-1.664-.054-3.329,0t-3.322.2a10.841,10.841,0,0,1-3.284.158c-1.226-.275-2.113-1.821-.642-2.507a8.515,8.515,0,0,1,3.336-.587c1.832-.027,3.73.65,5.533.118a2.785,2.785,0,0,0,2.2-2.848c-.165-1.572-1.717-1.843-3.021-1.969a23.769,23.769,0,0,0-6.045.309,3.329,3.329,0,0,1-1.647-.024c-.629-.236-1.264-1.055-.645-1.682.693-.7,2.434-.747,3.318-.8a13.462,13.462,0,0,1,3.18.175c.982.175,1.926.529,2.915.662,1.334.179,3.149-.309,3.391-1.877.212-1.373-1.135-2.156-2.265-2.471a35.645,35.645,0,0,0-5.84-.782,9.058,9.058,0,0,1-1.871-.273,1.208,1.208,0,0,1-.744-.533c-.317-.7.407-1.073.875-1.223a7.092,7.092,0,0,1,3.069.049,20.281,20.281,0,0,0,3.209.376,1.865,1.865,0,0,0,1.733-.985c.755-1.687-2-2.305-3.09-2.408-.546-.051-1.093-.03-1.639-.038-.444-.007-2.312.075-1.693-.931a2.671,2.671,0,0,1,1.522-.746,6.4,6.4,0,0,1,1.6-.11c1,.035,1.978.224,2.971.28a2,2,0,0,0,1.871-.658c.2-.265-.247-.524-.448-.262" transform="translate(-53.977 -200.576)" fill="#a83b24" stroke="rgba(0,0,0,0)" stroke-width="1"/>
          </g>
        </g>
        <g id="Groupe_412" data-name="Groupe 412">
          <g id="Groupe_411" data-name="Groupe 411" clip-path="url(#clip-path-2)">
            <path id="Tracé_3105" data-name="Tracé 3105" d="M57.907,194.55,53.1,188.1l-12.522,5.955,7.548-1.005,6.419,2.725-8.368-.357-7.566,7.157,9.136-1.246,6.355-3.939L48.852,203.5s1.791,7.55,1.791,7.174,5.426-5.024,5.426-5.024l-.463-7.881,4.648,2.414s2.333,8.731,2.253,8.036S65.679,197,65.679,197l-6.459-.885,4.8-2.7,6.951,2.217-8.366-7.508-5.27,2.633Z" transform="translate(-14.67 -71.471)" fill="#0e353c" stroke="rgba(0,0,0,0)" stroke-width="1"/>
            <path id="Tracé_3106" data-name="Tracé 3106" d="M139.785,87.965c4.526-9.728,19.991-8.223,23.574-.664,8.627-5.554,9.586,3.1,9.586,3.1s18.015-5.818,28.116,1.046,11.6,13.053,11.6,13.053,7.134-4.184,13.777-.388,4.9,7.317,2.393,8.818-20.22.365-20.22.365l-85.213-1.48s-13.669.59-17.159-.027-6.126-7.181.146-9.3c4.659-1.572,6.385,1.863,6.385,1.863a13.241,13.241,0,0,1,6.658-10.2c6.334-3.549,15.107-.324,15.107-.324s-3.77-6.941,5.247-5.867" transform="translate(-38.982 -30.832)" fill="#fcf9da" stroke="rgba(0,0,0,0)" stroke-width="1"/>
          </g>
        </g>
      </g>
    </g>
  </g>
</svg>
