<svg xmlns="http://www.w3.org/2000/svg" xmlns:xlink="http://www.w3.org/1999/xlink" width="232" height="232" viewBox="0 0 232 232">
  <defs>
    <clipPath id="clip-path">
      <circle id="Ellipse_26" data-name="Ellipse 26" cx="116" cy="116" r="116" transform="translate(2542 -799)" fill="#fff"/>
    </clipPath>
    <clipPath id="clip-path-2">
      <path id="Tracé_3222" data-name="Tracé 3222" d="M0,85.181l31.914,117.3L174.145,225.55l93.341-46.015,18.578-69.174L193.572,67.416Z" transform="translate(0 -67.416)" fill="none"/>
    </clipPath>
    <clipPath id="clip-path-3">
      <rect id="Rectangle_798" data-name="Rectangle 798" width="287.748" height="294.383" fill="none"/>
    </clipPath>
  </defs>
  <g id="Groupe_de_masques_5" data-name="Groupe de masques 5" transform="translate(-2542 799)" clip-path="url(#clip-path)">
    <g id="Groupe_479" data-name="Groupe 479" transform="translate(2508.568 -840.753)">
      <g id="Groupe_449" data-name="Groupe 449" transform="translate(0)">
        <path id="Tracé_3219" data-name="Tracé 3219" d="M78.557,21.373,6.167,91.288,29.411,222.244,162.57,251.423,256.3,215.076l26.328-104L221,21.373Z" transform="translate(5.124 17.758)" fill="#fff8d2"/>
        <path id="Tracé_3220" data-name="Tracé 3220" d="M0,85.181l31.914,117.3,142.231,23.073,93.341-46.015,18.578-69.174L193.572,67.416Z" transform="translate(0 56.013)" fill="#54cc96"/>
        <g id="Groupe_446" data-name="Groupe 446" transform="translate(0 123.43)">
          <g id="Groupe_445" data-name="Groupe 445" clip-path="url(#clip-path-2)">
            <path id="Tracé_3221" data-name="Tracé 3221" d="M24.2,61A37.954,37.954,0,0,1,38.638,89.16c.183,4.965-.8,10.308-4.308,13.83-2.435,2.45-5.775,3.722-8.913,5.167-8.722,4.021-16.846,10.2-21.049,18.829s-3.66,19.971,3.01,26.879c7.631-4.628,12.616-12.53,19.306-18.439s17.157-9.634,24.341-4.337c2.137,1.576,3.83,4.178,3.29,6.778-.416,2.008-2.032,3.523-3.621,4.821-8,6.536-17.933,11.771-22.093,21.229-1.653,3.759-1.844,8.936,1.58,11.2,3.647,2.417,8.369-.117,12.441-1.719,6.381-2.508,14.6-2.137,18.986,3.131,9.184,11.02-5.6,31.116,4.751,41.046,4.286,4.11,11.388,4.043,16.613,1.218s8.9-7.832,11.9-12.955c3.618-6.157,6.573-12.833,7.486-19.916.551-4.284.3-8.83-1.778-12.618s-6.273-6.617-10.564-6.128c-2.155.245-4.273,1.278-6.4.864a7.225,7.225,0,0,1-3.9-2.536c-5.071-5.826-4.277-15.052-.258-21.646,4.769-7.829,15.293-13.014,23.362-8.664,6.624,3.572,9.006,11.683,13.146,17.966,4.877,7.41,14.5,12.86,22.631,9.3,8.33-3.643,10.687-14.281,10.844-23.371.168-9.846-1.067-20.061-6.144-28.5S128.61,95.91,118.839,97.133C107.6,98.539,99.827,108.6,90.557,115.1c-1.783,1.25-3.779,2.422-5.958,2.415-4.555-.015-7.428-4.929-8.541-9.345-3.36-13.329,1.252-28.691,12.269-36.91s28.023-7.847,37.822,1.791c4.059,3.993,6.749,9.173,10.573,13.393s9.555,7.55,15.046,6.042c2.655-.731,4.888-2.5,7-4.268,9.6-8.078,20.321-17.9,32.71-15.923,4.222.674,8.832,3.955,8.1,8.166-.436,2.5-2.6,4.277-4.539,5.921a75.563,75.563,0,0,0-22.245,32.232c-1.276,3.6-2.287,7.41-1.838,11.2.945,7.981,7.834,13.675,13.587,19.286s11.13,13.708,8.155,21.172c-1.9,4.773-6.7,7.677-11.315,9.927a118.444,118.444,0,0,1-25.156,8.905c-8.426,1.948-17.582,3.219-23.984,9.034-3.768,3.424-6.157,8.091-8.1,12.8-2.331,5.639-4.162,11.721-3.4,17.778s4.674,12.049,10.564,13.647,12.192-1.51,16.467-5.883,7.115-9.912,10.679-14.881c7.585-10.579,21.721-18.944,33.34-13.076,4.282,2.162,7.488,5.923,11.124,9.05a44.946,44.946,0,0,0,16.015,8.845c5.013,1.545,11.423,1.761,14.5-2.488a10.509,10.509,0,0,0,1.629-6.855c-.557-8.636-7.128-15.465-11.511-22.924S217.7,175.419,225,170.769c6.661-4.242,15.335.264,21.536,5.152s13.449,10.625,21.088,8.622c9.22-2.417,11.934-14.063,12.3-23.589.575-14.826-.709-30.636-9.44-42.634-4.411-6.06-12.01-11.1-19.1-8.662-4.458,1.531-7.477,5.59-10.211,9.429L223.932,143.3c-1.174,1.65-2.439,3.374-4.3,4.185-4.57,1.994-9.464-2.759-10.742-7.58-2.391-9.023,2.118-18.488,7.94-25.784s13.105-13.5,17.781-21.575,6.111-19.145.059-26.253" transform="translate(1.4 -72.748)" fill="none" stroke="#0d292f" stroke-width="1"/>
          </g>
        </g>
        <path id="Tracé_3223" data-name="Tracé 3223" d="M104.1,142.84l25.032-36.6,35.566,1.047L182.678,134.3,173.057,170.7,130.3,182.557Z" transform="translate(86.491 88.267)" fill="#d93a3a"/>
        <g id="Groupe_448" data-name="Groupe 448">
          <g id="Groupe_447" data-name="Groupe 447" clip-path="url(#clip-path-3)">
            <path id="Tracé_3224" data-name="Tracé 3224" d="M122.66,122.33s-9.4,9.764-2.554,22.516c5.026,9.359,16,9.336,24.444,3.779a16.635,16.635,0,0,0,5.879-21c-3.953-8.5-15.379-10.035-15.379-10.035" transform="translate(97.716 97.703)" fill="none" stroke="#fff8d2" stroke-linecap="round" stroke-width="2"/>
            <line id="Ligne_55" data-name="Ligne 55" x2="7.023" y2="22.148" transform="translate(223.15 208.066)" fill="none" stroke="#fff8d2" stroke-linecap="round" stroke-width="2"/>
            <path id="Tracé_3225" data-name="Tracé 3225" d="M95.881,85.126S94.493,96.349,103.512,96.5s7.475-9.251,7.475-9.251Z" transform="translate(79.6 70.728)" fill="#0d292f"/>
            <path id="Tracé_3226" data-name="Tracé 3226" d="M119.319,86.969s-1.388,11.223,7.631,11.373,7.475-9.251,7.475-9.251Z" transform="translate(99.074 72.26)" fill="#0d292f"/>
            <path id="Tracé_3227" data-name="Tracé 3227" d="M154.18,35.323l-21.439-4.156L102.22,49.2,91.107,134.135l75.633,6.646V62.768ZM128.933,42.61l5.2-6.939,15.251,4.522,1.575,9.356Z" transform="translate(75.698 25.896)" fill="#7ab5ce"/>
            <path id="Tracé_3228" data-name="Tracé 3228" d="M89.215,29.1S95.46,4.821,113.5,1.7s39.547,31.22,15.264,45.79S92.684,75.7,92.684,88.424c0,19.166,23.935,30.261,35.731,10.621" transform="translate(74.126 1.246)" fill="none" stroke="#0d292f" stroke-width="3"/>
            <path id="Tracé_3229" data-name="Tracé 3229" d="M23.416,99.407,62.038,84.373l66.583,14.4v34.99Z" transform="translate(19.456 70.103)" fill="#7ab5ce"/>
            <path id="Tracé_3230" data-name="Tracé 3230" d="M128.421,132.5v-5.482L23.657,92.49v5.32Z" transform="translate(19.656 76.847)" fill="#096eb7"/>
            <path id="Tracé_3231" data-name="Tracé 3231" d="M52.147,155.994l1.607,6.047,11.794,4.1,4.6-5.071L125.717,14.28h-7.979Z" transform="translate(43.327 11.864)" fill="#7ab5ce"/>
            <rect id="Rectangle_796" data-name="Rectangle 796" width="5.035" height="8.539" transform="translate(232.542 91.752)" fill="#096eb7"/>
            <rect id="Rectangle_797" data-name="Rectangle 797" width="5.035" height="8.539" transform="translate(224.146 91.752)" fill="#d93a3a"/>
            <line id="Ligne_56" data-name="Ligne 56" y1="62.314" x2="23.591" transform="translate(113.475 110.616)" fill="none" stroke="#0d292f" stroke-width="1"/>
          </g>
        </g>
      </g>
    </g>
  </g>
</svg>
