<svg xmlns="http://www.w3.org/2000/svg" xmlns:xlink="http://www.w3.org/1999/xlink" width="232" height="232" viewBox="0 0 232 232">
  <defs>
    <clipPath id="clip-path">
      <circle id="Ellipse_21" data-name="Ellipse 21" cx="116" cy="116" r="116" transform="translate(1969 -428)" fill="#fff"/>
    </clipPath>
    <clipPath id="clip-path-2">
      <rect id="Rectangle_790" data-name="Rectangle 790" width="332.152" height="245.208" fill="none"/>
    </clipPath>
    <clipPath id="clip-path-3">
      <path id="Tracé_3112" data-name="Tracé 3112" d="M11.33,90.095l24.522,49.98,142.483,4.885,106.677-9.319,19.131-45.546Z" transform="translate(-11.33 -90.095)" fill="none"/>
    </clipPath>
    <clipPath id="clip-path-5">
      <rect id="Rectangle_787" data-name="Rectangle 787" width="11.028" height="16.57" fill="none"/>
    </clipPath>
  </defs>
  <g id="Groupe_de_masques_3" data-name="Groupe de masques 3" transform="translate(-1969 428)" clip-path="url(#clip-path)">
    <g id="Groupe_477" data-name="Groupe 477" transform="translate(1922.684 -441.208)">
      <g id="Groupe_425" data-name="Groupe 425" clip-path="url(#clip-path-2)">
        <path id="Tracé_3108" data-name="Tracé 3108" d="M11.33,90.1l24.522,49.98,142.483,4.884,106.678-9.319L304.143,90.1Z" transform="translate(9.741 77.456)" fill="#f4c8b2"/>
        <path id="Tracé_3109" data-name="Tracé 3109" d="M249.681,0,69,17.21,0,92.508l19.352,75.041H312.166l13.979-96.376Z" transform="translate(0 0)" fill="#8ec0d6"/>
        <path id="Tracé_3110" data-name="Tracé 3110" d="M8.51,94.094l.478-8.651H309.51l-1.717,8.651Z" transform="translate(7.316 73.456)" fill="#0d292f"/>
        <g id="Groupe_416" data-name="Groupe 416" transform="translate(21.071 167.551)">
          <g id="Groupe_415" data-name="Groupe 415" clip-path="url(#clip-path-3)">
            <path id="Tracé_3111" data-name="Tracé 3111" d="M6.177,128.444c4.45,1.527,9.113.112,12.648-2.821,4.14-3.437,5.986-8.6,6.555-13.818.675-6.184-.409-12.347-.526-18.528-.117-6.124.6-14.805,7.55-16.966,5.3-1.646,11.716.164,16.438,2.708A23.741,23.741,0,0,1,59.32,89.626c5.419,11.709-3.907,22.984-10.7,31.712-6.059,7.79-12.9,18.662-9.239,28.945,3.628,10.187,16.656,14.9,26.518,15.752,4.575.4,8.895-1.2,10.773-5.622,1.7-4,1.146-8.815-.338-12.787-2-5.362-5.886-10.818-5.177-16.8a5.52,5.52,0,0,1,2.276-4.255,10.461,10.461,0,0,1,4.476-.889,18.938,18.938,0,0,1,8.077.926c6.159,2.386,6.319,8.72,5.531,14.331-.656,4.672-1.761,9.631-.247,14.258a17.61,17.61,0,0,0,9.083,9.938c3.872,1.934,9.769,3.636,13.892,1.542,4.3-2.183,4.783-7.829,4.329-12.073-.6-5.6-3.108-10.8-6.306-15.361-6.773-9.665-17.137-16.592-22.644-27.18C84.42,102.045,85.346,88.2,97.4,83.965c9.853-3.463,24.712-.8,31.057,8.021,3.426,4.761,4.387,10.855,5.289,16.512,1.036,6.513,1.815,13.312.547,19.852-1.224,6.31-5.217,11.422-6.885,17.548a21.44,21.44,0,0,0,.677,12.964c3.225,8.716,12.41,16.334,22.175,14.184,4.5-.989,7.891-4.508,9.659-8.642,2.206-5.157,1.709-10.887.188-16.163-3.446-11.949-11.255-22.6-11.982-35.307-.335-5.825.783-12.06,4.56-16.689a16.041,16.041,0,0,1,13-5.743,11.569,11.569,0,0,1,10.716,8.914c1.51,5.551.324,11.515-.854,17.011a178.756,178.756,0,0,1-5.462,19.849c-2.049,6.057-4.735,12-5.782,18.348-.885,5.362-.487,10.864,2.537,15.512,2.449,3.766,6.383,6.905,11,7.229,9.323.656,13.448-9.12,13.946-16.884.761-11.843-5.029-23.278-3.119-35.182.826-5.138,2.964-10.381,7.087-13.743a12.7,12.7,0,0,1,13.408-1.648c4.305,1.951,6.9,6.018,5.622,10.753-.753,2.8-2.514,5.235-4.123,7.6a77.475,77.475,0,0,0-4.975,8.263c-4.551,8.9-8.144,19.532-6.628,29.649.591,3.959,2.044,8.028,4.951,10.892s6.9,3.853,10.877,3.842a19.777,19.777,0,0,0,12.1-3.809c3.814-3,5.914-8.4,7.19-12.945a23.1,23.1,0,0,0-1-15.553c-2.338-6.029-5.257-11.837-6.829-18.138-2.99-12-2.083-26.62,4.653-37.295,3.171-5.027,8.6-9.068,14.827-8.345,5.665.658,8.809,5.436,9.624,10.686.757,4.871-.028,9.881-1.049,14.647q-2.159,10.073-4.861,20.018c-1.765,6.516-4.134,12.985-5.179,19.668-.8,5.1-.026,10.148-.08,15.27-.033,3.126.6,5.973,3.993,6.842,5.261,1.348,10.677-1.438,14.954-4.223a33.828,33.828,0,0,0,10.426-10.013c3.07-4.891,3.578-10.4,2.62-16.014-1.953-11.458-9.944-24.606-3.411-35.993,2.624-4.575,8.5-7.788,13.758-5.934,5.363,1.889,6.319,7.818,6.308,12.78-.011,4.688-.664,9.414.028,14.082A21.855,21.855,0,0,0,327,141.365c1.231-.833.071-2.847-1.173-2.007a19.742,19.742,0,0,1-29.417-8.748c-3.587-8.906,1.642-19.486-3.134-28-4.614-8.218-16.094-6.619-21.24.138-7.184,9.427-2.851,21.928.119,32.011,1.912,6.5,3.68,13.6.487,20-2.412,4.832-6.688,8.5-11.184,11.337a23.592,23.592,0,0,1-8.345,3.669c-2.062.357-5.607.578-6.34-1.958-.482-1.668-.13-3.652-.13-5.358,0-2.676-.506-5.309-.426-7.989.2-6.924,2.749-13.615,4.6-20.217s3.539-13.273,5.044-19.973c1.878-8.356,4.525-19.343-1.183-26.858-6.466-8.514-18.523-4.891-24.212,2.459-7.02,9.068-8.895,22.4-7.716,33.518a64.632,64.632,0,0,0,5.008,18.2c2.25,5.391,5.527,11.127,5.06,17.145a28.534,28.534,0,0,1-2.133,8.389c-1.054,2.605-2.382,5.629-4.474,7.576-3.48,3.24-8.888,4.268-13.487,3.777-10.567-1.125-12.661-12.979-11.393-21.738a61.2,61.2,0,0,1,5.27-16.853,68.853,68.853,0,0,1,4.311-7.85,80.356,80.356,0,0,0,4.911-7.749c1.821-3.732,2.379-8.038.047-11.679a14.255,14.255,0,0,0-9.466-5.968c-9.183-1.676-16.185,5.276-18.893,13.479-3.831,11.6.64,23.345,1.817,34.964.8,7.9-2.23,23.285-13.661,19.5-5.657-1.876-9.131-8-9.462-13.689-.4-6.872,2.328-13.47,4.627-19.8a184.279,184.279,0,0,0,5.735-18.811c1.371-5.579,2.8-11.365,2.814-17.147.007-4.515-1-9.14-4.073-12.592A13.991,13.991,0,0,0,163.908,88.2c-9.829.634-16.388,8.594-17.8,17.922-1.763,11.6,3.387,22.333,7.9,32.668,2.708,6.2,5.706,12.994,5.012,19.927-.536,5.341-3.831,10.883-9.38,12.094-11.439,2.494-20.961-9.836-20.607-20.258.2-5.882,3.749-10.719,5.866-16.012,2.326-5.823,2.646-12.187,2.139-18.374-.846-10.3-2.139-23.31-11.1-29.945-7.731-5.72-19.715-7.664-28.846-4.6-9.555,3.2-14.076,12.27-12.633,21.989,1.717,11.545,10.368,19.737,18.073,27.752,4.2,4.365,8.231,8.947,10.961,14.4a26.751,26.751,0,0,1,2.765,8.839c.335,2.912.366,6.781-1.782,9.055-3.716,3.937-12.2.376-15.757-2.234-4.887-3.589-6.284-8.785-5.687-14.6.489-4.746,1.958-9.671.833-14.433a11.673,11.673,0,0,0-9.083-8.573c-3.8-.885-10.385-1.345-13.488,1.473-3.654,3.318-2.7,9.317-1.253,13.433,1.841,5.229,5.177,10.009,5.332,15.707a10.747,10.747,0,0,1-1.6,6.524c-1.824,2.572-4.915,3.007-7.859,2.762C54.174,162.733,39,155.7,40.94,141.769c1.677-12.017,11.558-20.223,17.544-30.1,5.226-8.62,6.825-18.878.325-27.306-5.652-7.327-16.336-12.393-25.647-10.63C20.48,76.141,22.431,92.661,23.07,102.1c.409,6.02.588,12.687-2.6,18.065-2.743,4.636-8.324,7.87-13.68,6.033-1.417-.487-2.027,1.757-.617,2.241" transform="translate(-16.448 -104.461)" fill="#97291a"/>
          </g>
        </g>
        <g id="Groupe_424" data-name="Groupe 424">
          <g id="Groupe_423" data-name="Groupe 423" clip-path="url(#clip-path-2)">
            <path id="Tracé_3113" data-name="Tracé 3113" d="M162.4,31.213c0,9.73-8.467,17.619-18.91,17.619s-18.911-7.889-18.911-17.619,8.467-17.619,18.911-17.619,18.91,7.889,18.91,17.619" transform="translate(107.102 11.687)" fill="#7ab5ce"/>
            <path id="Tracé_3114" data-name="Tracé 3114" d="M37.236,112.827,34.264,71.952l35.753.757-7.329,40.118Z" transform="translate(29.457 61.858)" fill="#d93a3a"/>
            <path id="Tracé_3115" data-name="Tracé 3115" d="M59.706,75.2A47.137,47.137,0,0,1,57.493,83.6l-4.017-.037-6.286-.056-7.4-.074s-.353-3.18-1.06-7.309c-.688-4.129-.074-4.854,1.339-5.114a15.712,15.712,0,0,1,2.38-.13c1.823,0,3.868.093,3.868.093L47.079,67l1.488-7.755h1.19l1.488,11.735s6.769.019,7.662.762c.837.688,1,1.711.8,3.459" transform="translate(33.052 50.931)" fill="#7ab5ce"/>
            <path id="Tracé_3116" data-name="Tracé 3116" d="M36.341,52.594l2.232,16.914,27.9.7,1.761-17.619Z" transform="translate(31.243 45.216)" fill="#fff8d2"/>
            <g id="Groupe_419" data-name="Groupe 419" transform="translate(75.5 117.928)" opacity="0.44">
              <g id="Groupe_418" data-name="Groupe 418">
                <g id="Groupe_417" data-name="Groupe 417" clip-path="url(#clip-path-5)">
                  <path id="Tracé_3117" data-name="Tracé 3117" d="M51.626,79.982l-6.286-.056L40.6,67.3c1.823,0,3.868.093,3.868.093l.762-3.98Z" transform="translate(-40.597 -63.412)" fill="#fff"/>
                </g>
              </g>
            </g>
            <path id="Tracé_3118" data-name="Tracé 3118" d="M123,112.827l-2.972-40.875,35.753.757-7.329,40.118Z" transform="translate(103.193 61.858)" fill="#d93a3a"/>
            <path id="Tracé_3119" data-name="Tracé 3119" d="M145.474,75.2a47.137,47.137,0,0,1-2.213,8.406l-4.017-.037-6.286-.056-7.4-.074s-.353-3.18-1.06-7.309c-.688-4.129-.074-4.854,1.339-5.114a15.712,15.712,0,0,1,2.38-.13c1.823,0,3.868.093,3.868.093l.762-3.98,1.488-7.755h1.19l1.488,11.735s6.769.019,7.662.762c.837.688,1,1.711.8,3.459" transform="translate(106.788 50.931)" fill="#7ab5ce"/>
            <path id="Tracé_3120" data-name="Tracé 3120" d="M122.109,52.594l2.232,16.914,27.9.7L154,52.594Z" transform="translate(104.979 45.216)" fill="#fff8d2"/>
            <g id="Groupe_422" data-name="Groupe 422" transform="translate(235.004 117.928)" opacity="0.44">
              <g id="Groupe_421" data-name="Groupe 421">
                <g id="Groupe_420" data-name="Groupe 420" clip-path="url(#clip-path-5)">
                  <path id="Tracé_3121" data-name="Tracé 3121" d="M137.394,79.982l-6.286-.056L126.366,67.3c1.823,0,3.868.093,3.868.093l.762-3.98Z" transform="translate(-126.366 -63.412)" fill="#fff"/>
                </g>
              </g>
            </g>
            <path id="Tracé_3122" data-name="Tracé 3122" d="M127.895,20.223c6.641-.167,17.97-.166,24.133,0" transform="translate(109.953 17.278)" fill="none" stroke="#0d292f" stroke-width="1"/>
            <path id="Tracé_3123" data-name="Tracé 3123" d="M127.895,23.708c6.641-.169,17.97-.166,24.133,0" transform="translate(109.953 20.274)" fill="none" stroke="#0d292f" stroke-width="1"/>
            <path id="Tracé_3124" data-name="Tracé 3124" d="M127.895,27.192c6.641-.169,17.97-.166,24.133,0" transform="translate(109.953 23.269)" fill="none" stroke="#0d292f" stroke-width="1"/>
            <path id="Tracé_3125" data-name="Tracé 3125" d="M61.7,140.143,53.447,43.686H177.274l-10.589,97.391Z" transform="translate(45.949 37.557)" fill="#0d292f"/>
            <path id="Tracé_3126" data-name="Tracé 3126" d="M66.579,81a26.44,26.44,0,0,1,16.332-9.626c10.918-1.884,53.671-1.979,65.888-1.345S175.523,71.372,179.9,81c4.61,14.329,26.222,58.962,26.222,62.957S194.84,185.3,194.84,185.3H52.25l-9.4-44.633Z" transform="translate(36.841 59.905)" fill="#b8e1f3"/>
            <path id="Tracé_3127" data-name="Tracé 3127" d="M89.437,55.937s29.59,4.934,42.98,0a193.439,193.439,0,0,0-3.171,29.246s-26.938-3.7-39.809-1.938a185.465,185.465,0,0,0,0-27.308" transform="translate(76.89 48.09)" fill="#fff8d2"/>
            <path id="Tracé_3128" data-name="Tracé 3128" d="M105.7,55.937s-29.59,4.934-42.98,0a193.442,193.442,0,0,1,3.171,29.246s26.938-3.7,39.809-1.938a185.465,185.465,0,0,1,0-27.308" transform="translate(53.922 48.09)" fill="#fff8d2"/>
            <path id="Tracé_3129" data-name="Tracé 3129" d="M85.688,63.824c5.021-4.14,9.514-4.4,14.887-.177,7.311,5.754,7.489,15.768-.792,20.174s-16.12.539-18.06-5.979a12.853,12.853,0,0,1,3.965-14.019" transform="translate(69.706 52.095)" fill="#f4c8b2"/>
            <path id="Tracé_3130" data-name="Tracé 3130" d="M138.221,25.468c2.819,19.38,35.941,3.524,39.818,23.609S157.6,72.45,167.82,84.724s39.112-4.532,41.226,16.2" transform="translate(118.83 21.895)" fill="none" stroke="#2e80ca" stroke-linecap="round" stroke-width="0.75"/>
            <path id="Tracé_3131" data-name="Tracé 3131" d="M178.753,29.145c-.643-6.41-44.691,11.37-43.242-11.2.854-13.312,19.692-16.431,17.1,3.005s-24.065,27.937-34.449,11.634S92.77,14.95,75.653,28.765" transform="translate(65.04 6.164)" fill="none" stroke="#2e80ca" stroke-linecap="round" stroke-width="0.75"/>
            <path id="Tracé_3132" data-name="Tracé 3132" d="M179.515,25.49C173.143,24.609,168.8,36.1,150.946,45.4c-25.709,13.39-52.327,10.042-54.618-2.466C93.3,26.37,119.039,30.6,114.73,44.165s-24.92,17.8-43.772,6.343" transform="translate(61.003 21.873)" fill="none" stroke="#2e80ca" stroke-linecap="round" stroke-width="0.75"/>
          </g>
        </g>
      </g>
    </g>
  </g>
</svg>
