<svg xmlns="http://www.w3.org/2000/svg" xmlns:xlink="http://www.w3.org/1999/xlink" viewBox="0 0 329.5 556.64"><defs><style>.cls-1,.cls-13,.cls-17,.cls-20,.cls-21,.cls-22,.cls-9{fill:none;}.cls-2{clip-path:url(#clip-path);}.cls-3{fill:#ed8248;stroke:#ed8248;stroke-width:0.54px;}.cls-13,.cls-17,.cls-20,.cls-21,.cls-22,.cls-3,.cls-9{stroke-miterlimit:10;}.cls-4{fill:#fcf8da;}.cls-5{fill:#f9ddcf;}.cls-6{fill:#f7c9b2;}.cls-7{fill:#2e80ca;}.cls-8{fill:#0b484f;}.cls-22,.cls-9{stroke:#051416;}.cls-13,.cls-17,.cls-9{stroke-width:0.58px;}.cls-10{clip-path:url(#clip-path-2);}.cls-11{fill:#051416;}.cls-12{fill:#fcf9da;}.cls-13{stroke:#fcf9da;}.cls-14{fill:#e2524b;}.cls-15{fill:#fff;}.cls-16{fill:#f6d3bf;}.cls-17{stroke:#e2524b;}.cls-18{clip-path:url(#clip-path-3);}.cls-19{fill:#f5d2be;}.cls-20,.cls-21{stroke:#f5d2be;}.cls-20{stroke-width:6.27px;}.cls-21{stroke-width:4.48px;}.cls-22{stroke-width:0.61px;}</style><clipPath id="clip-path" transform="translate(38.02 84.9)"><circle class="cls-1" cx="116.25" cy="116.25" r="116.25"/></clipPath><clipPath id="clip-path-2" transform="translate(38.02 84.9)"><polygon class="cls-1" points="239.04 345.64 254.68 371.03 180.81 408.06 167.62 382.64 239.04 345.64"/></clipPath><clipPath id="clip-path-3" transform="translate(38.02 84.9)"><polygon class="cls-1" points="124.54 382.53 61.09 371.43 55.68 396.11 124.32 407.89 124.54 382.53"/></clipPath></defs><g id="Calque_2" data-name="Calque 2"><g id="Calque_1-2" data-name="Calque 1"><g class="cls-2"><circle class="cls-3" cx="154.27" cy="201.15" r="116.25"/><path class="cls-4" d="M178.86-83.65c-.64,6.38,2.53,12.38,7.12,16.64,5.17,4.78,11.86,7.13,18.64,8.6,7,1.51,14.27,2.19,21.16,4.4A35.77,35.77,0,0,1,235-49.64c2.34,1.59,7.57,5.4,5.28,8.53-3.7,5.07-10.73,6.69-16.65,6.6-6.61-.1-12.85-2.29-18.84-4.91a71.15,71.15,0,0,0-36.63-5.67c-5.3.65-12,2.45-14.85,7.48-2.95,5.29.76,10.35,5.19,13.2a33.15,33.15,0,0,0,7.85,3.52l11.9,3.79c7.71,2.45,15.64,4.58,23.14,7.62,6.5,2.64,12.81,6.68,15.9,13.22,2.82,6,1.41,12.59-3,17.38a22.79,22.79,0,0,1-17.81,7.2c-7.76-.25-15.13-3.53-21.63-7.58s-12.48-9-18.83-13.42a75.31,75.31,0,0,0-21-10.27c-10.52-3.14-24-3.61-32.68,4.23-9.5,8.58-7.21,22.86-.11,32.16,8.62,11.27,23.34,15.18,36.16,19.51q11.5,3.88,22.71,8.58A166,166,0,0,1,181.05,71c10.59,6.21,20.83,15.55,21.66,28.57.69,11-5.45,23-17.72,23.11-15.25.19-24.54-14.07-31.6-25.52A124.51,124.51,0,0,0,141,79.87a97.79,97.79,0,0,0-16.09-14.53c-11.63-8.38-26.1-15-40.77-13.24-6.42.79-13.37,3.24-17,9-3.43,5.43-2.88,12.38,2.14,16.59a45.42,45.42,0,0,0,9,5.37c3.58,1.79,7.24,3.44,11,5,7,2.88,15,4.52,21.35,8.8,5.31,3.57,9.68,10.49,6.38,16.83-3,5.67-9.9,8.13-15.95,7-7.23-1.4-13-6.61-17.41-12.22-4.66-5.92-8.39-12.5-13.12-18.36A107.71,107.71,0,0,0,42.81,66,106.11,106.11,0,0,0,19.82,55C10.93,52.21.57,50.83-8,55.42c-8.27,4.44-14,14.3-11.89,23.7,2,8.83,9.45,15.62,16.57,20.59A76.81,76.81,0,0,0,7.74,106.1a74.66,74.66,0,0,0,9.7,3.57c5.48,1.72,11.26,4.11,15.3,8.34,3.88,4.07,4.91,9.94,1.81,14.8-3.28,5.13-9.72,8-15.6,8.57-8.2.83-16.36-1.1-24.57-.74a41.87,41.87,0,0,0-20,6.12c-5.46,3.36-10.89,8.42-12.11,15-1.16,6.3,2,12.43,6.86,16.29,5.66,4.44,13.08,5.63,20.09,5.71,31.22.34,58.71-19.91,90.1-18.36a49.21,49.21,0,0,1,20.6,5.31c3.12,1.64,6.2,3.77,7.71,7.07s1.14,7.38.15,10.87c-3.59,12.67-14.2,24.18-26.14,29.5-5,2.23-11.53,3.47-16.7,1.13-6.27-2.82-7.13-10.32-4.16-15.93,3.34-6.34,10.38-9.83,16.59-12.75a112.44,112.44,0,0,1,22.35-7.75,123.89,123.89,0,0,1,22.94-3c7.37-.32,14.78-.38,22.09-1.53,6.87-1.07,13.9-3.2,19.44-7.55,4.69-3.67,8.62-9.26,8.14-15.48-.52-6.72-5.58-12.61-10-17.29a65,65,0,0,0-16.42-12.46,1.32,1.32,0,0,0-1.79,1.79c4.61,10.65,9.56,21.9,19,29.16a30.76,30.76,0,0,0,15.1,6.42,24.94,24.94,0,0,0,15.81-3.8c9.26-5.66,16-15.36,19.65-25.43a54.29,54.29,0,0,0,1.58-32c-3-11.53-9.36-22.61-8.82-34.83.44-10,5.5-19.51,12.87-26.18A37.25,37.25,0,0,1,232.05,33c5.5-1.88,11.19-2,16.95-1.68,6.58.35,13.26,1.06,19.75-.48A29.8,29.8,0,0,0,290.51-5.62c-1.35-5.23-4.2-9.6-7.64-13.69-3.22-3.83-6.87-7.44-9.17-11.94A15.3,15.3,0,0,1,272-38.13a1.31,1.31,0,0,0-2.62,0c.13,10,8.87,16.41,14.23,23.89,6.53,9.11,7.18,21.59.94,31a28,28,0,0,1-11.56,9.88c-5.59,2.59-11.78,2.72-17.82,2.42s-12.21-1-18.27,0a37.14,37.14,0,0,0-13.18,5A42.67,42.67,0,0,0,206,55.65a37,37,0,0,0-2.27,13.7c.17,5.86,1.78,11.57,3.66,17.08s4.09,11,5.48,16.76a50.86,50.86,0,0,1,1.25,16.17A52.08,52.08,0,0,1,202,148.71c-3.62,4.21-8,8.07-13.22,10.18a22.16,22.16,0,0,1-16.26,0c-11.18-4.17-17.85-14.69-22.7-25-1.22-2.59-2.37-5.23-3.51-7.86l-1.78,1.78a62.89,62.89,0,0,1,17.18,13.45c4.63,5.17,9.91,11.9,7.26,19.21-2.39,6.57-9,10.74-15.25,13-7.14,2.54-14.75,3.15-22.26,3.48s-14.94.46-22.37,1.51A114.18,114.18,0,0,0,86.61,184c-6.93,2.46-14.06,5.42-20.13,9.62-5.38,3.72-9.85,9.14-10.08,16a12.74,12.74,0,0,0,8.94,12.69c5.31,1.73,11.41.71,16.47-1.36,11.93-4.89,21.8-15.43,26.85-27.16,2.63-6.1,4.11-13.72-.16-19.46-4-5.38-11.43-8.19-17.7-9.79-14.16-3.61-29.2-1.24-43,2.63-15.13,4.23-29.73,10.45-45.3,13-7.67,1.25-16,1.84-23.62-.18-6.63-1.76-13.34-6.6-14.21-13.91s4.92-13.13,10.54-16.69a39.87,39.87,0,0,1,21.66-6.1c7.91,0,15.83,1.75,23.73.58,5.63-.84,11.4-3.55,15-8a14.27,14.27,0,0,0,2.08-15.15c-2.32-5-7.33-8.35-12.18-10.62-4.16-1.95-8.59-2.94-12.86-4.59a68.09,68.09,0,0,1-10.32-5.16c-7.45-4.47-15.5-10.59-18.8-18.94-3.64-9.2,1.6-19.4,10.11-23.79C2.41,53,13.18,55.33,22,58.53A111.69,111.69,0,0,1,43.16,69.29,103.19,103.19,0,0,1,72.93,97.58c4.28,6.17,8.13,12.82,13.68,18,4.88,4.53,11.26,8.11,18.1,7.93A17.22,17.22,0,0,0,119,115.3c3.15-5.51,1.51-11.91-2.38-16.58C112,93.2,105,90.89,98.4,88.63a151.24,151.24,0,0,1-22.62-9.84c-3-1.63-6.42-3.55-7.72-6.92a10.8,10.8,0,0,1,1.31-9.48c3.93-6.16,12.39-7.92,19.19-8,15-.11,29.21,8,40.36,17.35A95.15,95.15,0,0,1,144.1,87.85c4.42,6,7.94,12.53,12.13,18.65,3.94,5.77,8.54,11.16,14.62,14.72,5.55,3.26,12.21,5,18.6,3.57,10.8-2.51,16.15-13.6,15.92-24-.28-12.65-8.64-22.52-18.7-29.34a116.25,116.25,0,0,0-18.19-9.63q-11.26-5-22.85-9.17c-7-2.52-14.19-4.61-21.14-7.34-6.51-2.56-13.07-5.88-18-11-8.37-8.71-12-24.63-.58-32.56,10.62-7.39,25.63-4.12,36.52.75,14.19,6.36,24.82,18.42,39,24.67,6.68,2.94,14.1,4.62,21.38,3.22A24.55,24.55,0,0,0,217.82,21a17.8,17.8,0,0,0,2.35-17.1C217.68-2.42,212.4-7,206.5-10c-6.85-3.49-14.46-5.44-21.76-7.76l-12.2-3.89a74.16,74.16,0,0,1-10-3.49c-2.53-1.22-5.23-2.84-6.75-5.28a6,6,0,0,1,1.25-7.71c4.49-4.19,11.7-4.68,17.5-4.72a77.67,77.67,0,0,1,18.72,2.09c6.35,1.54,12,4.77,18.21,6.75A37.82,37.82,0,0,0,230-32.44a22.12,22.12,0,0,0,8.22-3.28c2.16-1.47,4.94-3.72,5.32-6.48.45-3.24-2.72-6.13-5-8a32.52,32.52,0,0,0-8.28-4.91c-6.62-2.78-13.73-3.74-20.75-5-6.85-1.23-14-2.81-19.68-7.06-5.18-3.87-9-9.83-8.38-16.48.17-1.67-2.45-1.66-2.61,0Z" transform="translate(38.02 84.9)"/><path class="cls-5" d="M42.65,137.54l-11.72-29-10.76,5.77s5,34.29,9.75,45,10.76,14.62,15,13.24,8.2-10.45,4.09-20.9S42.65,137.54,42.65,137.54Z" transform="translate(38.02 84.9)"/><polygon class="cls-6" points="237.83 465.15 262.45 496.39 282.77 483.82 260.29 450.25 237.83 465.15"/><polygon class="cls-6" points="118.23 475.51 114.96 515.15 138.4 519.8 144.82 479.92 118.23 475.51"/><path class="cls-5" d="M103,77.12c.37.89,1.76,23.33,1.76,23.33l20.19-3.61L122.43,64Z" transform="translate(38.02 84.9)"/><path class="cls-7" d="M81.61,107.09s-9.67-1.39-21.79,18.85c-8.5,14.2-12.62,18.9-12.62,18.9s3.25,9.27-4.85-10.25c-5.94,0-12.41-.54-12.41-.54v14.57l-5.71-14.57L14.3,133s6.5,24.23,14.56,37.22c9.71,15.65,16.5,15.12,22.49,7.15s30.37-39,34.62-45.11S101.84,109.38,81.61,107.09Z" transform="translate(38.02 84.9)"/><path class="cls-7" d="M131.44,98.43l-5-12.24-24.78,6.68s3.5,8,.79,10.48-23.6,1.78-27.5,7.8-.7,14.94,2.85,19.48.15,17.17,5.85,22.93S94,173.85,94,173.85l41.54-4.51s6.27-22,8.84-33.42S142.4,101.06,131.44,98.43Z" transform="translate(38.02 84.9)"/><path class="cls-7" d="M88.57,160.76s-5.65-6.14-6.95-11.23-.86-9.4-2.25-13.57" transform="translate(38.02 84.9)"/><path class="cls-8" d="M129.85,230.34c-1.27,7.42-9.68,155-9.68,155l-54.2-10S79.47,283,83.59,257s10.1-73.16,10.1-73.16l-3-9.85,48.11-6.67-.06,9" transform="translate(38.02 84.9)"/><circle class="cls-9" cx="152.85" cy="261.47" r="2.97"/><path class="cls-9" d="M90.57,207.8a11.71,11.71,0,0,0,12.51-4.46c-.42,12.71-3.14,21.16-8.07,24.59s-7.48,2.24-7.48,2.24" transform="translate(38.02 84.9)"/><path class="cls-8" d="M137.28,174.88c.48.34,16.95,8.11,29.08,33.31s23.24,86.2,23.24,86.2l48.54,63.68-61.71,32.15S141,321,138.08,307s-16.22-76.66-16.22-76.66-8.63-28.21-1.56-40.65S137.28,174.88,137.28,174.88Z" transform="translate(38.02 84.9)"/><path class="cls-9" d="M153.5,189.48s-9.78,10.13-24.05,9.15c4.3,15.48,12.59,28.12,25.33,23.06C169,216,153.5,189.48,153.5,189.48Z" transform="translate(38.02 84.9)"/><path class="cls-9" d="M106.3,174.24l4.61,8.36s5.36,39,8.1,49.32" transform="translate(38.02 84.9)"/><line class="cls-9" x1="176.71" y1="261.28" x2="154.72" y2="266.37"/><line class="cls-9" x1="131.71" y1="268.78" x2="144.98" y2="267.78"/><g class="cls-10"><polygon class="cls-11" points="277.06 430.54 292.7 455.93 218.84 492.96 205.64 467.54 277.06 430.54"/><path class="cls-12" d="M248.86,352c-4.14,2.23-9.09,1.48-13.58,1.11l-15.34-1.29c-2.6-.22-5.2-.51-7.81-.64-1.85-.1-3.83.18-5,1.75a3.11,3.11,0,0,0,.07,4.07c1.23,1.33,3.32,1.65,5,2,9.37,2.07,19.11,1.47,28.45,3.69,4.1,1,8.23,2.61,11.12,5.79,1.5,1.64,2.48,3.82,1.11,5.86s-3.88,2.65-6.2,2.72c-8.85.26-17.78-2.82-26.09-5.49s-16.69-5.46-25.45-6.07a31.24,31.24,0,0,0-6.34,0,3.12,3.12,0,0,0-3,2.91c-.11,3.77,4.4,6.33,7.34,7.63,3.83,1.71,7.91,2.82,11.79,4.44a49,49,0,0,1,11.62,6.56c1.61,1.27,3.69,2.81,4.47,4.78,1.23,3.1-3,2.36-4.67,2.05a84.57,84.57,0,0,1-13.51-4.22,89.39,89.39,0,0,0-28.11-5.77q-3.66-.12-7.3.08a.87.87,0,0,0-.62,1.47c2.24,2.36,5.3,3.41,8.3,4.43a28.36,28.36,0,0,1,9.7,5.34c2.47,2.16,6.05,5.74,3.18,9s-7.47,2.15-11.08,1.27c-1.08-.26-1.55,1.41-.46,1.67,3.92,1,8.45,1.86,11.88-.89a6.31,6.31,0,0,0,2.48-4.3,7.25,7.25,0,0,0-1.91-5,26.31,26.31,0,0,0-10-7.49c-3.66-1.58-8-2.21-10.83-5.22l-.61,1.48a83,83,0,0,1,29.29,3.67c4.6,1.44,9.05,3.35,13.65,4.78a45.11,45.11,0,0,0,6.87,1.62c1.64.24,3.63.49,4.91-.83,2.87-3-1.82-7-3.89-8.72a48.14,48.14,0,0,0-11.11-6.65c-3.88-1.72-7.92-2.94-11.86-4.49a19,19,0,0,1-5.65-3.16c-1.42-1.22-3.63-4.39-.34-4.73a45.08,45.08,0,0,1,13.35,1.08,123.68,123.68,0,0,1,13,3.51c8.44,2.67,16.86,5.66,25.71,6.69,3.91.45,8.66.94,11.85-1.87a6,6,0,0,0,2.14-4.51,7.83,7.83,0,0,0-2.45-5c-6-6.41-16.05-7.14-24.23-7.84a137.59,137.59,0,0,1-14.6-1.66c-1.14-.22-2.28-.47-3.4-.78-.9-.25-2.3-.62-2.48-1.71s1.07-1.94,2-2.16a13.09,13.09,0,0,1,3.85.07l15.33,1.28c4.78.4,9.76,1.25,14.55.82a15,15,0,0,0,5.85-1.66c1-.53.1-2-.88-1.5Z" transform="translate(38.02 84.9)"/></g><path class="cls-11" d="M105.4,30.25s-1.07-27.35,25-20.16,25.51,23.53,21.85,31.7,2.3,20.35,17.08,22S194.48,81.05,187,92.56c-4.65,7.1,2.11,15.73,9.25,21.3s7.43,17.53,7.43,17.53l-57.88-4.06s-6.09-32.11-10.59-52.54c-3.32-15.07-5.77-38.71-11.35-43.93-4.18-3.92-10.38-2.06-11.49,3.55C107.22,33.68,105.4,30.25,105.4,30.25Z" transform="translate(38.02 84.9)"/><path class="cls-13" d="M107.45,28.58c1.3-3.72,2.81-7.57,5.8-10.13,4.29-3.68,10.58-3.81,16.15-2.89,5.23.86,11,3.13,12.7,8.15.94,2.81.33,5.9-.56,8.73s-2.08,5.61-2.3,8.57.76,6.24,3.28,7.8" transform="translate(38.02 84.9)"/><path class="cls-13" d="M178.15,107.28a10.89,10.89,0,0,1-2.94-13.44c1.25-2.29,3.43-4.45,3-7a6.25,6.25,0,0,0-1.69-3.06A17.6,17.6,0,0,0,165,78" transform="translate(38.02 84.9)"/><path class="cls-13" d="M137.29,56a31.8,31.8,0,0,0,24,28.35" transform="translate(38.02 84.9)"/><path class="cls-13" d="M151.76,91.48l7.84,13.93a19.73,19.73,0,0,1,1.66,3.47,19.69,19.69,0,0,1,.69,3.58l.79,6.21" transform="translate(38.02 84.9)"/><path class="cls-13" d="M127.57,19.31c3.8.17,8.8,1.17,10.67,6.24s-1,7.8-1.49,10.7" transform="translate(38.02 84.9)"/><polygon class="cls-14" points="142.78 112.72 154.81 114.96 152.03 119.19 142.25 116.25 142.78 112.72"/><path class="cls-12" d="M104.62,424l-30.69-4s-1.23,16.13.69,21.33,12,7.69,16.67,6.32,7.09-3.07,9-7.5S104.62,424,104.62,424Z" transform="translate(38.02 84.9)"/><path class="cls-8" d="M100.89,431.68s-1.66,8-11,8.28c-10.38.28-14.33-3.11-13.16-12.29C56.36,438.22,36.13,444.87,32,455.78c-3.59,9.56,4.13,17.59,2.71,15.68l76.05-10.66s2.8-12.24-.6-20.84S100.89,431.68,100.89,431.68Z" transform="translate(38.02 84.9)"/><path class="cls-11" d="M110,452.82c-20.13,3-40.2,6.5-60.21,10.22q-8.49,1.57-17,3.24c-1.09.21-.63,1.88.46,1.67Q63.77,462,94.44,457q8-1.31,16-2.51c1.1-.16.63-1.83-.46-1.67Z" transform="translate(38.02 84.9)"/><path class="cls-11" d="M72.43,430.71a3.37,3.37,0,0,0-4.26-.28.89.89,0,0,0,.21,1.59c1.18.5,3.62,1.29,4.14-.54.39-1.38-.62-3.24-1.43-4.29a6.82,6.82,0,0,0-4.24-2.7c-1.37-.14-2.54,1.09-1.69,2.39A4.74,4.74,0,0,0,67,428.22a10.26,10.26,0,0,1,2.27,2.19c1.32,1.38,3.26,1.17,4.93.64,1-.3,2.11-.83,3.13-.47,1.87.64.42,2.25-1,2.21a16.05,16.05,0,0,1-3.87-1l-3.75-1.1a.88.88,0,0,0-1.1.84A4.37,4.37,0,0,0,70,435.21c.66.43,2.13,1,2.25,1.85.19,1.31-1.83-.06-2.26-.41-1.25-1-6.63-5.43-7.89-2.53-.63,1.44,1.34,3.06,2.13,4,.27.34.7.5.35.92s-.32.24-.73.06-.82-.45-1.22-.67l-3.17-1.77c-1.17-.64-2.64-1.62-4-1a2,2,0,0,0-.53,3.14c.49.61,1.8,1,2.07,1.72s-.47.85-1,.75a3.9,3.9,0,0,1-1.29-.64A8.89,8.89,0,0,0,48.81,439a.88.88,0,0,0-.75,1.3,3.27,3.27,0,0,0,.8,1c.36.3,1.26.65,1.17,1.16-.18,1-3.66.41-4.37.24-1.09-.24-1.55,1.43-.46,1.67a11.64,11.64,0,0,0,3.72.29c.94-.1,2.13-.18,2.75-1a1.92,1.92,0,0,0,0-2.14c-.52-.93-1.66-1.19-2.15-2.09l-.75,1.3a6.63,6.63,0,0,1,3.38.46c.9.39,1.65,1,2.54,1.46a3,3,0,0,0,3.82-.8c.87-1.39-.22-2.63-1.33-3.4-.18-.12-1.4-.88-1.09-1.24s1.2.28,1.39.37c1.16.56,2.27,1.26,3.39,1.88,1.4.78,3.45,2.39,5,1.17s.25-2.8-.64-3.91c-.39-.48-.79-1-1.18-1.45s-.62-.47.14-.2a13.92,13.92,0,0,1,3,1.65c1.36.92,2.74,2.65,4.54,2.6a2.19,2.19,0,0,0,2.12-3c-.89-2-4.62-2.42-4.57-4.77l-1.1.83c2.09.62,4.18,1.29,6.29,1.84,1.55.4,3.31.52,4.56-.67,2.34-2.26-.28-5-2.89-4.79-1.61.13-3.8,1.65-5.36.74-.72-.42-1.19-1.42-1.83-2a12.27,12.27,0,0,0-1.79-1.13,2.17,2.17,0,0,1-.61-.43c-.15.19-.11.28.1.26a10.63,10.63,0,0,1,1.24.49,6,6,0,0,1,1.68,1.42,4.78,4.78,0,0,1,1.14,2.41c0,.48.25.46-.42.29a10.1,10.1,0,0,1-1.53-.49l.2,1.58a1.64,1.64,0,0,1,2.16,0c.84.73,2.07-.49,1.23-1.23Z" transform="translate(38.02 84.9)"/><path class="cls-12" d="M243.41,386.82l-26,16.83s9.48,13.09,14.31,15.82,14.15-1.91,16.8-6,3.43-6.93,2.06-11.57S243.41,386.82,243.41,386.82Z" transform="translate(38.02 84.9)"/><path class="cls-8" d="M249.13,402.56s0,8.2-9,10.38c-10.1,2.42-14.67-.07-15.43-9.29-17.76,14.54-36.16,25.25-37.91,36.77-1.53,10.1,7.69,16.35,5.91,14.78L264.85,429s.2-12.56-4.91-20.26S249.13,402.56,249.13,402.56Z" transform="translate(38.02 84.9)"/><path class="cls-11" d="M221.05,407.5a3.36,3.36,0,0,0-4.22.66.87.87,0,0,0,.38,1.44c1.24.24,3.81.63,4.09-1.17.25-1.53-1.3-3.3-2.39-4.19a6.64,6.64,0,0,0-4.69-1.63,1.56,1.56,0,0,0-1,2.72,5.12,5.12,0,0,0,2.07.89A10.79,10.79,0,0,1,218,407.9c1.69,1.11,3.57.35,5.15-.54.91-.52,2.08-1.35,3.18-.9a1,1,0,0,1,.35,1.64,2.5,2.5,0,0,1-1.79.69,54.6,54.6,0,0,1-7.44-.51.88.88,0,0,0-.84,1.1,4.24,4.24,0,0,0,2.92,3c.71.28,2.29.5,2.69,1.2a.62.62,0,0,1-.27.81,1.28,1.28,0,0,1-.84,0,9.7,9.7,0,0,1-1.75-.84c-1.21-.59-8.09-3.63-7.65,0a2.59,2.59,0,0,0,1.17,1.57l1.27,1c.22.18,1.12.69,1.18,1,.12.59-.64.51-.89.45s-.43-.12-.63-.18l-1.39-.43-3.25-1c-1.15-.36-2.65-.81-3.72,0a1.94,1.94,0,0,0,.05,3c.63.59,1.43.65,2.11,1.1s.72.93-.07,1.18a3,3,0,0,1-1.84-.33,8.74,8.74,0,0,0-6-.33.88.88,0,0,0-.39,1.45,3.09,3.09,0,0,0,1,.79c.41.21,1.45.4,1.34.92-.23,1-3.5,1.09-4.32,1.08a.87.87,0,0,0,0,1.73A11.3,11.3,0,0,0,201,426c.91-.29,2.11-.65,2.49-1.61a2,2,0,0,0-.48-2c-.71-.79-1.87-.82-2.54-1.6l-.38,1.45a6.65,6.65,0,0,1,3.28-.27c1.1.22,2.09.82,3.2,1a2.82,2.82,0,0,0,3.29-1.9c.37-1.67-1.17-2.38-2.43-2.92-.22-.09-1.21-.48-1-.84s.88-.07,1.1,0a28.37,28.37,0,0,1,3.19,1c1.59.49,4.1,1.83,5.68.72s.58-2.69-.56-3.63l-2.36-1.86c.18-.32,2.91.72,3.23.83,1.71.63,3.7,2.32,5.62,1.78a2.18,2.18,0,0,0,1.26-3.49c-1.37-1.63-4.95-1.34-5.39-3.65l-.83,1.1c2.08.16,4.16.35,6.24.47a5.15,5.15,0,0,0,4.22-1.17c2.13-2.23-.12-5.06-2.82-4.65-1.77.27-3.05,1.77-4.79,2-1,.16-1.58-.48-2.34-1.05a7.12,7.12,0,0,0-2.16-1.1c-.36-.12-.73-.22-1.1-.33q-.3.12,0,.09a2.46,2.46,0,0,1,.6.07,5.78,5.78,0,0,1,2.33,1,6,6,0,0,1,1.56,1.73c.14.23.5.65.3.93s-1.58-.08-1.78-.12l.39,1.45a1.63,1.63,0,0,1,2.11-.39c1,.55,1.85-.95.88-1.49Z" transform="translate(38.02 84.9)"/><path class="cls-11" d="M262.58,421.29c-19.21,7.18-38.25,14.8-57.19,22.65q-7.87,3.27-15.72,6.61c-1,.44-.14,1.93.87,1.5Q219,439.92,247.9,428.73,255.46,425.8,263,423c1-.39.58-2.06-.46-1.67Z" transform="translate(38.02 84.9)"/><path class="cls-5" d="M91.26,40c-3.79,5-10.4,21.74-1.09,35.46,8.1,12,17,10.86,24.81,4.77,5.93-4.63,11.76-9.62,13.42-16.77s2.68-20.85-8.4-27.16C108.51,29.75,97.93,31.23,91.26,40Z" transform="translate(38.02 84.9)"/><path class="cls-9" d="M117.79,77.5s-5.07,5.67-11.38,7" transform="translate(38.02 84.9)"/><path class="cls-9" d="M98.43,50.75,93.78,61.92s3.41.68,4.72,1.81" transform="translate(38.02 84.9)"/><path class="cls-9" d="M96.67,47.54s-2.19-4.76-9-1.73" transform="translate(38.02 84.9)"/><path class="cls-9" d="M104.23,47.57s3-3.34,7.07-2.4a6.89,6.89,0,0,1,4.94,3.65" transform="translate(38.02 84.9)"/><polygon class="cls-15" points="142.97 136.74 144.57 135.35 146.63 134.57 150.54 135.16 153.75 137.2 153.36 138.43 148.65 139.69 143.47 138.72 142.97 136.74"/><path class="cls-9" d="M105,51.84a5.33,5.33,0,0,1,4.91-2.08,10,10,0,0,1,6,2.71" transform="translate(38.02 84.9)"/><ellipse class="cls-11" cx="111.5" cy="51.86" rx="1.69" ry="1.97" transform="translate(34.44 93.44) rotate(-4.32)"/><path class="cls-16" d="M127.51,48.44s5.11-5.08,5.62-.42-.8,8.91-3.56,9.73S125.9,51.61,127.51,48.44Z" transform="translate(38.02 84.9)"/><path class="cls-11" d="M109.94,34.21a26.52,26.52,0,0,1-19.3,6.68,10.11,10.11,0,0,1-4-1.18s6.46-7.51,11.16-8.93S109.63,29.73,109.94,34.21Z" transform="translate(38.02 84.9)"/><path class="cls-11" d="M107.32,34.79A40.17,40.17,0,0,0,117.7,46c8.72,6.27,13.14,4.14,13.14,4.14s-3.87-11-8.56-14.3c-6.93-4.89-12.38-4.19-13.85-3.46A2.28,2.28,0,0,0,107.32,34.79Z" transform="translate(38.02 84.9)"/><path class="cls-17" d="M97.31,72.27c4,0,5.46-1.29,6.42-3.34a4.42,4.42,0,0,0,0-3.7s-3,3-6.12,2.25" transform="translate(38.02 84.9)"/><path class="cls-15" d="M90.68,52.51,87.54,51l-.07-1a7.23,7.23,0,0,1,4-1.46,3.33,3.33,0,0,1,3.35,1.9L95,51.51Z" transform="translate(38.02 84.9)"/><path class="cls-9" d="M94.9,50.58a2.89,2.89,0,0,0-2.81-1.91A8.49,8.49,0,0,0,87.47,50L86,49" transform="translate(38.02 84.9)"/><ellipse class="cls-11" cx="92.02" cy="50.53" rx="1.54" ry="1.79" transform="matrix(1, -0.08, 0.08, 1, 34.48, 91.97)"/><path class="cls-5" d="M181.85,146.4,153,192.86l7,12.66s31.6-29.13,41.84-42.06,2.09-19.84-2.32-21.63S185.6,140.38,181.85,146.4Z" transform="translate(38.02 84.9)"/><path class="cls-7" d="M128.79,98.63a23.83,23.83,0,0,1,21.63.36c11.91,6,50.13,20.31,62.26,35,7.17,8.69,6.41,36.32,6.41,36.32l-26.8-7L191.76,149l-7.83,11.58L173.11,158l5.78-12.65s-34.5-12.5-43.32-20.08S122.51,108.54,128.79,98.63Z" transform="translate(38.02 84.9)"/><path class="cls-7" d="M132.4,128.34c2.32-.17,5-.89,17.83,5,13.81,6.36,16.07,7.18,16.07,7.18" transform="translate(38.02 84.9)"/><path class="cls-5" d="M153,192.86c-2.75.73-7.74-1.56-13.15-1.3s-14.68,6.76-17.14,11.68-.36,14.53,8.06,12.83,12.38-6,16.49-6.13,13.18-2,14.74-6.26S159.42,191.14,153,192.86Z" transform="translate(38.02 84.9)"/><path class="cls-9" d="M131,199.1a79.11,79.11,0,0,0-9.27,8.32" transform="translate(38.02 84.9)"/><path class="cls-9" d="M134,202.33s-9.46,5.49-11.63,9.16" transform="translate(38.02 84.9)"/><path class="cls-9" d="M135.93,206.35s-9.91,5.1-11.64,8.16" transform="translate(38.02 84.9)"/><line class="cls-9" x1="174.89" y1="295.3" x2="164.59" y2="300.8"/><g class="cls-18"><polygon class="cls-11" points="162.56 467.43 99.12 456.33 93.7 481.01 162.34 492.79 162.56 467.43"/><path class="cls-12" d="M132.06,389.8a62.85,62.85,0,0,1-18.47-11.29c-1.26-1.11-2.42-2.29-3.63-3.44a7.57,7.57,0,0,0-3.89-2.28c-2.45-.36-5.1,1.69-4.15,4.29.55,1.51,2,2.84,3,4.08l4,5c2.3,2.9,4.94,5.81,6.34,9.3,1.15,2.89,1.14,6.11-.9,8.6a5.3,5.3,0,0,1-3.38,2c-1.85.21-3.48-.93-4.74-2.15a35.29,35.29,0,0,1-6.38-8.58,62.61,62.61,0,0,1-3.88-9.62,24.84,24.84,0,0,0-4.28-8.28,17.19,17.19,0,0,0-8-4.84A35.08,35.08,0,0,0,79,371.48c-1.61-.29-3-.21-4.1,1.17-1.94,2.5-1.15,5.9,0,8.57,1.5,3.58,3.44,7,5.18,10.49.86,1.71,1.77,3.4,2.56,5.15s1.42,3.73.78,5.6c-.57,1.66-2.11,2.92-3.92,2.32-1.62-.53-2.79-2.14-3.65-3.52-2.08-3.34-3.57-7-5.75-10.3-4.06-6.16-10-11.53-17.73-12a.87.87,0,0,0-.83,1.1c1.74,5.94,3.68,12.87-.12,18.44a8.27,8.27,0,0,1-6.67,3.84c-3.15,0-6.07-1.65-8.37-3.67-.83-.74-2.06.48-1.22,1.22,2.56,2.25,5.72,4.08,9.2,4.18a9.76,9.76,0,0,0,7.79-3.67c5-6,3-14,1.06-20.8l-.84,1.1c7.36.46,13,6,16.71,11.87,1.89,3,3.29,6.24,5.09,9.27,1.29,2.17,3.27,4.67,6,4.83s4.58-2,5.08-4.39c.72-3.44-1.32-6.73-2.8-9.67-1.82-3.63-3.71-7.23-5.45-10.89a12.93,12.93,0,0,1-1.53-5.12,4.78,4.78,0,0,1,.62-2.59c.77-1.28,2-.95,3.25-.7a22.67,22.67,0,0,1,8.93,3.41c2.82,2,4.39,5.17,5.56,8.35s2.06,6.28,3.49,9.27A40.28,40.28,0,0,0,103,403c1.88,2.22,4.2,4.7,7.31,4.81,2.6.1,4.85-1.66,6.13-3.8,3.54-5.95-.84-12.15-4.51-16.79l-4-5-2.14-2.69a18.76,18.76,0,0,1-2.11-2.77c-.54-1.07.06-1.91,1.13-2.21a3.16,3.16,0,0,1,2.61.62,41.47,41.47,0,0,1,4.31,4,65.28,65.28,0,0,0,19.87,12.3c1,.41,1.49-1.26.46-1.67Z" transform="translate(38.02 84.9)"/></g><polygon class="cls-15" points="150.47 209.98 165.32 207.19 165.06 219.24 150.09 218.39 150.47 209.98"/><polygon class="cls-8" points="154.61 206.04 155.75 210.06 157.61 209.44 158.09 205.78 154.61 206.04"/><path class="cls-8" d="M114.12,129c.31.69.67,2.12,1.69,1.95.49-.09.69-.47.88-.88l.65-1.4-1.12.15a1.09,1.09,0,0,1,.17.5c0,.26.07.51.12.77a1.78,1.78,0,0,0,.88,1.37.72.72,0,0,0,1-.25,11,11,0,0,0,.82-2.75l-1.19.31a2.43,2.43,0,0,1,.72,1.42.72.72,0,0,0,1.38,0s-.19.24-.21.16.33.15.34.16a1.74,1.74,0,0,0,1.09.2,2,2,0,0,0,.79-.33c.15-.1.35-.28.52-.29.92,0,.92-1.46,0-1.43a2.2,2.2,0,0,0-1.11.4,1.58,1.58,0,0,1-.39.24c-.13,0-.15,0-.28-.08a1.83,1.83,0,0,0-1.23-.26,1.12,1.12,0,0,0-.9.85h1.38a3.68,3.68,0,0,0-1.09-2c-.37-.29-1.11-.27-1.2.32a9.32,9.32,0,0,1-.68,2.41l1-.26c-.13-.07-.12-.06-.17-.26a5.54,5.54,0,0,1-.12-.71,2.56,2.56,0,0,0-.59-1.45.72.72,0,0,0-1.13.14l-.45,1-.19.41-.13.28c-.06.11-.06.11,0,0l.36-.1h0l.31.18a1.62,1.62,0,0,1-.31-.58l-.39-.85a.73.73,0,0,0-1-.26.73.73,0,0,0-.25,1Z" transform="translate(38.02 84.9)"/><path class="cls-19" d="M31.42,115.83s1.08-2.93,2.9-10,.11-17.64-5.06-18.3-14.73-2-15.2,5.71,3.54,19.89,6.2,23.46S30.37,119.26,31.42,115.83Z" transform="translate(38.02 84.9)"/><path class="cls-20" d="M39.36,87.61C38.9,92.15,38,97.5,38,97.5l-8.19,15.14" transform="translate(38.02 84.9)"/><line class="cls-21" x1="73.25" y1="156.48" x2="68.63" y2="175.45"/><line class="cls-21" x1="67.44" y1="153.57" x2="63.76" y2="175.42"/><line class="cls-21" x1="58.45" y1="154.6" x2="59.18" y2="177.3"/><line class="cls-21" x1="51.85" y1="162.46" x2="55.04" y2="179.08"/><path class="cls-22" d="M32,100.09s-5.23,1.63-6.45,8.45" transform="translate(38.02 84.9)"/></g></g></g></svg>