<svg xmlns="http://www.w3.org/2000/svg" width="57" height="57.004" viewBox="0 0 57 57.004">
  <g id="ID" transform="translate(-1248.78 -127.37)">
    <path id="Tracé_41" data-name="Tracé 41" d="M1305.78,155.872a28.5,28.5,0,1,1-28.5-28.5A28.352,28.352,0,0,1,1305.78,155.872Z" transform="translate(0 0)" fill="#f6d3bf"/>
    <circle id="Ellipse_13" data-name="Ellipse 13" cx="11.694" cy="11.694" r="11.694" transform="translate(1265.672 136.534)" fill="#ed8349"/>
    <path id="Tracé_42" data-name="Tracé 42" d="M1309.8,225.2a28.5,28.5,0,0,1-44.063.119l.73-4.042a13.189,13.189,0,0,1,10.117-10.113l3.058-.473a12.155,12.155,0,0,0,16.33,0l3.058.473c5.079.607,8.833,4.192,10.113,10.113Z" transform="translate(-10.443 -51.306)" fill="#ed8349"/>
  </g>
</svg>
