<?xml version="1.0" encoding="UTF-8"?>
<svg id="Calque_2" xmlns="http://www.w3.org/2000/svg" viewBox="0 0 461.84 304.62">
  <defs>
    <style>
      .cls-1 {
        fill: #9797ff;
      }

      .cls-2 {
        fill: #12d5a2;
      }

      .cls-3 {
        fill: #fff;
      }

      .cls-4 {
        fill: #1919fe;
      }

      .cls-5 {
        fill: none;
        stroke: #050528;
        stroke-linecap: round;
        stroke-linejoin: round;
        stroke-width: 2.15px;
      }
    </style>
  </defs>
  <g id="palette">
    <g>
      <g>
        <path class="cls-1" d="M458.02,80.25S404.25-12.94,362.49,1.52c-98.94,34.26-68.54,110.41-52.16,139.86,1.3,2.34,4.87,1,4.31-1.62-7.44-34.69-7.14-55.11,5.89-79.41,10.43-19.46,28.72-36.09,59.89-33.83,25.75,1.87,57.71,69.65,67.16,72.39,21.27-2.98,10.45-18.66,10.45-18.66Z"/>
        <path class="cls-2" d="M447.43,250.3c10.17,23.54,7.96,56.78-22.3,54.17-5.28-.45-28.42-2.08-28.17-28.69.06-6.85-4.63-14.34-11.31-20.02-9.91-8.4-17.68-15.42-23.72-21.15-11.54-10.93-6.88-30.42,8.41-34.75,5.36-1.52,11.49-2.68,18.4-3.14,25.31-1.69,33.16-5.55,58.71,53.58Z"/>
        <path class="cls-3" d="M440.43,139.13c-9.99-3.33-46.8-11.46-47.27,13.89-.27,14.36,6.79,24.32,37.71,37.53,30.1,12.86,19.55-48.09,9.56-51.42Z"/>
        <path class="cls-5" d="M380.11,60.35s19.64,32.83,42.03,49.25c22.39,16.42,14.92,29.85,0,29.85s-20.89,21.7-4.48,39.21c16.42,17.51,42.67,35.69,38.8,47.36s-20.75,18.65-37.99,7.08c-17.23-11.56-32.76-29.24-32.76-29.24"/>
        <path class="cls-5" d="M400.65,88.78s-32.37-4.28-44.96,4.99c-11.96,8.8-11.58,33.82-11.58,33.82"/>
        <path class="cls-5" d="M452.35,80.25S428.13,17.32,380.11,1.52"/>
        <ellipse class="cls-3" cx="433.73" cy="269.84" rx="11.81" ry="13.43"/>
        <path class="cls-5" d="M330.15,163.76s26.96,63.26,49.6,73.57c22.65,10.31,23.18,26.18,25.69,41.52,2.51,15.34,31.7,13.59,31.7,13.59,0,0,19.71-3.11,23.62-22.59"/>
      </g>
      <path class="cls-4" d="M314.04,165.41c-23.61-19.93-25.2,24-41.12,31.35-2.06.87-4.52,1.45-6.77,1.57-21.94.5-21.16-43.2-26.78-58.4-3.88-12.93-8.96-25.7-16.5-36.93-4.34-6.16-9.81-12.64-17.61-13.74-3.11-.5-6.38.11-9.06,1.79-13.71,9.35-16.5,40.09-18.69,55.83-2.28,18.05-4.66,36.11-8.42,53.98-2.65,11.44-6.85,32.31-15.92,39.92-14.84,9.37-27.33,1.03-31.92-14.42-2.69-8.96-2.93-18.41-1.93-27.62.42-3.92,1.33-9.58,1.82-13.54,1.77-13.48,3.17-27.02,3.84-40.59.51-15.42,1.56-39.33-6.18-52.72-2.01-3.33-5.3-5.79-9.24-5.55-11.13.69-12.96,26.08-14.08,34.79-2.74,20.56-1.32,65.42-11.87,80.87-4.61,6.97-12.48,8.11-19.13,3.09-5.67-4.22-9.37-10.64-11.41-17.28-1.42-4.44-1.74-9.17-1.8-13.7-.47-13.46.54-27.44-4.13-40.22-1.56-4.06-4.87-7.67-9.49-7.42-4.56-.04-7.95,3.6-9.9,7.45-8.21,14.18-7.79,53.18-24.34,57.86-1.11.28-2.24.41-3.38.42,1.14-.03,2.27-.17,3.36-.47,13.65-3.96,15.5-33.1,19.06-45.29,2.2-9,6.54-24.02,18.74-20.63,7.9,2.96,9.25,13.73,10.42,20.96,1.15,9.09,1.12,18.24,1.36,27.29-.04,8.95,2.28,17.93,7.95,24.92,3.73,4.77,10.42,9.4,16.43,6.13,8.88-5.34,10.18-20.37,11.52-29.87,1.03-8.98,1.55-18.05,2.08-27.12,1.3-15.68,1.36-48.73,10.95-60.52,3.02-3.74,7.75-4.9,12.25-3.25,11.08,4.58,12.61,22.54,13.58,32.97,1.71,27.36-1.83,54.7-5.42,81.74-.98,8.8-.78,17.92,1.75,26.43,3.73,12.64,13.2,20.72,26.17,13.8,8.98-5.19,13.86-28.92,16.21-39.01,6.03-26.61,7.43-54.02,12.9-80.76,2.17-8.95,4.69-18.07,10.41-25.55,6.65-8.73,17.19-9.15,25.56-2.5,15.06,12.45,25.43,42.4,28.71,61.36,1.54,8.93,2.7,17.96,5.29,26.64,1.32,4.29,2.96,8.55,5.64,12.1,2.59,3.58,6.7,6,11.19,5.78,4.43-.15,8.82-1.89,11.65-5.43,10.29-11.37,15.83-44.76,36.28-26.53h0Z"/>
    </g>
  </g>
</svg>