<?xml version="1.0" encoding="UTF-8" standalone="no"?>
<!-- Created with Inkscape (http://www.inkscape.org/) -->

<svg
   xmlns:dc="http://purl.org/dc/elements/1.1/"
   xmlns:cc="http://creativecommons.org/ns#"
   xmlns:rdf="http://www.w3.org/1999/02/22-rdf-syntax-ns#"
   xmlns:svg="http://www.w3.org/2000/svg"
   xmlns="http://www.w3.org/2000/svg"
   xmlns:sodipodi="http://sodipodi.sourceforge.net/DTD/sodipodi-0.dtd"
   xmlns:inkscape="http://www.inkscape.org/namespaces/inkscape"
   width="52.839939mm"
   height="17.507479mm"
   viewBox="0 0 52.839939 17.507479"
   version="1.1"
   id="svg79"
   inkscape:version="0.92.5 (2060ec1f9f, 2020-04-08)"
   sodipodi:docname="logo.svg">
  <defs
     id="defs73" />
  <sodipodi:namedview
     id="base"
     pagecolor="#ffffff"
     bordercolor="#666666"
     borderopacity="1.0"
     inkscape:pageopacity="0.0"
     inkscape:pageshadow="2"
     inkscape:zoom="0.49497475"
     inkscape:cx="462.77604"
     inkscape:cy="-16.476199"
     inkscape:document-units="mm"
     inkscape:current-layer="layer1"
     showgrid="false"
     fit-margin-top="0"
     fit-margin-left="0"
     fit-margin-right="0"
     fit-margin-bottom="0"
     inkscape:window-width="1920"
     inkscape:window-height="1016"
     inkscape:window-x="1920"
     inkscape:window-y="27"
     inkscape:window-maximized="1" />
  <metadata
     id="metadata76">
    <rdf:RDF>
      <cc:Work
         rdf:about="">
        <dc:format>image/svg+xml</dc:format>
        <dc:type
           rdf:resource="http://purl.org/dc/dcmitype/StillImage" />
        <dc:title></dc:title>
      </cc:Work>
    </rdf:RDF>
  </metadata>
  <g
     inkscape:label="Calque 1"
     inkscape:groupmode="layer"
     id="layer1"
     transform="translate(-104.35979,-76.579594)">
    <g
       id="g4679">
      <path
         style="fill:#145b93;stroke-width:0.26458332"
         inkscape:connector-curvature="0"
         id="path6"
         d="m 114.86111,78.291448 -2.92894,-1.711854 -7.57238,4.423833 v 0.322792 0 8.016875 0 0.322792 l 1.79388,1.058333 5.7785,3.362854 7.57502,-4.497917 v -8.583083 z m 2.70933,8.950854 v 1.058334 l -5.63827,3.175 -3.55071,-2.029355 -2.06375,-1.180041 v -5.865813 l 5.61446,-3.209396 0.70379,0.396875 4.93448,2.788709 z"
         class="cls-1" />
      <path
         style="fill:#ffd003;stroke-width:0.26458332"
         inkscape:connector-curvature="0"
         id="path8"
         d="m 113.56994,81.421469 -1.62454,-0.9525 -4.20952,2.460625 v 0.179917 0 4.450291 0 0.179917 l 0.99748,0.592667 3.21204,1.852083 4.20687,-2.492375 v -4.7625 z m -1.61925,5.3975 a 1.4869583,1.4869583 0 1 1 1.48431,-1.486958 1.4869583,1.4869583 0 0 1 -1.48431,1.486958 z"
         class="cls-2" />
      <path
         style="fill:#155b92;stroke-width:0.26458332"
         inkscape:connector-curvature="0"
         id="path10"
         d="m 124.27763,80.566865 q 2.11666,0 3.22527,0.751416 1.1086,0.751417 1.11919,2.325688 a 2.6458333,2.6458333 0 0 1 -0.45244,1.600729 2.9845,2.9845 0 0 1 -1.30175,0.963083 c 0.18785,0.23548 0.38629,0.502709 0.59266,0.79375 0.20638,0.291042 0.41275,0.61648 0.61384,0.944563 0.20108,0.328083 0.39952,0.669396 0.58737,1.023937 0.18786,0.354542 0.36513,0.703792 0.52917,1.058334 h -2.35215 c -0.17198,-0.306917 -0.3466,-0.616479 -0.52916,-0.931334 -0.18257,-0.314854 -0.35719,-0.62177 -0.52917,-0.918104 -0.17198,-0.296333 -0.36777,-0.579437 -0.55033,-0.844021 -0.18257,-0.264583 -0.35984,-0.505354 -0.52917,-0.722312 h -1.03981 v 3.415771 h -2.11667 v -9.215438 a 11.678708,11.678708 0 0 1 1.42346,-0.187854 c 0.49477,-0.03969 0.92075,-0.05821 1.30969,-0.05821 z m 0.11906,1.796521 c -0.15081,0 -0.2884,0 -0.4101,0.01323 l -0.34396,0.02646 v 2.537354 h 0.59266 c 0.79375,0 1.35996,-0.0979 1.70127,-0.296333 a 1.0768542,1.0768542 0 0 0 0.5133,-1.013354 1.0345208,1.0345208 0 0 0 -0.52917,-0.978959 3.2146875,3.2146875 0 0 0 -1.524,-0.288395 z"
         class="cls-3" />
      <path
         style="fill:#155b92;stroke-width:0.26458332"
         inkscape:connector-curvature="0"
         id="path12"
         d="m 130.53767,90.028365 v -9.353021 h 6.3156 v 1.767417 h -4.20952 v 1.836208 h 3.73592 v 1.727729 h -3.73592 v 2.251604 h 4.51909 v 1.770063 z m 4.85775,-11.808354 -2.21986,1.875895 -0.92339,-0.822854 1.90764,-2.185458 z"
         class="cls-3" />
      <path
         style="fill:#155b92;stroke-width:0.26458332"
         inkscape:connector-curvature="0"
         id="path14"
         d="m 144.96275,88.221261 v 1.80975 h -6.24681 v -9.355667 h 2.10344 v 7.545917 z"
         class="cls-3" />
      <path
         style="fill:#155b92;stroke-width:0.26458332"
         inkscape:connector-curvature="0"
         id="path16"
         d="m 146.31213,80.675344 h 2.10343 v 9.353021 h -2.10343 z"
         class="cls-3" />
      <path
         style="fill:#155b92;stroke-width:0.26458332"
         inkscape:connector-curvature="0"
         id="path18"
         d="m 150.57456,90.028365 v -9.353021 h 6.31561 v 1.767417 h -4.20952 v 1.836208 h 3.73856 v 1.727729 h -3.73856 v 2.251604 h 4.51908 v 1.770063 z"
         class="cls-3" />
    </g>
  </g>
</svg>
