<svg id="Calque_1" data-name="Calque 1" xmlns="http://www.w3.org/2000/svg" width="143.074mm" height="146.809mm" viewBox="0 0 405.56409 416.1515">
  <title>MINLOG</title>
  <g>
    <path d="M101.86811,97.11337l.04209-.0212a1.66685,1.66685,0,0,0,.32987-.21762l-.04211-.01392c-.11229.08418-.21756.1615-.32985.25274" style="fill: #000091"/>
    <path d="M118.29084,91.63675c-.04211.02806-.07718.05612-.1193.08418.06316-.00707.1193-.021.1193-.08418" style="fill: #000091"/>
    <path d="M113.0992,97.36248c.48429-.47722.96857-.99663,1.45285-1.516h-.014a28.07344,28.07344,0,0,1,2.82849-2.87764,8.67928,8.67928,0,0,1,.92645-.737c.07719-.09124.07719-.25253.16142-.34377-.41408.17542-.6808.51234-1.09489.68069-.09124,0-.17547-.08417-.09124-.16835l.90538-.68091h-.05615c-.07718,0-.07718-.08418-.07718-.16835a3.43684,3.43684,0,0,0-2.7162,1.27036c-.16843.08417-.33689-.08418-.42814-.08418-1.26334.4211-2.19681,1.52289-3.46717,2.02838v-.1615c-.50533.1615-.99662.47015-1.523.58966a9.073,9.073,0,0,1-2.11261.08418,27.93094,27.93094,0,0,0-3.08816.54747l-.08423.021a7.16,7.16,0,0,0-1.57917.63871.63775.63775,0,0,0-.05614.03513l-.12635.14736a1.82055,1.82055,0,0,1-.58254.49821,8.70535,8.70535,0,0,0-1.40372,1.10908.24291.24291,0,0,1-.12632.03512c-.46324.435-.90541.87732-1.36862,1.30527a.40065.40065,0,0,1-.25971.03513.00691.00691,0,0,1,.007-.00707c.014-.02806.03507-.05611.04913-.08417.07718-.11931.14739-.23861.21756-.35791.08423-.13344.16846-.2596.24565-.393.11933-.17542.24565-.344.365-.51234a.07794.07794,0,0,0,0-.11224.14225.14225,0,0,0-.11232-.0422,7.25481,7.25481,0,0,1,1.41775-1.05981v-.01392c-.05614.021-.14035-.02806-.09826-.09124.05617-.07026.09826-.15443.14739-.22469a.42949.42949,0,0,0,.02107-.07711c-.014-.0212-.0351-.04219-.05614-.07025a3.36874,3.36874,0,0,0-.40008.2808c-.20354.18249-.365.55432-.67376.54747a.41016.41016,0,0,1-.11933-.01414.35378.35378,0,0,1-.09125-.028c0-.00707.007-.01414.007-.021.007-.00706.007-.01413.01405-.0212.007-.00685.007-.01392.014-.021a.75779.75779,0,0,1,.04212-.07711L100.157,97.18c.007-.021.02105-.0422.02806-.06319.02107-.03513.0351-.07025.05617-.10538.014-.02806.02806-.049.04209-.07711.04212-.06319.07722-.1193.11232-.18249a1.02434,1.02434,0,0,1,.05614-.09124c.02806-.05612.05614-.10517.08423-.15443a.1043.1043,0,0,0-.05617-.15444,1.85371,1.85371,0,0,1,.58254-.50527h-.02806c.32284-.1615.63869-.35791.96857-.5404.04913-.0422.09124-.08418.14037-.1193a5.8435,5.8435,0,0,0-1.34757.6597.75.75,0,0,0-.14038.07711.21038.21038,0,0,1-.21054-.07711.07983.07983,0,0,1-.02108-.05612c.07722-.17542.3369-.25981.50536-.42816.0842,0,.16843,0,.16843.08417,2.70918-2.11962,6.436-1.60728,9.57335-2.70907q.379-.25285.758-.50549c.42814-.16835.765-.59652,1.27036-.849a3.72016,3.72016,0,0,0,1.43882-1.9442.3249.3249,0,0,0-.08423-.17542,13.13568,13.13568,0,0,1-3.72687,2.80032c-1.77569.92637-3.71984.758-5.58677,1.01076.08423-.16857.25266-.16857.42814-.16857,0-.25253.16142-.33692.32985-.50527h.2597c.08421,0,.08421-.16857.16844-.16857.16846,0,.42112-.09124.33689-.09124-.25266-.33671-.765.25981-1.18613,0,.16844-.16129.09125-.4211.25267-.50528h.3439a.58861.58861,0,0,1,.16844-.33692c1.27036-.76487,2.45651-1.35453,3.64264-2.03523-.25266,0-.42813.25253-.6808.09125.17548,0,0-.25981.17548-.25981.92645-.25253,1.69148-.758,2.62495-1.09494-.34391,0-.5966.25274-.93347,0,.16142-.09125.25266-.2596.50533-.2596v-.25275c0-.08417.08423-.08417.16843-.08417a.29412.29412,0,0,1-.16843-.08418c.08423-.16857.33689-.08418.50533-.25274-.07719,0-.25267,0-.25267-.08418a1.66186,1.66186,0,0,1,1.10193-.51234c-.08423-.16857-.3369,0-.3369-.16857,0-.08418.07719-.08418.16844-.08418h-.16844c-.17547-.08417-.08423-.25253-.08423-.33692a5.95753,5.95753,0,0,0,.758-2.03523c-.08423,0-.16846,0-.16846-.08439A6.974,6.974,0,0,1,109.232,85.3747h-.42814a1.70183,1.70183,0,0,1-1.43879-.09124,6.34518,6.34518,0,0,1-.84926-.67385A9.6183,9.6183,0,0,0,104.4032,83.592a19.12929,19.12929,0,0,0-6.52727-.93344,14.35989,14.35989,0,0,1,2.96886-.8422,12.53448,12.53448,0,0,1,4.32345-.84926,2.91949,2.91949,0,0,0-.85628,0,13.99307,13.99307,0,0,0-3.63563.50528c-.84222.16856-1.61427.51234-2.45649.68091-.50533.16835-.758.67362-1.35459.59651V82.49a4.87509,4.87509,0,0,1,3.22152-2.11255,16.03473,16.03473,0,0,1,4.48487.16856,21.78391,21.78391,0,0,1,3.22152.58946c.41411,0,.50535.6809.84225.76508.50533.16835,1.01065,0,1.523.33692,0-.16857-.08423-.33692,0-.50527.3369-.344.765.08417,1.10193-.09125.67376-.42131-.58956-1.17911-.93349-1.77584a.288.288,0,0,1,.09124-.16836,9.6297,9.6297,0,0,0,2.02838,1.69146c.42112.17542,1.43879.42816,1.26334-.07732a13.05573,13.05573,0,0,0-1.94414-2.54758v-.33692c-.16142,0-.16142-.08417-.25267-.16856v-.33693c-.33689-.16835-.25266-.51234-.42112-.76487-.25968-.42109-.08423-1.01783-.25968-1.5231a9.69726,9.69726,0,0,1-.33689-1.43871c-.25267-1.43893-.58956-2.70929-.758-4.06383-.17545-1.60728.93349-2.87764,1.69148-4.31635a7.24793,7.24793,0,0,1,2.37229-2.71636,7.35816,7.35816,0,0,1,1.61427-2.702,6.92657,6.92657,0,0,1,2.61089-1.69853,22.48626,22.48626,0,0,1,2.24594-.85633H61.7794V102.6474h41.53593a37.39811,37.39811,0,0,1,5.46747-2.82153,21.85422,21.85422,0,0,0,4.3164-2.46339m-13.01243-6.06415c-.17545,0-.51234.08439-.42811-.08417.0842-.4211.6808-.4211,1.01767-.59652.16846-.08418.42112-.25275.5966-.16857.16142.25275.41408.16857.58955.344-.50535.50527-1.18615.25274-1.77571.50527m-12.9633-1.85981a.306.306,0,0,1-.07719-.17542,25.77118,25.77118,0,0,0,2.70214-4.31657A11.485,11.485,0,0,0,92.626,82.57438a16.5736,16.5736,0,0,1,4.74457-3.7269,3.30388,3.30388,0,0,1,2.20383.09124c-.25266.33693-.67379.25275-1.0177.50528a.30949.30949,0,0,1-.25266-.08418.30931.30931,0,0,0,.08423-.25274c-.84225.92658-2.02838,1.35475-2.70918,2.45654-.50533.8422-.84222,1.9442-1.94415,2.19673-.33689.08439.07722-.25253-.08423-.16835a28.59109,28.59109,0,0,0-6.52727,5.84652m7.03263-5.59378c-.09125.16836-.17548.18935-.25269.34378a.67035.67035,0,0,1-.34391.33692c-.07719,0-.16142,0-.16142-.08418a1.03082,1.03082,0,0,1,.66677-.76508c.09125,0,.09125.08417.09125.16856M98.08648,96.5342a.757.757,0,0,1-.21055.24568c.11229.021.18249.07025.11229.13344a1.85222,1.85222,0,0,1-.63869.44916c-.021,0-.07017.01392-.12632.01392-.1053.09831-.21759.19663-.31585.29494-.10527.09124-.56851.021-.42813-.09831.21759-.18956.4141-.40011.62465-.59652a3.15083,3.15083,0,0,0,.35093-.32986,1.17137,1.17137,0,0,1,.18249-.18955c.0702-.04927.51938-.09125.44918.0771m-1.516-.7019c-.007.00707-.014.00707-.021.01414-.31585.22469-.63168.44916-.96857.64578-.35794.21055-.737.37184-1.116.54747,0-.00707-.007-.01413-.014-.0212a.10043.10043,0,0,0-.13336-.03513,4.12957,4.12957,0,0,0-.85627.65285c-.04209.03513-.07719.07-.11931.11224l-.007.00706-.007.00707c-.04211.042-.08423.07711-.11933.11931-.007.00685-.014.00685-.021.01392v.00707c-.05615.06318-.11933.1193-.18249.20348a.848.848,0,0,1-.11229.11245c-.04913.03491-.20353.03491-.1895-.06319v-.01414a.87907.87907,0,0,0-.14038.07733c-.04913.021-.09124.049-.14037.07a.1359.1359,0,0,0-.05615-.00707.0794.0794,0,0,0-.05614.0212c-.10528.08418-.21058.16836-.30884.2596a3.44324,3.44324,0,0,0-.4913.51941c-.007,0-.007.00707-.014.00707a.05322.05322,0,0,1-.014.02806c-.007.00707-.014.021-.02809.02806-.007.01392-.014.021-.021.03513a.0069.0069,0,0,1-.007.00706c-.02107.03492-.0351.063-.05614.09125h-.007c-.014.021-.03508.02806-.07018.03491-.007-.01392-.02107-.02806-.0351-.049l-.021-.04219c-.02809-.042-.04913-.08418-.07722-.13323V99.082l-.021-.04219c.09124-.0981.18246-.19642.27371-.30865.007-.00707.007-.01414.014-.01414.02806-.03512.05615-.07711.0842-.11223.04913-.05612.09826-.11931.14739-.18249.01406-.021.0351-.0422.04913-.06319.09125-.1193.18249-.23861.26672-.35791,0-.00707.007-.00707.007-.01414a.29532.29532,0,0,0,.0351-.049c.03507-.06318.07719-.1193.11229-.18249.0351-.05611.06316-.11223.09826-.16856,0-.00686,0-.00686.007-.01392a.02474.02474,0,0,1,.007-.01414c.007-.01392.007-.021.014-.03491a1.6333,1.6333,0,0,0,.07719-.19663.02543.02543,0,0,1,.007-.021c.007-.02121.01405-.03513.02107-.05612l.021-.09124a.02609.02609,0,0,0,.007-.02121.80871.80871,0,0,0,.02808-.12637.07465.07465,0,0,0-.007-.05612,2.82969,2.82969,0,0,1,.33689-.45622l-.04211.0212c-.11229.07711-.19652.18249-.31585.27374-.08421.06318-.25968-.04927-.14739-.12638.0702-.05611.12634-.1193.1895-.17542l.01406-.01413a3.14857,3.14857,0,0,1,.43512-.42817c.09125-.07711.17548-.13322.25971-.20348l.0351-.03513a1.07609,1.07609,0,0,1,.18948-.21054.00692.00692,0,0,1,.007-.00707c.80712-.78608,2.16872-.751,3.24257-1.24916.42112-.16857.93346.08418,1.35459,0a1.2841,1.2841,0,0,1,.765.16835c-.765.414-1.46691.88439-2.16174,1.31941m1.7336-5.8885c-.08423-.08418.25266,0,.34391-.16836h-.6808c-.09125,0-.09125-.08439-.09125-.16856-.41411.08417-.92645.25274-1.34757.33692-.59658.16857-1.1019.58966-1.78271.758-.93346.344-1.69148,1.102-2.70918,1.43871-.07719,0-.07719-.07711-.07719-.16129.07719-.25981.41409-.344.58956-.59652,0-.08439,0-.16856-.08423-.16856a15.01685,15.01685,0,0,1,2.45649-2.2038v-.25275c.25269-.33692.67379-.50527.84926-.93343a1.47068,1.47068,0,0,1,.84223-.758c-.08423-.08418-.25267-.08418-.25267-.25253-.33689,0-.6808.16835-1.01769-.08439a1.12335,1.12335,0,0,1,.52639-.3018.34789.34789,0,0,1-.1895-.12637c-.08423-.16835.16142-.35791.42814-.4211.32985-.08417.758-.08417,1.01065-.3367-.58955-.09125-1.27036.16128-1.86693-.16857a4.56875,4.56875,0,0,1,2.11962-2.54779c.09122,0,.25267,0,.25267.09125a.82011.82011,0,0,1-.67379.84219,9.93321,9.93321,0,0,1,2.03539.50549c-.08423.17542-.25266.09124-.33689.09124.41408.25253.92645.08418,1.34755.4211-.25267.25253-.50533,0-.758,0,2.62494.76509,5.41833,1.35454,7.62215,3.046a23.4891,23.4891,0,0,1-5.84647,1.7827,1.72078,1.72078,0,0,1-.67376-.09125c0,.09125,0,.25981-.09124.25981a1.38576,1.38576,0,0,0-.84225.16836c-.34391.16857-.84924.25274-1.1019,0" style="fill: #000091"/>
    <path d="M185.3849,57.83953H137.18836a1.959,1.959,0,0,1,.44918.21055c.393.21054.89839.48428,1.22123.65263a4.00272,4.00272,0,0,1,1.61427,1.34768c.16846.2596.42112.76488.25269,1.1018-.16846.42816-.25269,1.102-.67379,1.27036a3.176,3.176,0,0,1-1.78273.16856,4.17316,4.17316,0,0,1-1.01068-.16856,6.95076,6.95076,0,0,1,3.29874,2.28819c.08423.16835.42112.25253.765.25253.07719,0,.07719.16856.07719.25274-.16843.17542-.32985.25274-.25266.51234h.25266c.42814-.16856.34391-1.01761.93349-.76508a.95491.95491,0,0,1,.34391,1.27036,9.73932,9.73932,0,0,1-1.01769.84926.7195.7195,0,0,0,0,.58966,2.62156,2.62156,0,0,1,.42109,1.01762c.25269.58966.3369,1.27036.5966,1.86688a11.91864,11.91864,0,0,1,.58956,3.80422c0,.6807-.3369,1.27036-.08423,1.95106a6.93013,6.93013,0,0,0,.93346,1.77563,13.68024,13.68024,0,0,1,.92646,1.35475c.51236.84927,1.43882,1.69146,1.01769,2.70908-.25266.59651-1.17911.51234-1.77569.84926-.51236.4211-.08423,1.102.16844,1.5231.42814.76487-.50533,1.27036-1.10193,1.52289.16846.25275.50536.16857.5966.33692.07719.42817.50533.68091.25266,1.102-.3439.51234-1.3616.76487-.84926,1.52289a2.2335,2.2335,0,0,1-.0842,1.86709,2.08336,2.08336,0,0,1-1.523,1.27036,3.47593,3.47593,0,0,1-1.60726.08418,1.25881,1.25881,0,0,0-.51234-.16857,37.98308,37.98308,0,0,0-4.31643-.59652,4.88771,4.88771,0,0,0-1.18613.33692,7.60185,7.60185,0,0,0-1.02471.91245l-.007.00707-.1895.21055c-.0351.03513-.07017.08417-.10527.12637-.02809.02806-.04913.05612-.07722.08418a9.99107,9.99107,0,0,0-.66675.97542.33267.33267,0,0,0-.0351.07025c-.02107.03513-.04211.07732-.06316.11224a8.29315,8.29315,0,0,0-.63871,1.55823c-.5755,1.93713-.32985,3.60053.07722,4.00749.11228.11245,2.79338.94051,4.66735,1.76878a16.01572,16.01572,0,0,1,1.99328,1.01076H185.3849Z" style="fill: #e1000f"/>
    <path d="M140.05264,74.18649c.33689.08418.84222.08418.84222.25253-.16142.68091-1.18613.84927-1.69146,1.52311h-.25269c-.25266.16835-.16843.59652-.42811.59652a1.1898,1.1898,0,0,0-.758.08417,1.44055,1.44055,0,0,0,1.27036.50549.383.383,0,0,1,.25968.34378.24394.24394,0,0,0,.16145-.09125c.09124,0,.16843,0,.16843.09125V77.829c-.25266.33692-.67379.16856-1.01068.25274a3.8012,3.8012,0,0,0,1.94414,0c.51237-.16857,0-1.01761.3369-1.43893-.16142,0,0-.25959-.16142-.25959.16142-.1615.33689-.4211.50533-.50528a.609.609,0,0,0,.50535-.25274c0-.16836-.34391-.25275-.25269-.4211.50536-.33692.93349-.84926.758-1.35454-.07722-.25274-.758-.25274-1.17912-.42816a2.865,2.865,0,0,0-1.44583.08418,6.50712,6.50712,0,0,0-1.26335.344,5.90088,5.90088,0,0,0-1.61426.8422,11.85373,11.85373,0,0,1,1.86693-.50528,5.48431,5.48431,0,0,1,1.43882,0" style="fill: gray"/>
    <path d="M169.27375,349.00361c.91242,0,1.6985.69483,1.27738,2.44947l-4.23922.98249c.737-1.97226,1.97223-3.432,2.96184-3.432m2.3442,6.84293h-.84222c-1.05981,1.25644-2.19681,2.23893-3.33381,2.23893-1.15807,0-1.74763-.68777-1.74763-2.23893a9.59871,9.59871,0,0,1,.18951-1.8808l6.84309-2.246c1.32651-3.15845-.27373-4.541-2.14768-4.541-3.23555,0-6.9133,5.40422-6.9133,10.14874,0,2.11962,1.01069,3.27775,2.58985,3.27775,1.85995,0,3.776-1.8037,5.36219-4.75866m-1.3616-9.92427,4.81474-4.49177v-.51941h-2.58985l-2.96184,5.01118Zm-14.753,3.15844h2.267l-3.60754,9.84717a1.143,1.143,0,0,0,.98963,1.67732c2.04943,0,5.35515-2.02131,6.52024-4.78672h-.6457a9.01359,9.01359,0,0,1-4.169,2.51973l3.30572-9.2575h3.376l.42811-1.4038H160.683l1.25633-3.55833H160.6339l-2.3442,3.55833-2.78637.393Zm-3.06712-.47014a1.01141,1.01141,0,0,0-.81416-1.43186c-1.97221,0-4.31641,1.77563-5.25692,4.27437h.6457a4.99428,4.99428,0,0,1,2.73727-2.09863l-3.776,9.81889a.98181.98181,0,0,0,.82118,1.43186c1.86693,0,4.07079-1.8037,5.00425-4.26731h-.63868a5.07487,5.07487,0,0,1-2.74429,2.09863Zm.69483-4.93408a1.62839,1.62839,0,1,0-1.63531-1.62827,1.62506,1.62506,0,0,0,1.63531,1.62827M131.38751,358.7803c-.4913,1.10907.021,1.8249,1.10894,1.8249.66675,0,.96152-.17542,1.23526-.89125l2.61092-6.92732c1.21421-1.488,3.71282-3.06013,4.69541-3.06013.71591,0,.61765.58945.14739,1.47384l-4.02867,7.72754a1.13776,1.13776,0,0,0,.98964,1.67732c1.97221,0,4.31641-1.77564,5.25689-4.26731h-.63869a5.05993,5.05993,0,0,1-2.73724,2.09863l3.45314-6.98344a5.64052,5.64052,0,0,0,.66678-2.40043,1.69926,1.69926,0,0,0-1.82485-1.87394c-1.70551,0-3.43207,1.93006-5.48149,4.29536v-1.8249c0-1.31234-.42112-2.47046-1.60725-2.47046-.737,0-1.45285.64578-2.11962,1.558v.24568c1.28441-.07711,1.8529,1.853.9405,3.87427Zm-.04913-8.59073c.47025-1.60706.2246-3.01086-1.01068-3.01086-1.45987,0-1.83184,1.10886-3.31277,4.29536v-1.8249c0-1.31234-.41408-2.47046-1.60024-2.47046-1.38265,0-2.639,2.14768-3.6005,4.27437h.63868c.65974-.96857,1.27738-1.53724,1.77569-1.53724.59657,0,.91944.91952,0,2.94083l-2.66,5.92363c-.49831,1.10907.02107,1.8249,1.10894,1.8249.66677,0,.96155-.17542,1.23529-.89125l2.61089-6.92732c.737-.91952,1.41074-1.7056,2.24594-2.59706Zm-15.1531-1.186c.91242,0,1.6985.69483,1.28439,2.44947l-4.24624.98249c.744-1.97226,1.97925-3.432,2.96185-3.432m2.3442,6.84293h-.84222c-1.05981,1.25644-2.1898,2.23893-3.33384,2.23893-1.158,0-1.75464-.68777-1.75464-2.23893a9.08333,9.08333,0,0,1,.20356-1.8808l6.83608-2.246c1.33352-3.15845-.27373-4.541-2.14768-4.541-3.22854,0-6.9133,5.40422-6.9133,10.14874,0,2.11962,1.0177,3.27775,2.58985,3.27775,1.8529,0,3.783-1.8037,5.36219-4.75866m-16.12167-6.76583h2.274l-3.60053,9.84717a1.13985,1.13985,0,0,0,.98259,1.67732c2.04943,0,5.35518-2.02131,6.52026-4.78672h-.6457a9.01346,9.01346,0,0,1-4.169,2.51973l3.30575-9.2575h3.383l.41408-1.4038h-3.27767l1.25633-3.55833h-1.30546l-2.3442,3.55833-2.79341.393Zm-12.45795,7.67121c0-3.03186,3.37593-7.1518,5.285-7.1518a4.321,4.321,0,0,1,1.15807.14737l-1.97221,5.25686c-1.144,1.38281-2.89868,3.06013-3.70583,3.06013-.47023,0-.765-.393-.765-1.31256m10.38749-10.14167-1.03173-.07732-1.16508,1.144h-.24565c-5.62891,0-10.48575,6.30982-10.48575,10.907a1.86613,1.86613,0,0,0,2.02134,2.02131c1.45986,0,2.89164-2.07036,4.49188-4.29537l-.07017.79315c-.20354,2.267.49129,3.50222,1.67742,3.50222,1.37564,0,2.639-2.14768,3.60054-4.26731h-.63869c-.66677.9615-1.28439,1.53018-1.77569,1.53018-.51938,0-.89138-.94051,0-2.94083Zm-11.99474,3.57932c.47023-1.60706.22458-3.01086-1.01068-3.01086-1.45285,0-1.82482,1.10886-3.30575,4.29536v-1.8249c0-1.31234-.41409-2.47046-1.60024-2.47046-1.38967,0-2.646,2.14768-3.60755,4.27437h.64573c.65973-.96857,1.27737-1.53724,1.77569-1.53724.58955,0,.91242.91952,0,2.94083l-2.66707,5.92363c-.49831,1.10907.02809,1.8249,1.10894,1.8249a1.10067,1.10067,0,0,0,1.23526-.89125l2.61794-6.92732c.73694-.91952,1.40372-1.7056,2.23892-2.59706Zm-18.901,9.92428.24565-.76488c-3.28468-.61772-3.69879-.61772-2.40035-4.19726l1.34054-3.67764H72.249c1.63531,0,1.6634.66677,1.41775,2.44241h.92645l2.17574-5.94463h-.94048c-.80715,1.40359-1.45285,2.44241-3.22854,2.44241H69.02046l1.902-5.20781c.58955-1.65633.9405-2.00032,3.15836-2.00032h1.57919c2.29508,0,2.56878.61772,2.56878,2.93376h.91243l.758-4.04262h-13.616l-.24565.76508c2.639.54041,2.88463.78608,1.64937,4.197l-2.96185,8.09231c-1.23526,3.38313-1.75464,3.64979-4.78666,4.19726l-.2246.76488Z"/>
    <path d="M136.2184,318.15556c.91944,0,1.71253.68776,1.2914,2.4424l-4.25324.98956c.744-1.97226,1.97924-3.432,2.96184-3.432m2.3442,6.83608h-.83521c-1.05981,1.26329-2.18979,2.24578-3.32682,2.24578-1.158,0-1.75464-.68776-1.75464-2.24578a9.07253,9.07253,0,0,1,.19652-1.874l6.84312-2.246c1.3265-3.15844-.28075-4.541-2.1547-4.541-3.22856,0-6.90628,5.40422-6.90628,10.14189,0,2.12648,1.01068,3.2846,2.58985,3.2846,1.84589,0,3.776-1.80369,5.34816-4.76551m-1.35459-9.92427,4.82176-4.48492V310.063h-2.59686l-2.96185,5.00433ZM122.448,318.2256h2.281l-3.60755,9.85423a1.14453,1.14453,0,0,0,.98961,1.67732c2.04943,0,5.34816-2.02838,6.50623-4.79357h-.63167a8.88736,8.88736,0,0,1-4.17606,2.51952l3.30575-9.2575h3.383l.42112-1.40359h-3.28468l1.2563-3.55148h-1.30543l-2.34423,3.55148-2.79338.393Zm-3.05309-.46308a1.01733,1.01733,0,0,0-.81414-1.43186c-1.97924,0-4.32344,1.77563-5.25691,4.2673h.63869a5.01434,5.01434,0,0,1,2.73724-2.09156l-3.776,9.81911a.98644.98644,0,0,0,.81413,1.43164c1.881,0,4.07079-1.80369,5.01127-4.2673h-.63869a5.03763,5.03763,0,0,1-2.73724,2.09156Zm.69486-4.94115a1.6219,1.6219,0,0,0,1.62128-1.6212,1.62833,1.62833,0,1,0-3.25662,0,1.61179,1.61179,0,0,0,1.63534,1.6212m-13.13878,14.76,6.89225-18.03778-.2246-.27374-4.32345.49135v.51942l.84225.64578c.765.58945.51935,1.15791-.17548,2.9828l-5.37622,14.17059a1.13223,1.13223,0,0,0,.9826,1.67732c1.97221,0,4.07076-1.77563,5.01127-4.2673h-.63869a5.54415,5.54415,0,0,1-2.98993,2.09156m-13.07559-1.67732c0-3.03207,3.38294-7.15908,5.278-7.15908a4.2397,4.2397,0,0,1,1.15808.15443l-1.97224,5.25686c-1.13,1.37574-2.88463,3.06013-3.69876,3.06013-.47025,0-.765-.40011-.765-1.31234m10.38748-10.14189-1.03874-.07025L102.066,316.822h-.24565c-5.62891,0-10.48574,6.31667-10.48574,10.90676a1.86812,1.86812,0,0,0,2.02133,2.02838c1.45285,0,2.88463-2.07036,4.49188-4.29536l-.07718.79314c-.18951,2.267.49129,3.50222,1.67742,3.50222,1.38268,0,2.646-2.14768,3.60755-4.2673h-.6457c-.66678.95464-1.28439,1.5231-1.77569,1.5231-.51237,0-.88436-.93344,0-2.93376ZM79.14337,332.15051c0-1.31256,1.2563-2.11963,3.05306-2.83545a23.963,23.963,0,0,0,2.66707,1.01055c1.881.61772,2.58985.8634,2.58985,1.43186,0,1.20717-2.04943,2.11962-4.82878,2.11962-2.3442,0-3.4812-.49135-3.4812-1.72658m5.10248-7.973c-.81413,0-1.13-.688-1.13-1.48091,0-2.197,1.17911-5.42543,3.03906-5.42543.80712,0,1.13.68776,1.13,1.47384,0,2.19694-1.18615,5.4325-3.03906,5.4325m5.36219,6.76582c0-1.58629-1.41073-2.14768-3.71282-2.84251-1.9722-.58966-2.85654-.76509-2.85654-1.4038a2.01692,2.01692,0,0,1,1.2563-1.579,5.76117,5.76117,0,0,0,5.33413-5.53081,3.43778,3.43778,0,0,0-.26672-1.3616h2.73023l.42112-1.40359H88.17626a3.36029,3.36029,0,0,0-1.75464-.49135,5.7203,5.7203,0,0,0-5.65,5.45349,3.18152,3.18152,0,0,0,2.61092,3.2846c-1.60024.716-2.48458,1.55116-2.48458,2.54072a1.54589,1.54589,0,0,0,.65973,1.33354c-3.69879,1.08787-5.15865,2.31625-5.15865,4.0709,0,1.70538,2.24594,2.42141,4.913,2.42141,4.52,0,8.29594-2.44262,8.29594-4.492m-17.25165-10.563c1.62131,0,1.64937.6597,1.40372,2.4424h.94051l2.16872-5.95169h-.93346c-.82118,1.41087-1.45987,2.44241-3.23558,2.44241H69.12084l1.80377-4.95507c.58956-1.65633.93347-1.97911,3.15837-1.97911h1.57215c2.30208,0,2.57582.61751,2.57582,2.91255h.91242l.758-4.04969h-13.616l-.25266.77216c2.639.5404,2.88463.78607,1.65638,4.19l-2.96184,8.09937c-1.23526,3.38313-1.75465,3.6498-4.78666,4.1902l-.22461.76508h15.1531l2.7162-4.29536H76.54648a9.90342,9.90342,0,0,1-6.93434,3.18629c-4.02163,0-3.64966-.16835-2.32316-3.84621l1.43181-3.92331ZM74.32862,310.035l4.81475-3.30581V306.21H76.23066l-2.66707,3.825Z"/>
    <path d="M134.61816,287.30751c.91944,0,1.70551.68776,1.28439,2.44241l-4.24623.98955c.73694-1.97911,1.97223-3.432,2.96184-3.432m2.3442,6.83608h-.83521c-1.06682,1.25623-2.19681,2.246-3.33383,2.246-1.15805,0-1.75465-.69483-1.75465-2.246a9.65394,9.65394,0,0,1,.19652-1.881l6.83611-2.23893c1.33352-3.16529-.26672-4.541-2.14768-4.541-3.23558,0-6.90628,5.40423-6.90628,10.13482,0,2.12669,1.01769,3.28482,2.58985,3.28482,1.8529,0,3.776-1.79684,5.35517-4.75866m-1.3616-9.92427,4.82176-4.492v-.51919h-2.59687l-2.96184,5.01118Zm-14.13541,3.15823h1.80377l-3.60754,9.84716a1.14311,1.14311,0,0,0,.98961,1.67754c2.04942,0,5.35517-2.02152,6.51324-4.78672h-.63868a9.01315,9.01315,0,0,1-4.169,2.51952l3.29874-9.2575h3.39l.4141-1.40358h-3.27766l1.25633-3.55149h-1.30546l-2.3442,3.55149-2.32316.393Zm-1.77569,1.10908c.46322-1.60022.21757-3.004-1.01769-3.004-1.45285,0-1.81783,1.10886-3.29874,4.2883v-1.82468c0-1.30549-.42112-2.46362-1.60725-2.46362-1.38265,0-2.646,2.14062-3.60755,4.26731h.6457c.66678-.9615,1.28442-1.53,1.77572-1.53.58956,0,.91239.91223,0,2.93376l-2.66707,5.92363c-.4913,1.11593.02809,1.8249,1.116,1.8249.65973,0,.95451-.16857,1.22824-.88439l2.61794-6.94146c.744-.90538,1.41073-1.69853,2.24594-2.58977Zm-15.1531-1.17912c.9124,0,1.69848.68776,1.27738,2.44241l-4.23922.98955c.737-1.97911,1.97221-3.432,2.96184-3.432m2.34421,6.83608h-.83521c-1.06683,1.25623-2.20385,2.246-3.33384,2.246-1.16508,0-1.75464-.69483-1.75464-2.246a9.65317,9.65317,0,0,1,.19652-1.881l6.83608-2.23893c1.33355-3.16529-.27371-4.541-2.14768-4.541-3.23555,0-6.90626,5.40423-6.90626,10.13482,0,2.12669,1.00364,3.28482,2.58985,3.28482,1.8529,0,3.776-1.79684,5.35518-4.75866m-16.76036,2.76519c-.66677,0-1.62128-.6175-1.62128-1.15791a13.90483,13.90483,0,0,1,.65973-1.902l1.116-2.94083c1.17911-1.4038,2.97587-2.91277,3.99356-2.91277.61765,0,1.08787.393,1.08787,1.31256,0,2.68808-2.51964,7.60095-5.23584,7.60095M97.89,288.22c0-2.00032-.737-2.73735-2.11258-2.73735-1.72656,0-3.3619,1.8249-4.9902,4.04262l4.12691-10.8365-.23162-.26667-4.31641.49114v.51941l.84222.64578c.765.58945.51938,1.20011-.17545,2.98281l-4.44278,11.44737a12.40172,12.40172,0,0,0-.70886,2.10549c0,1.17911,1.60024,2.28819,3.05309,2.28819,3.3619,0,8.95568-6.04315,8.95568-10.68229m-13.4195-1.31256a1.008,1.008,0,0,0-.81416-1.42479c-1.97221,0-4.31641,1.77564-5.25692,4.26731h.63869a5.07588,5.07588,0,0,1,2.74428-2.09863l-3.783,9.82617a.98555.98555,0,0,0,.82118,1.42479c1.87394,0,4.07078-1.79684,5.01126-4.2673h-.6457a5.036,5.036,0,0,1-2.73727,2.09841Zm.68782-4.93407a1.62491,1.62491,0,0,0,1.62829-1.62827,1.6431,1.6431,0,0,0-1.62829-1.62827,1.62335,1.62335,0,0,0-1.62129,1.62827,1.60584,1.60584,0,0,0,1.62129,1.62827M75.213,280.39411H66.23621l-.24565.76508c2.639.54747,2.88463.79315,1.64937,4.197l-2.91271,8.09252c-1.23526,3.38292-1.75465,3.65665-4.78666,4.197l-.22461.76509H73.38814L76.35,293.12576H75.31823c-1.68444,1.853-3.65667,4.17606-6.68869,4.17606-2.30208,0-2.57582-.393-1.34056-3.85306l2.91271-8.09252c1.21422-3.38291,1.75465-3.64958,4.79371-4.197Z"/>
    <g>
      <path d="M61.63232,125.08314h8.48926l8.2002,14.09961L86.523,125.08314h8.48828v33.57129H88.20166v-24.0752l-7.48145,12.56543H75.92432l-7.48145-12.56543v24.0752H61.63232Z"/>
      <path d="M104.36572,125.08314h6.81055v33.57129h-6.81055Z"/>
      <path d="M120.57568,125.08314h8.72852l15.01074,24.26758V125.08314h6.81055v33.57129H142.397l-15.01074-24.26758v24.26758h-6.81055Z"/>
      <path d="M160.52686,125.08314h6.81054v33.57129h-6.81054Z"/>
      <path d="M178.65674,149.44642a9.67907,9.67907,0,0,0,7.43359,4.124c2.68555,0,4.31543-1.43847,4.31543-3.83691,0-6.18653-15.25-4.50781-15.25-15.874,0-5.32324,4.41211-9.73535,10.83789-9.73535a14.89843,14.89843,0,0,1,11.75,5.65918l-4.9873,4.50782c-1.9668-2.542-4.17285-4.21973-6.71485-4.21973-2.39746,0-3.98046,1.53418-3.98046,3.54883,0,6.09082,15.251,4.36425,15.251,15.874-.0957,6.33008-4.9873,10.11914-11.17383,10.11914-5.65918,0-9.44824-2.0625-12.42187-5.61133Z"/>
      <path d="M201.00635,125.08314h27.52832v6.18652h-10.3584v27.38477h-6.81055V131.26966H201.00635Z"/>
      <path d="M234.53076,125.08314h19.56738v5.65918H241.34131v7.96093h10.83887v5.65918H241.34131v8.63282h12.75683v5.65918H234.53076Zm.57617-9.35156h7.002l5.41894,6.4746h-6.23437Z"/>
      <path d="M262.0127,125.08314h10.26367c7.38574,0,11.9414,3.78906,11.9414,10.02344a9.0095,9.0095,0,0,1-5.41894,8.68066l10.50195,14.86719H281.292l-8.96777-13.57227h-3.501v13.57227H262.0127Zm6.81054,5.65918V139.423h3.83692c2.87695,0,4.55566-1.67871,4.55566-4.41211,0-2.542-1.67871-4.26855-4.55566-4.26855Z"/>
      <path d="M293.61914,125.08314h19.56738v5.65918H300.42969v7.96093h10.83886v5.65918H300.42969v8.63282h12.75683v5.65918H293.61914Z"/>
    </g>
    <g>
      <path d="M85.37158,197.16615l5.37207,4.124a17.1688,17.1688,0,0,1-14.14844,6.8584,17.74546,17.74546,0,1,1,14.14844-28.67871l-5.37207,4.17187a10.49679,10.49679,0,0,0-8.77637-4.60351c-6.33007,0-10.83789,4.93945-10.83789,11.36523,0,6.42676,4.50782,11.36621,10.83789,11.36621A10.49682,10.49682,0,0,0,85.37158,197.16615Z"/>
      <path d="M96.69189,173.61829h6.81055v13.38086h16.92871V173.61829h6.81055v33.57129h-6.81055v-14.0039H103.50244v14.0039H96.69189Z"/>
      <path d="M145.18018,173.61829h8.91992l12.709,33.57129h-7.24219l-3.21289-8.72851H142.92529l-3.21289,8.72851h-7.24121Zm9.06347,19.04-4.60351-12.61328-4.6045,12.61328Z"/>
      <path d="M172.0376,173.61829h10.26367c7.38574,0,11.94141,3.78907,11.94141,10.02344a9.00953,9.00953,0,0,1-5.41895,8.68067l10.50195,14.86718h-8.00879l-8.96777-13.57226h-3.501v13.57226H172.0376Zm6.81054,5.65918v8.68067h3.83692c2.87695,0,4.55566-1.67871,4.55566-4.41211,0-2.542-1.67871-4.26856-4.55566-4.26856Z"/>
      <path d="M226.95166,198.84486v-5.85157h-8.53613v-5.80273h15.34668v14.09961a17.907,17.907,0,0,1-14.62793,6.8584c-10.88574,0-18.31934-8.15332-18.31934-17.74512a17.92554,17.92554,0,0,1,31.98828-10.93359l-5.37207,4.17187a10.49679,10.49679,0,0,0-8.77636-4.60351c-6.33008,0-10.8379,4.93945-10.8379,11.36523a11.05427,11.05427,0,0,0,11.31739,11.36621A11.21005,11.21005,0,0,0,226.95166,198.84486Z"/>
      <path d="M241.38916,173.61829H260.957v5.65918H248.19971v7.96094h10.83935v5.65918H248.19971v8.63281H260.957v5.65918H241.38916Zm6.61816-2.87695,5.41993-6.47461h7.00244l-6.23584,6.47461Z"/>
      <path d="M281.43652,173.61829H294.625c10.64746,0,17.84082,7.72168,17.84082,16.78516,0,9.06445-7.19336,16.78613-17.84082,16.78613H281.43652Zm6.81055,6.18653v21.19824h6.47461a10.60007,10.60007,0,1,0,0-21.19824Z"/>
      <path d="M338.50977,173.61829h6.80957V194.049c0,8.82422-5.17969,14.09961-13.62012,14.09961-8.39258,0-13.57227-5.27539-13.57227-14.09961V173.61829h6.81055v21.00586c0,4.50782,2.541,7.14551,6.80957,7.14551,4.17285,0,6.7627-2.63769,6.7627-7.14551Z"/>
    </g>
    <g>
      <path d="M61.63232,222.15736h6.81055v27.38476H81.19971v6.18653H61.63232Z"/>
      <path d="M120.19092,238.94251a17.81655,17.81655,0,1,1-17.793-17.74414A17.44565,17.44565,0,0,1,120.19092,238.94251Zm-7.002,0c0-6.42578-4.50781-11.36523-10.791-11.36523-6.33008,0-10.83789,4.93945-10.83789,11.36523,0,6.42676,4.50781,11.36621,10.83789,11.36621C108.68115,250.30872,113.189,245.36927,113.189,238.94251Z"/>
      <path d="M150.21533,247.38392v-5.85156H141.6792v-5.80274h15.34668v14.09961a17.907,17.907,0,0,1-14.62793,6.8584c-10.88574,0-18.31934-8.15332-18.31934-17.74512a17.92554,17.92554,0,0,1,31.98828-10.93359l-5.37207,4.17187a10.4968,10.4968,0,0,0-8.77636-4.60351c-6.33008,0-10.83789,4.93945-10.83789,11.36523A11.05426,11.05426,0,0,0,142.398,250.30872,11.21005,11.21005,0,0,0,150.21533,247.38392Z"/>
      <path d="M164.84521,222.15736H184.4126v5.65918H171.65576v7.96093h10.83887v5.65918H171.65576v8.63282H184.4126v5.65918H164.84521Z"/>
      <path d="M192.56592,222.15736h8.48926l8.20019,14.09961,8.20117-14.09961h8.48828v33.57129h-6.80957v-24.0752l-7.48144,12.56543h-4.7959l-7.48145-12.56543v24.0752h-6.81054Z"/>
      <path d="M235.53857,222.15736H255.106v5.65918H242.34912v7.96093H253.188v5.65918H242.34912v8.63282H255.106v5.65918H235.53857Z"/>
      <path d="M263.26074,222.15736h8.72852L287,246.42493V222.15736h6.81055v33.57129H285.082l-15.01074-24.26758v24.26758h-6.81055Z"/>
      <path d="M299.999,222.15736h27.52832v6.18652H317.169v27.38477H310.3584V228.34388H299.999Z"/>
    </g>
  </g>
</svg>
