<svg width="177" height="46" viewBox="0 0 177 46" fill="none" xmlns="http://www.w3.org/2000/svg">
    <g fill-rule="evenodd" clip-rule="evenodd">
        <path d="M80.0642 45.2844V41.5272H80.4395H80.5199H82.0748V41.9896H80.5199V43.1457H81.9675V43.6081H80.5199V44.822H82.1284V45.2844H80.5199H80.4395H80.0642ZM80.8148 41.2381L81.4314 40.4H81.9675L81.2437 41.2381H80.8148ZM49.7717 45.2845V41.5273H50.5223L52.2916 44.822H52.3452V41.5273H52.801V45.2845H52.0236L50.2543 41.9897H50.2006V45.2845H49.7717ZM46.4476 45.4C46.1259 45.4 45.8578 45.3422 45.6434 45.1977C45.4289 45.0531 45.2681 44.8797 45.1608 44.6485C45.0536 44.4173 45 44.1283 45 43.8104V41.556H45.4557V43.8682C45.4557 44.0705 45.4825 44.2728 45.563 44.4173C45.6434 44.5618 45.7506 44.7063 45.8846 44.793C46.0187 44.8797 46.2063 44.9375 46.4208 44.9375C46.6353 44.9375 46.7961 44.8797 46.9569 44.793C47.1178 44.7063 47.1982 44.5907 47.2786 44.4173C47.3591 44.2439 47.3859 44.0705 47.3859 43.8682V41.556H47.8416V43.8104C47.8416 44.1283 47.788 44.3884 47.6807 44.6485C47.5735 44.8797 47.4127 45.082 47.1982 45.1977C46.9837 45.3133 46.7693 45.4 46.4476 45.4ZM54.7849 41.5273V45.2845H55.2403V41.5273H54.7849ZM58.0284 45.2845L56.822 41.5273H57.3046L58.3405 44.822H58.4909L59.4492 41.5273H59.9049L58.779 45.2845H58.0284ZM61.5403 41.5273V45.2845H61.9156H61.996H63.6045V44.822H61.996V43.6082H63.4436V43.1457H61.996V41.9897H63.5508V41.5273H61.996H61.9156H61.5403ZM65.3467 45.2845V41.5273H65.8024V41.5562H66.4994C66.7407 41.5562 66.9819 41.5851 67.1696 41.6718C67.3572 41.7585 67.5181 41.8741 67.6253 42.0475C67.7325 42.2209 67.7862 42.4521 67.7862 42.7122V42.7989C67.7862 43.059 67.7325 43.2903 67.6253 43.4637C67.5181 43.6371 67.384 43.7527 67.1696 43.8394C67.134 43.8538 67.0991 43.8666 67.0645 43.8779L68.0542 45.2845H67.4913L66.5765 43.9541C66.5515 43.9547 66.5258 43.955 66.4994 43.955H65.8024V45.2845H65.3467ZM65.8024 43.4926V41.9897H66.5798C66.7139 41.9897 66.8479 42.0186 66.9551 42.0764C67.0624 42.1342 67.1428 42.2209 67.1964 42.3365C67.25 42.4521 67.2768 42.5966 67.2768 42.7411C67.2768 42.9145 67.25 43.0301 67.1964 43.1457C67.1428 43.2614 67.0624 43.3481 66.9551 43.4059C66.8479 43.4637 66.7139 43.4926 66.5798 43.4926H65.8024ZM69.9845 45.2556C70.1989 45.3423 70.4402 45.4001 70.7351 45.4001C71.0032 45.4001 71.2444 45.3423 71.4857 45.2845L71.4857 45.2845C71.7002 45.1978 71.861 45.0533 71.9683 44.8799C72.0755 44.7064 72.1291 44.5041 72.1291 44.2729C72.1291 44.0706 72.0755 43.8972 71.9951 43.7527C71.8878 43.6082 71.7538 43.4926 71.5929 43.4059C71.4321 43.3192 71.2176 43.2614 70.9764 43.2325L70.6011 43.2036C70.4134 43.2036 70.2794 43.1458 70.1721 43.0301C70.0649 42.9145 70.0113 42.7989 70.0113 42.6544C70.0113 42.5099 70.0381 42.4232 70.0917 42.3076C70.1453 42.192 70.2258 42.1053 70.333 42.0475C70.4402 41.9897 70.6011 41.9608 70.7619 41.9608C70.9228 41.9608 71.0836 42.0186 71.1908 42.0764C71.2981 42.1342 71.3785 42.2209 71.4321 42.3365C71.4857 42.4521 71.5125 42.5677 71.5125 42.6833H71.9683C71.9683 42.4521 71.9146 42.2498 71.8074 42.0764C71.7002 41.903 71.5661 41.7585 71.3785 41.6718C71.1908 41.5851 70.9764 41.5273 70.7351 41.5273C70.4938 41.5273 70.2794 41.5851 70.0917 41.6718C69.9041 41.7585 69.77 41.903 69.6628 42.0764C69.5556 42.2498 69.502 42.4521 69.502 42.6833C69.502 42.9723 69.5824 43.2036 69.77 43.377C69.9577 43.5504 70.2258 43.666 70.5206 43.6949L70.896 43.7238C71.1372 43.7238 71.2981 43.8105 71.4321 43.8972C71.5661 43.9839 71.6197 44.1284 71.6197 44.2729C71.6197 44.3885 71.5661 44.5041 71.5125 44.6197C71.4589 44.7353 71.3517 44.8221 71.2176 44.8799C71.0836 44.9377 70.9228 44.9666 70.7083 44.9666C70.4938 44.9666 70.3062 44.9377 70.1721 44.851C70.0649 44.7642 69.9577 44.6775 69.9041 44.5619C69.8505 44.4463 69.8237 44.3307 69.8237 44.2151H69.3679C69.3679 44.4463 69.4215 44.6486 69.5288 44.8221C69.636 45.0244 69.77 45.14 69.9845 45.2556ZM73.8447 41.5273H74.3001V45.2845H73.8447V41.5273ZM75.9089 41.5273V41.9897H76.9544V45.2845H77.4102V41.9897H78.4825V41.5273H75.9089ZM85.9082 41.5272V45.3133H86.2835H86.3639V45.2844H87.1145C87.4362 45.2844 87.7043 45.2266 87.9456 45.111C88.1868 44.9954 88.3745 44.8509 88.5353 44.6775C88.6962 44.4752 88.8034 44.3018 88.8838 44.0706C88.9642 43.8394 88.9911 43.637 88.9911 43.4058V43.2902C88.9911 43.059 88.9642 42.8278 88.8838 42.6255C88.8034 42.4232 88.6962 42.2209 88.5353 42.0475C88.3745 41.8451 88.1868 41.7295 87.9456 41.6139C87.7043 41.5272 87.4362 41.4694 87.1145 41.4694H86.2835V41.5272H85.9082ZM86.3639 41.9319V44.8509H87.1413C87.3558 44.8509 87.5434 44.822 87.7043 44.7353C87.8651 44.6486 87.9992 44.5619 88.1332 44.4174C88.2673 44.2729 88.3477 44.1284 88.4013 43.955C88.4549 43.7816 88.4817 43.5792 88.4817 43.3769C88.4817 43.1746 88.4549 42.9723 88.4013 42.7989C88.3477 42.6255 88.2404 42.481 88.1332 42.3365C88.026 42.192 87.8651 42.1053 87.7043 42.0475C87.5434 41.9897 87.3558 41.9319 87.1413 41.9319H86.3639ZM90.6265 41.5273H91.0018H91.0822H92.637V41.9897H91.0822V43.1457H92.5298V43.6082H91.0822V44.822H92.6906V45.2845H91.0822H91.0018H90.6265V41.5273ZM94.7814 45.2556C94.9958 45.3423 95.2371 45.4001 95.532 45.4001C95.8 45.4001 96.0413 45.3423 96.2825 45.2845L96.2826 45.2845C96.497 45.1978 96.6579 45.0533 96.7651 44.8799C96.8723 44.7064 96.926 44.5041 96.926 44.2729C96.926 44.0706 96.8723 43.8972 96.7919 43.7527C96.6847 43.6082 96.5507 43.4926 96.3898 43.4059C96.229 43.3192 96.0145 43.2614 95.7732 43.2325L95.3979 43.2036C95.2103 43.2036 95.0762 43.1458 94.969 43.0301C94.8618 42.9145 94.8082 42.7989 94.8082 42.6544C94.8082 42.5099 94.835 42.4232 94.8886 42.3076C94.9422 42.192 95.0226 42.1053 95.1299 42.0475C95.2371 41.9897 95.3979 41.9608 95.5588 41.9608C95.7196 41.9608 95.8805 42.0186 95.9877 42.0764C96.0949 42.1342 96.1754 42.2209 96.229 42.3365C96.2826 42.4521 96.3094 42.5677 96.3094 42.6833H96.7651C96.7651 42.4521 96.7115 42.2498 96.6043 42.0764C96.497 41.903 96.363 41.7585 96.1754 41.6718C95.9877 41.5851 95.7732 41.5273 95.532 41.5273C95.2907 41.5273 95.0763 41.5851 94.8886 41.6718C94.7009 41.7585 94.5669 41.903 94.4597 42.0764C94.3524 42.2498 94.2988 42.4521 94.2988 42.6833C94.2988 42.9723 94.3793 43.2036 94.5669 43.377C94.7546 43.5504 95.0226 43.666 95.3175 43.6949L95.6928 43.7238C95.9341 43.7238 96.0949 43.8105 96.229 43.8972C96.363 43.9839 96.4166 44.1284 96.4166 44.2729C96.4166 44.3885 96.363 44.5041 96.3094 44.6197C96.2558 44.7353 96.1485 44.8221 96.0145 44.8799C95.8805 44.9377 95.7196 44.9666 95.5052 44.9666C95.2907 44.9666 95.1031 44.9377 94.969 44.851C94.8618 44.7642 94.7546 44.6775 94.7009 44.5619C94.6473 44.4463 94.6205 44.3307 94.6205 44.2151H94.1648C94.1648 44.4463 94.2184 44.6486 94.3256 44.8221C94.4329 45.0244 94.5669 45.14 94.7814 45.2556ZM100.679 41.5273H101.296L102.314 44.0417H102.395L103.414 41.5273H104.03V45.2845H103.574V42.142L102.609 44.5041H102.046L101.081 42.142V45.2845H100.679V41.5273ZM106.014 41.5272V45.2844H106.389H106.47H108.078V44.822H106.47V43.6081H107.917V43.1457H106.47V41.9896H108.024V41.5272H106.47H106.389H106.014ZM107.381 40.4L106.765 41.2381H107.193L107.917 40.4H107.381ZM109.445 41.9897V41.5273H112.019V41.9897H110.973V45.2845H110.517V41.9897H109.445ZM114.082 41.5273H113.627V45.2845H114.082V41.5273ZM116.067 41.5273H116.442H116.522H118.077V41.9897H116.522V43.1457H117.97V43.6082H116.522V44.822H118.131V45.2845H116.522H116.442H116.067V41.5273ZM120.329 41.5273H119.873V45.2845H120.329V43.955H121.026C121.052 43.955 121.078 43.9547 121.103 43.9541L122.018 45.2845H122.581L121.591 43.8779C121.626 43.8666 121.661 43.8538 121.696 43.8394C121.911 43.7527 122.045 43.6371 122.152 43.4637C122.259 43.2903 122.313 43.059 122.313 42.7989V42.7122C122.313 42.4521 122.259 42.2209 122.152 42.0475C122.045 41.8741 121.884 41.7585 121.696 41.6718C121.509 41.5851 121.267 41.5562 121.026 41.5562H120.329V41.5273ZM120.329 41.9897V43.4926H121.106C121.24 43.4926 121.374 43.4637 121.482 43.4059C121.589 43.3481 121.669 43.2614 121.723 43.1457C121.777 43.0301 121.803 42.9145 121.803 42.7411C121.803 42.5966 121.777 42.4521 121.723 42.3365C121.669 42.2209 121.589 42.1342 121.482 42.0764C121.374 42.0186 121.24 41.9897 121.106 41.9897H120.329ZM125.235 45.4001C124.94 45.4001 124.698 45.3423 124.484 45.2556C124.27 45.14 124.136 45.0244 124.028 44.8221C123.921 44.6486 123.867 44.4463 123.867 44.2151H124.323C124.323 44.3307 124.35 44.4463 124.404 44.5619C124.457 44.6775 124.564 44.7642 124.672 44.851C124.806 44.9377 124.993 44.9666 125.208 44.9666C125.422 44.9666 125.583 44.9377 125.717 44.8799C125.851 44.8221 125.958 44.7353 126.012 44.6197C126.066 44.5041 126.119 44.3885 126.119 44.2729C126.119 44.1284 126.066 43.9839 125.932 43.8972C125.798 43.8105 125.637 43.7238 125.395 43.7238L125.02 43.6949C124.725 43.666 124.457 43.5504 124.27 43.377C124.082 43.2036 124.001 42.9723 124.001 42.6833C124.001 42.4521 124.055 42.2498 124.162 42.0764C124.27 41.903 124.404 41.7585 124.591 41.6718C124.779 41.5851 124.993 41.5273 125.235 41.5273C125.476 41.5273 125.69 41.5851 125.878 41.6718C126.066 41.7585 126.2 41.903 126.307 42.0764C126.414 42.2498 126.468 42.4521 126.468 42.6833H126.012C126.012 42.5677 125.985 42.4521 125.932 42.3365C125.878 42.2209 125.798 42.1342 125.69 42.0764C125.583 42.0186 125.422 41.9608 125.261 41.9608C125.101 41.9608 124.94 41.9897 124.833 42.0475C124.725 42.1053 124.645 42.192 124.591 42.3076C124.538 42.4232 124.511 42.5099 124.511 42.6544C124.511 42.7989 124.564 42.9145 124.672 43.0301C124.779 43.1458 124.913 43.2036 125.101 43.2036L125.476 43.2325C125.717 43.2614 125.932 43.3192 126.092 43.4059C126.253 43.4926 126.387 43.6082 126.495 43.7527C126.575 43.8972 126.629 44.0706 126.629 44.2729C126.629 44.5041 126.575 44.7064 126.468 44.8799C126.361 45.0533 126.2 45.1978 125.985 45.2845C125.771 45.3423 125.53 45.4001 125.235 45.4001ZM130.382 41.5272V45.3133H130.757H130.838V45.2844H131.588C131.91 45.2844 132.178 45.2266 132.419 45.111C132.66 44.9954 132.848 44.8509 133.009 44.6775C133.17 44.4752 133.277 44.3018 133.357 44.0706C133.438 43.8394 133.465 43.637 133.465 43.4058V43.2902C133.465 43.059 133.438 42.8278 133.357 42.6255C133.277 42.4232 133.17 42.2209 133.009 42.0475C132.848 41.8451 132.66 41.7295 132.419 41.6139C132.178 41.5272 131.91 41.4694 131.588 41.4694H130.757V41.5272H130.382ZM130.838 41.9319V44.8509H131.615C131.829 44.8509 132.017 44.822 132.178 44.7353C132.339 44.6486 132.473 44.5619 132.607 44.4174C132.741 44.2729 132.821 44.1284 132.875 43.955C132.929 43.7816 132.955 43.5792 132.955 43.3769C132.955 43.1746 132.929 42.9723 132.875 42.7989C132.821 42.6255 132.714 42.481 132.607 42.3365C132.5 42.192 132.339 42.1053 132.178 42.0475C132.017 41.9897 131.829 41.9319 131.615 41.9319H130.838ZM136.494 45.4C136.172 45.4 135.904 45.3422 135.69 45.1977C135.475 45.0531 135.314 44.8797 135.207 44.6485C135.1 44.4173 135.046 44.1283 135.046 43.8104V41.556H135.502V43.8682C135.502 44.0705 135.529 44.2728 135.609 44.4173C135.69 44.5618 135.797 44.7063 135.931 44.793C136.065 44.8797 136.252 44.9375 136.467 44.9375C136.681 44.9375 136.842 44.8797 137.003 44.793C137.164 44.7063 137.244 44.5907 137.325 44.4173C137.405 44.2439 137.432 44.0705 137.432 43.8682V41.556H137.888V43.8104C137.888 44.1283 137.834 44.3884 137.727 44.6485C137.62 44.8797 137.459 45.082 137.244 45.1977C137.03 45.3133 136.815 45.4 136.494 45.4ZM142.606 41.5273H141.855V45.2845H142.284V41.9897H142.338L144.107 45.2845H144.885V41.5273H144.429V44.822H144.375L142.606 41.5273ZM148.235 45.4C147.914 45.4 147.646 45.3422 147.431 45.1977C147.217 45.0531 147.056 44.8797 146.949 44.6485C146.841 44.4173 146.788 44.1283 146.788 43.8104V41.556H147.244V43.8682C147.244 44.0705 147.27 44.2728 147.351 44.4173C147.431 44.5618 147.538 44.7063 147.672 44.793C147.807 44.8797 147.994 44.9375 148.209 44.9375C148.423 44.9375 148.584 44.8797 148.745 44.793C148.906 44.7063 148.986 44.5907 149.066 44.4173C149.147 44.2439 149.174 44.0705 149.174 43.8682V41.556H149.629V43.8104C149.629 44.1283 149.576 44.3884 149.469 44.6485C149.361 44.8797 149.201 45.082 148.986 45.1977C148.772 45.3133 148.557 45.4 148.235 45.4ZM152.283 45.2265C152.498 45.3422 152.766 45.4 153.088 45.4C153.325 45.4 153.534 45.3527 153.745 45.3046C153.82 45.2876 153.895 45.2706 153.972 45.2555C154.214 45.1109 154.374 44.9375 154.508 44.7352C154.642 44.5329 154.723 44.3017 154.75 44.0416H154.267C154.214 44.3306 154.106 44.5618 153.892 44.7352C153.677 44.8797 153.436 44.9664 153.141 44.9664C152.927 44.9664 152.739 44.9375 152.578 44.8508C152.418 44.793 152.283 44.6774 152.176 44.5329C152.069 44.3884 151.989 44.215 151.935 44.0416C151.881 43.8682 151.855 43.6659 151.855 43.4635C151.855 43.2612 151.881 43.0589 151.935 42.8855C151.989 42.6832 152.069 42.5387 152.176 42.3942C152.257 42.2497 152.391 42.163 152.552 42.0763C152.712 41.9896 152.873 41.9607 153.088 41.9607C153.275 41.9607 153.463 41.9896 153.597 42.0763C153.731 42.163 153.865 42.2497 153.972 42.3942C154.08 42.5387 154.133 42.7121 154.16 42.9144H154.642C154.616 42.6254 154.535 42.3653 154.401 42.163C154.267 41.9607 154.08 41.7872 153.865 41.6716C153.651 41.556 153.383 41.4982 153.061 41.4982C152.766 41.4982 152.498 41.5849 152.283 41.6716C152.069 41.7583 151.881 41.9318 151.747 42.1052C151.613 42.2786 151.506 42.4809 151.452 42.7121C151.372 42.9144 151.345 43.1456 151.345 43.3768V43.4924C151.345 43.672 151.387 43.8515 151.434 44.0512L151.434 44.0512L151.452 44.1283C151.506 44.3595 151.613 44.5618 151.747 44.7641C151.881 44.9375 152.069 45.1109 152.283 45.2265ZM156.304 41.5273H156.76V44.822H158.261V45.2845H156.76H156.68H156.304V41.5273ZM159.843 41.5272V45.2844H160.219H160.299H161.907V44.822H160.299V43.6081H161.747V43.1457H160.299V41.9896H161.854V41.5272H160.299H160.219H159.843ZM161.21 40.4L160.594 41.2381H161.023L161.747 40.4H161.21ZM164.561 41.5273H165.365L166.652 45.2845H166.17L165.79 44.1862H164.146L163.784 45.2845H163.301L164.561 41.5273ZM165.03 41.9897L165.63 43.7238H164.299L164.872 41.9897H165.03ZM168.69 41.5273H168.234V45.2845H168.69V41.5273ZM170.673 41.5273H171.129V41.5562H171.799C172.04 41.5562 172.282 41.5851 172.469 41.6718C172.657 41.7585 172.818 41.8741 172.925 42.0475C173.032 42.2209 173.086 42.4521 173.086 42.7122V42.7989C173.086 43.059 173.032 43.2903 172.925 43.4637C172.818 43.6371 172.684 43.7527 172.469 43.8394C172.441 43.8508 172.413 43.8612 172.386 43.8706L173.381 45.2845H172.818L171.903 43.9534C171.869 43.9545 171.835 43.955 171.799 43.955H171.129V45.2845H170.673V41.5273ZM171.129 43.4926V41.9897H171.88C172.014 41.9897 172.148 42.0186 172.255 42.0764C172.362 42.1342 172.443 42.2209 172.496 42.3365C172.55 42.4521 172.577 42.5966 172.577 42.7411C172.577 42.9145 172.55 43.0301 172.496 43.1457C172.443 43.2614 172.362 43.3481 172.255 43.4059C172.148 43.4637 172.014 43.4926 171.88 43.4926H171.129ZM175.311 41.5273H174.936V45.2845H175.311H175.392H177V44.822H175.392V43.6082H176.839V43.1457H175.392V41.9897H176.946V41.5273H175.392H175.311Z" fill="#334756"/>
        <path d="M111.141 32.4C110.262 32.4 109.516 32.2464 108.85 31.9648C108.184 31.6833 107.652 31.2993 107.225 30.813C106.799 30.3266 106.48 29.7891 106.266 29.2003C106.053 28.6116 105.947 27.9973 105.947 27.3829V27.0502C105.947 26.4102 106.053 25.7703 106.266 25.1816C106.48 24.5672 106.799 24.0297 107.225 23.5689C107.652 23.1082 108.184 22.7242 108.824 22.4427C109.463 22.1611 110.182 22.0331 111.035 22.0331C112.127 22.0331 113.032 22.2635 113.778 22.7242C114.524 23.185 115.083 23.7993 115.456 24.5416C115.829 25.284 116.016 26.1031 116.016 26.9478V27.8437H108.382C108.428 28.209 108.516 28.5418 108.637 28.842C108.824 29.3027 109.143 29.6867 109.543 29.9427C109.942 30.1986 110.475 30.3522 111.114 30.3522C111.754 30.3522 112.26 30.2242 112.659 29.9939C113.059 29.7379 113.325 29.4563 113.432 29.0979H115.829C115.67 29.7635 115.403 30.3522 114.977 30.8642C114.551 31.3761 114.018 31.7601 113.352 32.016C112.713 32.2464 111.967 32.4 111.141 32.4ZM108.664 25.5399C108.557 25.7703 108.477 26.0263 108.424 26.3078H113.546C113.504 25.9958 113.432 25.7127 113.325 25.4631C113.139 25.028 112.846 24.6696 112.473 24.4392C112.1 24.2089 111.621 24.0809 111.035 24.0809C110.475 24.0809 109.969 24.2089 109.57 24.4648C109.17 24.7208 108.877 25.0792 108.664 25.5399ZM109.729 21.086L111.381 17.4H114.071L111.94 21.086H109.729ZM61.6484 32.0416V18.9614H65.9904L71.7174 29.917H71.9572V18.9614H74.4611V32.0416H70.0925L64.3655 21.0859H64.0991V32.0416H61.6484ZM45 22.6987V24.0297H45.9057V32.0417V32.0673H47.7703V24.0297V22.6987H45.9057H45ZM51.4996 31.9904C51.9525 32.1951 52.5119 32.2975 53.1245 32.2975C53.7105 32.2975 54.2433 32.1951 54.7494 31.9648C55.2023 31.76 55.6018 31.4784 55.8948 31.1201C56.1878 30.7617 56.4009 30.3521 56.5075 29.8658H54.8027C54.7228 30.1218 54.5363 30.3265 54.2433 30.5057C53.9503 30.6849 53.5774 30.7617 53.1245 30.7617C52.6717 30.7617 52.2988 30.6849 52.0057 30.4801C51.7127 30.3009 51.473 30.0194 51.3398 29.6866C51.2558 29.4766 51.1929 29.2462 51.158 28.9955H56.614V28.3555C56.614 27.7412 56.4809 27.1781 56.2145 26.6405C55.9481 26.103 55.5485 25.6678 55.0158 25.3351C54.483 25.0023 53.8171 24.8487 53.0446 24.8487C52.4586 24.8487 51.9258 24.9511 51.473 25.1559C51.0202 25.3607 50.6472 25.6422 50.3276 25.975C50.0346 26.3078 49.7948 26.6917 49.635 27.1269C49.4752 27.562 49.3953 27.9972 49.3953 28.4579V28.7139C49.3953 29.1491 49.4752 29.5842 49.635 30.0194C49.7948 30.4289 50.0079 30.8129 50.3276 31.1712C50.6472 31.504 51.0202 31.7856 51.4996 31.9904ZM51.1718 27.8948C51.2049 27.6895 51.2586 27.5007 51.3398 27.3317C51.473 26.9989 51.6861 26.7429 51.9791 26.5637C52.2721 26.3846 52.6184 26.2822 53.018 26.2822C53.4175 26.2822 53.7638 26.359 54.0302 26.5381C54.2966 26.7173 54.5097 26.9733 54.6429 27.2805C54.7183 27.4688 54.7766 27.6736 54.813 27.8948H51.1718ZM78.3501 31.2481C78.9894 31.9905 79.895 32.3488 81.0671 32.3488V32.3744H81.1736C81.9461 32.3744 82.5854 32.1952 83.1182 31.8625C83.6243 31.5297 84.0239 31.0434 84.2902 30.3778C84.3621 30.1983 84.4242 30.0077 84.4767 29.8058V32.0673H86.5278V22.3147H83.944V28.0741C83.944 28.714 83.7575 29.226 83.3846 29.5843C83.0116 29.9683 82.5055 30.1475 81.9195 30.1475C81.3335 30.1475 80.854 29.9683 80.5077 29.6099C80.1614 29.2516 79.975 28.7652 79.975 28.1765V22.3147H77.3911V27.9461C77.3911 29.4051 77.7108 30.5058 78.3501 31.2481ZM94.0398 32.4C93.1607 32.4 92.3882 32.2464 91.7489 31.9648C91.1096 31.6833 90.5769 31.2993 90.1507 30.813C89.7245 30.3266 89.4048 29.7891 89.1917 29.2003C88.9786 28.6116 88.8721 27.9973 88.8721 27.3829V27.0502C88.8721 26.3846 88.9786 25.7703 89.1917 25.156C89.4048 24.5416 89.7245 24.0041 90.1773 23.5433C90.6035 23.0826 91.1629 22.6986 91.8022 22.4171C92.4415 22.1355 93.1874 22.0075 94.0398 22.0075C94.9188 22.0075 95.7179 22.1611 96.4105 22.4939C97.1031 22.8266 97.6625 23.2874 98.0887 23.8761C98.5149 24.4648 98.728 25.1304 98.7812 25.9239H96.2507C96.1974 25.4119 95.9577 25.0024 95.5847 24.6696C95.2118 24.3369 94.6791 24.1577 94.0398 24.1577C93.4804 24.1577 93.0009 24.2857 92.6013 24.5416C92.2284 24.7976 91.9354 25.156 91.7489 25.6167C91.5625 26.0775 91.4825 26.615 91.4825 27.2038C91.4825 27.7669 91.5625 28.3044 91.7489 28.7652C91.9354 29.2259 92.2018 29.5843 92.6013 29.8659C92.9743 30.1218 93.4804 30.2498 94.0664 30.2498C94.5192 30.2498 94.8922 30.173 95.2118 30.0195C95.5315 29.8659 95.7978 29.6611 95.9843 29.3795C96.1708 29.098 96.3039 28.7908 96.3572 28.458H98.8878C98.8345 29.2515 98.5948 29.9427 98.1686 30.5314C97.7424 31.1201 97.183 31.5809 96.4638 31.9137C95.7446 32.2464 94.9188 32.4 94.0398 32.4ZM99.7668 18.9614V20.83H101.045V32.0416H103.629V20.83V18.9614H101.045H99.7668ZM119.106 31.9136C119.638 32.1696 120.278 32.2976 121.024 32.2976C121.743 32.2976 122.329 32.1952 122.862 31.888C123.341 31.632 123.741 31.2737 124.007 30.8129C124.121 30.6165 124.22 30.4014 124.3 30.1657V32.016H126.378V25.975C126.378 25.0791 126.191 24.3368 125.845 23.7737C125.472 23.2105 124.966 22.801 124.273 22.545C123.581 22.289 122.702 22.161 121.663 22.161H120.597C120.221 22.161 119.893 22.1837 119.544 22.2077L119.479 22.2122C119.132 22.2378 118.813 22.2634 118.52 22.289V24.4136C118.81 24.4136 119.119 24.3956 119.478 24.3747L119.692 24.3624C120.118 24.3368 120.571 24.3112 120.997 24.3112C121.423 24.2856 121.796 24.2856 122.116 24.2856C122.728 24.2856 123.155 24.4136 123.448 24.6952C123.741 24.9767 123.874 25.3863 123.874 25.9494V26.0262H121.823C120.917 26.0262 120.145 26.1286 119.479 26.359C118.813 26.5894 118.307 26.9221 117.934 27.3829C117.561 27.8436 117.374 28.4324 117.374 29.1491C117.374 29.8146 117.534 30.3778 117.827 30.8385C118.12 31.2993 118.546 31.6576 119.106 31.9136ZM123.874 27.5109H121.769C121.183 27.5109 120.704 27.6389 120.411 27.9204C120.091 28.202 119.931 28.5604 119.931 28.9955C119.931 29.4307 120.091 29.789 120.411 30.0706C120.731 30.3522 121.183 30.4802 121.769 30.4802C122.142 30.4802 122.462 30.429 122.755 30.301C123.048 30.173 123.314 29.9682 123.528 29.661C123.741 29.3539 123.847 28.9443 123.874 28.4068V27.5109ZM128.189 24.1832V22.3146H129.601H132.185V24.1832V32.0416H129.601V24.1832H128.189ZM130.56 21.1628C130.054 21.1628 129.681 21.0348 129.441 20.7788C129.201 20.5228 129.068 20.1901 129.068 19.8061C129.068 19.4221 129.201 19.0894 129.441 18.8334C129.681 18.5774 130.054 18.4495 130.56 18.4495C131.066 18.4495 131.439 18.5774 131.679 18.8334C131.918 19.0894 132.025 19.3966 132.025 19.8061C132.025 20.2157 131.918 20.5228 131.679 20.7788C131.439 21.0348 131.066 21.1628 130.56 21.1628ZM135.195 22.3147V32.0417H137.779V26.9734C137.779 26.1287 138.018 25.4888 138.498 25.028C138.977 24.5929 139.643 24.3625 140.522 24.3625H141.242V22.1867H140.869C139.67 22.1867 138.738 22.5451 138.125 23.2618C137.657 23.809 137.36 24.5503 137.246 25.4969V22.3147H135.195ZM147.421 32.3999C146.542 32.3999 145.796 32.2463 145.131 31.9648C144.465 31.6832 143.932 31.2992 143.506 30.8129C143.079 30.3265 142.76 29.789 142.547 29.2003C142.334 28.6115 142.227 27.9972 142.227 27.3829V27.0501C142.227 26.4102 142.334 25.7702 142.547 25.1815C142.76 24.5671 143.079 24.0296 143.506 23.5689C143.932 23.1081 144.465 22.7241 145.104 22.4426C145.743 22.161 146.462 22.033 147.315 22.033C148.407 22.033 149.313 22.2634 150.059 22.7241C150.804 23.1849 151.364 23.7992 151.737 24.5416C152.11 25.2839 152.296 26.103 152.296 26.9477V27.8436H144.662C144.708 28.209 144.796 28.5417 144.917 28.8419C145.104 29.3026 145.424 29.6866 145.823 29.9426C146.223 30.1985 146.755 30.3521 147.395 30.3521C148.034 30.3521 148.54 30.2241 148.94 29.9938C149.339 29.7378 149.606 29.4562 149.712 29.0979H152.11C151.95 29.7634 151.683 30.3521 151.257 30.8641C150.831 31.376 150.298 31.76 149.632 32.016C148.993 32.2463 148.247 32.3999 147.421 32.3999ZM144.944 25.5398C144.838 25.7702 144.758 26.0262 144.704 26.3078H149.826C149.784 25.9957 149.713 25.7126 149.606 25.4631C149.419 25.0279 149.126 24.6695 148.753 24.4392C148.38 24.2088 147.901 24.0808 147.315 24.0808C146.755 24.0808 146.249 24.2088 145.85 24.4648C145.45 24.7207 145.157 25.0791 144.944 25.5398ZM153.734 29.9939V32.0417H155.812V29.9939H153.734ZM156.878 26.5126V25.2071H157.784V24.9255C157.784 24.132 158.023 23.5433 158.476 23.1593C158.929 22.7754 159.622 22.5962 160.501 22.5962H161.406V23.9784H160.367C160.101 23.9784 159.888 24.0552 159.728 24.1832C159.568 24.3368 159.515 24.516 159.515 24.772V25.2071H161.539V26.5126H159.515V32.0672H157.784V32.0416V26.5126H156.878ZM162.685 25.0791V32.0416H164.549V28.4067C164.549 27.818 164.709 27.3573 165.056 27.0245C165.375 26.6917 165.881 26.5381 166.494 26.5381H167V24.9767H166.734C165.855 24.9767 165.215 25.2327 164.763 25.7446C164.44 26.1097 164.239 26.6048 164.15 27.2209V25.0791H162.685Z" fill="#334756"/>
        <path d="M126.021 8.15413V6.2789H127.457H130.01H130.037V16.0404H127.457V8.15413H126.021ZM128.388 5.12294C127.882 5.12294 127.51 4.9945 127.271 4.73762C127.031 4.48074 126.898 4.14679 126.898 3.76147C126.898 3.37615 127.031 3.0422 127.271 2.78532C127.51 2.52844 127.882 2.4 128.388 2.4C128.893 2.4 129.266 2.52844 129.505 2.78532C129.744 3.0422 129.851 3.35046 129.851 3.76147C129.851 4.17248 129.744 4.48074 129.505 4.73762C129.266 4.9945 128.893 5.12294 128.388 5.12294ZM77.4243 16.0404L82.0525 2.91376H86.3616L91.1494 16.0404H88.4363L87.2042 12.5725H81.2492L80.0576 16.0404H77.4243ZM84.5301 5.04588L86.4376 10.4147H81.9906L83.8353 5.04588H84.5301ZM45 16.0403V6.66413H47.5801L50.0272 12.2898H50.2666L52.6871 6.66413H55.3204V16.066H53.4319V8.60475L51.038 14.1394H49.1228L46.7289 8.66009V16.0403H45ZM61.0392 16.2972C60.4008 16.2972 59.8422 16.1945 59.3368 15.989C58.858 15.7835 58.4325 15.5266 58.0867 15.1927C57.7409 14.8587 57.5015 14.4734 57.3153 14.0367C57.1291 13.6 57.0493 13.1633 57.0493 12.7009V12.4183C57.0493 11.9303 57.1291 11.4679 57.3153 11.0569C57.5015 10.6202 57.7675 10.2349 58.1133 9.90091C58.4591 9.56697 58.858 9.2844 59.3634 9.10458C59.8688 8.92477 60.4008 8.82201 61.0126 8.82201C61.6243 8.82201 62.1829 8.92477 62.6617 9.10458C63.1405 9.2844 63.566 9.56697 63.9118 9.90091C64.2576 10.2349 64.5236 10.6202 64.6832 11.0569C64.8694 11.4936 64.9492 11.956 64.9492 12.4183V12.7009C64.9492 13.1633 64.8694 13.6 64.6832 14.0367C64.497 14.4734 64.2576 14.8587 63.9118 15.1927C63.566 15.5266 63.1671 15.8092 62.6617 15.989C62.2361 16.1945 61.6775 16.2972 61.0392 16.2972ZM61.0392 14.756C61.4913 14.756 61.8637 14.6532 62.1829 14.4734C62.5021 14.2679 62.7415 14.011 62.9011 13.6771C63.0607 13.3431 63.1405 12.9835 63.1405 12.5468C63.1405 12.1101 63.0607 11.7505 62.9011 11.4165C62.7415 11.0826 62.5021 10.8257 62.1829 10.6202C61.8637 10.4147 61.4913 10.3376 61.0657 10.3376C60.6402 10.3376 60.2678 10.4404 59.9486 10.6202C59.6294 10.8257 59.39 11.0826 59.2304 11.4165C59.0708 11.7505 58.9644 12.1358 58.9644 12.5468C58.9644 12.9578 59.0442 13.3431 59.2038 13.6771C59.3634 14.011 59.6028 14.2679 59.922 14.4734C60.2146 14.6789 60.587 14.756 61.0392 14.756ZM66.625 9.05315V16.0403H68.4869V11.9302C68.4869 11.4935 68.6465 11.1339 68.9125 10.8513C69.1785 10.5688 69.5509 10.4403 70.0031 10.4403C70.4287 10.4403 70.7744 10.5944 71.0404 10.8513C71.2798 11.1339 71.4128 11.4678 71.4128 11.9045V16.0403H73.2747V12.033C73.2747 10.9798 73.0619 10.1834 72.6098 9.64398C72.1576 9.10453 71.4926 8.84765 70.6414 8.84765H70.5616C70.0031 8.84765 69.5243 8.97609 69.1253 9.20728C68.7263 9.46416 68.4337 9.79811 68.2475 10.2862C68.185 10.4415 68.1315 10.6113 68.0879 10.7955V9.05315H66.625ZM91.575 6.27886L94.7402 16.0403H95.485H96.5223H97.2671H98.2247H98.8896L101.629 6.27886H99.129L97.0711 13.9853H96.6287L94.2348 6.27886H91.575ZM107.88 16.4C107.002 16.4 106.257 16.2459 105.592 15.9633C104.927 15.6807 104.395 15.2954 103.97 14.8073C103.544 14.3193 103.225 13.7798 103.012 13.189C102.8 12.5982 102.693 11.9816 102.693 11.3651V11.0312C102.693 10.389 102.8 9.74678 103.012 9.15595C103.225 8.53944 103.544 7.99999 103.97 7.5376C104.395 7.07522 104.927 6.68989 105.566 6.40733C106.204 6.12476 106.922 5.99632 107.774 5.99632C108.864 5.99632 109.768 6.22751 110.513 6.68989C111.258 7.15228 111.817 7.7688 112.189 8.51375C112.561 9.25871 112.748 10.0807 112.748 10.9284V11.8275H105.125C105.171 12.1942 105.258 12.5281 105.38 12.8294C105.566 13.2917 105.885 13.6771 106.284 13.9339C106.683 14.1908 107.215 14.3449 107.853 14.3449C108.492 14.3449 108.997 14.2165 109.396 13.9853C109.795 13.7284 110.061 13.4459 110.167 13.0862H112.561C112.402 13.7541 112.136 14.3449 111.71 14.8587C111.285 15.3725 110.753 15.7578 110.088 16.0147C109.449 16.2459 108.704 16.4 107.88 16.4ZM105.406 9.51559C105.3 9.74678 105.22 10.0037 105.167 10.2862H110.281C110.24 9.9731 110.168 9.68892 110.061 9.43852C109.875 9.00182 109.582 8.64219 109.21 8.411C108.837 8.1798 108.359 8.05136 107.774 8.05136C107.215 8.05136 106.71 8.1798 106.311 8.43669C105.912 8.69357 105.619 9.0532 105.406 9.51559ZM114.902 6.27897V16.0148H117.482V10.2863C117.482 9.64411 117.668 9.15603 118.067 8.77071C118.466 8.38539 118.972 8.20557 119.61 8.20557C120.222 8.20557 120.727 8.41108 121.073 8.77071C121.419 9.15603 121.605 9.64411 121.605 10.2349V16.0661H124.185V10.4661C124.185 8.97622 123.866 7.84594 123.254 7.10099C122.642 6.35603 121.711 5.97071 120.514 5.97071H120.408C119.61 5.97071 118.919 6.15053 118.387 6.48447C117.855 6.81842 117.429 7.30649 117.163 7.97438C117.079 8.18601 117.008 8.41312 116.95 8.65652V6.27897H114.902ZM133.016 6.27883V16.0403H135.596V10.9541C135.596 10.1064 135.836 9.46415 136.314 9.00177C136.793 8.56507 137.458 8.33388 138.336 8.33388H139.054V6.15039H138.682C137.485 6.15039 136.554 6.51003 135.942 7.22929C135.475 7.77849 135.178 8.52238 135.064 9.4724V6.27883H133.016ZM147.379 16.2972C146.874 16.2972 146.395 16.1944 145.97 16.0146C145.544 15.8348 145.172 15.5779 144.853 15.2439C144.533 14.91 144.294 14.5504 144.134 14.1137C143.975 13.677 143.868 13.2146 143.868 12.7008V12.4183C143.868 11.9302 143.948 11.4421 144.108 11.0054C144.267 10.5687 144.507 10.1834 144.799 9.84945C145.092 9.5155 145.464 9.25862 145.89 9.07881C146.316 8.89899 146.768 8.79624 147.3 8.79624C147.858 8.79624 148.364 8.92468 148.789 9.15587C149.147 9.35029 149.449 9.63553 149.694 9.99632V6.66413H151.555V16.066H150.093V14.5968C150.052 14.6882 150.007 14.7755 149.96 14.8586C149.694 15.3467 149.321 15.6806 148.869 15.9375C148.47 16.1687 147.938 16.2972 147.379 16.2972ZM147.805 14.7816C148.177 14.7816 148.497 14.7045 148.816 14.5504C149.108 14.3962 149.348 14.165 149.534 13.8568C149.72 13.5485 149.8 13.1889 149.8 12.7779V12.2641C149.8 11.8531 149.694 11.5192 149.507 11.2366C149.321 10.954 149.082 10.7485 148.763 10.5944C148.47 10.4403 148.124 10.3632 147.778 10.3632C147.379 10.3632 147.034 10.466 146.715 10.6458C146.395 10.8256 146.156 11.0825 145.996 11.4164C145.81 11.7504 145.73 12.1357 145.73 12.5981C145.73 13.0348 145.81 13.4201 145.996 13.754C146.183 14.088 146.422 14.3449 146.715 14.5247C147.06 14.6788 147.406 14.7816 147.805 14.7816ZM154.375 15.9634C154.774 16.1432 155.226 16.246 155.758 16.246C156.263 16.246 156.689 16.1432 157.061 15.9891C157.407 15.8093 157.673 15.5524 157.886 15.2184C157.974 15.0807 158.043 14.9298 158.099 14.7657V16.0405H159.535V11.6992C159.535 11.0313 159.429 10.5175 159.163 10.1065C158.923 9.69549 158.551 9.38724 158.046 9.20742C157.54 9.0276 156.928 8.92485 156.184 8.92485H155.412C155.146 8.92485 154.88 8.92485 154.614 8.95054C154.49 8.96258 154.377 8.96898 154.27 8.97503C154.149 8.98187 154.036 8.98827 153.923 9.00191V10.5175C154.189 10.4918 154.455 10.4661 154.774 10.4661C154.933 10.4661 155.086 10.4597 155.239 10.4533C155.392 10.4469 155.545 10.4404 155.705 10.4404H156.503C156.928 10.4404 157.248 10.5432 157.46 10.7487C157.673 10.9542 157.78 11.2368 157.78 11.6478V11.7249H156.317C155.678 11.7249 155.12 11.8276 154.641 11.9817C154.162 12.1616 153.79 12.3927 153.524 12.7267C153.258 13.0606 153.125 13.4716 153.125 13.9854C153.125 14.4478 153.231 14.8588 153.444 15.1927C153.683 15.5267 153.976 15.7836 154.375 15.9634ZM157.78 12.8038H156.29C155.864 12.8038 155.545 12.9065 155.306 13.112C155.066 13.3175 154.96 13.5744 154.96 13.8827C154.96 14.1909 155.066 14.4478 155.306 14.6533C155.545 14.8588 155.864 14.9616 156.29 14.9616C156.556 14.9616 156.795 14.9102 157.008 14.8331C157.221 14.7304 157.407 14.5762 157.567 14.3707C157.673 14.2166 157.744 14.0396 157.78 13.8246V12.8038ZM161.53 16.0403V9.05315H162.993V10.7956C163.036 10.6113 163.09 10.4415 163.153 10.2862C163.339 9.79811 163.631 9.46416 164.03 9.20728C164.429 8.97609 164.908 8.84765 165.467 8.84765H165.546C166.398 8.84765 167.063 9.10453 167.515 9.64398C167.967 10.1834 168.18 10.9798 168.18 12.033V16.0403H166.318V11.9045C166.318 11.4678 166.185 11.1339 165.945 10.8513C165.679 10.5944 165.334 10.4403 164.908 10.4403C164.456 10.4403 164.084 10.5688 163.818 10.8513C163.552 11.1339 163.392 11.4935 163.392 11.9302V16.0403H161.53ZM170.467 15.655C171.026 16.0661 171.824 16.2716 172.808 16.2716C173.446 16.2716 174.005 16.1688 174.51 16.0147C174.963 15.8092 175.335 15.5523 175.601 15.2184C175.867 14.8844 176 14.4734 176 14.011C176 13.3945 175.761 12.8807 175.282 12.5211C174.803 12.1358 174.138 11.9046 173.287 11.8275L172.648 11.7505C172.249 11.6991 171.983 11.622 171.797 11.4936C171.611 11.3651 171.531 11.211 171.531 10.9798C171.531 10.7486 171.638 10.5688 171.851 10.4147C172.063 10.2605 172.356 10.1835 172.755 10.1835C173.207 10.1835 173.526 10.2605 173.766 10.4404C174.005 10.6202 174.111 10.8257 174.138 11.0569H175.814C175.787 10.3119 175.495 9.77247 174.936 9.38715C174.377 9.00183 173.659 8.82201 172.781 8.82201C172.196 8.82201 171.718 8.89908 171.265 9.0789C170.813 9.25871 170.467 9.4899 170.228 9.82385C169.989 10.1578 169.856 10.5431 169.856 11.0312C169.856 11.622 170.095 12.1101 170.521 12.4697C170.946 12.8294 171.585 13.0606 172.382 13.1376L173.021 13.2147C173.5 13.2661 173.819 13.3688 174.032 13.4972C174.218 13.6514 174.324 13.8312 174.324 14.0624C174.324 14.345 174.191 14.5505 173.925 14.7046C173.659 14.8587 173.313 14.9358 172.861 14.9358C172.329 14.9358 171.93 14.833 171.691 14.6275C171.425 14.422 171.292 14.1908 171.265 13.9596H169.59C169.616 14.6789 169.909 15.244 170.467 15.655Z" fill="#334756"/>
        <path d="M19.3126 0.0270897H19.0146C19.123 3.30713e-06 19.2313 3.30713e-06 19.3126 0.0270897ZM23.8632 0.785504L23.7819 1.02928C23.7413 1.01574 23.7074 1.0022 23.6736 0.988665L23.6736 0.988653C23.6397 0.97511 23.6058 0.961566 23.5652 0.948022C23.5381 0.934479 23.5043 0.920936 23.4704 0.907393L23.4704 0.907382C23.4365 0.893842 23.4027 0.880303 23.3756 0.866763L23.3756 0.866758C23.2943 0.839673 23.2131 0.812589 23.1589 0.785504L22.9151 0.704245L22.9693 0.541727L23.8632 0.785504ZM27.6011 3.41288L28.0616 2.65446C27.9622 2.60029 27.8659 2.54311 27.7696 2.48593L27.7696 2.48592C27.577 2.37156 27.3844 2.2572 27.1677 2.16691L26.8427 2.7899C26.8698 2.81698 26.9036 2.84407 26.9375 2.87116C26.9713 2.89824 27.0052 2.92533 27.0323 2.95241C27.0594 2.9795 27.1135 3.03367 27.1677 3.06076C27.2083 3.08785 27.2422 3.11493 27.2761 3.14202C27.3099 3.16911 27.3438 3.19619 27.3844 3.22328C27.4019 3.25826 27.4307 3.28195 27.4635 3.30893L27.4635 3.30894L27.4635 3.30896C27.4815 3.32375 27.5007 3.33954 27.5198 3.35871C27.5469 3.35871 27.574 3.3858 27.6011 3.41288ZM31.6911 5.49854L30.4181 6.74452C30.4045 6.73097 30.3978 6.71743 30.391 6.70389C30.3842 6.69034 30.3774 6.6768 30.3639 6.66326C30.3097 6.582 30.2556 6.50074 30.2285 6.41948C30.2149 6.40594 30.2014 6.38563 30.1878 6.36531C30.1743 6.345 30.1608 6.32468 30.1472 6.31114C30.1371 6.29097 30.1233 6.2708 30.1085 6.24923C30.0835 6.21287 30.0559 6.17254 30.0389 6.12153L29.8763 5.87775C29.866 5.86741 29.8596 5.85707 29.8542 5.84824L29.8541 5.84823C29.8453 5.83393 29.8389 5.82358 29.8222 5.82358L30.8515 4.68595C31.004 4.83848 31.1494 4.9768 31.2914 5.11184C31.4267 5.24059 31.5589 5.36634 31.6911 5.49854ZM31.989 10.6179L34.481 9.1552C34.3997 8.99268 34.2914 8.80307 34.1289 8.64056C34.0468 8.49701 33.9493 8.35347 33.8597 8.22168L33.8597 8.22158L33.8596 8.22154C33.8309 8.1793 33.803 8.13827 33.7767 8.09883L31.664 9.53441C31.664 9.59871 31.681 9.64605 31.7015 9.70327C31.7069 9.71836 31.7125 9.73414 31.7182 9.7511C31.7724 9.85944 31.7994 9.96779 31.8265 10.0761L31.9078 10.3199C31.9213 10.3741 31.9349 10.4215 31.9484 10.4689C31.962 10.5163 31.9755 10.5637 31.989 10.6179ZM16.1978 9.45315L16.2248 9.53441C15.656 9.66984 15.0872 9.88653 14.5726 10.1303L14.4371 9.85945C15.006 9.66984 15.6019 9.53441 16.1978 9.45315ZM13.8954 10.0491L14.085 10.4012C13.5974 10.6721 13.1099 10.9971 12.6765 11.3492L12.216 10.7804C12.7578 10.4824 13.3266 10.2387 13.8954 10.0491ZM12.2159 11.7284L11.62 11.0783C11.0512 11.4034 10.5366 11.7555 10.0219 12.1347L11.1054 12.9473C11.4575 12.5139 11.8096 12.1076 12.2159 11.7284ZM9.42613 12.6494L10.7534 13.489C10.4554 13.9224 10.2116 14.41 9.99494 14.8975L8.01763 14.0578C8.45102 13.5432 8.91148 13.0827 9.42613 12.6494ZM9.37188 17.0644C9.45314 16.5498 9.56148 16.0622 9.724 15.5747L7.42166 14.8163C6.98828 15.358 6.60907 15.9539 6.28403 16.5769L9.37188 17.0644ZM9.29062 19.3126L5.06514 19.6647C5.17349 19.2584 5.28184 18.8792 5.41727 18.5C5.50073 18.2496 5.60026 18.0153 5.70349 17.7723C5.73427 17.6999 5.76537 17.6266 5.79648 17.552L9.29062 17.7958C9.26353 18.0124 9.26353 18.2562 9.26353 18.4729V18.4729C9.26353 18.7709 9.26353 19.0417 9.29062 19.3126ZM9.75116 21.5066C9.58864 21.0461 9.4803 20.5857 9.39904 20.1252L4.79435 20.9378C4.68601 21.6691 4.63184 22.4004 4.63184 23.1318V23.2672L9.75116 21.5066ZM10.0762 22.3192C10.2658 22.7255 10.4825 23.1318 10.7263 23.511L5.20068 27.0864C5.18714 27.0593 5.18037 27.0322 5.1736 27.0051C5.16682 26.978 5.16005 26.951 5.14651 26.9239L5.06525 26.6801C5.05171 26.6124 5.0314 26.5447 5.01108 26.477L5.01108 26.4769L5.01107 26.4769C4.99076 26.4092 4.97045 26.3415 4.9569 26.2738C4.94336 26.2467 4.93659 26.2128 4.92982 26.179C4.92305 26.1451 4.91628 26.1113 4.90273 26.0842C4.87565 26.03 4.87565 25.9488 4.87565 25.8946C4.8621 25.8404 4.85533 25.793 4.84856 25.7456C4.84179 25.6982 4.83502 25.6508 4.82147 25.5966C4.82147 25.5695 4.8147 25.5357 4.80793 25.5018C4.80116 25.468 4.79439 25.4341 4.79439 25.407C4.79439 25.3827 4.78891 25.3583 4.78289 25.3315C4.77551 25.2987 4.7673 25.2622 4.7673 25.2174C4.75376 25.1632 4.74699 25.1091 4.74021 25.0549C4.73344 25.0007 4.72667 24.9466 4.71313 24.8924C4.71313 24.8382 4.71313 24.8111 4.68604 24.757L10.0762 22.3192ZM6.96126 30.8243L12.1889 25.2445C11.8639 24.9466 11.566 24.6215 11.3493 24.3236L5.85072 28.7387C5.85072 28.7657 5.87781 28.8199 5.90489 28.8741C5.93198 28.9283 5.9523 28.9757 5.97261 29.0231C5.99293 29.0705 6.01324 29.1179 6.04033 29.172V29.1991C6.06741 29.2804 6.12159 29.3887 6.17576 29.47C6.20285 29.5512 6.25702 29.6596 6.31119 29.7409C6.33828 29.7409 6.33828 29.7679 6.33828 29.7679C6.36536 29.8086 6.39245 29.856 6.41953 29.9034C6.44662 29.9508 6.47371 29.9982 6.5008 30.0388C6.52788 30.093 6.55497 30.1404 6.58206 30.1878L6.58208 30.1878C6.60916 30.2352 6.63624 30.2826 6.66331 30.3368C6.6904 30.418 6.74457 30.4993 6.79875 30.5805C6.81229 30.5941 6.82583 30.6144 6.83938 30.6347C6.85292 30.655 6.86646 30.6753 6.88001 30.6889C6.89355 30.716 6.90709 30.7363 6.92063 30.7566C6.93418 30.7769 6.94772 30.7972 6.96126 30.8243ZM12.9472 25.8946C13.2723 26.1384 13.6244 26.3821 14.0036 26.5718L9.8594 33.9663C9.81877 33.9392 9.78491 33.9122 9.75105 33.8851C9.71719 33.858 9.68334 33.8309 9.64271 33.8038C9.62353 33.7846 9.60436 33.7689 9.58638 33.7541L9.58634 33.754C9.55355 33.7271 9.52477 33.7034 9.50728 33.6684C9.48021 33.6413 9.44638 33.6143 9.41254 33.5872L9.41247 33.5871L9.4124 33.5871C9.37857 33.56 9.34474 33.5329 9.31767 33.5059C9.29058 33.4788 9.25673 33.4517 9.22287 33.4246C9.18901 33.3975 9.15515 33.3704 9.12807 33.3433C9.11987 33.3351 9.10918 33.3269 9.09752 33.318C9.07066 33.2974 9.03861 33.2728 9.01972 33.235C8.98474 33.2175 8.96105 33.1887 8.93407 33.1559L8.93405 33.1559C8.91926 33.1379 8.90347 33.1188 8.88429 33.0996L8.55925 32.7745L8.39673 32.612C8.39673 32.5985 8.38996 32.5917 8.38319 32.5849C8.37642 32.5782 8.36965 32.5714 8.36965 32.5578L8.20713 32.3953L8.12587 32.3141L12.9472 25.8946ZM16.0894 27.4385C15.6831 27.3302 15.3039 27.2218 14.9518 27.0593L11.5931 35.131C11.5931 35.1581 11.6202 35.1581 11.6202 35.1581L11.6472 35.1852C11.7285 35.2123 11.8098 35.2665 11.891 35.3206C11.891 35.3477 11.9181 35.3477 11.9181 35.3477C11.9587 35.3748 11.9994 35.3951 12.04 35.4155C12.0806 35.4358 12.1213 35.4561 12.1619 35.4832C12.1619 35.4832 12.189 35.5103 12.2161 35.5103C12.2567 35.5238 12.2973 35.5441 12.3379 35.5644L12.3379 35.5644L12.338 35.5645C12.3786 35.5848 12.4192 35.6051 12.4598 35.6186C12.4598 35.6186 12.4869 35.6457 12.514 35.6457C12.5953 35.6999 12.7036 35.754 12.7849 35.7811H12.812C12.8526 35.7947 12.8932 35.815 12.9338 35.8353C12.9745 35.8556 13.0151 35.8759 13.0557 35.8895L13.462 36.052C13.4891 36.0655 13.523 36.0791 13.5568 36.0926C13.5907 36.1062 13.6245 36.1197 13.6516 36.1332C13.6652 36.1332 13.6719 36.14 13.6787 36.1468C13.6855 36.1536 13.6923 36.1603 13.7058 36.1603L16.0894 27.4385ZM18.2834 27.7636L18.0667 37.0271H18.0666C17.8771 37.0271 17.6875 37.0271 17.4979 37L16.9291 36.9458C16.5499 36.9188 16.1707 36.8646 15.7915 36.8104V36.7562L17.1458 27.6552C17.4979 27.7094 17.85 27.7365 18.2292 27.7636H18.2834ZM20.694 36.8916C21.317 36.8104 21.94 36.702 22.563 36.5666L20.5586 27.6281C20.2298 27.6787 19.8775 27.7056 19.5456 27.731L19.4751 27.7364L20.4232 36.9187H20.4502C20.4909 36.9187 20.5315 36.912 20.5721 36.9052C20.6128 36.8984 20.6534 36.8916 20.694 36.8916ZM26.7885 35.0769C26.1655 35.3748 25.5425 35.6457 24.9195 35.8895L21.7775 27.3843C22.0619 27.3187 22.3286 27.2354 22.6061 27.1487L22.6062 27.1487L22.6063 27.1487L22.6063 27.1487C22.6724 27.128 22.7391 27.1072 22.8068 27.0864L26.7885 35.0769ZM28.9825 33.7767C29.5242 33.3975 30.0388 33.0183 30.5264 32.5849L25.0278 26.1384C24.7299 26.3009 24.4049 26.4634 24.0798 26.5988L28.9825 33.7767ZM33.56 29.2804C33.3975 29.5242 33.2079 29.7679 33.0183 30.0117L33.0183 30.0117C32.937 30.1201 32.8287 30.2555 32.7203 30.3638C32.6662 30.418 32.6188 30.4789 32.5714 30.5399L32.5714 30.5399L32.5713 30.5399C32.5239 30.6009 32.4765 30.6618 32.4224 30.716L26.3279 25.3529C26.6259 25.1633 26.9238 24.9466 27.1947 24.7028L33.56 29.2804ZM35.5645 25.7321L35.727 25.3258L29.1992 22.7526L28.4678 23.5651L35.0228 26.8968C35.057 26.8282 35.0913 26.7613 35.1252 26.6954C35.225 26.5007 35.321 26.3135 35.402 26.1113L35.5645 25.7321ZM36.8645 20.9649C36.8413 21.1966 36.7983 21.4086 36.7525 21.6346L36.7291 21.7504C36.702 21.8858 36.6749 22.0145 36.6478 22.1432L36.6477 22.1436C36.6207 22.2721 36.5936 22.4006 36.5666 22.5359L30.3367 21.1545L30.3368 21.1544C30.5263 20.8293 30.7159 20.5044 30.8784 20.1793L36.8645 20.9649ZM31.7182 18.1208L37.0001 17.9583C37.0001 17.7687 37.0001 17.5791 36.973 17.3895C36.9459 17.3353 36.9459 17.254 36.9459 17.1999C36.9459 16.9561 36.9188 16.7124 36.8917 16.4686L36.8917 16.4685L32.0162 17.0103C31.9349 17.3895 31.8266 17.7687 31.7182 18.1208ZM32.3682 14.5183C32.3682 14.41 32.375 14.3016 32.3817 14.1933L32.3817 14.1932C32.3885 14.0849 32.3953 13.9766 32.3953 13.8682V13.3807L35.8894 12.0805C36.0519 12.5139 36.1874 12.9473 36.3228 13.3807L32.3682 14.5183Z" fill="#FF7054"/>
        <path d="M18.7166 9.26354L18.9333 0C19.1229 0 19.3125 0 19.5021 0.0270864L20.0709 0.0812591C20.4501 0.108346 20.8294 0.162518 21.2086 0.216691V0.270864L19.8543 9.37189C19.5021 9.31771 19.15 9.29063 18.7708 9.26354H18.7166ZM20.9377 9.58859C21.344 9.69694 21.7232 9.80528 22.0754 9.9678L25.4341 1.89606C25.4341 1.86897 25.407 1.86897 25.407 1.86897L25.3799 1.84189C25.2987 1.8148 25.2174 1.76064 25.1361 1.70647L25.1361 1.70646C25.1361 1.67937 25.109 1.67937 25.109 1.67937C25.0684 1.65228 25.0278 1.63197 24.9872 1.61165C24.9465 1.59134 24.9059 1.57102 24.8653 1.54394C24.8653 1.54394 24.8382 1.51685 24.8111 1.51685C24.7705 1.50331 24.7298 1.48299 24.6892 1.46268C24.6486 1.44236 24.6079 1.42205 24.5673 1.40851C24.5673 1.40851 24.5402 1.38142 24.5131 1.38142C24.4319 1.32725 24.3235 1.27307 24.2423 1.24599H24.2152C24.1746 1.23245 24.1339 1.21214 24.0933 1.19182L24.0933 1.19182C24.0527 1.1715 24.012 1.15118 23.9714 1.13764L23.5651 0.975123C23.538 0.96158 23.5042 0.948036 23.4703 0.934492C23.4365 0.920949 23.4026 0.907407 23.3755 0.893864C23.362 0.893864 23.3552 0.887092 23.3484 0.880321C23.3417 0.873549 23.3349 0.866778 23.3213 0.866778L20.9377 9.58859ZM24.0798 11.1054C23.7548 10.8617 23.4026 10.6179 23.0234 10.4283L27.1676 3.03369C27.2083 3.06077 27.2421 3.08785 27.276 3.11493L27.276 3.11495C27.3098 3.14203 27.3437 3.16912 27.3843 3.19621C27.4035 3.2154 27.4227 3.23119 27.4407 3.24599C27.4735 3.27297 27.5023 3.29665 27.5198 3.33164C27.5468 3.35872 27.5807 3.38581 27.6146 3.4129C27.6484 3.43998 27.6823 3.46707 27.7094 3.49416C27.7364 3.52123 27.7703 3.54831 27.8041 3.57539L27.8042 3.57541C27.838 3.6025 27.8719 3.62959 27.899 3.65667C27.9072 3.66487 27.9178 3.67307 27.9295 3.68202L27.9295 3.68203C27.9564 3.70265 27.9884 3.72725 28.0073 3.76502C28.0423 3.78251 28.066 3.81129 28.093 3.84407L28.093 3.84408L28.093 3.8441C28.1078 3.86208 28.1236 3.88127 28.1427 3.90045L28.4678 4.22549L28.6303 4.38801C28.6303 4.40155 28.6371 4.40832 28.6438 4.41509C28.6506 4.42186 28.6574 4.42864 28.6574 4.44218L28.8199 4.6047L28.9012 4.68596L24.0798 11.1054ZM30.0657 6.20279L24.8381 11.7555C25.1631 12.0534 25.4611 12.3785 25.7319 12.7306L31.1763 8.28844C31.1763 8.26135 31.1492 8.20718 31.1221 8.153C31.095 8.09883 31.0747 8.05143 31.0544 8.00403L31.0544 8.00397L31.0543 8.00393C31.034 7.95656 31.0137 7.90919 30.9867 7.85505V7.82797C30.9596 7.74671 30.9054 7.63836 30.8512 7.5571C30.8242 7.47585 30.77 7.3675 30.7158 7.28624C30.6887 7.28624 30.6887 7.25915 30.6887 7.25915C30.6616 7.21852 30.6346 7.17112 30.6075 7.12372L30.6074 7.12365C30.5803 7.07627 30.5533 7.0289 30.5262 6.98829C30.4991 6.93412 30.472 6.88672 30.4449 6.83932C30.4179 6.79191 30.3908 6.74451 30.3637 6.69034C30.3366 6.60908 30.2824 6.52782 30.2283 6.44656C30.2147 6.43302 30.2012 6.4127 30.1876 6.39239C30.1741 6.37208 30.1605 6.35176 30.147 6.33822C30.1335 6.31113 30.1199 6.29081 30.1064 6.2705C30.0928 6.25019 30.0793 6.22987 30.0657 6.20279ZM26.9239 14.6808C26.7343 14.2745 26.5176 13.8682 26.2738 13.489L31.7994 9.91363C31.813 9.94072 31.8197 9.96781 31.8265 9.99489C31.8333 10.022 31.84 10.0491 31.8536 10.0762L31.9348 10.3199C31.9484 10.3876 31.9687 10.4554 31.989 10.5231L31.989 10.5232C32.0093 10.5909 32.0297 10.6586 32.0432 10.7262C32.0567 10.7533 32.0635 10.7872 32.0703 10.821C32.077 10.8549 32.0838 10.8887 32.0974 10.9158C32.1244 10.97 32.1244 11.0513 32.1244 11.1054C32.138 11.1596 32.1448 11.207 32.1515 11.2544C32.1583 11.3018 32.1651 11.3492 32.1786 11.4034C32.1786 11.4305 32.1854 11.4643 32.1922 11.4982C32.1989 11.532 32.2057 11.5659 32.2057 11.593C32.2057 11.6173 32.2112 11.6417 32.2172 11.6685C32.2246 11.7013 32.2328 11.7379 32.2328 11.7826C32.2463 11.8368 32.2531 11.8909 32.2599 11.9451C32.2666 11.9993 32.2734 12.0535 32.287 12.1076C32.287 12.1618 32.287 12.1889 32.314 12.2431L26.9239 14.6808ZM27.2758 15.4934C27.4384 15.9539 27.5467 16.4144 27.628 16.8748L32.2326 16.0622C32.341 15.3309 32.3952 14.5996 32.3952 13.8682V13.7328L27.2758 15.4934ZM27.7093 17.7145L31.9619 17.3353C31.8535 17.7416 31.7452 18.1208 31.6098 18.5C31.5263 18.7504 31.4268 18.9847 31.3235 19.2277C31.2928 19.3002 31.2617 19.3734 31.2306 19.448L27.7364 19.2042C27.7635 18.9876 27.7635 18.7438 27.7635 18.5271C27.7635 18.2291 27.7364 17.9583 27.7093 17.7145ZM27.628 19.9627C27.5467 20.4773 27.4384 20.9649 27.2758 21.4524L29.5782 22.2108C30.0116 21.6691 30.3908 21.0732 30.7158 20.4502L27.628 19.9627ZM27.601 24.3778L26.2738 23.511C26.5717 23.0776 26.8155 22.5901 27.0322 22.1025L29.0095 22.9422C28.5761 23.4568 28.0886 23.9173 27.601 24.3778ZM24.8111 25.2716L25.407 25.9217C25.9487 25.6237 26.4904 25.2445 27.0051 24.8653L25.9216 24.0527C25.5695 24.4861 25.2174 24.8924 24.8111 25.2716ZM23.1046 26.978L22.915 26.6259C23.4026 26.3551 23.8901 26.03 24.3235 25.6779L24.784 26.2467C24.2693 26.5176 23.7005 26.7614 23.1046 26.978ZM20.8022 27.5739L20.7751 27.4927C21.3439 27.3573 21.9127 27.1406 22.4274 26.8968L22.5628 27.1677C21.994 27.3302 21.3981 27.4656 20.8022 27.5739ZM16.333 0.108354C15.71 0.189613 15.087 0.297959 14.464 0.433391L16.4684 9.3719C16.7972 9.32132 17.1495 9.29435 17.4814 9.26895L17.5519 9.26355L16.6038 0.0812677H16.5768C16.5361 0.0812677 16.4955 0.0880394 16.4549 0.094811C16.4142 0.101583 16.3736 0.108354 16.333 0.108354ZM10.2386 1.95023C10.8616 1.65228 11.4846 1.38142 12.1076 1.13764L15.2496 9.64276C14.9652 9.7084 14.6984 9.79171 14.4208 9.87842L14.4208 9.87843L14.4206 9.87847C14.3546 9.89909 14.288 9.9199 14.2203 9.94071L10.2386 1.95023ZM8.01746 3.25037C7.47573 3.62957 6.96109 4.00878 6.47354 4.44217L11.9992 10.8616C12.2971 10.6991 12.6221 10.5366 12.9472 10.4012L8.01746 3.25037ZM3.43983 7.74671C3.60235 7.50294 3.79195 7.25916 3.98156 7.01538C4.06282 6.90704 4.17116 6.7716 4.27951 6.66326C4.33368 6.60909 4.38108 6.54814 4.42848 6.4872C4.47588 6.42625 4.52328 6.36531 4.57746 6.31114L10.6719 11.6472C10.3739 11.8368 10.076 12.0534 9.80513 12.2972L3.43983 7.74671ZM1.46263 11.295L1.30011 11.7013L7.82793 14.2474L8.55926 13.4349L2.00436 10.1032C1.97008 10.1718 1.9358 10.2386 1.90196 10.3046L1.90192 10.3046L1.90192 10.3047L1.90191 10.3047C1.80207 10.4993 1.70606 10.6865 1.62515 10.8887L1.46263 11.295ZM0.162447 16.0351C0.185624 15.8034 0.228632 15.5914 0.274503 15.3654L0.297879 15.2496C0.324962 15.1142 0.352044 14.9856 0.379127 14.8569L0.379128 14.8569L0.37913 14.8569L0.379132 14.8569L0.379133 14.8569L0.379135 14.8569L0.379137 14.8569L0.379139 14.8569C0.406225 14.7282 0.433311 14.5996 0.460398 14.4641L6.69027 15.8455L6.69023 15.8456C6.50064 16.1706 6.31105 16.4956 6.14854 16.8206L0.162447 16.0351ZM5.28184 18.8792L0 19.0417C0 19.2313 0 19.4209 0.0270864 19.6105C0.0541728 19.6647 0.0541728 19.746 0.0541728 19.8002C0.0541728 20.0439 0.0812592 20.2877 0.108346 20.5315L4.98389 19.9898C5.06515 19.6106 5.1735 19.2313 5.28184 18.8792ZM4.6317 22.4817C4.6317 22.59 4.62493 22.6984 4.61816 22.8067C4.61139 22.9151 4.60461 23.0234 4.60461 23.1318V23.6193L1.13756 24.9195C0.975043 24.4861 0.839613 24.0527 0.704184 23.6194L0.704175 23.6193L4.6317 22.4817ZM5.01095 26.3821L2.519 27.8448C2.62734 28.0344 2.73569 28.1969 2.87112 28.3594C2.95318 28.503 3.05078 28.6467 3.14037 28.7785C3.16908 28.8207 3.19696 28.8617 3.22324 28.9012L5.33598 27.4656C5.33598 27.4013 5.31902 27.354 5.29852 27.2967C5.29312 27.2816 5.28746 27.2659 5.28181 27.2489C5.22764 27.1406 5.20055 27.0322 5.17346 26.9239L5.0922 26.6801C5.07866 26.6259 5.06512 26.5785 5.05158 26.5311L5.05156 26.5311C5.03802 26.4837 5.02449 26.4363 5.01095 26.3821ZM5.30886 31.5015L6.58192 30.2555C6.59546 30.269 6.60224 30.2826 6.60901 30.2961C6.61578 30.3097 6.62255 30.3232 6.63609 30.3368C6.69027 30.418 6.74444 30.4993 6.77153 30.5805C6.78507 30.5941 6.79861 30.6144 6.81216 30.6347C6.8257 30.655 6.83924 30.6753 6.85279 30.6889C6.86287 30.7091 6.87671 30.7292 6.8915 30.7508C6.91645 30.7871 6.94413 30.8275 6.96113 30.8785L7.12365 31.1223C7.134 31.1326 7.14039 31.143 7.14585 31.1518C7.15469 31.1661 7.16108 31.1764 7.17782 31.1764L6.14854 32.3141C6.01314 32.1787 5.87098 32.0433 5.72881 31.9079L5.72868 31.9078L5.72859 31.9077C5.58642 31.7723 5.44426 31.6369 5.30886 31.5015ZM9.39898 33.5871L8.93851 34.3455C9.23646 34.5351 9.53441 34.6977 9.83236 34.8331L10.1574 34.2101C10.1303 34.183 10.0965 34.156 10.0627 34.1289L10.0626 34.1288L10.0625 34.1288C10.0287 34.1017 9.99485 34.0746 9.96779 34.0476C9.9407 34.0205 9.88653 33.9663 9.83236 33.9392C9.79173 33.9121 9.75787 33.8851 9.72401 33.858C9.69016 33.8309 9.6563 33.8038 9.61567 33.7767C9.59818 33.7417 9.56939 33.718 9.5366 33.6911C9.51861 33.6763 9.49942 33.6605 9.48024 33.6413C9.45315 33.6413 9.42606 33.6142 9.39898 33.5871ZM13.1369 36.2145L13.2182 35.9707C13.2588 35.9843 13.2927 35.9978 13.3265 36.0114L13.3266 36.0114C13.3605 36.0249 13.3943 36.0385 13.4348 36.052C13.4619 36.0655 13.4958 36.0791 13.5296 36.0926C13.5635 36.1062 13.5974 36.1197 13.6244 36.1332L13.6245 36.1333C13.7058 36.1603 13.787 36.1874 13.8411 36.2145L14.0849 36.2958L14.0307 36.4583C13.7328 36.4041 13.4348 36.3228 13.1369 36.2145Z" fill="#FF7054"/>
    </g>
</svg>
