<?xml version="1.0" encoding="UTF-8"?>
<svg id="Calque_2" data-name="Calque 2" xmlns="http://www.w3.org/2000/svg" viewBox="0 0 272.3 271.62">
  <defs>
    <style>
      .cls-1 {
        fill: #ffe900;
        stroke-width: 0px;
      }

      .cls-2 {
        opacity: .59;
      }
    </style>
  </defs>
  <g id="Calque_1-2" data-name="Calque 1">
    <g class="cls-2">
      <path class="cls-1" d="m119.2,69.34l.2.6c-4.19.99-8.37,2.58-12.16,4.37l-1-1.99c4.19-1.39,8.57-2.38,12.96-2.98Z"/>
      <path class="cls-1" d="m102.26,73.72l1.4,2.58c-3.59,1.99-7.18,4.37-10.37,6.95l-3.39-4.17c3.99-2.19,8.17-3.97,12.36-5.37Z"/>
      <path class="cls-1" d="m85.52,81.27l4.39,4.77c-2.99,2.78-5.58,5.76-8.17,8.94l-7.97-5.96c3.79-2.78,7.58-5.37,11.76-7.75Z"/>
      <path class="cls-1" d="m69.37,92.79l9.77,6.16c-2.19,3.18-3.99,6.76-5.58,10.33l-14.55-6.16c3.19-3.78,6.58-7.15,10.37-10.33Z"/>
      <path class="cls-1" d="m71.56,114.25c-1.2,3.58-1.99,7.15-2.59,10.93l-22.73-3.58c2.39-4.57,5.18-8.94,8.37-12.92l16.94,5.56Z"/>
      <path class="cls-1" d="m68.37,141.67l-31.1,2.58c.8-2.98,1.59-5.76,2.59-8.54.8-2.38,1.79-4.57,2.79-6.95l25.72,1.79c-.2,1.59-.2,3.38-.2,4.97,0,2.19,0,4.17.2,6.16Z"/>
      <path class="cls-1" d="m69.17,147.63c.6,3.38,1.4,6.76,2.59,10.13l-37.68,12.92v-.99c0-5.37.4-10.73,1.2-16.09l33.89-5.96Z"/>
      <path class="cls-1" d="m74.15,163.72c1.4,2.98,2.99,5.96,4.78,8.74l-40.67,26.23c-.2-.4-.2-.79-.4-1.19-.2-.6-.4-1.19-.6-1.79-.2-.99-.6-1.99-.8-2.98-.2-.4-.2-.99-.4-1.39-.2-.4-.2-.99-.2-1.39-.2-.79-.2-1.39-.4-2.19,0-.4-.2-.99-.2-1.39s-.2-.79-.2-1.39c-.2-.79-.2-1.59-.4-2.38,0-.4,0-.6-.2-.99l39.67-17.88Z"/>
      <path class="cls-1" d="m89.7,185.18l-38.47,40.93c-.2-.4-.4-.6-.6-.99-.2-.2-.4-.6-.6-.79-.4-.6-.8-1.19-1-1.79-.4-.79-.8-1.39-1.2-2.19-.4-.6-.8-1.39-1.2-1.99,0,0,0-.2-.2-.2-.4-.6-.8-1.39-1-1.99-.4-.6-.8-1.39-1-1.99v-.2c-.4-.79-.6-1.39-1-2.19-.2-.4-.4-.79-.4-.99l40.47-32.39c1.59,2.19,3.79,4.57,6.18,6.76Z"/>
      <path class="cls-1" d="m95.28,189.95c2.39,1.79,4.98,3.58,7.77,4.97l-30.5,54.24c-.6-.4-1-.79-1.59-1.19-.4-.4-.8-.6-1-.99-.4-.4-1-.79-1.4-1.19-.4-.4-1-.79-1.4-1.19-.2-.2-.6-.4-.8-.79-.4-.2-.6-.6-1-.99-.8-.79-1.59-1.59-2.39-2.38-.4-.4-.8-.79-1.2-1.19,0-.2-.2-.2-.2-.4-.4-.4-.8-.79-1.2-1.19-.2-.2-.4-.4-.6-.6l35.48-47.09Z"/>
      <path class="cls-1" d="m110.03,198.5c2.59,1.19,5.38,1.99,8.37,2.78l-17.54,63.98c-.2,0-.2-.2-.4-.2-.4-.2-1-.4-1.4-.6-1-.4-1.99-.79-2.99-1.19-.6-.2-1.2-.6-1.79-.79h-.2c-.6-.2-1.4-.6-1.99-.99-.2,0-.4-.2-.4-.2-.6-.2-1.2-.6-1.79-.79-.2,0-.4-.2-.4-.2-.6-.4-1.2-.6-1.79-.99,0,0-.2,0-.2-.2-.6-.4-1.2-.79-1.79-.99l-.2-.2s-.2,0-.2-.2l24.72-59.21Z"/>
      <path class="cls-1" d="m134.55,203.66l-1.59,67.95c-1.4,0-2.79,0-4.19-.2l-4.19-.4c-2.79-.2-5.58-.6-8.37-.99v-.4l9.97-66.76c2.59.4,5.18.6,7.97.79h.4Z"/>
      <path class="cls-1" d="m166.05,268.24c-4.58.99-9.17,1.79-13.75,2.38-.6,0-1.2.2-1.79.2h-.2l-6.98-67.36c2.59-.2,5.38-.4,7.97-.79l14.75,65.57Z"/>
      <path class="cls-1" d="m197.15,257.31c-4.59,2.19-9.17,4.17-13.75,5.96l-23.12-62.39c2.59-.6,4.98-1.39,7.58-2.19l29.3,58.62Z"/>
      <path class="cls-1" d="m224.66,239.03c-3.59,3.18-7.38,5.96-11.36,8.74l-36.08-52.65c2.39-.99,4.78-2.19,6.98-3.38l40.47,47.29Z"/>
      <path class="cls-1" d="m246.98,214.79c-1.2,1.79-2.59,3.58-3.99,5.36-.6.79-1.4,1.79-2.19,2.58-.8.79-1.4,1.79-2.19,2.58l-44.85-39.34c2.19-1.39,4.39-2.98,6.38-4.77l46.85,33.58Z"/>
      <path class="cls-1" d="m262.93,185.78l-1.2,2.98-1.2,2.78c-.8,1.99-1.79,3.78-2.79,5.76l-48.24-24.44c1.79-1.99,3.59-3.97,5.38-5.96l48.04,18.88Z"/>
      <path class="cls-1" d="m271.3,153.79c-.2,1.99-.6,3.78-1,5.76-.4,1.99-.8,3.78-1.2,5.76l-45.85-10.13c1.4-2.38,2.79-4.77,3.99-7.15l44.05,5.76Z"/>
      <path class="cls-1" d="m272.3,131.73l-38.87,1.19c.8-2.58,1.59-5.37,2.19-8.15l35.88-3.97c.2,1.79.4,3.58.4,5.36,0,.4,0,.99.2,1.39.2,1.39.2,2.78.2,4.17Z"/>
      <path class="cls-1" d="m238.21,106.5c0-1.59.2-3.18.2-4.77v-3.58l25.72-9.54c1.2,3.18,2.19,6.36,3.19,9.54l-29.1,8.35Z"/>
      <path class="cls-1" d="m253.76,67.16l-18.34,10.73c-.2-.79-.4-1.39-.6-2.19-.2-.6-.4-1.19-.6-1.79-.2-.79-.4-1.59-.8-2.38-.2-.6-.4-.99-.4-1.59l15.55-10.53c.8,1.19,1.79,2.58,2.59,3.97,1.2,1.19,1.99,2.58,2.59,3.78Z"/>
      <path class="cls-1" d="m233.23,40.33l-9.37,9.14c-.2-.2-.2-.4-.4-.6-.4-.6-.8-1.19-1-1.79-.2-.2-.4-.6-.6-.79-.2-.4-.6-.79-.8-1.39-.4-.6-.8-1.19-1.2-1.79-.2-.2-.2-.4-.4-.4l7.58-8.35c2.19,2.19,4.19,3.97,6.18,5.96Z"/>
      <path class="cls-1" d="m206.52,19.47l-3.39,5.56c-.2-.2-.4-.4-.6-.4-.4-.4-.8-.6-1-.99-.6-.4-1-.79-1.59-1.19-.4-.2-.8-.6-1-.79-.4-.4-1-.79-1.4-1.19l2.39-4.57c2.39.99,4.39,2.38,6.58,3.58Z"/>
      <path class="cls-1" d="m175.62,5.76l-.6,1.79c-.6-.2-1-.4-1.59-.6-.4-.2-1-.4-1.4-.6-.6-.2-1.2-.4-1.59-.6-.6-.2-1.2-.4-1.79-.6l.4-1.19c2.19.6,4.39,1.19,6.58,1.79Z"/>
      <path class="cls-1" d="m142.13.2h-2.19c.8-.2,1.59-.2,2.19,0Z"/>
      <path class="cls-1" d="m153.1,202.27l-.2-.6c4.19-.99,8.37-2.58,12.16-4.37l1,1.99c-4.19,1.19-8.57,2.19-12.96,2.98Z"/>
      <path class="cls-1" d="m170.04,197.9l-1.4-2.58c3.59-1.99,7.18-4.37,10.37-6.95l3.39,4.17c-3.79,1.99-7.97,3.78-12.36,5.37Z"/>
      <path class="cls-1" d="m186.98,190.15l-4.39-4.77c2.99-2.78,5.58-5.76,8.17-8.94l7.97,5.96c-3.79,2.78-7.77,5.56-11.76,7.75Z"/>
      <path class="cls-1" d="m203.13,178.83l-9.77-6.36c2.19-3.18,3.99-6.76,5.58-10.33l14.55,6.16c-3.19,3.78-6.78,7.15-10.37,10.53Z"/>
      <path class="cls-1" d="m200.74,157.37c1.2-3.58,1.99-7.15,2.59-10.93l22.73,3.58c-2.39,4.57-5.18,8.94-8.37,12.92l-16.94-5.56Z"/>
      <path class="cls-1" d="m203.93,129.95l31.3-2.78c-.8,2.98-1.59,5.76-2.59,8.54-.8,2.38-1.79,4.57-2.79,6.95l-25.72-1.79c.2-1.59.2-3.38.2-4.97,0-2.19-.2-4.17-.4-5.96Z"/>
      <path class="cls-1" d="m203.33,123.79c-.6-3.38-1.4-6.76-2.59-10.13l37.68-12.92v.99c0,5.36-.4,10.73-1.2,16.09l-33.89,5.96Z"/>
      <path class="cls-1" d="m198.15,107.69c-1.4-2.98-2.99-5.96-4.78-8.74l40.67-26.23c.2.4.2.79.4,1.19.2.6.4,1.19.6,1.79.2.99.6,1.99.8,2.98.2.4.2.99.4,1.39.2.4.2.99.2,1.39.2.79.2,1.39.4,2.19,0,.4.2.99.2,1.39s.2.79.2,1.39c.2.79.2,1.59.4,2.38,0,.4,0,.6.2.99l-39.67,17.88Z"/>
      <path class="cls-1" d="m182.8,86.23l38.47-40.73c.2.4.4.6.6.99.2.2.4.6.6.79.4.6.8,1.19,1,1.79.4.79.8,1.39,1.2,2.19.4.6.8,1.39,1.2,1.99,0,0,0,.2.2.2.4.6.8,1.39,1,1.99.4.6.8,1.39,1,1.99v.2c.4.79.6,1.39,1,2.19.2.4.4.79.4.99l-40.07,32.59c-1.99-2.58-4.19-4.97-6.58-7.15Z"/>
      <path class="cls-1" d="m177.22,81.47c-2.39-1.79-4.98-3.58-7.77-4.97l30.5-54.24c.6.4,1,.79,1.59,1.19.4.4.8.6,1,.99.4.4,1,.79,1.4,1.19.4.4,1,.79,1.4,1.19.2.2.6.4.8.79.4.2.6.6,1,.99.8.79,1.59,1.59,2.39,2.38.4.4.8.79,1.2,1.19,0,.2.2.2.2.4.4.4.8.79,1.2,1.19.2.2.4.4.6.6l-35.48,47.09Z"/>
      <path class="cls-1" d="m162.46,73.12c-2.59-1.19-5.38-1.99-8.37-2.78l17.54-63.98c.2,0,.2.2.4.2.4.2,1,.4,1.4.6,1,.4,1.99.79,2.99,1.19.6.2,1.2.6,1.79.79h.2c.6.2,1.4.6,1.99.99.2,0,.4.2.4.2.6.2,1.2.6,1.79.79.2,0,.4.2.4.2.6.4,1.2.6,1.79.99,0,0,.2,0,.2.2.6.4,1.2.79,1.79.99l.2.2s.2,0,.2.2l-24.72,59.21Z"/>
      <path class="cls-1" d="m137.74,67.95l1.59-67.95c1.4,0,2.79,0,4.19.2l4.19.4c2.79.2,5.58.6,8.37.99v.4l-9.97,66.76c-2.59-.4-5.18-.6-7.97-.79h-.4Z"/>
      <path class="cls-1" d="m106.45,3.18c4.59-.99,9.17-1.79,13.75-2.38.6,0,1.2-.2,1.79-.2h.2l6.98,67.36c-2.59.2-5.38.4-7.97.79L106.45,3.18Z"/>
      <path class="cls-1" d="m75.35,14.31c4.58-2.19,9.17-4.17,13.75-5.96l23.12,62.39c-2.59.6-4.98,1.39-7.58,2.19l-29.3-58.62Z"/>
      <path class="cls-1" d="m47.64,32.59c3.59-3.18,7.38-5.96,11.36-8.74l36.28,52.46c-2.39.99-4.78,2.19-6.98,3.38l-40.67-47.09Z"/>
      <path class="cls-1" d="m25.32,56.83c1.2-1.79,2.59-3.58,3.99-5.36.6-.79,1.4-1.79,2.19-2.58.8-.79,1.4-1.79,2.19-2.58l44.85,39.14c-2.19,1.39-4.39,2.98-6.38,4.77L25.32,56.83Z"/>
      <path class="cls-1" d="m9.57,85.84l1.2-2.98,1.2-2.98c.8-1.99,1.79-3.78,2.79-5.76l48.24,24.44c-1.79,1.99-3.59,3.97-5.38,5.96l-48.04-18.68Z"/>
      <path class="cls-1" d="m1.2,117.63c.2-1.99.6-3.78,1-5.76.4-1.99.8-3.78,1.2-5.76l45.85,10.13c-1.4,2.38-2.79,4.77-3.99,7.15L1.2,117.63Z"/>
      <path class="cls-1" d="m0,139.68l38.87-1.19c-.8,2.58-1.59,5.37-2.19,8.15l-35.88,3.97c-.2-1.79-.4-3.58-.4-5.37,0-.4,0-.99-.2-1.39-.2-1.39-.2-2.78-.2-4.17Z"/>
      <path class="cls-1" d="m34.09,164.92c0,1.59-.2,3.18-.2,4.77v3.58l-25.52,9.54c-1.2-3.18-2.19-6.36-3.19-9.54l28.9-8.35Z"/>
      <path class="cls-1" d="m18.54,204.26l18.34-10.73c.2.79.4,1.39.6,2.19.2.6.4,1.19.6,1.79.2.79.4,1.59.8,2.38.2.6.4.99.4,1.59l-15.55,10.53c-.8-1.19-1.79-2.58-2.59-3.97-1-1.19-1.79-2.38-2.59-3.78Z"/>
      <path class="cls-1" d="m39.07,231.08l9.37-9.14c.2.2.2.4.4.6.4.6.8,1.19,1,1.79.2.2.4.6.6.79.2.4.6.79.8,1.39.4.6.8,1.19,1.2,1.79.2.2.2.4.4.4l-7.58,8.35c-1.99-1.99-4.19-3.97-6.18-5.96Z"/>
      <path class="cls-1" d="m65.78,251.95l3.39-5.56c.2.2.4.4.6.4.4.4.8.6,1,.99.6.4,1,.79,1.59,1.19.4.2.8.6,1,.79.4.4,1,.79,1.4,1.19l-2.39,4.57c-2.19-.99-4.39-2.19-6.58-3.58Z"/>
      <path class="cls-1" d="m96.68,265.66l.6-1.79c.6.2,1,.4,1.59.6.4.2,1,.4,1.4.6.6.2,1.2.4,1.59.6.6.2,1.2.4,1.79.6l-.4,1.19c-2.19-.4-4.39-.99-6.58-1.79Z"/>
    </g>
  </g>
</svg>