<svg xmlns="http://www.w3.org/2000/svg" xmlns:xlink="http://www.w3.org/1999/xlink" viewBox="0 0 160.25 242.34"><defs><style>.cls-1{fill:url(#Dégradé_sans_nom_2);}.cls-2{fill:url(#Dégradé_sans_nom_2-2);}.cls-3{fill:url(#Dégradé_sans_nom_2-3);}.cls-4{fill:url(#Dégradé_sans_nom_2-4);}.cls-5{fill:url(#Dégradé_sans_nom_2-5);}.cls-6{fill:url(#Dégradé_sans_nom_2-6);}.cls-7{fill:url(#Dégradé_sans_nom_2-7);}.cls-8{fill:url(#Dégradé_sans_nom_2-8);}.cls-9{fill:#4d4d4d;}.cls-10{fill:url(#Dégradé_sans_nom_2-9);}.cls-11{fill:url(#Dégradé_sans_nom_2-10);}.cls-12{fill:url(#Dégradé_sans_nom_2-11);}.cls-13{fill:url(#Dégradé_sans_nom_2-12);}.cls-14{fill:url(#Dégradé_sans_nom_2-13);}.cls-15{fill:url(#Dégradé_sans_nom_2-14);}.cls-16{fill:url(#Dégradé_sans_nom_2-15);}.cls-17{fill:url(#Dégradé_sans_nom_2-16);}.cls-18{fill:url(#Dégradé_sans_nom_2-17);}.cls-19{fill:url(#Dégradé_sans_nom_2-18);}.cls-20{fill:url(#Dégradé_sans_nom_2-19);}.cls-21{fill:url(#Dégradé_sans_nom_2-20);}.cls-22{fill:url(#Dégradé_sans_nom_2-21);}.cls-23{fill:url(#Dégradé_sans_nom_2-22);}.cls-24{fill:url(#Dégradé_sans_nom_2-23);}.cls-25{fill:url(#Dégradé_sans_nom_2-24);}.cls-26{fill:url(#Dégradé_sans_nom_2-25);}.cls-27{fill:url(#Dégradé_sans_nom_2-26);}.cls-28{fill:url(#Dégradé_sans_nom_2-27);}.cls-29{fill:url(#Dégradé_sans_nom_2-28);}.cls-30{fill:url(#Dégradé_sans_nom_2-29);}</style><linearGradient id="Dégradé_sans_nom_2" x1="-50.31" y1="239.29" x2="53.5" y2="-8.53" gradientUnits="userSpaceOnUse"><stop offset="0" stop-color="#1f3765"/><stop offset="0.06" stop-color="#283564"/><stop offset="0.15" stop-color="#423063"/><stop offset="0.28" stop-color="#6b2861"/><stop offset="0.42" stop-color="#a41d5e"/><stop offset="0.52" stop-color="#d3145b"/><stop offset="0.99" stop-color="#f29222"/></linearGradient><linearGradient id="Dégradé_sans_nom_2-2" x1="-24.82" y1="249.97" x2="79" y2="2.15" xlink:href="#Dégradé_sans_nom_2"/><linearGradient id="Dégradé_sans_nom_2-3" x1="26.1" y1="271.3" x2="129.92" y2="23.49" xlink:href="#Dégradé_sans_nom_2"/><linearGradient id="Dégradé_sans_nom_2-4" x1="7.09" y1="263.33" x2="110.9" y2="15.52" xlink:href="#Dégradé_sans_nom_2"/><linearGradient id="Dégradé_sans_nom_2-5" x1="11.84" y1="265.32" x2="115.65" y2="17.51" xlink:href="#Dégradé_sans_nom_2"/><linearGradient id="Dégradé_sans_nom_2-6" x1="0.69" y1="260.65" x2="104.51" y2="12.84" xlink:href="#Dégradé_sans_nom_2"/><linearGradient id="Dégradé_sans_nom_2-7" x1="40.66" y1="277.4" x2="144.48" y2="29.58" xlink:href="#Dégradé_sans_nom_2"/><linearGradient id="Dégradé_sans_nom_2-8" x1="62.62" y1="286.59" x2="166.43" y2="38.78" xlink:href="#Dégradé_sans_nom_2"/><linearGradient id="Dégradé_sans_nom_2-9" x1="-11.1" y1="256.81" x2="94.88" y2="3.82" xlink:href="#Dégradé_sans_nom_2"/><linearGradient id="Dégradé_sans_nom_2-10" x1="2.4" y1="262.47" x2="108.38" y2="9.47" xlink:href="#Dégradé_sans_nom_2"/><linearGradient id="Dégradé_sans_nom_2-11" x1="16.89" y1="268.54" x2="122.87" y2="15.54" xlink:href="#Dégradé_sans_nom_2"/><linearGradient id="Dégradé_sans_nom_2-12" x1="29.85" y1="273.97" x2="135.84" y2="20.97" xlink:href="#Dégradé_sans_nom_2"/><linearGradient id="Dégradé_sans_nom_2-13" x1="43.27" y1="279.59" x2="149.25" y2="26.59" xlink:href="#Dégradé_sans_nom_2"/><linearGradient id="Dégradé_sans_nom_2-14" x1="53.49" y1="283.87" x2="159.48" y2="30.88" xlink:href="#Dégradé_sans_nom_2"/><linearGradient id="Dégradé_sans_nom_2-15" x1="67" y1="289.53" x2="172.98" y2="36.53" xlink:href="#Dégradé_sans_nom_2"/><linearGradient id="Dégradé_sans_nom_2-16" x1="79.5" y1="294.77" x2="185.48" y2="41.77" xlink:href="#Dégradé_sans_nom_2"/><linearGradient id="Dégradé_sans_nom_2-17" x1="93" y1="300.42" x2="198.98" y2="47.43" xlink:href="#Dégradé_sans_nom_2"/><linearGradient id="Dégradé_sans_nom_2-18" x1="105.86" y1="305.81" x2="211.85" y2="52.81" xlink:href="#Dégradé_sans_nom_2"/><linearGradient id="Dégradé_sans_nom_2-19" x1="118.04" y1="310.91" x2="224.02" y2="57.92" xlink:href="#Dégradé_sans_nom_2"/><linearGradient id="Dégradé_sans_nom_2-20" x1="-7.64" y1="258.26" x2="98.34" y2="5.26" xlink:href="#Dégradé_sans_nom_2"/><linearGradient id="Dégradé_sans_nom_2-21" x1="5.76" y1="263.88" x2="111.75" y2="10.88" xlink:href="#Dégradé_sans_nom_2"/><linearGradient id="Dégradé_sans_nom_2-22" x1="21.38" y1="270.42" x2="127.36" y2="17.42" xlink:href="#Dégradé_sans_nom_2"/><linearGradient id="Dégradé_sans_nom_2-23" x1="37.34" y1="277.1" x2="143.32" y2="24.11" xlink:href="#Dégradé_sans_nom_2"/><linearGradient id="Dégradé_sans_nom_2-24" x1="53.59" y1="283.91" x2="159.58" y2="30.92" xlink:href="#Dégradé_sans_nom_2"/><linearGradient id="Dégradé_sans_nom_2-25" x1="66.9" y1="289.49" x2="172.88" y2="36.49" xlink:href="#Dégradé_sans_nom_2"/><linearGradient id="Dégradé_sans_nom_2-26" x1="83.62" y1="296.49" x2="189.6" y2="43.5" xlink:href="#Dégradé_sans_nom_2"/><linearGradient id="Dégradé_sans_nom_2-27" x1="96.51" y1="301.89" x2="202.49" y2="48.9" xlink:href="#Dégradé_sans_nom_2"/><linearGradient id="Dégradé_sans_nom_2-28" x1="109.49" y1="307.33" x2="215.48" y2="54.33" xlink:href="#Dégradé_sans_nom_2"/><linearGradient id="Dégradé_sans_nom_2-29" x1="124.4" y1="313.58" x2="230.39" y2="60.58" xlink:href="#Dégradé_sans_nom_2"/></defs><title>Fichier 12019</title><g id="Calque_2" data-name="Calque 2"><g id="LOGO"><path d="M48.44,34.9A13.14,13.14,0,1,1,35.33,21.78,13.14,13.14,0,0,1,48.44,34.9Zm-3.55,0a9.59,9.59,0,1,0-9.56,9.61A9.56,9.56,0,0,0,44.89,34.9Z"/><path d="M52.14,51.66V34.9a13.1,13.1,0,1,1,3.55,9v7.73Zm13.11-7.15a9.59,9.59,0,1,0-9.56-9.61A9.61,9.61,0,0,0,65.25,44.51Z"/><path d="M138.27,34.9a13.14,13.14,0,1,1-13.11-13.12A13.14,13.14,0,0,1,138.27,34.9Zm-3.56,0a9.58,9.58,0,1,0-9.55,9.61A9.55,9.55,0,0,0,134.71,34.9Z"/><path class="cls-1" d="M48.44,34.9A13.14,13.14,0,1,1,35.33,21.78,13.14,13.14,0,0,1,48.44,34.9Zm-3.55,0a9.59,9.59,0,1,0-9.56,9.61A9.56,9.56,0,0,0,44.89,34.9Z"/><path class="cls-2" d="M52.14,51.66V34.9a13.1,13.1,0,1,1,3.55,9v7.73Zm13.11-7.15a9.59,9.59,0,1,0-9.56-9.61A9.61,9.61,0,0,0,65.25,44.51Z"/><path class="cls-3" d="M138.27,34.9a13.14,13.14,0,1,1-13.11-13.12A13.14,13.14,0,0,1,138.27,34.9Zm-3.56,0a9.58,9.58,0,1,0-9.55,9.61A9.55,9.55,0,0,0,134.71,34.9Z"/><path class="cls-4" d="M23.16,182V167.49L66,127.33c9-8.43,15.06-16.86,15.06-26.72,0-12.91-7.17-22.41-20.44-22.41C47.72,78.2,40,87.53,40,101.87v1.61H23.33v-1.61C23.33,78,37.5,62.42,60.81,62.42c23.13,0,37.47,16.32,37.47,38.19,0,15.42-7.35,25.28-19.9,36.76l-31.56,29v.36h50V182Z"/><path class="cls-5" d="M157.25,204.62H3a2.84,2.84,0,0,1-2.84-2.84V2.85A2.84,2.84,0,0,1,3,0H157.25a2.85,2.85,0,0,1,2.85,2.85V201.78A2.85,2.85,0,0,1,157.25,204.62ZM5.85,198.93H154.4V5.69H5.85Z"/><path class="cls-6" d="M95.28,44.51a9.59,9.59,0,1,1,9.22-12.18h3.66a13.15,13.15,0,1,0,0,5.26h-3.67A9.63,9.63,0,0,1,95.28,44.51Z"/><rect class="cls-7" x="116.74" y="64.75" width="18.29" height="18.41"/><rect class="cls-8" x="116.74" y="89.11" width="18.29" height="92.9"/><path class="cls-9" d="M7.44,217.51a2.61,2.61,0,0,0-2.77-2.11c-2.36,0-3.35,1.94-3.35,4,0,2.26,1,4.15,3.36,4.15a2.8,2.8,0,0,0,2.85-2.86H8.85a4,4,0,0,1-4.28,4C1.5,224.65,0,222.38,0,219.5s1.63-5.21,4.68-5.21a3.78,3.78,0,0,1,4.07,3.22Z"/><path class="cls-9" d="M20.41,214.29c3.14,0,4.73,2.5,4.73,5.18s-1.59,5.18-4.73,5.18-4.74-2.49-4.74-5.18S17.26,214.29,20.41,214.29Zm0,9.26c2.41,0,3.42-2.08,3.42-4.08s-1-4.07-3.42-4.07S17,217.48,17,219.47,18,223.55,20.41,223.55Z"/><path class="cls-9" d="M32.52,214.53h1.8l3.12,8.31,3.13-8.31h1.8v9.89H41.12v-8.23h0L38,224.42H36.88l-3.09-8.23h0v8.23H32.52Z"/><path class="cls-9" d="M50.3,214.53h4.33a2.92,2.92,0,1,1,0,5.84h-3v4H50.3Zm1.31,4.74h2.58c1.48,0,2.16-.64,2.16-1.82s-.68-1.81-2.16-1.81H51.61Z"/><path class="cls-9" d="M65,214.53h6.83v1.11H66.33v3.14h5.14v1.11H66.33v3.42h5.55v1.11H65Zm3.31-2.69h1.51l-1.62,2h-.88Z"/><path class="cls-9" d="M81.46,215.64H78.17v-1.11h7.9v1.11H82.78v8.78H81.46Z"/><path class="cls-9" d="M92.91,214.53h6.83v1.11H94.23v3.14h5.13v1.11H94.23v3.42h5.55v1.11H92.91Z"/><path class="cls-9" d="M107.1,214.53h1.4l5.21,8h0v-8H115v9.89h-1.44l-5.16-7.94h0v7.94H107.1Z"/><path class="cls-9" d="M129.81,217.51A2.61,2.61,0,0,0,127,215.4c-2.36,0-3.35,1.94-3.35,4,0,2.26,1,4.15,3.36,4.15a2.8,2.8,0,0,0,2.85-2.86h1.32a4,4,0,0,1-4.28,4c-3.07,0-4.57-2.27-4.57-5.15s1.63-5.21,4.68-5.21a3.78,3.78,0,0,1,4.07,3.22Z"/><path class="cls-9" d="M138.6,214.53h6.82v1.11h-5.51v3.14h5.14v1.11h-5.14v3.42h5.56v1.11H138.6Z"/><path class="cls-9" d="M158.52,217.42a2.16,2.16,0,0,0-2.45-2c-1.11,0-2.22.4-2.22,1.69s1.58,1.4,3.17,1.76,3.16.91,3.16,2.85c0,2.11-2.06,3-3.86,3-2.22,0-4.09-1.08-4.09-3.49h1.25c0,1.67,1.38,2.39,2.88,2.39,1.19,0,2.51-.38,2.51-1.81s-1.58-1.59-3.16-1.93-3.17-.81-3.17-2.62c0-2,1.78-2.9,3.58-2.9,2,0,3.56,1,3.65,3.13Z"/><path class="cls-9" d="M.54,232.22H1.86v9.88H.54Z"/><path class="cls-9" d="M13,232.22h1.4l5.21,8h0v-8h1.24v9.88H19.45l-5.16-7.93h0v7.93H13Z"/><path class="cls-9" d="M32,232.22h3.39c3.05,0,4.75,1.52,4.75,4.7s-1.45,5.18-4.75,5.18H32ZM33.3,241h2.18c.9,0,3.33-.25,3.33-3.9,0-2.35-.87-3.78-3.3-3.78H33.3Z"/><path class="cls-9" d="M58.58,238.53c0,2.49-1.43,3.81-3.89,3.81s-4.06-1.18-4.06-3.81v-6.31h1.31v6.31a2.46,2.46,0,0,0,2.75,2.7,2.37,2.37,0,0,0,2.57-2.7v-6.31h1.32Z"/><path class="cls-9" d="M75.36,235.11a2.17,2.17,0,0,0-2.45-2c-1.11,0-2.22.4-2.22,1.69s1.58,1.4,3.17,1.76,3.16.91,3.16,2.85c0,2.1-2.06,3-3.86,3-2.22,0-4.09-1.08-4.09-3.49h1.25c0,1.66,1.38,2.38,2.88,2.38,1.19,0,2.5-.37,2.5-1.8s-1.58-1.59-3.15-1.94-3.18-.8-3.18-2.62c0-2,1.79-2.89,3.59-2.89,2,0,3.56,1,3.64,3.13Z"/><path class="cls-9" d="M89.81,233.32h-3.3v-1.1h7.91v1.1H91.13v8.78H89.81Z"/><path class="cls-9" d="M104.47,232.22h4.65c1.86,0,3,1,3,2.59a2.37,2.37,0,0,1-1.72,2.5v0c1.15.22,1.39,1.07,1.48,2a5.14,5.14,0,0,0,.58,2.72H111c-.38-.4-.17-1.46-.36-2.43s-.38-1.79-1.65-1.79h-3.21v4.22h-1.32Zm4.06,4.55c1.23,0,2.28-.32,2.28-1.76a1.56,1.56,0,0,0-1.76-1.69h-3.26v3.45Z"/><path class="cls-9" d="M123,232.22h1.31v9.88H123Z"/><path class="cls-9" d="M135.45,232.22h6.83v1.1h-5.51v3.15h5.14v1.11h-5.14V241h5.55v1.1h-6.87Z"/><path class="cls-9" d="M158.59,235.11a2.16,2.16,0,0,0-2.45-2c-1.11,0-2.22.4-2.22,1.69s1.58,1.4,3.17,1.76,3.16.91,3.16,2.85c0,2.1-2.06,3-3.86,3-2.22,0-4.09-1.08-4.09-3.49h1.25c0,1.66,1.38,2.38,2.88,2.38,1.19,0,2.51-.37,2.51-1.8s-1.58-1.59-3.16-1.94-3.17-.8-3.17-2.62c0-2,1.78-2.89,3.58-2.89,2,0,3.56,1,3.65,3.13Z"/><path class="cls-10" d="M7.44,217.51a2.61,2.61,0,0,0-2.77-2.11c-2.36,0-3.35,1.94-3.35,4,0,2.26,1,4.15,3.36,4.15a2.8,2.8,0,0,0,2.85-2.86H8.85a4,4,0,0,1-4.28,4C1.5,224.65,0,222.38,0,219.5s1.63-5.21,4.68-5.21a3.78,3.78,0,0,1,4.07,3.22Z"/><path class="cls-11" d="M20.41,214.29c3.14,0,4.73,2.5,4.73,5.18s-1.59,5.18-4.73,5.18-4.74-2.49-4.74-5.18S17.26,214.29,20.41,214.29Zm0,9.26c2.41,0,3.42-2.08,3.42-4.08s-1-4.07-3.42-4.07S17,217.48,17,219.47,18,223.55,20.41,223.55Z"/><path class="cls-12" d="M32.52,214.53h1.8l3.12,8.31,3.13-8.31h1.8v9.89H41.12v-8.23h0L38,224.42H36.88l-3.09-8.23h0v8.23H32.52Z"/><path class="cls-13" d="M50.3,214.53h4.33a2.92,2.92,0,1,1,0,5.84h-3v4H50.3Zm1.31,4.74h2.58c1.48,0,2.16-.64,2.16-1.82s-.68-1.81-2.16-1.81H51.61Z"/><path class="cls-14" d="M65,214.53h6.83v1.11H66.33v3.14h5.14v1.11H66.33v3.42h5.55v1.11H65Zm3.31-2.69h1.51l-1.62,2h-.88Z"/><path class="cls-15" d="M81.46,215.64H78.17v-1.11h7.9v1.11H82.78v8.78H81.46Z"/><path class="cls-16" d="M92.91,214.53h6.83v1.11H94.23v3.14h5.13v1.11H94.23v3.42h5.55v1.11H92.91Z"/><path class="cls-17" d="M107.1,214.53h1.4l5.21,8h0v-8H115v9.89h-1.44l-5.16-7.94h0v7.94H107.1Z"/><path class="cls-18" d="M129.81,217.51A2.61,2.61,0,0,0,127,215.4c-2.36,0-3.35,1.94-3.35,4,0,2.26,1,4.15,3.36,4.15a2.8,2.8,0,0,0,2.85-2.86h1.32a4,4,0,0,1-4.28,4c-3.07,0-4.57-2.27-4.57-5.15s1.63-5.21,4.68-5.21a3.78,3.78,0,0,1,4.07,3.22Z"/><path class="cls-19" d="M138.6,214.53h6.82v1.11h-5.51v3.14h5.14v1.11h-5.14v3.42h5.56v1.11H138.6Z"/><path class="cls-20" d="M158.52,217.42a2.16,2.16,0,0,0-2.45-2c-1.11,0-2.22.4-2.22,1.69s1.58,1.4,3.17,1.76,3.16.91,3.16,2.85c0,2.11-2.06,3-3.86,3-2.22,0-4.09-1.08-4.09-3.49h1.25c0,1.67,1.38,2.39,2.88,2.39,1.19,0,2.51-.38,2.51-1.81s-1.58-1.59-3.16-1.93-3.17-.81-3.17-2.62c0-2,1.78-2.9,3.58-2.9,2,0,3.56,1,3.65,3.13Z"/><path class="cls-21" d="M.54,232.22H1.86v9.88H.54Z"/><path class="cls-22" d="M13,232.22h1.4l5.21,8h0v-8h1.24v9.88H19.45l-5.16-7.93h0v7.93H13Z"/><path class="cls-23" d="M32,232.22h3.39c3.05,0,4.75,1.52,4.75,4.7s-1.45,5.18-4.75,5.18H32ZM33.3,241h2.18c.9,0,3.33-.25,3.33-3.9,0-2.35-.87-3.78-3.3-3.78H33.3Z"/><path class="cls-24" d="M58.58,238.53c0,2.49-1.43,3.81-3.89,3.81s-4.06-1.18-4.06-3.81v-6.31h1.31v6.31a2.46,2.46,0,0,0,2.75,2.7,2.37,2.37,0,0,0,2.57-2.7v-6.31h1.32Z"/><path class="cls-25" d="M75.36,235.11a2.17,2.17,0,0,0-2.45-2c-1.11,0-2.22.4-2.22,1.69s1.58,1.4,3.17,1.76,3.16.91,3.16,2.85c0,2.1-2.06,3-3.86,3-2.22,0-4.09-1.08-4.09-3.49h1.25c0,1.66,1.38,2.38,2.88,2.38,1.19,0,2.5-.37,2.5-1.8s-1.58-1.59-3.15-1.94-3.18-.8-3.18-2.62c0-2,1.79-2.89,3.59-2.89,2,0,3.56,1,3.64,3.13Z"/><path class="cls-26" d="M89.81,233.32h-3.3v-1.1h7.91v1.1H91.13v8.78H89.81Z"/><path class="cls-27" d="M104.47,232.22h4.65c1.86,0,3,1,3,2.59a2.37,2.37,0,0,1-1.72,2.5v0c1.15.22,1.39,1.07,1.48,2a5.14,5.14,0,0,0,.58,2.72H111c-.38-.4-.17-1.46-.36-2.43s-.38-1.79-1.65-1.79h-3.21v4.22h-1.32Zm4.06,4.55c1.23,0,2.28-.32,2.28-1.76a1.56,1.56,0,0,0-1.76-1.69h-3.26v3.45Z"/><path class="cls-28" d="M123,232.22h1.31v9.88H123Z"/><path class="cls-29" d="M135.45,232.22h6.83v1.1h-5.51v3.15h5.14v1.11h-5.14V241h5.55v1.1h-6.87Z"/><path class="cls-30" d="M158.59,235.11a2.16,2.16,0,0,0-2.45-2c-1.11,0-2.22.4-2.22,1.69s1.58,1.4,3.17,1.76,3.16.91,3.16,2.85c0,2.1-2.06,3-3.86,3-2.22,0-4.09-1.08-4.09-3.49h1.25c0,1.66,1.38,2.38,2.88,2.38,1.19,0,2.51-.37,2.51-1.8s-1.58-1.59-3.16-1.94-3.17-.8-3.17-2.62c0-2,1.78-2.89,3.58-2.89,2,0,3.56,1,3.65,3.13Z"/></g></g></svg>