<?xml version="1.0" encoding="UTF-8" standalone="no"?>
<!-- Generator: Adobe Illustrator 25.3.1, SVG Export Plug-In . SVG Version: 6.00 Build 0)  -->

<svg
   xmlns:dc="http://purl.org/dc/elements/1.1/"
   xmlns:cc="http://creativecommons.org/ns#"
   xmlns:rdf="http://www.w3.org/1999/02/22-rdf-syntax-ns#"
   xmlns:svg="http://www.w3.org/2000/svg"
   xmlns="http://www.w3.org/2000/svg"
   xmlns:sodipodi="http://sodipodi.sourceforge.net/DTD/sodipodi-0.dtd"
   xmlns:inkscape="http://www.inkscape.org/namespaces/inkscape"
   version="1.1"
   id="Calque_1"
   x="0px"
   y="0px"
   viewBox="0 0 91.720001 105.98"
   xml:space="preserve"
   sodipodi:docname="picto-boite-a-outils.svg"
   width="91.720001"
   height="105.98"
   inkscape:version="0.92.5 (2060ec1f9f, 2020-04-08)"><metadata
   id="metadata45"><rdf:RDF><cc:Work
       rdf:about=""><dc:format>image/svg+xml</dc:format><dc:type
         rdf:resource="http://purl.org/dc/dcmitype/StillImage" /><dc:title></dc:title></cc:Work></rdf:RDF></metadata><defs
   id="defs43" /><sodipodi:namedview
   pagecolor="#ffffff"
   bordercolor="#666666"
   borderopacity="1"
   objecttolerance="10"
   gridtolerance="10"
   guidetolerance="10"
   inkscape:pageopacity="0"
   inkscape:pageshadow="2"
   inkscape:window-width="640"
   inkscape:window-height="480"
   id="namedview41"
   showgrid="false"
   fit-margin-top="0"
   fit-margin-left="0"
   fit-margin-right="0"
   fit-margin-bottom="0"
   inkscape:zoom="0.21851852"
   inkscape:cx="743.04"
   inkscape:cy="382.43"
   inkscape:window-x="72"
   inkscape:window-y="0"
   inkscape:window-maximized="0"
   inkscape:current-layer="Calque_1" />
<style
   type="text/css"
   id="style2">
	.st0{fill:#FFD002;}
	.st1{fill:none;stroke:#3280C2;stroke-width:3.3414;stroke-miterlimit:10;}
	.st2{fill:#FFFFFF;}
	.st3{fill:#3280C2;stroke:#3280C2;stroke-width:0.8353;stroke-miterlimit:10;}
</style>
<g
   id="g6"
   transform="translate(-216.96,-816.45)">
	<path
   class="st0"
   d="m 280.55,826.81 -17.72,-10.36 -45.85,26.77 v 1.96 l -0.02,-0.01 0.01,24.27 -0.01,24.27 0.02,-0.01 v 1.96 l 10.87,6.45 34.98,20.32 45.85,-27.27 v -21.14 -28.85 -1.93 z m 16.41,60.62 -34.13,19.19 -21.53,-12.28 -12.47,-7.14 v -35.52 l 34,-19.42 4.26,2.4 29.88,16.87 v 29.45 6.45 z"
   id="path4"
   inkscape:connector-curvature="0"
   style="fill:#ffd002" />
</g>
<g
   id="g38"
   transform="translate(-216.96,-816.45)">
	<line
   class="st1"
   x1="242.64999"
   y1="867.09003"
   x2="277.91"
   y2="857.40002"
   id="line8"
   style="fill:none;stroke:#3280c2;stroke-width:3.34139991;stroke-miterlimit:10" />
	<line
   class="st1"
   x1="277.91"
   y1="857.40002"
   x2="265.76999"
   y2="887.33002"
   id="line10"
   style="fill:none;stroke:#3280c2;stroke-width:3.34139991;stroke-miterlimit:10" />
	<line
   class="st1"
   x1="242.64999"
   y1="867.09003"
   x2="265.76999"
   y2="887.33002"
   id="line12"
   style="fill:none;stroke:#3280c2;stroke-width:3.34139991;stroke-miterlimit:10" />
	<g
   id="g16">
		<path
   class="st2"
   d="m 279.83,851.66 -2.36,-1.38 -6.11,3.57 v 0.26 0 3.23 3.23 0 0.26 l 1.45,0.86 4.66,2.71 6.11,-3.63 v -2.82 -3.84 -0.26 z"
   id="path14"
   inkscape:connector-curvature="0"
   style="fill:#ffffff" />
	</g>
	<g
   id="g20">
		<path
   class="st2"
   d="m 245.61,861.35 -2.36,-1.38 -6.11,3.57 v 0.26 0 3.23 3.23 0 0.26 l 1.45,0.86 4.66,2.71 6.11,-3.63 v -2.82 -3.84 -0.26 z"
   id="path18"
   inkscape:connector-curvature="0"
   style="fill:#ffffff" />
	</g>
	<g
   id="g24">
		<path
   class="st2"
   d="m 268.14,880.99 -2.36,-1.38 -6.11,3.57 v 0.26 0 3.23 3.23 0 0.26 l 1.45,0.86 4.66,2.71 6.11,-3.63 v -2.82 -3.84 -0.26 z"
   id="path22"
   inkscape:connector-curvature="0"
   style="fill:#ffffff" />
	</g>
	<g
   id="g28">
		<path
   class="st3"
   d="m 274.58,864.26 2.88,1.68 7.45,-4.35 v -0.32 0 -3.94 -3.94 0 -0.32 l -1.77,-1.05 -5.68,-3.3 -7.45,4.43 v 3.44 4.69 0.31 z m -2.66,-9.85 5.55,-3.12 3.5,2 2.03,1.16 v 5.77 l -5.76,3.29 -5.31,-3.11 v -4.95 -1.04 z"
   id="path26"
   inkscape:connector-curvature="0"
   style="fill:#3280c2;stroke:#3280c2;stroke-width:0.83530003;stroke-miterlimit:10" />
	</g>
	<g
   id="g32">
		<path
   class="st3"
   d="m 240.18,873.95 2.88,1.68 7.45,-4.35 v -0.32 0 -3.94 -3.94 0 -0.32 l -1.77,-1.05 -5.68,-3.3 -7.45,4.43 v 3.44 4.69 0.31 z m -2.67,-9.85 5.55,-3.12 3.5,2 2.03,1.16 v 5.77 l -5.76,3.29 -5.31,-3.11 v -4.95 -1.04 z"
   id="path30"
   inkscape:connector-curvature="0"
   style="fill:#3280c2;stroke:#3280c2;stroke-width:0.83530003;stroke-miterlimit:10" />
	</g>
	<g
   id="g36">
		<path
   class="st3"
   d="m 262.9,893.7 2.88,1.68 7.45,-4.35 v -0.32 0 -3.94 -3.94 0 -0.32 l -1.77,-1.05 -5.68,-3.3 -7.45,4.43 v 3.44 4.69 0.31 z m -2.67,-9.85 5.55,-3.12 3.5,2 2.03,1.16 v 5.77 l -5.76,3.29 -5.31,-3.11 v -4.95 -1.04 z"
   id="path34"
   inkscape:connector-curvature="0"
   style="fill:#3280c2;stroke:#3280c2;stroke-width:0.83530003;stroke-miterlimit:10" />
	</g>
</g>
</svg>