<?xml version="1.0" encoding="UTF-8" standalone="no"?>
<!-- Generator: Adobe Illustrator 25.3.1, SVG Export Plug-In . SVG Version: 6.00 Build 0)  -->

<svg
   xmlns:dc="http://purl.org/dc/elements/1.1/"
   xmlns:cc="http://creativecommons.org/ns#"
   xmlns:rdf="http://www.w3.org/1999/02/22-rdf-syntax-ns#"
   xmlns:svg="http://www.w3.org/2000/svg"
   xmlns="http://www.w3.org/2000/svg"
   xmlns:sodipodi="http://sodipodi.sourceforge.net/DTD/sodipodi-0.dtd"
   xmlns:inkscape="http://www.inkscape.org/namespaces/inkscape"
   version="1.1"
   id="Calque_1"
   x="0px"
   y="0px"
   viewBox="0 0 202.75332 391.66365"
   xml:space="preserve"
   sodipodi:docname="picto-facebook.svg"
   width="202.75333"
   height="391.66367"
   inkscape:version="0.92.5 (2060ec1f9f, 2020-04-08)"><metadata
   id="metadata15"><rdf:RDF><cc:Work
       rdf:about=""><dc:format>image/svg+xml</dc:format><dc:type
         rdf:resource="http://purl.org/dc/dcmitype/StillImage" /><dc:title></dc:title></cc:Work></rdf:RDF></metadata><defs
   id="defs13" /><sodipodi:namedview
   pagecolor="#ffffff"
   bordercolor="#666666"
   borderopacity="1"
   objecttolerance="10"
   gridtolerance="10"
   guidetolerance="10"
   inkscape:pageopacity="0"
   inkscape:pageshadow="2"
   inkscape:window-width="640"
   inkscape:window-height="480"
   id="namedview11"
   showgrid="false"
   fit-margin-top="0"
   fit-margin-left="0"
   fit-margin-right="0"
   fit-margin-bottom="0"
   inkscape:zoom="0.39645207"
   inkscape:cx="145.10501"
   inkscape:cy="195.99999"
   inkscape:window-x="1010"
   inkscape:window-y="161"
   inkscape:window-maximized="0"
   inkscape:current-layer="Calque_1" />
<style
   type="text/css"
   id="style2">
	.st0{fill:#115B91;}
</style>
<g
   id="g8"
   transform="translate(-275.84,-101.97634)">
	<g
   id="g6">
		<path
   class="st0"
   d="m 407.53,493.64 c -24.31,0 -47.93,0 -71.9,0 0,-59.45 0,-118.76 0,-178.49 -20.06,0 -39.79,0 -59.79,0 0,-23.32 0,-46.24 0,-69.58 19.8,0 39.53,0 59.66,0 0,-7.3 -0.06,-14.18 0.01,-21.05 0.14,-13.81 -0.12,-27.65 0.64,-41.43 0.92,-16.64 5.56,-32.35 15.11,-46.23 13.54,-19.69 32.9,-29.88 56.04,-33.42 17.57,-2.68 35.22,-1.03 52.83,-0.14 5.41,0.27 10.82,0.8 16.21,1.43 0.82,0.1 2.15,1.37 2.16,2.1 0.12,19.81 0.09,39.61 0.09,59.78 -1.43,0.08 -2.62,0.18 -3.82,0.2 -12.55,0.14 -25.11,0.25 -37.66,0.41 -1.69,0.02 -3.4,0.15 -5.07,0.38 -15.06,2.12 -22.9,8.81 -23.89,23.97 -1.16,17.78 -0.27,35.7 -0.27,53.9 22.45,0 45.03,0 68.27,0 -3.01,23.34 -5.96,46.26 -8.94,69.42 -19.9,0 -39.56,0 -59.67,0 -0.01,59.65 -0.01,119.04 -0.01,178.75 z"
   id="path4"
   inkscape:connector-curvature="0"
   style="fill:#115b91" />
	</g>
</g>
</svg>