<?xml version="1.0" encoding="UTF-8" standalone="no"?>
<!-- Generator: Adobe Illustrator 25.3.1, SVG Export Plug-In . SVG Version: 6.00 Build 0)  -->

<svg
   xmlns:dc="http://purl.org/dc/elements/1.1/"
   xmlns:cc="http://creativecommons.org/ns#"
   xmlns:rdf="http://www.w3.org/1999/02/22-rdf-syntax-ns#"
   xmlns:svg="http://www.w3.org/2000/svg"
   xmlns="http://www.w3.org/2000/svg"
   xmlns:sodipodi="http://sodipodi.sourceforge.net/DTD/sodipodi-0.dtd"
   xmlns:inkscape="http://www.inkscape.org/namespaces/inkscape"
   version="1.1"
   id="Calque_1"
   x="0px"
   y="0px"
   viewBox="0 0 202.99001 233.84845"
   xml:space="preserve"
   sodipodi:docname="picto-plus.svg"
   width="202.99001"
   height="233.84846"
   inkscape:version="0.92.5 (2060ec1f9f, 2020-04-08)"><metadata
   id="metadata13"><rdf:RDF><cc:Work
       rdf:about=""><dc:format>image/svg+xml</dc:format><dc:type
         rdf:resource="http://purl.org/dc/dcmitype/StillImage" /><dc:title></dc:title></cc:Work></rdf:RDF></metadata><defs
   id="defs11" /><sodipodi:namedview
   pagecolor="#ffffff"
   bordercolor="#666666"
   borderopacity="1"
   objecttolerance="10"
   gridtolerance="10"
   guidetolerance="10"
   inkscape:pageopacity="0"
   inkscape:pageshadow="2"
   inkscape:window-width="640"
   inkscape:window-height="480"
   id="namedview9"
   showgrid="false"
   fit-margin-top="0"
   fit-margin-left="0"
   fit-margin-right="0"
   fit-margin-bottom="0"
   inkscape:zoom="0.87443028"
   inkscape:cx="103.0472"
   inkscape:cy="112.38969"
   inkscape:window-x="72"
   inkscape:window-y="0"
   inkscape:window-maximized="0"
   inkscape:current-layer="Calque_1" />
<style
   type="text/css"
   id="style2">
	.st0{fill:#FDCF1D;}
	.st1{fill:#2F80C3;}
</style>
<path
   class="st0"
   d="m 202.97,116.46576 c 0,18.79 -0.01,37.57 0.02,56.36 0,0.87 -0.18,1.43 -0.99,1.89 -4.83,2.79 -9.63,5.63 -14.42,8.47 -4.21,2.5 -8.4,5.04 -12.61,7.54 -4.21,2.5 -8.45,4.96 -12.66,7.46 -4.21,2.5 -8.4,5.04 -12.61,7.54 -3.63,2.15 -7.29,4.26 -10.92,6.41 -3.63,2.15 -7.24,4.34 -10.87,6.49 -3.08,1.83 -6.18,3.63 -9.27,5.45 -3.02,1.78 -6.03,3.58 -9.04,5.37 -1.98,1.18 -3.95,2.38 -5.96,3.54 -0.61,0.35 -1.28,0.67 -1.96,0.82 -0.73,0.16 -1.34,-0.15 -2.03,-0.59 -2.85,-1.81 -5.83,-3.44 -8.76,-5.13 -3.17,-1.83 -6.35,-3.66 -9.52,-5.5 -3.17,-1.84 -6.33,-3.68 -9.5,-5.52 -3.2,-1.86 -6.4,-3.72 -9.61,-5.57 -3.14,-1.82 -6.27,-3.63 -9.41,-5.45 -3.2,-1.86 -6.4,-3.72 -9.61,-5.58 -3.1,-1.8 -6.21,-3.58 -9.3,-5.38 -3.79,-2.2 -7.57,-4.41 -11.35,-6.62 -3.68,-2.15 -7.36,-4.31 -11.03,-6.47 -3.67,-2.17 -7.34,-4.34 -10.98,-6.55 -0.27,-0.16 -0.41,-0.58 -0.53,-0.9 -0.08,-0.21 -0.02,-0.47 -0.02,-0.71 0,-37.93 0.01,-75.860003 -0.03,-113.800003 0,-1.15 0.43,-1.66 1.34,-2.18 3.33,-1.87 6.61,-3.83 9.92,-5.75 3.72,-2.15 7.46,-4.28 11.17,-6.44 3.65,-2.12 7.28,-4.27 10.92,-6.4 3.16,-1.85 6.34,-3.67 9.5,-5.52 3.16,-1.85 6.32,-3.71 9.48,-5.56 3.1,-1.81 6.2,-3.59 9.3,-5.4 3.2,-1.86 6.39,-3.74 9.6,-5.59 3.72,-2.16 7.45,-4.3 11.17,-6.46 3.07,-1.7800001 6.13,-3.5600001 9.19,-5.3500001 2.58,-1.51 5.14,-3.04 7.73,-4.53000002 0.58,-0.34 1.2,-0.71 1.84,-0.82 0.79,-0.13 1.48,0.1 2.27,0.6 3.46,2.19000002 7.06,4.17000002 10.61,6.24000002 3.71,2.17 7.41,4.3600001 11.13,6.5300001 3.65,2.13 7.3,4.24 10.95,6.36 3.79,2.2 7.57,4.42 11.35,6.62 3.68,2.14 7.37,4.28 11.06,6.42 3.17,1.84 6.32,3.71 9.48,5.55 3.1,1.81 6.2,3.6 9.29,5.41 3.2,1.86 6.39,3.74 9.59,5.6 3.06,1.78 6.13,3.57 9.19,5.34 2,1.16 3.98,2.34 6.01,3.45 0.69,0.38 0.88,0.83 0.88,1.59 -0.03,7.15 -0.02,14.31 -0.02,21.46 0.02,11.76 0.02,23.510003 0.02,35.260003 z m -26.22,0.68 c 0,-12.35 0,-24.700003 0,-37.050003 0,-0.56 0.1,-1.14 -0.04,-1.67 -0.11,-0.45 -0.4,-0.99 -0.77,-1.2 -2.55,-1.48 -5.15,-2.86 -7.71,-4.31 -5.61,-3.17 -11.2,-6.39 -16.82,-9.55 -5.62,-3.16 -11.27,-6.27 -16.89,-9.44 -5.62,-3.16 -11.21,-6.38 -16.82,-9.55 -5.13,-2.9 -10.28,-5.77 -15.43,-8.62 -0.36,-0.2 -0.98,-0.29 -1.3,-0.11 -2.41,1.31 -4.78,2.71 -7.16,4.07 -2.63,1.5 -5.26,2.99 -7.89,4.48 -2.6,1.47 -5.2,2.94 -7.79,4.42 -3.22,1.83 -6.42,3.68 -9.64,5.52 -3.25,1.86 -6.51,3.7 -9.76,5.56 -3.18,1.81 -6.36,3.63 -9.55,5.44 -3.81,2.17 -7.62,4.33 -11.42,6.49 -3.22,1.83 -6.41,3.7 -9.66,5.48 -1.05,0.58 -1.56,1.28 -1.44,2.48 0.06,0.59 0.02,1.2 0.02,1.8 -0.01,24.420003 -0.03,48.840003 0,73.270003 0,0.63 0.49,1.52 1.03,1.84 3.48,2.09 7.02,4.07 10.56,6.08 4.4,2.5 8.81,4.97 13.2,7.47 3.8,2.17 7.58,4.38 11.39,6.54 3.81,2.17 7.64,4.28 11.44,6.45 4.36,2.48 8.69,5.02 13.04,7.5 4.46,2.54 8.93,5.07 13.42,7.57 0.36,0.2 0.91,0.25 1.3,0.13 0.56,-0.16 1.06,-0.53 1.58,-0.83 6.2,-3.51 12.39,-7.04 18.6,-10.53 6.21,-3.49 12.46,-6.92 18.68,-10.39 5.95,-3.32 11.89,-6.64 17.82,-9.98 5.65,-3.18 11.28,-6.42 16.95,-9.57 0.79,-0.44 1.06,-0.89 1.06,-1.76 0,-12.69 0,-25.36 0,-38.03 z"
   id="path4"
   inkscape:connector-curvature="0"
   style="fill:#fdcf1d" />
<polygon
   class="st1"
   points="145,119.5 145,88 115,88 115,119.5 81.5,119.5 81.5,149.5 115,149.5 115,184 145,184 145,149.5 177.5,149.5 177.5,119.5 "
   id="polygon6"
   style="fill:#2f80c3"
   transform="translate(-28.38,-19.204243)" />
</svg>