<?xml version="1.0" encoding="utf-8"?>
<!-- Generator: Adobe Illustrator 25.3.1, SVG Export Plug-In . SVG Version: 6.00 Build 0)  -->
<svg version="1.1" id="Calque_1" xmlns="http://www.w3.org/2000/svg" xmlns:xlink="http://www.w3.org/1999/xlink" x="0px" y="0px"
	 viewBox="0 0 1920 1080" style="enable-background:new 0 0 1920 1080;" xml:space="preserve">
<style type="text/css">
	.st0{fill:#FFD002;}
	.st1{fill:#3280C2;stroke:#3280C2;stroke-width:0.8353;stroke-miterlimit:10;}
</style>
<g>
	<path class="st0" d="M505.25,826.81l-17.72-10.36l-45.85,26.77l0,1.96l-0.02-0.01l0.01,24.27l-0.01,24.27l0.02-0.01l0,1.96
		l10.87,6.45l34.98,20.32l45.85-27.27v-21.14v-28.85v-1.93L505.25,826.81z M521.66,887.43l-34.13,19.19L466,894.34l-12.47-7.14
		v-35.52l34-19.42l4.26,2.4l29.88,16.87v29.45V887.43z"/>
</g>
<g id="Speech_Bubble_1_" transform="translate(0 -30.602)">
	<g id="Groupe_43_1_" transform="translate(0 30.602)">
		<path id="Tracé_54_1_" class="st1" d="M504.44,890.52h3.38l-2.39-2.4c-1.29-1.29-2.1-2.99-2.31-4.8
			c5.53-3.63,8.27-8.9,8.27-14.42c0-10.18-9.34-20.53-23.96-20.53c-15.49,0-23.8,9.52-23.8,19.64c0,10.18,8.39,19.7,23.8,19.7
			c2.71,0,5.41-0.35,8.03-1.02C497.81,889.12,501.05,890.51,504.44,890.52z"/>
	</g>
</g>
</svg>
