<svg id="Groupe_804" data-name="Groupe 804" xmlns="http://www.w3.org/2000/svg" xmlns:xlink="http://www.w3.org/1999/xlink" width="588.683" height="100.661" viewBox="0 0 588.683 100.661">
  <defs>
    <clipPath id="clip-path">
      <rect id="Rectangle_914" data-name="Rectangle 914" width="588.683" height="100.661" fill="#fcf9da"/>
    </clipPath>
  </defs>
  <path id="Tracé_4061" data-name="Tracé 4061" d="M63.956,0,0,28.448,20.529,86.724,251.876,94.9,569.27,87.174l14.277-31.956L575.5,31.4,518.514,9.414,170.035,7.454Z" transform="translate(0 0)" fill="#fcf9da"/>
  <g id="Groupe_803" data-name="Groupe 803">
    <g id="Groupe_802" data-name="Groupe 802" clip-path="url(#clip-path)">
      <path id="Tracé_4062" data-name="Tracé 4062" d="M317.11,4.551c32.026-.043,66.06.071,100.985.254l106.923.676,59.365,22.9,9.434,27.844-16.2,36.338-47.367,1.348c-68.272,2.135-139.4,4.1-210.538,5.948L266.4,101.229c-8.87.456-17.727-.12-26.569-.377l-26.468-.92-104.2-3.662c.008-.475,11.4-.785.024-1.424-22.75-1.159-34.119-1.975-39.8-2.622s-5.669-1.12-5.659-1.595a4.873,4.873,0,0,1,1.447-.086c.911,0,2.2.022,3.712.06l10.487.34c7.11.251,12.8.452,7.121.014,34.122,1.2,91.039,2.976,56.887,1.3-11.37-.877-56.874-2.008-68.224-3.121C63.784,88.019,86.549,88.11,75.2,87l-45.51-1.607-.507-.041-.235-.02-.142-.016-.474-.065a4.576,4.576,0,0,1-.6-.125c-.263-.081-.271-.157-.138-.23a3.224,3.224,0,0,1,.723-.212l.5-.1.128-.024.246-.02.532-.037c2.848-.2,5.691-.334,0-.534l-.829-.042-.37-.026-.763-.051-.413-1.259-1.1-3.192-2.367-6.847L18.912,58.26,9.5,31.441,70.309,4.368c.138.445,10.97-3.86-10.3,5.841L10.828,32.129q8.881,25.081,17.785,50.232L162.542,86.9l68.568,2.322,17.159.581,8.582.291c2.861-.009,5.724-.129,8.586-.188l34.36-.884,272.433-6.949,11.816-26.463-6.325-18.65L523.6,16.14,306.09,14.931l-108.649-.693-13.551-.091-6.773-.046-1.693-.012c-.564-.019-1.128-.075-1.692-.11l-3.382-.241L143.31,11.805,89.326,7.932c-45.48-3.428-11.3-1.981,22.828-.3C100.785,7.072,100.815,6.36,89.422,5.8c.008-.177,1.438-.286,4.291-.3s7.124.062,12.817.253c11.385.383,28.447,1.223,51.182,2.7l-34.1-2.392c-11.357-1.034.027-.711.044-1.185l15.63,1.067c2.13.135,3.906.237,5.148.291a8.72,8.72,0,0,0,1.956,0c.008-.237.023-.712.031-.948L101,2.093l15.61,1.066c2.129.134,3.905.237,5.149.291a8.759,8.759,0,0,0,1.957,0c.009-.237.027-.712.036-.95,11.362.679,25.552,1.734,39.745,2.789l10.6.786,1.312.1,1.31.016,2.6.021,5.129.038c6.757.046,13.161.066,18.855.039l.017-.711c-5.691-.091-12.093-.157-18.85-.206l-5.129-.034-2.6-.015-1.31-.011-1.312-.091-10.6-.729-39.742-2.7c11.376.56,11.384.323,11.4-.152q12.77.807,25.538,1.755l12.768.941c2.126.221,4.262.152,6.394.194l6.4.06c17.062.156,34.125.251,51.19-.009l-34.113-.192c22.773-1.059,79.618.21,113.759.164" transform="translate(-5.134 -0.738)" fill="#fcf9da"/>
    </g>
  </g>
</svg>
