<?xml version="1.0" encoding="UTF-8" standalone="no"?>
<!-- Generator: Adobe Illustrator 25.3.1, SVG Export Plug-In . SVG Version: 6.00 Build 0)  -->

<svg
   xmlns:dc="http://purl.org/dc/elements/1.1/"
   xmlns:cc="http://creativecommons.org/ns#"
   xmlns:rdf="http://www.w3.org/1999/02/22-rdf-syntax-ns#"
   xmlns:svg="http://www.w3.org/2000/svg"
   xmlns="http://www.w3.org/2000/svg"
   xmlns:sodipodi="http://sodipodi.sourceforge.net/DTD/sodipodi-0.dtd"
   xmlns:inkscape="http://www.inkscape.org/namespaces/inkscape"
   version="1.1"
   id="Calque_1"
   x="0px"
   y="0px"
   viewBox="0 0 349.92002 285.46516"
   xml:space="preserve"
   sodipodi:docname="twiter-logo.svg"
   width="349.92001"
   height="285.46515"
   inkscape:version="0.92.5 (2060ec1f9f, 2020-04-08)"><metadata
   id="metadata11"><rdf:RDF><cc:Work
       rdf:about=""><dc:format>image/svg+xml</dc:format><dc:type
         rdf:resource="http://purl.org/dc/dcmitype/StillImage" /><dc:title></dc:title></cc:Work></rdf:RDF></metadata><defs
   id="defs9" /><sodipodi:namedview
   pagecolor="#ffffff"
   bordercolor="#666666"
   borderopacity="1"
   objecttolerance="10"
   gridtolerance="10"
   guidetolerance="10"
   inkscape:pageopacity="0"
   inkscape:pageshadow="2"
   inkscape:window-width="640"
   inkscape:window-height="480"
   id="namedview7"
   showgrid="false"
   fit-margin-top="0"
   fit-margin-left="0"
   fit-margin-right="0"
   fit-margin-bottom="0"
   inkscape:zoom="0.75214332"
   inkscape:cx="166.105"
   inkscape:cy="135.94144"
   inkscape:window-x="72"
   inkscape:window-y="0"
   inkscape:window-maximized="0"
   inkscape:current-layer="Calque_1" />
<style
   type="text/css"
   id="style2">
	.st0{fill:#115B91;}
</style>
<path
   class="st0"
   d="m 104.59,224.10871 c -32.76,-3.54 -54.69,-20.09 -66.93,-51.19 11.13,2.12 21.26,1.67 32,-1.04 -20.36,-5.13 -35.79,-16.05 -46.53,-33.42 -6.76,-10.93 -10.84,-25.85 -10.12,-38.07 9.84,4.98 19.97,8.28 31.87,8.71 C 29.25,97.638707 19.21,83.358707 15.21,65.228707 c -4,-18.12 -1.39,-35.34 7.91,-52.02 38.96,45.86 88.2,71.06 148.32,75.26 -0.44,-4.1 -0.94,-7.89 -1.25,-11.7 -2.98,-37.69 25.07,-71.5600004 62.4,-76.14000037 22.96,-2.82000003 42.88,3.85999997 59.64,19.77000037 1.8,1.71 3.32,2.1 5.7,1.54 13.52,-3.17 26.42,-7.9 38.57,-14.6500004 1.07,-0.6 2.18,-1.13 3.37,-1.76 -1.45,10.6700004 -11.74,24.2900004 -28.94,39.1900004 4.25,-0.77 8.54,-1.39 12.74,-2.37 4.43,-1.04 8.82,-2.32 13.16,-3.7 4.18,-1.34 8.27,-2.94 12.4,-4.43 0.23,0.27 0.46,0.54 0.69,0.81 -5.68,6.67 -11.06,13.64 -17.14,19.93 -4.98,5.16 -10.73,9.59 -16.28,14.18 -1.57,1.3 -2.24,2.53 -2.2,4.58 0.96,50.030003 -13.99,94.950003 -44.35,134.570003 -28.43,37.1 -65.66,60.99 -111.2,71.65 -23.45,5.49 -47.17,6.82 -71.17,4.3 -30.6,-3.22 -58.92,-12.93 -85.14,-28.92 -0.83,-0.51 -1.65,-1.05 -2.44,-1.89 29.93,2.51 58.26,-2.7 84.7,-16.9 6.88,-3.72 13.27,-8.27 19.89,-12.42 z"
   id="path4"
   inkscape:connector-curvature="0"
   style="fill:#115b91" />
</svg>