<svg id="presentation" xmlns="http://www.w3.org/2000/svg" xmlns:xlink="http://www.w3.org/1999/xlink" width="1139.001" height="343.735" viewBox="0 0 1139.001 343.735">
  <defs>
    <clipPath id="clip-path">
      <rect id="Rectangle_15" data-name="Rectangle 15" width="1139.001" height="343.735" fill="none"/>
    </clipPath>
  </defs>
  <g id="Groupe_28" data-name="Groupe 28" clip-path="url(#clip-path)">
    <path id="Tracé_4247" data-name="Tracé 4247" d="M174.745,23.957,140.976,188.918,132.7,229.359c-2.619,12.8-4.851,25.749-8.074,38.41-2.792,10.946-7.015,22-15.675,29.674-8.909,7.891-21.01,11.221-32.62,12.376A105.167,105.167,0,0,1,1.438,287.8c-.817-.645-1.979.5-1.155,1.155a107.117,107.117,0,0,0,65.308,22.993c11.21.078,22.827-1.438,33.119-6.076a44.514,44.514,0,0,0,22.476-22.827c4.86-10.767,6.812-22.6,9.166-34.091q4.357-21.283,8.712-42.571,8.77-42.834,17.538-85.673,9.859-48.156,19.715-96.316c.211-1.026-1.364-1.464-1.573-.434" transform="translate(0.001 27.557)" fill="#00badf"/>
    <path id="Tracé_4248" data-name="Tracé 4248" d="M82.149,96.687C65.707,93.5,54.687,77.046,54.517,60.835c-.19-18.1,11.661-34.462,26.142-44.292A87.451,87.451,0,0,1,129.1,1.639,73.641,73.641,0,0,1,153.71,5.668c7.756,2.731,14.4,7.069,20.833,12.1,9.739,7.6,18.362,16.211,24.834,26.806,8.348,13.67,13.982,29.2,18.65,44.458,5.577,18.233,8.725,37.611,4.234,56.428-3.556,14.893-10.865,28.587-22.005,39.178-26.8,25.483-66.764,31.2-101.014,19.19a113.429,113.429,0,0,1-13.291-5.666c-.939-.471-1.767.939-.826,1.412a110.947,110.947,0,0,0,57.16,11.853,98.053,98.053,0,0,0,50.9-18.78A78.956,78.956,0,0,0,220.6,156.558c6.973-18.654,6.507-38.2,1.909-57.365a213.914,213.914,0,0,0-18.334-49.474,98.183,98.183,0,0,0-24.59-29.988c-5.912-4.894-12.038-9.684-19-12.988A71.061,71.061,0,0,0,136.37.316a88.591,88.591,0,0,0-51.052,11.4C70.053,20.417,56.93,34.8,53.646,52.51c-2.9,15.64,3.519,32.873,17.235,41.5a31.546,31.546,0,0,0,10.835,4.256c1.026.2,1.467-1.375.434-1.576" transform="translate(62.451 0)" fill="#00badf"/>
    <path id="Tracé_4249" data-name="Tracé 4249" d="M57.992,185.9c15.939-9.384,31.3-20.1,43-34.6,2.16-2.678,4.2-5.446,6.169-8.268,2.218-3.186,4.029-6.056,3.517-10.131-.965-7.712-10.763-9.843-15.686-4.4-2.358,2.606-3.646,6.084-1.6,9.279,2.105,3.286,6.455,5.2,10.175,5.749,10.964,1.628,20.057-6.167,29.41-10.425a34.21,34.21,0,0,1,12.042-3.214c4.55-.288,10.255-.264,12.308,4.718,1.229,2.981.314,7.085-.031,10.159-.577,5.169-1.233,10.332-1.377,15.538-.227,8.176-.02,21.411,8.863,25.381,4.531,2.024,9.676.662,14.117-.915,5.348-1.9,10.576-4.188,15.742-6.529,5.614-2.541,11.157-5.232,16.662-8,4.683-2.351,9.6-4.526,13.851-7.618a37.34,37.34,0,0,0,13.694-17.983c1.423-4.291,2.29-10.395-1.183-14.006-4.154-4.317-10.168-.593-13.515,2.844a31.484,31.484,0,0,0-8.867,20.434c-.2,8.649,5.825,16.762,12.06,22.213,7.281,6.365,15.782,9.386,25.276,10.447,11.242,1.257,23.056.9,33.647-3.443,16.549-6.775,30.378-19.064,40.679-33.5a146.419,146.419,0,0,0,9.089-14.622l-1.118.294q8.878,3.785,17.917,7.161c6.073,2.264,12.018,4.369,17.362,8.139,4.86,3.43,10.767,7.854,12.853,13.642,2.515,6.971-1.643,13.066-8.431,15.082s-14.574,1.826-21.5.752c-3.009-.466-6.527-.928-9.2-2.478-5.263-3.049-.861-7.719,2.883-9.259,13.544-5.579,28.656,1.406,41.6,5.407,10.9,3.371,25.052,6.4,35.074-.981,6.381-4.7,11-13.616,8.819-21.6a12.148,12.148,0,0,0-7.091-8.259c-3.275-1.22-7.788-.872-9.371,2.728-1.926,4.389,1.608,10.654,3.87,14.319a39.593,39.593,0,0,0,10.314,11.1,37.3,37.3,0,0,0,33.165,5.792,39.4,39.4,0,0,0,24.862-23.189l-1.495.2q6.087,11.375,12.173,22.755a.822.822,0,0,0,1.521-.414c-.516-6.514,3.763-12.16,9.5-14.858a15.274,15.274,0,0,1,9.506-1.294c3.818.793,6.734,3.509,9.362,6.224,4.568,4.72,9.015,8.723,15.32,10.944a36.547,36.547,0,0,0,18.168,1.46,33.4,33.4,0,0,0,18.022-9.146.817.817,0,0,0-1.155-1.155c-10.157,10.085-26.944,12.055-39.389,5.1-6.566-3.668-10.347-11.088-17.224-14.128-4.927-2.179-10.678-1.212-15.185,1.525-5.328,3.238-9.063,8.963-8.56,15.326l1.523-.412-12.171-22.755a.827.827,0,0,0-1.493.2A37.7,37.7,0,0,1,462,175.5a35.829,35.829,0,0,1-32.237-6.677,37.291,37.291,0,0,1-10.515-13.108c-1.209-2.545-3.1-6.538-1.92-9.316,1.231-2.907,4.888-2.909,7.438-1.911,4.825,1.885,6.8,7.459,6.337,12.267a21.249,21.249,0,0,1-6.141,12.574c-9.569,9.676-25.093,6.294-36.6,2.7-11.988-3.744-24.581-9.2-37.4-6.592-4.045.822-9.924,2.733-11.02,7.383-1.135,4.833,4.117,6.956,7.847,7.865a61.159,61.159,0,0,0,19.057,1.549c5.252-.4,11.208-1.247,15.084-5.18a12.651,12.651,0,0,0,2.423-13.951c-2.157-5.267-6.963-9.07-11.356-12.448a59.978,59.978,0,0,0-16.512-8.577c-6.982-2.556-13.9-5.267-20.742-8.185a.836.836,0,0,0-1.118.294c-8.632,15.734-19.861,30.1-35.039,39.982-6.945,4.52-14.511,8.405-22.67,10.1a76.016,76.016,0,0,1-31.067-.349,40.517,40.517,0,0,1-22.138-13.875c-5.457-6.649-8.2-14.06-5.747-22.522,1.837-6.331,6.226-14.285,12.79-16.727,5.509-2.048,7.91,3.293,7.645,7.928-.37,6.463-4.016,12.679-8.3,17.344-6.28,6.843-14.984,10.493-23.16,14.533-9.41,4.648-18.976,9.288-28.9,12.744-4.853,1.691-10.955,3.116-15.134-.843-3.77-3.572-4.7-9.347-5.143-14.272-.817-9.044.771-17.911,1.519-26.887.192-2.31.471-4.934-.37-7.156a9.206,9.206,0,0,0-6.538-5.587c-6-1.443-12.973.041-18.549,2.364-8.941,3.726-17.074,11.009-27.181,11.142-4.245.057-11.787-1.979-12.6-7.076-.8-5.051,5.141-8.771,9.588-7.825,5.125,1.092,6.832,7.05,4.537,11.41a61.931,61.931,0,0,1-5.271,7.568c-8.869,11.957-19.972,21.639-32.3,29.914-4.385,2.944-8.878,5.716-13.43,8.394a.818.818,0,0,0,.826,1.412" transform="translate(66.947 147.952)" fill="#00badf"/>
    <path id="Tracé_4250" data-name="Tracé 4250" d="M129.45,134.634A38.523,38.523,0,0,0,155.716,102.4c.109-1.044-1.525-1.037-1.634,0a36.821,36.821,0,0,1-25.067,30.663c-1,.316-.573,1.894.436,1.576" transform="translate(151.461 119.824)" fill="#00badf"/>
    <path id="Tracé_4251" data-name="Tracé 4251" d="M299.227,211.738a315.9,315.9,0,0,0,40.753-95.715q3.413-14.17,5.45-28.624c.142-1.011-1.273-1.475-1.578-.436-7.584,26.017-14.012,52.693-17.024,79.663-1.573,14.115-3.14,28.271-1,42.414,1.534,10.166,6.429,21.012,18.292,20.622,14.075-.464,25.492-9.647,35.643-18.41.8-.689-.362-1.839-1.155-1.155-9.488,8.189-19.515,16.191-32.392,17.765-4.982.608-9.663-.5-13.086-4.348-4.43-4.975-5.463-11.972-6.18-18.353-1.475-13.127.116-26.362,1.617-39.413,1.436-12.478,3.713-24.86,6.368-37.129,3-13.862,6.531-27.608,10.5-41.219l-1.578-.436A311.734,311.734,0,0,1,312.786,184.8q-6.848,13.412-14.973,26.113c-.567.891.85,1.711,1.414.826" transform="translate(351.024 101.855)" fill="#00badf"/>
    <path id="Tracé_4252" data-name="Tracé 4252" d="M380.486,179.587c-10.981-.909-23.376-1.349-33,4.969-6.893,4.526-11.733,13.33-10.4,21.676,1.53,9.586,11.4,14.171,20.234,14.59,9.033.427,17.928-3.38,24.586-9.351,7.651-6.858,12.474-16.751,11.766-27.131a.818.818,0,0,0-1.634,0,72.627,72.627,0,0,0,.27,13.1c.6,4.241,2.242,8.141,3.785,12.105,2.364,6.082,5.228,13.282,11.619,16.087,12.132,5.319,23.171-3.223,30.587-12.166,8.9-10.735,14.956-23.681,20.12-36.541a280.082,280.082,0,0,0,12.221-40.333,398.844,398.844,0,0,0,8.15-43.248c.111-.911-1.423-1.116-1.606-.218-5.6,27.615-13.768,54.8-16.629,82.918-1.236,12.151-2.04,25.972,2.325,37.632,2.009,5.367,5.513,10.218,10.809,12.711,5.106,2.406,11.044,2.26,16.331.532,7.226-2.364,12.572-7.468,17.248-13.28a72.66,72.66,0,0,0,11.794-21.007c.312-.863-1.1-1.471-1.493-.63-4.864,10.425-3.663,27.225,8.386,32.165,11.325,4.644,26.05.536,32.25-10.218a.817.817,0,0,0-1.41-.826c-5.692,9.872-18.88,13.589-29.4,9.856-11.717-4.162-13.027-20.273-8.418-30.153-.5-.209-1-.418-1.493-.63a70.246,70.246,0,0,1-10.8,19.571c-3.951,5.04-8.427,9.822-14.346,12.506-5.76,2.611-12.744,3.36-18.51.364-5.672-2.951-8.815-8.736-10.421-14.7-3.07-11.408-2.319-23.947-1.037-35.564a371.1,371.1,0,0,1,7.156-39.964c3.038-13.624,6.464-27.164,9.238-40.847l-1.606-.216c-1.421,11.724-3.766,23.365-6.291,34.893a340.107,340.107,0,0,1-10.526,39.023,180.207,180.207,0,0,1-16.054,34.93,73.5,73.5,0,0,1-12.339,15.66c-4.31,4-9.381,7.531-15.437,7.712-4.021.122-8.4-.765-11.454-3.552-2.99-2.731-4.816-6.664-6.357-10.336a75.794,75.794,0,0,1-4.289-11.772c-1.181-5.088-.948-10.382-.739-15.559h-1.634c1.144,16.778-12.818,32.165-29.145,34.573-8.556,1.264-20.373-1.369-23.581-10.495-2.809-7.989,1.824-17.386,8.409-22.047,9.355-6.625,21.9-6.049,32.766-5.149,1.048.087,1.042-1.547,0-1.634" transform="translate(397.228 109.128)" fill="#00badf"/>
    <path id="Tracé_4253" data-name="Tracé 4253" d="M470.991,135.181c-8.821-.564-18.883-1.179-26.525,4.125-5.762,4-9.928,11.3-7.414,18.34,2.214,6.2,8.527,9.423,14.535,10.955,7.226,1.841,15.984,2.43,23.132.037a16.707,16.707,0,0,0,11.7-16.259,16.372,16.372,0,0,0-12.476-15.093c-2.67-.645-6.063-.634-8.1,1.519-1.8,1.909-1.07,4.426.883,5.893,3,2.249,7.488,3.2,11.107,3.753a39.361,39.361,0,0,0,11.927-.011,38.024,38.024,0,0,0,13.413-4.716c4.127-2.415,7.743-5.936,12.441-7.281,3.051-.874,5.788-.309,7.161,2.8,1.124,2.552,1.249,5.749,1.711,8.481q1.592,9.4,3.186,18.806a.825.825,0,0,0,1.493.2,81.923,81.923,0,0,1,8.1-11.8q2.1-2.527,4.393-4.879c1.63-1.669,3.589-4,5.98-4.493,4.707-.974,7,5.646,9.194,8.645a38.448,38.448,0,0,0,48.836,11.229,38.982,38.982,0,0,0,16.917-18.035c.434-.95-.976-1.78-1.412-.824-6.88,15.111-23.753,24.464-40.213,21.134a37.937,37.937,0,0,1-21.071-12.271c-3.419-3.962-6.7-13.9-13.624-11.136-4.09,1.632-7.435,6.193-10.155,9.475a84.185,84.185,0,0,0-8.353,12.134l1.493.2c-1.443-8.514-2.338-17.362-4.4-25.749-1.406-5.731-6.239-6.956-11.308-4.894a42.862,42.862,0,0,0-8.335,4.988,36.84,36.84,0,0,1-31.932,5.306,20.614,20.614,0,0,1-5.115-2.059c-3.108-1.97-1.155-4.541,1.567-5.058,3.768-.715,8.026,1.491,10.663,4.027a14.613,14.613,0,0,1,.116,20.665c-5.241,5.254-13.513,5.4-20.445,4.938-6.174-.412-13.21-1.785-17.963-6.047-6.721-6.03-4.358-15.422,2.064-20.654,7.418-6.045,17.867-5.322,26.822-4.748,1.05.068,1.046-1.567,0-1.634" transform="translate(514.486 158.628)" fill="#00badf"/>
    <path id="Tracé_4254" data-name="Tracé 4254" d="M306.164,104.9c11.221,3.461,22.975,4,34.636,3.415,11.441-.571,23.529-1.144,34.656-4.027a.818.818,0,0,0-.436-1.576c-10.974,2.844-22.925,3.4-34.22,3.968-11.521.575-23.112.065-34.2-3.356-1.007-.312-1.438,1.266-.434,1.576" transform="translate(360.353 121.079)" fill="#00badf"/>
    <path id="Tracé_4255" data-name="Tracé 4255" d="M387.887,104.9c11.219,3.461,22.975,4,34.634,3.415,11.441-.571,23.529-1.144,34.658-4.027a.818.818,0,0,0-.438-1.576c-10.974,2.844-22.923,3.4-34.22,3.968-11.519.575-23.11.065-34.2-3.356-1-.312-1.438,1.266-.431,1.576" transform="translate(456.718 121.079)" fill="#00badf"/>
    <path id="Tracé_4256" data-name="Tracé 4256" d="M424.758,124.864q.853-1.441,1.708-2.883a.816.816,0,1,0-1.41-.824l-1.711,2.881a.818.818,0,1,0,1.412.826" transform="translate(499.08 142.399)" fill="#00badf"/>
    <path id="Tracé_4257" data-name="Tracé 4257" d="M175.589,25.9,141.823,190.859q-4.142,20.221-8.279,40.441c-2.619,12.8-4.853,25.749-8.076,38.41-2.789,10.946-7.013,22-15.673,29.674-8.911,7.891-21.012,11.221-32.623,12.376A105.159,105.159,0,0,1,2.285,289.738c-.817-.645-1.981.5-1.157,1.155a107.128,107.128,0,0,0,65.31,22.993c11.21.078,22.825-1.438,33.117-6.076a44.51,44.51,0,0,0,22.478-22.827c4.86-10.767,6.812-22.6,9.166-34.091q4.357-21.283,8.712-42.571,8.77-42.834,17.538-85.673,9.859-48.156,19.715-96.316c.211-1.026-1.364-1.464-1.576-.434" transform="translate(0.997 29.845)" fill="#00badf"/>
    <path id="Tracé_4258" data-name="Tracé 4258" d="M83,98.628C66.553,95.44,55.533,78.987,55.363,62.776c-.19-18.1,11.661-34.462,26.142-44.292a87.451,87.451,0,0,1,48.437-14.9,73.641,73.641,0,0,1,24.614,4.029c7.756,2.731,14.4,7.069,20.833,12.1,9.739,7.605,18.362,16.211,24.834,26.806,8.348,13.67,13.982,29.2,18.65,44.458,5.577,18.233,8.726,37.611,4.234,56.428-3.556,14.893-10.865,28.587-22.005,39.178-26.8,25.483-66.764,31.2-101.014,19.19A113.436,113.436,0,0,1,86.8,200.1c-.939-.471-1.767.939-.826,1.412a110.947,110.947,0,0,0,57.16,11.853,98.053,98.053,0,0,0,50.9-18.78A78.956,78.956,0,0,0,221.446,158.5c6.973-18.654,6.507-38.2,1.909-57.365A213.913,213.913,0,0,0,205.021,51.66a98.183,98.183,0,0,0-24.59-29.988c-5.912-4.894-12.038-9.684-19-12.988a71.061,71.061,0,0,0-24.211-6.426,88.591,88.591,0,0,0-51.052,11.4c-15.265,8.7-28.388,23.08-31.672,40.794-2.9,15.64,3.519,32.873,17.235,41.5A31.546,31.546,0,0,0,82.562,100.2c1.026.2,1.467-1.375.434-1.576" transform="translate(63.449 2.289)" fill="#00badf"/>
    <path id="Tracé_4259" data-name="Tracé 4259" d="M58.838,187.845c15.939-9.384,31.3-20.1,43-34.6,2.16-2.678,4.2-5.446,6.169-8.268,2.218-3.186,4.029-6.056,3.517-10.131-.965-7.712-10.763-9.843-15.686-4.4-2.358,2.606-3.646,6.084-1.6,9.279,2.105,3.286,6.455,5.2,10.175,5.749,10.964,1.628,20.057-6.167,29.41-10.425a34.211,34.211,0,0,1,12.042-3.214c4.55-.288,10.255-.264,12.308,4.718,1.229,2.981.314,7.085-.031,10.159-.577,5.169-1.233,10.332-1.377,15.538-.227,8.176-.02,21.411,8.863,25.381,4.531,2.024,9.676.662,14.117-.915,5.348-1.9,10.576-4.188,15.742-6.529,5.614-2.541,11.157-5.232,16.662-8,4.683-2.351,9.6-4.526,13.851-7.618a37.34,37.34,0,0,0,13.694-17.983c1.423-4.291,2.29-10.395-1.183-14.006-4.154-4.317-10.168-.593-13.515,2.844a31.484,31.484,0,0,0-8.867,20.434c-.2,8.649,5.825,16.762,12.06,22.212,7.281,6.365,15.782,9.386,25.276,10.447,11.242,1.257,23.056.9,33.647-3.443,16.549-6.775,30.378-19.066,40.679-33.5a146.406,146.406,0,0,0,9.089-14.622l-1.118.294q8.878,3.785,17.917,7.161c6.073,2.264,12.018,4.369,17.362,8.139,4.86,3.43,10.767,7.854,12.853,13.642,2.515,6.971-1.643,13.066-8.431,15.082s-14.574,1.826-21.5.752c-3.009-.469-6.527-.928-9.2-2.478-5.263-3.049-.861-7.719,2.883-9.259,13.544-5.579,28.656,1.406,41.6,5.407,10.9,3.371,25.052,6.4,35.074-.981,6.381-4.7,11-13.616,8.819-21.6a12.148,12.148,0,0,0-7.091-8.259c-3.275-1.22-7.788-.872-9.371,2.728-1.926,4.389,1.608,10.654,3.87,14.319A39.592,39.592,0,0,0,430.857,173a37.3,37.3,0,0,0,33.165,5.792A39.4,39.4,0,0,0,488.885,155.6l-1.495.2q6.086,11.375,12.173,22.755a.822.822,0,0,0,1.521-.414c-.516-6.514,3.763-12.16,9.5-14.858a15.274,15.274,0,0,1,9.506-1.294c3.818.793,6.734,3.509,9.362,6.224,4.565,4.72,9.015,8.723,15.32,10.944a36.547,36.547,0,0,0,18.168,1.46,33.4,33.4,0,0,0,18.022-9.146.817.817,0,0,0-1.155-1.155c-10.157,10.085-26.941,12.055-39.389,5.1-6.566-3.668-10.347-11.088-17.224-14.128-4.927-2.179-10.678-1.212-15.185,1.525-5.328,3.238-9.063,8.963-8.56,15.326l1.523-.412L488.8,154.972a.827.827,0,0,0-1.493.2,37.708,37.708,0,0,1-24.466,22.274,35.829,35.829,0,0,1-32.237-6.677,37.29,37.29,0,0,1-10.515-13.108c-1.209-2.545-3.1-6.538-1.92-9.316,1.231-2.907,4.888-2.909,7.438-1.911,4.825,1.885,6.8,7.459,6.337,12.267a21.249,21.249,0,0,1-6.141,12.574c-9.569,9.676-25.093,6.294-36.6,2.7-11.988-3.744-24.581-9.2-37.4-6.592-4.045.822-9.924,2.733-11.02,7.383-1.135,4.833,4.116,6.956,7.847,7.865a61.159,61.159,0,0,0,19.057,1.549c5.252-.4,11.208-1.247,15.084-5.18a12.651,12.651,0,0,0,2.423-13.951c-2.157-5.267-6.963-9.07-11.356-12.448a59.977,59.977,0,0,0-16.512-8.577c-6.982-2.556-13.9-5.267-20.742-8.185a.836.836,0,0,0-1.118.294c-8.632,15.734-19.861,30.1-35.039,39.982-6.945,4.52-14.511,8.405-22.67,10.1a76.016,76.016,0,0,1-31.067-.349,40.517,40.517,0,0,1-22.138-13.875c-5.457-6.649-8.2-14.06-5.747-22.522,1.837-6.331,6.226-14.285,12.79-16.728,5.509-2.048,7.91,3.293,7.645,7.928-.37,6.464-4.016,12.679-8.3,17.344-6.28,6.843-14.984,10.493-23.16,14.533-9.41,4.648-18.976,9.288-28.9,12.744-4.853,1.691-10.955,3.114-15.134-.843-3.77-3.572-4.7-9.347-5.143-14.272-.817-9.044.771-17.911,1.519-26.887.192-2.31.471-4.934-.37-7.156a9.206,9.206,0,0,0-6.538-5.587c-6-1.443-12.973.041-18.549,2.364-8.941,3.726-17.074,11.009-27.181,11.142-4.245.057-11.787-1.979-12.6-7.076-.8-5.054,5.141-8.771,9.588-7.826,5.125,1.092,6.832,7.05,4.537,11.41a61.929,61.929,0,0,1-5.271,7.568c-8.869,11.957-19.972,21.639-32.3,29.914-4.385,2.944-8.88,5.716-13.43,8.394a.818.818,0,0,0,.826,1.412" transform="translate(67.945 150.241)" fill="#00badf"/>
    <path id="Tracé_4260" data-name="Tracé 4260" d="M130.294,136.575a38.522,38.522,0,0,0,26.268-32.239c.109-1.044-1.525-1.037-1.634,0A36.824,36.824,0,0,1,129.86,135c-1,.316-.573,1.894.434,1.576" transform="translate(152.459 122.112)" fill="#00badf"/>
    <path id="Tracé_4261" data-name="Tracé 4261" d="M300.073,213.678a315.97,315.97,0,0,0,40.755-95.712q3.409-14.173,5.448-28.626c.142-1.011-1.273-1.475-1.578-.436-7.581,26.02-14.012,52.693-17.022,79.665-1.576,14.112-3.142,28.268-1,42.411,1.532,10.166,6.426,21.014,18.29,20.624,14.078-.464,25.492-9.649,35.645-18.412.8-.689-.364-1.839-1.155-1.155-9.488,8.189-19.517,16.191-32.394,17.765-4.982.608-9.66-.5-13.086-4.348-4.43-4.975-5.463-11.972-6.18-18.353-1.475-13.125.116-26.362,1.617-39.413,1.436-12.478,3.715-24.858,6.368-37.129,3-13.862,6.531-27.606,10.5-41.219L344.7,88.9a311.64,311.64,0,0,1-31.064,97.835q-6.848,13.412-14.973,26.113c-.569.891.848,1.711,1.412.826" transform="translate(352.023 104.142)" fill="#00badf"/>
    <path id="Tracé_4262" data-name="Tracé 4262" d="M381.332,181.528c-10.981-.909-23.376-1.349-33,4.969-6.893,4.526-11.733,13.33-10.4,21.676,1.53,9.586,11.395,14.171,20.234,14.59,9.033.427,17.928-3.38,24.586-9.351,7.651-6.858,12.474-16.751,11.766-27.131a.818.818,0,0,0-1.634,0,72.628,72.628,0,0,0,.27,13.1c.6,4.241,2.242,8.141,3.785,12.105,2.364,6.082,5.228,13.282,11.619,16.087,12.132,5.319,23.171-3.223,30.587-12.166,8.9-10.735,14.956-23.681,20.121-36.541a280.073,280.073,0,0,0,12.221-40.333,398.858,398.858,0,0,0,8.15-43.248c.111-.911-1.423-1.116-1.606-.218-5.6,27.615-13.768,54.8-16.629,82.918-1.236,12.151-2.04,25.972,2.325,37.633,2.009,5.367,5.513,10.218,10.809,12.711,5.106,2.406,11.044,2.26,16.331.532,7.226-2.364,12.572-7.468,17.248-13.28a72.664,72.664,0,0,0,11.794-21.007c.312-.863-1.1-1.471-1.493-.63-4.864,10.425-3.663,27.225,8.385,32.165,11.325,4.644,26.05.536,32.25-10.218a.817.817,0,0,0-1.41-.826c-5.692,9.872-18.881,13.589-29.4,9.854-11.718-4.16-13.027-20.271-8.418-30.151-.5-.209-1-.418-1.493-.63a70.245,70.245,0,0,1-10.8,19.571c-3.951,5.04-8.425,9.822-14.346,12.506-5.76,2.611-12.744,3.36-18.51.364-5.672-2.951-8.815-8.736-10.421-14.7-3.071-11.408-2.319-23.947-1.037-35.564a371.083,371.083,0,0,1,7.156-39.964c3.038-13.624,6.464-27.164,9.238-40.847L478,95.282c-1.421,11.724-3.766,23.365-6.291,34.893A340.118,340.118,0,0,1,461.185,169.2a180.2,180.2,0,0,1-16.054,34.93,73.5,73.5,0,0,1-12.339,15.66c-4.31,4-9.381,7.531-15.437,7.712-4.021.122-8.4-.765-11.454-3.552-2.99-2.73-4.816-6.664-6.357-10.336a75.8,75.8,0,0,1-4.289-11.772c-1.181-5.088-.948-10.384-.739-15.559h-1.634c1.144,16.778-12.818,32.165-29.142,34.573-8.558,1.264-20.375-1.369-23.583-10.495-2.809-7.989,1.824-17.386,8.409-22.047,9.355-6.625,21.9-6.049,32.766-5.149,1.048.087,1.042-1.547,0-1.634" transform="translate(398.226 111.417)" fill="#00badf"/>
    <path id="Tracé_4263" data-name="Tracé 4263" d="M471.837,137.122c-8.821-.564-18.883-1.179-26.525,4.125-5.762,4-9.928,11.3-7.414,18.34,2.214,6.2,8.527,9.423,14.535,10.955,7.226,1.841,15.984,2.43,23.132.037a16.707,16.707,0,0,0,11.7-16.259,16.372,16.372,0,0,0-12.476-15.093c-2.67-.645-6.063-.634-8.1,1.519-1.8,1.909-1.07,4.426.883,5.893,3,2.249,7.488,3.2,11.107,3.753a39.361,39.361,0,0,0,11.927-.011,38.025,38.025,0,0,0,13.413-4.716c4.127-2.415,7.743-5.936,12.441-7.281,3.051-.874,5.788-.309,7.161,2.8,1.124,2.552,1.249,5.749,1.711,8.481q1.6,9.4,3.186,18.806a.825.825,0,0,0,1.493.2,81.933,81.933,0,0,1,8.1-11.8q2.1-2.527,4.393-4.879c1.63-1.669,3.589-4,5.98-4.493,4.707-.974,7,5.646,9.194,8.645a38.447,38.447,0,0,0,48.836,11.229,38.982,38.982,0,0,0,16.917-18.035c.434-.95-.976-1.78-1.412-.824-6.88,15.111-23.753,24.464-40.213,21.134a37.937,37.937,0,0,1-21.071-12.271c-3.419-3.962-6.7-13.9-13.624-11.136-4.09,1.632-7.435,6.193-10.155,9.475a84.372,84.372,0,0,0-8.353,12.134l1.493.2c-1.443-8.514-2.338-17.362-4.4-25.749-1.406-5.731-6.239-6.956-11.308-4.894a42.858,42.858,0,0,0-8.335,4.988,36.84,36.84,0,0,1-31.932,5.306,20.616,20.616,0,0,1-5.115-2.059c-3.108-1.97-1.155-4.541,1.567-5.058,3.768-.715,8.026,1.491,10.663,4.027a14.613,14.613,0,0,1,.116,20.665c-5.241,5.254-13.513,5.4-20.445,4.938-6.174-.412-13.21-1.785-17.963-6.047-6.721-6.03-4.358-15.422,2.064-20.654,7.418-6.045,17.867-5.322,26.821-4.748,1.05.068,1.046-1.567,0-1.634" transform="translate(515.484 160.917)" fill="#00badf"/>
    <path id="Tracé_4264" data-name="Tracé 4264" d="M307.01,106.838c11.221,3.461,22.975,4,34.636,3.415,11.441-.571,23.529-1.144,34.656-4.027a.818.818,0,0,0-.436-1.576c-10.974,2.844-22.925,3.4-34.22,3.968-11.521.575-23.112.065-34.2-3.356-1.007-.312-1.438,1.266-.434,1.576" transform="translate(361.35 123.368)" fill="#00badf"/>
    <path id="Tracé_4265" data-name="Tracé 4265" d="M388.731,106.838c11.221,3.461,22.975,4,34.636,3.415,11.441-.571,23.529-1.144,34.656-4.027a.818.818,0,0,0-.436-1.576c-10.974,2.844-22.925,3.4-34.22,3.968-11.521.575-23.113.065-34.2-3.356-1.007-.312-1.438,1.266-.434,1.576" transform="translate(457.715 123.368)" fill="#00badf"/>
    <path id="Tracé_4266" data-name="Tracé 4266" d="M425.6,126.8q.853-1.442,1.708-2.883a.816.816,0,1,0-1.41-.824q-.856,1.441-1.711,2.881a.818.818,0,1,0,1.412.826" transform="translate(500.078 144.688)" fill="#00badf"/>
  </g>
</svg>
