<svg id="modalités" xmlns="http://www.w3.org/2000/svg" xmlns:xlink="http://www.w3.org/1999/xlink" width="1410" height="270.821" viewBox="0 0 1410 270.821">
  <defs>
    <clipPath id="clip-path">
      <rect id="Rectangle_40" data-name="Rectangle 40" width="1410" height="270.821" fill="none"/>
    </clipPath>
  </defs>
  <g id="Groupe_40" data-name="Groupe 40" transform="translate(0 0)" clip-path="url(#clip-path)">
    <path id="Tracé_4418" data-name="Tracé 4418" d="M1.3,84.653C13.616,63.937,25.783,42.2,40.854,24.35A78.843,78.843,0,0,1,56.806,9.509C63.424,5.075,71.7,1.091,79.3,1.838c9.234.906,16.4,12.014,17.116,22.972C96.894,32.215,95.135,39.79,94,47q-1.913,12.15-4.114,24.225c-5.239,28.745-11.772,57.073-18.571,85.3-7.8,32.374-15.683,64.711-22.163,97.542-.173.881.925,1.558,1.237.648,11.392-33.152,24.249-65.484,38.289-97.029,12.635-28.391,26.187-56.124,39.833-83.778,6.708-13.592,13.039-28.22,24.334-36.8,7.22-5.484,20.354-8.846,23.964,4,2.017,7.178.455,15.509-.441,22.786-.961,7.806-2.144,15.57-3.464,23.295-2.848,16.655-6.321,33.137-9.944,49.554-7.672,34.771-16.11,69.318-22.349,104.55q-1.13,6.372-2.151,12.776c-.175,1.087.973,1.428,1.306.448,11.972-35.378,24.343-70.569,35.887-106.167,5.535-17.069,10.869-34.233,17.381-50.784,5.606-14.245,11.976-29.467,21.584-40.241,3.536-3.964,7.84-7.4,12.682-8.033A13.886,13.886,0,0,1,239.67,54c6.942,8.331,6.149,23.629,5.451,34.511-1.01,15.7-3.121,31.377-4.734,46.991q-1.72,16.676-3.44,33.354c-1.105,10.738-2.193,21.58-1.642,32.424.824,16.274,6.079,33.713,17.946,42.337a20.924,20.924,0,0,0,30.03-5.309,24.651,24.651,0,0,0,3.558-8.151c.255-1.038-1.053-1.482-1.306-.448-3.858,15.776-20.323,20.217-31.031,12.859-13.834-9.505-18.176-30.467-17.981-48.713.116-10.938,1.45-21.809,2.566-32.639q1.723-16.686,3.444-33.374c1.5-14.543,3.619-29.216,4.177-43.882.392-10.308.311-23.929-6.37-31.484-6.352-7.183-16.048-5.806-22.711-.222-9.606,8.055-16.055,21.663-21.452,34.036-7.271,16.673-13.112,34.28-18.721,51.89-10.786,33.847-22.472,67.246-33.87,100.782q-2.568,7.553-5.125,15.112l1.306.448c5.891-36.872,14.576-72.923,22.674-109.108,3.849-17.206,7.6-34.457,10.737-51.887,1.459-8.106,2.785-16.251,3.888-24.445,1-7.438,2.476-15.516,1.916-23.075-.359-4.876-1.8-9.736-5.133-12.648a13.288,13.288,0,0,0-11.156-2.661c-11.479,2-20.755,14.054-26.9,25.4-7.417,13.693-14.022,28.2-20.9,42.321-7.027,14.426-13.957,28.926-20.675,43.577-14.594,31.832-28.12,64.408-40.1,97.888q-2.492,6.971-4.9,13.987c.412.215.825.43,1.237.648,12-60.8,29.129-119.844,40.375-180.885q2.216-12.015,4.145-24.107c1.2-7.5,3.036-15.428,2.857-23.131C97.59,15.833,92.423,5.768,84.451,1.645c-7.462-3.858-16.449-.2-23.5,3.529A65.57,65.57,0,0,0,44.621,17.9C37.33,25.482,31,34.432,24.97,43.529,16.317,56.588,8.216,70.2.128,83.8c-.517.872.657,1.713,1.17.85" transform="translate(0 0.001)" fill="#00badf"/>
    <path id="Tracé_4419" data-name="Tracé 4419" d="M208.152,93.691c-8.839-2.67-18.291-4.1-27.168-.877-7.652,2.775-14.558,9.084-19.153,17.152-2.693,4.73-4.827,10.442-4.269,16.361.459,4.88,2.234,9.853,5.192,13.189,3.153,3.556,7.571,4.549,11.685,5.026A33.79,33.79,0,0,0,189.18,142.7c8.192-2.7,15.532-7.42,20.757-15.939a38.568,38.568,0,0,0,5.118-14.3c.768-4.977,1.147-11.353-.5-16.15-3.37-9.8-16.131-6.275-22.037-3-4.25,2.352-9.953,7.638-6.9,14.171,1.824,3.91,5.756,5.759,9.084,6.853a28.354,28.354,0,0,0,14.143.592c11.295-2.045,22.172-7.564,32.454-13.525.789-.457.1-1.908-.684-1.45a126.7,126.7,0,0,1-24.573,11.427c-7.686,2.459-15.9,3.908-23.527.343-4.1-1.915-8.837-7.066-4.853-12.377,2.9-3.858,7.327-5.782,11.385-6.777,3.9-.955,9.2-1.874,12.523,1.547,3.076,3.165,2.881,9.644,2.59,14.115a39.1,39.1,0,0,1-4.082,15.388,34.028,34.028,0,0,1-16.928,15.85c-8.167,3.486-17.415,5.34-25.766,1.587-4.156-1.867-6.847-6.7-7.99-11.839a23.665,23.665,0,0,1,2.052-15.368c4.19-9.079,11.566-16.291,19.63-19.3,8.728-3.262,18.02-1.854,26.724.773.845.256,1.208-1.365.359-1.621" transform="translate(126.925 111.65)" fill="#00badf"/>
    <path id="Tracé_4420" data-name="Tracé 4420" d="M228.861,142.616c-14.36-.413-27.567,12.561-34.2,27.667-2.72,6.192-4.849,16.285,1.866,19.856,5.994,3.188,13.5-1.468,18.634-5.136a57.361,57.361,0,0,0,16.3-18.466c3.457-6.1,6.44-12.648,9.4-19.13,6.6-14.458,12.223-29.236,17.522-44.478,3.336-9.6,6.68-19.195,9.892-28.859a222.362,222.362,0,0,0,6.431-21.3c.235-1.045-1.06-1.484-1.308-.446-2.548,10.738-6.328,21.028-9.984,31.238-4.448,12.42-9.012,24.777-13.207,37.331a328.447,328.447,0,0,0-10.952,39.21,128.062,128.062,0,0,0-2.55,18.388c-.282,5.271-.484,13.072,2.752,17.217,3.686,4.724,10.484,4.06,15.2,2.887,6.438-1.6,11.808-6.078,16.872-11.057.683-.673-.282-1.854-.957-1.19-4.786,4.706-9.848,8.929-15.911,10.537-4.428,1.172-12.1,2.132-14.941-3.5s-1.893-14.357-1.159-20.555a165.01,165.01,0,0,1,2.956-16.778c5.6-24.931,14.755-48.419,23.191-72,3.657-10.225,7.441-20.533,9.994-31.287l-1.308-.446c-3.005,13.375-8.055,26.265-12.451,38.988-4.831,13.978-9.483,28.032-15.2,41.5q-4.326,10.193-9.025,20.136c-2.913,6.147-5.848,12.442-9.655,17.814a52.273,52.273,0,0,1-17.392,15.8c-3.086,1.679-6.46,3.139-9.881,2.807-4.549-.444-7.063-4.889-6.341-10.416,1.206-9.23,7.446-17.984,13-23.808,6.274-6.584,14.081-11.093,22.413-10.853.872.025.872-1.657,0-1.681" transform="translate(154.797 64.248)" fill="#00badf"/>
    <path id="Tracé_4421" data-name="Tracé 4421" d="M265.326,148.561a41.9,41.9,0,0,0-20.318,7.564c-4.757,3.358-9.781,8.687-10.19,15.955a15.021,15.021,0,0,0,8.828,14.556c5.664,2.323,11.7-.578,16.041-5.2,6.122-6.508,8.893-16.287,11.463-25.456l-1.306-.446c-1.051,6.562-2.041,13.978.089,20.376,1.981,5.952,6.626,9.214,11.726,9.01,5.712-.229,11.046-3.7,15.646-7.649a102.6,102.6,0,0,0,13.868-14.637c17.686-22.6,28.159-52.309,36.624-81.569a83.691,83.691,0,0,0,2.734-13.1c.293-2.376,1.324-7.645-.361-9.617-2.1-2.459-5,3.643-5.833,5.141-4.011,7.219-7.7,14.715-11.055,22.434a282.82,282.82,0,0,0-15.936,48.37q-2.95,12.637-4.79,25.618c-1.046,7.4-2.686,15.821-1.683,23.338.845,6.331,4.782,10.862,10.11,9.983,5.814-.96,10.471-6.351,14.468-11.232a175.045,175.045,0,0,0,24.683-40.7q2.471-5.649,4.594-11.512c.35-.964-.749-1.818-1.17-.847a105.284,105.284,0,0,0-7.97,29.794c-.86,7.472-1.784,17.087,2.09,23.6,4.163,7,12.223,5.416,18.026,3.069a37.728,37.728,0,0,0,17.336-15.041c.536-.841-.417-2.038-.957-1.188a37.026,37.026,0,0,1-15.411,14.034c-6.012,2.771-15.161,5.062-18.75-3.569-2.91-6.995-1.656-16.592-.567-23.952a103.139,103.139,0,0,1,7.374-25.9l-1.17-.847a183.634,183.634,0,0,1-19.729,39.266,142.735,142.735,0,0,1-12.6,16.457c-3.887,4.286-10.645,9.857-15.77,5.472-5.25-4.488-3.374-15.056-2.637-21.593q1.308-11.581,3.516-22.968a286.257,286.257,0,0,1,12.182-43.962q3.9-10.647,8.607-20.8c3.021-6.51,6.142-13.716,10.123-19.405.542-.773,1.466-2.444,2.129-1.477.627.912.2,3.784.121,4.847a73.854,73.854,0,0,1-1.786,11.4c-1.367,5.836-3.291,11.563-5.073,17.22-2.142,6.8-4.43,13.532-6.933,20.141a211.771,211.771,0,0,1-16.816,35.336c-7.341,12.025-16.729,24.3-27.764,31.061-5.577,3.414-13.435,5.661-18.131-.98-4.338-6.134-3.011-15.709-1.848-22.972.17-1.063-1.019-1.473-1.306-.446-2.458,8.763-5.069,18.112-10.847,24.427-5.532,6.048-13.995,8.42-19.761,1.453-6.149-7.434-1.8-16.973,4.111-22.026a39.555,39.555,0,0,1,21.979-9.147c.863-.081.871-1.764,0-1.681" transform="translate(189.247 71.747)" fill="#00badf"/>
    <path id="Tracé_4422" data-name="Tracé 4422" d="M312.046,78.077c.872,0,.872-1.681,0-1.681s-.872,1.681,0,1.681" transform="translate(250.985 94.872)" fill="#00badf"/>
    <path id="Tracé_4423" data-name="Tracé 4423" d="M370.688,65.515a310.031,310.031,0,0,0-25.266,39.057c-7.278,13.337-14.641,27.6-18.448,43.124a64.012,64.012,0,0,0-1.81,22.385c.708,6.183,2.53,13.577,8.188,14.875,5.465,1.255,11.557-2.3,16.615-4.493a129.509,129.509,0,0,0,15.535-7.936,115.91,115.91,0,0,0,31.334-28.438.978.978,0,0,0-.137-1.32c-7.5-5.338-15.689,2.024-17.421,11.438-1.851,10.068,2.252,19.607,9.323,24.6,8.06,5.694,18.349,5.75,26.754,1.224,7.316-3.937,12.593-11.241,17.8-18.471q6.055-8.4,11.8-17.157c-.273.045-.547.09-.82.132,7.47,5.694,15.494,12.74,20.578,21.723,2.4,4.239,3.939,9.447.083,13.1-3.789,3.591-9.4,3.762-13.881,2.746-7.751-1.753-14.336-7.528-19.178-15.094-.542-.845-1.494.352-.957,1.19,4.661,7.281,10.946,12.962,18.3,15.141,4.88,1.444,10.571,1.538,15.095-1.5,11.228-7.551-2.131-22.674-7.753-28.409a108.834,108.834,0,0,0-11.607-10.351.587.587,0,0,0-.82.132c-6.292,9.568-12.689,19.421-20.011,27.81-6.476,7.421-15.123,11.415-23.946,10.382-8.3-.971-17.329-6.687-19.407-17.5a23.685,23.685,0,0,1,1.727-14.711c2.852-5.618,8.8-8.441,13.655-4.981q-.07-.659-.137-1.32A116.306,116.306,0,0,1,370.206,167.6,129.878,129.878,0,0,1,340.2,182.588c-2.705.968-6.079,1.637-8.683-.148-3.121-2.139-4.156-6.8-4.782-10.839-1.188-7.663-.343-15.574,1.432-22.99,3.5-14.626,10.327-28.052,17.07-40.676A308.048,308.048,0,0,1,371.645,66.7c.6-.787-.358-1.977-.957-1.188" transform="translate(261.82 81.037)" fill="#00badf"/>
    <path id="Tracé_4424" data-name="Tracé 4424" d="M332.61,79.963a225.992,225.992,0,0,0,49.357-2.468c.852-.137.863-1.818,0-1.681a225.992,225.992,0,0,1-49.357,2.468c-.87-.052-.869,1.63,0,1.681" transform="translate(267.562 94.138)" fill="#00badf"/>
    <path id="Tracé_4425" data-name="Tracé 4425" d="M359.768,93.706a31.684,31.684,0,0,0,15.257-.587c5.682-1.708,11.031-4.872,16.267-8.021.786-.471.1-1.921-.683-1.453-5.006,3.013-10.1,6.015-15.514,7.721a30.321,30.321,0,0,1-14.968.72c-.852-.164-1.219,1.457-.359,1.621" transform="translate(289.582 103.759)" fill="#00badf"/>
    <path id="Tracé_4426" data-name="Tracé 4426" d="M531.181,168.4c-9.214-6.822-19.5-10.178-30.142-7.214-9.4,2.618-20.005,8.873-25.094,19.511-3.48,7.275-3.545,19.143.755,25.972,5.068,8.041,15.355,4.452,21.873,1.711,8.642-3.634,15.945-9.476,22.339-17.529,7.2-9.075,13.048-19.73,18.237-30.68a449.153,449.153,0,0,0,23.191-61.063c6.363-20.838,12.024-42.1,19.1-62.59-.413-.215-.825-.43-1.239-.648-10.087,32.641-21.423,64.785-29.808,98.2-1.8,7.178-3.348,14.406-4.605,21.759-1.687,9.875-4.36,19.9-4.02,30.108.255,7.645,1.846,15.744,5.619,21.9,1.875,3.056,3.511,4.717,6.462,5.77a26.442,26.442,0,0,0,8.192,1.6c7.345.168,15.091-.926,21.865-4.627,6.028-3.291,10.786-8.81,14.632-15.359.515-.877-.661-1.715-1.17-.85-3.385,5.766-7.533,10.723-12.713,13.924-5.842,3.614-12.451,4.836-18.911,5.147a30.49,30.49,0,0,1-9.566-.845,16.872,16.872,0,0,1-4.1-1.54c-1.817-1.038-3.065-3.206-4.188-5.19-3.545-6.268-4.927-14.973-4.79-22.535.179-9.956,2.741-19.793,4.4-29.473,1.136-6.652,2.653-13.2,4.286-19.686,4.092-16.247,8.956-32.193,13.917-48.054,5.2-16.63,10.655-33.139,15.8-49.793.271-.881-.936-1.524-1.239-.648-5.624,16.289-10.273,33.116-15.236,49.726-5.313,17.78-10.879,35.172-17.666,52.183-8.656,21.69-18.768,45.155-34.656,60.036-6.8,6.365-15.7,10.828-24.164,11.974-3.742.507-7.746.33-10.419-3.412-2.6-3.643-3.318-8.958-3.233-13.668a26.481,26.481,0,0,1,5.96-16.818c4.156-5.174,9.966-8.629,15.458-11.046,11.869-5.223,23.516-2.695,34.186,5.208.751.554,1.434-.9.684-1.453" transform="translate(381.564 43.778)" fill="#00badf"/>
    <path id="Tracé_4427" data-name="Tracé 4427" d="M563.158,76.208A93.923,93.923,0,0,0,589.325,55.39c.647-.729-.314-1.915-.959-1.19a92.735,92.735,0,0,1-25.893,20.555c-.8.424-.11,1.872.685,1.453" transform="translate(453.074 67.027)" fill="#00badf"/>
    <path id="Tracé_4428" data-name="Tracé 4428" d="M659.245,96.467c-15.586-11.579-37.408-5.369-48.3,12.359a39.524,39.524,0,0,0-5.808,16.583c-.65,6.858,1.737,13,6.233,16.955,8.981,7.9,20.211,7.069,28.474-1.9,5.214-5.661,9.792-12.507,14-19.307a155.063,155.063,0,0,0,11.541-22.38l-1.239-.2c1.441,12.942-1.253,25.99,2.982,38.477,1.486,4.385,3.908,8.362,7.536,10.212a15.644,15.644,0,0,0,14.143-.5c5.261-2.84,8.788-8.716,10.991-15.106.34-.984-.827-1.843-1.168-.85-1.882,5.459-4.683,10.584-8.94,13.545a14.684,14.684,0,0,1-14.347,1.448c-8.723-4.224-9.552-19.627-9.566-29.438-.009-6.037.343-12.238-.323-18.237a.644.644,0,0,0-1.239-.2,158.294,158.294,0,0,1-19.194,33.659c-3.8,5.132-7.757,10.46-13.11,13.036a16.4,16.4,0,0,1-14.425-.052c-5.389-2.567-10.525-7.622-11.071-15.231-.455-6.333,1.878-12.846,4.71-17.973a37.375,37.375,0,0,1,20.361-17.419,28.893,28.893,0,0,1,27.074,3.968c.751.556,1.432-.9.685-1.453" transform="translate(487.664 112.482)" fill="#00badf"/>
    <path id="Tracé_4429" data-name="Tracé 4429" d="M693.348,103.283c-6.52-6.45-15.273-10.469-23.54-7.163a20.231,20.231,0,0,0-9.667,8.588c-1.969,3.372-2.646,7.7-3.011,11.756-.477,5.3-.822,11.14,1.53,15.865a17.66,17.66,0,0,0,7.708,7.651c8.221,4.383,18.1,3.968,26.6,1.141,11.475-3.818,21.553-12.24,31.862-19.257.766-.52.083-1.973-.683-1.45-15.748,10.716-31.679,24.373-50.6,20.387-6.845-1.442-14.78-5.9-15.328-15.682a50.673,50.673,0,0,1,1.347-15.168,18.518,18.518,0,0,1,6.973-10.162c8.4-6.23,18.681-2.414,25.857,4.681.674.668,1.64-.513.957-1.188" transform="translate(529.376 117.897)" fill="#00badf"/>
    <path id="Tracé_4430" data-name="Tracé 4430" d="M730.943,106.972c-5.8-7.985-15.152-12.332-23.666-9.248-8.748,3.168-13.946,14.377-13.141,25.431.854,11.714,10.094,19.015,19.021,18.361,5.339-.392,10.805-2.493,15.924-4.293a145.177,145.177,0,0,0,17.524-7.494,138.388,138.388,0,0,0,34.719-24.824,1,1,0,0,0,.107-1.018c-3.491-6.979-12.364-6.486-17.256-2.3-6.182,5.293-7.844,18.536-4.54,26.559,3.863,9.38,14.945,13.415,22.794,12.438,4.385-.545,8.508-2.544,12.536-4.659a67.416,67.416,0,0,0,14.226-9.952c8.161-7.423,16.505-15.146,23.686-24.026l-.822.132c5.337,4.2,10.941,9.8,14.143,16.65,2.234,4.78,2.261,9.853-1.165,13.785-3.283,3.769-8.069,4.022-12.14,2.361-6.207-2.533-10.73-9.028-13.486-16.15-.377-.975-1.546-.123-1.17.85,4.192,10.83,15.355,23.205,25.618,16.067a13.031,13.031,0,0,0,5.142-12.837c-1-5.647-4.629-10.4-7.943-14.18a63.444,63.444,0,0,0-8.315-8,.589.589,0,0,0-.822.132c-5.023,6.212-10.686,11.436-16.238,16.874-3.673,3.6-7.327,7.252-11.266,10.4a66.407,66.407,0,0,1-12.615,7.7c-8.129,3.968-16.323,4.5-24.253-.686a16.722,16.722,0,0,1-7.665-10.974,29.58,29.58,0,0,1,1.423-15.65c1.839-4.726,5.395-7.539,9.57-8.089,3.4-.448,7.464.547,9.388,4.392.034-.339.07-.679.107-1.018a139.055,139.055,0,0,1-57.534,33.809c-4.387,1.327-8.918,2.883-13.469,2.166-4.661-.735-8.774-3.807-11.47-8.6-5.375-9.55-1.609-24.562,6.364-30.016,8.584-5.871,19.487-1.509,25.728,7.082.585.807,1.54-.386.957-1.188" transform="translate(559.416 120.12)" fill="#00badf"/>
    <path id="Tracé_4431" data-name="Tracé 4431" d="M735.264,96.664c11.6,1.509,23.838-2.762,29.929-15.987.433-.939-.737-1.789-1.17-.847-5.864,12.734-17.634,16.6-28.759,15.153-.865-.112-.86,1.569,0,1.681" transform="translate(592.109 98.627)" fill="#00badf"/>
    <path id="Tracé_4432" data-name="Tracé 4432" d="M2.067,86.69c12.317-20.717,24.484-42.454,39.555-60.3A78.843,78.843,0,0,1,57.574,11.546c6.617-4.434,14.9-8.418,22.49-7.672,9.234.906,16.4,12.014,17.116,22.972.482,7.4-1.277,14.98-2.411,22.194q-1.913,12.15-4.114,24.225c-5.239,28.745-11.772,57.073-18.571,85.3-7.8,32.374-15.683,64.711-22.163,97.542-.173.881.925,1.558,1.237.648C62.55,223.6,75.407,191.27,89.447,159.725c12.635-28.391,26.187-56.124,39.833-83.778,6.708-13.592,13.039-28.22,24.334-36.8,7.22-5.484,20.354-8.846,23.964,4,2.017,7.178.455,15.509-.441,22.786-.961,7.806-2.144,15.57-3.464,23.295-2.848,16.655-6.321,33.137-9.944,49.554-7.672,34.771-16.11,69.318-22.349,104.55q-1.13,6.372-2.151,12.776c-.175,1.087.973,1.428,1.306.448,11.972-35.378,24.343-70.569,35.887-106.167,5.535-17.069,10.869-34.233,17.381-50.784,5.606-14.245,11.976-29.467,21.584-40.241,3.536-3.964,7.84-7.4,12.682-8.033a13.886,13.886,0,0,1,12.369,4.7c6.942,8.331,6.149,23.629,5.451,34.511-1.01,15.7-3.121,31.377-4.734,46.991q-1.72,16.676-3.44,33.354c-1.105,10.738-2.192,21.58-1.642,32.424.824,16.274,6.079,33.713,17.946,42.337a20.924,20.924,0,0,0,30.03-5.309,24.652,24.652,0,0,0,3.558-8.151c.255-1.038-1.053-1.482-1.306-.448-3.858,15.776-20.323,20.217-31.031,12.859-13.834-9.505-18.176-30.467-17.981-48.713.116-10.938,1.45-21.809,2.566-32.639q1.723-16.686,3.444-33.374c1.5-14.543,3.619-29.216,4.177-43.882.392-10.308.311-23.929-6.37-31.484-6.352-7.183-16.048-5.806-22.711-.222-9.606,8.055-16.055,21.663-21.452,34.036-7.271,16.673-13.112,34.28-18.721,51.89-10.785,33.847-22.472,67.246-33.87,100.782q-2.568,7.553-5.125,15.112l1.306.448c5.891-36.872,14.576-72.923,22.674-109.108,3.849-17.206,7.6-34.457,10.737-51.887,1.459-8.106,2.785-16.251,3.888-24.445,1-7.438,2.476-15.516,1.916-23.075-.359-4.876-1.8-9.736-5.133-12.648a13.287,13.287,0,0,0-11.156-2.661c-11.479,2-20.755,14.054-26.9,25.4-7.417,13.693-14.022,28.2-20.9,42.321-7.027,14.426-13.957,28.926-20.675,43.577-14.594,31.832-28.12,64.408-40.1,97.888q-2.492,6.971-4.9,13.987c.412.215.825.43,1.237.648,12-60.8,29.129-119.844,40.375-180.885q2.216-12.015,4.145-24.107c1.2-7.5,3.036-15.428,2.857-23.131C98.358,17.87,93.191,7.8,85.219,3.682c-7.462-3.858-16.449-.2-23.5,3.529A65.57,65.57,0,0,0,45.389,19.935C38.1,27.519,31.768,36.469,25.738,45.566,17.085,58.625,8.984,72.242.9,85.841c-.517.872.657,1.713,1.17.85" transform="translate(0.619 2.53)" fill="#00badf"/>
    <path id="Tracé_4433" data-name="Tracé 4433" d="M208.919,95.728c-8.839-2.67-18.291-4.1-27.168-.877C174.1,97.627,167.193,103.936,162.6,112c-2.693,4.73-4.827,10.442-4.269,16.361.459,4.878,2.234,9.853,5.192,13.189,3.153,3.556,7.571,4.549,11.685,5.026a33.791,33.791,0,0,0,14.741-1.841c8.192-2.7,15.532-7.42,20.756-15.939a38.568,38.568,0,0,0,5.118-14.3c.768-4.977,1.147-11.353-.5-16.15-3.37-9.8-16.131-6.275-22.037-3-4.25,2.352-9.953,7.638-6.9,14.171,1.824,3.91,5.756,5.759,9.084,6.853a28.354,28.354,0,0,0,14.143.592c11.295-2.045,22.172-7.564,32.454-13.525.789-.457.1-1.908-.684-1.45A126.7,126.7,0,0,1,216.8,113.412c-7.686,2.459-15.9,3.908-23.527.343-4.1-1.915-8.837-7.066-4.853-12.377,2.9-3.858,7.327-5.782,11.385-6.777,3.9-.955,9.2-1.874,12.523,1.547,3.076,3.165,2.881,9.644,2.59,14.115a39.1,39.1,0,0,1-4.082,15.388,34.028,34.028,0,0,1-16.928,15.85c-8.167,3.486-17.415,5.34-25.766,1.587-4.156-1.867-6.847-6.7-7.99-11.839a23.665,23.665,0,0,1,2.052-15.368c4.188-9.079,11.566-16.291,19.63-19.3,8.728-3.262,18.02-1.854,26.724.773.845.256,1.206-1.365.359-1.621" transform="translate(127.543 114.18)" fill="#00badf"/>
    <path id="Tracé_4434" data-name="Tracé 4434" d="M229.629,144.653c-14.36-.412-27.567,12.561-34.2,27.667-2.72,6.192-4.849,16.285,1.866,19.856,5.994,3.188,13.5-1.468,18.634-5.136a57.361,57.361,0,0,0,16.3-18.466c3.457-6.1,6.44-12.648,9.4-19.13,6.6-14.458,12.223-29.236,17.522-44.478,3.336-9.6,6.68-19.195,9.892-28.859a222.336,222.336,0,0,0,6.431-21.3c.235-1.045-1.06-1.484-1.308-.446-2.548,10.738-6.328,21.028-9.984,31.238-4.448,12.42-9.012,24.777-13.207,37.331a328.442,328.442,0,0,0-10.952,39.21,128.057,128.057,0,0,0-2.55,18.388c-.282,5.271-.484,13.072,2.752,17.217,3.686,4.724,10.484,4.06,15.2,2.887,6.438-1.6,11.808-6.078,16.872-11.057.683-.673-.282-1.854-.957-1.19-4.786,4.706-9.848,8.929-15.911,10.537-4.428,1.172-12.1,2.132-14.941-3.5s-1.893-14.357-1.159-20.555a165.008,165.008,0,0,1,2.956-16.778c5.6-24.932,14.755-48.419,23.191-72,3.657-10.225,7.441-20.533,9.994-31.287l-1.308-.446c-3.005,13.375-8.055,26.265-12.451,38.988-4.831,13.978-9.483,28.032-15.2,41.5q-4.326,10.193-9.025,20.136c-2.913,6.147-5.848,12.442-9.655,17.814a52.273,52.273,0,0,1-17.392,15.8c-3.087,1.679-6.46,3.139-9.881,2.807-4.549-.444-7.063-4.889-6.341-10.416,1.206-9.23,7.446-17.984,13-23.808,6.274-6.584,14.081-11.093,22.413-10.853.872.025.872-1.657,0-1.681" transform="translate(155.416 66.777)" fill="#00badf"/>
    <path id="Tracé_4435" data-name="Tracé 4435" d="M266.093,150.6a41.9,41.9,0,0,0-20.318,7.564c-4.757,3.358-9.781,8.687-10.19,15.955a15.022,15.022,0,0,0,8.826,14.556c5.665,2.323,11.7-.578,16.043-5.2,6.122-6.508,8.893-16.287,11.463-25.456l-1.306-.446c-1.051,6.562-2.041,13.978.089,20.376,1.981,5.952,6.626,9.214,11.726,9.01,5.712-.229,11.046-3.7,15.646-7.649a102.6,102.6,0,0,0,13.868-14.637c17.686-22.6,28.159-52.309,36.624-81.569a83.687,83.687,0,0,0,2.734-13.1c.293-2.376,1.324-7.645-.359-9.617-2.1-2.459-5,3.643-5.835,5.141-4.011,7.219-7.7,14.715-11.055,22.434a282.825,282.825,0,0,0-15.936,48.37q-2.95,12.637-4.79,25.618c-1.046,7.4-2.686,15.821-1.683,23.338.845,6.331,4.782,10.862,10.11,9.983,5.814-.96,10.471-6.351,14.468-11.232a175.045,175.045,0,0,0,24.683-40.7q2.471-5.649,4.594-11.512c.35-.964-.749-1.818-1.17-.847a105.284,105.284,0,0,0-7.97,29.794c-.86,7.472-1.784,17.087,2.09,23.6,4.163,7,12.223,5.416,18.026,3.069a37.74,37.74,0,0,0,17.338-15.04c.535-.841-.419-2.038-.959-1.188a37.026,37.026,0,0,1-15.411,14.034c-6.012,2.771-15.161,5.062-18.75-3.569-2.909-6.995-1.656-16.592-.567-23.952a103.14,103.14,0,0,1,7.374-25.9l-1.17-.847A183.636,183.636,0,0,1,344.6,170.243,142.739,142.739,0,0,1,332,186.7c-3.887,4.286-10.645,9.857-15.77,5.472-5.25-4.488-3.374-15.056-2.637-21.593Q314.9,159,317.107,147.612a286.043,286.043,0,0,1,12.18-43.962q3.9-10.647,8.607-20.8c3.021-6.51,6.142-13.716,10.123-19.405.542-.773,1.466-2.444,2.129-1.477.627.912.2,3.784.123,4.847a74.064,74.064,0,0,1-1.788,11.4c-1.367,5.836-3.291,11.563-5.073,17.22-2.142,6.8-4.43,13.532-6.933,20.141a211.772,211.772,0,0,1-16.816,35.336c-7.341,12.025-16.729,24.3-27.764,31.061-5.577,3.414-13.435,5.661-18.131-.98-4.338-6.134-3.011-15.709-1.848-22.972.17-1.063-1.019-1.473-1.306-.446-2.458,8.763-5.069,18.112-10.847,24.427-5.532,6.048-13.995,8.42-19.761,1.453-6.149-7.434-1.8-16.973,4.11-22.026a39.555,39.555,0,0,1,21.979-9.147c.863-.081.87-1.764,0-1.681" transform="translate(189.865 74.276)" fill="#00badf"/>
    <path id="Tracé_4436" data-name="Tracé 4436" d="M312.813,80.114c.872,0,.872-1.681,0-1.681s-.872,1.681,0,1.681" transform="translate(251.603 97.401)" fill="#00badf"/>
    <path id="Tracé_4437" data-name="Tracé 4437" d="M371.456,67.552a310.03,310.03,0,0,0-25.266,39.057c-7.278,13.337-14.641,27.6-18.448,43.124a64.013,64.013,0,0,0-1.81,22.385c.708,6.183,2.53,13.577,8.188,14.875,5.465,1.255,11.557-2.3,16.615-4.493a129.5,129.5,0,0,0,15.535-7.936,115.91,115.91,0,0,0,31.334-28.438.978.978,0,0,0-.137-1.32c-7.495-5.338-15.689,2.024-17.421,11.438-1.851,10.068,2.252,19.607,9.323,24.6,8.06,5.694,18.349,5.75,26.754,1.224,7.316-3.937,12.593-11.241,17.8-18.471q6.055-8.4,11.8-17.157c-.273.045-.547.09-.82.132,7.47,5.694,15.494,12.74,20.578,21.723,2.4,4.239,3.939,9.447.083,13.1-3.789,3.591-9.4,3.762-13.881,2.746-7.751-1.753-14.336-7.528-19.178-15.094-.542-.845-1.494.352-.957,1.19,4.661,7.281,10.946,12.962,18.3,15.141,4.88,1.444,10.571,1.538,15.095-1.5,11.228-7.551-2.131-22.674-7.753-28.409a108.836,108.836,0,0,0-11.607-10.351.587.587,0,0,0-.82.132c-6.292,9.568-12.689,19.421-20.011,27.81-6.476,7.42-15.123,11.415-23.946,10.382-8.3-.971-17.329-6.687-19.407-17.5a23.685,23.685,0,0,1,1.727-14.711c2.852-5.618,8.8-8.441,13.655-4.981q-.07-.659-.137-1.32a116.306,116.306,0,0,1-25.674,24.705,129.879,129.879,0,0,1-30.009,14.984c-2.705.968-6.079,1.637-8.683-.148-3.121-2.136-4.156-6.8-4.782-10.839-1.188-7.663-.343-15.574,1.432-22.99,3.5-14.626,10.327-28.052,17.07-40.676A308.049,308.049,0,0,1,372.413,68.74c.6-.787-.358-1.977-.957-1.188" transform="translate(262.439 83.566)" fill="#00badf"/>
    <path id="Tracé_4438" data-name="Tracé 4438" d="M333.378,82a225.991,225.991,0,0,0,49.356-2.468c.853-.137.863-1.818,0-1.681a225.99,225.99,0,0,1-49.356,2.468c-.87-.052-.869,1.63,0,1.681" transform="translate(268.181 96.668)" fill="#00badf"/>
    <path id="Tracé_4439" data-name="Tracé 4439" d="M360.536,95.744a31.684,31.684,0,0,0,15.257-.587c5.682-1.708,11.031-4.872,16.267-8.021.786-.471.1-1.921-.683-1.453-5.006,3.013-10.1,6.015-15.514,7.721a30.321,30.321,0,0,1-14.968.72c-.852-.164-1.219,1.457-.359,1.621" transform="translate(290.201 106.29)" fill="#00badf"/>
    <path id="Tracé_4440" data-name="Tracé 4440" d="M531.949,170.438c-9.214-6.822-19.505-10.178-30.142-7.214-9.4,2.618-20.005,8.873-25.095,19.511-3.48,7.275-3.545,19.143.755,25.972,5.068,8.041,15.355,4.452,21.874,1.711,8.64-3.634,15.943-9.476,22.337-17.529,7.2-9.075,13.049-19.73,18.237-30.68a449.152,449.152,0,0,0,23.191-61.063c6.362-20.838,12.024-42.1,19.1-62.59l-1.239-.648c-10.087,32.641-21.423,64.785-29.808,98.2-1.8,7.178-3.348,14.406-4.605,21.759-1.687,9.875-4.36,19.9-4.02,30.108.255,7.645,1.846,15.744,5.619,21.9,1.874,3.056,3.511,4.717,6.462,5.77a26.442,26.442,0,0,0,8.192,1.6c7.345.168,15.091-.926,21.865-4.627,6.028-3.291,10.785-8.81,14.632-15.359.515-.877-.661-1.715-1.17-.85-3.385,5.766-7.533,10.723-12.713,13.924-5.841,3.614-12.451,4.836-18.911,5.147a30.489,30.489,0,0,1-9.566-.845,16.869,16.869,0,0,1-4.1-1.54c-1.817-1.038-3.065-3.206-4.188-5.19-3.545-6.268-4.927-14.973-4.79-22.535.179-9.956,2.742-19.793,4.4-29.473,1.136-6.652,2.653-13.2,4.286-19.686,4.093-16.247,8.956-32.193,13.917-48.054,5.2-16.63,10.655-33.139,15.8-49.793.271-.881-.936-1.524-1.239-.648C575.411,54,570.762,70.824,565.8,87.433c-5.313,17.78-10.879,35.172-17.666,52.183-8.656,21.69-18.768,45.155-34.656,60.036-6.8,6.365-15.7,10.828-24.164,11.974-3.742.507-7.746.33-10.419-3.412-2.6-3.643-3.318-8.958-3.233-13.668a26.481,26.481,0,0,1,5.96-16.818c4.157-5.174,9.966-8.629,15.458-11.046,11.869-5.223,23.516-2.695,34.186,5.208.751.554,1.434-.9.684-1.453" transform="translate(382.183 46.308)" fill="#00badf"/>
    <path id="Tracé_4441" data-name="Tracé 4441" d="M563.925,78.246a93.921,93.921,0,0,0,26.167-20.818c.647-.729-.314-1.915-.959-1.19A92.731,92.731,0,0,1,563.24,76.794c-.8.424-.11,1.872.684,1.453" transform="translate(453.692 69.558)" fill="#00badf"/>
    <path id="Tracé_4442" data-name="Tracé 4442" d="M660.013,98.5c-15.586-11.579-37.408-5.369-48.3,12.359a39.521,39.521,0,0,0-5.808,16.583c-.65,6.858,1.737,13,6.233,16.955,8.981,7.9,20.211,7.068,28.474-1.9,5.214-5.661,9.792-12.507,14-19.307a155.062,155.062,0,0,0,11.54-22.38c-.414-.065-.825-.132-1.239-.2,1.441,12.942-1.253,25.99,2.982,38.477,1.486,4.385,3.908,8.362,7.536,10.212a15.644,15.644,0,0,0,14.143-.5c5.261-2.84,8.788-8.716,10.991-15.105.339-.984-.827-1.843-1.168-.85-1.882,5.459-4.683,10.584-8.94,13.545a14.684,14.684,0,0,1-14.347,1.448c-8.723-4.224-9.552-19.627-9.566-29.438-.009-6.037.343-12.238-.323-18.237a.644.644,0,0,0-1.239-.2,158.283,158.283,0,0,1-19.194,33.659c-3.8,5.132-7.757,10.46-13.11,13.036a16.4,16.4,0,0,1-14.425-.052c-5.389-2.567-10.526-7.622-11.071-15.231-.455-6.333,1.878-12.846,4.71-17.973a37.375,37.375,0,0,1,20.361-17.419,28.893,28.893,0,0,1,27.074,3.968c.751.556,1.432-.9.684-1.453" transform="translate(488.283 115.011)" fill="#00badf"/>
    <path id="Tracé_4443" data-name="Tracé 4443" d="M694.115,105.32c-6.52-6.45-15.273-10.469-23.54-7.163a20.229,20.229,0,0,0-9.668,8.589c-1.969,3.372-2.646,7.7-3.011,11.756-.477,5.3-.822,11.14,1.53,15.865a17.658,17.658,0,0,0,7.708,7.651c8.221,4.383,18.1,3.968,26.6,1.141,11.475-3.818,21.553-12.24,31.862-19.257.766-.52.083-1.973-.682-1.45-15.748,10.716-31.679,24.373-50.6,20.387-6.845-1.441-14.78-5.9-15.328-15.682a50.675,50.675,0,0,1,1.347-15.168,18.518,18.518,0,0,1,6.973-10.162c8.4-6.23,18.681-2.414,25.857,4.681.674.668,1.64-.513.957-1.188" transform="translate(529.994 120.426)" fill="#00badf"/>
    <path id="Tracé_4444" data-name="Tracé 4444" d="M731.711,109.01c-5.8-7.985-15.152-12.332-23.666-9.248C699.3,102.93,694.1,114.139,694.9,125.194c.854,11.714,10.094,19.015,19.021,18.361,5.339-.392,10.805-2.493,15.924-4.293a145.163,145.163,0,0,0,17.524-7.494,138.388,138.388,0,0,0,34.719-24.824,1,1,0,0,0,.107-1.018c-3.491-6.979-12.364-6.486-17.256-2.3-6.182,5.293-7.844,18.536-4.54,26.559,3.863,9.38,14.945,13.415,22.794,12.438,4.385-.545,8.508-2.544,12.535-4.659a67.415,67.415,0,0,0,14.226-9.952c8.161-7.423,16.505-15.146,23.686-24.026l-.822.132c5.337,4.2,10.941,9.8,14.143,16.65,2.234,4.78,2.261,9.853-1.165,13.785-3.283,3.769-8.069,4.022-12.14,2.361-6.207-2.533-10.73-9.028-13.486-16.15-.377-.975-1.546-.123-1.17.85,4.192,10.83,15.357,23.205,25.618,16.067a13.031,13.031,0,0,0,5.142-12.837c-1-5.647-4.629-10.4-7.943-14.18a63.445,63.445,0,0,0-8.315-8,.591.591,0,0,0-.822.132c-5.022,6.212-10.686,11.436-16.238,16.874-3.674,3.6-7.327,7.252-11.266,10.4a66.411,66.411,0,0,1-12.615,7.7c-8.129,3.968-16.323,4.5-24.253-.686a16.723,16.723,0,0,1-7.665-10.974,29.583,29.583,0,0,1,1.423-15.65c1.839-4.726,5.395-7.539,9.57-8.089,3.4-.448,7.464.547,9.388,4.392.036-.339.07-.679.107-1.018A139.055,139.055,0,0,1,723.6,139.564c-4.387,1.327-8.918,2.883-13.469,2.166-4.661-.735-8.774-3.807-11.47-8.6-5.375-9.55-1.609-24.562,6.364-30.016,8.584-5.871,19.487-1.509,25.728,7.082.585.807,1.54-.386.957-1.188" transform="translate(560.035 122.65)" fill="#00badf"/>
    <path id="Tracé_4445" data-name="Tracé 4445" d="M736.032,98.7c11.6,1.509,23.838-2.762,29.929-15.987.433-.939-.737-1.789-1.17-.847-5.864,12.734-17.634,16.6-28.759,15.153-.865-.112-.86,1.569,0,1.681" transform="translate(592.729 101.158)" fill="#00badf"/>
  </g>
</svg>
