<svg xmlns="http://www.w3.org/2000/svg" xmlns:xlink="http://www.w3.org/1999/xlink" width="1412.746" height="438.913" viewBox="0 0 1412.746 438.913">
  <defs>
    <clipPath id="clip-path">
      <rect id="Rectangle_44" data-name="Rectangle 44" width="1412.746" height="438.913" fill="none"/>
    </clipPath>
  </defs>
  <g id="Groupe_46" data-name="Groupe 46" clip-path="url(#clip-path)">
    <path id="Tracé_4842" data-name="Tracé 4842" d="M79.712.543c-8.117,14.853-5.063,32.883.91,47.94a98.273,98.273,0,0,0,27.325,38.291c10.053,8.6,23.531,17.351,37.448,15.236,13.168-2,18.667-15.845,12.706-27.211-6.947-13.241-24.622-14.11-36.691-8.1C114,70.391,107.917,76.344,102.84,82.787c-4.911,6.227-9.258,13.259-10.951,21.1-2.556,11.817,3.03,29.329,17.409,29.9,5.938.237,10.916-3.96,10.062-10.167-.839-6.075-5.929-10.439-11.419-12.44-14.224-5.186-30.057,3.092-42.593,9.237-11.276,5.528-22.253,11.913-31.833,20.089C15.982,155.467,6.552,175.837,2.721,198.289.269,212.665-.819,227.5.694,242.026a123.752,123.752,0,0,0,4.8,24.719c2.425,7.584,6.1,14.783,9.9,21.759,5.9,10.843,13.037,21.844,23.938,28.217a87.4,87.4,0,0,0,28.791,10.115c22.323,3.829,48.859.3,65.993-15.713,9.029-8.441,13.276-19.3,14.59-31.4.515-4.744.948-9.793,3.712-13.853,3.431-5.031,9.032-6.353,14.2-3,4.074,2.641,7.233,7.078,9.977,10.966a89.443,89.443,0,0,1,15.245,37.317,1.1,1.1,0,0,0,2.115,0c.965-6.707-.459-13.364.1-20.071.453-5.438,3.06-12.165,8.833-13.8,6.73-1.9,12.25,4.338,15.769,9.167,3.358,4.61,6.318,9.471,9.863,13.949,6.657,8.412,15.137,16.108,25.889,18.5,9.222,2.059,19.284.342,25.991-6.672.977-1.018-.57-2.571-1.55-1.547-8.64,9.026-22.973,8.368-33.184,2.448-11.469-6.64-17.816-17.921-25.444-28.235-5.054-6.833-14.163-14.359-22.341-7.3-9.609,8.289-4.5,22.236-6.04,32.973h2.115a92.245,92.245,0,0,0-18.226-41.541c-3.718-4.747-8.611-10.466-15.222-10.363-5.654.085-9.9,4.753-11.832,9.7-2.709,6.947-1.957,14.742-4.072,21.879a42.683,42.683,0,0,1-7.5,14.449c-6.6,8.272-16.011,13.856-25.953,17.161-20.507,6.821-42.7,4.917-62.513-3.109a50.816,50.816,0,0,1-22.206-16.813,129.778,129.778,0,0,1-11.741-19.466,101.112,101.112,0,0,1-8.213-20.206c-6.751-25.7-5.6-54.861,2.34-80.232,6.2-19.785,18.729-35.571,35.775-47.206a200.123,200.123,0,0,1,31.666-17.067c6.929-3.083,14.309-5.765,21.984-5.876,7.427-.108,16.8,2.969,18.773,11.1,1.2,4.934-2.34,8.643-7.233,8.626-4.036-.018-7.769-2.191-10.468-5.075-5.326-5.686-6.891-13.993-5.423-21.472,1.588-8.082,6.134-15.327,11.249-21.648,4.929-6.093,10.784-11.662,17.918-15.067,13.733-6.552,35.091-2.074,35.366,16.184a15.025,15.025,0,0,1-11.8,15.029c-6.707,1.594-14.052-.272-20.191-3.057-13.1-5.935-24.485-16.939-32.739-28.542-8.711-12.247-15.16-27.021-16.494-42.1-.74-8.374.345-16.76,4.414-24.2C82.283.411,80.39-.7,79.712.543" transform="translate(0 0.001)" fill="#00badf"/>
    <path id="Tracé_4843" data-name="Tracé 4843" d="M150.308,144.737c12.624-11.638,25.585-22.9,38.4-34.313q4.708-4.19,9.378-8.421,2.115-1.917,4.218-3.849c2.773-2.545,4.888-4.744,9.015-3.355a92.31,92.31,0,0,1,19.5,9.74c11.112,7.078,22.908,19.106,22.081,33.368-.544,9.383-8.26,12.583-16.74,12.414a24.842,24.842,0,0,1-11.545-2.785c-3.071-1.711-7.1-6.21-3.738-9.693,1.53-1.588,4.592-2.586,6.549-3.516q3-1.422,6.061-2.711,5.849-2.466,11.908-4.37a202.24,202.24,0,0,1,24.845-5.809c1.386-.249.8-2.363-.585-2.115a191,191,0,0,0-28.121,6.885c-3.811,1.3-7.561,2.785-11.249,4.411-3.58,1.577-9.035,3.083-11.507,6.312-4.256,5.563,1.986,11.445,6.768,13.478,6.622,2.814,16.207,3.393,22.657-.219,14.037-7.859,4.347-28.293-3.373-36.881-5.756-6.4-13.1-11.211-20.721-15.107-3.443-1.764-6.976-3.37-10.55-4.847-3.762-1.553-6.561-2.088-9.878.573-4.674,3.744-8.942,8.169-13.408,12.168s-8.942,7.953-13.429,11.913c-9.424,8.324-18.843,16.655-28.089,25.178-1.041.959.512,2.507,1.55,1.55" transform="translate(285.692 177.213)" fill="#00badf"/>
    <path id="Tracé_4844" data-name="Tracé 4844" d="M233.944,96.906c-9.723-4.06-21.423-6.76-31.034-1.106-7.614,4.478-12.706,10.4-13.274,19.536-.588,9.424,2.63,16.664,10.17,22.382,4.288,3.253,8.181,5.022,13.633,4.765,4.311-.2,8.254-1.1,10.9-4.689,4.165-5.645,6.482-13.127,8.684-19.711,2.179-6.508,3.829-13.162,5.446-19.828l-2.156-.29a41.023,41.023,0,0,0,8.643,25.988c5.429,7.1,13.589,13.78,22.756,14.83a15,15,0,0,0,16.573-11.229c2.205-7.93-.082-16.857-4.49-23.613-5.285-8.1-15.842-13.464-24.789-7.622a1.118,1.118,0,0,0-.222,1.723c5.666,6.833,15.377,4.484,22.549,1.764,2.153-.816,4.621-.758,6.3,1.082.954,1.044,1.375,3.1,1.866,4.417,1.009,2.711,1.875,5.476,2.741,8.237a101.67,101.67,0,0,0,5.677,15.295c4.031,8.047,11.442,15.265,20.726,16.418,7.862.977,16.494-4.139,19.358-11.58,3.329-8.649-.863-18.872-6.312-25.664-4.56-5.68-13.5-8.456-19.556-3.261-3.171,2.72-3.779,6.7.594,8.213,4.657,1.615,10.468.518,15.186-.178,16.9-2.492,33.491-7.5,49.809-12.437,1.348-.409.772-2.527-.582-2.118-11.8,3.574-23.666,6.979-35.688,9.711a150.884,150.884,0,0,1-17.734,3.188c-2.785.29-9.088,1.436-11.454-.8-1.971-1.863,1.512-4.314,3.071-5.084,4.572-2.249,10-.67,13.478,2.8,5.838,5.829,10.158,16.473,7.251,24.59-3.384,9.445-14.859,12.7-23.33,8.553-9-4.4-13.434-13.253-16.491-22.326-1.585-4.7-2.9-9.492-4.63-14.142-1.1-2.951-2.255-7.35-5.9-8s-8.14,2.352-11.685,3.086c-4.926,1.021-10.252.839-13.695-3.311q-.11.86-.222,1.723c10.863-7.093,21.618,3.747,25.126,13.554,2.673,7.476,2.9,18.661-4.882,23.256C266.83,140.646,255,132.1,248.8,125.17A39.314,39.314,0,0,1,238.51,97.965a1.1,1.1,0,0,0-2.156-.292,207.732,207.732,0,0,1-8.333,27.743c-1.688,4.256-3.855,11.586-8.427,13.663-4.107,1.863-10.337,1.89-14.318-.26-7.921-4.279-13.136-11-13.478-20.042-.333-8.828,3.106-15.371,10.512-20.048,9.81-6.192,20.852-3.966,31.052.292,1.3.544,1.869-1.577.582-2.115" transform="translate(364.915 178.208)" fill="#00badf"/>
    <path id="Tracé_4845" data-name="Tracé 4845" d="M283.837,93.9c-18.658-3.922-39.783,11.524-37.086,31.441a21.308,21.308,0,0,0,16.277,18.369c8.637,2.264,19.15,1.784,27.354-1.9,7.362-3.305,11.776-11.84,14.087-19.164,2.267-7.193,3.22-16.222-2.755-21.908-5.242-4.987-14.166-6.508-20.53-2.823-4.659,2.7-6.941,8.032-1.819,11.516,5.8,3.949,14.824,2.872,21.273,1.691,8.085-1.48,17.02-4.56,22.633-10.872q-.917-.531-1.834-1.068c-3.735,9.3-1.758,20.6,2.431,29.4,4.768,10.021,13.627,16.251,24.973,16.1,11.147-.143,20.747-7.134,27.331-15.666,3.662-4.747,13.742-20.545,3.741-24.052-2.682-.942-6.909-.439-8.047,2.606-1.436,3.84,3.861,6.493,6.85,7.149,5.189,1.138,10.8-.41,15.763-1.881,5.584-1.658,11.024-3.592,16.438-5.73,4.563-1.8,10.641-5.075,15.713-4.534,3.993.424,4.113,6.774,4.417,9.819.863,8.62-.348,18.679,2.942,26.857,4.206,10.451,18.925,9.974,27.951,8.263,16.117-3.054,29.06-14.417,44.378-19.653,1.328-.453.758-2.574-.582-2.115-11.223,3.835-21.066,10.662-31.83,15.511-9.2,4.145-22.122,7.754-31.8,3.024-8.111-3.966-7.722-12.946-8.155-20.8-.345-6.257.354-14.7-2.823-20.375-3.206-5.733-12.612-1.255-16.982.4-9.114,3.454-18.4,7.669-28.13,9.091a17.986,17.986,0,0,1-7.538-.193c-2.4-.7-7.163-4.2-2.545-5.517,8.123-2.311,5.455,8.576,3.662,12.419-4.089,8.778-11.41,16.915-20.349,20.858-11.621,5.125-25.187,1.468-31.768-9.48-5.3-8.816-7.865-21.124-3.925-30.926.409-1.027-1.135-1.854-1.834-1.068-7.707,8.664-22.554,12.007-33.716,11.03-3.01-.263-11.3-1.808-9.214-6.648,1.325-3.077,5.806-4.619,8.825-4.917a16.624,16.624,0,0,1,10.234,2.358c6.719,4.156,6.938,11.893,5.256,18.846-1.656,6.836-5.183,14.657-11.018,18.945-5.733,4.215-14.66,4.8-21.5,4.367-8.251-.524-16.3-3.44-19.928-11.437-9.088-20.045,13.276-39.291,32.6-35.228,1.378.29,1.966-1.825.582-2.115" transform="translate(474.539 179.586)" fill="#00badf"/>
    <path id="Tracé_4846" data-name="Tracé 4846" d="M278.69,69.967c-.7,2.574-1.682,5.072-2.328,7.663a1.1,1.1,0,0,0,2.118.582c.643-2.592,1.623-5.089,2.325-7.663a1.1,1.1,0,0,0-2.115-.582" transform="translate(531.926 133.19)" fill="#00badf"/>
    <path id="Tracé_4847" data-name="Tracé 4847" d="M364.832,147.293c38.715,1.743,67.356-33.251,93.006-57.04q-.864-.663-1.723-1.328a1044.523,1044.523,0,0,0-62.788,137.483c-4.665,12.463-9.056,25.035-12.99,37.753-.418,1.351,1.7,1.928,2.115.582,14.818-47.885,34.959-94.363,57.122-139.27q8.841-17.91,18.433-35.439a1.1,1.1,0,0,0-1.723-1.331c-13.294,12.332-25.947,25.582-40.245,36.779-14.452,11.317-32.409,20.466-51.208,19.618-1.413-.064-1.407,2.129,0,2.194" transform="translate(700.257 170.161)" fill="#00badf"/>
    <path id="Tracé_4848" data-name="Tracé 4848" d="M392.367,171.154c2.706-5.288,9.676-2.755,12.2,1.217,2.805,4.414,2.738,9.965,3.674,14.935,1.477,7.854,6.1,13.66,14.4,14.429,15.684,1.454,26.714-15.1,35.72-25.614,21-24.508,41.073-49.847,60.711-75.456,9.585-12.5,19.1-25.073,28.094-38,.521-.749-.357-1.966-1.24-1.612-5.089,2.039-9.509,5.654-13.648,9.173a229.905,229.905,0,0,0-17.749,17.14,403.476,403.476,0,0,0-31.71,37.51c-12.46,16.862-19.7,36.7-26.652,56.294-3.08,8.681-6.6,20.39.983,27.866,6.309,6.221,16.348,4.832,23.885,1.992,10.843-4.086,20.118-12.1,28.246-20.147a182.975,182.975,0,0,0,24.222-29.668c.787-1.2-1.079-2.229-1.9-1.109-4.782,6.575-7.851,15.037-9.515,22.932-1.4,6.625-1.767,14.458,4.32,18.974,5.581,4.142,13.265,1.77,18.313-2.088,7.976-6.1,12.077-16.994,16.032-25.854a1.1,1.1,0,0,0-1.9-1.109c-4.9,6.485-3.554,15.573,1.392,21.651,6.008,7.383,16.471,8.667,25.234,6.5,19.6-4.847,31.786-23.464,44.047-37.943-.442.059-.886.114-1.328.173a117.362,117.362,0,0,1,10.662,6.467c5.742,3.876,12.223,8.441,15.763,14.566,4.478,7.757-3.463,15.286-10.828,17.135-11.03,2.77-22.025-4.063-29.311-11.735-.974-1.024-2.524.529-1.55,1.553,10.656,11.22,31.593,20.109,42.81,4.5,7.994-11.121-6.368-21.411-14.616-27.123a117.554,117.554,0,0,0-11.823-7.26,1.114,1.114,0,0,0-1.328.173c-10.442,12.326-19.983,26.307-34.582,34.041-8.538,4.522-20.112,6.561-28.466.433-6.733-4.94-9.4-15.122-4.18-22.025q-.947-.557-1.9-1.109c-3.624,8.126-7.263,17.515-13.8,23.8-4.379,4.212-12.384,7.617-17.728,3.171-5.9-4.911-3.99-13.639-2.208-20.024,1.81-6.493,4.387-13.209,8.38-18.7q-.948-.553-1.9-1.109c-11.253,17.173-25.913,34.594-43.746,45.2-7.406,4.405-18.7,8.8-26.9,3.931-10.884-6.473-4.829-21.493-1.58-30.578,6.505-18.182,13.437-36.477,24.947-52.161a394.542,394.542,0,0,1,28.627-34.246c5.853-6.321,11.881-12.51,18.316-18.246,4.54-4.048,9.506-8.541,15.233-10.834-.412-.538-.828-1.073-1.24-1.612-17.863,25.684-37.337,50.315-56.894,74.721-9.828,12.264-19.761,24.447-29.955,36.41-4.086,4.794-8.2,9.579-12.458,14.218-6.663,7.257-15.783,15.371-26.465,12.007-12.153-3.829-7.605-18.936-13.042-27.647-3.349-5.37-12.539-7.962-15.991-1.217-.641,1.255,1.252,2.366,1.9,1.109" transform="translate(751.398 117.397)" fill="#00badf"/>
    <path id="Tracé_4849" data-name="Tracé 4849" d="M80.819,1.652c-8.117,14.853-5.063,32.883.91,47.94a98.273,98.273,0,0,0,27.325,38.291c10.053,8.6,23.531,17.351,37.448,15.236,13.168-2,18.667-15.845,12.706-27.211-6.947-13.241-24.622-14.11-36.691-8.1-7.412,3.691-13.493,9.644-18.571,16.087C99.036,90.124,94.689,97.155,93,105c-2.556,11.817,3.03,29.329,17.409,29.9,5.941.237,10.916-3.96,10.065-10.167-.842-6.075-5.932-10.439-11.422-12.44-14.224-5.186-30.057,3.092-42.593,9.237-11.276,5.528-22.253,11.913-31.83,20.089C17.09,156.576,7.663,176.946,3.828,199.4,1.377,213.774.292,228.607,1.8,243.138A123.511,123.511,0,0,0,6.6,267.854c2.428,7.587,6.1,14.783,9.9,21.762,5.894,10.843,13.034,21.841,23.935,28.214a87.331,87.331,0,0,0,28.791,10.115c22.323,3.829,48.859.3,65.993-15.713,9.029-8.439,13.276-19.3,14.59-31.4.515-4.741.948-9.793,3.712-13.85,3.431-5.031,9.035-6.356,14.2-3,4.074,2.641,7.233,7.078,9.98,10.966a89.959,89.959,0,0,1,6.994,11.7,91.085,91.085,0,0,1,8.248,25.611c.175,1.035,1.966,1.059,2.115,0,.965-6.707-.459-13.364.1-20.071.453-5.438,3.06-12.162,8.833-13.8,6.73-1.9,12.25,4.338,15.769,9.167,3.358,4.61,6.318,9.471,9.863,13.949,6.657,8.415,15.137,16.108,25.889,18.5,9.222,2.056,19.284.339,25.991-6.672.977-1.021-.57-2.574-1.55-1.55-8.64,9.029-22.97,8.368-33.184,2.451C235.3,307.593,228.958,296.314,221.326,286c-5.054-6.836-14.163-14.362-22.341-7.3-9.609,8.289-4.5,22.236-6.04,32.976h2.115a92.188,92.188,0,0,0-18.223-41.543c-3.718-4.747-8.614-10.463-15.225-10.363-5.654.085-9.9,4.753-11.832,9.7-2.709,6.947-1.954,14.742-4.072,21.876a42.563,42.563,0,0,1-7.5,14.446c-6.6,8.278-16.011,13.859-25.953,17.164-20.507,6.821-42.7,4.92-62.513-3.109a50.791,50.791,0,0,1-22.2-16.813,129.65,129.65,0,0,1-11.744-19.466,100.858,100.858,0,0,1-8.21-20.206c-6.754-25.7-5.6-54.861,2.337-80.229,6.2-19.785,18.729-35.576,35.778-47.206a199.744,199.744,0,0,1,31.663-17.07c6.929-3.08,14.309-5.765,21.984-5.876,7.427-.108,16.8,2.969,18.772,11.1,1.2,4.937-2.34,8.643-7.233,8.626-4.036-.018-7.769-2.191-10.468-5.072-5.326-5.689-6.891-14-5.423-21.475,1.588-8.082,6.134-15.327,11.249-21.648,4.929-6.093,10.784-11.662,17.918-15.067C137.9,62.9,159.252,67.373,159.53,85.631a15.034,15.034,0,0,1-11.8,15.031c-6.71,1.591-14.055-.275-20.194-3.06-13.1-5.935-24.485-16.939-32.739-28.542C86.084,56.814,79.635,42.04,78.3,26.962c-.74-8.374.345-16.76,4.414-24.2.676-1.24-1.217-2.349-1.9-1.109" transform="translate(2.136 2.136)" fill="#00badf"/>
    <path id="Tracé_4850" data-name="Tracé 4850" d="M151.418,145.847c12.624-11.638,25.585-22.9,38.4-34.313q4.708-4.19,9.377-8.421,2.115-1.917,4.218-3.849c2.773-2.545,4.888-4.744,9.015-3.355a92.306,92.306,0,0,1,19.5,9.74c11.112,7.078,22.908,19.106,22.081,33.368-.544,9.383-8.26,12.583-16.74,12.414a24.842,24.842,0,0,1-11.545-2.785c-3.071-1.711-7.1-6.21-3.738-9.693,1.53-1.588,4.592-2.586,6.549-3.516q3-1.422,6.061-2.711,5.848-2.466,11.908-4.37a202.242,202.242,0,0,1,24.845-5.809c1.386-.249.8-2.363-.585-2.115a191,191,0,0,0-28.121,6.885c-3.811,1.3-7.561,2.785-11.249,4.411-3.58,1.577-9.035,3.083-11.507,6.312-4.256,5.563,1.986,11.445,6.768,13.478,6.622,2.814,16.207,3.393,22.657-.219,14.037-7.859,4.347-28.293-3.372-36.881-5.756-6.4-13.1-11.211-20.721-15.108-3.443-1.764-6.976-3.37-10.55-4.847-3.762-1.553-6.561-2.088-9.878.573-4.674,3.744-8.942,8.169-13.408,12.168s-8.942,7.953-13.429,11.913c-9.424,8.324-18.843,16.655-28.089,25.178-1.041.959.512,2.507,1.55,1.55" transform="translate(287.828 179.349)" fill="#00badf"/>
    <path id="Tracé_4851" data-name="Tracé 4851" d="M235.054,98.017c-9.723-4.06-21.423-6.76-31.034-1.109-7.614,4.481-12.706,10.4-13.274,19.539-.588,9.424,2.63,16.664,10.17,22.382,4.288,3.253,8.181,5.022,13.633,4.765,4.311-.2,8.254-1.1,10.9-4.689,4.165-5.645,6.482-13.127,8.684-19.711,2.179-6.508,3.829-13.162,5.446-19.828l-2.156-.29a41.023,41.023,0,0,0,8.643,25.988c5.429,7.1,13.589,13.78,22.756,14.83A15,15,0,0,0,285.4,128.664c2.205-7.93-.082-16.857-4.49-23.613-5.285-8.1-15.842-13.464-24.789-7.622a1.118,1.118,0,0,0-.222,1.723c5.666,6.833,15.377,4.484,22.549,1.764,2.153-.816,4.621-.758,6.3,1.082.954,1.044,1.375,3.1,1.866,4.414,1.009,2.714,1.875,5.478,2.741,8.24a101.678,101.678,0,0,0,5.677,15.295c4.031,8.047,11.443,15.265,20.726,16.418,7.862.974,16.494-4.139,19.357-11.58,3.329-8.649-.863-18.872-6.312-25.664-4.56-5.68-13.5-8.459-19.556-3.261-3.171,2.72-3.779,6.7.594,8.213,4.657,1.615,10.468.518,15.186-.178,16.9-2.492,33.491-7.5,49.809-12.437a1.1,1.1,0,0,0-.582-2.118c-11.8,3.574-23.666,6.979-35.688,9.711a150.882,150.882,0,0,1-17.734,3.188c-2.785.29-9.088,1.436-11.454-.8-1.971-1.863,1.512-4.314,3.071-5.084,4.572-2.249,10-.673,13.478,2.8,5.838,5.829,10.158,16.473,7.251,24.59-3.384,9.445-14.859,12.7-23.33,8.553-9-4.4-13.434-13.253-16.491-22.326-1.585-4.7-2.9-9.492-4.63-14.142-1.1-2.951-2.255-7.35-5.9-8s-8.14,2.352-11.685,3.086c-4.926,1.021-10.252.839-13.695-3.311q-.11.86-.222,1.723c10.863-7.093,21.619,3.747,25.126,13.554,2.673,7.476,2.9,18.661-4.882,23.256-9.53,5.622-21.355-2.922-27.562-9.854A39.314,39.314,0,0,1,239.62,99.075a1.1,1.1,0,0,0-2.156-.292,207.725,207.725,0,0,1-8.333,27.743c-1.688,4.256-3.855,11.586-8.427,13.663-4.107,1.863-10.337,1.89-14.318-.26-7.921-4.279-13.136-11-13.478-20.042-.333-8.828,3.106-15.371,10.512-20.048,9.81-6.192,20.852-3.966,31.052.292,1.3.544,1.869-1.577.582-2.115" transform="translate(367.052 180.345)" fill="#00badf"/>
    <path id="Tracé_4852" data-name="Tracé 4852" d="M284.947,95.014c-18.658-3.922-39.783,11.524-37.086,31.441a21.308,21.308,0,0,0,16.277,18.369c8.638,2.264,19.15,1.784,27.354-1.9,7.362-3.305,11.773-11.84,14.087-19.164,2.267-7.193,3.22-16.222-2.755-21.908-5.242-4.987-14.166-6.508-20.53-2.823-4.66,2.7-6.941,8.032-1.819,11.519,5.8,3.946,14.824,2.869,21.273,1.688,8.085-1.48,17.02-4.56,22.633-10.872q-.917-.531-1.834-1.068c-3.735,9.3-1.758,20.6,2.431,29.4,4.768,10.021,13.627,16.251,24.973,16.1,11.147-.143,20.747-7.134,27.331-15.666,3.662-4.747,13.742-20.545,3.741-24.052-2.682-.942-6.909-.439-8.047,2.606-1.436,3.84,3.861,6.493,6.847,7.149,5.192,1.138,10.8-.409,15.766-1.881,5.584-1.658,11.024-3.592,16.438-5.73,4.563-1.8,10.641-5.075,15.713-4.534,3.993.424,4.112,6.774,4.417,9.819.863,8.62-.348,18.679,2.943,26.857,4.206,10.451,18.925,9.974,27.951,8.263,16.117-3.054,29.06-14.417,44.378-19.653,1.328-.453.758-2.574-.582-2.115-11.223,3.835-21.066,10.662-31.83,15.511-9.2,4.145-22.122,7.754-31.8,3.024-8.111-3.966-7.722-12.946-8.155-20.8-.345-6.257.354-14.7-2.823-20.375-3.206-5.733-12.613-1.255-16.982.4-9.117,3.454-18.4,7.669-28.13,9.091a18,18,0,0,1-7.541-.193c-2.4-.7-7.16-4.2-2.542-5.517,8.123-2.311,5.455,8.576,3.662,12.419-4.089,8.778-11.41,16.915-20.349,20.858-11.621,5.125-25.187,1.468-31.768-9.48-5.3-8.816-7.865-21.124-3.925-30.926.41-1.027-1.135-1.854-1.834-1.068-7.707,8.664-22.555,12.007-33.716,11.03-3.01-.263-11.3-1.808-9.214-6.648,1.325-3.077,5.806-4.619,8.825-4.917a16.624,16.624,0,0,1,10.234,2.358c6.719,4.156,6.938,11.893,5.256,18.846-1.656,6.836-5.183,14.657-11.018,18.945-5.733,4.215-14.66,4.8-21.5,4.367-8.251-.524-16.3-3.44-19.928-11.437-9.088-20.045,13.276-39.291,32.6-35.228,1.378.29,1.966-1.825.582-2.115" transform="translate(476.676 181.721)" fill="#00badf"/>
    <path id="Tracé_4853" data-name="Tracé 4853" d="M279.8,71.077c-.7,2.574-1.682,5.072-2.328,7.663a1.1,1.1,0,0,0,2.118.582c.644-2.592,1.623-5.089,2.325-7.663a1.1,1.1,0,0,0-2.115-.582" transform="translate(534.063 135.327)" fill="#00badf"/>
    <path id="Tracé_4854" data-name="Tracé 4854" d="M365.941,148.4c38.715,1.743,67.356-33.251,93.005-57.04q-.864-.663-1.723-1.328a1044.541,1044.541,0,0,0-62.788,137.483c-4.665,12.463-9.056,25.035-12.99,37.753-.418,1.351,1.7,1.928,2.115.582,14.818-47.885,34.959-94.363,57.122-139.27q8.841-17.91,18.433-35.439a1.1,1.1,0,0,0-1.723-1.331c-13.294,12.332-25.947,25.582-40.245,36.779-14.452,11.317-32.409,20.466-51.208,19.618-1.413-.064-1.407,2.129,0,2.194" transform="translate(702.392 172.296)" fill="#00badf"/>
    <path id="Tracé_4855" data-name="Tracé 4855" d="M393.477,172.264c2.706-5.288,9.679-2.755,12.2,1.217,2.805,4.414,2.738,9.965,3.674,14.935,1.477,7.854,6.1,13.66,14.4,14.429,15.684,1.454,26.714-15.1,35.72-25.614,21-24.508,41.073-49.847,60.711-75.456,9.585-12.5,19.1-25.073,28.094-38,.521-.749-.357-1.966-1.24-1.612-5.089,2.039-9.509,5.654-13.648,9.173a229.333,229.333,0,0,0-17.749,17.14,403.479,403.479,0,0,0-31.71,37.51c-12.46,16.862-19.7,36.7-26.652,56.294-3.08,8.681-6.6,20.39.983,27.866,6.309,6.221,16.348,4.832,23.885,1.992,10.843-4.086,20.118-12.1,28.247-20.147a182.975,182.975,0,0,0,24.222-29.668c.787-1.2-1.079-2.229-1.9-1.109-4.782,6.575-7.851,15.037-9.515,22.932-1.4,6.625-1.767,14.458,4.32,18.974,5.581,4.142,13.265,1.77,18.313-2.088,7.976-6.1,12.077-16.994,16.032-25.854a1.1,1.1,0,0,0-1.9-1.109c-4.9,6.485-3.554,15.573,1.392,21.651,6.008,7.383,16.47,8.667,25.234,6.5,19.6-4.847,31.786-23.464,44.047-37.943-.442.059-.886.114-1.328.173a117.366,117.366,0,0,1,10.661,6.467c5.742,3.873,12.227,8.441,15.763,14.566,4.478,7.757-3.463,15.286-10.828,17.135-11.03,2.77-22.025-4.063-29.311-11.735-.974-1.024-2.524.529-1.55,1.553,10.656,11.22,31.593,20.109,42.81,4.5,7.994-11.121-6.368-21.411-14.616-27.123a117.214,117.214,0,0,0-11.823-7.26,1.114,1.114,0,0,0-1.328.173c-10.442,12.326-19.983,26.307-34.582,34.041-8.538,4.522-20.112,6.561-28.466.433-6.733-4.94-9.4-15.122-4.18-22.025q-.948-.557-1.9-1.109c-3.624,8.123-7.263,17.515-13.8,23.8-4.379,4.212-12.384,7.617-17.728,3.171-5.9-4.911-3.99-13.639-2.208-20.024,1.811-6.493,4.387-13.209,8.38-18.7q-.948-.553-1.9-1.109c-11.252,17.173-25.912,34.594-43.746,45.2-7.406,4.405-18.7,8.8-26.9,3.931-10.884-6.473-4.829-21.493-1.579-30.578,6.505-18.182,13.437-36.477,24.947-52.161a394.548,394.548,0,0,1,28.627-34.246c5.853-6.321,11.881-12.51,18.316-18.246,4.54-4.048,9.506-8.541,15.233-10.834-.412-.538-.828-1.073-1.24-1.612-17.863,25.684-37.337,50.315-56.894,74.721-9.828,12.264-19.761,24.447-29.955,36.41-4.086,4.794-8.2,9.579-12.458,14.218-6.663,7.257-15.783,15.371-26.465,12.007-12.153-3.829-7.6-18.936-13.04-27.647-3.352-5.37-12.542-7.962-15.994-1.217-.641,1.255,1.252,2.366,1.9,1.109" transform="translate(753.534 119.534)" fill="#00badf"/>
  </g>
</svg>
