<svg xmlns="http://www.w3.org/2000/svg" width="295.52" height="284.141" viewBox="0 0 295.52 284.141">
  <g id="Illu" transform="translate(-5231.237 -2694.902)">
    <path id="Tracé_6058" data-name="Tracé 6058" d="M42,1617.626,1.237,1708.047,31.484,1818.3l142.527,50.338,122.746-125.5s-34.879-124.7-43.48-125.507-94.008-33.129-94.008-33.129Z" transform="translate(5230 1110.405)" fill="#fff"/>
    <g id="Groupe_1372" data-name="Groupe 1372">
      <path id="Tracé_6059" data-name="Tracé 6059" d="M126.888,1792.5a70.254,70.254,0,0,1-53.52-76.3l10.736,2.513a3.9,3.9,0,0,0,4.207-5.854l-23.834-38.468a3.9,3.9,0,0,0-5.377-1.26l-.009.006-38.264,23.931a3.9,3.9,0,0,0,1.18,7.108l11.611,2.72a110.711,110.711,0,0,0,84.063,125.33,3.906,3.906,0,0,0,4.691-2.916v0l7.428-32.12A3.9,3.9,0,0,0,126.888,1792.5Z" transform="translate(5230 1110.405)" fill="#064a44"/>
      <path id="Tracé_6060" data-name="Tracé 6060" d="M248.38,1691.727a3.9,3.9,0,0,0-4.865-2.607l-.014,0-31.363,9.589a3.9,3.9,0,0,0-2.6,4.86,70.427,70.427,0,0,1-38.868,84.8l-3.211-10.628a3.9,3.9,0,0,0-7.184-.7l-21.192,40a3.9,3.9,0,0,0,1.6,5.263l39.731,21.374a3.9,3.9,0,0,0,5.585-4.566l-3.473-11.5A110.91,110.91,0,0,0,248.38,1691.727Z" transform="translate(5230 1110.405)" fill="#82b340"/>
      <path id="Tracé_6061" data-name="Tracé 6061" d="M91.294,1680.973a3.9,3.9,0,0,0,2.675,1.06c.044,0,.086,0,.13,0a3.9,3.9,0,0,0,2.729-1.243,69.523,69.523,0,0,1,92.4-8.483l-7.566,8.136a3.9,3.9,0,0,0,2.858,6.56c.044,0,.088,0,.134,0l45.029-1.532a3.9,3.9,0,0,0,3.766-4.022l-1.466-45.311a3.9,3.9,0,0,0-6.76-2.531l-8.13,8.741a109.61,109.61,0,0,0-149.92,10.6,3.9,3.9,0,0,0,.183,5.5Z" transform="translate(5230 1110.405)" fill="#15803f"/>
    </g>
  </g>
</svg>
