<svg xmlns="http://www.w3.org/2000/svg" xmlns:xlink="http://www.w3.org/1999/xlink" width="315.693" height="330.462" viewBox="0 0 315.693 330.462">
  <defs>
    <clipPath id="clip-path">
      <path id="Tracé_6088" data-name="Tracé 6088" d="M150.058,106.758v33.559l29.1-.567V100.5Z" fill="none"/>
    </clipPath>
  </defs>
  <g id="PERSO" transform="translate(-5243.105 -758.405)">
    <path id="Tracé_6084" data-name="Tracé 6084" d="M318.96,75.927l-5.278-22.144-20.39,6.328-13,18.629-14.063,1.413,1.4,17.569-2.106,24.62-13.357,24.607-16.169-21.794-22.5-3.52-21.808-4.918.707-18.289,10.544-24.607,41.482-9.144-7.025-15.463-16.169-9.851L209.268,26.007,188.18,2.813,167.079,0h-27.42L119.265,14.756l-25.3-.693L74.276,28.819l8.438,18.289,30.926,7.731L112.946,70.3l2.106,23.207,6.332,20.395-21.1,14.756L67.238,163.118l-33.045,38.67L13.1,239.059l10.544,21.088,16.876,24.607L80.6,308.667l43.6,14.757,27.419,7.038,49.921-3.519,35.151-4.212-.693-14.064-7.038-30.938-1.4-56.253,13.357,34.458,33.751,4.919,18.982-18.982,2.812-33.044,7.732-44.309,4.918-29.526L328.8,110.385V88.591ZM110.827,264l-21.8-33.125,22.675-23.967c2.173,5.665-.88,57.092-.88,57.092" transform="translate(5230 758.405)" fill="#fff"/>
    <path id="Tracé_6085" data-name="Tracé 6085" d="M95.014,38.013c19.9,20.517,104.131,23.512,127.434,22.527-33.054-21.009-70.877-15.57-107.319-24.111-1.664-.326-18.833-1.763-20.115,1.584" transform="translate(5230 758.405)" fill="#d4c4ad"/>
    <path id="Tracé_6086" data-name="Tracé 6086" d="M179.156,100.5v39.247l-29.1.568V106.758Z" transform="translate(5230 758.405)" fill="#ffdbb3"/>
    <g id="Groupe_1362" data-name="Groupe 1362" transform="translate(5230 758.405)">
      <g id="Groupe_1361" data-name="Groupe 1361" clip-path="url(#clip-path)">
        <path id="Tracé_6087" data-name="Tracé 6087" d="M144.164,114.816,180.377,119l-.5-18.5Z" fill="#e8a964"/>
      </g>
    </g>
    <path id="Tracé_6089" data-name="Tracé 6089" d="M220.439,134.436l-.666,50.827-.081,6.3L218.2,305.392v.013s-.454.28-1.32.787c-.92.533-2.293,1.293-4.052,2.213l-1.56.8c-2.039,1.026-4.465,2.172-7.185,3.345l-.013.014a164.253,164.253,0,0,1-19.289,2.106q-4.379.24-8.824.24a169.037,169.037,0,0,1-18.089-.96A171.055,171.055,0,0,1,139.82,311l-2.186.053-5.519-1.946c-.2-.053-.387-.093-.573-.16h-.227l.053-.053c-.519-.133-1.039-.28-1.559-.427H129.8c-1.147-.32-2.28-.666-3.413-1.013-.147-.04-.28-.093-.426-.133l-.614.013h-.013a1.24,1.24,0,0,1-.013-.226c-.08-1.56-.16-3.493-.267-5.706v-.053c-.066-1.373-.133-2.852-.2-4.412v-.013c-.026-.28-.04-.547-.053-.84v-.027c-.027-.666-.053-1.359-.093-2.066v-.04c-.094-2.186-.2-4.5-.307-6.892-.653-14.556-1.4-31.9-1.64-40.789,0-.28-.013-.56-.026-.84-.027-.426-.04-.84-.04-1.239-.014-.987-.027-1.8-.027-2.426,0-.8-.08-2.133-.226-3.919,0-.067-.014-.107-.014-.174-.613-7.691-2.386-23.327-4.385-39.9-.374-3.146-.76-6.345-1.16-9.518-1.48-12.157-2.959-24.074-4.092-33.058-.08-.68-.174-1.346-.254-2-.04-.347-.08-.694-.133-1.04-.067-.587-.147-1.147-.213-1.693a.1.1,0,0,0-.013-.053c-.027-.294-.067-.574-.107-.853-.067-.547-.133-1.094-.2-1.613-.027-.254-.067-.507-.093-.76s-.067-.507-.107-.76q-.06-.5-.12-.96c-.053-.426-.107-.853-.16-1.239-.027-.254-.067-.494-.093-.734q-.141-1.119-.24-1.919c-.027-.174-.054-.32-.067-.467-.027-.226-.053-.426-.08-.6a1.044,1.044,0,0,0-.026-.2c0-.067-.014-.134-.014-.187a1.84,1.84,0,0,0-.04-.213,1.2,1.2,0,0,1-.013-.147l7.718-1.786v-.014l6.811-1.586c.014,0,.014.013.027,0l4.266-.986,10.677-2.48.16-.04,8.824-2.039,3.253-.76,8.771-2.039,14.6,1.586,3.386.36,13,1.413,13.929,1.506,5.865.627h.014l5.652.613Z" transform="translate(5230 758.405)" fill="#ffdbb3"/>
    <path id="Tracé_6090" data-name="Tracé 6090" d="M140.6,40.25a77.3,77.3,0,0,0-8.353,31.579c-.979,21.749,7.459,38.951,11.92,42.987,7.55,3.943,24.991-3.744,31.169-7.978,8.494-5.819,8.7-9.772,8.237-20.778-.4-9.438-.687-43.364-.687-43.364Z" transform="translate(5230 758.405)" fill="#ffdbb3"/>
    <path id="Tracé_6091" data-name="Tracé 6091" d="M149.3,47.069h0a6.335,6.335,0,0,1-6.318-6.318V29.74a6.318,6.318,0,0,1,12.635-.183q0,.092,0,.183V40.76a6.336,6.336,0,0,1-6.318,6.317Z" transform="translate(5230 758.405)" fill="#fecc3e"/>
    <path id="Tracé_6092" data-name="Tracé 6092" d="M159.244,47.069h0a6.335,6.335,0,0,1-6.318-6.318V29.74a6.318,6.318,0,0,1,12.635,0V40.76a6.336,6.336,0,0,1-6.318,6.317Z" transform="translate(5230 758.405)" fill="#fecc3e"/>
    <path id="Tracé_6093" data-name="Tracé 6093" d="M166.355,47.069h0a6.334,6.334,0,0,1-6.318-6.318V29.74a6.318,6.318,0,0,1,12.635-.183q0,.092,0,.183V40.76a6.335,6.335,0,0,1-6.318,6.317Z" transform="translate(5230 758.405)" fill="#fecc3e"/>
    <path id="Tracé_6094" data-name="Tracé 6094" d="M171.579,49.242h0c-3.343-.821-5.3-3.866-4.352-6.756l4.009-12.233a6.519,6.519,0,0,1,7.8-3.768c3.344.821,5.3,3.866,4.353,6.755l-4.01,12.232a6.519,6.519,0,0,1-7.8,3.769Z" transform="translate(5230 758.405)" fill="#fecc3e"/>
    <path id="Tracé_6095" data-name="Tracé 6095" d="M173.247,49.038h0c-2.081-1.689-2.4-4.346-.721-5.9l9.016-8.329a5.435,5.435,0,0,1,6.846.244c2.081,1.688,2.4,4.344.72,5.9l-9.016,8.329a5.437,5.437,0,0,1-6.846-.243Z" transform="translate(5230 758.405)" fill="#fecc3e"/>
    <path id="Tracé_6096" data-name="Tracé 6096" d="M137.945,27.964h0a6.955,6.955,0,0,1,8.744,1.586l8.036,10.644a5.058,5.058,0,0,1-1.833,7.57,6.956,6.956,0,0,1-8.745-1.586l-8.032-10.642a5.056,5.056,0,0,1,1.833-7.571Z" transform="translate(5230 758.405)" fill="#fecc3e"/>
    <path id="Tracé_6097" data-name="Tracé 6097" d="M131.839,35.4h0c2.755-1.888,6.381-1.921,8.058-.073l7.089,7.808c1.677,1.848.8,4.9-1.96,6.8s-6.381,1.921-8.058.074L129.879,42.2c-1.676-1.847-.8-4.9,1.96-6.8" transform="translate(5230 758.405)" fill="#fecc3e"/>
    <path id="Tracé_6098" data-name="Tracé 6098" d="M180.142,44.087s-2.365,6.485-2.133,11.517,5.218,15.714,5.218,15.714,1.271-16.672,2.256-20.938c.763-3.3,3.229-9.914,3.229-9.914Z" transform="translate(5230 758.405)" fill="#fecc3e"/>
    <path id="Tracé_6099" data-name="Tracé 6099" d="M179.881,65.627a6.515,6.515,0,0,1,5.2-2.651c3.667.276,5.136,4.581,5.2,4.784,1.2,3.719-1.186,7.353-2.8,9.807a25.711,25.711,0,0,1-6,5.732Z" transform="translate(5230 758.405)" fill="#ffdbb3"/>
    <path id="Tracé_6100" data-name="Tracé 6100" d="M181.836,71.479a1,1,0,0,1-.864-1.5,6.132,6.132,0,0,1,3.249-2.7l.07-.022a5.3,5.3,0,0,1,3.669.32,1,1,0,1,1-.856,1.808,3.3,3.3,0,0,0-2.248-.208,4.13,4.13,0,0,0-2.154,1.8A1,1,0,0,1,181.836,71.479Z" transform="translate(5230 758.405)" fill="#e8a964"/>
    <path id="Tracé_6101" data-name="Tracé 6101" d="M184.455,74.865a1,1,0,0,1-.843-1.537,4.818,4.818,0,0,0,.634-3.616,1,1,0,0,1,1.952-.437,6.832,6.832,0,0,1-.9,5.128A1,1,0,0,1,184.455,74.865Z" transform="translate(5230 758.405)" fill="#e8a964"/>
    <path id="Tracé_6102" data-name="Tracé 6102" d="M139.633,51.058c-1.333.633-2.286-1.026-4.784-1.321-2.933-.345-4,1.665-6.132.849a4.754,4.754,0,0,1-2.539-3.079c-.643-2.546,1.238-5.077,3.214-6.184,3-1.679,6.209-.062,6.985.329,2.543,1.284,5.048,4.133,4.665,6.932-.039.28-.267,1.932-1.4,2.472Z" transform="translate(5230 758.405)" fill="#fecc3e"/>
    <path id="Tracé_6103" data-name="Tracé 6103" d="M165.1,60.794c0,2.01-.83,3.64-1.856,3.64s-1.855-1.63-1.855-3.64.832-3.64,1.855-3.64,1.856,1.63,1.856,3.64" transform="translate(5230 758.405)" fill="#663224"/>
    <path id="Tracé_6104" data-name="Tracé 6104" d="M145.434,60.794c0,2.01-.83,3.64-1.856,3.64s-1.855-1.63-1.855-3.64.832-3.64,1.855-3.64,1.856,1.63,1.856,3.64" transform="translate(5230 758.405)" fill="#663224"/>
    <path id="Tracé_6105" data-name="Tracé 6105" d="M184.532,77.823a69.57,69.57,0,0,1-12.264,7.946c-7.123,3.619-9.448,4.984-14.617,5.944.292-.333-4.4-.783-5.216-.987a24.59,24.59,0,0,1,12.181-12.771,24.846,24.846,0,0,1,19.919-.133Z" transform="translate(5230 758.405)" fill="#fec421"/>
    <path id="Tracé_6106" data-name="Tracé 6106" d="M158.148,91.733q-.538.085-1.145.167a44.588,44.588,0,0,1-34.155-9.783,26.42,26.42,0,0,1,34.391,8.23c.446.636.749,1.118.906,1.386Z" transform="translate(5230 758.405)" fill="#fec421"/>
    <path id="Tracé_6107" data-name="Tracé 6107" d="M147.721,111.8a1,1,0,0,1-.768-.359,3.934,3.934,0,0,0-2.1-1.3,1,1,0,1,1,.459-1.947,5.946,5.946,0,0,1,3.18,1.965,1,1,0,0,1-.767,1.641Z" transform="translate(5230 758.405)" fill="#e8a964"/>
    <path id="Tracé_6108" data-name="Tracé 6108" d="M157.328,103.767a10.725,10.725,0,0,1-5.6-1.577,1,1,0,0,1-.106-.075,24.27,24.27,0,0,1-4.268-4.449,1,1,0,0,1,1.607-1.19,22.271,22.271,0,0,0,3.865,4.041,8.725,8.725,0,0,0,7.132.844,9.4,9.4,0,0,0,5.134-4.163l.014-.022a10.684,10.684,0,0,0,1.611-5.473,1,1,0,0,1,2,.032,12.684,12.684,0,0,1-1.906,6.486,11.4,11.4,0,0,1-6.228,5.04l-.014,0A10.726,10.726,0,0,1,157.328,103.767Z" transform="translate(5230 758.405)" fill="#e8a964"/>
    <path id="Tracé_6109" data-name="Tracé 6109" d="M153.831,82.656a4.17,4.17,0,0,1-2.469-.721c-2.286-1.626-1.85-5.122-1.345-9.17a40.229,40.229,0,0,1,3.162-11.3,1,1,0,1,1,1.827.814,38.224,38.224,0,0,0-3,10.735c-.425,3.411-.793,6.358.521,7.292s4.007-.178,5.4-.978a1,1,0,1,1,1,1.734A11.332,11.332,0,0,1,153.831,82.656Z" transform="translate(5230 758.405)" fill="#e8a964"/>
    <path id="Tracé_6110" data-name="Tracé 6110" d="M173.441,56.1a2.989,2.989,0,0,1-1.233-.266A16.737,16.737,0,0,0,160.36,55.1a3,3,0,0,1-1.776-5.731,22.732,22.732,0,0,1,16.093,1,3,3,0,0,1-1.236,5.735Z" transform="translate(5230 758.405)" fill="#fec421"/>
    <path id="Tracé_6111" data-name="Tracé 6111" d="M135.088,57.963a3,3,0,0,1-2.381-4.823,14.741,14.741,0,0,1,9.163-5.574,14.512,14.512,0,0,1,8.424,1.166,3,3,0,0,1-2.528,5.442,8.488,8.488,0,0,0-4.908-.69,8.723,8.723,0,0,0-5.385,3.3A3,3,0,0,1,135.088,57.963Z" transform="translate(5230 758.405)" fill="#fec421"/>
    <path id="Tracé_6112" data-name="Tracé 6112" d="M254.489,246.593l19.354-26.968L237.859,139.7c-7.131-8.551-23.316-9.133-30.554-3.866l-6.345,5.417c-7.879,5.732-6.132,14.569,1.577,23.921l1.979,2.4Z" transform="translate(5230 758.405)" fill="#e24729"/>
    <path id="Tracé_6113" data-name="Tracé 6113" d="M63.935,244.171,38.032,221.8,104.5,141.419c8.265-7.465,23.5-6.976,29.927-.743l4.916,5.779c5.884,8.6,3.507,16-5.444,24.166l-2.3,2.1Z" transform="translate(5230 758.405)" fill="#e24729"/>
    <path id="Tracé_6114" data-name="Tracé 6114" d="M219.146,309.284c-1.373.373-2.759.72-4.146,1.04-3.585.866-7.238,1.613-10.917,2.226l-.013.013a164.253,164.253,0,0,1-19.289,2.106q-4.379.24-8.824.24a169.037,169.037,0,0,1-18.089-.96A170.8,170.8,0,0,1,139.82,311l-2.186.054-5.519-1.946c-.2-.054-.387-.094-.573-.16h-.227l.053-.054c-.519-.133-1.039-.28-1.559-.426H129.8c-1.147-.32-2.28-.667-3.413-1.013-.147-.04-.28-.094-.426-.134l.6-.013,6.811-.146,13.29-.28h.013l9.931-.2,29.046-.614,23.98-.506,6.4-.133,2.173-.04v.013l.479,1.959.134.534Z" transform="translate(5230 758.405)" fill="#064a44"/>
    <path id="Tracé_6116" data-name="Tracé 6116" d="M220.439,134.436l-.52,51.32v.013l-.066,6.052-1.174,115.544v.413l-.013,1.24-5.012.12-2.386.067-26.127.653-27.819.706-9.491.24h-.187l-6.331.16h-.147l-1.346.04-2.186.053-5.519-1.946c-.2-.053-.387-.093-.573-.16h-.227l.053-.053c-.519-.133-1.039-.28-1.559-.427H129.8c-1.147-.32-2.28-.666-3.413-1.013-.147-.04-.28-.093-.426-.133l-.614.013v-.213c-.066-1.56-.159-3.493-.253-5.719v-.053c-.067-1.386-.133-2.879-.187-4.479-.026-.36-.039-.719-.053-1.093-.026-.586-.053-1.173-.08-1.773v-.053c-.093-2.186-.2-4.5-.293-6.9-.6-13.8-1.293-30.325-1.72-40.776,0-.28-.013-.56-.026-.84-.027-.426-.04-.84-.04-1.239-.12-2.72-.2-4.906-.253-6.345,0-.067-.014-.107-.014-.174-.186-4.959-2.119-21.834-4.345-40.216v-.027c-.374-3.052-.747-6.158-1.133-9.237-1.493-12.037-3-23.968-4.159-32.992-.08-.68-.174-1.346-.254-2-.04-.347-.08-.694-.133-1.04-.067-.587-.147-1.147-.213-1.693a.1.1,0,0,0-.013-.053c-.027-.294-.067-.574-.107-.853-.067-.547-.133-1.094-.2-1.613-.027-.254-.067-.507-.093-.76s-.067-.507-.107-.76q-.06-.5-.12-.96c-.053-.426-.107-.853-.16-1.239-.027-.254-.067-.494-.093-.734q-.141-1.119-.24-1.919c-.027-.174-.054-.32-.067-.467-.027-.226-.053-.426-.08-.6a1.044,1.044,0,0,0-.026-.2c0-.067-.014-.134-.014-.187a1.84,1.84,0,0,0-.04-.213,1.2,1.2,0,0,1-.013-.147l7.718-1.786,6.838-1.587v-.013l4.266-.986,10.677-2.48.16-.026,8.824-2.053,5.812,5.026.013.013h.014l9.477,19.395L173.3,134.1l6-4.119.613-.427,12.544,1.506.026.014,13.8,1.653,6.065.733,5.425.653Z" transform="translate(5230 758.405)" fill="#e24729"/>
    <path id="Tracé_6117" data-name="Tracé 6117" d="M150.053,124.454l5.072,11.421-3.739,12.875-11.077-16.094Z" transform="translate(5230 758.405)" fill="#e25135"/>
    <path id="Tracé_6118" data-name="Tracé 6118" d="M151.391,149.751a1,1,0,0,1-.819-.427l-11.084-15.833a1,1,0,0,1,1.638-1.147l9.882,14.116,1.843-6.418a1,1,0,0,1,1.922.552l-2.422,8.432a1,1,0,0,1-.961.724Z" transform="translate(5230 758.405)" fill="#dcd9d9"/>
    <path id="Tracé_6119" data-name="Tracé 6119" d="M173.308,134.1l5.62-9.648,13.56,6.621L182.9,147.3Z" transform="translate(5230 758.405)" fill="#e25135"/>
    <path id="Tracé_6120" data-name="Tracé 6120" d="M182.9,148.3a1,1,0,0,1-.809-.412l-7.561-10.406a1,1,0,1,1,1.618-1.176l6.662,9.168,8.223-14.053a1,1,0,0,1,1.726,1.01l-9,15.374a1,1,0,0,1-.814.494Z" transform="translate(5230 758.405)" fill="#dcd9d9"/>
    <path id="Tracé_6121" data-name="Tracé 6121" d="M207.082,129.563l-11.349,44.69h11.9l10.942-43.323Z" transform="translate(5230 758.405)" fill="#064a44"/>
    <path id="Tracé_6122" data-name="Tracé 6122" d="M220.433,132.448l-1.86-1.51-.479,1.9Z" transform="translate(5230 758.405)" fill="#064a44"/>
    <path id="Tracé_6123" data-name="Tracé 6123" d="M129.013,133.469l13.674,42.239h-11.9l-13.272-40.859Z" transform="translate(5230 758.405)" fill="#064a44"/>
    <path id="Tracé_6124" data-name="Tracé 6124" d="M117.521,134.84l.792,2.437-2.875.666Z" transform="translate(5230 758.405)" fill="#064a44"/>
    <path id="Tracé_6125" data-name="Tracé 6125" d="M223.771,307.991c-1.226.36-2.453.72-3.692,1.04-.307.093-.614.173-.933.253-1.373.373-2.76.72-4.146,1.04-3.586.866-7.238,1.613-10.917,2.226l-.014.013a164.213,164.213,0,0,1-19.288,2.106q-4.379.24-8.824.24a169.024,169.024,0,0,1-18.089-.96A171.029,171.029,0,0,1,139.819,311l-2.186.053-5.518-1.946c-.2-.054-.387-.094-.574-.16h-.226l.053-.054c-.52-.133-1.04-.279-1.56-.426h-.013c-1.146-.32-2.279-.667-3.412-1.013-.147-.04-.28-.093-.427-.134l-.613.014h-.013a1.168,1.168,0,0,1-.014-.227c-.866-.266-1.733-.546-2.586-.839-.586-.187-1.173-.387-1.746-.587-.173-.053-.333-.12-.506-.173q.02-.441.04-.88.039-.8.079-1.6c.014-.506.041-1.026.08-1.533.027-.813.067-1.613.12-2.412.04-.774.067-1.546.107-2.306.027-.573.053-1.16.093-1.733.014-.48.04-.96.067-1.44.013-.253.013-.506.04-.746.067-1.68.147-3.319.227-4.933.053-1.452.12-2.879.186-4.252.04-.666.067-1.333.094-1.973,0-.239.013-.466.026-.706.014-.427.04-.853.053-1.266.014-.254.014-.507.027-.747.027-.586.04-1.173.067-1.733,0-.2.013-.4.027-.6.013-.6.04-1.173.053-1.746.013-.52.027-1.026.053-1.519.027-.947.054-1.866.08-2.72.04-2.186.053-4.065.04-5.558-.08-6.292-.6-16.1-1.226-26.26-.054-.893-.107-1.786-.173-2.693-.067-.946-.12-1.906-.187-2.866-.187-2.746-.373-5.478-.547-8.131-.106-1.586-.226-3.159-.333-4.679-.08-1.026-.147-2.026-.213-2.986-.053-.666-.094-1.319-.147-1.959-.04-.48-.066-.96-.106-1.427-.094-1.413-.187-2.746-.294-4.012v-.013c-.04-.56-.08-1.093-.12-1.626v-.014c-.04-.52-.08-1.039-.12-1.533-.08-.986-.146-1.893-.213-2.732-.093-1.267-.186-2.346-.24-3.2-.053-.6-.093-1.093-.12-1.453-.026-.494-.053-.76-.053-.76h-.013l.106-.987.04-.319v-.027l1.266-11.771v-.013l1.547-14.383,8.424-.12,4.079-.066h.014l7.744-.107,55.626-.813,9.291-.134,2.639-.039,6.625-.094,4.439,15.369.147.494v.013l.386,1.333s-.013,1.986-.026,5.4c.013.506,0,1.053,0,1.613,0,1.573,0,3.372-.014,5.358-.026,15.5-.04,42.549.147,63.1.013,1.333.027,2.626.04,3.906.027,1.973.04,3.879.067,5.692.013.506.013,1,.026,1.492.027,1.947.067,3.773.093,5.452.014.44.027.853.04,1.267.014.8.04,1.546.054,2.266.053,1.493.093,2.8.146,3.892.027.507.054.973.08,1.373.014.28.027.547.054.773a9.806,9.806,0,0,0,.173,1.427c.12.506.32,1.573.546,3.105.041.254.094.534.134.827.013.12.04.24.053.373.16,1.08.347,2.333.533,3.719.107.707.214,1.467.32,2.253.094.733.2,1.493.307,2.279.226,1.667.453,3.44.693,5.319" transform="translate(5230 758.405)" fill="#064a44"/>
    <path id="Tracé_6126" data-name="Tracé 6126" d="M218.812,307.9l1.266,1.133c-.306.093-.613.173-.933.253-1.373.373-2.759.72-4.146,1.04l-1.346-1.186-.826-.734-3.2-2.839-15.01-13.29,2.893-3.252,18.515,16.409.853.76,1.8,1.586Z" transform="translate(5230 758.405)" fill="#053833"/>
    <path id="Tracé_6127" data-name="Tracé 6127" d="M150.4,292.448l-5.4,4.665-6.078,5.252-.013.014-.014.013-.546.467-4.986,4.3-1.359,1.186-.64.547c-.52-.133-1.04-.28-1.56-.426h-.013c-1.146-.32-2.279-.667-3.413-1.013l.174-.147,6.878-5.945.547-.493h.013l6.292-5.426,7.265-6.278Z" transform="translate(5230 758.405)" fill="#053833"/>
    <path id="Tracé_6128" data-name="Tracé 6128" d="M184.782,316.169h-.058a1.5,1.5,0,0,1-1.442-1.556c.063-1.665.191-3.365.368-4.918.156-1.488.34-2.7.45-3.423.025-.161.046-.3.063-.416q.006-.039.014-.078l.08-.4a1.5,1.5,0,1,1,2.942.588l-.072.362c-.017.113-.037.245-.06.4-.113.744-.284,1.869-.433,3.291l0,.014c-.169,1.481-.291,3.105-.351,4.7A1.5,1.5,0,0,1,184.782,316.169Z" transform="translate(5230 758.405)" fill="#053833"/>
    <path id="Tracé_6129" data-name="Tracé 6129" d="M157.866,315.449a1.5,1.5,0,0,1-1.481-1.271c-.177-1.148-.36-2.279-.543-3.36-.283-1.623-.536-2.984-.71-3.83l-.006-.033c-.1-.556-.166-.865-.167-.868a1.5,1.5,0,0,1,2.936-.614c0,.014.071.34.178.927.18.877.437,2.263.724,3.906v.008c.186,1.1.371,2.243.55,3.408a1.5,1.5,0,0,1-1.484,1.729Z" transform="translate(5230 758.405)" fill="#053833"/>
    <path id="Tracé_6130" data-name="Tracé 6130" d="M270.533,139.216l22.527,4.947-12.785,94.67a19.839,19.839,0,0,1-21.345,8.423c-14.509-3.186-15.367-17.5-15.367-17.5Z" transform="translate(5230 758.405)" fill="#ffdbb3"/>
    <path id="Tracé_6131" data-name="Tracé 6131" d="M275.094,126.017l20.928,4.92-2.966,13.227-22.527-4.946Z" transform="translate(5230 758.405)" fill="#ffdbb3"/>
    <path id="Tracé_6132" data-name="Tracé 6132" d="M279.361,123.487a7.837,7.837,0,1,1,5.332,9.716,7.838,7.838,0,0,1-5.332-9.716" transform="translate(5230 758.405)" fill="#ffdbb3"/>
    <path id="Tracé_6133" data-name="Tracé 6133" d="M284.164,210.03l-3.32,29.746A19.841,19.841,0,0,1,259.5,248.2c-14.508-3.186-15.932-18.449-15.932-18.449l8.094-29.672Z" transform="translate(5230 758.405)" fill="#e25135"/>
    <path id="Tracé_6134" data-name="Tracé 6134" d="M286.1,214.073c.515,1.273,1.158,6.931-1.185,8.871s-35.276-9.924-36.192-12.186,1.386-8.09,3.332-9.247S286.1,214.073,286.1,214.073Z" transform="translate(5230 758.405)" fill="#e5bab2"/>
    <path id="Tracé_6135" data-name="Tracé 6135" d="M288.551,209.752c.513,1.273.347,7.011-2,8.946s-37.3-10.828-38.212-13.09,1.384-8.09,3.332-9.247,36.872,13.391,36.872,13.391Z" transform="translate(5230 758.405)" fill="#e25135"/>
    <path id="Tracé_6136" data-name="Tracé 6136" d="M119.465,296.741l-3.226,2.853-3.426,3.012c-.279-.106-.573-.227-.853-.36-2.652-1.079-5.278-2.253-7.864-3.479a167.2,167.2,0,0,1-38.071-24.953c-.693.613-1.079.959-1.079.959-.134,0-.32-.013-.56-.026l-3-2.973-2.159-2.133L57.561,268l-3.266-3.226-16.329-16.1c-.187-.173-.373-.36-.547-.546l-1.159-1.133s-.12-.227-.32-.654a26.683,26.683,0,0,1-2.613-10.97,16.806,16.806,0,0,1,5.519-12.863c.106-.107.213-.2.32-.293,11.143-9.825,23.207-2.053,23.207-2.053l10.7,14.356,4.839,6.478.013.013.227.321.026.04,2.546,3.412,1.986,2.653v.013l4.613,6.185,28.152,37.75.027.04Z" transform="translate(5230 758.405)" fill="#ffdbb3"/>
    <path id="Tracé_6137" data-name="Tracé 6137" d="M78.182,241.368l-9.784,14.6-8.331,12.41-.84,1.267L57.561,268l-3.266-3.226-16.329-16.1a17.61,17.61,0,0,1-2.027-2.333,18.652,18.652,0,0,1-3.572-12.53c.013-.2.027-.387.053-.587a18.3,18.3,0,0,1,5.8-11.263c.173-.16.347-.32.533-.48,11.144-9.824,23.794-2.146,23.794-2.146L73.21,234.37l4.705,6.625.014.013.226.32Z" transform="translate(5230 758.405)" fill="#e25135"/>
    <path id="Tracé_6138" data-name="Tracé 6138" d="M82.9,248.393c.2,1.8-14.516,16.489-20.4,22.288-.426.413-.8.786-1.12,1.093-.8.786-1.266,1.239-1.266,1.239a12.577,12.577,0,0,1-4.4-1.492,6.054,6.054,0,0,1-3.2-3.24c-.147-.533.533-1.8,1.773-3.505.267-.4.573-.814.906-1.24,6.132-7.971,20.768-22.608,22.661-22.541h.053l.014.013c1.319.094,2.6,1.613,3.532,3.346a14.672,14.672,0,0,1,1.253,3.079v.014a5.845,5.845,0,0,1,.187.946" transform="translate(5230 758.405)" fill="#e5bab2"/>
    <path id="Tracé_6139" data-name="Tracé 6139" d="M89.086,251.006c.04.387-.626,1.333-1.759,2.626-4.719,5.358-17.5,16.809-21.3,20.181-.693.614-1.079.96-1.079.96-.134,0-.32-.013-.56-.026-2.146-.107-7.945-.587-8.665-3.226-.146-.534.56-1.813,1.84-3.519.28-.374.586-.76.92-1.173A145.152,145.152,0,0,1,68.4,255.965c4.9-4.959,9.917-9.544,12.33-11.184.28-.173.533-.333.733-.427a1.232,1.232,0,0,1,.56-.186c2.44.107,6.812,4.585,7.065,6.838" transform="translate(5230 758.405)" fill="#e25135"/>
    <path id="Tracé_6140" data-name="Tracé 6140" d="M201.234,173.012a2.689,2.689,0,1,1-2.689,2.689,2.689,2.689,0,0,1,2.689-2.689" transform="translate(5230 758.405)" fill="#386e69"/>
    <path id="Tracé_6141" data-name="Tracé 6141" d="M136.278,173.012a2.689,2.689,0,1,1-2.689,2.689,2.689,2.689,0,0,1,2.689-2.689" transform="translate(5230 758.405)" fill="#386e69"/>
    <path id="Tracé_6142" data-name="Tracé 6142" d="M185.031,211.586a4.351,4.351,0,0,0,2.856-.977,4.55,4.55,0,0,0,1.5-3.658,5.96,5.96,0,0,0-2.407,1.253A6.1,6.1,0,0,0,185.031,211.586Z" transform="translate(5230 758.405)" fill="#f9e487"/>
    <path id="Tracé_6143" data-name="Tracé 6143" d="M185.126,211.549a4.345,4.345,0,0,1-1.966-2.294,4.553,4.553,0,0,1,.56-3.914,5.954,5.954,0,0,1,1.439,2.3,6.1,6.1,0,0,1-.033,3.9Z" transform="translate(5230 758.405)" fill="#f9e487"/>
    <path id="Tracé_6144" data-name="Tracé 6144" d="M186.074,208.316a4.341,4.341,0,0,0,2.869-.933,4.549,4.549,0,0,0,1.551-3.634,5.939,5.939,0,0,0-2.422,1.219,6.1,6.1,0,0,0-2,3.352Z" transform="translate(5230 758.405)" fill="#f9e487"/>
    <path id="Tracé_6145" data-name="Tracé 6145" d="M186.17,208.28a4.343,4.343,0,0,1-1.933-2.317,4.548,4.548,0,0,1,.615-3.9,5.946,5.946,0,0,1,1.406,2.319,6.1,6.1,0,0,1-.087,3.9Z" transform="translate(5230 758.405)" fill="#f9e487"/>
    <path id="Tracé_6146" data-name="Tracé 6146" d="M187.111,205.045a4.341,4.341,0,0,0,2.879-.9,4.548,4.548,0,0,0,1.6-3.611,5.952,5.952,0,0,0-2.439,1.185,6.1,6.1,0,0,0-2.043,3.322Z" transform="translate(5230 758.405)" fill="#f9e487"/>
    <path id="Tracé_6147" data-name="Tracé 6147" d="M187.214,205.01a4.338,4.338,0,0,1-1.9-2.342,4.548,4.548,0,0,1,.666-3.893,5.947,5.947,0,0,1,1.373,2.337,6.1,6.1,0,0,1-.141,3.9Z" transform="translate(5230 758.405)" fill="#f9e487"/>
    <path id="Tracé_6148" data-name="Tracé 6148" d="M188.166,201.775a4.334,4.334,0,0,0,2.891-.856,4.549,4.549,0,0,0,1.652-3.587,5.94,5.94,0,0,0-2.454,1.151A6.1,6.1,0,0,0,188.166,201.775Z" transform="translate(5230 758.405)" fill="#f9e487"/>
    <path id="Tracé_6149" data-name="Tracé 6149" d="M188.259,201.742a4.338,4.338,0,0,1-1.866-2.369,4.55,4.55,0,0,1,.722-3.883,5.957,5.957,0,0,1,1.34,2.356,6.1,6.1,0,0,1-.2,3.9Z" transform="translate(5230 758.405)" fill="#f9e487"/>
    <path id="Tracé_6150" data-name="Tracé 6150" d="M189.205,198.5a4.34,4.34,0,0,0,2.9-.816,4.543,4.543,0,0,0,1.7-3.564,5.953,5.953,0,0,0-2.47,1.115,6.1,6.1,0,0,0-2.133,3.264Z" transform="translate(5230 758.405)" fill="#f9e487"/>
    <path id="Tracé_6151" data-name="Tracé 6151" d="M189.3,198.473a4.337,4.337,0,0,1-1.834-2.4,4.546,4.546,0,0,1,.776-3.866,5.953,5.953,0,0,1,1.307,2.374,6.1,6.1,0,0,1-.249,3.892Z" transform="translate(5230 758.405)" fill="#f9e487"/>
    <path id="Tracé_6152" data-name="Tracé 6152" d="M190.249,195.233a4.34,4.34,0,0,0,2.915-.774,4.544,4.544,0,0,0,1.75-3.541A5.952,5.952,0,0,0,192.428,192a6.1,6.1,0,0,0-2.179,3.234" transform="translate(5230 758.405)" fill="#f9e487"/>
    <path id="Tracé_6153" data-name="Tracé 6153" d="M190.348,195.2a4.343,4.343,0,0,1-1.8-2.419,4.549,4.549,0,0,1,.831-3.866,5.95,5.95,0,0,1,1.274,2.4,6.1,6.1,0,0,1-.3,3.888Z" transform="translate(5230 758.405)" fill="#f9e487"/>
    <path id="Tracé_6154" data-name="Tracé 6154" d="M191.294,191.96a4.341,4.341,0,0,0,2.933-.734,4.55,4.55,0,0,0,1.8-3.517,5.945,5.945,0,0,0-2.5,1.046,6.115,6.115,0,0,0-2.226,3.2Z" transform="translate(5230 758.405)" fill="#f9e487"/>
    <path id="Tracé_6155" data-name="Tracé 6155" d="M191.391,191.931a4.344,4.344,0,0,1-1.768-2.445,4.55,4.55,0,0,1,.884-3.851,5.946,5.946,0,0,1,1.241,2.411,6.107,6.107,0,0,1-.358,3.886Z" transform="translate(5230 758.405)" fill="#f9e487"/>
    <path id="Tracé_6156" data-name="Tracé 6156" d="M192.338,188.689a4.345,4.345,0,0,0,2.933-.694,4.55,4.55,0,0,0,1.851-3.494,5.95,5.95,0,0,0-2.518,1.013,6.106,6.106,0,0,0-2.266,3.175" transform="translate(5230 758.405)" fill="#f9e487"/>
    <path id="Tracé_6157" data-name="Tracé 6157" d="M192.438,188.661a4.351,4.351,0,0,1-1.733-2.471,4.555,4.555,0,0,1,.933-3.841,5.945,5.945,0,0,1,1.209,2.43,6.106,6.106,0,0,1-.413,3.883Z" transform="translate(5230 758.405)" fill="#f9e487"/>
    <path id="Tracé_6158" data-name="Tracé 6158" d="M185.436,213.18l-.972-.234c1.448-6.012,7.744-25.48,7.807-25.676l.951.308C193.159,187.774,186.875,207.2,185.436,213.18Z" transform="translate(5230 758.405)" fill="#f9e487"/>
    <path id="Tracé_6159" data-name="Tracé 6159" d="M193.055,188.091s-2.021-3.24,2.266-6.785c0,0,1.77,2.683-2.266,6.785" transform="translate(5230 758.405)" fill="#f9e487"/>
    <path id="Tracé_6160" data-name="Tracé 6160" d="M176.106,213.157c-.065-.381-1.587-9.389-1.089-14.169l0-.033a27.1,27.1,0,0,1,3.906-10.058l.842.539a26.1,26.1,0,0,0-3.759,9.672c-.478,4.65,1.067,13.789,1.082,13.881Z" transform="translate(5230 758.405)" fill="#7a4622"/>
    <path id="Tracé_6161" data-name="Tracé 6161" d="M191.933,236.263l-41.427.911a5.8,5.8,0,0,1-5.928-5.674l-.647-29.428,53.027-1.167.648,29.429a5.8,5.8,0,0,1-5.672,5.928h0Z" transform="translate(5230 758.405)" fill="#386e69"/>
    <path id="Tracé_6162" data-name="Tracé 6162" d="M198.973,202.266l-57,1.253a.8.8,0,0,1-.811-.777l-.083-3.787a.8.8,0,0,1,.777-.812l57-1.253a.8.8,0,0,1,.812.777l.083,3.787a.8.8,0,0,1-.777.812Z" transform="translate(5230 758.405)" fill="#053833"/>
    <path id="Tracé_6163" data-name="Tracé 6163" d="M181.495,190.33s4.048,1.144,4.555,3.535-.833,2.861-1.408,2.687a51.367,51.367,0,0,1-4.687-4.6Z" transform="translate(5230 758.405)" fill="#f19000"/>
    <path id="Tracé_6164" data-name="Tracé 6164" d="M180.273,191.912a33.231,33.231,0,0,1,2.8,5.065c.011.746-.242,2-2.38,2.354a2.467,2.467,0,0,1-2.864-1.994,2.428,2.428,0,0,1-.036-.32,40.513,40.513,0,0,1,.015-4.965Z" transform="translate(5230 758.405)" fill="#f19000"/>
    <path id="Tracé_6165" data-name="Tracé 6165" d="M177.544,188.168a33.293,33.293,0,0,1-4.274-3.906c-.247-.7-.41-1.976,1.5-2.991a2.468,2.468,0,0,1,3.351.975,2.5,2.5,0,0,1,.136.293,40.439,40.439,0,0,1,1.572,4.709Z" transform="translate(5230 758.405)" fill="#f19000"/>
    <path id="Tracé_6166" data-name="Tracé 6166" d="M179.313,187.293a33.363,33.363,0,0,1,1.986-5.439c.556-.5,1.672-1.13,3.333.255a2.465,2.465,0,0,1,.373,3.467,2.236,2.236,0,0,1-.219.237,40.269,40.269,0,0,1-3.756,3.247Z" transform="translate(5230 758.405)" fill="#f19000"/>
    <path id="Tracé_6167" data-name="Tracé 6167" d="M180.953,188.484a33.224,33.224,0,0,1,5.347-2.223c.741.072,1.964.462,2.075,2.627s-1.689,2.533-2.622,2.625a40.442,40.442,0,0,1-4.932-.564Z" transform="translate(5230 758.405)" fill="#f19000"/>
    <path id="Tracé_6168" data-name="Tracé 6168" d="M178.454,191.875s-2.143,3.621-4.585,3.5-2.551-1.538-2.237-2.049a51.4,51.4,0,0,1,5.645-3.354Z" transform="translate(5230 758.405)" fill="#f19000"/>
    <path id="Tracé_6169" data-name="Tracé 6169" d="M177.239,190.289a33.316,33.316,0,0,1-5.616,1.412c-.722-.182-1.875-.748-1.666-2.9a2.467,2.467,0,0,1,2.662-2.256,2.606,2.606,0,0,1,.317.047,40.611,40.611,0,0,1,4.8,1.285Z" transform="translate(5230 758.405)" fill="#f19000"/>
    <path id="Tracé_6170" data-name="Tracé 6170" d="M178.159,192.3a2.694,2.694,0,1,1,3.483-1.543h0a2.694,2.694,0,0,1-3.483,1.542" transform="translate(5230 758.405)" fill="#fecc3e"/>
    <path id="Tracé_6171" data-name="Tracé 6171" d="M95.014,38.012A355.035,355.035,0,0,1,222.448,60.54c1.381-.122,3.086-.411,3.264-1.2.267-1.191-3.1-2.9-4.454-3.574-25.891-12.912-53.8-17.578-53.807-17.578-17.283-2.889-26.959-3.479-45.855-4.632-14.089-.86-26.322-1.079-27.207,2.346a2.665,2.665,0,0,0,.621,2.114Z" transform="translate(5230 758.405)" fill="#c2a67c"/>
    <path id="Tracé_6172" data-name="Tracé 6172" d="M131.612,36.284a17.88,17.88,0,0,1,6.926-18.107c4.792-3.689,9.923-3.985,16.845-4.29,7.065-.311,13.431-.589,20.842,2.666,4.582,2.014,11.645,5.117,14.676,12.765,3.207,8.094-.267,15.8-1.121,17.563l-58.168-10.6Z" transform="translate(5230 758.405)" fill="#c2a67c"/>
    <path id="Tracé_6173" data-name="Tracé 6173" d="M157.2,31.018a56.711,56.711,0,0,0-13.73-1.163,20.293,20.293,0,0,0-4.466.629l-.3-.953a20.558,20.558,0,0,1,4.655-.671,57.571,57.571,0,0,1,14.036,1.177Z" transform="translate(5230 758.405)" fill="#a88652"/>
    <path id="Tracé_6174" data-name="Tracé 6174" d="M185.634,28.543a37.316,37.316,0,0,0-11.712-3.716,48.588,48.588,0,0,0-6.129-.61l.017-1a48.578,48.578,0,0,1,6.254.62,38.327,38.327,0,0,1,12.055,3.831Z" transform="translate(5230 758.405)" fill="#a88652"/>
    <path id="Tracé_6175" data-name="Tracé 6175" d="M222.384,61.048l-.106-.04a353.211,353.211,0,0,0-127.262-22.5l-.232,0-.151-.175a3.168,3.168,0,0,1-.738-2.51l.99.139a2.169,2.169,0,0,0,.368,1.542A355.529,355.529,0,0,1,222.521,60.032c2.552-.24,2.7-.779,2.708-.8l.975.22c-.2.889-1.344,1.379-3.708,1.588Z" transform="translate(5230 758.405)" fill="#a88652"/>
    <path id="Tracé_6176" data-name="Tracé 6176" d="M277.915,115.081,295.7,91.932l18.662,15.023-18.335,23.983-22.178-.258,3.2-11.959a4.583,4.583,0,0,1,.87-3.64Z" transform="translate(5230 758.405)" fill="#ffdbb3"/>
    <path id="Tracé_6177" data-name="Tracé 6177" d="M276.391,89.638s6.769-4.61,8.607,7.494c1.342,8.841,9.731,18.01,9.731,18.01l-17.679,3.579Z" transform="translate(5230 758.405)" fill="#ffdbb3"/>
    <path id="Tracé_6178" data-name="Tracé 6178" d="M283.73,107.914s14.151-51.108,21.994-40.143L295.63,99.57Z" transform="translate(5230 758.405)" fill="#ffdbb3"/>
    <path id="Tracé_6179" data-name="Tracé 6179" d="M308.673,113.571l10.956-12.838s-2-12.053-9.612-.208c-8.99,14-4.88,10.329-4.88,10.329Z" transform="translate(5230 758.405)" fill="#ffdbb3"/>
    <path id="Tracé_6180" data-name="Tracé 6180" d="M291.656,100.58s10.5-26.2,17.741-15.493l-5.732,16.559Z" transform="translate(5230 758.405)" fill="#ffdbb3"/>
    <path id="Tracé_6181" data-name="Tracé 6181" d="M299.24,109.343s7.2-28.055,14.53-17.409l-6,17.684Z" transform="translate(5230 758.405)" fill="#ffdbb3"/>
    <path id="Tracé_6182" data-name="Tracé 6182" d="M306.738,111.879a3.661,3.661,0,0,1-3.04-5.7q.018-.026.037-.052l5.336-7.083a20.008,20.008,0,0,1,1.74-2.3c1.5-1.7,2.926-2.615,4.231-2.72a3.093,3.093,0,0,1,2.641,1.129,1.152,1.152,0,1,1-1.732,1.519.807.807,0,0,0-.724-.351c-.313.025-1.2.266-2.69,1.949A17.559,17.559,0,0,0,311,100.313q-.026.042-.056.082l-5.342,7.091a1.359,1.359,0,0,0,.389,1.863,1.363,1.363,0,0,0,1.713-.165,1.152,1.152,0,0,1,1.623,1.635A3.665,3.665,0,0,1,306.738,111.879Z" transform="translate(5230 758.405)" fill="#e8a964"/>
    <path id="Tracé_6183" data-name="Tracé 6183" d="M302.2,105.889a4.2,4.2,0,0,1-2.05-.544,3.185,3.185,0,0,1-1.3-4.475c.284-.625,2.75-5.758,9.97-12.208a1.152,1.152,0,0,1,1.535,1.718,48.969,48.969,0,0,0-7.413,8.149,21.855,21.855,0,0,0-2,3.316,1.1,1.1,0,0,1-.053.105.9.9,0,0,0,.408,1.391c.526.3,1.434.4,1.77-.185a1.152,1.152,0,0,1,2,1.145,3.132,3.132,0,0,1-2.358,1.553A3.725,3.725,0,0,1,302.2,105.889Z" transform="translate(5230 758.405)" fill="#e8a964"/>
    <path id="Tracé_6184" data-name="Tracé 6184" d="M295.368,103.952a3.164,3.164,0,0,1-1.215-.244,4.24,4.24,0,0,1-2.189-2.3,6.075,6.075,0,0,1-.341-3.6c.106-.779,1.333-7.662,12.221-16.357a1.152,1.152,0,0,1,1.438,1.8c-5.482,4.378-8.285,8.2-9.672,10.63a13.131,13.131,0,0,0-1.7,4.239.855.855,0,0,1-.016.1c-.333,1.638.339,3.018,1.151,3.357.471.2.933-.036,1.373-.692a1.152,1.152,0,0,1,1.914,1.283A3.549,3.549,0,0,1,295.368,103.952Z" transform="translate(5230 758.405)" fill="#e8a964"/>
    <path id="Tracé_6185" data-name="Tracé 6185" d="M286.231,100.722a1.153,1.153,0,0,1-1.1-1.5c1.631-5.13,3.59-11.1,5.755-16.513,2.4-5.993,4.691-10.4,7-13.476A14.019,14.019,0,0,1,301.2,65.9a4.3,4.3,0,0,1,2.837-.81,3.488,3.488,0,0,1,2.667,2l-2.108.929.007.015a1.2,1.2,0,0,0-.844-.66,2.205,2.205,0,0,0-1.321.466,11.924,11.924,0,0,0-2.7,2.776c-4.7,6.251-8.741,17.777-12.4,29.3A1.153,1.153,0,0,1,286.231,100.722Z" transform="translate(5230 758.405)" fill="#e8a964"/>
    <path id="Tracé_6186" data-name="Tracé 6186" d="M289.468,120.872a1.153,1.153,0,0,1-1.088-1.53c1.732-4.984-.906-10.408-.933-10.462a1.152,1.152,0,0,1,2.062-1.028c.128.256,3.1,6.33,1.047,12.246A1.153,1.153,0,0,1,289.468,120.872Z" transform="translate(5230 758.405)" fill="#e8a964"/>
    <path id="Tracé_6187" data-name="Tracé 6187" d="M125.183,294.141l-.333,1.64-.054.279v.027l-.239,1.16v.013l-.84,4.146-.014.013-.973,4.852c-.586-.186-1.173-.386-1.746-.586-.173-.054-.333-.12-.506-.174q-3.879-1.359-7.665-2.906c-.28-.106-.573-.226-.853-.359-2.653-1.08-5.279-2.253-7.865-3.48l.387-2.625c1.146-.187,9.131-3.88,11-4.759.186-.08.306-.134.36-.16l.026-.013,5.239,1.652,3.453,1.107h.053l.093.026.067.014Z" transform="translate(5230 758.405)" fill="#ffdbb3"/>
    <path id="Tracé_6188" data-name="Tracé 6188" d="M123.022,293.967l12.909-.049,10.4,3.668s4.459,3.107,3.6,5.3c-1.413,3.6-15.321-2.035-15.321-2.035l-12.031.632Z" transform="translate(5230 758.405)" fill="#ffdbb3"/>
    <path id="Tracé_6189" data-name="Tracé 6189" d="M148.23,309.857a1.241,1.241,0,0,1-.093.48,1.36,1.36,0,0,1-.307.466,2.014,2.014,0,0,1-1,.547,11.454,11.454,0,0,1-5.065-.253c-.2-.04-.387-.08-.586-.134h-.014a61.308,61.308,0,0,1-7.958-2.506,1.637,1.637,0,0,0-.186-.066l-.014-.014c-.066-.026-.12-.04-.16-.053a.039.039,0,0,0-.026-.014l-.814.041-2.2.12h-.013c-1.147-.32-2.28-.667-3.413-1.013-.146-.04-.28-.094-.426-.134l-.614.013h-.013a1.24,1.24,0,0,1-.013-.226c-.867-.267-1.733-.547-2.586-.84-.587-.186-1.173-.386-1.746-.586l.253-4.266h1.333l1.146-.013h1.373l8.345-.04h.706l4.212,1.493,6.186,2.186h.013s.24.173.587.466a11.191,11.191,0,0,1,1.292,1.147l.227.226h.013a.887.887,0,0,1,.107.12c.107.12.227.24.333.36a3.821,3.821,0,0,1,1.12,2.493" transform="translate(5230 758.405)" fill="#ffdbb3"/>
    <path id="Tracé_6190" data-name="Tracé 6190" d="M132.115,309.111c-.2-.053-.387-.093-.573-.16h.12Z" transform="translate(5230 758.405)" fill="#ffdbb3"/>
    <path id="Tracé_6191" data-name="Tracé 6191" d="M110.5,294.422l11.094-6.648,12.68-3.171a3.182,3.182,0,0,1,1.405,5.153l-.141.162-6.059,1.95-9.853,10.773Z" transform="translate(5230 758.405)" fill="#ffdbb3"/>
    <path id="Tracé_6192" data-name="Tracé 6192" d="M147.47,305.631a7.045,7.045,0,0,1-.946-.067c-3.524-.476-10.724-3.1-12.09-3.607l-8.3.436a1.1,1.1,0,1,1-.115-2.187l8.522-.448a1.094,1.094,0,0,1,.442.068c.082.031,8.254,3.084,11.83,3.567a2.592,2.592,0,0,0,1.952-.333,1.689,1.689,0,0,0,.5-1.137v.014l2.19-.035a3.851,3.851,0,0,1-1.222,2.786A4.023,4.023,0,0,1,147.47,305.631Z" transform="translate(5230 758.405)" fill="#e8a964"/>
    <path id="Tracé_6193" data-name="Tracé 6193" d="M145.1,312.753a13.09,13.09,0,0,1-3.413-.54c-.077-.018-.137-.038-.176-.051h0l-.012,0c-.161-.04-.334-.086-.52-.151-3.765-1.058-7.02-2.148-8.092-2.507l-.214-.072-.038-.013-.573.028-2.195.12-.06,0h-.014a1.1,1.1,0,0,1-.019-2.19l2.172-.119h.006l.813-.04a1.124,1.124,0,0,1,.486.086c.041.013.092.03.151.053q.042.016.082.036l.1.033c1.063.356,4.3,1.438,8.024,2.485l.075.024c.1.037.219.068.33.1a1.843,1.843,0,0,1,.192.055h0l.039.01c2.389.661,3.575.5,4.15.251l.017-.007a1.26,1.26,0,0,0,.435-.285l.045-.046a1.274,1.274,0,0,0,.3-.486l.012-.037a3.31,3.31,0,0,0-.906-1.392c-.043-.048-.092-.1-.145-.156s-.112-.119-.17-.183l-.085-.085-.01-.01-.082-.082-.131-.131c-.452-.426-.9-.821-1.222-1.084l-.017-.014c-.182-.154-.332-.272-.424-.342l-5.574-2.623q-.037-.017-.072-.037a1.1,1.1,0,0,1,.77-2.048l.04.013a1.1,1.1,0,0,1,.223.1l.021.012,5.5,2.587a1.1,1.1,0,0,1,.282.147c.011.008.272.2.642.509s.85.726,1.347,1.194l.017.016.154.154.074.075q.067.065.134.134l.034.036c.042.047.092.1.144.155s.124.132.189.2c.792.888,1.787,2.211,1.367,3.5a1.1,1.1,0,0,1-.062.164,3.4,3.4,0,0,1-.813,1.272,3.466,3.466,0,0,1-1.16.782A5.392,5.392,0,0,1,145.1,312.753Z" transform="translate(5230 758.405)" fill="#e8a964"/>
    <path id="Tracé_6194" data-name="Tracé 6194" d="M128.093,294.478a1.1,1.1,0,0,1-1.083-.94c-.131-.917.874-1.515,1.357-1.8a40.773,40.773,0,0,1,6.355-2.706c.409-.146.807-.408.662-1.245-.2-1.143-1.182-2.088-1.6-2.088a1.1,1.1,0,0,1,0-2.19c1.817,0,3.439,2.058,3.759,3.9a3.128,3.128,0,0,1-2.083,3.681c-4.929,1.765-6.143,2.6-6.4,2.811a1.093,1.093,0,0,1-.809.564A1.1,1.1,0,0,1,128.093,294.478Z" transform="translate(5230 758.405)" fill="#e8a964"/>
    <path id="Tracé_6195" data-name="Tracé 6195" d="M111.961,303.341a1.1,1.1,0,0,1-1.052-1.4l1.506-5.158.813-2.774a1.1,1.1,0,1,1,2.1.616l-.813,2.773-1.506,5.157A1.1,1.1,0,0,1,111.961,303.341Z" transform="translate(5230 758.405)" fill="#e8a964"/>
    <path id="Tracé_6196" data-name="Tracé 6196" d="M281.1,223.8q-.047,0-.095,0c-7.117-.668-30.6-10.16-31.6-10.564a1,1,0,0,1,.751-1.854c.241.1,24.2,9.785,31.031,10.426a1,1,0,0,1-.092,2Z" transform="translate(5230 758.405)" fill="#dcd9d9"/>
    <path id="Tracé_6197" data-name="Tracé 6197" d="M248.341,206.609a1,1,0,0,1-.959-.718c-.061-.208-1.442-5.156,3.581-10.232a1,1,0,0,1,1.422,1.407c-4.2,4.246-3.1,8.222-3.083,8.261a1,1,0,0,1-.96,1.282Z" transform="translate(5230 758.405)" fill="#dcd9d9"/>
    <path id="Tracé_6198" data-name="Tracé 6198" d="M69.032,232.618a1,1,0,0,1-.795-.392,18.984,18.984,0,0,0-5.722-4.482c-5.09-2.7-10.995-3.425-17.551-2.143a1,1,0,1,1-.384-1.963,31.178,31.178,0,0,1,11.094-.271,25.364,25.364,0,0,1,7.877,2.662,20.509,20.509,0,0,1,6.276,4.982,1,1,0,0,1-.795,1.606Z" transform="translate(5230 758.405)" fill="#dcd9d9"/>
  </g>
</svg>
