<svg width="1920" height="2549" viewBox="0 0 1920 2549" fill="none" xmlns="http://www.w3.org/2000/svg">
<path d="M1920 0H0V2549H1920V0Z" fill="#F0ECD1"/>
<path d="M1919.5 0.5H0.5V2548.5H1919.5V0.5Z" stroke="#707070"/>
<mask id="mask0_1001_3" style="mask-type:luminance" maskUnits="userSpaceOnUse" x="1460" y="1210" width="273" height="248">
<path d="M1499.71 1457.87L1733 1412.52L1693.69 1210.28L1460.4 1255.63L1499.71 1457.87Z" fill="white"/>
</mask>
<g mask="url(#mask0_1001_3)">
<path d="M1495.49 1436.17C1495.49 1436.17 1524.43 1397.62 1526.89 1341.7C1529.36 1285.78 1528.95 1266.32 1528.95 1266.32L1555.77 1265.54C1555.77 1265.54 1565.79 1311.37 1556.16 1342.57C1546.54 1373.77 1590.94 1305.41 1600.99 1260.01L1625.92 1269.04C1625.92 1269.04 1601.1 1332.3 1589.53 1360.05C1577.96 1387.8 1654.67 1294.44 1654.67 1294.44L1672.35 1325.71C1672.35 1325.71 1599.44 1374.9 1548.37 1421.19L1513.79 1455.13L1495.49 1436.17Z" fill="#82B340"/>
<path d="M1482.52 1289.83C1482.52 1289.83 1482.2 1316.56 1502.76 1309.25C1523.32 1301.94 1521.59 1291.2 1521.59 1291.2C1521.59 1291.2 1526.91 1320.61 1558.54 1303.8C1558.54 1303.8 1568.53 1296.75 1571.86 1281.91C1571.86 1281.91 1581.96 1313.13 1604.49 1307.54C1627.02 1301.95 1628.64 1293.88 1628.64 1293.88C1628.64 1293.88 1608.62 1318.52 1629.89 1329.95C1651.17 1341.38 1662.64 1325.63 1662.64 1325.63C1662.64 1325.63 1647.43 1340.22 1661.28 1351.62C1675.13 1363.02 1695.73 1351.37 1698.88 1337.86C1698.88 1337.86 1714.79 1348 1713.72 1317.74C1712.66 1287.48 1694.82 1284.3 1694.82 1284.3C1694.82 1284.3 1664.85 1218.16 1647.96 1247.8C1647.96 1247.8 1629.32 1217.59 1604.78 1251.7C1604.78 1251.7 1581.44 1210.45 1551.5 1250.83C1551.5 1250.83 1520.45 1231.37 1512.05 1260.18C1512.05 1260.18 1482.51 1247.66 1482.52 1268.75C1482.52 1268.75 1457.97 1280.26 1482.52 1289.83" fill="#1FAD73"/>
<path d="M1568.69 1379.34L1568.9 1379.4C1569.07 1379.44 1569.24 1379.45 1569.42 1379.43C1569.59 1379.41 1569.75 1379.35 1569.9 1379.27C1570.05 1379.18 1570.19 1379.07 1570.29 1378.93C1570.4 1378.79 1570.47 1378.64 1570.52 1378.47L1571.84 1373.65C1571.89 1373.48 1571.9 1373.31 1571.88 1373.13C1571.86 1372.96 1571.8 1372.8 1571.71 1372.65C1571.63 1372.5 1571.51 1372.36 1571.38 1372.26C1571.24 1372.15 1571.08 1372.07 1570.92 1372.03L1570.7 1371.97C1570.53 1371.92 1570.36 1371.91 1570.19 1371.93C1570.01 1371.95 1569.85 1372.01 1569.7 1372.1C1569.55 1372.18 1569.42 1372.3 1569.31 1372.43C1569.2 1372.57 1569.13 1372.73 1569.08 1372.89L1567.76 1377.72C1567.67 1378.06 1567.72 1378.42 1567.89 1378.72C1568.06 1379.03 1568.35 1379.25 1568.69 1379.34" fill="#2D2D2B"/>
<path d="M1568.69 1379.34L1568.9 1379.4C1569.07 1379.44 1569.24 1379.45 1569.42 1379.43C1569.59 1379.41 1569.75 1379.35 1569.9 1379.27C1570.05 1379.18 1570.19 1379.07 1570.29 1378.93C1570.4 1378.79 1570.47 1378.64 1570.52 1378.47L1571.84 1373.65C1571.89 1373.48 1571.9 1373.31 1571.88 1373.13C1571.86 1372.96 1571.8 1372.8 1571.71 1372.65C1571.63 1372.5 1571.51 1372.36 1571.38 1372.26C1571.24 1372.15 1571.08 1372.07 1570.92 1372.03L1570.7 1371.97C1570.53 1371.92 1570.36 1371.91 1570.19 1371.93C1570.01 1371.95 1569.85 1372.01 1569.7 1372.1C1569.55 1372.18 1569.42 1372.3 1569.31 1372.43C1569.2 1372.57 1569.13 1372.73 1569.08 1372.89L1567.76 1377.72C1567.67 1378.06 1567.72 1378.42 1567.89 1378.72C1568.06 1379.02 1568.35 1379.24 1568.69 1379.34Z" stroke="#2D2D2B" stroke-width="0.119" stroke-miterlimit="1"/>
<path d="M1547.17 1372.97L1547.38 1373.03C1547.55 1373.07 1547.73 1373.08 1547.9 1373.06C1548.07 1373.04 1548.24 1372.98 1548.39 1372.9C1548.54 1372.81 1548.67 1372.7 1548.77 1372.56C1548.88 1372.42 1548.96 1372.27 1549 1372.1L1550.32 1367.28C1550.37 1367.11 1550.38 1366.94 1550.36 1366.76C1550.34 1366.59 1550.28 1366.43 1550.2 1366.27C1550.11 1366.12 1550 1365.99 1549.86 1365.89C1549.72 1365.78 1549.56 1365.7 1549.4 1365.66L1549.18 1365.6C1549.02 1365.55 1548.84 1365.54 1548.67 1365.56C1548.5 1365.58 1548.33 1365.64 1548.18 1365.72C1548.03 1365.81 1547.9 1365.92 1547.79 1366.06C1547.69 1366.2 1547.61 1366.36 1547.56 1366.52L1546.24 1371.35C1546.15 1371.69 1546.2 1372.05 1546.37 1372.35C1546.55 1372.65 1546.83 1372.88 1547.17 1372.97" fill="#2D2D2B"/>
<path d="M1547.17 1372.97L1547.38 1373.03C1547.55 1373.07 1547.73 1373.08 1547.9 1373.06C1548.07 1373.04 1548.24 1372.98 1548.39 1372.9C1548.54 1372.81 1548.67 1372.7 1548.77 1372.56C1548.88 1372.42 1548.96 1372.27 1549 1372.1L1550.32 1367.28C1550.37 1367.11 1550.38 1366.94 1550.36 1366.76C1550.34 1366.59 1550.28 1366.43 1550.2 1366.27C1550.11 1366.12 1550 1365.99 1549.86 1365.89C1549.72 1365.78 1549.56 1365.7 1549.4 1365.66L1549.18 1365.6C1549.02 1365.55 1548.84 1365.54 1548.67 1365.56C1548.5 1365.58 1548.33 1365.64 1548.18 1365.72C1548.03 1365.81 1547.9 1365.92 1547.79 1366.06C1547.69 1366.2 1547.61 1366.36 1547.56 1366.52L1546.24 1371.35C1546.15 1371.69 1546.2 1372.05 1546.37 1372.35C1546.55 1372.65 1546.83 1372.87 1547.17 1372.97Z" stroke="#2D2D2B" stroke-width="0.119" stroke-miterlimit="1"/>
<path d="M1561.2 1373.33C1561.2 1373.33 1565.09 1398.39 1559.02 1398.84C1557.38 1399.04 1555.71 1398.8 1554.19 1398.15C1552.66 1397.49 1551.34 1396.45 1550.35 1395.11" stroke="#2D2D2B" stroke-width="0.683" stroke-linecap="round" stroke-linejoin="round"/>
<path d="M1549.35 1406.03C1549.35 1406.03 1529.83 1403.13 1532.68 1385.67" stroke="#2D2D2B" stroke-width="0.566" stroke-linecap="round" stroke-linejoin="round"/>
</g>
<mask id="mask1_1001_3" style="mask-type:luminance" maskUnits="userSpaceOnUse" x="898" y="718" width="1021" height="472">
<path d="M1919 718.381H898V1189.18H1919V718.381Z" fill="white"/>
</mask>
<g mask="url(#mask1_1001_3)">
<path d="M922.466 753.632C922.466 753.632 873.43 883.638 957.98 934.59C1041.94 985.19 1259.27 956.69 1316.12 968.452C1430.27 992.07 1622.82 936.499 1746.61 1018.47C1870.39 1100.43 1916.25 1186.4 1916.25 1186.4" stroke="#2D2D2B" stroke-width="6" stroke-linecap="round" stroke-linejoin="round" stroke-dasharray="20 20"/>
</g>
<mask id="mask2_1001_3" style="mask-type:luminance" maskUnits="userSpaceOnUse" x="815" y="1305" width="1104" height="472">
<path d="M1919 1305.76H815V1776.56H1919V1305.76Z" fill="white"/>
</mask>
<g mask="url(#mask2_1001_3)">
<path d="M1892.55 1341.01C1892.55 1341.01 1945.57 1471.02 1854.14 1521.97C1763.36 1572.57 1528.37 1544.07 1466.9 1555.83C1343.46 1579.45 1135.25 1523.88 1001.4 1605.85C867.55 1687.81 817.975 1773.78 817.975 1773.78" stroke="#2D2D2B" stroke-width="6" stroke-linecap="round" stroke-linejoin="round" stroke-dasharray="20 20"/>
</g>
<mask id="mask3_1001_3" style="mask-type:luminance" maskUnits="userSpaceOnUse" x="0" y="293" width="993" height="471">
<path d="M992.32 293H0V763.798H992.32V293Z" fill="white"/>
</mask>
<g mask="url(#mask3_1001_3)">
<path d="M2.67391 295.779C2.67391 295.779 1.33743 455.546 331.513 466.66C661.688 477.774 592.178 331.9 446.473 374.967C300.767 418.034 295.42 519.452 406.371 543.067C517.321 566.682 704.465 511.114 824.772 593.081C945.079 675.048 989.647 761.016 989.647 761.016" stroke="#2D2D2B" stroke-width="6" stroke-linecap="round" stroke-linejoin="round" stroke-dasharray="20 20"/>
</g>
<mask id="mask4_1001_3" style="mask-type:luminance" maskUnits="userSpaceOnUse" x="69" y="2046" width="118" height="354">
<path d="M187 2046.34H69.5068V2399.41H187V2046.34Z" fill="white"/>
</mask>
<g mask="url(#mask4_1001_3)">
<path d="M118.607 2046.34C118.607 2046.34 95.6071 2070.93 106.713 2097.89C117.819 2124.85 116.228 2139.12 91.6451 2163.71C67.0621 2188.29 57.5451 2235.08 97.1961 2269.18C136.847 2303.27 97.1961 2325.48 80.5431 2363.54C63.8901 2401.61 71.0271 2399.38 71.0271 2399.38L183.965 2386.21C183.965 2386.21 196.132 2359.68 171.738 2314.38C155.085 2283.45 165.393 2285.04 174.91 2235.87C184.427 2186.7 152.22 2175.13 142.397 2156.57C135.261 2143.09 129.707 2136.74 136.053 2108.99C142.399 2081.24 135.261 2066.17 118.607 2046.34Z" fill="#82B340"/>
</g>
<mask id="mask5_1001_3" style="mask-type:luminance" maskUnits="userSpaceOnUse" x="102" y="2184" width="238" height="196">
<path d="M340 2184.25H102.057V2379.02H340V2184.25Z" fill="white"/>
</mask>
<g mask="url(#mask5_1001_3)">
<path d="M152.898 2379.02L102.712 2294.18L173.212 2343.17L163.651 2202.17L203.084 2322.85L218.618 2184.25L236.543 2315.69L284.337 2212.92L274.778 2320.47L339.301 2281.04L291.913 2366.28C291.913 2366.28 208.64 2372.15 152.898 2379.02Z" fill="#1FAD73"/>
<path d="M102.713 2294.18L176.572 2375.73" stroke="#064A44" stroke-width="0.632" stroke-miterlimit="10"/>
<path d="M163.653 2202.17L201.156 2373.84" stroke="#064A44" stroke-width="0.632" stroke-miterlimit="10"/>
<path d="M218.172 2190.43L227.626 2370.06" stroke="#064A44" stroke-width="0.632" stroke-miterlimit="10"/>
<path d="M284.338 2212.93L252.208 2370.06" stroke="#064A44" stroke-width="0.632" stroke-miterlimit="10"/>
<path d="M339.303 2281.04L271.116 2368.17" stroke="#064A44" stroke-width="0.632" stroke-miterlimit="10"/>
</g>
<mask id="mask6_1001_3" style="mask-type:luminance" maskUnits="userSpaceOnUse" x="1653" y="2094" width="234" height="306">
<path d="M1886.16 2136.2L1719.46 2094.64L1653.84 2357.85L1820.53 2399.41L1886.16 2136.2Z" fill="white"/>
</mask>
<g mask="url(#mask6_1001_3)">
<path d="M1762.61 2132.76C1762.61 2132.76 1746.09 2173.61 1718.6 2183.32C1718.6 2183.32 1674.15 2201.96 1695.58 2241.24C1717.02 2280.52 1707.13 2282.05 1714.92 2301.97C1722.71 2321.89 1756.41 2353.52 1790.75 2320.45C1825.09 2287.38 1812.77 2278.81 1841.67 2256.89C1870.58 2234.96 1868.92 2205.01 1849.28 2190.94C1829.65 2176.87 1824.99 2168.16 1822.84 2148.59C1819.83 2121.25 1786.71 2094.47 1762.61 2132.76Z" fill="#064A44"/>
<path d="M1762.61 2132.76C1762.61 2132.76 1746.09 2173.61 1718.6 2183.32C1718.6 2183.32 1674.15 2201.96 1695.58 2241.24C1717.02 2280.52 1707.13 2282.05 1714.92 2301.97C1722.71 2321.89 1756.41 2353.52 1790.75 2320.45C1825.09 2287.38 1812.77 2278.81 1841.67 2256.89C1870.58 2234.96 1868.92 2205.01 1849.28 2190.94C1829.65 2176.87 1824.99 2168.16 1822.84 2148.59C1819.83 2121.25 1786.71 2094.47 1762.61 2132.76Z" stroke="#064A44" stroke-width="0.47" stroke-miterlimit="10"/>
<path d="M1792.84 2157.46L1744.49 2380.4" stroke="#2D2D2B" stroke-width="1.131" stroke-miterlimit="10"/>
<path d="M1728.81 2230.99C1728.81 2230.99 1729.87 2274.93 1765.19 2286.49" stroke="#2D2D2B" stroke-width="1.131" stroke-miterlimit="10"/>
<path d="M1759.48 2187.61C1759.48 2187.61 1750.94 2228.43 1776.73 2236.51" stroke="#2D2D2B" stroke-width="1.131" stroke-miterlimit="10"/>
<path d="M1783.51 2207.21C1783.51 2207.21 1805.81 2215.51 1809.92 2187.79" stroke="#2D2D2B" stroke-width="1.131" stroke-miterlimit="10"/>
<path d="M1771.69 2266.2C1771.69 2266.2 1795.23 2276.17 1802.53 2244.59" stroke="#2D2D2B" stroke-width="1.131" stroke-miterlimit="10"/>
</g>
<mask id="mask7_1001_3" style="mask-type:luminance" maskUnits="userSpaceOnUse" x="1580" y="2194" width="113" height="176">
<path d="M1689.65 2194.11L1580 2196.02L1583.02 2369.16L1692.68 2367.25L1689.65 2194.11Z" fill="white"/>
</mask>
<g mask="url(#mask7_1001_3)">
<path d="M1612.9 2212.4C1612.9 2212.4 1609.46 2240.32 1594.12 2250.84C1594.12 2250.84 1569.79 2269.68 1589.49 2290.36C1609.2 2311.04 1603.36 2313.62 1611.45 2324.61C1619.55 2335.61 1645.55 2349.54 1661.26 2323.48C1676.97 2297.41 1667.96 2294.17 1682.16 2275.87C1696.36 2257.57 1690.39 2239.38 1675.96 2233.95C1661.53 2228.52 1657.21 2223.92 1652.65 2212.21C1646.28 2195.84 1621.44 2184.8 1612.9 2212.4Z" fill="#064A44"/>
<path d="M1612.9 2212.4C1612.9 2212.4 1609.46 2240.32 1594.12 2250.84C1594.12 2250.84 1569.79 2269.68 1589.49 2290.36C1609.2 2311.04 1603.36 2313.62 1611.45 2324.61C1619.55 2335.61 1645.55 2349.54 1661.26 2323.48C1676.97 2297.41 1667.96 2294.17 1682.16 2275.87C1696.36 2257.57 1690.39 2239.38 1675.96 2233.95C1661.53 2228.52 1657.21 2223.92 1652.65 2212.21C1646.28 2195.84 1621.44 2184.8 1612.9 2212.4Z" stroke="#064A44" stroke-width="0.47" stroke-miterlimit="10"/>
<path d="M1635.62 2222.63L1642.64 2368.09" stroke="#2D2D2B" stroke-width="1.131" stroke-miterlimit="10"/>
<path d="M1608.29 2278.55C1608.29 2278.55 1616.2 2305.47 1639.89 2306.76" stroke="#2D2D2B" stroke-width="1.131" stroke-miterlimit="10"/>
<path d="M1620.04 2246.73C1620.04 2246.73 1621.51 2273.31 1638.75 2274.03" stroke="#2D2D2B" stroke-width="1.131" stroke-miterlimit="10"/>
<path d="M1638.09 2254.85C1638.09 2254.85 1653.21 2256.29 1651.17 2238.51" stroke="#2D2D2B" stroke-width="1.131" stroke-miterlimit="10"/>
<path d="M1640.55 2293.18C1640.55 2293.18 1656.71 2295.43 1655.99 2274.75" stroke="#2D2D2B" stroke-width="1.131" stroke-miterlimit="10"/>
</g>
<mask id="mask8_1001_3" style="mask-type:luminance" maskUnits="userSpaceOnUse" x="50" y="810" width="251" height="353">
<path d="M300.93 847.719L239.346 810.716L49.9997 1125.84L111.584 1162.84L300.93 847.719Z" fill="white"/>
</mask>
<g mask="url(#mask8_1001_3)">
<path d="M197.88 1005.39C196.958 1006.92 194.652 1010.32 191.544 1014.75C191.177 1015.28 190.794 1015.83 190.403 1016.39C186.711 1021.68 182.098 1028.15 177.473 1034.63C176.09 1036.55 174.733 1038.46 173.375 1040.34C164.052 1053.35 155.69 1064.88 155.69 1064.88C155.69 1064.88 95.7814 1130.34 83.0158 1145.69L124.253 1045.06C124.253 1045.06 128.152 1036.92 132.155 1029.28C133.26 1027.15 134.375 1025.06 135.419 1023.21C136.541 1021.11 137.797 1019.08 139.179 1017.14C143.115 1012.13 162.8 968.638 168.901 963.079C173.985 958.449 187.172 957.395 191.423 957.187C192.284 957.137 192.769 957.127 192.769 957.127C195.219 958.39 197.573 959.829 199.815 961.432C224.059 978.815 202.012 998.502 197.876 1005.38" fill="#F19000"/>
<path d="M154.834 987.609L191.711 1014.87L187.167 1020.16L149.894 997.045L154.834 987.609Z" fill="#FFA227"/>
<path d="M139.182 1017.14L178.828 1032.67L173.461 1040.39L139.182 1017.14Z" fill="#FFA227"/>
<path d="M169.488 1044.56L166.14 1049.01L130.884 1032.31L132.153 1029.28C133.259 1027.15 134.374 1025.06 135.416 1023.21L169.488 1044.56Z" fill="#FFA227"/>
<path d="M188.693 962.392C188.693 962.392 235.244 874.177 245.29 849.785L264.803 858.744L191.664 974.32L188.693 962.392Z" fill="#064A44"/>
<path d="M227.414 904.213L209.652 894.662L231.362 883.296L227.414 904.213Z" fill="#064A44"/>
<path d="M229.745 888.435C228.328 891.07 226.162 893.226 223.52 894.63C220.878 896.034 217.879 896.623 214.902 896.322C211.926 896.022 209.105 894.845 206.797 892.941C204.489 891.038 202.798 888.492 201.937 885.627C201.075 882.762 201.083 879.706 201.958 876.846C202.834 873.985 204.538 871.448 206.856 869.556C209.173 867.664 212 866.501 214.978 866.216C217.956 865.93 220.952 866.534 223.586 867.951C225.336 868.892 226.883 870.168 228.139 871.706C229.395 873.245 230.336 875.016 230.908 876.918C231.48 878.82 231.671 880.816 231.472 882.792C231.272 884.769 230.685 886.686 229.745 888.435Z" fill="#064A44"/>
<path d="M226.536 903.705L244.298 913.257L241.808 888.877L226.536 903.705Z" fill="#064A44"/>
<path d="M238.413 893.062C236.996 895.696 236.392 898.692 236.678 901.67C236.963 904.648 238.126 907.475 240.018 909.793C241.91 912.11 244.446 913.814 247.307 914.69C250.168 915.566 253.224 915.574 256.089 914.712C258.954 913.851 261.499 912.16 263.403 909.852C265.307 907.544 266.484 904.723 266.784 901.747C267.085 898.77 266.496 895.771 265.092 893.129C263.688 890.487 261.533 888.321 258.898 886.904C257.148 885.963 255.231 885.376 253.255 885.177C251.278 884.977 249.282 885.168 247.38 885.74C245.478 886.312 243.707 887.253 242.169 888.509C240.63 889.765 239.354 891.312 238.413 893.062Z" fill="#064A44"/>
<path d="M241.756 878.839L223.994 869.288L245.706 857.919L241.756 878.839Z" fill="#064A44"/>
<path d="M244.085 863.062C242.669 865.697 240.502 867.853 237.861 869.257C235.219 870.661 232.22 871.25 229.243 870.949C226.267 870.648 223.446 869.472 221.138 867.568C218.83 865.665 217.139 863.119 216.277 860.254C215.416 857.389 215.424 854.333 216.299 851.472C217.175 848.612 218.879 846.075 221.197 844.183C223.514 842.291 226.34 841.128 229.318 840.843C232.296 840.557 235.292 841.161 237.927 842.578C239.677 843.518 241.224 844.795 242.48 846.333C243.736 847.872 244.677 849.643 245.249 851.545C245.821 853.447 246.012 855.443 245.813 857.419C245.613 859.395 245.026 861.313 244.085 863.062Z" fill="#064A44"/>
<path d="M240.878 878.332L258.64 887.884L256.15 863.504L240.878 878.332Z" fill="#064A44"/>
<path d="M252.755 867.69C251.339 870.325 250.736 873.321 251.022 876.299C251.308 879.277 252.471 882.103 254.363 884.42C256.256 886.737 258.792 888.441 261.653 889.316C264.514 890.191 267.57 890.198 270.435 889.337C273.299 888.475 275.844 886.784 277.748 884.476C279.651 882.168 280.828 879.347 281.128 876.371C281.428 873.394 280.839 870.396 279.436 867.754C278.032 865.112 275.876 862.946 273.241 861.529C271.492 860.588 269.574 860.001 267.597 859.802C265.621 859.602 263.624 859.794 261.722 860.366C259.82 860.938 258.049 861.879 256.51 863.136C254.972 864.393 253.696 865.94 252.755 867.69Z" fill="#064A44"/>
<path d="M254.513 856.075L236.751 846.524L258.461 835.157L254.513 856.075Z" fill="#064A44"/>
<path d="M256.843 840.298C255.426 842.933 253.26 845.09 250.619 846.494C247.977 847.898 244.978 848.488 242.001 848.188C239.025 847.887 236.204 846.711 233.895 844.808C231.587 842.904 229.895 840.359 229.034 837.494C228.172 834.629 228.179 831.573 229.055 828.712C229.93 825.851 231.634 823.314 233.952 821.422C236.269 819.529 239.096 818.367 242.074 818.081C245.052 817.795 248.048 818.399 250.683 819.816C254.216 821.716 256.849 824.94 258.004 828.781C259.159 832.623 258.742 836.765 256.843 840.298Z" fill="#064A44"/>
<path d="M253.635 855.567L271.397 865.118L268.906 840.741L253.635 855.567Z" fill="#064A44"/>
<path d="M265.511 844.925C264.094 847.56 263.49 850.556 263.775 853.534C264.061 856.512 265.224 859.338 267.116 861.655C269.008 863.973 271.545 865.677 274.405 866.553C277.266 867.428 280.322 867.436 283.187 866.575C286.052 865.713 288.597 864.022 290.501 861.714C292.405 859.406 293.581 856.585 293.882 853.609C294.182 850.632 293.594 847.633 292.19 844.991C290.786 842.35 288.63 840.183 285.995 838.767C284.246 837.826 282.328 837.239 280.352 837.039C278.376 836.839 276.38 837.031 274.477 837.603C272.575 838.175 270.804 839.115 269.266 840.372C267.727 841.628 266.451 843.175 265.511 844.925Z" fill="#064A44"/>
<path d="M169.188 984.307L169.036 984.185C168.919 984.092 168.822 983.977 168.75 983.846C168.677 983.715 168.632 983.571 168.615 983.423C168.598 983.274 168.611 983.124 168.653 982.98C168.694 982.836 168.764 982.702 168.857 982.586L171.554 979.217C171.648 979.1 171.763 979.003 171.894 978.931C172.025 978.858 172.169 978.813 172.317 978.796C172.466 978.78 172.616 978.792 172.76 978.834C172.903 978.875 173.037 978.945 173.154 979.038L173.306 979.161C173.423 979.254 173.52 979.37 173.592 979.5C173.665 979.631 173.71 979.775 173.727 979.923C173.743 980.072 173.731 980.222 173.689 980.365C173.647 980.509 173.578 980.643 173.485 980.759L170.788 984.131C170.599 984.367 170.324 984.518 170.024 984.551C169.724 984.584 169.424 984.496 169.188 984.307Z" fill="#2D2D2B"/>
<path d="M168.616 982.888L171.794 978.91C171.918 978.755 172.099 978.655 172.297 978.633C172.494 978.611 172.693 978.668 172.848 978.793L173.607 979.399C173.763 979.523 173.863 979.704 173.885 979.902C173.907 980.1 173.849 980.298 173.725 980.453L170.547 984.432C170.423 984.587 170.242 984.687 170.045 984.709C169.847 984.731 169.649 984.674 169.494 984.55L168.734 983.943C168.579 983.819 168.479 983.638 168.457 983.44C168.434 983.242 168.492 983.043 168.616 982.888Z" stroke="#2D2D2B" stroke-width="0.142" stroke-miterlimit="1"/>
<path d="M184.566 996.087L184.414 995.966C184.297 995.872 184.2 995.757 184.128 995.626C184.056 995.495 184.01 995.351 183.994 995.202C183.977 995.053 183.99 994.903 184.032 994.759C184.073 994.615 184.143 994.481 184.236 994.364L186.934 990.996C187.027 990.879 187.142 990.781 187.273 990.709C187.404 990.637 187.548 990.591 187.696 990.575C187.845 990.558 187.995 990.571 188.139 990.613C188.282 990.655 188.416 990.724 188.533 990.818L188.686 990.94C188.802 991.033 188.9 991.149 188.972 991.279C189.044 991.41 189.09 991.554 189.106 991.703C189.123 991.851 189.11 992.001 189.068 992.145C189.026 992.288 188.957 992.422 188.864 992.539L186.167 995.911C185.978 996.146 185.703 996.297 185.403 996.33C185.103 996.363 184.802 996.276 184.566 996.087Z" fill="#2D2D2B"/>
<path d="M183.995 994.67L187.173 990.692C187.297 990.536 187.478 990.437 187.676 990.414C187.873 990.392 188.072 990.45 188.227 990.574L188.986 991.18C189.063 991.242 189.127 991.318 189.174 991.404C189.222 991.49 189.252 991.585 189.263 991.683C189.274 991.781 189.266 991.881 189.238 991.975C189.211 992.07 189.165 992.158 189.104 992.235L185.925 996.214C185.801 996.369 185.62 996.469 185.423 996.491C185.226 996.513 185.028 996.456 184.873 996.332L184.112 995.724C183.957 995.6 183.857 995.419 183.835 995.221C183.813 995.024 183.87 994.825 183.995 994.67Z" stroke="#2D2D2B" stroke-width="0.142" stroke-miterlimit="1"/>
<path d="M177.184 986.484C177.184 986.484 157.723 996.499 160.486 1000.96C161.182 1002.21 162.196 1003.25 163.427 1003.98C164.657 1004.71 166.059 1005.11 167.49 1005.12" stroke="#2D2D2B" stroke-width="0.815" stroke-linecap="round" stroke-linejoin="round"/>
<path d="M160.384 1011.36C160.384 1011.36 172.325 1023.51 183.057 1012.65" stroke="#2D2D2B" stroke-width="0.675" stroke-linecap="round" stroke-linejoin="round"/>
</g>
<mask id="mask9_1001_3" style="mask-type:luminance" maskUnits="userSpaceOnUse" x="1675" y="234" width="216" height="366">
<path d="M1740.67 234.481L1675 263.723L1824.63 599.741L1890.29 570.5L1740.67 234.481Z" fill="white"/>
</mask>
<g mask="url(#mask9_1001_3)">
<path d="M1810.76 409.416C1811.49 411.053 1812.95 414.892 1814.8 419.984C1815.02 420.585 1815.25 421.214 1815.49 421.857C1817.7 427.918 1820.36 435.412 1823.02 442.925C1823.8 445.157 1824.58 447.366 1825.35 449.557C1830.66 464.663 1835.31 478.133 1835.31 478.133C1835.31 478.133 1854.59 564.799 1859.84 584.07L1801.03 492.527C1801.03 492.527 1796.59 484.661 1792.63 476.999C1791.52 474.867 1790.44 472.754 1789.52 470.835C1788.45 468.711 1787.51 466.52 1786.71 464.275C1784.86 458.169 1760.51 417.081 1759.46 408.89C1758.58 402.066 1765.28 390.653 1767.55 387.05C1768 386.316 1768.27 385.913 1768.27 385.913C1770.71 384.629 1773.24 383.525 1775.85 382.608C1804 372.712 1807.49 402.079 1810.76 409.417" fill="#F19000"/>
<path d="M1771.49 434.497L1815 419.917L1816.72 426.675L1776.39 443.96L1771.49 434.497Z" fill="#FFA227"/>
<path d="M1786.72 464.274L1822.19 440.686L1825.44 449.515L1786.72 464.274Z" fill="#FFA227"/>
<path d="M1826.58 455.168L1828.31 460.466L1794.38 479.777L1792.63 477C1791.52 474.869 1790.44 472.755 1789.52 470.838L1826.58 455.168Z" fill="#FFA227"/>
<path d="M1770.25 392.275C1770.25 392.275 1724.66 303.501 1710.43 281.271L1728.97 270.418L1781.73 396.684L1770.25 392.275Z" fill="#064A44"/>
<path d="M1744.78 327.154L1726.76 336.231L1729.91 311.915L1744.78 327.154Z" fill="#064A44"/>
<path d="M1733.19 316.19C1734.54 318.863 1735.06 321.876 1734.7 324.847C1734.33 327.817 1733.09 330.613 1731.14 332.88C1729.18 335.148 1726.6 336.784 1723.72 337.583C1720.83 338.383 1717.78 338.309 1714.93 337.37C1712.09 336.432 1709.59 334.672 1707.75 332.313C1705.91 329.954 1704.8 327.101 1704.58 324.116C1704.36 321.131 1705.03 318.148 1706.51 315.543C1707.98 312.938 1710.19 310.829 1712.87 309.483C1714.64 308.589 1716.58 308.053 1718.56 307.906C1720.54 307.759 1722.53 308.004 1724.42 308.627C1726.31 309.25 1728.05 310.238 1729.56 311.536C1731.06 312.834 1732.3 314.415 1733.19 316.19Z" fill="#064A44"/>
<path d="M1743.86 327.582L1761.89 318.505L1740.47 306.556L1743.86 327.582Z" fill="#064A44"/>
<path d="M1741.96 311.739C1743.3 314.413 1745.41 316.627 1748.02 318.102C1750.62 319.577 1753.61 320.246 1756.59 320.025C1759.58 319.804 1762.43 318.703 1764.79 316.861C1767.15 315.019 1768.91 312.518 1769.85 309.676C1770.78 306.834 1770.86 303.777 1770.06 300.892C1769.26 298.007 1767.62 295.424 1765.36 293.47C1763.09 291.516 1760.29 290.277 1757.32 289.912C1754.35 289.546 1751.34 290.07 1748.66 291.417C1746.89 292.311 1745.31 293.546 1744.01 295.051C1742.71 296.556 1741.72 298.302 1741.1 300.189C1740.48 302.076 1740.23 304.067 1740.38 306.049C1740.53 308.031 1741.06 309.964 1741.96 311.739Z" fill="#064A44"/>
<path d="M1732.22 300.838L1714.2 309.915L1717.34 285.596L1732.22 300.838Z" fill="#064A44"/>
<path d="M1720.63 289.876C1721.97 292.55 1722.5 295.562 1722.13 298.533C1721.76 301.504 1720.53 304.3 1718.57 306.567C1716.62 308.834 1714.03 310.471 1711.15 311.27C1708.27 312.069 1705.21 311.995 1702.37 311.057C1699.52 310.119 1697.02 308.359 1695.18 306C1693.34 303.64 1692.24 300.788 1692.02 297.803C1691.8 294.818 1692.46 291.834 1693.94 289.229C1695.41 286.625 1697.63 284.516 1700.3 283.169C1702.08 282.275 1704.01 281.739 1705.99 281.593C1707.97 281.446 1709.97 281.691 1711.85 282.314C1713.74 282.937 1715.49 283.925 1716.99 285.223C1718.5 286.52 1719.73 288.102 1720.63 289.876Z" fill="#064A44"/>
<path d="M1731.3 301.267L1749.32 292.19L1727.91 280.242L1731.3 301.267Z" fill="#064A44"/>
<path d="M1729.39 285.425C1730.74 288.098 1732.85 290.312 1735.45 291.786C1738.06 293.26 1741.04 293.929 1744.03 293.708C1747.01 293.486 1749.86 292.385 1752.22 290.542C1754.58 288.7 1756.34 286.199 1757.28 283.357C1758.22 280.514 1758.29 277.458 1757.49 274.573C1756.69 271.689 1755.05 269.106 1752.79 267.152C1750.52 265.198 1747.72 263.96 1744.75 263.594C1741.78 263.229 1738.77 263.753 1736.1 265.099C1734.32 265.993 1732.74 267.228 1731.44 268.734C1730.14 270.239 1729.16 271.986 1728.53 273.873C1727.91 275.761 1727.67 277.752 1727.81 279.735C1727.96 281.717 1728.5 283.651 1729.39 285.425Z" fill="#064A44"/>
<path d="M1720.88 277.32L1702.86 286.397L1706 262.08L1720.88 277.32Z" fill="#064A44"/>
<path d="M1709.29 266.357C1710.63 269.03 1711.16 272.043 1710.79 275.014C1710.43 277.985 1709.19 280.781 1707.24 283.049C1705.28 285.316 1702.7 286.953 1699.82 287.753C1696.93 288.553 1693.87 288.479 1691.03 287.541C1688.19 286.603 1685.69 284.843 1683.85 282.484C1682 280.125 1680.9 277.272 1680.68 274.287C1680.46 271.302 1681.13 268.318 1682.6 265.713C1684.08 263.108 1686.29 260.999 1688.96 259.653C1692.55 257.847 1696.7 257.539 1700.51 258.797C1704.33 260.054 1707.48 262.774 1709.29 266.357Z" fill="#064A44"/>
<path d="M1719.96 277.748L1737.98 268.671L1716.57 256.724L1719.96 277.748Z" fill="#064A44"/>
<path d="M1718.05 261.908C1719.4 264.581 1721.51 266.795 1724.11 268.27C1726.72 269.745 1729.7 270.414 1732.69 270.193C1735.67 269.972 1738.52 268.871 1740.88 267.029C1743.24 265.186 1745 262.686 1745.94 259.844C1746.88 257.001 1746.95 253.944 1746.15 251.06C1745.35 248.175 1743.72 245.592 1741.45 243.638C1739.18 241.683 1736.39 240.445 1733.42 240.08C1730.45 239.714 1727.43 240.238 1724.76 241.585C1722.99 242.479 1721.4 243.714 1720.11 245.219C1718.81 246.724 1717.82 248.47 1717.2 250.357C1716.57 252.244 1716.33 254.236 1716.48 256.218C1716.62 258.2 1717.16 260.133 1718.05 261.908Z" fill="#064A44"/>
<path d="M1777.02 420.836L1776.83 420.891C1776.69 420.933 1776.54 420.947 1776.39 420.931C1776.24 420.915 1776.1 420.87 1775.97 420.798C1775.83 420.727 1775.72 420.63 1775.62 420.513C1775.53 420.397 1775.46 420.263 1775.42 420.12L1774.2 415.976C1774.16 415.832 1774.15 415.682 1774.17 415.533C1774.18 415.385 1774.23 415.24 1774.3 415.109C1774.37 414.978 1774.47 414.862 1774.58 414.768C1774.7 414.674 1774.83 414.604 1774.98 414.562L1775.16 414.508C1775.31 414.466 1775.46 414.452 1775.61 414.468C1775.76 414.484 1775.9 414.529 1776.03 414.6C1776.16 414.672 1776.28 414.769 1776.37 414.885C1776.46 415.002 1776.53 415.135 1776.58 415.279L1777.79 419.424C1777.88 419.714 1777.84 420.026 1777.7 420.291C1777.55 420.556 1777.31 420.751 1777.02 420.836Z" fill="#2D2D2B"/>
<path d="M1775.53 420.492L1774.09 415.605C1774.04 415.414 1774.06 415.209 1774.15 415.034C1774.25 414.859 1774.41 414.73 1774.6 414.674L1775.53 414.399C1775.72 414.343 1775.93 414.365 1776.1 414.46C1776.28 414.556 1776.41 414.717 1776.46 414.908L1777.9 419.795C1777.96 419.986 1777.94 420.191 1777.84 420.366C1777.75 420.541 1777.58 420.67 1777.39 420.727L1776.46 421.001C1776.27 421.057 1776.06 421.035 1775.89 420.94C1775.71 420.844 1775.58 420.683 1775.53 420.492Z" stroke="#2D2D2B" stroke-width="0.142074" stroke-miterlimit="1"/>
<path d="M1795.5 414.993L1795.31 415.048C1795.17 415.09 1795.02 415.103 1794.87 415.087C1794.72 415.071 1794.58 415.026 1794.44 414.954C1794.31 414.882 1794.2 414.785 1794.1 414.669C1794.01 414.552 1793.94 414.418 1793.9 414.274L1792.68 410.13C1792.64 409.987 1792.63 409.837 1792.64 409.688C1792.66 409.539 1792.71 409.395 1792.78 409.264C1792.85 409.133 1792.95 409.017 1793.06 408.923C1793.18 408.829 1793.31 408.76 1793.46 408.718L1793.64 408.662C1793.79 408.62 1793.94 408.607 1794.09 408.623C1794.23 408.639 1794.38 408.684 1794.51 408.756C1794.64 408.827 1794.76 408.924 1794.85 409.041C1794.94 409.157 1795.01 409.291 1795.06 409.434L1796.27 413.579C1796.36 413.869 1796.32 414.181 1796.18 414.446C1796.03 414.711 1795.79 414.908 1795.5 414.993Z" fill="#2D2D2B"/>
<path d="M1794.01 414.647L1792.57 409.759C1792.52 409.568 1792.54 409.363 1792.63 409.188C1792.73 409.014 1792.89 408.884 1793.08 408.828L1794.01 408.554C1794.11 408.526 1794.21 408.517 1794.3 408.528C1794.4 408.538 1794.5 408.568 1794.58 408.615C1794.67 408.662 1794.75 408.726 1794.81 408.803C1794.87 408.88 1794.92 408.968 1794.95 409.063L1796.38 413.952C1796.44 414.142 1796.42 414.347 1796.32 414.521C1796.23 414.695 1796.07 414.825 1795.88 414.881L1794.94 415.156C1794.75 415.212 1794.54 415.19 1794.37 415.094C1794.19 414.999 1794.07 414.838 1794.01 414.647Z" stroke="#2D2D2B" stroke-width="0.142074" stroke-miterlimit="1"/>
<path d="M1783.39 415.532C1783.39 415.532 1780.43 437.229 1785.67 437.523C1787.1 437.671 1788.53 437.438 1789.84 436.849C1791.14 436.26 1792.27 435.335 1793.1 434.169" stroke="#2D2D2B" stroke-width="0.815426" stroke-linecap="round" stroke-linejoin="round"/>
<path d="M1794.14 443.576C1794.14 443.576 1810.95 440.764 1808.21 425.734" stroke="#2D2D2B" stroke-width="0.675353" stroke-linecap="round" stroke-linejoin="round"/>
</g>
</svg>
