<svg id="Groupe_269" data-name="Groupe 269" xmlns="http://www.w3.org/2000/svg" xmlns:xlink="http://www.w3.org/1999/xlink" width="232.698" height="284.25" viewBox="0 0 232.698 284.25">
  <defs>
    <clipPath id="clip-path">
      <rect id="Rectangle_734" data-name="Rectangle 734" width="232.698" height="284.25" fill="none"/>
    </clipPath>
    <clipPath id="clip-path-3">
      <path id="Tracé_2743" data-name="Tracé 2743" d="M27.6,258.619,241.485,241l3.229-181.724L28.356,48.813Z" transform="translate(-27.602 -48.813)" fill="none"/>
    </clipPath>
    <clipPath id="clip-path-4">
      <rect id="Rectangle_733" data-name="Rectangle 733" width="60.824" height="135.766" fill="none"/>
    </clipPath>
  </defs>
  <g id="Groupe_268" data-name="Groupe 268" clip-path="url(#clip-path)">
    <g id="Groupe_262" data-name="Groupe 262">
      <g id="Groupe_261" data-name="Groupe 261" clip-path="url(#clip-path)">
        <path id="Tracé_2726" data-name="Tracé 2726" d="M208.015,140.158c-.106.17,69.831,2.018,69.831,2.018-1.891,3.205-7.773,124.368-87.559,197.309L179.3,331.337c77.516-92.576,28.6-190.994,28.716-191.179" transform="translate(-78.05 -61.011)" fill="#02b196"/>
        <path id="Tracé_2727" data-name="Tracé 2727" d="M175.722,475.465l34.455-11.355L172.9,439.269Z" transform="translate(-75.266 -191.215)" fill="#02b196"/>
        <path id="Tracé_2728" data-name="Tracé 2728" d="M28.356,48.813,244.714,59.279,241.485,241,27.6,258.619Z" transform="translate(-12.015 -21.249)" fill="#67d0c0"/>
        <path id="Tracé_2729" data-name="Tracé 2729" d="M156.762,51.86l.926.3q-.478-.175-.926-.3" transform="translate(-68.239 -22.575)" fill="#f7a881"/>
      </g>
    </g>
    <g id="Groupe_267" data-name="Groupe 267" transform="translate(15.587 27.565)">
      <g id="Groupe_266" data-name="Groupe 266" clip-path="url(#clip-path-3)">
        <path id="Tracé_2730" data-name="Tracé 2730" d="M149.966,7.059c6.143-4.236,34.465,16.241,43.714,29.653s16.059,36.2,9.916,40.437-22.761-11.287-32.343-24.462c-10.121-13.915-35.489-18.24-36.618-23.871-1.227-6.12,12.132-19.55,15.331-21.757" transform="translate(-74.159 -30.391)" fill="#5a3932"/>
        <path id="Tracé_2731" data-name="Tracé 2731" d="M158.977,19.768c6.707-3.27,31.651,21.21,38.791,35.853s10.468,38.195,3.761,41.466S180.71,82.524,173.2,68.065c-7.927-15.272-32.364-23.34-32.638-29.076-.3-6.235,14.918-17.517,18.411-19.221" transform="translate(-76.774 -36.04)" fill="#63443e"/>
        <path id="Tracé_2732" data-name="Tracé 2732" d="M0,50,15.324,95.9l46.983,16.675c7.6,4.347,24.951,6.572,37.341,6.572,16.29,0,29.5-6.049,29.5-13.511s-13.211-13.1-29.5-13.51c-13.158-.33-27.5-8.957-27.5-8.957a.022.022,0,0,0-.007-.005c-.318-.232-11.112-8.2-9.715-24.42,1.042-12.08,12.81-13.54,20.594-12.872S102,57.6,106.867,66.972c7.506,14.461,21.618,32.294,28.325,29.023s3.379-26.823-3.761-41.466c-6.064-12.439-24.975-31.974-34.642-35.57l-.005,0-.925-.3L38.594,0Z" transform="translate(-15.587 -27.565)" fill="#78453a"/>
        <path id="Tracé_2733" data-name="Tracé 2733" d="M135.767,389.213l8.511-5.169-4.164-6.861,5.851-3.556-3.4-5.6,3.543-2.152-3.051-5.026,8.919-5.416-2.922-4.807,3.331-2.024-4.744-7.813.792-3.247,5.683-3.451-3.559-5.863.18-.109,3.249-1.971-1.973-3.254-.056-.094.091-.055,3.168-1.923-1.923-3.166-.057-.091.086-.028,2.987-1a4.817,4.817,0,0,0,2.275-7.517c.082,0,.164,0,.243-.007a27.775,27.775,0,1,0-16.29-4.732l-17.5,71.649,1.548,1.913,3.089,3.824,5.083,6.3.986,1.219Zm23.911-114.564a6.81,6.81,0,1,1,8.229-5,6.809,6.809,0,0,1-8.229,5" transform="translate(-70.014 -137.891)" fill="#ffd602"/>
        <path id="Tracé_2734" data-name="Tracé 2734" d="M130.863,421.186l18.572-76.019-3.8-.927-17.864,73.123Z" transform="translate(-71.207 -177.413)" fill="#c19c00"/>
        <path id="Tracé_2735" data-name="Tracé 2735" d="M143.26,438.618l8.511-5.169-4.164-6.861,5.851-3.556-3.4-5.6,3.544-2.151-3.051-5.026,8.919-5.416-2.921-4.808,3.33-2.024-4.744-7.813.792-3.247,5.683-3.451-3.559-5.863.18-.109,3.249-1.971-1.973-3.254-.056-.094.091-.054,3.168-1.923-1.923-3.166-.057-.091.087-.028-1.476.454-17.093,69.97.986,1.219Z" transform="translate(-77.507 -187.295)" fill="#c19c00"/>
        <path id="Tracé_2736" data-name="Tracé 2736" d="M182.7,265.926a6.811,6.811,0,1,1-6.61,5.2,6.83,6.83,0,0,1,6.61-5.2m0-1.674a8.5,8.5,0,1,0,2.019.244,8.461,8.461,0,0,0-2.019-.244" transform="translate(-91.424 -142.594)" fill="#c19c00"/>
        <g id="Groupe_265" data-name="Groupe 265" transform="translate(55.019 115.556)" opacity="0.18">
          <g id="Groupe_264" data-name="Groupe 264">
            <g id="Groupe_263" data-name="Groupe 263" clip-path="url(#clip-path-4)">
              <path id="Tracé_2737" data-name="Tracé 2737" d="M135.767,389.213l8.511-5.169-4.164-6.861,5.851-3.556-3.4-5.6,3.543-2.151-3.051-5.026,8.919-5.416-2.921-4.808,3.33-2.024-4.744-7.813.792-3.247,5.683-3.451-3.559-5.863.18-.109,3.249-1.971-1.973-3.254-.056-.094.091-.054,3.168-1.923-1.923-3.166-.057-.091.087-.028,2.987-1a4.817,4.817,0,0,0,2.275-7.517c.082,0,.164,0,.243-.007a27.776,27.776,0,1,0-16.29-4.733l-17.5,71.65,1.548,1.913,3.089,3.824,5.083,6.3.986,1.219Z" transform="translate(-125.033 -253.447)"/>
            </g>
          </g>
        </g>
        <path id="Tracé_2738" data-name="Tracé 2738" d="M179.488,396.213l7.042-7.042-5.674-5.676,4.842-4.845-4.634-4.634,2.932-2.931-4.156-4.158,7.379-7.377-3.978-3.979,2.754-2.755-6.463-6.465v-3.343l4.7-4.7-4.849-4.849.148-.148,2.69-2.687-2.69-2.692-.076-.077.076-.076,2.621-2.618-2.621-2.618-.076-.077.076-.047,2.664-1.683a4.817,4.817,0,0,0,.428-7.843c.079-.021.158-.041.234-.064a27.778,27.778,0,1,0-16.948-.732v73.758l1.956,1.492,3.909,2.982,6.432,4.909,1.249.952Zm-3.96-116.967a6.81,6.81,0,1,1,6.81-6.81,6.81,6.81,0,0,1-6.81,6.81" transform="translate(-79.901 -139.98)" fill="#ffd602"/>
        <path id="Tracé_2739" data-name="Tracé 2739" d="M187.282,431.818V353.563h-3.909v75.273Z" transform="translate(-95.41 -181.472)" fill="#c19c00"/>
        <path id="Tracé_2740" data-name="Tracé 2740" d="M202.967,445.681l7.042-7.042-5.674-5.676,4.842-4.844-4.634-4.634,2.932-2.931-4.156-4.158,7.379-7.377-3.978-3.979,2.754-2.755-6.463-6.465v-3.343l4.7-4.7-4.849-4.849.148-.148,2.69-2.687-2.69-2.693-.076-.077.076-.076,2.621-2.618-2.621-2.618-.076-.077.076-.047-1.325.792V444.7l1.249.952Z" transform="translate(-103.381 -189.448)" fill="#c19c00"/>
        <path id="Tracé_2741" data-name="Tracé 2741" d="M190.4,270.027a6.81,6.81,0,1,1-6.81,6.81,6.809,6.809,0,0,1,6.81-6.81m0-1.674a8.483,8.483,0,1,0,8.483,8.483,8.493,8.493,0,0,0-8.483-8.483" transform="translate(-94.778 -144.38)" fill="#c19c00"/>
        <path id="Tracé_2742" data-name="Tracé 2742" d="M175.605,231.859c8.985,3.437,25.76-5.833,32.352-22.953,6.84-17.761-.5-35.746-11.857-38.708s-27.109,11.96-31.553,26.126c-1.87,5.959-3.1,17.878-.818,22.844" transform="translate(-86.32 -101.487)" fill="none" stroke="#bcbcbc" stroke-width="7.622"/>
      </g>
    </g>
  </g>
</svg>
