<svg xmlns="http://www.w3.org/2000/svg" xmlns:xlink="http://www.w3.org/1999/xlink" width="645.343" height="827.999" viewBox="0 0 645.343 827.999">
  <defs>
    <clipPath id="clip-path">
      <rect id="Rectangle_745" data-name="Rectangle 745" width="631.179" height="817.108" fill="none"/>
    </clipPath>
    <clipPath id="clip-path-2">
      <rect id="Rectangle_738" data-name="Rectangle 738" width="631.179" height="473.552" fill="none"/>
    </clipPath>
    <clipPath id="clip-path-3">
      <rect id="Rectangle_737" data-name="Rectangle 737" width="10.388" height="18.845" fill="none"/>
    </clipPath>
    <clipPath id="clip-path-4">
      <path id="Tracé_2802" data-name="Tracé 2802" d="M307.848,98.274a8.157,8.157,0,0,0-2.066.345c-3.346.971-6.064,4.07-5.716,4.464s2.809,1.363,6.5,1.935a7.77,7.77,0,0,0,1.505.1,6.4,6.4,0,0,0,1.518-.232,38.232,38.232,0,0,0,7.6-3.1s-3.757-2.818-7.287-3.369a10.8,10.8,0,0,0-1.754-.149c-.1,0-.2,0-.3,0" transform="translate(-300.036 -98.269)" fill="none"/>
    </clipPath>
    <clipPath id="clip-path-6">
      <path id="Tracé_2806" data-name="Tracé 2806" d="M278.3,99.217a10.587,10.587,0,0,0-2.039.275c-3.487.775-7.057,3.827-7.057,3.827a38.3,38.3,0,0,0,7.787,2.609,6.441,6.441,0,0,0,1.527.133,7.775,7.775,0,0,0,1.5-.2c3.642-.807,6.034-1.929,6.357-2.347s-2.587-3.334-5.989-4.089a8.227,8.227,0,0,0-1.848-.218c-.079,0-.157,0-.236,0" transform="translate(-269.205 -99.213)" fill="none"/>
    </clipPath>
    <clipPath id="clip-path-8">
      <rect id="Rectangle_740" data-name="Rectangle 740" width="52.681" height="403.431" fill="none"/>
    </clipPath>
    <clipPath id="clip-path-9">
      <rect id="Rectangle_741" data-name="Rectangle 741" width="12.966" height="269.522" fill="none"/>
    </clipPath>
    <clipPath id="clip-path-10">
      <rect id="Rectangle_742" data-name="Rectangle 742" width="14.826" height="116.247" fill="none"/>
    </clipPath>
    <clipPath id="clip-path-11">
      <rect id="Rectangle_743" data-name="Rectangle 743" width="42.24" height="51.281" fill="none"/>
    </clipPath>
  </defs>
  <g id="Groupe_301" data-name="Groupe 301" transform="matrix(1, -0.017, 0.017, 1, 0, 11.016)">
    <g id="Groupe_300" data-name="Groupe 300" clip-path="url(#clip-path)">
      <path id="Tracé_2779" data-name="Tracé 2779" d="M283.144,163.676l-36.853,15.67,76.252,25.544,23.367-29.055-25.426-10.828-5.669-1.331Z" transform="translate(-6.686 -4.443)" fill="#78453a"/>
      <g id="Groupe_279" data-name="Groupe 279" transform="translate(0 0)">
        <g id="Groupe_278" data-name="Groupe 278" clip-path="url(#clip-path-2)">
          <path id="Tracé_2780" data-name="Tracé 2780" d="M236.466,226.3a33.854,33.854,0,0,1-3.541,1.441l-44.978,56.385-3.3,5.581-5.667,4.713s-36.13,5.217-24.654-24.347c2.2-5.658,28.483-37.754,48.7-60.9A205.589,205.589,0,0,1,217.141,194.2c12.888-11.837,23.259-13.933,23.259-13.933s.5-.063,1.331-.08c2.29-.045,7.11.278,10.908,3.278,3.331,2.626,5.873,7.31,5.249,15.607-1.208,15.99-14.826,24.175-21.422,27.225" transform="translate(-4.128 -4.891)" fill="#f06d50"/>
          <path id="Tracé_2781" data-name="Tracé 2781" d="M224.986,357.425s17.756,3.4,19.784,3.9,9.01,1.809,11.452.484c0,0,2.162,1.425-1.27,4.65s-13.747,1.119-13.747,1.119Z" transform="translate(-6.108 -9.703)" fill="#e8876d"/>
          <path id="Tracé_2782" data-name="Tracé 2782" d="M337.117,91.991c-2.1,16.663-6.993,43.505-16.009,53.764-1.766,2.009,4.032-44.722,2.347-46.489-5.446-5.72.636-14.106-2.478-18.093.406-6.434-5.371-14.265-1.392-20.01,6.6-.191,15.879,3.769,17.12,12.647a64.767,64.767,0,0,1,.412,18.181" transform="translate(-8.637 -1.66)" fill="#111"/>
          <path id="Tracé_2783" data-name="Tracé 2783" d="M194.812,291.184l8.607,20.9.007.016c4.688,9.5,15.458,32.943,15.458,32.943s-22.436,17.373-24.846,13.352c-4.649-7.759-39.274-59.965-40.844-72.305-.034-.267,3.688-17.137,3.688-17.137s15.411-8.207,23.13-5.877a6.054,6.054,0,0,1,2.2,1.285c4.423,3.837,8.14,14.695,12.6,26.824" transform="translate(-4.159 -7.13)" fill="#f06d50"/>
          <path id="Tracé_2784" data-name="Tracé 2784" d="M372.869,727.619c-3.66.04-22.073-1.023-37.231-1.187,0,0-14.829-121.968-18.573-154.006-2.941-25.165-11.021-112.046-11.021-112.046l-4.895-1.19v.347c-7.82-7.473-21.616,5.467-28.356-18.5a103.489,103.489,0,0,1-1.917-47.5c.418-2.239.888-4.348,1.383-6.3h94.456l.36,6.2c2.306,28.807,4.893,72.224,4.595,126.043-.107,19.363-.522,27.971-.668,43.785-.319,34.318,2.205,163.923,1.866,164.352" transform="translate(-7.302 -10.512)" fill="#002d3f"/>
          <path id="Tracé_2785" data-name="Tracé 2785" d="M337.541,393.719a34.332,34.332,0,0,0,11.195,14.756c6.578,4.966,9.217,5.466,12.279,5.854" transform="translate(-9.163 -10.688)" fill="none" stroke="#fff" stroke-linecap="round" stroke-linejoin="round" stroke-width="1.322"/>
          <path id="Tracé_2786" data-name="Tracé 2786" d="M305.21,460.14l-4.894-1.19c.061-4.8.241,41.334-1.462,78.887-1.251,27.572-2.886,47.325-3.485,55.2-1.9,24.924-3.213,82.915-1.272,136.027-14.938,0-30.087-2.031-45.025-2.031.482-58.3-1.8-124.071-4.079-157.147-1.872-27.14-3.624-43.093-5.089-73.275-2.24-46.15-1.792-83.992-1.013-109.368h64.738c1.357,33.018,1.922,38.2,1.582,72.9" transform="translate(-6.468 -10.512)" fill="#002d3f"/>
          <path id="Tracé_2787" data-name="Tracé 2787" d="M270.165,393.719a34.087,34.087,0,0,1-27.478,21.372" transform="translate(-6.588 -10.688)" fill="none" stroke="#fff" stroke-linecap="round" stroke-linejoin="round" stroke-width="1.322"/>
          <line id="Ligne_384" data-name="Ligne 384" x1="2.544" y2="54.617" transform="translate(293.294 385.991)" fill="none" stroke="#fff" stroke-linecap="round" stroke-linejoin="round" stroke-width="1.322"/>
          <path id="Tracé_2788" data-name="Tracé 2788" d="M314.017,396.761q-.339,12.551-.678,25.1a6.654,6.654,0,0,1-2.714,4.919,6.145,6.145,0,0,1-3.392,1.018" transform="translate(-8.34 -10.771)" fill="none" stroke="#fff" stroke-linecap="round" stroke-linejoin="round" stroke-width="1.322"/>
          <path id="Tracé_2789" data-name="Tracé 2789" d="M494.516,224.228l-.949-3.38a11.648,11.648,0,0,1-.178-5.622,12.607,12.607,0,0,1,9.382-9.465l18.878-8.029c6.907-1.728,8.224.24,10.07,6.81l3.466,12.339c1.846,6.57,1.706,5.958-4.676,8.83,0,0-13.386,8.067-20.078,7.321s-14.07-2.234-15.916-8.8" transform="translate(-13.387 -5.352)" fill="#78453a"/>
          <path id="Tracé_2790" data-name="Tracé 2790" d="M553.759,182.682h0c.855,1.4-3.589,4.661-4.987,5.516l-24.424,14.94a2.979,2.979,0,1,1-3.109-5.083l24.423-14.94c1.4-.855,7.241-1.831,8.1-.433" transform="translate(-14.111 -4.94)" fill="#78453a"/>
          <path id="Tracé_2791" data-name="Tracé 2791" d="M564.387,190.861h0c.691,1.573-2.759,4.625-4.332,5.316L531.614,208.67a3.124,3.124,0,1,1-2.513-5.721l28.44-12.493c1.573-.691,6.155-1.167,6.846.406" transform="translate(-14.313 -5.153)" fill="#78453a"/>
          <path id="Tracé_2792" data-name="Tracé 2792" d="M564.861,202.927h0c.621,1.571-2.388,2.975-3.961,3.6l-26.457,10.449a3.072,3.072,0,0,1-2.257-5.714l26.457-10.449c1.571-.621,5.6.548,6.217,2.119" transform="translate(-14.394 -5.447)" fill="#78453a"/>
          <path id="Tracé_2793" data-name="Tracé 2793" d="M558.57,215.772h0c.45,1.6-2.907,3.329-4.506,3.781l-21.111,5.7a3.021,3.021,0,1,1-1.639-5.816l21.111-5.706c1.6-.45,5.7.437,6.146,2.036" transform="translate(-14.363 -5.799)" fill="#78453a"/>
          <path id="Tracé_2794" data-name="Tracé 2794" d="M496.689,210.483c-.643-1.7,1.773-5.433,4.063-12.187,2.217-6.538.746-11.435,2.73-12.355,1.785-.829,3.376,1.982,4.681,5.376,1.953,5.075-1.046,9.346-2.09,14.665-.382,3.877,1.052,9.172-.5,10.227-2.047,1.391-8.415-4.49-8.882-5.725" transform="translate(-13.481 -5.044)" fill="#78453a"/>
          <g id="Groupe_277" data-name="Groupe 277" transform="translate(497.178 198.444)" opacity="0.2">
            <g id="Groupe_276" data-name="Groupe 276">
              <g id="Groupe_275" data-name="Groupe 275" clip-path="url(#clip-path-3)">
                <path id="Tracé_2795" data-name="Tracé 2795" d="M511.124,206.409s8.439,6.575,7.3,12.515,3.011,3.331,3.011,3.331-.013-11.293-4.263-15.221c-3.838-3.548-6.618-4.318-6.052-.625" transform="translate(-511.051 -203.981)" fill="#78453a"/>
              </g>
            </g>
          </g>
          <path id="Tracé_2796" data-name="Tracé 2796" d="M319.423,159.5a59.365,59.365,0,0,0,.057,7.942c.329,2-3.53,4.148-7.948,5.924-1.236.5-2.515.958-3.756,1.382-4.47,1.537-8.5,2.56-8.5,2.56s-20.04-1.594-20.483-5.762c-.116-1.067-.244-5.924-.257-11.132-.014-4.091.052-8.4.257-11.274.29-4.109.618-8.22.862-11.2.219-2.714.379-4.5.379-4.5l28.4-.972,12.548-.431s-.341,4.727-.721,10.754c-.321,5.351-.675,11.717-.836,16.715" transform="translate(-7.561 -3.584)" fill="#78453a"/>
          <path id="Tracé_2797" data-name="Tracé 2797" d="M319.43,159.5c-.054,1.666-.09,4.453-.09,4.453L330.528,166s2.671,9.533-1.747,11.307c-1.235.5-14.761-.958-21-2.56s-17.879-15.8-17.879-15.8L278.8,149.14c.29-4.109.618-8.22.862-11.2l5.575.662,23.2-6.136,12.548-.431s-.341,4.727-.721,10.754c-.321,5.351-.675,11.717-.836,16.715" transform="translate(-7.568 -3.584)" fill="#5a3932"/>
          <path id="Tracé_2798" data-name="Tracé 2798" d="M384.132,236.212,377.9,246.14l-6.337,10.1-1.955,3.117c-.7,12.459-3.855,45.238-3.867,45.347-3.236,29.43,2.154,47.707.214,79.614a3.1,3.1,0,0,1-2.109,2.85,2.485,2.485,0,0,1-.762.114c-42.605,8.7-90.834,8.552-123.617-.554a3.323,3.323,0,0,1-3.167-3.272c-1.086-17.808-.065-34.265.817-50.481.689-12.617,1.3-25.085.766-37.929a246,246,0,0,0-8.519-54.688c-.442-1.632-.858-3.365-1.247-5.163-3.393-15.727-4.56-36.543-1.749-41.423.611-1.069,1.275-2.1,1.976-3.1,9.5-13.581,36.775-20.857,42.885-23.145,6.43,2.62,25.319,14.027,25.319,14.027s22.683-11.8,27.473-16.763c3.559,0,16.14,3.588,21.411,6.117,6.236,3.005,25.506,5.277,34.649,20.169.178.285.352.575.519.871,3.13,5.438,5.138,25.542,3.527,44.266" transform="translate(-6.102 -4.473)" fill="#f06d50"/>
          <path id="Tracé_2799" data-name="Tracé 2799" d="M265.041,83.152c-1.45,2.948-3.831,18.164,1.616,34.96,7.929,24.444,12.737,27.926,14.938,29.305a26.815,26.815,0,0,0,17.422,3.516c11.943-1.648,18.735-11.084,20.2-13.119,9.647-13.4,6.225-30.049,2.238-49.455-2.146-10.442-3.981-12.624-5.279-13.832-6.58-6.128-48.775,3.828-51.134,8.624" transform="translate(-7.146 -1.971)" fill="#78453a"/>
          <path id="Tracé_2800" data-name="Tracé 2800" d="M317.188,101.786a38.232,38.232,0,0,1-7.6,3.1,6.4,6.4,0,0,1-1.518.233,7.768,7.768,0,0,1-1.505-.1,25.41,25.41,0,0,1-6.5-1.935s2.37-3.494,5.715-4.464a8.155,8.155,0,0,1,2.066-.345,10.573,10.573,0,0,1,2.053.144c3.529.551,7.287,3.368,7.287,3.368" transform="translate(-8.146 -2.668)" fill="#fff"/>
        </g>
      </g>
      <g id="Groupe_281" data-name="Groupe 281" transform="translate(291.891 95.601)">
        <g id="Groupe_280" data-name="Groupe 280" clip-path="url(#clip-path-4)">
          <path id="Tracé_2801" data-name="Tracé 2801" d="M310.338,101.672a3.223,3.223,0,1,1-3.3-3.63,3.491,3.491,0,0,1,3.3,3.63" transform="translate(-300.143 -98.263)"/>
        </g>
      </g>
      <g id="Groupe_283" data-name="Groupe 283" transform="translate(0 0)">
        <g id="Groupe_282" data-name="Groupe 282" clip-path="url(#clip-path-2)">
          <path id="Tracé_2803" data-name="Tracé 2803" d="M317.188,101.786s-3.757-2.817-7.287-3.368a10.573,10.573,0,0,0-2.053-.144,8.155,8.155,0,0,0-2.066.345c-3.346.971-5.715,4.464-5.715,4.464" transform="translate(-8.146 -2.668)" fill="none" stroke="#5a3932" stroke-linejoin="round" stroke-width="0.758"/>
          <path id="Tracé_2804" data-name="Tracé 2804" d="M269.206,103.319a38.244,38.244,0,0,0,7.786,2.609,6.4,6.4,0,0,0,1.528.134,7.7,7.7,0,0,0,1.5-.2,25.414,25.414,0,0,0,6.359-2.346s-2.588-3.335-5.989-4.09a8.126,8.126,0,0,0-2.085-.213,10.643,10.643,0,0,0-2.038.274c-3.488.775-7.057,3.827-7.057,3.827" transform="translate(-7.308 -2.693)" fill="#fff"/>
        </g>
      </g>
      <g id="Groupe_285" data-name="Groupe 285" transform="translate(261.897 96.52)">
        <g id="Groupe_284" data-name="Groupe 284" clip-path="url(#clip-path-6)">
          <path id="Tracé_2805" data-name="Tracé 2805" d="M273.632,102.846a3.223,3.223,0,1,0,3.062-3.833,3.492,3.492,0,0,0-3.062,3.833" transform="translate(-269.325 -99.208)"/>
        </g>
      </g>
      <g id="Groupe_299" data-name="Groupe 299" transform="translate(0 0)">
        <g id="Groupe_298" data-name="Groupe 298" clip-path="url(#clip-path-2)">
          <path id="Tracé_2807" data-name="Tracé 2807" d="M491.2,243.635l14.818-8.5-13.258-21.531-15.1,9.817Z" transform="translate(-12.967 -5.799)" fill="#4ac9e6"/>
          <path id="Tracé_2808" data-name="Tracé 2808" d="M269.206,103.319s3.569-3.052,7.057-3.827a10.643,10.643,0,0,1,2.038-.274,8.126,8.126,0,0,1,2.085.213c3.4.755,5.989,4.09,5.989,4.09" transform="translate(-7.308 -2.693)" fill="none" stroke="#5a3932" stroke-linejoin="round" stroke-width="0.758"/>
          <path id="Tracé_2809" data-name="Tracé 2809" d="M299.425,95.04a2.7,2.7,0,0,1,1.464-3.024c4.507-2.959,11.259-2.742,15.8.037a13.4,13.4,0,0,1,1.109.8c.374.229.742.543.327,2.27-.025.092-.032.278-.153.3-.922.183-1.5-.422-2.307-.64a18.542,18.542,0,0,0-13.815-.167,11.332,11.332,0,0,1-2.272.728c-.161.028-.144-.2-.153-.3" transform="translate(-8.128 -2.44)" fill="#212121"/>
          <path id="Tracé_2810" data-name="Tracé 2810" d="M268.468,96.011c-.259-1.015-.329-1.427.479-1.936a13.3,13.3,0,0,1,8.9-3.165,13.7,13.7,0,0,1,8.8,3.357c.317.326.837.289.522,1.824-.022.1-.023.283-.153.3a1.875,1.875,0,0,1-1.178-.286,19.023,19.023,0,0,0-16,0c-.378.122-.644.455-1.214.2-.12-.038-.118-.209-.153-.3" transform="translate(-7.283 -2.468)" fill="#212121"/>
          <path id="Tracé_2811" data-name="Tracé 2811" d="M292.518,104.852c-.755,4.667-2.345,9.245-2.75,13.929-.129,1.9,2.583,1.66,3.946,1.73.947-.007,1.9-.08,2.863-.165a12.114,12.114,0,0,1-5.8.875c-2.857-.332-2.264-3.376-1.916-5.4a46.9,46.9,0,0,1,3.661-10.971" transform="translate(-7.833 -2.846)" fill="#212121"/>
          <path id="Tracé_2812" data-name="Tracé 2812" d="M300.68,139.132c-2.669,1.275-6.183,2.01-8.8.3,1.5-.012,2.926.462,4.423.446a21.609,21.609,0,0,0,4.38-.747" transform="translate(-7.923 -3.777)" fill="#212121"/>
          <path id="Tracé_2813" data-name="Tracé 2813" d="M287.2,133.128s4.616,3.553,8.25,3.436c4.106-.13,9.262-4,9.262-4a26.384,26.384,0,0,0-8.092-1.02,52.026,52.026,0,0,0-9.419,1.579" transform="translate(-7.797 -3.571)" fill="#fff"/>
          <path id="Tracé_2814" data-name="Tracé 2814" d="M287.2,133.078a55.486,55.486,0,0,1,8.719-1.449,55.283,55.283,0,0,1,8.793.889s-1.979-2.333-7.706-2.811a13.827,13.827,0,0,0-9.805,3.37" transform="translate(-7.797 -3.52)" fill="#5a3932"/>
          <path id="Tracé_2815" data-name="Tracé 2815" d="M333.34,68.99c-3.98,5.745-12.277,8.709-12.683,15.144-20.466-8.529-54.285,2.367-57.68,2.014-6.574-.684-8.252-1.9-8.935-4.571-.969-3.793,4.464-5.505.8-9.985-4.856-5.935.421-16.071,14.3-13.636,23.959,4.2,25.886-3.119,44.947-1.409,9.674.868,17.7,5.194,19.252,12.444" transform="translate(-6.87 -1.528)" fill="#212121"/>
          <path id="Tracé_2816" data-name="Tracé 2816" d="M324.954,97.975c4.794-5.241,7.829-2.443,9.316.3,1.959,3.609,2.371,11.142-1.486,17.279-.884,1.408-3.683,5.669-8.013,4.139-5.709-2.018.874-15.5.183-21.716" transform="translate(-8.753 -2.58)" fill="#5a3932"/>
          <g id="Groupe_288" data-name="Groupe 288" transform="translate(318.065 313.183)" opacity="0.2" style="mix-blend-mode: multiply;isolation: isolate">
            <g id="Groupe_287" data-name="Groupe 287">
              <g id="Groupe_286" data-name="Groupe 286" clip-path="url(#clip-path-8)">
                <path id="Tracé_2817" data-name="Tracé 2817" d="M367.475,331.347a454.853,454.853,0,0,1,1.321,55.026,47.224,47.224,0,0,1-.988,5.408l11.813,333.476s-1.541.045-8.03.1c-2.11-45.817-15.87-262.274-18.011-308.034-.393-8.4-26.64-18.874-26.64-18.874-.116-2.585,24.873-2,24.929-3.583.621-17.365,6.4-26.411,8.858-54.04,1.458-16.419,6.748-27.873,6.748-9.475" transform="translate(-326.94 -321.922)" fill="#41385a"/>
              </g>
            </g>
          </g>
          <path id="Tracé_2818" data-name="Tracé 2818" d="M435.6,274.732c3.654,6.981,1.333,11.906-2.964,14.2a117.277,117.277,0,0,1-11.519,5.216,14.015,14.015,0,0,1-3.567.906c-17.921,1.051-32.79-21.327-37.372-29.705s-9.063-17.042-9.063-17.042a203.6,203.6,0,0,1-11.959-18.749c-3.208-5.7-5.794-11.394-8.238-16.557-13.655-28.845,16.687-42.9,30.72-24.989C396.2,206.6,411.6,228.882,435.6,274.732" transform="translate(-9.432 -4.888)" fill="#f06d50"/>
          <path id="Tracé_2819" data-name="Tracé 2819" d="M490.644,244.69l-18.265,16.9a59.874,59.874,0,0,1-15.611,14.532s-24.3,17.108-30.234,18.724-8.573,1.607-10.949,1.328c-7.9-.935-11.734-7.795-11.734-7.795a11.424,11.424,0,0,1-.757-1.288c-.944-1.858-2.264-5.466-.729-9,1.628-3.742,11.86-12.626,24.125-22.205,15.066-11.771,33.2-24.595,42.24-30.235a43.886,43.886,0,0,1,4.766-2.706c8.184-3.543,17.148,21.74,17.148,21.74" transform="translate(-10.904 -6.043)" fill="#f06d50"/>
          <g id="Groupe_291" data-name="Groupe 291" transform="translate(280.881 449.025)" opacity="0.2" style="mix-blend-mode: multiply;isolation: isolate">
            <g id="Groupe_290" data-name="Groupe 290">
              <g id="Groupe_289" data-name="Groupe 289" clip-path="url(#clip-path-9)">
                <path id="Tracé_2820" data-name="Tracé 2820" d="M301.685,461.555l-6.219,269.522-6.746-2.03c-.058-20.123,7.009-180.745,9.409-210.407,1.17-14.426,2.315-57.085,3.557-57.085" transform="translate(-288.719 -461.555)" fill="#41385a"/>
              </g>
            </g>
          </g>
          <path id="Tracé_2821" data-name="Tracé 2821" d="M227.508,358.09c-.677-.111-9.4-2.739-13.647-.158a13.032,13.032,0,0,0-4.955,16.132c1.438,3.022,7.387,7.472,11.373,10.375.99.722.329.174,5.321,3.424,4.326,2.816,5.732,3.821,8.1,4.693a20.953,20.953,0,0,0,4.734,1.145c4.785-7.15,11.746-17.629,11.954-21.2.085-1.456-20.853-14.08-22.88-14.412" transform="translate(-5.641 -9.686)" fill="#78453a"/>
          <path id="Tracé_2822" data-name="Tracé 2822" d="M242.979,367.808s27.7,14.282,28.426,14.986-.085,2.934-1.154,3.534-13.588-5.126-16.221-6.277-13.977-5.774-15.353-7.269,4.3-4.974,4.3-4.974" transform="translate(-6.473 -9.985)" fill="#78453a"/>
          <path id="Tracé_2823" data-name="Tracé 2823" d="M241.014,373.817c-.077.9,5.884,5.448,14.264,9.391,5.763,2.711,11.413,3.458,13.426,4.57,1.595.88,1.15,3.8-.4,4.167a47.9,47.9,0,0,1-13.366-3.12c-9.429-3.534-18.922-8.1-18.922-8.1Z" transform="translate(-6.407 -10.148)" fill="#78453a"/>
          <path id="Tracé_2824" data-name="Tracé 2824" d="M234.685,386.294a137.812,137.812,0,0,0,16.027,7.212,81.435,81.435,0,0,0,11.219,3.352c3.858.617,4.2-1.807,2.957-3.535-.6-.839-3.834-.741-12.55-4.525s-20.753-12.057-20.753-12.057Z" transform="translate(-6.287 -10.227)" fill="#78453a"/>
          <path id="Tracé_2825" data-name="Tracé 2825" d="M235.833,393.188c5.069,2.855,14.691,7.541,19.086,6.709a1.964,1.964,0,0,0,1.592-2.885c-.343-.787-15.047-5.263-17.717-9.206Z" transform="translate(-6.402 -10.528)" fill="#78453a"/>
          <path id="Tracé_2826" data-name="Tracé 2826" d="M219.05,348l6.586,7.8-18.719,18.518-9.153-13.158Z" transform="translate(-5.369 -9.447)" fill="#4ac9e6"/>
          <g id="Groupe_294" data-name="Groupe 294" transform="translate(222.125 229.799)" opacity="0.2" style="mix-blend-mode: multiply;isolation: isolate">
            <g id="Groupe_293" data-name="Groupe 293">
              <g id="Groupe_292" data-name="Groupe 292" clip-path="url(#clip-path-10)">
                <path id="Tracé_2827" data-name="Tracé 2827" d="M240.853,349.687c-1.676,2.385-2.763,2.963-4.53,2.721.688-12.617,2.19-42.578,1.66-55.422a245.948,245.948,0,0,0-8.519-54.688c-.442-1.633-.752-2.88-1.141-4.678.535-.716.83-1.538,1.06-1.392.7.449,5.819,6.345,7.2,14.52,4.077,11.135,9.826,91.058,4.275,98.938" transform="translate(-228.323 -236.211)" fill="#41385a"/>
              </g>
            </g>
          </g>
          <g id="Groupe_297" data-name="Groupe 297" transform="translate(415.586 219.612)" opacity="0.2" style="mix-blend-mode: multiply;isolation: isolate">
            <g id="Groupe_296" data-name="Groupe 296">
              <g id="Groupe_295" data-name="Groupe 295" clip-path="url(#clip-path-11)">
                <path id="Tracé_2828" data-name="Tracé 2828" d="M469.423,225.74C445.2,249.926,429.956,289.1,428.1,273.425c-.721-6.087.687-11.885-.917-17.45,15.068-11.772,33.2-24.595,42.242-30.235" transform="translate(-427.182 -225.74)" fill="#41385a"/>
              </g>
            </g>
          </g>
          <path id="Tracé_2829" data-name="Tracé 2829" d="M323.278,96.781c.36,9.783-10.567,42.057-15.014,33.043-3.887-5.887-6.453-5.96-12.969-6.575-12.859-1.021-14.613,7.336-14.613,7.336s-1.631,7.366-13.142-9.918c3.974,26.092,14.55,33.2,30.262,32.184,15.671-1.011,24.424-17.725,24.424-17.725s7.9-14.459,1.053-38.345m-16.43,43.382c.361,3.3-4.878-.36-10.889-.36s-11.209,3.293-11.612,0c-.991-8.1,0-12.5,11.612-12.016,12.323.515,9.949,3.8,10.889,12.376" transform="translate(-7.263 -2.627)" fill="#111"/>
        </g>
      </g>
    </g>
  </g>
</svg>
