<svg id="Groupe_270" data-name="Groupe 270" xmlns="http://www.w3.org/2000/svg" xmlns:xlink="http://www.w3.org/1999/xlink" width="253.497" height="255" viewBox="0 0 253.497 255">
  <defs>
    <clipPath id="clip-path">
      <rect id="Rectangle_726" data-name="Rectangle 726" width="253.497" height="255" fill="none"/>
    </clipPath>
  </defs>
  <g id="Groupe_249" data-name="Groupe 249">
    <g id="Groupe_248" data-name="Groupe 248" clip-path="url(#clip-path)">
      <path id="Tracé_2649" data-name="Tracé 2649" d="M211.5,264c.048.1-35.949,10.24-35.949,10.24.847,1.872-3.268,46.379,36.192,91.144l6.513-3.82c-37.05-55.406-6.7-97.455-6.757-97.563" transform="translate(-75.974 -114.253)" fill="#b4a9d1"/>
      <path id="Tracé_2650" data-name="Tracé 2650" d="M236.239,434.527,218,426.251l21.93-11.422Z" transform="translate(-94.346 -179.527)" fill="#b4a9d1"/>
      <path id="Tracé_2651" data-name="Tracé 2651" d="M0,29.676,249.682,0,253.5,181.368,5.626,172.951Z" transform="translate(0 0)" fill="#b4a9d1"/>
      <path id="Tracé_2652" data-name="Tracé 2652" d="M38.6,134.276l95.424-15.167a1.4,1.4,0,0,0,1.159-1.6l-4.537-69.4a1.4,1.4,0,0,0-1.6-1.159L33.629,62.117a1.4,1.4,0,0,0-1.159,1.6l4.537,69.4a1.4,1.4,0,0,0,1.6,1.159" transform="translate(-14.045 -20.311)" fill="#00445e"/>
      <path id="Tracé_2653" data-name="Tracé 2653" d="M126.645,120.3,39.821,134.1a6.6,6.6,0,0,1-7.532-5.466L24.271,78.178a6.6,6.6,0,0,1,5.466-7.532l86.824-13.8a6.6,6.6,0,0,1,7.532,5.466l8.019,50.452a6.6,6.6,0,0,1-5.466,7.532" transform="translate(-10.468 -24.566)" fill="#ccdee5"/>
      <path id="Tracé_2654" data-name="Tracé 2654" d="M70.384,139.97h0a1.429,1.429,0,0,1-1.631-1.184L60.9,89.372a1.425,1.425,0,1,1,2.815-.447l7.854,49.413a1.429,1.429,0,0,1-1.184,1.631" transform="translate(-26.348 -37.964)" fill="#fff"/>
      <path id="Tracé_2655" data-name="Tracé 2655" d="M79.069,138.589h0a1.429,1.429,0,0,1-1.631-1.184L69.584,87.991a1.425,1.425,0,0,1,2.815-.447l7.854,49.413a1.429,1.429,0,0,1-1.184,1.631" transform="translate(-30.106 -37.367)" fill="#fff"/>
      <path id="Tracé_2656" data-name="Tracé 2656" d="M87.755,137.209h0a1.429,1.429,0,0,1-1.631-1.184L78.27,86.611a1.425,1.425,0,1,1,2.815-.447l7.854,49.413a1.429,1.429,0,0,1-1.184,1.631" transform="translate(-33.865 -36.769)" fill="#fff"/>
      <path id="Tracé_2657" data-name="Tracé 2657" d="M96.44,135.828h0a1.429,1.429,0,0,1-1.631-1.184L86.955,85.23a1.425,1.425,0,0,1,2.815-.447L97.623,134.2a1.429,1.429,0,0,1-1.184,1.631" transform="translate(-37.624 -36.172)" fill="#fff"/>
      <path id="Tracé_2658" data-name="Tracé 2658" d="M105.126,134.448h0a1.429,1.429,0,0,1-1.631-1.184L95.641,83.85a1.425,1.425,0,1,1,2.815-.447l7.854,49.413a1.429,1.429,0,0,1-1.184,1.631" transform="translate(-41.383 -35.574)" fill="#fff"/>
      <path id="Tracé_2659" data-name="Tracé 2659" d="M113.811,133.067h0a1.429,1.429,0,0,1-1.631-1.184l-7.854-49.414a1.425,1.425,0,0,1,2.815-.447l7.854,49.413a1.429,1.429,0,0,1-1.184,1.631" transform="translate(-45.142 -34.977)" fill="#fff"/>
      <path id="Tracé_2660" data-name="Tracé 2660" d="M122.5,131.687h0a1.429,1.429,0,0,1-1.631-1.184l-7.854-49.414a1.425,1.425,0,0,1,2.815-.447l7.854,49.413a1.429,1.429,0,0,1-1.184,1.631" transform="translate(-48.901 -34.38)" fill="#fff"/>
      <path id="Tracé_2661" data-name="Tracé 2661" d="M131.182,130.306h0a1.429,1.429,0,0,1-1.631-1.184L121.7,79.708a1.425,1.425,0,0,1,2.815-.447l7.854,49.413a1.429,1.429,0,0,1-1.184,1.631" transform="translate(-52.659 -33.782)" fill="#fff"/>
      <path id="Tracé_2662" data-name="Tracé 2662" d="M139.867,128.926h0a1.429,1.429,0,0,1-1.631-1.184l-7.854-49.414a1.425,1.425,0,0,1,2.815-.447l7.854,49.413a1.429,1.429,0,0,1-1.184,1.631" transform="translate(-56.418 -33.185)" fill="#fff"/>
      <path id="Tracé_2663" data-name="Tracé 2663" d="M148.553,127.545h0a1.429,1.429,0,0,1-1.631-1.184l-7.854-49.414a1.425,1.425,0,1,1,2.815-.447l7.854,49.413a1.429,1.429,0,0,1-1.184,1.631" transform="translate(-60.177 -32.587)" fill="#fff"/>
      <path id="Tracé_2664" data-name="Tracé 2664" d="M157.238,126.165h0a1.429,1.429,0,0,1-1.631-1.184l-7.854-49.414a1.425,1.425,0,0,1,2.815-.447l7.854,49.413a1.429,1.429,0,0,1-1.184,1.631" transform="translate(-63.936 -31.99)" fill="#fff"/>
      <path id="Tracé_2665" data-name="Tracé 2665" d="M165.924,124.784h0a1.429,1.429,0,0,1-1.631-1.184l-7.854-49.414a1.425,1.425,0,1,1,2.815-.447l7.854,49.413a1.429,1.429,0,0,1-1.184,1.631" transform="translate(-67.695 -31.392)" fill="#fff"/>
      <path id="Tracé_2666" data-name="Tracé 2666" d="M174.609,123.4h0a1.429,1.429,0,0,1-1.631-1.184l-7.854-49.414a1.425,1.425,0,0,1,2.815-.447l7.854,49.413a1.429,1.429,0,0,1-1.184,1.631" transform="translate(-71.453 -30.795)" fill="#fff"/>
      <path id="Tracé_2667" data-name="Tracé 2667" d="M183.295,122.023h0a1.429,1.429,0,0,1-1.631-1.184L173.81,71.425a1.425,1.425,0,1,1,2.815-.447l7.854,49.413a1.429,1.429,0,0,1-1.184,1.631" transform="translate(-75.213 -30.197)" fill="#fff"/>
      <path id="Tracé_2668" data-name="Tracé 2668" d="M191.98,120.643h0a1.429,1.429,0,0,1-1.631-1.184l-7.854-49.414a1.425,1.425,0,0,1,2.815-.447l7.854,49.413a1.429,1.429,0,0,1-1.184,1.631" transform="translate(-78.971 -29.6)" fill="#fff"/>
      <path id="Tracé_2669" data-name="Tracé 2669" d="M137.765,72.708,52.727,79.9l-2.26-20.783,83.724-10.553Z" transform="translate(-21.841 -21.016)" fill="#002d3f"/>
    </g>
  </g>
  <text id="Qu_est-ce_que" data-name="Qu’est-ce que" transform="matrix(0.992, -0.124, 0.124, 0.992, 34.427, 49.499)" fill="#fff" font-size="9" font-family="SegoeUI, Segoe UI"><tspan x="0" y="0">Qu’e</tspan><tspan y="0" letter-spacing="-0.011em">s</tspan><tspan y="0">t-ce que</tspan></text>
  <g id="Groupe_251" data-name="Groupe 251">
    <g id="Groupe_250" data-name="Groupe 250" clip-path="url(#clip-path)">
      <path id="Tracé_2670" data-name="Tracé 2670" d="M143.512,85.551l-81.694,15.67L58.84,84.171l78.695-17.808Z" transform="translate(-25.464 -28.721)" fill="#ffd602"/>
    </g>
  </g>
  <text id="la_gouvernance_" data-name="la gouvernance ?" transform="translate(40.304 64.224) rotate(-12.623)" fill="#002d3f" font-size="7" font-family="SegoeUI, Segoe UI"><tspan x="0" y="0">la gou</tspan><tspan y="0" letter-spacing="-0.011em">v</tspan><tspan y="0">ernance ?</tspan></text>
  <g id="Groupe_253" data-name="Groupe 253">
    <g id="Groupe_252" data-name="Groupe 252" clip-path="url(#clip-path)">
      <path id="Tracé_2671" data-name="Tracé 2671" d="M124.816,114.247,38.908,132.919a6.6,6.6,0,0,1-7.828-5.033L20.231,77.966a6.6,6.6,0,0,1,5.032-7.828l85.908-18.671A6.6,6.6,0,0,1,119,56.5l10.85,49.92a6.6,6.6,0,0,1-5.033,7.828" transform="translate(-8.69 -22.209)" fill="#d6e4ea"/>
      <path id="Tracé_2672" data-name="Tracé 2672" d="M68.944,141.022h0a1.429,1.429,0,0,1-1.7-1.09L56.622,91.04a1.425,1.425,0,0,1,2.786-.606l10.626,48.893a1.43,1.43,0,0,1-1.09,1.7" transform="translate(-24.49 -38.652)" fill="#fff"/>
      <path id="Tracé_2673" data-name="Tracé 2673" d="M77.538,139.154h0a1.429,1.429,0,0,1-1.7-1.09L65.216,89.172A1.425,1.425,0,0,1,68,88.566l10.626,48.893a1.43,1.43,0,0,1-1.09,1.7" transform="translate(-28.21 -37.843)" fill="#fff"/>
      <path id="Tracé_2674" data-name="Tracé 2674" d="M86.132,137.287h0a1.429,1.429,0,0,1-1.7-1.09L73.81,87.3A1.425,1.425,0,0,1,76.6,86.7l10.626,48.893a1.43,1.43,0,0,1-1.09,1.7" transform="translate(-31.929 -37.035)" fill="#fff"/>
      <path id="Tracé_2675" data-name="Tracé 2675" d="M94.725,135.419h0a1.429,1.429,0,0,1-1.7-1.09L82.4,85.437a1.425,1.425,0,0,1,2.786-.606l10.626,48.893a1.43,1.43,0,0,1-1.09,1.7" transform="translate(-35.648 -36.227)" fill="#fff"/>
      <path id="Tracé_2676" data-name="Tracé 2676" d="M103.319,133.551h0a1.429,1.429,0,0,1-1.7-1.09L91,83.569a1.425,1.425,0,0,1,2.786-.606l10.626,48.893a1.43,1.43,0,0,1-1.09,1.7" transform="translate(-39.367 -35.418)" fill="#fff"/>
      <path id="Tracé_2677" data-name="Tracé 2677" d="M111.913,131.683h0a1.429,1.429,0,0,1-1.7-1.09L99.591,81.7a1.425,1.425,0,0,1,2.786-.606L113,129.987a1.43,1.43,0,0,1-1.09,1.7" transform="translate(-43.086 -34.61)" fill="#fff"/>
      <path id="Tracé_2678" data-name="Tracé 2678" d="M120.507,129.815h0a1.429,1.429,0,0,1-1.7-1.09L108.185,79.833a1.425,1.425,0,0,1,2.786-.606L121.6,128.119a1.43,1.43,0,0,1-1.09,1.7" transform="translate(-46.806 -33.802)" fill="#fff"/>
      <path id="Tracé_2679" data-name="Tracé 2679" d="M129.1,127.948h0a1.429,1.429,0,0,1-1.7-1.09L116.779,77.966a1.425,1.425,0,0,1,2.786-.606l10.626,48.893a1.43,1.43,0,0,1-1.09,1.7" transform="translate(-50.525 -32.994)" fill="#fff"/>
      <path id="Tracé_2680" data-name="Tracé 2680" d="M137.7,126.08h0a1.429,1.429,0,0,1-1.7-1.09L125.373,76.1a1.425,1.425,0,0,1,2.786-.606l10.626,48.893a1.43,1.43,0,0,1-1.09,1.7" transform="translate(-54.244 -32.185)" fill="#fff"/>
      <path id="Tracé_2681" data-name="Tracé 2681" d="M146.288,124.212h0a1.429,1.429,0,0,1-1.7-1.09L133.966,74.23a1.425,1.425,0,0,1,2.786-.606l10.626,48.893a1.43,1.43,0,0,1-1.09,1.7" transform="translate(-57.963 -31.377)" fill="#fff"/>
      <path id="Tracé_2682" data-name="Tracé 2682" d="M154.882,122.344h0a1.429,1.429,0,0,1-1.7-1.09L142.56,72.362a1.425,1.425,0,0,1,2.786-.606l10.626,48.893a1.43,1.43,0,0,1-1.09,1.7" transform="translate(-61.682 -30.568)" fill="#fff"/>
      <path id="Tracé_2683" data-name="Tracé 2683" d="M163.476,120.476h0a1.429,1.429,0,0,1-1.7-1.09L151.154,70.494a1.425,1.425,0,0,1,2.786-.606l10.626,48.893a1.43,1.43,0,0,1-1.09,1.7" transform="translate(-65.401 -29.76)" fill="#fff"/>
      <path id="Tracé_2684" data-name="Tracé 2684" d="M172.07,118.608h0a1.429,1.429,0,0,1-1.7-1.09L159.748,68.626a1.425,1.425,0,0,1,2.786-.606l10.626,48.893a1.43,1.43,0,0,1-1.09,1.7" transform="translate(-69.121 -28.952)" fill="#fff"/>
      <path id="Tracé_2685" data-name="Tracé 2685" d="M180.664,116.741h0a1.429,1.429,0,0,1-1.7-1.09L168.342,66.759a1.425,1.425,0,0,1,2.786-.606l10.626,48.893a1.43,1.43,0,0,1-1.09,1.7" transform="translate(-72.84 -28.144)" fill="#fff"/>
      <path id="Tracé_2686" data-name="Tracé 2686" d="M189.258,114.873h0a1.429,1.429,0,0,1-1.7-1.09L176.936,64.891a1.425,1.425,0,0,1,2.786-.606l10.626,48.893a1.43,1.43,0,0,1-1.09,1.7" transform="translate(-76.559 -27.335)" fill="#fff"/>
      <path id="Tracé_2687" data-name="Tracé 2687" d="M57.794,75.34,18.36,80.863a.446.446,0,0,1-.542-.3l1.56-18.047c-.033-.206.158-.41.423-.452l28.876-4.59a.469.469,0,0,1,.527.241l.083.187,8.821,16.779a.45.45,0,0,1-.307.656h-.008" transform="translate(-7.711 -24.871)" fill="#005a7d"/>
      <path id="Tracé_2688" data-name="Tracé 2688" d="M123.564,120.017,28.14,135.184a1.4,1.4,0,0,1-1.6-1.159L9.337,66.635a1.4,1.4,0,0,1,1.159-1.6L105.92,49.871a1.4,1.4,0,0,1,1.6,1.159l17.206,67.39a1.4,1.4,0,0,1-1.159,1.6" transform="translate(-4.033 -21.575)" fill="#005a7d"/>
    </g>
  </g>
  <text id="_" data-name="?" transform="translate(53.037 81.31) rotate(3.554)" fill="#fff" font-size="33" font-family="SegoeUI, Segoe UI"><tspan x="0" y="0">?</tspan></text>
  <g id="Groupe_255" data-name="Groupe 255">
    <g id="Groupe_254" data-name="Groupe 254" clip-path="url(#clip-path)">
      <path id="Tracé_2689" data-name="Tracé 2689" d="M234.8,231.619l96.131,9.726a1.4,1.4,0,0,0,1.529-1.248l13.353-68.258a1.4,1.4,0,0,0-1.248-1.529l-96.131-9.726a1.4,1.4,0,0,0-1.529,1.248L233.556,230.09a1.4,1.4,0,0,0,1.248,1.529" transform="translate(-101.074 -69.494)" fill="#004d40"/>
      <path id="Tracé_2690" data-name="Tracé 2690" d="M328.881,240.476l-87.467-8.849a6.6,6.6,0,0,1-5.884-7.209l5.142-50.826a6.6,6.6,0,0,1,7.209-5.884l87.467,8.849a6.6,6.6,0,0,1,5.885,7.209l-5.142,50.826a6.6,6.6,0,0,1-7.209,5.884" transform="translate(-101.916 -72.565)" fill="#ccdee5"/>
      <path id="Tracé_2691" data-name="Tracé 2691" d="M273.368,234.063h0a1.43,1.43,0,0,1-1.275-1.562l5.036-49.78a1.425,1.425,0,0,1,2.836.287l-5.036,49.78a1.43,1.43,0,0,1-1.562,1.275" transform="translate(-117.752 -78.523)" fill="#fff"/>
      <path id="Tracé_2692" data-name="Tracé 2692" d="M282.118,234.948h0a1.429,1.429,0,0,1-1.275-1.562l5.036-49.78a1.425,1.425,0,0,1,2.836.287l-5.036,49.78a1.429,1.429,0,0,1-1.562,1.275" transform="translate(-121.539 -78.906)" fill="#fff"/>
      <path id="Tracé_2693" data-name="Tracé 2693" d="M290.867,235.833h0a1.429,1.429,0,0,1-1.275-1.562l5.036-49.78a1.425,1.425,0,1,1,2.836.287l-5.036,49.78a1.429,1.429,0,0,1-1.562,1.275" transform="translate(-125.325 -79.289)" fill="#fff"/>
      <path id="Tracé_2694" data-name="Tracé 2694" d="M299.617,236.719h0a1.43,1.43,0,0,1-1.275-1.562l5.036-49.78a1.425,1.425,0,0,1,2.836.287l-5.036,49.78a1.43,1.43,0,0,1-1.562,1.275" transform="translate(-129.112 -79.672)" fill="#fff"/>
      <path id="Tracé_2695" data-name="Tracé 2695" d="M308.367,237.6h0a1.43,1.43,0,0,1-1.275-1.562l5.036-49.78a1.425,1.425,0,0,1,2.836.287l-5.036,49.78a1.43,1.43,0,0,1-1.562,1.275" transform="translate(-132.898 -80.055)" fill="#fff"/>
      <path id="Tracé_2696" data-name="Tracé 2696" d="M317.117,238.489h0a1.43,1.43,0,0,1-1.275-1.562l5.036-49.78a1.425,1.425,0,1,1,2.836.287l-5.036,49.78a1.43,1.43,0,0,1-1.562,1.275" transform="translate(-136.685 -80.438)" fill="#fff"/>
      <path id="Tracé_2697" data-name="Tracé 2697" d="M325.867,239.374h0a1.43,1.43,0,0,1-1.275-1.562l5.036-49.78a1.425,1.425,0,0,1,2.836.287l-5.036,49.78a1.43,1.43,0,0,1-1.562,1.275" transform="translate(-140.472 -80.821)" fill="#fff"/>
      <path id="Tracé_2698" data-name="Tracé 2698" d="M334.617,240.26h0a1.429,1.429,0,0,1-1.275-1.562l5.036-49.78a1.425,1.425,0,0,1,2.836.287l-5.036,49.78a1.43,1.43,0,0,1-1.561,1.275" transform="translate(-144.259 -81.204)" fill="#fff"/>
      <path id="Tracé_2699" data-name="Tracé 2699" d="M343.366,241.145h0a1.43,1.43,0,0,1-1.275-1.562l5.036-49.78a1.425,1.425,0,0,1,2.836.287l-5.036,49.78a1.43,1.43,0,0,1-1.562,1.275" transform="translate(-148.045 -81.587)" fill="#fff"/>
      <path id="Tracé_2700" data-name="Tracé 2700" d="M352.116,242.03h0a1.429,1.429,0,0,1-1.275-1.562l5.036-49.78a1.425,1.425,0,1,1,2.836.287l-5.036,49.78a1.43,1.43,0,0,1-1.562,1.275" transform="translate(-151.832 -81.97)" fill="#fff"/>
      <path id="Tracé_2701" data-name="Tracé 2701" d="M360.866,242.916h0a1.43,1.43,0,0,1-1.275-1.562l5.036-49.78a1.425,1.425,0,0,1,2.836.287l-5.036,49.78a1.429,1.429,0,0,1-1.562,1.275" transform="translate(-155.619 -82.354)" fill="#fff"/>
      <path id="Tracé_2702" data-name="Tracé 2702" d="M369.616,243.8h0a1.43,1.43,0,0,1-1.275-1.562l5.036-49.78a1.425,1.425,0,1,1,2.836.287l-5.036,49.78a1.429,1.429,0,0,1-1.562,1.275" transform="translate(-159.405 -82.737)" fill="#fff"/>
      <path id="Tracé_2703" data-name="Tracé 2703" d="M378.366,244.686h0a1.43,1.43,0,0,1-1.275-1.562l5.036-49.78a1.425,1.425,0,0,1,2.836.287l-5.036,49.78a1.429,1.429,0,0,1-1.561,1.275" transform="translate(-163.192 -83.12)" fill="#fff"/>
      <path id="Tracé_2704" data-name="Tracé 2704" d="M387.115,245.571h0a1.429,1.429,0,0,1-1.275-1.562l5.036-49.78a1.425,1.425,0,0,1,2.836.287l-5.036,49.78a1.43,1.43,0,0,1-1.562,1.275" transform="translate(-166.979 -83.503)" fill="#fff"/>
      <path id="Tracé_2705" data-name="Tracé 2705" d="M395.865,246.457h0a1.429,1.429,0,0,1-1.275-1.562l5.036-49.78a1.425,1.425,0,1,1,2.836.287l-5.036,49.78a1.43,1.43,0,0,1-1.562,1.275" transform="translate(-170.765 -83.886)" fill="#fff"/>
      <path id="Tracé_2706" data-name="Tracé 2706" d="M355.416,193.8l-84.051-14.784,3.127-20.67,83.64,11.2Z" transform="translate(-117.44 -68.528)" fill="#002d3f"/>
    </g>
  </g>
  <text id="Qu_est-ce_que-2" data-name="Qu’est-ce que" transform="matrix(0.991, 0.133, -0.133, 0.991, 159.763, 102.334)" fill="#fff" font-size="9" font-family="SegoeUI, Segoe UI"><tspan x="0" y="0">Qu’e</tspan><tspan y="0" letter-spacing="-0.011em">s</tspan><tspan y="0">t-ce que</tspan></text>
  <g id="Groupe_257" data-name="Groupe 257">
    <g id="Groupe_256" data-name="Groupe 256" clip-path="url(#clip-path)">
      <path id="Tracé_2707" data-name="Tracé 2707" d="M339.038,183.657l-82.985-5.731,1.478-17.245,80.632,2.9Z" transform="translate(-110.813 -69.539)" fill="#e8876d"/>
    </g>
  </g>
  <text id="la_gouvernance_2" data-name="la gouvernance ?" transform="matrix(0.999, 0.038, -0.038, 0.999, 151.139, 101.3)" fill="#002d3f" font-size="7" font-family="SegoeUI, Segoe UI"><tspan x="0" y="0">la gou</tspan><tspan y="0" letter-spacing="-0.012em">v</tspan><tspan y="0">ernance ?</tspan></text>
  <g id="Groupe_259" data-name="Groupe 259">
    <g id="Groupe_258" data-name="Groupe 258" clip-path="url(#clip-path)">
      <path id="Tracé_2708" data-name="Tracé 2708" d="M329.9,237.755l-87.827-3.905a6.6,6.6,0,0,1-6.281-6.867l2.269-51.034a6.6,6.6,0,0,1,6.866-6.281l87.827,3.905a6.6,6.6,0,0,1,6.281,6.867l-2.27,51.035a6.6,6.6,0,0,1-6.866,6.281" transform="translate(-102.042 -73.425)" fill="#d6e4ea"/>
      <path id="Tracé_2709" data-name="Tracé 2709" d="M273.854,234.713h0a1.429,1.429,0,0,1-1.361-1.487l2.223-49.985a1.425,1.425,0,0,1,2.848.127l-2.223,49.984a1.43,1.43,0,0,1-1.487,1.361" transform="translate(-117.927 -78.713)" fill="#fff"/>
      <path id="Tracé_2710" data-name="Tracé 2710" d="M282.64,235.1h0a1.429,1.429,0,0,1-1.361-1.487l2.223-49.985a1.425,1.425,0,0,1,2.848.127l-2.223,49.984a1.43,1.43,0,0,1-1.487,1.361" transform="translate(-121.73 -78.882)" fill="#fff"/>
      <path id="Tracé_2711" data-name="Tracé 2711" d="M291.425,235.495h0a1.43,1.43,0,0,1-1.361-1.487l2.223-49.985a1.425,1.425,0,0,1,2.848.127l-2.223,49.984a1.429,1.429,0,0,1-1.487,1.361" transform="translate(-125.531 -79.051)" fill="#fff"/>
      <path id="Tracé_2712" data-name="Tracé 2712" d="M300.211,235.885h0a1.429,1.429,0,0,1-1.361-1.487l2.223-49.985a1.425,1.425,0,0,1,2.848.127L301.7,234.524a1.43,1.43,0,0,1-1.487,1.361" transform="translate(-129.334 -79.22)" fill="#fff"/>
      <path id="Tracé_2713" data-name="Tracé 2713" d="M309,236.276h0a1.429,1.429,0,0,1-1.361-1.487l2.223-49.985a1.425,1.425,0,0,1,2.848.127l-2.223,49.984A1.43,1.43,0,0,1,309,236.276" transform="translate(-133.136 -79.389)" fill="#fff"/>
      <path id="Tracé_2714" data-name="Tracé 2714" d="M317.783,236.667h0a1.429,1.429,0,0,1-1.361-1.487l2.223-49.985a1.425,1.425,0,0,1,2.848.127l-2.223,49.984a1.43,1.43,0,0,1-1.487,1.361" transform="translate(-136.939 -79.558)" fill="#fff"/>
      <path id="Tracé_2715" data-name="Tracé 2715" d="M326.569,237.057h0a1.429,1.429,0,0,1-1.361-1.487l2.223-49.985a1.425,1.425,0,0,1,2.848.127L328.056,235.7a1.43,1.43,0,0,1-1.487,1.361" transform="translate(-140.741 -79.727)" fill="#fff"/>
      <path id="Tracé_2716" data-name="Tracé 2716" d="M335.354,237.448h0a1.429,1.429,0,0,1-1.361-1.487l2.223-49.985a1.425,1.425,0,0,1,2.848.127l-2.223,49.984a1.43,1.43,0,0,1-1.487,1.361" transform="translate(-144.543 -79.896)" fill="#fff"/>
      <path id="Tracé_2717" data-name="Tracé 2717" d="M344.14,237.839h0a1.43,1.43,0,0,1-1.361-1.487L345,186.367a1.425,1.425,0,0,1,2.848.127l-2.223,49.984a1.43,1.43,0,0,1-1.487,1.361" transform="translate(-148.345 -80.066)" fill="#fff"/>
      <path id="Tracé_2718" data-name="Tracé 2718" d="M352.926,238.23h0a1.429,1.429,0,0,1-1.361-1.487l2.223-49.985a1.425,1.425,0,0,1,2.848.127l-2.223,49.984a1.43,1.43,0,0,1-1.487,1.361" transform="translate(-152.147 -80.235)" fill="#fff"/>
      <path id="Tracé_2719" data-name="Tracé 2719" d="M361.712,238.62h0a1.429,1.429,0,0,1-1.361-1.487l2.223-49.985a1.425,1.425,0,0,1,2.848.127L363.2,237.259a1.43,1.43,0,0,1-1.487,1.361" transform="translate(-155.95 -80.403)" fill="#fff"/>
      <path id="Tracé_2720" data-name="Tracé 2720" d="M370.5,239.011h0a1.43,1.43,0,0,1-1.361-1.487l2.223-49.985a1.425,1.425,0,0,1,2.848.127l-2.223,49.984a1.43,1.43,0,0,1-1.487,1.361" transform="translate(-159.752 -80.573)" fill="#fff"/>
      <path id="Tracé_2721" data-name="Tracé 2721" d="M379.283,239.4h0a1.43,1.43,0,0,1-1.361-1.487l2.223-49.985a1.425,1.425,0,0,1,2.848.127l-2.223,49.984a1.43,1.43,0,0,1-1.487,1.361" transform="translate(-163.554 -80.742)" fill="#fff"/>
      <path id="Tracé_2722" data-name="Tracé 2722" d="M388.069,239.792h0a1.429,1.429,0,0,1-1.361-1.487l2.223-49.985a1.425,1.425,0,0,1,2.848.127l-2.223,49.984a1.43,1.43,0,0,1-1.487,1.361" transform="translate(-167.356 -80.911)" fill="#fff"/>
      <path id="Tracé_2723" data-name="Tracé 2723" d="M396.855,240.183h0a1.43,1.43,0,0,1-1.361-1.487l2.223-49.985a1.425,1.425,0,0,1,2.848.127l-2.223,49.984a1.43,1.43,0,0,1-1.487,1.361" transform="translate(-171.159 -81.08)" fill="#fff"/>
      <path id="Tracé_2724" data-name="Tracé 2724" d="M277.368,171.9l-39.536-4.74c-.267-.027-.468-.219-.447-.427l6.121-17.049a.446.446,0,0,1,.525-.328l29.09,2.943a.47.47,0,0,1,.448.368l.032.2,4.24,18.476a.45.45,0,0,1-.465.555h-.008" transform="translate(-102.733 -64.635)" fill="#02b196"/>
      <path id="Tracé_2725" data-name="Tracé 2725" d="M330.323,239.549l-96.131-9.726a1.4,1.4,0,0,1-1.248-1.529l.591-69.549a1.4,1.4,0,0,1,1.529-1.248l96.131,9.726a1.4,1.4,0,0,1,1.248,1.529l-.59,69.549a1.4,1.4,0,0,1-1.529,1.248" transform="translate(-100.809 -68.157)" fill="#02b196"/>
    </g>
  </g>
  <text id="_2" data-name="?" transform="translate(175.794 142.076) rotate(-5.195)" fill="#fff" font-size="33" font-family="SegoeUI, Segoe UI"><tspan x="0" y="0">?</tspan></text>
</svg>
