<svg id="Groupe_103" data-name="Groupe 103" xmlns="http://www.w3.org/2000/svg" xmlns:xlink="http://www.w3.org/1999/xlink" width="178.782" height="621.467" viewBox="0 0 178.782 621.467">
  <defs>
    <clipPath id="clip-path">
      <rect id="Rectangle_159" data-name="Rectangle 159" width="178.782" height="621.467" fill="none"/>
    </clipPath>
    <clipPath id="clip-path-2">
      <rect id="Rectangle_151" data-name="Rectangle 151" width="178.782" height="621.466" fill="none"/>
    </clipPath>
    <clipPath id="clip-path-3">
      <path id="Tracé_581" data-name="Tracé 581" d="M60.783,1505.12c-2.436.164-2.885,2.522-7.714,7.347-1.992,1.99-4.756,4.02-10.285,8.081-7.05,5.179-10.576,7.768-12.856,8.816-4.51,2.073-8.11,2.732-9.918,6.245a5.746,5.746,0,0,0-.735,4.04c1.078,4.1,8.379,5.176,10.653,5.51,3.766.553,7.386.292,13.223-1.1,8.514-2.033,9.652-3.587,18.367-6.245a94.253,94.253,0,0,1,18-4.041c9.8-1.109,14,.246,16.53-2.939,1.526-1.923,1.405-4.859,1.1-10.652a72.386,72.386,0,0,0-1.836-12.856,29.761,29.761,0,0,1-11.02,5.51c-3.57.924-7.978,2.064-12.489.367-6.282-2.362-7.084-8.089-10.771-8.089-.081,0-.164,0-.248.008" transform="translate(-19.142 -1505.112)" fill="none"/>
    </clipPath>
    <clipPath id="clip-path-5">
      <rect id="Rectangle_152" data-name="Rectangle 152" width="25.355" height="82.943" fill="none"/>
    </clipPath>
    <clipPath id="clip-path-6">
      <rect id="Rectangle_153" data-name="Rectangle 153" width="41.858" height="36.158" fill="none"/>
    </clipPath>
    <clipPath id="clip-path-7">
      <path id="Tracé_598" data-name="Tracé 598" d="M242.751,130.546c-2.69.688-4.934,3.087-4.666,3.41s2.2,1.157,5.124,1.706a6.137,6.137,0,0,0,1.2.118,5.1,5.1,0,0,0,1.214-.146,30.452,30.452,0,0,0,6.134-2.276,15.835,15.835,0,0,0-5.718-2.868,8.453,8.453,0,0,0-1.63-.167,6.486,6.486,0,0,0-1.654.223" transform="translate(-238.063 -130.323)" fill="none"/>
    </clipPath>
    <clipPath id="clip-path-9">
      <path id="Tracé_602" data-name="Tracé 602" d="M177.766,130.49a15.839,15.839,0,0,0-5.718,2.868,30.46,30.46,0,0,0,6.134,2.276,5.1,5.1,0,0,0,1.214.146,6.134,6.134,0,0,0,1.2-.118c2.922-.549,4.856-1.383,5.124-1.706s-1.976-2.722-4.666-3.41a6.493,6.493,0,0,0-1.655-.223,8.463,8.463,0,0,0-1.631.167" transform="translate(-172.048 -130.323)" fill="none"/>
    </clipPath>
    <clipPath id="clip-path-11">
      <rect id="Rectangle_156" data-name="Rectangle 156" width="41.978" height="362.726" fill="none"/>
    </clipPath>
    <clipPath id="clip-path-12">
      <rect id="Rectangle_157" data-name="Rectangle 157" width="10.332" height="214.765" fill="none"/>
    </clipPath>
  </defs>
  <g id="Groupe_102" data-name="Groupe 102" clip-path="url(#clip-path)">
    <g id="Groupe_77" data-name="Groupe 77" transform="translate(0 0.001)">
      <g id="Groupe_76" data-name="Groupe 76" clip-path="url(#clip-path-2)">
        <path id="Tracé_545" data-name="Tracé 545" d="M55.2,805.329c-.261-.48-2.866-7.253-6.568-8.668a10.385,10.385,0,0,0-12.576,4.761c-1.2,2.382-1.1,8.3-.975,12.228.03.976.052.292.444,5.022.34,4.1.395,5.475,1,7.392a16.689,16.689,0,0,0,1.592,3.54c6.838-.481,12.59.083,14.938-1.53.959-.658,7.821-9.437,6.844-13.814-.232-1.04-.753-1.031-2.4-4.027-1.391-2.536-1.525-3.466-2.305-4.9" transform="translate(-22.338 -507.896)" fill="#e8876d"/>
        <path id="Tracé_546" data-name="Tracé 546" d="M96.079,844.483s1.084,2.375,1.757,3.9,3.262,6.556,5.29,7.445c0,0,.158,2.057-3.548,1.472s-7.42-8.108-7.42-8.108Z" transform="translate(-58.799 -538.801)" fill="#e8876d"/>
        <path id="Tracé_547" data-name="Tracé 547" d="M84.9,858.239s4.541,24.415,4.452,25.215-1.888,1.38-2.788,1-3.411-11.059-3.974-13.279-3.193-11.619-2.924-13.215,5.233.278,5.233.278" transform="translate(-50.817 -546.989)" fill="#e8876d"/>
        <path id="Tracé_548" data-name="Tracé 548" d="M69.457,864.451c-.606.392-.555,6.365,1.057,13.566,1.109,4.953,3.4,8.874,3.682,10.685.225,1.434-1.833,2.582-2.819,1.782a38.182,38.182,0,0,1-4.566-9.938c-2.381-7.662-4.145-15.869-4.145-15.869Z" transform="translate(-39.982 -551.541)" fill="#e8876d"/>
        <path id="Tracé_549" data-name="Tracé 549" d="M51.487,858.719a109.846,109.846,0,0,0,3.29,13.613,64.765,64.765,0,0,0,3.371,8.7c1.5,2.731,3.188,1.76,3.67.135.234-.788-1.407-2.776-3.282-10.111S55.987,852.1,55.987,852.1Z" transform="translate(-32.85 -543.661)" fill="#e8876d"/>
        <path id="Tracé_550" data-name="Tracé 550" d="M41.417,879.731c.678,4.586,2.43,12.932,5.1,15.292a1.565,1.565,0,0,0,2.594-.407c.328-.6-4.037-12.044-2.86-15.65Z" transform="translate(-26.425 -560.802)" fill="#e8876d"/>
        <path id="Tracé_551" data-name="Tracé 551" d="M349.954,1549.866c3.1,4.451-.48,6.559,1.372,17.03,2.122,12,7.7,14.161,6.4,22.3a19.09,19.09,0,0,1-8.691,12.975c-8.437,5.073-21.4,3.521-26.873-2.534a12.856,12.856,0,0,1-2.173-3.446c-2.753-5.824.234-7.983-.229-17.131a137.759,137.759,0,0,0-2.287-15.811v0c-2.24-13.748-3.3-15.041-1.829-17.03,5.041-6.808,27.835-5.636,34.306,3.65" transform="translate(-200.957 -983.751)" fill="#e1d6c0"/>
        <path id="Tracé_552" data-name="Tracé 552" d="M353,1497.658c-.276-2.074-2.613-3.332-4.565-4.384a16.134,16.134,0,0,0-14.673-.16c-1.2.623-3.211,1.7-3.75,3.747a4.611,4.611,0,0,0,.081,2.471c.963,3.384,5.883,6.876,11.087,6.856,6.081-.023,12.312-4.84,11.82-8.53" transform="translate(-210.467 -951.567)" fill="#001a1f"/>
        <path id="Tracé_553" data-name="Tracé 553" d="M352.988,1446.975c-.609,4.09-.653,21.235-.242,24.422l-20.3.643c-.1-4.625-1.062-24.823-1.45-29.992l21.992,4.927" transform="translate(-211.183 -920.061)" fill="#e8876d"/>
        <path id="Tracé_554" data-name="Tracé 554" d="M347.839,1509.164c-1.1.563-2.786,2.327-4.652,3.261A25.253,25.253,0,0,1,339.8,1514a13.231,13.231,0,0,1-6.445.286c-5.081-.972-6.69-5.462-8.055-4.881-1.737.739.762,4.46-.608,7.825-1.228,3.015-1.686,2.993-2.417,6.141-.88,3.792-.24,6.465.645,11.283.8,4.37,1.82,9.912,2.255,15,.782,9.126-.964,9.177.322,13.425,1.457,4.812,6.28,13.282,14.661,14,8.514.726,16.124-6.94,17.884-13.568.878-3.307-.277-7.3-2.578-15.281-1.682-5.835-2.981-9.283-3.585-12.6a116.319,116.319,0,0,1-1.732-13.532c-.339-4.584-.765-5.372-2.312-12.918" transform="translate(-205.353 -962.883)" fill="#002d37"/>
        <path id="Tracé_555" data-name="Tracé 555" d="M423.628,798.385c.2-.518,1.865-7.642,5.486-9.655,4.536-2.519,10.832-1.306,13.763,2.626,1.607,2.156,2.4,8.024,2.876,11.925.118.97-.009.3.306,5.038.273,4.108.425,5.477.088,7.472a16.434,16.434,0,0,1-1.111,3.762,29.563,29.563,0,0,1-15-2.363c-1.094-.492-10.262-4.711-9.916-9.2.082-1.066.624-1.144,1.87-4.377,1.055-2.737,1.052-3.678,1.642-5.229" transform="translate(-268.038 -502.389)" fill="#e8876d"/>
        <path id="Tracé_556" data-name="Tracé 556" d="M411.426,842.282s-.7,2.514-1.132,4.124-2.205,6.983-4.071,8.176c0,0,.163,2.057,3.733.9s6.073-9.16,6.073-9.16Z" transform="translate(-259.18 -537.397)" fill="#e8876d"/>
        <path id="Tracé_557" data-name="Tracé 557" d="M429.311,853.342s-.7,24.824-.488,25.6,2.079,1.707,2.91,1.193,2.376-11.792,2.587-14.073.631-12.272.118-13.807-5.127,1.087-5.127,1.087" transform="translate(-273.574 -543.452)" fill="#e8876d"/>
        <path id="Tracé_558" data-name="Tracé 558" d="M444.993,857.2c1.112.5-.045,25.6,0,26.791.054,1.45,2.522,1.942,3.372,1,.609-.676,3.372-28.619,3.372-28.619Z" transform="translate(-283.915 -546.386)" fill="#e8876d"/>
        <path id="Tracé_559" data-name="Tracé 559" d="M464.416,849.708s.346,21.592-.524,24.581-2.355,3.432-3.178,1.95c-.4-.719-.774-4.341-.53-11.908s-1.594-20.111-1.594-20.111Z" transform="translate(-292.591 -538.633)" fill="#e8876d"/>
        <path id="Tracé_560" data-name="Tracé 560" d="M482.437,865.974a120.086,120.086,0,0,1-.932,15.32c-.4,2.48-1.635,2.966-2.328,2.564-1.337-.775-1.878-19.536-1.878-19.536Z" transform="translate(-304.528 -551.459)" fill="#e8876d"/>
        <path id="Tracé_561" data-name="Tracé 561" d="M380.588,1576.8a1.119,1.119,0,1,0,1.111-.985,1.053,1.053,0,0,0-1.111.985" transform="translate(-242.824 -1005.409)" fill="#002229"/>
        <path id="Tracé_562" data-name="Tracé 562" d="M346.538,1576.211a1.119,1.119,0,1,0,1.111-.985,1.054,1.054,0,0,0-1.111.985" transform="translate(-221.099 -1005.032)" fill="#002229"/>
        <path id="Tracé_563" data-name="Tracé 563" d="M382.257,1594.409a1.119,1.119,0,1,0,1.111-.984,1.054,1.054,0,0,0-1.111.984" transform="translate(-243.889 -1016.643)" fill="#002229"/>
        <path id="Tracé_564" data-name="Tracé 564" d="M348.875,1594.112a1.119,1.119,0,1,0,1.111-.984,1.054,1.054,0,0,0-1.111.984" transform="translate(-222.59 -1016.454)" fill="#002229"/>
        <path id="Tracé_565" data-name="Tracé 565" d="M387.932,1614.975a1.119,1.119,0,1,0,1.111-.985,1.054,1.054,0,0,0-1.111.985" transform="translate(-247.51 -1029.765)" fill="#002229"/>
        <path id="Tracé_566" data-name="Tracé 566" d="M349.376,1614.679a1.119,1.119,0,1,0,1.111-.984,1.054,1.054,0,0,0-1.111.984" transform="translate(-222.91 -1029.576)" fill="#002229"/>
        <path id="Tracé_567" data-name="Tracé 567" d="M362.081,1578.651a11.832,11.832,0,0,1-11.278-.286" transform="translate(-223.821 -1007.035)" fill="none" stroke="#fff" stroke-linecap="round" stroke-linejoin="round" stroke-width="2.832"/>
        <path id="Tracé_568" data-name="Tracé 568" d="M363.862,1596.514a10.467,10.467,0,0,1-4.672,1.571,10.9,10.9,0,0,1-6.605-1.571" transform="translate(-224.957 -1018.615)" fill="none" stroke="#fff" stroke-linecap="round" stroke-linejoin="round" stroke-width="2.832"/>
        <path id="Tracé_569" data-name="Tracé 569" d="M365.88,1616.922a15.642,15.642,0,0,1-12.406-.286" transform="translate(-225.525 -1031.453)" fill="none" stroke="#fff" stroke-linecap="round" stroke-linejoin="round" stroke-width="2.832"/>
        <path id="Tracé_570" data-name="Tracé 570" d="M364.56,1668.714c.426.408-2.882,5.916-8.056,6.569-6.556.828-12.772-6.561-12.406-7,.156-.185,1.479.9,4.833,2,2.351.769,5.656,1.851,9.183,1.285,4.085-.656,6.139-3.149,6.445-2.856" transform="translate(-219.533 -1064.393)" fill="#33575f"/>
        <path id="Tracé_571" data-name="Tracé 571" d="M49.1,771.956l1.605,14.051-20.864,1.859,0-13.91Z" transform="translate(-19.041 -492.527)" fill="#4ac9e6"/>
        <path id="Tracé_572" data-name="Tracé 572" d="M4.675,1573.856c-1.65,1.839-5.754,6.414-4.408,9.918.946,2.464,4.773,4.88,36.365,3.306,28.231-1.407,36.531-3.9,44.079-8.265,5.33-3.08,14.468-9.509,13.224-13.223-1.018-3.038-8.538-2.949-18.183-2.755-52.644,1.059-63.186,2.223-71.077,11.02" transform="translate(0 -997.075)" fill="#e1d6c0"/>
        <path id="Tracé_573" data-name="Tracé 573" d="M228.649,256.725l-15.375-2.468-19.836,3.986,3.891,6.169L227.7,261Z" transform="translate(-123.418 -162.223)" fill="#009ec2"/>
        <path id="Tracé_574" data-name="Tracé 574" d="M156.775,268.661,127.41,281.147,188.17,301.5l18.62-23.152-20.261-8.628-4.517-1.061Z" transform="translate(-81.29 -171.413)" fill="#e8876d"/>
        <path id="Tracé_575" data-name="Tracé 575" d="M69.859,1455.5c.64,2.6,3.751,9.424.806,15.372-2.327,4.7-8.173,9.044-13.3,12.912-5.61,4.237-4.706,4.686-10.285,9.183-8.69,7-15.409,5.494-17.632,11.019-.339.842-1.37,3.786,0,5.877,2.177,3.323,8.989,2.316,14.326,1.469,7.8-1.237,10.245-2.975,18.734-5.51,5.805-1.733,10.727-2.625,20.57-4.408,5.78-1.047,12.3-2.071,19.468-2.939-1.8-7.19-.829-15.438-1.837-24.61a184.424,184.424,0,0,1-1.1-19.468c-9.061.367-20.693.735-29.753,1.1" transform="translate(-18.35 -927.941)" fill="#e8876d"/>
        <path id="Tracé_576" data-name="Tracé 576" d="M74.342,344.6a26.9,26.9,0,0,1-1.845,2.424l-8,56.914v5.166l-1.976,5.531-.379.374a5.875,5.875,0,0,0-.763-2.127c-3.738-5.909-17.457-8.527-17.457-8.527a9.915,9.915,0,0,0-3.59.344,7.54,7.54,0,0,0-4.249,3.013,5.247,5.247,0,0,0-.323.553,2.48,2.48,0,0,1-.022-.338c.013-1.548,4.235-37.446,8.72-61.517a163.652,163.652,0,0,1,3.616-15.994c4.044-13.345,10.307-18.987,10.307-18.987s.319-.246.881-.594a13.956,13.956,0,0,1,8.811-2.173c3.35.451,6.992,2.634,9.928,8.579,5.653,11.459-.371,22.595-3.66,27.361" transform="translate(-22.802 -196.875)" fill="#00b3dc"/>
        <path id="Tracé_577" data-name="Tracé 577" d="M95.311,1507.324a29.759,29.759,0,0,1-11.02,5.51c-3.571.924-7.978,2.064-12.489.367-6.421-2.414-7.116-8.344-11.02-8.081-2.436.165-2.885,2.523-7.714,7.347-1.992,1.99-4.756,4.02-10.285,8.081-7.05,5.178-10.576,7.767-12.857,8.815-4.51,2.073-8.11,2.732-9.917,6.245a5.746,5.746,0,0,0-.735,4.041c1.078,4.1,8.379,5.176,10.652,5.51,3.767.553,7.386.292,13.224-1.1,8.514-2.033,9.652-3.587,18.366-6.245a94.192,94.192,0,0,1,18-4.041c9.8-1.11,14,.245,16.53-2.939,1.525-1.923,1.4-4.859,1.1-10.652a72.38,72.38,0,0,0-1.837-12.857" transform="translate(-12.213 -960.297)" fill="#002d37"/>
      </g>
    </g>
    <g id="Groupe_79" data-name="Groupe 79" transform="translate(6.929 544.815)">
      <g id="Groupe_78" data-name="Groupe 78" clip-path="url(#clip-path-3)">
        <path id="Tracé_578" data-name="Tracé 578" d="M106.907,1520.357a38.329,38.329,0,0,1,5.785,8.678" transform="translate(-75.138 -1514.839)" fill="none" stroke="#fff" stroke-linecap="round" stroke-linejoin="round" stroke-width="2.832"/>
        <path id="Tracé_579" data-name="Tracé 579" d="M93.588,1529.109a42.809,42.809,0,0,1,3.581,5.1c.566.945,1.069,1.867,1.515,2.755" transform="translate(-66.64 -1520.423)" fill="none" stroke="#fff" stroke-linecap="round" stroke-linejoin="round" stroke-width="2.832"/>
        <path id="Tracé_580" data-name="Tracé 580" d="M80.269,1537.1a16.988,16.988,0,0,1,3.581,4.408,16.8,16.8,0,0,1,1.24,2.755" transform="translate(-58.142 -1525.522)" fill="none" stroke="#fff" stroke-linecap="round" stroke-linejoin="round" stroke-width="2.832"/>
      </g>
    </g>
    <g id="Groupe_87" data-name="Groupe 87" transform="translate(0 0.001)">
      <g id="Groupe_86" data-name="Groupe 86" clip-path="url(#clip-path-2)">
        <path id="Tracé_582" data-name="Tracé 582" d="M293.841,76.677c-2.1,13.218-6.677,34.47-14.119,42.411-1.458,1.555,4.35-35.515,3.053-36.965-4.192-4.694.866-11.219-1.512-14.473.487-5.114-3.915-11.5-.6-15.971,5.258.015,12.55,3.406,13.313,10.508a51.61,51.61,0,0,1-.135,14.49" transform="translate(-178.274 -32.974)" fill="#3a2c26"/>
        <path id="Tracé_583" data-name="Tracé 583" d="M52.926,597.673,49.9,615.426l0,.014c-.853,8.4-3.5,28.785-3.5,28.785s-22.5,2.241-22.426-1.493c.142-7.207.8-62.887,4.955-71.885a4.626,4.626,0,0,1,.274-.518,7.608,7.608,0,0,1,3.971-3.064,11.171,11.171,0,0,1,3.544-.65s13.878.977,18.1,5.816a4.83,4.83,0,0,1,.942,1.8c1.363,4.462-.72,13.367-2.838,23.445" transform="translate(-15.296 -361.515)" fill="#00b3dc"/>
        <path id="Tracé_584" data-name="Tracé 584" d="M258.794,1018.665c-2.916.032-17.588-.815-29.667-.946,0,0-11.816-97.187-14.8-122.716-2.343-20.052-8.782-89.282-8.782-89.282l-3.9-.948v.277c-6.232-5.955-17.224,4.357-22.595-14.743a82.447,82.447,0,0,1-1.527-37.851c.333-1.783.707-3.464,1.1-5.017h75.267l.287,4.94c1.837,22.955,3.9,57.551,3.661,100.436-.086,15.429-.415,22.289-.532,34.89-.255,27.346,1.757,130.62,1.487,130.961" transform="translate(-112.304 -476.884)" fill="#002d3f"/>
        <path id="Tracé_585" data-name="Tracé 585" d="M322.829,761.318a27.358,27.358,0,0,0,8.92,11.759c5.242,3.957,7.344,4.355,9.785,4.664" transform="translate(-205.972 -485.74)" fill="none" stroke="#fff" stroke-linecap="round" stroke-linejoin="round" stroke-width="2.832"/>
        <path id="Tracé_586" data-name="Tracé 586" d="M163.55,805.528l-3.9-.948c.049-3.828.193,32.936-1.165,62.86-1,21.97-2.3,37.71-2.777,43.984-1.512,19.859-2.56,66.07-1.014,108.39-11.9,0-23.974-1.619-35.877-1.619.384-46.453-1.433-98.864-3.251-125.221-1.491-21.626-2.887-34.338-4.054-58.388-1.785-36.774-1.428-66.929-.808-87.149h51.585c1.082,26.31,1.532,30.438,1.261,58.09" transform="translate(-70.309 -476.884)" fill="#002d3f"/>
        <path id="Tracé_587" data-name="Tracé 587" d="M141.587,761.318a27.16,27.16,0,0,1-21.9,17.03" transform="translate(-76.366 -485.74)" fill="none" stroke="#fff" stroke-linecap="round" stroke-linejoin="round" stroke-width="2.832"/>
        <line id="Ligne_167" data-name="Ligne 167" x1="2.027" y2="43.52" transform="translate(88.9 277.937)" fill="none" stroke="#fff" stroke-linecap="round" stroke-linejoin="round" stroke-width="2.832"/>
        <path id="Tracé_588" data-name="Tracé 588" d="M263.325,767.833q-.27,10-.541,20a5.3,5.3,0,0,1-2.162,3.919,4.893,4.893,0,0,1-2.7.811" transform="translate(-164.558 -489.897)" fill="none" stroke="#fff" stroke-linecap="round" stroke-linejoin="round" stroke-width="2.832"/>
        <path id="Tracé_589" data-name="Tracé 589" d="M229.038,222.78a47.335,47.335,0,0,0,.046,6.329c.261,1.594-2.813,3.306-6.334,4.72-.984.395-2,.763-2.993,1.1-3.562,1.225-6.775,2.039-6.775,2.039s-15.968-1.271-16.322-4.592c-.092-.851-.195-4.72-.205-8.871-.01-3.259.041-6.693.205-8.984.231-3.274.492-6.549.687-8.927.174-2.163.3-3.588.3-3.588l22.631-.774,10-.344s-.272,3.767-.574,8.569c-.256,4.264-.538,9.337-.666,13.319" transform="translate(-125.342 -128.175)" fill="#e8876d"/>
        <g id="Groupe_82" data-name="Groupe 82" transform="translate(26.185 122.003)" opacity="0.2" style="mix-blend-mode: multiply;isolation: isolate">
          <g id="Groupe_81" data-name="Groupe 81">
            <g id="Groupe_80" data-name="Groupe 80" clip-path="url(#clip-path-5)">
              <path id="Tracé_590" data-name="Tracé 590" d="M97.694,362.773a26.892,26.892,0,0,1-1.845,2.424l-7.6,54.584s-6.866,2.38-14.473-8.845c-4.309-6.359,2.113-53.582,5.517-62.4a22.475,22.475,0,0,1,5.939-11.465c1.553-.958,12.46,25.7,12.46,25.7" transform="translate(-72.339 -337.048)" fill="#41385a"/>
            </g>
          </g>
        </g>
        <path id="Tracé_591" data-name="Tracé 591" d="M229.926,297.693l2.218,4.556-4.326-1.772Z" transform="translate(-145.354 -189.937)" fill="#009ec2"/>
        <path id="Tracé_592" data-name="Tracé 592" d="M239.053,297.693l-1.576,4.556,3.484-2.4Z" transform="translate(-151.516 -189.937)" fill="#009ec2"/>
        <g id="Groupe_85" data-name="Groupe 85" transform="translate(71.318 72.716)" opacity="0.2">
          <g id="Groupe_84" data-name="Groupe 84">
            <g id="Groupe_83" data-name="Groupe 83" clip-path="url(#clip-path-6)">
              <path id="Tracé_593" data-name="Tracé 593" d="M229.4,222.78c-.043,1.327-.071,3.548-.071,3.548l8.914,1.632s2.129,7.6-1.392,9.01c-.984.395-11.762-.763-16.731-2.039s-14.247-12.586-14.247-12.586l-8.85-7.82c.231-3.274.492-6.549.687-8.927l4.443.528,18.49-4.889,10-.344s-.271,3.767-.574,8.569c-.256,4.264-.538,9.337-.666,13.319" transform="translate(-197.024 -200.891)" fill="#41385a"/>
            </g>
          </g>
        </g>
        <path id="Tracé_594" data-name="Tracé 594" d="M208.337,327.957l-4.961,7.912-5.049,8.046-1.559,2.485c-.557,9.926-3.073,36.045-3.083,36.132-2.575,23.451,1.718,38.017.173,63.441a2.471,2.471,0,0,1-1.68,2.27,2.026,2.026,0,0,1-.608.092c-33.95,6.934-72.383,6.814-98.5-.442a2.648,2.648,0,0,1-2.524-2.608c-1.536-25.229,2.225-47.062,1.262-70.447a196.138,196.138,0,0,0-6.79-43.577c-3.443-12.687-4.882-32.787-2.386-37.123.487-.851,1.016-1.671,1.573-2.47,7.573-10.823,29.3-16.62,34.172-18.444,5.125,2.088,20.176,11.176,20.176,11.176s18.073-9.4,21.891-13.357c2.836,0,12.862,2.857,17.062,4.876,4.97,2.393,20.325,4.2,27.611,16.071.139.226.278.456.413.692,2.492,4.335,4.093,20.355,2.807,35.273" transform="translate(-51.918 -172.934)" fill="#00b3dc"/>
        <path id="Tracé_595" data-name="Tracé 595" d="M161.454,82.682c-1.23,2.311-3.514,14.369.4,27.885,5.692,19.669,9.432,22.565,11.15,23.72a21.369,21.369,0,0,0,13.786,3.244c9.554-1.009,15.2-8.351,16.421-9.934,8.024-10.427,5.723-23.774,3.041-39.331-1.443-8.37-2.849-10.155-3.852-11.15-5.085-5.048-38.943,1.806-40.944,5.566" transform="translate(-101.87 -48.061)" fill="#e8876d"/>
        <path id="Tracé_596" data-name="Tracé 596" d="M251.792,133.358a30.461,30.461,0,0,1-6.134,2.276,5.1,5.1,0,0,1-1.214.146,6.13,6.13,0,0,1-1.2-.118,20.238,20.238,0,0,1-5.124-1.706,9.825,9.825,0,0,1,4.666-3.41,6.505,6.505,0,0,1,1.654-.223,8.46,8.46,0,0,1,1.631.167,15.837,15.837,0,0,1,5.718,2.868" transform="translate(-151.928 -83.15)" fill="#fff"/>
      </g>
    </g>
    <g id="Groupe_89" data-name="Groupe 89" transform="translate(86.173 47.174)">
      <g id="Groupe_88" data-name="Groupe 88" clip-path="url(#clip-path-7)">
        <path id="Tracé_597" data-name="Tracé 597" d="M254.54,133.059A2.569,2.569,0,1,1,252,130.084a2.782,2.782,0,0,1,2.536,2.975" transform="translate(-245.34 -130.171)"/>
      </g>
    </g>
    <g id="Groupe_91" data-name="Groupe 91" transform="translate(0 0.001)">
      <g id="Groupe_90" data-name="Groupe 90" clip-path="url(#clip-path-2)">
        <path id="Tracé_599" data-name="Tracé 599" d="M251.792,133.358a15.837,15.837,0,0,0-5.718-2.868,8.46,8.46,0,0,0-1.631-.167,6.505,6.505,0,0,0-1.654.223,9.825,9.825,0,0,0-4.666,3.41" transform="translate(-151.928 -83.15)" fill="none" stroke="#573329" stroke-linejoin="round" stroke-width="1.622"/>
        <path id="Tracé_600" data-name="Tracé 600" d="M172.048,133.358a30.461,30.461,0,0,0,6.134,2.276,5.1,5.1,0,0,0,1.214.146,6.131,6.131,0,0,0,1.2-.118,20.239,20.239,0,0,0,5.124-1.706,9.825,9.825,0,0,0-4.666-3.41,6.506,6.506,0,0,0-1.654-.223,8.46,8.46,0,0,0-1.631.167,15.837,15.837,0,0,0-5.718,2.868" transform="translate(-109.771 -83.15)" fill="#fff"/>
      </g>
    </g>
    <g id="Groupe_93" data-name="Groupe 93" transform="translate(62.277 47.174)">
      <g id="Groupe_92" data-name="Groupe 92" clip-path="url(#clip-path-9)">
        <path id="Tracé_601" data-name="Tracé 601" d="M184.451,133.059a2.568,2.568,0,1,0,2.536-2.975,2.782,2.782,0,0,0-2.536,2.975" transform="translate(-179.961 -130.171)"/>
      </g>
    </g>
    <g id="Groupe_101" data-name="Groupe 101" transform="translate(0 0.001)">
      <g id="Groupe_100" data-name="Groupe 100" clip-path="url(#clip-path-2)">
        <path id="Tracé_603" data-name="Tracé 603" d="M434.9,763.183l-.949,13.578,20.134.774.2-14.352Z" transform="translate(-276.871 -486.929)" fill="#4ac9e6"/>
        <path id="Tracé_604" data-name="Tracé 604" d="M172.048,133.358a15.837,15.837,0,0,1,5.718-2.868,8.46,8.46,0,0,1,1.631-.167,6.506,6.506,0,0,1,1.654.223,9.825,9.825,0,0,1,4.666,3.41" transform="translate(-109.771 -83.15)" fill="none" stroke="#573329" stroke-linejoin="round" stroke-width="1.622"/>
        <path id="Tracé_605" data-name="Tracé 605" d="M237.2,116.365a7.085,7.085,0,0,1,3.3-2.98,9.328,9.328,0,0,1,4.3-.844,9.476,9.476,0,0,1,4.214,1.173,7.225,7.225,0,0,1,3.079,3.191l.035.076a.122.122,0,0,1-.165.16,21.277,21.277,0,0,0-3.539-1.358,15.938,15.938,0,0,0-3.729-.553,15.635,15.635,0,0,0-3.759.268,16.379,16.379,0,0,0-1.833.469,16.786,16.786,0,0,0-1.788.641.121.121,0,0,1-.154-.169Z" transform="translate(-151.305 -71.801)" fill="#5d3f31"/>
        <path id="Tracé_606" data-name="Tracé 606" d="M170.881,116.322a7.083,7.083,0,0,1,3.3-2.98,9.327,9.327,0,0,1,4.3-.844,9.476,9.476,0,0,1,4.214,1.173,7.225,7.225,0,0,1,3.079,3.191l.035.076a.122.122,0,0,1-.165.16,21.273,21.273,0,0,0-3.539-1.358,15.938,15.938,0,0,0-3.729-.553,15.635,15.635,0,0,0-3.759.268,16.374,16.374,0,0,0-1.833.469,16.782,16.782,0,0,0-1.788.641.121.121,0,0,1-.154-.169Z" transform="translate(-108.991 -71.773)" fill="#5d3f31"/>
        <path id="Tracé_607" data-name="Tracé 607" d="M215.908,143.347c-.319,1.509-.7,2.987-1.089,4.46l-.572,2.206c-.194.732-.378,1.466-.535,2.2a13.1,13.1,0,0,0-.349,2.16,2.231,2.231,0,0,0,.017.462.6.6,0,0,0,.142.3,1.711,1.711,0,0,0,.774.446,8.233,8.233,0,0,0,2.166.271c.754.019,1.516-.016,2.285-.059a12.269,12.269,0,0,1-2.254.549,7.192,7.192,0,0,1-2.391,0,2.343,2.343,0,0,1-1.229-.6,1.52,1.52,0,0,1-.393-.7,3.067,3.067,0,0,1-.076-.677,11.954,11.954,0,0,1,.31-2.368c.173-.759.376-1.5.6-2.242.237-.733.467-1.467.743-2.184a34.579,34.579,0,0,1,1.856-4.219" transform="translate(-135.518 -91.46)" fill="#5d3f31"/>
        <path id="Tracé_608" data-name="Tracé 608" d="M225.126,217.2a10.545,10.545,0,0,1-3.5.893,5.2,5.2,0,0,1-1.837-.135,7.287,7.287,0,0,1-1.676-.707.026.026,0,0,1-.009-.036.026.026,0,0,1,.024-.013,17.379,17.379,0,0,1,1.772.256,11.017,11.017,0,0,0,1.714.226,10.427,10.427,0,0,0,1.755-.138,11.135,11.135,0,0,0,1.735-.393.026.026,0,0,1,.018.048" transform="translate(-139.156 -138.551)" fill="#5d3f31"/>
        <path id="Tracé_609" data-name="Tracé 609" d="M208.535,201.8s3.586,2.948,6.483,2.948c3.273,0,7.478-2.948,7.478-2.948a21.046,21.046,0,0,0-6.419-1.018,41.5,41.5,0,0,0-7.542,1.018" transform="translate(-133.05 -128.104)" fill="#fff"/>
        <path id="Tracé_610" data-name="Tracé 610" d="M208.535,199.195a44.274,44.274,0,0,1,6.98-.932,44.047,44.047,0,0,1,6.98.932s-1.516-1.908-6.066-2.434a11.018,11.018,0,0,0-7.9,2.434" transform="translate(-133.05 -125.499)" fill="#b97e61"/>
        <path id="Tracé_611" data-name="Tracé 611" d="M197.215,20.018c-3.316,4.474-4.643,9.675-5.13,14.789a6.4,6.4,0,0,0-1.092-.994c-3.464-2.7-10.305-.261-11.351.815a11.551,11.551,0,0,1-1.8,1.466,5.409,5.409,0,0,1-.769.425c-3.156,1.45-5.56-.062-9.188.133-1.3.072-2.445.344-7.165,2.568-11.643,5.494-14.677,3.2-16.506,2.014-2.434-1.589-4.966-1.179-2.823-7.015.384-1.046-1.466-1.332-1.891-2.567-.846-2.439.646.687,1.625-2.035,2.055-5.755-.651-7.856,1.081-11.895.9-2.116,3.065-4.868,8.917-6.893a10.542,10.542,0,0,1,6.083-6.892,10.231,10.231,0,0,1,7.7.266C167.953.518,170.259-.1,171.8.016c3.669.271,4.668,4.786,10.68,6.754,2.178.717,2.25.19,4.863,1.081,2.352.8,5.535,1.891,7.708,4.869a12.093,12.093,0,0,1,2.163,7.3" transform="translate(-88.845 -0.003)" fill="#4d3a32"/>
        <path id="Tracé_612" data-name="Tracé 612" d="M285.367,128.9c3.915-4.087,7.5-2.627,8.616-.405,1.468,2.924,1.6,8.934-1.623,13.724-.74,1.1-3.078,4.421-6.487,3.092-4.5-1.752-1.209-15.676-.505-16.41" transform="translate(-180.911 -80.59)" fill="#e8876d"/>
        <g id="Groupe_96" data-name="Groupe 96" transform="translate(108.638 178.663)" opacity="0.2" style="mix-blend-mode: multiply;isolation: isolate">
          <g id="Groupe_95" data-name="Groupe 95">
            <g id="Groupe_94" data-name="Groupe 94" clip-path="url(#clip-path-11)">
              <path id="Tracé_613" data-name="Tracé 613" d="M338,511.309c-.01.082-1.858,49.4-2.68,75.206-.035,1.1-2.632,3.991-2.632,3.991L342.1,856.232s-1.228.036-6.4.077c-1.681-36.509-12.646-208.99-14.352-245.452-.312-6.693-21.227-15.039-21.227-15.039-.092-2.06,19.82-1.594,19.865-2.855.494-13.836,5.1-21.045,7.057-43.062,1.162-13.083-1.7-37.211-.122-55.308.3-3.484,11.076,2.056,11.076,16.717" transform="translate(-300.125 -493.583)" fill="#41385a"/>
            </g>
          </g>
        </g>
        <path id="Tracé_614" data-name="Tracé 614" d="M387.882,401.081c.641,6.246-2.532,9.2-6.389,9.629a93.548,93.548,0,0,1-10.065.456,7.089,7.089,0,0,1-2.908-.384c-.392-.338-1.07,2.716-1.135,3.807l-3.413-2.894s-6.22-12.485-6.9-14.222-7.852-20.156-7.852-20.156l-1.247-14.851a162.236,162.236,0,0,1-3.309-17.409c-.69-5.166-.92-10.144-1.2-14.688-1.58-25.381,25.026-26.813,30.118-9.413,5.285,18.06,10.093,39.1,14.3,80.124" transform="translate(-219.092 -197.382)" fill="#00b3dc"/>
        <path id="Tracé_615" data-name="Tracé 615" d="M437.068,626.587c-.682,7.074-21.772,3.582-21.772,3.582l-4.749-19.25a47.632,47.632,0,0,1-4.12-16.488l-1.53-30.745s2.3-4.156,3.417-5.707c3.7-5.152,9.957-5.179,9.957-5.179a9.055,9.055,0,0,1,1.191-.031c1.661.058,4.685.527,6.557,2.958,5,6.5,11.73,63.792,11.049,70.861" transform="translate(-258.334 -352.676)" fill="#00b3dc"/>
        <g id="Groupe_99" data-name="Groupe 99" transform="translate(79.01 328.165)" opacity="0.2" style="mix-blend-mode: multiply;isolation: isolate">
          <g id="Groupe_98" data-name="Groupe 98">
            <g id="Groupe_97" data-name="Groupe 97" clip-path="url(#clip-path-12)">
              <path id="Tracé_616" data-name="Tracé 616" d="M228.605,906.6l-4.956,214.765-5.375-1.619c-.046-16.035,5.586-144.024,7.5-167.659.933-11.495,1.845-45.488,2.834-45.488" transform="translate(-218.273 -906.595)" fill="#41385a"/>
            </g>
          </g>
        </g>
        <path id="Tracé_617" data-name="Tracé 617" d="M319.606,386.934c0-.1-.011-.2-.022-.3s-.019-.187-.03-.273c0-.011,0-.022,0-.034l0-.015v-.008c-.011-.089-.026-.172-.037-.254-.034-.187-.075-.37-.127-.571-.022-.082-.041-.161-.067-.235l-.015-.052c-.03-.1-.064-.209-.1-.31l-.022-.067.008-.067a6.989,6.989,0,0,0,.067-.952c0-.1,0-.194,0-.291s-.011-.19-.018-.284-.019-.186-.034-.276-.022-.187-.041-.273c-.015-.1-.034-.194-.052-.28s-.045-.194-.067-.288c-.06-.2-.112-.362-.164-.512-.03-.078-.056-.157-.089-.235s-.06-.153-.093-.22a7.231,7.231,0,0,0-.347-.676c-.041-.071-.082-.138-.127-.205a6.647,6.647,0,0,0-1.5-1.643c-.063-.049-.127-.1-.194-.142s-.138-.1-.205-.142c-.146-.1-.287-.183-.43-.265l-.059-.03-.079-.045c-.1-.052-.224-.112-.344-.164l-.048-.022c-.045-.023-.09-.041-.138-.06-.086-.037-.16-.067-.239-.1s-.157-.056-.235-.082-.153-.049-.228-.071a7.588,7.588,0,0,0-1.057-.213l-.231-.019c-.075-.007-.142-.011-.217-.015H312.7c-.138,0-.276,0-.407.011-.254.011-.515.034-.776.071l-.019,0h-.018a.6.6,0,0,1-.086.015.732.732,0,0,0-.082.015c-.112.015-.212.037-.31.056l-.03.007h-.011c-.1.022-.213.045-.317.075s-.205.052-.3.082l-.146.045-.145.041-.034.015-.045.015-.06.022c-.067.022-.134.045-.2.071-.179.067-.325.127-.455.19l-.052.022c-.075.03-.149.063-.224.1a7.459,7.459,0,0,0-.971.564c-.108.071-.209.138-.306.213s-.161.119-.235.179c-.123.09-.235.187-.366.3-.078.071-.153.134-.22.205l-.011.011-.015.011a.172.172,0,0,0-.038.037c-.071.063-.134.127-.194.19a.8.8,0,0,0-.056.063l-.015.015c-.067.067-.131.135-.187.2a8.217,8.217,0,0,0-1.336,2.039c-.049.093-.082.172-.116.25-.041.093-.082.19-.12.295-.03.079-.06.15-.082.224l-.037.112-.041.123c0,.007-.011.034-.019.056s-.011.033-.015.052c-.038.108-.06.205-.086.3v.011l0,.011a.057.057,0,0,0-.008.022l0,.015,0,.015c-.03.108-.053.213-.075.321l0,.011v.015a.09.09,0,0,0-.011.045l0,.007v.011a2.366,2.366,0,0,0-.041.235l0,.019,0,.015a1.638,1.638,0,0,0-.03.187c-.03.209-.052.4-.063.567-.008.09-.011.164-.015.243-.008.134-.008.265-.008.4a8.237,8.237,0,0,0,.041.862c.011.1.022.19.037.287.026.2.056.388.1.572.018.093.041.183.06.269.015.067.026.116.041.168s.03.109.049.157l0,.011v.011c.018.075.045.149.067.22l.018.067c0,.015.011.03.015.041.045.127.082.243.131.355l0,.011,0,.008c0,.018.011.03.015.045.041.116.09.217.134.317l.022.056c.056.119.112.239.172.358.011.019.018.034.026.045l0,.011.008.007c.048.1.1.19.153.288l0,0,.008.011.049.093c.041.071.089.142.134.216a1.556,1.556,0,0,0,.1.153c.071.112.138.209.205.3s.138.183.209.273c.1.135.217.265.332.4.078.093.16.179.246.265.026.03.06.063.09.1.093.086.179.168.265.25s.194.168.291.254.194.16.291.235c.075.052.15.109.224.157a4.214,4.214,0,0,0,.411.28c.086.056.168.1.247.153.1.056.19.1.284.157.071.041.134.075.2.1.1.048.19.093.28.131l.049.023h0c.1.045.205.09.317.134s.22.086.329.123c.026.011.041.015.06.022s.041.011.06.018l.115.037.12.038a2.307,2.307,0,0,0,.231.067h.015l.015.008.078.022c.134.034.258.063.388.086s.235.048.355.067a8.467,8.467,0,0,0,1.351.108c.112,0,.22,0,.333-.011.13,0,.254-.015.377-.026.093-.008.179-.019.265-.034s.146-.019.205-.03c.1-.018.19-.037.276-.056s.176-.037.261-.06c.12-.03.22-.06.321-.093.079-.022.153-.045.224-.071s.12-.045.172-.067c.093-.034.168-.06.243-.093.1-.041.179-.075.261-.116a7.077,7.077,0,0,0,.892-.5c.075-.052.15-.1.22-.157a6.772,6.772,0,0,0,.97-.851l.142-.153c.059-.067.115-.138.172-.2s.127-.157.187-.239c.03-.045.067-.09.1-.138.112-.16.205-.3.287-.437l.022-.041c.041-.071.086-.142.123-.216a2.24,2.24,0,0,0,.112-.213,6.058,6.058,0,0,0,.28-.631c.03-.075.056-.149.082-.224l.022-.064a2.343,2.343,0,0,0,.071-.228l0-.011,0-.015a.736.736,0,0,0,.026-.082l0-.022c.019-.063.034-.127.048-.194l0-.008v-.011l.008-.019.008-.022c.022-.1.041-.2.06-.291s.033-.194.048-.295c0-.03.007-.064.015-.1s.008-.075.011-.116a1.029,1.029,0,0,0,.015-.116c.011-.1.019-.2.022-.3q.011-.185.011-.358c0-.1,0-.209-.008-.31m-7.045,2.916-.314-.037a2.793,2.793,0,0,1-.321-.056c-.082-.023-.161-.041-.239-.063a1.034,1.034,0,0,1-.134-.049.5.5,0,0,1-.067-.022,3.17,3.17,0,0,1-.627-.31,1.069,1.069,0,0,1-.168-.116c-.071-.048-.146-.1-.22-.164-.09-.079-.175-.161-.265-.25a.974.974,0,0,1-.131-.146c-.045-.052-.082-.1-.115-.142a1.576,1.576,0,0,1-.112-.15,2.285,2.285,0,0,1-.172-.28,3.23,3.23,0,0,1-.381-1.041,1.845,1.845,0,0,1-.038-.25.547.547,0,0,1-.007-.086,2.468,2.468,0,0,1-.015-.3,3.465,3.465,0,0,1,3.009-3.428l.318-.045Zm0-7.423-.254.026a3.933,3.933,0,0,0-3.561,3.931c0,.071,0,.138,0,.209a1.718,1.718,0,0,0,.018.206c.008.086.019.16.03.231a1.434,1.434,0,0,0,.034.172,3.993,3.993,0,0,0,1.2,2.1c.075.071.153.131.216.183l.03.022.011.008.011.011a3.614,3.614,0,0,0,.489.317c.082.045.164.086.247.127l.037.015a2.44,2.44,0,0,0,.291.116,2.7,2.7,0,0,0,.3.093c.112.03.22.056.325.075s.209.034.321.045l.254.026v1.542l-.31-.026c-.075-.008-.15-.015-.224-.026l-.093-.011-.071-.011a.435.435,0,0,1-.1-.019,1.618,1.618,0,0,1-.187-.033l-.03-.008a1.845,1.845,0,0,1-.2-.045l-.037-.008a6.36,6.36,0,0,1-.669-.22c-.071-.03-.141-.056-.212-.09l-.213-.1a5.442,5.442,0,0,1-.971-.623q-.09-.067-.179-.146c-.056-.048-.112-.1-.164-.15a5.558,5.558,0,0,1-1.161-1.564c-.037-.075-.071-.149-.1-.228a4.018,4.018,0,0,1-.179-.455,1.9,1.9,0,0,1-.056-.187.846.846,0,0,1-.048-.16,2.392,2.392,0,0,1-.067-.277c-.011-.056-.022-.115-.034-.172s-.022-.116-.03-.183a5.465,5.465,0,0,1-.056-.8,5.556,5.556,0,0,1,5.085-5.511l.306-.022Zm0-2.106-.265.019a6.028,6.028,0,0,0-5.619,6,5.759,5.759,0,0,0,.064.885,1.581,1.581,0,0,0,.033.176v.015l0,.015a1.133,1.133,0,0,0,.03.157,2.533,2.533,0,0,0,.06.25c.019.089.041.168.064.243s.049.157.078.228l.008.022,0,.019a.355.355,0,0,0,.03.075l.007.018.008.019a2.3,2.3,0,0,0,.1.25c.037.093.082.183.123.265s.071.146.1.206a5.566,5.566,0,0,0,.355.579c.056.078.108.153.164.224s.116.15.176.221l.045.056c.116.134.235.257.362.381a6.228,6.228,0,0,0,.81.668c.067.045.138.09.217.138a5.068,5.068,0,0,0,.474.269c.079.041.146.075.217.1s.164.075.246.1.127.052.183.075l.052.019c.1.034.22.071.336.1l.093.026.1.026a5.984,5.984,0,0,0,.635.127l.086.011.082.011.273.022.258.018,0,.261v1.042l-.3-.015c-.176-.011-.328-.022-.467-.041-.1-.011-.206-.026-.31-.041s-.191-.03-.288-.052a2.044,2.044,0,0,1-.254-.052h-.06l-.03-.019-.033-.007c-.067-.015-.135-.034-.2-.053a5.66,5.66,0,0,1-.612-.194c-.1-.034-.2-.071-.306-.116a8.169,8.169,0,0,1-1.086-.538l-.079-.049c-.067-.045-.138-.086-.2-.135a2.352,2.352,0,0,1-.257-.172c-.093-.067-.2-.15-.336-.254-.067-.052-.134-.112-.205-.172-.026-.018-.053-.045-.079-.067l-.041-.033c-.119-.1-.224-.2-.317-.3s-.179-.183-.269-.284a3.928,3.928,0,0,1-.28-.321,3.436,3.436,0,0,1-.232-.291l-.011-.011,0-.007-.011-.015q-.117-.152-.235-.336a3.231,3.231,0,0,1-.179-.288c-.018-.026-.034-.052-.048-.074l-.015-.023c-.112-.19-.206-.366-.291-.549a1.025,1.025,0,0,1-.063-.134l-.026-.056c-.022-.045-.041-.093-.06-.138-.037-.079-.067-.157-.1-.232-.038-.093-.082-.205-.12-.321s-.071-.22-.1-.332c-.022-.078-.048-.157-.067-.243s-.045-.176-.063-.258a.16.16,0,0,1-.011-.056,3.514,3.514,0,0,1-.078-.4c-.015-.086-.034-.194-.045-.306l-.011-.09-.011-.089v-.034a.278.278,0,0,1,0-.049c-.011-.112-.019-.224-.022-.336s-.011-.257-.011-.388a7.97,7.97,0,0,1,7.531-7.957l.3-.015Zm.489-2.587.306.03c.142.015.284.037.444.067.086.019.168.034.25.053s.142.033.217.052.127.037.19.056a5.786,5.786,0,0,1,1.269.552c.127.075.235.142.34.213l.045.034c.063.041.123.082.183.127a4.015,4.015,0,0,1,.34.273c.056.049.116.1.172.149.026.026.052.052.079.075l.075.071c.056.052.108.112.161.168.026.026.06.06.093.1.015.022.034.041.049.06l.082.093.06.075a1.7,1.7,0,0,1,.146.187,6.068,6.068,0,0,1,.586.952c.034.06.064.131.1.2.015.037.034.079.052.119l.034.079c.034.086.06.157.086.228.015.045.037.108.056.164l.015.041.011.045a1.468,1.468,0,0,1,.056.183,3,3,0,0,1,.078.317c.022.1.041.205.06.3l0,.026.2,1.12-.7-.9c-.108-.142-.224-.273-.343-.414l-.03-.026,0-.007-.007-.008c-.093-.1-.187-.2-.288-.3s-.2-.19-.3-.28c-.026-.022-.052-.045-.082-.067-.1-.082-.194-.157-.287-.232-.03-.018-.063-.044-.093-.067-.089-.064-.187-.131-.295-.2-.16-.1-.306-.194-.448-.269-.086-.048-.176-.093-.265-.134-.112-.056-.216-.108-.329-.153-.093-.041-.183-.079-.272-.112-.071-.03-.142-.052-.217-.078a1.5,1.5,0,0,0-.187-.06h-.078l-.034-.034c-.078-.022-.157-.045-.235-.063s-.172-.045-.257-.064a6.836,6.836,0,0,0-.833-.123l-.254-.022Zm0,3.08.31.033c.138.019.269.034.4.056l.075.011c.153.026.284.056.407.086s.228.06.332.1a2.238,2.238,0,0,1,.254.082c.093.03.19.067.276.1.022.008.056.022.086.034.086.037.172.075.254.116a.412.412,0,0,1,.041.018c.123.056.243.124.362.187s.2.12.288.176a2.12,2.12,0,0,1,.205.134c.037.026.06.045.082.06.06.041.123.09.183.135l.048.037.187.153a1.288,1.288,0,0,1,.142.123c.063.056.138.123.209.194.089.093.183.187.272.284.045.048.086.1.127.149.064.067.123.146.19.231s.135.179.194.265a1.945,1.945,0,0,1,.149.228c.06.086.108.168.149.239.06.108.119.213.172.325a4.2,4.2,0,0,1,.194.422l.03.074-.015.082a6.078,6.078,0,0,1-.553,1.6l-.377.747-.146-.825c-.018-.108-.049-.228-.082-.351s-.067-.232-.1-.347-.075-.2-.112-.3a.468.468,0,0,1-.03-.067l-.03-.064c-.022-.045-.044-.093-.067-.138l0,0v0l-.034-.063v-.011a.16.16,0,0,1-.018-.034l-.022-.037c-.015-.022-.026-.045-.037-.063a1.683,1.683,0,0,0-.1-.172c-.056-.086-.1-.164-.157-.239a4.031,4.031,0,0,0-.287-.381c-.063-.075-.134-.15-.205-.224l-.153-.153a4.865,4.865,0,0,0-1.191-.851c-.064-.034-.127-.063-.191-.093l-.19-.082c-.078-.03-.142-.056-.209-.079a4.825,4.825,0,0,0-1.057-.25l-.247-.026Zm0,2.1.325.056c.116.019.235.041.362.071.008,0,.022,0,.041.011.1.026.209.052.314.09a3.328,3.328,0,0,1,.336.127c.093.037.194.086.269.123a.226.226,0,0,0,.049.022l.026.015a2.725,2.725,0,0,1,.3.172,3.694,3.694,0,0,1,.571.425,2.334,2.334,0,0,1,.258.239,1.5,1.5,0,0,1,.146.157c.041.041.075.086.108.127a4.563,4.563,0,0,1,.695,1.154l.026.071c.015.037.026.071.041.108.008.018.019.052.03.086l.008.022c.015.045.033.1.048.164.015.044.026.093.038.142s.026.108.041.164a4.456,4.456,0,0,1,.1.934,4.033,4.033,0,0,1-.026.429l-.011.093-.064.071a6.044,6.044,0,0,1-3.715,1.837l-.31.037Zm0,7.43.254-.022a6.377,6.377,0,0,0,2.785-.919l1.027-.627-.642,1.016a4.478,4.478,0,0,1-3.1,2.031l-.321.048Zm6.063-2.8c0,.079-.008.153-.015.232s-.015.164-.026.257-.026.19-.041.287c-.015.075-.026.153-.045.228-.022.1-.049.213-.075.317-.037.153-.082.3-.123.422s-.093.258-.142.373-.1.232-.149.34c-.067.138-.131.261-.2.381-.056.1-.115.2-.19.31-.044.079-.1.161-.16.243L317.9,391l-.011.019-.015.015c-.138.187-.28.358-.426.519-.022.026-.049.052-.075.078-.06.071-.142.15-.235.239v0l-.023.018c-.071.071-.145.134-.216.194-.026.026-.056.052-.079.071-.082.071-.172.146-.28.224s-.19.138-.291.209a.59.59,0,0,0-.056.034c-.093.06-.186.116-.287.175a.273.273,0,0,0-.034.022c-.123.071-.228.127-.325.172s-.194.1-.332.153l-.008,0-.011,0a.027.027,0,0,1-.018.008,4.9,4.9,0,0,1-.724.254,2.728,2.728,0,0,1-.273.071c-.172.045-.359.079-.5.1-.112.015-.22.03-.325.041l-.31.034v-1.31l.247-.03a5,5,0,0,0,4.3-4.111l.011-.079.052-.06c.086-.1.172-.209.254-.321a5.681,5.681,0,0,0,.463-.691c.071-.119.134-.243.2-.37l.47-.922.056,1.034c.008.142.019.291.019.437,0,.1-.008.206-.011.306" transform="translate(-194.114 -240.695)" fill="#fff"/>
        <path id="Tracé_618" data-name="Tracé 618" d="M259.524,261.074c-4.034,4.859-10.2,9.214-17.693,13.255l5.8,14.173c12.329-11.182,16.592-18.375,17.28-23.8Z" transform="translate(-154.294 -166.572)" fill="#4ac9e6"/>
        <path id="Tracé_619" data-name="Tracé 619" d="M179.208,265.269c3.187,4.878,8.318,8.627,14.552,11.737l-5.6,13.224c-6.917-5.317-14.254-12.086-17.022-20.69Z" transform="translate(-109.188 -169.249)" fill="#4ac9e6"/>
      </g>
    </g>
  </g>
</svg>
