<svg id="Groupe_202" data-name="Groupe 202" xmlns="http://www.w3.org/2000/svg" xmlns:xlink="http://www.w3.org/1999/xlink" width="55.948" height="188.449" viewBox="0 0 55.948 188.449">
  <defs>
    <clipPath id="clip-path">
      <rect id="Rectangle_567" data-name="Rectangle 567" width="55.948" height="188.449" fill="none"/>
    </clipPath>
  </defs>
  <path id="Tracé_2026" data-name="Tracé 2026" d="M76.14,421.179H86.166V401.367H75.25Z" transform="translate(-45.619 -243.324)" fill="#f7a881"/>
  <g id="Groupe_201" data-name="Groupe 201">
    <g id="Groupe_200" data-name="Groupe 200" clip-path="url(#clip-path)">
      <path id="Tracé_2027" data-name="Tracé 2027" d="M76.131,443.067h6.911a13.019,13.019,0,0,1,6.453,1.717l10.051,5.733a2.371,2.371,0,0,1,1.032,2.856c-.335.935-1.21,1.549-3.277,2.629l-22.308-.408c-.146-1.12-1.142-2.161-1.142-3.438v-6.748a2.311,2.311,0,0,1,2.28-2.341" transform="translate(-44.771 -268.605)" fill="#333"/>
      <path id="Tracé_2028" data-name="Tracé 2028" d="M51.851,72.3l5.477,2.757L62.8,72.3V63.178H51.851Z" transform="translate(-31.434 -38.301)" fill="#5a3932"/>
      <path id="Tracé_2029" data-name="Tracé 2029" d="M62.1,20.153c-.354,2.791-2.954,10.277-9.452,11.736,0,0-2.883,1.051-7.5-4.822-2.895-3.679-3.072-6.6-3.072-6.6a68.9,68.9,0,0,1,0-8.15c.3-3.108.473-7.933,8.034-8.821s10.1,2.728,10.87,4.314,1.477,9.548,1.122,12.339" transform="translate(-25.429 -2.038)" fill="#78453a"/>
      <path id="Tracé_2030" data-name="Tracé 2030" d="M41.2,41.247c0,5.145,3.354,13.366,9.473,13.366s11.278-7.949,11.278-13.095c0-4.006-1.566.944-5.839,3.43-1.215.707-.444-1.8-5.439-1.8-4.344,0-4.322,3.05-5.279,2.113-3.252-3.18-4.194-8.056-4.194-4.018" transform="translate(-24.976 -24.078)"/>
      <path id="Tracé_2031" data-name="Tracé 2031" d="M59.593,58.608c0,1.045,1,2.676,2.231,2.676s2.231-1.631,2.231-2.676-1-1.11-2.231-1.11-2.231.065-2.231,1.11" transform="translate(-36.128 -34.858)" fill="#78453a"/>
      <path id="Tracé_2032" data-name="Tracé 2032" d="M37.343,6.558c1.078,1.431,3.181.509,7.9.6,7.109.132,8.82,2.348,13.021.832,2.809-1.014,4.907-3.037,4.664-3.614-.174-.412-1.5.023-1.987-.7-.526-.773.55-1.947.1-2.583-.487-.688-2.331-.148-2.881,0C53.989,2.213,52.759-.015,44.743,0c-4.983.01-6.1.874-6.657,1.49-1.237,1.372-1.719,3.772-.743,5.067" transform="translate(-22.324 0)"/>
      <path id="Tracé_2033" data-name="Tracé 2033" d="M91.022,27.231a23.32,23.32,0,0,1-1.593-4.292c-.212-1.391-.223-5.4-.223-5.4l1.155.782a48.331,48.331,0,0,1,.662,8.912" transform="translate(-54.08 -10.631)"/>
      <path id="Tracé_2034" data-name="Tracé 2034" d="M41.081,25.323A23.638,23.638,0,0,0,42.345,21.4a32.41,32.41,0,0,0-.545-5.818l-.8.174a72.682,72.682,0,0,0,.078,9.568" transform="translate(-24.781 -9.446)"/>
      <path id="Tracé_2035" data-name="Tracé 2035" d="M70.671,296.755H86.089l1.336-89.769H69.335Z" transform="translate(-42.034 -125.483)" fill="#4d3a32"/>
      <path id="Tracé_2036" data-name="Tracé 2036" d="M26.6,421.179H16.579l2-19.813H29.5Z" transform="translate(-10.051 -243.324)" fill="#f7a881"/>
      <path id="Tracé_2037" data-name="Tracé 2037" d="M28.826,297.986H13.408l5.356-91H36.854Z" transform="translate(-8.128 -125.482)" fill="#4d3a32"/>
      <path id="Tracé_2038" data-name="Tracé 2038" d="M60.675,199.069l-35.466-.361,4.423,19.524,23.04,1.665Z" transform="translate(-15.282 -120.465)" fill="#4d3a32"/>
      <path id="Tracé_2039" data-name="Tracé 2039" d="M122.143,235.069a5.328,5.328,0,1,1-5.326-5.469,5.4,5.4,0,0,1,5.326,5.469" transform="translate(-67.59 -139.192)" fill="#5a3932"/>
      <path id="Tracé_2040" data-name="Tracé 2040" d="M92.67,86.215A11.99,11.99,0,0,1,98.2,93.067c1.6,6.452,5.251,21.381,5.912,25.515.915,5.723,3.191,26.411,2.969,27.095S96.423,143.4,96.423,143.4s-2.507-20.12-2.507-21.259-3.341-23.868-3.674-24.779-7.2-12.786-3.1-12.476a12.863,12.863,0,0,1,5.529,1.328" transform="translate(-52.039 -51.458)" fill="#f06d50"/>
      <path id="Tracé_2041" data-name="Tracé 2041" d="M14.1,440.369l6.879.672a13.015,13.015,0,0,1,6.255,2.336l9.446,6.683a2.371,2.371,0,0,1,.75,2.943c-.425.9-1.355,1.424-3.416,2.409l-22.162-2.574c-.138-1.241-1.029-2.374-.9-3.645l.656-6.716a2.311,2.311,0,0,1,2.5-2.109" transform="translate(-6.628 -266.962)" fill="#333"/>
      <path id="Tracé_2042" data-name="Tracé 2042" d="M46.2,84.427l-5.078-.511a6.5,6.5,0,0,1-10.749,0H27.582a11.523,11.523,0,0,0-11.261,12.9l3.6,33.631c.368,4.058,1.269,4.3,5.8,4.1a76.453,76.453,0,0,1,9.806.2l11.842,1c6.073,0,7.318-.4,7.572-6.627L51.375,97.657c.269-6.609-3.534-13.055-5.178-13.23" transform="translate(-9.852 -50.873)" fill="#f38a73"/>
      <path id="Tracé_2043" data-name="Tracé 2043" d="M7.894,233.025a5.4,5.4,0,0,0,5.326,5.469,5.471,5.471,0,0,0,0-10.938,5.4,5.4,0,0,0-5.326,5.469" transform="translate(-4.786 -137.953)" fill="#5a3932"/>
      <path id="Tracé_2044" data-name="Tracé 2044" d="M11.135,85.913a12.721,12.721,0,0,0-5.7,8.115C3.836,100.461.77,113.011.147,116.908-.768,122.631,2.882,144.42,3.1,145.1s10.662-2.277,10.662-2.277-2.555-21.22-2.555-22.359-1.08-18.424.626-23.687a59.32,59.32,0,0,1,5.428-12.723c-2.51-.511-4.156.662-6.13,1.855" transform="translate(0 -50.885)" fill="#f06d50"/>
      <rect id="Rectangle_565" data-name="Rectangle 565" width="18.823" height="5.669" transform="translate(27.659 170.124) rotate(-2.752)" fill="#4d3a32"/>
      <rect id="Rectangle_566" data-name="Rectangle 566" width="18.823" height="5.669" transform="translate(3.577 169.669)" fill="#4d3a32"/>
    </g>
  </g>
</svg>
