<svg id="Groupe_224" data-name="Groupe 224" xmlns="http://www.w3.org/2000/svg" xmlns:xlink="http://www.w3.org/1999/xlink" width="287.025" height="393.33" viewBox="0 0 287.025 393.33">
  <defs>
    <clipPath id="clip-path">
      <rect id="Rectangle_677" data-name="Rectangle 677" width="287.025" height="393.33" fill="none"/>
    </clipPath>
  </defs>
  <g id="Groupe_223" data-name="Groupe 223" clip-path="url(#clip-path)">
    <path id="Tracé_2372" data-name="Tracé 2372" d="M176.188,275.757a71.577,71.577,0,0,1,27.7-19.783,69.927,69.927,0,0,1,18.653-4.522" fill="none" stroke="#66948d" stroke-linecap="round" stroke-linejoin="round" stroke-width="3.615"/>
    <path id="Tracé_2373" data-name="Tracé 2373" d="M173.639,82.445a80.945,80.945,0,0,1,31.088-22.61" fill="none" stroke="#66948d" stroke-linecap="round" stroke-linejoin="round" stroke-width="3.615"/>
    <path id="Tracé_2374" data-name="Tracé 2374" d="M174.944,196.624a86.422,86.422,0,0,0-36.741-23.74" fill="none" stroke="#66948d" stroke-linecap="round" stroke-linejoin="round" stroke-width="3.615"/>
    <path id="Tracé_2375" data-name="Tracé 2375" d="M170.794,389.654c3.791-76.01,5.2-156.119,3.391-239.945q-1.227-56.817-4.239-111.07" fill="none" stroke="#66948d" stroke-linecap="round" stroke-linejoin="round" stroke-width="7.23"/>
    <path id="Tracé_2376" data-name="Tracé 2376" d="M113.14,82.445C118.28,72.2,96.379,58.4,100.705,44.009c1.6-5.326,5.038-4.885,18.087-15.827,18.4-15.427,16.12-20.121,26-24.871,10.034-4.823,12.9-.231,40.7-1.13,24.235-.784,28.672-4.489,33.914,0,10.27,8.791-1.116,27.83,11.305,40.7,6.756,7,12.85,3.6,16.958,10.174,6.791,10.879-8.011,22.523-3.392,38.437,3.91,13.472,16.151,10.755,21.479,24.871,6.184,16.381-8,26.149-1.13,42.958,4.751,11.631,13,10.53,14.7,20.349,2.411,13.966-13.636,19.934-12.435,35.045.876,11.027,9.674,11,15.827,26,4.967,12.109,7.286,31.755-2.261,44.089-8.2,10.593-16.691,4.86-35.788,17.829-15.721,10.677-14.653,17.744-27.519,22.868-9.841,3.919-13.183.868-33.915,1.13-32.151.408-35.45,7.89-50.114,3.29-11.483-3.6-9.873-8.319-32.163-25.668-26.687-20.772-36.217-19.63-39.815-30.754-4.511-13.943,9.373-19.1,15.827-46.35,7.55-31.874-7.979-39.462,2.261-65.568,7.288-18.582,17.533-20.8,18.087-37.306.482-14.347-6.893-23.5-1.13-31.654,5.145-7.283,13.875-4.031,16.957-10.174" fill="#004d40"/>
    <path id="Tracé_2377" data-name="Tracé 2377" d="M145.13,43.808c-1.354,3.125-2.494,7.235-.7,10.43,2.6,4.627,9.1,3.3,11.125,7.649,1.963,4.214-3.051,7.769-2.086,13.211.547,3.086,3.092,7.211,12.516,11.125" fill="none" stroke="#66948d" stroke-linecap="round" stroke-linejoin="round" stroke-width="1.446"/>
    <path id="Tracé_2378" data-name="Tracé 2378" d="M220.922,73.707c5.04,11.043,3.962,15.785,2.086,18.079-2.91,3.557-8.429,2.069-15.993,6.953A29.969,29.969,0,0,0,200.062,105" fill="none" stroke="#66948d" stroke-linecap="round" stroke-linejoin="round" stroke-width="1.446"/>
    <path id="Tracé_2379" data-name="Tracé 2379" d="M120.1,134.9c1.062,10.828,4.891,16.028,8.344,18.774,5.589,4.444,10.321,2.558,17.383,8.344,5.58,4.571,5.143,7.81,9.735,10.43,5.65,3.224,12.607,1.915,18.079,0" fill="none" stroke="#66948d" stroke-linecap="round" stroke-linejoin="round" stroke-width="1.446"/>
    <path id="Tracé_2380" data-name="Tracé 2380" d="M251.517,173.14c-3.3,12.248-7.928,16.22-11.821,17.383-7.927,2.369-15.082-6.234-20.86-2.781-4.863,2.907-2.116,10.39-6.953,14.6-3.076,2.678-9.273,4.082-22.946-1.391" fill="none" stroke="#66948d" stroke-linecap="round" stroke-linejoin="round" stroke-width="1.446"/>
    <path id="Tracé_2381" data-name="Tracé 2381" d="M98.543,236.416c-.117,10.848,2.823,14.955,5.563,16.688,6.2,3.926,14.142-2.568,29.2-.7a47.744,47.744,0,0,1,11.125,2.781" fill="none" stroke="#66948d" stroke-linecap="round" stroke-linejoin="round" stroke-width="1.446"/>
    <path id="Tracé_2382" data-name="Tracé 2382" d="M199.366,269.792c9.566,5.557,14.565,5.115,17.383,3.477,6.149-3.575,4.059-14.093,10.43-16.688,4.926-2.007,9.251,3.026,13.212.7,3.31-1.949,3.76-7.507,3.477-12.516" fill="none" stroke="#66948d" stroke-linecap="round" stroke-linejoin="round" stroke-width="1.446"/>
    <path id="Tracé_2383" data-name="Tracé 2383" d="M110.655,152.01c5.919,31.8,11.053,66.2,14.787,102.967a1256.9,1256.9,0,0,1,6.407,134.738" fill="none" stroke="#4d9c90" stroke-linecap="round" stroke-linejoin="round" stroke-width="7.23"/>
    <path id="Tracé_2384" data-name="Tracé 2384" d="M116.77,187.725a78.356,78.356,0,0,0-33.685-17.932,75.744,75.744,0,0,0-18.131-2.122" fill="none" stroke="#4d9c90" stroke-linecap="round" stroke-linejoin="round" stroke-width="3.615"/>
    <path id="Tracé_2385" data-name="Tracé 2385" d="M126.8,228.317a84.944,84.944,0,0,1,10.567-9.352,86.733,86.733,0,0,1,28.472-13.939" fill="none" stroke="#4d9c90" stroke-linecap="round" stroke-linejoin="round" stroke-width="3.615"/>
    <path id="Tracé_2386" data-name="Tracé 2386" d="M.006,202.781C-.361,187.1,15.16,185.388,18.184,166.009c2.057-13.186-2.774-27.49-6.57-38.732-4.052-12,3.7-23.406,18.446-23.133,17.733.329,28.99.3,36.21-5.724,6.66-5.558,1.663-11.489,8.823-21.583C81.64,67.609,93.69,61.47,105.9,60.781c1.178-.067,21.666-.976,29.611,10.669,5.241,7.683,1.676,15.924,5.1,17.014,4.846,1.544,9.938-15.627,25.853-21.437A35.188,35.188,0,0,1,196.3,70.19c7.544,4.729,15.6,14.361,13.759,23.728-1.987,10.121-13.664,10.477-15.264,19.662-1.571,9.02,9.112,12,17.828,29.189,3.753,7.4,10.669,21.038,5.682,33.6-4.189,10.553-12.48,9.52-16.967,20.645-4.162,10.321,1.39,15.137.8,29.044-.2,4.73-1.109,26.088-14.754,35.421-12.769,8.734-28.9,1.607-60.421,5.387a87.376,87.376,0,0,0-14.958,3c-10.9,3.23-12.554,6.149-18.145,7.44-14.02,3.239-34.324-8.017-38.711-22.335-3.195-10.429,3.714-17.058-1.025-21.537-6.511-6.153-19.166,3.986-33.318-2.021C9.431,226.581.279,214.443.006,202.781" fill="#67d0c0"/>
    <path id="Tracé_2387" data-name="Tracé 2387" d="M40.879,140.362c3.427,6.3,6.681,7.979,9.114,8.263,4.766.555,6.874-4.191,12.911-3.944,4.922.2,6.066,3.459,10.067,3.291,2.822-.119,6.647-1.924,11.034-9.361" fill="none" stroke="#fff" stroke-width="1.446"/>
    <path id="Tracé_2388" data-name="Tracé 2388" d="M168.411,156.216c3.148,5.3,8.959,7.852,13.838,6.445,6.776-1.953,9.844-10.994,7.893-13.268-1.532-1.786-5.983.8-7.05-.769-1.637-2.412,8.528-8.981,7.707-15.347-.382-2.966-3.276-6.862-14.9-10.539" fill="none" stroke="#fff" stroke-width="1.446"/>
    <path id="Tracé_2389" data-name="Tracé 2389" d="M95.9,175.356c5.693,12.231,10.811,15.241,14.641,15.449,5.1.276,7.7-4.422,12.282-3.189,5.888,1.584,5.538,10.415,10.869,12.294,2.818.993,7.574.169,16.005-8.408" fill="none" stroke="#fff" stroke-width="1.446"/>
    <path id="Tracé_2390" data-name="Tracé 2390" d="M72.965,247.14a21.392,21.392,0,0,0,16.807.6c10.251-4.187,12.417-15.02,12.555-15.78" fill="none" stroke="#fff" stroke-width="1.446"/>
    <path id="Tracé_2391" data-name="Tracé 2391" d="M117.308,89.706c.817,4.535,3.01,6.493,3.929,7.19,2.526,1.917,5.494,1.9,11.328,1.783a65.145,65.145,0,0,0,9-.8" fill="none" stroke="#fff" stroke-width="1.446"/>
    <path id="Tracé_2392" data-name="Tracé 2392" d="M157.073,232.622c2.288,6.059,4.528,7.656,6.282,7.817,3.194.294,5.032-4.154,9.387-4.327,2.669-.107,4.946,1.445,6.542,2.907" fill="none" stroke="#fff" stroke-width="1.446"/>
  </g>
</svg>
