<svg xmlns="http://www.w3.org/2000/svg" xmlns:xlink="http://www.w3.org/1999/xlink" width="286.788" height="431.92" viewBox="0 0 286.788 431.92">
  <defs>
    <clipPath id="clip-path">
      <rect id="Rectangle_507" data-name="Rectangle 507" width="286.788" height="431.92" fill="none"/>
    </clipPath>
  </defs>
  <g id="Groupe_199" data-name="Groupe 199" transform="translate(0 -0.002)">
    <rect id="Rectangle_496" data-name="Rectangle 496" width="138.852" height="333.731" transform="translate(0 98.19)" fill="#f7c2b6"/>
    <rect id="Rectangle_497" data-name="Rectangle 497" width="138.852" height="4.172" transform="translate(0 325.045)" fill="#fbe0db"/>
    <path id="Tracé_1915" data-name="Tracé 1915" d="M0,849.342,1.536,850.9H138.852v-1.554Z" transform="translate(0 -520.125)" fill="#f2a392"/>
    <path id="Tracé_1916" data-name="Tracé 1916" d="M160.71,663.633H109.673l-1.536,1.554H160.71Z" transform="translate(-66.221 -406.4)" fill="#f2a392"/>
    <rect id="Rectangle_498" data-name="Rectangle 498" width="1.554" height="67.811" transform="translate(94.489 257.234)" fill="#f2a392"/>
    <rect id="Rectangle_499" data-name="Rectangle 499" width="52.574" height="66.257" transform="translate(41.915 258.788)" fill="#fbe0db"/>
    <rect id="Rectangle_500" data-name="Rectangle 500" width="43.884" height="61.36" transform="translate(46.236 263.685)" fill="#99bccb"/>
    <rect id="Rectangle_501" data-name="Rectangle 501" width="6.77" height="61.36" transform="translate(46.236 263.685)" fill="#ccd3d5"/>
    <rect id="Rectangle_502" data-name="Rectangle 502" width="67.152" height="79.221" transform="translate(34.626 352.7)" fill="#ee856d"/>
    <rect id="Rectangle_503" data-name="Rectangle 503" width="34.626" height="1.78" transform="translate(0 390.963)" fill="#ea6649"/>
    <path id="Tracé_1917" data-name="Tracé 1917" d="M89.331,907.115l1.862-1.78h67.07v1.78Z" transform="translate(-54.705 -554.414)" fill="#b04d37"/>
    <rect id="Rectangle_504" data-name="Rectangle 504" width="1.78" height="79.221" transform="translate(101.778 352.701)" fill="#b04d37"/>
    <rect id="Rectangle_505" data-name="Rectangle 505" width="54.816" height="72.595" transform="translate(40.77 359.326)" fill="#fbe0db"/>
    <rect id="Rectangle_506" data-name="Rectangle 506" width="3.162" height="72.595" transform="translate(40.77 359.326)" fill="#ea6649"/>
    <line id="Ligne_345" data-name="Ligne 345" y2="61.36" transform="translate(68.178 263.685)" fill="none" stroke="#fbe0db" stroke-width="0.939"/>
    <g id="Groupe_196" data-name="Groupe 196" transform="translate(0 0.002)">
      <g id="Groupe_195" data-name="Groupe 195" transform="translate(0 0)" clip-path="url(#clip-path)">
        <line id="Ligne_346" data-name="Ligne 346" y2="72.596" transform="translate(68.178 359.324)" fill="none" stroke="#ee856d" stroke-width="0.939"/>
      </g>
    </g>
    <line id="Ligne_347" data-name="Ligne 347" x1="43.884" transform="translate(46.26 293.068)" fill="none" stroke="#fbe0db" stroke-width="0.939"/>
    <rect id="Rectangle_508" data-name="Rectangle 508" width="10.563" height="3.649" transform="translate(16.156 282.698)" fill="#fbe0db"/>
    <rect id="Rectangle_509" data-name="Rectangle 509" width="10.563" height="3.649" transform="translate(10.539 286.347)" fill="#f2a392"/>
    <rect id="Rectangle_510" data-name="Rectangle 510" width="10.563" height="3.649" transform="translate(104.307 235.837)" fill="#fbe0db"/>
    <rect id="Rectangle_511" data-name="Rectangle 511" width="10.563" height="3.649" transform="translate(98.69 239.486)" fill="#f2a392"/>
    <rect id="Rectangle_512" data-name="Rectangle 512" width="10.563" height="3.649" transform="translate(13.347 279.049)" fill="#f2a392"/>
    <rect id="Rectangle_513" data-name="Rectangle 513" width="10.563" height="3.649" transform="translate(122.816 373.64)" fill="#fbe0db"/>
    <rect id="Rectangle_514" data-name="Rectangle 514" width="10.563" height="3.649" transform="translate(117.198 377.289)" fill="#f2a392"/>
    <rect id="Rectangle_515" data-name="Rectangle 515" width="10.563" height="3.649" transform="translate(120.007 369.991)" fill="#f2a392"/>
    <rect id="Rectangle_516" data-name="Rectangle 516" width="10.563" height="3.649" transform="translate(13.347 379.114)" fill="#f2a392"/>
    <rect id="Rectangle_517" data-name="Rectangle 517" width="10.563" height="3.649" transform="translate(0.936 361.733)" fill="#f2a392"/>
    <rect id="Rectangle_518" data-name="Rectangle 518" width="10.563" height="3.649" transform="translate(130.306 304.963)" fill="#f2a392"/>
    <rect id="Rectangle_519" data-name="Rectangle 519" width="10.563" height="3.649" transform="translate(49.453 339.911)" fill="#f2a392"/>
    <rect id="Rectangle_520" data-name="Rectangle 520" width="36.184" height="39.178" transform="translate(102.668 392.743)" fill="#fbe0db"/>
    <rect id="Rectangle_521" data-name="Rectangle 521" width="34.626" height="39.178" transform="translate(0 392.743)" fill="#fbe0db"/>
    <path id="Tracé_1918" data-name="Tracé 1918" d="M264.872,1011.753l.89-.936h35.294v.936Z" transform="translate(-162.205 -619.011)" fill="#ea6649"/>
    <g id="Groupe_198" data-name="Groupe 198" transform="translate(0 0.002)">
      <g id="Groupe_197" data-name="Groupe 197" transform="translate(0 0)" clip-path="url(#clip-path)">
        <path id="Tracé_1919" data-name="Tracé 1919" d="M159.875,769.011H104.636a1.728,1.728,0,0,1,1.728-1.728h51.783A1.728,1.728,0,0,1,159.875,769.011Z" transform="translate(-64.078 -469.875)" fill="#667a82"/>
        <rect id="Rectangle_522" data-name="Rectangle 522" width="1.145" height="28.135" transform="translate(40.558 299.136)" fill="#667a82"/>
        <rect id="Rectangle_523" data-name="Rectangle 523" width="1.145" height="28.135" transform="translate(45.476 299.136)" fill="#667a82"/>
        <rect id="Rectangle_524" data-name="Rectangle 524" width="1.145" height="28.135" transform="translate(50.393 299.136)" fill="#667a82"/>
        <rect id="Rectangle_525" data-name="Rectangle 525" width="1.145" height="28.135" transform="translate(55.311 299.136)" fill="#667a82"/>
        <rect id="Rectangle_526" data-name="Rectangle 526" width="1.145" height="28.135" transform="translate(60.229 299.136)" fill="#667a82"/>
        <rect id="Rectangle_527" data-name="Rectangle 527" width="1.145" height="28.135" transform="translate(65.146 299.136)" fill="#667a82"/>
        <rect id="Rectangle_528" data-name="Rectangle 528" width="1.145" height="28.135" transform="translate(70.064 299.136)" fill="#667a82"/>
        <rect id="Rectangle_529" data-name="Rectangle 529" width="1.145" height="28.135" transform="translate(74.982 299.136)" fill="#667a82"/>
        <rect id="Rectangle_530" data-name="Rectangle 530" width="1.145" height="28.135" transform="translate(79.899 299.136)" fill="#667a82"/>
        <rect id="Rectangle_531" data-name="Rectangle 531" width="1.145" height="28.135" transform="translate(84.817 299.136)" fill="#667a82"/>
        <rect id="Rectangle_532" data-name="Rectangle 532" width="1.145" height="28.135" transform="translate(89.735 299.136)" fill="#667a82"/>
        <rect id="Rectangle_533" data-name="Rectangle 533" width="1.145" height="28.135" transform="translate(94.653 299.136)" fill="#667a82"/>
        <rect id="Rectangle_534" data-name="Rectangle 534" width="138.852" height="4.172" transform="translate(0.202 215.106)" fill="#fbe0db"/>
        <path id="Tracé_1920" data-name="Tracé 1920" d="M139.374,567.27H2.058L.521,565.716H139.374Z" transform="translate(-0.319 -346.438)" fill="#f2a392"/>
        <rect id="Rectangle_535" data-name="Rectangle 535" width="138.852" height="4.172" transform="translate(0 98.187)" fill="#fbe0db"/>
        <path id="Tracé_1921" data-name="Tracé 1921" d="M138.852,153.105H0L18.2,89.677H138.852Z" transform="translate(0 -54.918)" fill="#667a82"/>
        <path id="Tracé_1922" data-name="Tracé 1922" d="M138.852,265.632H1.536L0,264.078H138.852Z" transform="translate(0 -161.719)" fill="#f2a392"/>
        <path id="Tracé_1923" data-name="Tracé 1923" d="M161.232,380.008H110.194l-1.536,1.554h52.574Z" transform="translate(-66.541 -232.713)" fill="#f2a392"/>
        <rect id="Rectangle_536" data-name="Rectangle 536" width="1.554" height="67.811" transform="translate(94.691 147.295)" fill="#f2a392"/>
        <rect id="Rectangle_537" data-name="Rectangle 537" width="52.574" height="66.257" transform="translate(42.117 148.849)" fill="#fbe0db"/>
        <rect id="Rectangle_538" data-name="Rectangle 538" width="43.884" height="61.36" transform="translate(46.438 153.746)" fill="#99bccb"/>
        <rect id="Rectangle_539" data-name="Rectangle 539" width="6.77" height="61.36" transform="translate(46.438 153.746)" fill="#ccd3d5"/>
        <line id="Ligne_348" data-name="Ligne 348" y2="61.36" transform="translate(68.38 153.746)" fill="none" stroke="#fbe0db" stroke-width="0.939"/>
        <line id="Ligne_349" data-name="Ligne 349" x1="43.884" transform="translate(46.462 183.13)" fill="none" stroke="#fbe0db" stroke-width="0.939"/>
        <rect id="Rectangle_540" data-name="Rectangle 540" width="10.563" height="3.649" transform="translate(16.358 172.759)" fill="#fbe0db"/>
        <rect id="Rectangle_541" data-name="Rectangle 541" width="10.563" height="3.649" transform="translate(10.741 176.408)" fill="#f2a392"/>
        <rect id="Rectangle_542" data-name="Rectangle 542" width="10.563" height="3.649" transform="translate(104.51 125.899)" fill="#fbe0db"/>
        <rect id="Rectangle_543" data-name="Rectangle 543" width="10.563" height="3.649" transform="translate(98.892 129.548)" fill="#f2a392"/>
        <rect id="Rectangle_544" data-name="Rectangle 544" width="10.563" height="3.649" transform="translate(13.55 169.11)" fill="#f2a392"/>
        <rect id="Rectangle_545" data-name="Rectangle 545" width="10.563" height="3.649" transform="translate(130.508 195.025)" fill="#f2a392"/>
        <path id="Tracé_1924" data-name="Tracé 1924" d="M160.4,485.386H105.157a1.728,1.728,0,0,1,1.728-1.728h51.783a1.728,1.728,0,0,1,1.728,1.728" transform="translate(-64.397 -296.187)" fill="#667a82"/>
        <rect id="Rectangle_546" data-name="Rectangle 546" width="1.145" height="28.135" transform="translate(40.761 189.199)" fill="#667a82"/>
        <rect id="Rectangle_547" data-name="Rectangle 547" width="1.145" height="28.135" transform="translate(45.678 189.199)" fill="#667a82"/>
        <rect id="Rectangle_548" data-name="Rectangle 548" width="1.145" height="28.135" transform="translate(50.596 189.199)" fill="#667a82"/>
        <rect id="Rectangle_549" data-name="Rectangle 549" width="1.145" height="28.135" transform="translate(55.513 189.199)" fill="#667a82"/>
        <rect id="Rectangle_550" data-name="Rectangle 550" width="1.145" height="28.135" transform="translate(60.431 189.199)" fill="#667a82"/>
        <rect id="Rectangle_551" data-name="Rectangle 551" width="1.145" height="28.135" transform="translate(65.349 189.199)" fill="#667a82"/>
        <rect id="Rectangle_552" data-name="Rectangle 552" width="1.145" height="28.135" transform="translate(70.266 189.199)" fill="#667a82"/>
        <rect id="Rectangle_553" data-name="Rectangle 553" width="1.145" height="28.135" transform="translate(75.184 189.199)" fill="#667a82"/>
        <rect id="Rectangle_554" data-name="Rectangle 554" width="1.145" height="28.135" transform="translate(80.102 189.199)" fill="#667a82"/>
        <rect id="Rectangle_555" data-name="Rectangle 555" width="1.145" height="28.135" transform="translate(85.019 189.199)" fill="#667a82"/>
        <rect id="Rectangle_556" data-name="Rectangle 556" width="1.145" height="28.135" transform="translate(89.937 189.199)" fill="#667a82"/>
        <rect id="Rectangle_557" data-name="Rectangle 557" width="1.145" height="28.135" transform="translate(94.855 189.199)" fill="#667a82"/>
        <rect id="Rectangle_558" data-name="Rectangle 558" width="22.7" height="28.952" transform="translate(29.54 45.696)" fill="#ccd3d5"/>
        <rect id="Rectangle_559" data-name="Rectangle 559" width="19.455" height="25.284" transform="translate(31.162 47.53)" fill="#99bccb"/>
        <rect id="Rectangle_560" data-name="Rectangle 560" width="1.993" height="25.284" transform="translate(31.162 47.53)" fill="#99a6ac"/>
        <path id="Tracé_1925" data-name="Tracé 1925" d="M98.909,113.661H76.21l2.318-2.679h22.7Z" transform="translate(-46.67 -67.965)" fill="#334d59"/>
        <path id="Tracé_1926" data-name="Tracé 1926" d="M134.773,113.661v28.952h.648l1.67-18.466V110.982Z" transform="translate(-82.533 -67.965)" fill="#334d59"/>
        <line id="Ligne_350" data-name="Ligne 350" y2="25.945" transform="translate(40.89 47.194)" fill="none" stroke="#ccd3d5" stroke-width="0.939"/>
        <rect id="Rectangle_561" data-name="Rectangle 561" width="22.7" height="28.952" transform="translate(90.01 45.696)" fill="#ccd3d5"/>
        <rect id="Rectangle_562" data-name="Rectangle 562" width="19.455" height="25.284" transform="translate(91.632 47.53)" fill="#99bccb"/>
        <rect id="Rectangle_563" data-name="Rectangle 563" width="1.993" height="25.284" transform="translate(91.632 47.53)" fill="#99a6ac"/>
        <path id="Tracé_1927" data-name="Tracé 1927" d="M254.916,113.661h-22.7l2.318-2.679h22.7Z" transform="translate(-142.206 -67.965)" fill="#334d59"/>
        <path id="Tracé_1928" data-name="Tracé 1928" d="M290.779,113.661v28.952h.648l1.67-18.466V110.982Z" transform="translate(-178.069 -67.965)" fill="#334d59"/>
        <line id="Ligne_351" data-name="Ligne 351" y2="25.945" transform="translate(101.36 47.194)" fill="none" stroke="#ccd3d5" stroke-width="0.939"/>
        <path id="Tracé_1929" data-name="Tracé 1929" d="M40.754,205.85h0a1.555,1.555,0,0,1-1.48-2.257l1.116-3.241H44.9l-1.116,3.241a3.481,3.481,0,0,1-3.034,2.257" transform="translate(-23.971 -122.694)" fill="#334d59"/>
        <path id="Tracé_1930" data-name="Tracé 1930" d="M48.184,114.281h0a1.555,1.555,0,0,1-1.48-2.257l1.116-3.241h4.514l-1.116,3.241a3.481,3.481,0,0,1-3.034,2.257" transform="translate(-28.521 -66.618)" fill="#334d59"/>
        <path id="Tracé_1931" data-name="Tracé 1931" d="M310.786,220.033h0a1.555,1.555,0,0,1-1.48-2.257l1.116-3.241h4.514l-1.116,3.241a3.481,3.481,0,0,1-3.034,2.257" transform="translate(-189.336 -131.379)" fill="#334d59"/>
        <path id="Tracé_1932" data-name="Tracé 1932" d="M117.336,220.033h0a1.555,1.555,0,0,1-1.48-2.257l1.116-3.241h4.514l-1.116,3.241a3.481,3.481,0,0,1-3.034,2.257" transform="translate(-70.869 -131.379)" fill="#334d59"/>
        <path id="Tracé_1933" data-name="Tracé 1933" d="M53.574,201.576h0a1.555,1.555,0,0,1-1.48-2.257l1.116-3.241h4.514l-1.116,3.241a3.481,3.481,0,0,1-3.034,2.257" transform="translate(-31.822 -120.077)" fill="#99a6ac"/>
        <path id="Tracé_1934" data-name="Tracé 1934" d="M211.2,233.255h0a1.555,1.555,0,0,1-1.48-2.257l1.116-3.241h4.514L214.229,231a3.481,3.481,0,0,1-3.034,2.257" transform="translate(-128.347 -139.476)" fill="#99a6ac"/>
        <path id="Tracé_1935" data-name="Tracé 1935" d="M128.023,223.191h0a1.555,1.555,0,0,1-1.48-2.257l1.116-3.241h4.514l-1.116,3.241a3.481,3.481,0,0,1-3.034,2.257" transform="translate(-77.414 -133.313)" fill="#99a6ac"/>
        <path id="Tracé_1936" data-name="Tracé 1936" d="M169.08,144.659h0a1.555,1.555,0,0,1-1.48-2.257l1.116-3.241h4.514l-1.116,3.241a3.481,3.481,0,0,1-3.034,2.257" transform="translate(-102.557 -85.221)" fill="#334d59"/>
        <path id="Tracé_1937" data-name="Tracé 1937" d="M179.175,149.057h0a1.555,1.555,0,0,1-1.48-2.257l1.116-3.241h4.514l-1.116,3.241a3.481,3.481,0,0,1-3.034,2.257" transform="translate(-108.739 -87.915)" fill="#99a6ac"/>
        <path id="Tracé_1938" data-name="Tracé 1938" d="M318.217,107.189h0a1.555,1.555,0,0,1-1.48-2.257l1.116-3.241h4.514l-1.116,3.241a3.481,3.481,0,0,1-3.034,2.257" transform="translate(-193.886 -62.275)" fill="#334d59"/>
        <path id="Tracé_1939" data-name="Tracé 1939" d="M328.312,111.587h0a1.555,1.555,0,0,1-1.48-2.257l1.116-3.241h4.514l-1.116,3.241a3.481,3.481,0,0,1-3.034,2.257" transform="translate(-200.068 -64.968)" fill="#99a6ac"/>
        <path id="Tracé_1940" data-name="Tracé 1940" d="M358.246,524.424l147.927-39.637V151.056L358.246,190.693Z" transform="translate(-219.386 -92.506)" fill="#f2a392"/>
        <path id="Tracé_1941" data-name="Tracé 1941" d="M358.246,780.128l147.927-39.637V736.32L358.246,775.956Z" transform="translate(-219.386 -450.914)" fill="#fbe0db"/>
        <path id="Tracé_1942" data-name="Tracé 1942" d="M358.246,788.273l147.927-39.637v-1.554L358.246,786.719Z" transform="translate(-219.386 -457.505)" fill="#b04d37"/>
        <path id="Tracé_1943" data-name="Tracé 1943" d="M506.173,908.161v-1.78L358.246,946.018V947.8Z" transform="translate(-219.386 -555.057)" fill="#b04d37"/>
        <path id="Tracé_1944" data-name="Tracé 1944" d="M647.149,651.094l10.563-2.83v-3.649l-10.563,2.83Z" transform="translate(-396.306 -394.755)" fill="#fbe0db"/>
        <path id="Tracé_1945" data-name="Tracé 1945" d="M661.641,656.625l10.563-2.83v-3.649l-10.563,2.83Z" transform="translate(-405.181 -398.142)" fill="#ee856d"/>
        <path id="Tracé_1946" data-name="Tracé 1946" d="M419.728,591.137l10.563-2.83v-3.649l-10.563,2.83Z" transform="translate(-257.036 -358.038)" fill="#fbe0db"/>
        <path id="Tracé_1947" data-name="Tracé 1947" d="M434.221,596.667l10.563-2.83v-3.649l-10.563,2.83Z" transform="translate(-265.911 -361.425)" fill="#ee856d"/>
        <path id="Tracé_1948" data-name="Tracé 1948" d="M654.4,639.738l10.563-2.83v-3.649l-10.563,2.83Z" transform="translate(-400.743 -387.801)" fill="#ee856d"/>
        <path id="Tracé_1949" data-name="Tracé 1949" d="M371.977,959.448l10.563-2.83v-3.649l-10.563,2.83Z" transform="translate(-227.794 -583.587)" fill="#fbe0db"/>
        <path id="Tracé_1950" data-name="Tracé 1950" d="M386.47,964.979l10.563-2.83V958.5l-10.563,2.83Z" transform="translate(-236.669 -586.974)" fill="#f2a392"/>
        <path id="Tracé_1951" data-name="Tracé 1951" d="M379.224,948.092l10.563-2.83v-3.649l-10.563,2.83Z" transform="translate(-232.232 -576.633)" fill="#f2a392"/>
        <path id="Tracé_1952" data-name="Tracé 1952" d="M664.958,895.065l-10.563,2.83v-3.649l10.563-2.83Z" transform="translate(-400.743 -545.893)" fill="#f2a392"/>
        <path id="Tracé_1953" data-name="Tracé 1953" d="M696.977,841.645l-10.563,2.83v-3.649L696.977,838Z" transform="translate(-420.352 -513.179)" fill="#f2a392"/>
        <path id="Tracé_1954" data-name="Tracé 1954" d="M352.654,787.447l10.563-2.83v-3.649l-10.563,2.83Z" transform="translate(-215.961 -478.256)" fill="#ee856d"/>
        <path id="Tracé_1955" data-name="Tracé 1955" d="M561.247,821.715l10.563-2.83v-3.649l-10.563,2.83Z" transform="translate(-343.701 -499.241)" fill="#f2a392"/>
        <path id="Tracé_1956" data-name="Tracé 1956" d="M358.246,989.788l147.927-39.637V910.973L358.246,950.61Z" transform="translate(-219.386 -557.869)" fill="#f7c2b6"/>
        <path id="Tracé_1957" data-name="Tracé 1957" d="M472.31,611.464l51.037-13.675,1.536,1.142L472.31,613.018Z" transform="translate(-289.237 -366.079)" fill="#ea6649"/>
        <path id="Tracé_1958" data-name="Tracé 1958" d="M469.855,633.07v67.811l-1.554.416V633.486Z" transform="translate(-286.782 -387.685)" fill="#ea6649"/>
        <path id="Tracé_1959" data-name="Tracé 1959" d="M472.31,681.08l52.574-14.087V600.736L472.31,614.823Z" transform="translate(-289.237 -367.884)" fill="#ee856d"/>
        <path id="Tracé_1960" data-name="Tracé 1960" d="M483.582,689.476l43.884-11.759v-61.36l-43.884,11.758Z" transform="translate(-296.14 -377.45)" fill="#99bccb"/>
        <path id="Tracé_1961" data-name="Tracé 1961" d="M579.331,679.531l6.77-1.814v-61.36l-6.77,1.814Z" transform="translate(-354.775 -377.45)" fill="#ccd3d5"/>
        <line id="Ligne_352" data-name="Ligne 352" y2="61.36" transform="translate(209.384 244.786)" fill="none" stroke="#fbe0db" stroke-width="0.939"/>
        <line id="Ligne_353" data-name="Ligne 353" y1="11.759" x2="43.884" transform="translate(187.418 268.297)" fill="none" stroke="#fbe0db" stroke-width="0.939"/>
        <path id="Tracé_1962" data-name="Tracé 1962" d="M468.933,716.6l55.239-14.8a1.281,1.281,0,0,0-1.728-1.265l-51.783,13.875A2.418,2.418,0,0,0,468.933,716.6Z" transform="translate(-287.169 -428.963)" fill="#667a82"/>
        <path id="Tracé_1963" data-name="Tracé 1963" d="M608.491,732.34l1.145-.307V703.9l-1.145.307Z" transform="translate(-372.632 -431.059)" fill="#667a82"/>
        <path id="Tracé_1964" data-name="Tracé 1964" d="M595.8,735.739l1.145-.307V707.3l-1.145.307Z" transform="translate(-364.863 -433.141)" fill="#667a82"/>
        <path id="Tracé_1965" data-name="Tracé 1965" d="M583.117,739.139l1.145-.307V710.7l-1.145.307Z" transform="translate(-357.094 -435.223)" fill="#667a82"/>
        <path id="Tracé_1966" data-name="Tracé 1966" d="M570.43,742.538l1.145-.307V714.1l-1.145.307Z" transform="translate(-349.324 -437.304)" fill="#667a82"/>
        <path id="Tracé_1967" data-name="Tracé 1967" d="M557.743,745.938l1.145-.307V717.5l-1.145.307Z" transform="translate(-341.555 -439.386)" fill="#667a82"/>
        <path id="Tracé_1968" data-name="Tracé 1968" d="M545.056,749.337l1.145-.307V720.9l-1.145.307Z" transform="translate(-333.785 -441.468)" fill="#667a82"/>
        <path id="Tracé_1969" data-name="Tracé 1969" d="M532.369,752.737l1.145-.307V724.295l-1.145.307Z" transform="translate(-326.016 -443.55)" fill="#667a82"/>
        <path id="Tracé_1970" data-name="Tracé 1970" d="M519.682,756.136l1.145-.307V727.694l-1.145.307Z" transform="translate(-318.247 -445.632)" fill="#667a82"/>
        <path id="Tracé_1971" data-name="Tracé 1971" d="M506.995,759.536l1.145-.307V731.094l-1.145.307Z" transform="translate(-310.477 -447.713)" fill="#667a82"/>
        <path id="Tracé_1972" data-name="Tracé 1972" d="M494.307,762.935l1.145-.307V734.493l-1.145.307Z" transform="translate(-302.708 -449.795)" fill="#667a82"/>
        <path id="Tracé_1973" data-name="Tracé 1973" d="M481.62,766.335l1.145-.307V737.892l-1.145.307Z" transform="translate(-294.938 -451.877)" fill="#667a82"/>
        <path id="Tracé_1974" data-name="Tracé 1974" d="M468.933,769.734l1.145-.307V741.292l-1.145.307Z" transform="translate(-287.169 -453.959)" fill="#667a82"/>
        <path id="Tracé_1975" data-name="Tracé 1975" d="M357.335,496.747,505.262,457.11v-4.172L357.335,492.575Z" transform="translate(-218.827 -277.375)" fill="#fbe0db"/>
        <path id="Tracé_1976" data-name="Tracé 1976" d="M357.335,504.892l145.243-38.918,2.684-2.273L357.335,503.338Z" transform="translate(-218.827 -283.966)" fill="#f2a392"/>
        <path id="Tracé_1977" data-name="Tracé 1977" d="M357.856,194.906l148.078-39.678v-4.171L357.856,190.734Z" transform="translate(-219.147 -92.506)" fill="#fbe0db"/>
        <path id="Tracé_1978" data-name="Tracé 1978" d="M357.856,98.23,505.935,58.552,487.73,0,357.856,34.8Z" transform="translate(-219.147 -0.002)" fill="#334d59"/>
        <path id="Tracé_1979" data-name="Tracé 1979" d="M357.856,203.05,504.4,163.785l1.536-1.965L357.856,201.5Z" transform="translate(-219.147 -99.097)" fill="#f2a392"/>
        <path id="Tracé_1980" data-name="Tracé 1980" d="M646.627,367.608l10.563-2.83v-3.649l-10.563,2.83Z" transform="translate(-395.986 -221.152)" fill="#fbe0db"/>
        <path id="Tracé_1981" data-name="Tracé 1981" d="M661.12,373.139l10.563-2.83V366.66l-10.563,2.83Z" transform="translate(-404.861 -224.539)" fill="#ee856d"/>
        <path id="Tracé_1982" data-name="Tracé 1982" d="M419.206,307.651l10.563-2.83v-3.649L419.206,304Z" transform="translate(-256.717 -184.435)" fill="#fbe0db"/>
        <path id="Tracé_1983" data-name="Tracé 1983" d="M433.7,313.182l10.563-2.83V306.7l-10.563,2.83Z" transform="translate(-265.592 -187.821)" fill="#ee856d"/>
        <path id="Tracé_1984" data-name="Tracé 1984" d="M653.873,356.253l10.563-2.83v-3.649l-10.563,2.83Z" transform="translate(-400.424 -214.198)" fill="#ee856d"/>
        <path id="Tracé_1985" data-name="Tracé 1985" d="M352.132,503.962l10.563-2.83v-3.649l-10.563,2.83Z" transform="translate(-215.641 -304.653)" fill="#ee856d"/>
        <path id="Tracé_1986" data-name="Tracé 1986" d="M471.788,327.979,522.825,314.3l1.536,1.142-52.574,14.087Z" transform="translate(-288.917 -192.476)" fill="#ea6649"/>
        <path id="Tracé_1987" data-name="Tracé 1987" d="M469.333,349.584V417.4l-1.554.416V350Z" transform="translate(-286.462 -214.082)" fill="#ea6649"/>
        <path id="Tracé_1988" data-name="Tracé 1988" d="M471.788,397.594l52.574-14.087V317.25l-52.574,14.087Z" transform="translate(-288.917 -194.281)" fill="#ee856d"/>
        <path id="Tracé_1989" data-name="Tracé 1989" d="M483.06,405.99l43.884-11.759v-61.36L483.06,344.63Z" transform="translate(-295.82 -203.847)" fill="#99bccb"/>
        <path id="Tracé_1990" data-name="Tracé 1990" d="M578.81,396.045l6.77-1.814v-61.36l-6.77,1.814Z" transform="translate(-354.456 -203.847)" fill="#ccd3d5"/>
        <line id="Ligne_354" data-name="Ligne 354" y2="61.36" transform="translate(209.182 134.904)" fill="none" stroke="#fbe0db" stroke-width="0.939"/>
        <line id="Ligne_355" data-name="Ligne 355" y1="11.759" x2="43.884" transform="translate(187.216 158.414)" fill="none" stroke="#fbe0db" stroke-width="0.939"/>
        <path id="Tracé_1991" data-name="Tracé 1991" d="M468.412,433.117l55.239-14.8a1.281,1.281,0,0,0-1.728-1.265L470.14,430.926a2.418,2.418,0,0,0-1.728,2.192" transform="translate(-286.85 -255.36)" fill="#667a82"/>
        <path id="Tracé_1992" data-name="Tracé 1992" d="M607.969,448.854l1.145-.307V420.412l-1.145.307Z" transform="translate(-372.313 -257.456)" fill="#667a82"/>
        <path id="Tracé_1993" data-name="Tracé 1993" d="M595.282,452.254l1.145-.307V423.811l-1.145.307Z" transform="translate(-364.543 -259.538)" fill="#667a82"/>
        <path id="Tracé_1994" data-name="Tracé 1994" d="M582.6,455.653l1.145-.307V427.211l-1.145.307Z" transform="translate(-356.774 -261.619)" fill="#667a82"/>
        <path id="Tracé_1995" data-name="Tracé 1995" d="M569.908,459.053l1.145-.307V430.61l-1.145.307Z" transform="translate(-349.005 -263.701)" fill="#667a82"/>
        <path id="Tracé_1996" data-name="Tracé 1996" d="M557.221,462.452l1.145-.307V434.01l-1.145.307Z" transform="translate(-341.235 -265.783)" fill="#667a82"/>
        <path id="Tracé_1997" data-name="Tracé 1997" d="M544.534,465.852l1.145-.307V437.409l-1.145.307Z" transform="translate(-333.466 -267.865)" fill="#667a82"/>
        <path id="Tracé_1998" data-name="Tracé 1998" d="M531.847,469.251l1.145-.307V440.809l-1.145.307Z" transform="translate(-325.696 -269.947)" fill="#667a82"/>
        <path id="Tracé_1999" data-name="Tracé 1999" d="M519.16,472.65l1.145-.307V444.208l-1.145.307Z" transform="translate(-317.927 -272.028)" fill="#667a82"/>
        <path id="Tracé_2000" data-name="Tracé 2000" d="M506.473,476.05l1.145-.307V447.608l-1.145.307Z" transform="translate(-310.158 -274.11)" fill="#667a82"/>
        <path id="Tracé_2001" data-name="Tracé 2001" d="M493.786,479.45l1.145-.307V451.007l-1.145.307Z" transform="translate(-302.388 -276.192)" fill="#667a82"/>
        <path id="Tracé_2002" data-name="Tracé 2002" d="M481.1,482.849l1.145-.307V454.407l-1.145.307Z" transform="translate(-294.619 -278.274)" fill="#667a82"/>
        <path id="Tracé_2003" data-name="Tracé 2003" d="M468.412,486.248l1.145-.307V457.806l-1.145.307Z" transform="translate(-286.849 -280.356)" fill="#667a82"/>
        <path id="Tracé_2004" data-name="Tracé 2004" d="M590.23,75.076l22.7-6.082V40.042l-22.7,6.082Z" transform="translate(-361.45 -24.522)" fill="#ccd3d5"/>
        <path id="Tracé_2005" data-name="Tracé 2005" d="M594.415,76.392l19.455-5.213V45.9l-19.455,5.213Z" transform="translate(-364.013 -28.106)" fill="#99bccb"/>
        <path id="Tracé_2006" data-name="Tracé 2006" d="M639.468,71.713l1.993-.534V45.9l-1.993.534Z" transform="translate(-391.602 -28.107)" fill="#99a6ac"/>
        <path id="Tracé_2007" data-name="Tracé 2007" d="M586.568,42.873l22.7-6.082-2.318-2.058-22.7,6.082Z" transform="translate(-357.787 -21.27)" fill="#263a43"/>
        <path id="Tracé_2008" data-name="Tracé 2008" d="M586.568,52.482V81.434l-.648.174-1.67-18.019V50.424Z" transform="translate(-357.787 -30.88)" fill="#263a43"/>
        <line id="Ligne_356" data-name="Ligne 356" y2="25.945" transform="translate(240.13 20.059)" fill="none" stroke="#ccd3d5" stroke-width="0.939"/>
        <path id="Tracé_2009" data-name="Tracé 2009" d="M434.224,116.878l22.7-6.082V81.844l-22.7,6.082Z" transform="translate(-265.913 -50.121)" fill="#ccd3d5"/>
        <path id="Tracé_2010" data-name="Tracé 2010" d="M438.409,118.193l19.455-5.213V87.7L438.409,92.91Z" transform="translate(-268.476 -53.705)" fill="#99bccb"/>
        <path id="Tracé_2011" data-name="Tracé 2011" d="M483.461,113.515l1.993-.534V87.7l-1.993.534Z" transform="translate(-296.066 -53.706)" fill="#99a6ac"/>
        <path id="Tracé_2012" data-name="Tracé 2012" d="M430.561,84.675l22.7-6.082-2.318-2.058-22.7,6.082Z" transform="translate(-262.251 -46.869)" fill="#263a43"/>
        <path id="Tracé_2013" data-name="Tracé 2013" d="M430.561,94.284v28.952l-.648.174-1.67-18.019V92.226Z" transform="translate(-262.251 -56.479)" fill="#263a43"/>
        <line id="Ligne_357" data-name="Ligne 357" y2="25.945" transform="translate(179.66 36.262)" fill="none" stroke="#ccd3d5" stroke-width="0.939"/>
        <path id="Tracé_2014" data-name="Tracé 2014" d="M675.148,119.025h0a2.008,2.008,0,0,0,1.48-2.653l-1.116-2.942L671,114.639l1.116,2.942a2.56,2.56,0,0,0,3.034,1.444" transform="translate(-410.911 -69.464)" fill="#263a43"/>
        <path id="Tracé_2015" data-name="Tracé 2015" d="M667.718,29.447h0a2.007,2.007,0,0,0,1.48-2.653l-1.116-2.942-4.514,1.209L664.684,28a2.559,2.559,0,0,0,3.034,1.443" transform="translate(-406.361 -14.608)" fill="#263a43"/>
        <path id="Tracé_2016" data-name="Tracé 2016" d="M405.115,205.563h0a2.008,2.008,0,0,0,1.48-2.653l-1.116-2.942-4.514,1.209,1.116,2.942a2.56,2.56,0,0,0,3.034,1.444" transform="translate(-245.546 -122.459)" fill="#263a43"/>
        <path id="Tracé_2017" data-name="Tracé 2017" d="M598.565,153.729h0a2.008,2.008,0,0,0,1.48-2.653l-1.116-2.942-4.514,1.209,1.116,2.942a2.56,2.56,0,0,0,3.034,1.444" transform="translate(-364.012 -90.716)" fill="#263a43"/>
        <path id="Tracé_2018" data-name="Tracé 2018" d="M662.328,118.187h0a2.008,2.008,0,0,0,1.48-2.653l-1.116-2.942-4.514,1.209,1.116,2.942a2.56,2.56,0,0,0,3.034,1.444" transform="translate(-403.06 -68.951)" fill="#99a6ac"/>
        <path id="Tracé_2019" data-name="Tracé 2019" d="M504.706,192.1h0a2.008,2.008,0,0,0,1.48-2.653l-1.116-2.942-4.514,1.209,1.116,2.942a2.561,2.561,0,0,0,3.034,1.444" transform="translate(-306.534 -114.215)" fill="#99a6ac"/>
        <path id="Tracé_2020" data-name="Tracé 2020" d="M587.879,159.751h0a2.008,2.008,0,0,0,1.48-2.653l-1.116-2.942-4.514,1.209,1.116,2.942a2.56,2.56,0,0,0,3.034,1.444" transform="translate(-357.468 -94.404)" fill="#99a6ac"/>
        <path id="Tracé_2021" data-name="Tracé 2021" d="M546.821,92.22h0a2.008,2.008,0,0,0,1.48-2.653l-1.116-2.942-4.514,1.209,1.116,2.942a2.56,2.56,0,0,0,3.034,1.444" transform="translate(-332.325 -53.049)" fill="#263a43"/>
        <path id="Tracé_2022" data-name="Tracé 2022" d="M536.726,99.322h0a2.008,2.008,0,0,0,1.48-2.653l-1.116-2.942-4.514,1.209,1.116,2.942a2.56,2.56,0,0,0,3.034,1.444" transform="translate(-326.143 -57.398)" fill="#99a6ac"/>
        <path id="Tracé_2023" data-name="Tracé 2023" d="M397.685,94.711h0a2.008,2.008,0,0,0,1.48-2.653l-1.116-2.942-4.514,1.209,1.116,2.942a2.56,2.56,0,0,0,3.034,1.444" transform="translate(-240.996 -54.574)" fill="#263a43"/>
        <path id="Tracé_2024" data-name="Tracé 2024" d="M387.59,101.813h0a2.008,2.008,0,0,0,1.48-2.653l-1.116-2.942-4.514,1.209,1.116,2.942a2.56,2.56,0,0,0,3.034,1.444" transform="translate(-234.814 -58.924)" fill="#99a6ac"/>
        <path id="Tracé_2025" data-name="Tracé 2025" d="M169.658,34.761H49L178.724,0H299.38Z" transform="translate(-30.008 -0.002)" fill="#99a6ac"/>
      </g>
    </g>
  </g>
</svg>
