<svg id="Groupe_166" data-name="Groupe 166" xmlns="http://www.w3.org/2000/svg" xmlns:xlink="http://www.w3.org/1999/xlink" width="249.646" height="185.283" viewBox="0 0 249.646 185.283">
  <defs>
    <clipPath id="clip-path">
      <rect id="Rectangle_438" data-name="Rectangle 438" width="249.646" height="185.283" fill="none"/>
    </clipPath>
  </defs>
  <path id="Tracé_1093" data-name="Tracé 1093" d="M200.452,86.107l4.854,143.858H.674V68.541Z" transform="translate(44.106 -44.682)" fill="#fff"/>
  <path id="Tracé_1094" data-name="Tracé 1094" d="M9.5,131.648l201.559,7.221-1.78-52.762L9.5,68.54Z" transform="translate(35.275 -44.682)" fill="#f7c2b6"/>
  <path id="Tracé_1095" data-name="Tracé 1095" d="M633.323,229.966H588.544V86.107l44.779-17.566Z" transform="translate(-588.544 -44.682)" fill="#bcbcbc"/>
  <g id="Groupe_165" data-name="Groupe 165">
    <g id="Groupe_164" data-name="Groupe 164" clip-path="url(#clip-path)">
      <path id="Tracé_1096" data-name="Tracé 1096" d="M258.541,440.355v30.491h26.253V444.188a6.436,6.436,0,0,0-2.393-2.422c-1.8-1.216-4.9-2.585-10.086-3.328-10.731-1.532-13.774,1.917-13.774,1.917" transform="translate(-125.144 -285.566)" fill="#bcbcbc"/>
      <path id="Tracé_1097" data-name="Tracé 1097" d="M368.09,435.225v12.162h26.09V437.251a5.839,5.839,0,0,0-2.377-2.026c-1.794-1.017-4.865-2.162-10.025-2.783-10.663-1.281-13.688,2.783-13.688,2.783" transform="translate(-272.662 -281.75)" fill="#99bccb"/>
      <path id="Tracé_1098" data-name="Tracé 1098" d="M258.541,440.355v1.965c13.533-3.746,22.37,1.359,26.253,4.508v-2.64s-1.747-4.216-12.479-5.75-13.774,1.917-13.774,1.917" transform="translate(-125.144 -285.566)" fill="#767676"/>
      <path id="Tracé_1099" data-name="Tracé 1099" d="M258.541,448.733v29.08h2.393V451.155a6.439,6.439,0,0,0-2.393-2.422" transform="translate(-101.283 -292.533)" fill="#767676"/>
      <path id="Tracé_1100" data-name="Tracé 1100" d="M368.09,435.225V436.7c12.312-6.425,24.729,1.246,24.729,1.246v9.442h1.361V437.251a5.839,5.839,0,0,0-2.377-2.026c-1.794-1.017-4.865-2.162-10.025-2.783-10.663-1.281-13.688,2.783-13.688,2.783" transform="translate(-272.662 -281.75)" fill="#767676"/>
      <path id="Tracé_1101" data-name="Tracé 1101" d="M475.986,435.225v12.162h26.09V437.251a5.839,5.839,0,0,0-2.377-2.026c-1.794-1.017-4.865-2.162-10.025-2.783-10.663-1.281-13.688,2.783-13.688,2.783" transform="translate(-418.116 -281.75)" fill="#99bccb"/>
      <path id="Tracé_1102" data-name="Tracé 1102" d="M475.986,435.225V436.7c12.312-6.425,24.729,1.246,24.729,1.246v9.442h1.361V437.251a5.839,5.839,0,0,0-2.377-2.026c-1.794-1.017-4.865-2.162-10.025-2.783-10.663-1.281-13.688,2.783-13.688,2.783" transform="translate(-418.116 -281.75)" fill="#767676"/>
      <path id="Tracé_1103" data-name="Tracé 1103" d="M51.007,435.225v12.162H77.1V437.251a5.839,5.839,0,0,0-2.377-2.026c-1.794-1.017-4.865-2.162-10.025-2.783-10.663-1.281-13.688,2.783-13.688,2.783" transform="translate(154.794 -281.75)" fill="#99bccb"/>
      <path id="Tracé_1104" data-name="Tracé 1104" d="M51.007,435.225V436.7c12.312-6.425,24.729,1.246,24.729,1.246v9.442H77.1V437.251a5.839,5.839,0,0,0-2.377-2.026c-1.794-1.017-4.865-2.162-10.025-2.783-10.663-1.281-13.688,2.783-13.688,2.783" transform="translate(154.794 -281.75)" fill="#767676"/>
      <path id="Tracé_1105" data-name="Tracé 1105" d="M158.9,435.225v12.162h26.09V437.251a5.839,5.839,0,0,0-2.377-2.026c-1.794-1.017-4.865-2.162-10.025-2.783-10.663-1.281-13.688,2.783-13.688,2.783" transform="translate(9.339 -281.75)" fill="#99bccb"/>
      <path id="Tracé_1106" data-name="Tracé 1106" d="M158.9,435.225V436.7c12.312-6.425,24.729,1.246,24.729,1.246v9.442h1.361V437.251a5.839,5.839,0,0,0-2.377-2.026c-1.794-1.017-4.865-2.162-10.025-2.783-10.663-1.281-13.688,2.783-13.688,2.783" transform="translate(9.339 -281.75)" fill="#767676"/>
      <path id="Tracé_1107" data-name="Tracé 1107" d="M0,394.541,204.865,400.3l-1.244-.935L0,393.606Z" transform="translate(44.781 -256.595)" fill="#bcbcbc"/>
      <rect id="Rectangle_324" data-name="Rectangle 324" width="0.807" height="34.875" transform="translate(136.551 105.839)" fill="#767676"/>
      <path id="Tracé_1108" data-name="Tracé 1108" d="M245.122,340.443h27.125v-32.7l-27.125-1.368Z" transform="translate(-107.926 -199.729)" fill="#bcbcbc"/>
      <path id="Tracé_1109" data-name="Tracé 1109" d="M245.122,304.056l26.314,1.368.79.807-27.1-1.368Z" transform="translate(-107.905 -198.217)" fill="#767676"/>
      <path id="Tracé_1110" data-name="Tracé 1110" d="M251.615,345.442h22.6v-30.69l-22.6-.957Z" transform="translate(-112.159 -204.566)" fill="#99bccb"/>
      <path id="Tracé_1111" data-name="Tracé 1111" d="M251.152,346.965H254.7V316.3l-3.552-.165Z" transform="translate(-92.482 -206.089)" fill="#ccd3d5"/>
      <line id="Ligne_180" data-name="Ligne 180" y2="31.646" transform="translate(150.84 109.23)" fill="none" stroke="#fff" stroke-width="0.464"/>
      <line id="Ligne_181" data-name="Ligne 181" x2="22.604" transform="translate(139.457 124.326)" fill="none" stroke="#fff" stroke-width="0.464"/>
      <path id="Tracé_1112" data-name="Tracé 1112" d="M243.06,364.524h28.428v-.242a.648.648,0,0,0-.648-.647H243.708a.648.648,0,0,0-.648.647Z" transform="translate(-106.448 -237.057)" fill="#565656"/>
      <rect id="Rectangle_325" data-name="Rectangle 325" width="0.589" height="14.479" transform="translate(164.45 127.468)" fill="#565656"/>
      <rect id="Rectangle_326" data-name="Rectangle 326" width="0.589" height="14.479" transform="translate(161.919 127.468)" fill="#565656"/>
      <rect id="Rectangle_327" data-name="Rectangle 327" width="0.589" height="14.479" transform="translate(159.388 127.468)" fill="#565656"/>
      <rect id="Rectangle_328" data-name="Rectangle 328" width="0.589" height="14.479" transform="translate(156.857 127.468)" fill="#565656"/>
      <rect id="Rectangle_329" data-name="Rectangle 329" width="0.589" height="14.479" transform="translate(154.327 127.468)" fill="#565656"/>
      <rect id="Rectangle_330" data-name="Rectangle 330" width="0.589" height="14.479" transform="translate(151.796 127.468)" fill="#565656"/>
      <rect id="Rectangle_331" data-name="Rectangle 331" width="0.589" height="14.479" transform="translate(149.265 127.468)" fill="#565656"/>
      <rect id="Rectangle_332" data-name="Rectangle 332" width="0.589" height="14.479" transform="translate(146.734 127.468)" fill="#565656"/>
      <rect id="Rectangle_333" data-name="Rectangle 333" width="0.589" height="14.479" transform="translate(144.204 127.468)" fill="#565656"/>
      <rect id="Rectangle_334" data-name="Rectangle 334" width="0.589" height="14.479" transform="translate(141.673 127.468)" fill="#565656"/>
      <rect id="Rectangle_335" data-name="Rectangle 335" width="0.589" height="14.479" transform="translate(139.142 127.468)" fill="#565656"/>
      <rect id="Rectangle_336" data-name="Rectangle 336" width="0.589" height="14.479" transform="translate(136.612 127.468)" fill="#565656"/>
      <rect id="Rectangle_337" data-name="Rectangle 337" width="0.807" height="34.875" transform="translate(73.474 104.174)" fill="#767676"/>
      <path id="Tracé_1113" data-name="Tracé 1113" d="M426.329,335.658h27.125v-32.7l-27.125-1.368Z" transform="translate(-352.21 -196.609)" fill="#bcbcbc"/>
      <path id="Tracé_1114" data-name="Tracé 1114" d="M426.33,299.271l26.314,1.368.79.807-27.1-1.368Z" transform="translate(-352.189 -195.097)" fill="#767676"/>
      <path id="Tracé_1115" data-name="Tracé 1115" d="M432.823,340.657h22.6V309.968l-22.6-.957Z" transform="translate(-356.443 -201.447)" fill="#99bccb"/>
      <path id="Tracé_1116" data-name="Tracé 1116" d="M432.36,342.18h3.552V311.512l-3.552-.165Z" transform="translate(-336.766 -202.97)" fill="#ccd3d5"/>
      <line id="Ligne_182" data-name="Ligne 182" y2="31.646" transform="translate(87.763 107.564)" fill="none" stroke="#fff" stroke-width="0.464"/>
      <line id="Ligne_183" data-name="Ligne 183" x2="22.604" transform="translate(76.38 122.661)" fill="none" stroke="#fff" stroke-width="0.464"/>
      <path id="Tracé_1117" data-name="Tracé 1117" d="M424.268,359.739H452.7V359.5a.648.648,0,0,0-.648-.647H424.916a.648.648,0,0,0-.648.647Z" transform="translate(-350.733 -233.937)" fill="#565656"/>
      <rect id="Rectangle_338" data-name="Rectangle 338" width="0.589" height="14.479" transform="translate(101.373 125.802)" fill="#565656"/>
      <rect id="Rectangle_339" data-name="Rectangle 339" width="0.589" height="14.479" transform="translate(98.842 125.802)" fill="#565656"/>
      <rect id="Rectangle_340" data-name="Rectangle 340" width="0.589" height="14.479" transform="translate(96.311 125.802)" fill="#565656"/>
      <rect id="Rectangle_341" data-name="Rectangle 341" width="0.589" height="14.479" transform="translate(93.781 125.802)" fill="#565656"/>
      <rect id="Rectangle_342" data-name="Rectangle 342" width="0.589" height="14.479" transform="translate(91.25 125.802)" fill="#565656"/>
      <rect id="Rectangle_343" data-name="Rectangle 343" width="0.589" height="14.479" transform="translate(88.719 125.802)" fill="#565656"/>
      <rect id="Rectangle_344" data-name="Rectangle 344" width="0.589" height="14.479" transform="translate(86.188 125.802)" fill="#565656"/>
      <rect id="Rectangle_345" data-name="Rectangle 345" width="0.589" height="14.479" transform="translate(83.658 125.802)" fill="#565656"/>
      <rect id="Rectangle_346" data-name="Rectangle 346" width="0.589" height="14.479" transform="translate(81.127 125.802)" fill="#565656"/>
      <rect id="Rectangle_347" data-name="Rectangle 347" width="0.589" height="14.479" transform="translate(78.596 125.802)" fill="#565656"/>
      <rect id="Rectangle_348" data-name="Rectangle 348" width="0.589" height="14.479" transform="translate(76.066 125.802)" fill="#565656"/>
      <rect id="Rectangle_349" data-name="Rectangle 349" width="0.589" height="14.479" transform="translate(73.535 125.802)" fill="#565656"/>
      <rect id="Rectangle_350" data-name="Rectangle 350" width="0.807" height="34.875" transform="translate(199.945 107.748)" fill="#767676"/>
      <path id="Tracé_1118" data-name="Tracé 1118" d="M63,345.927H90.126v-32.7L63,311.859Z" transform="translate(137.59 -203.304)" fill="#bcbcbc"/>
      <path id="Tracé_1119" data-name="Tracé 1119" d="M63,309.54l26.314,1.368.791.807L63,310.347Z" transform="translate(137.611 -201.792)" fill="#767676"/>
      <path id="Tracé_1120" data-name="Tracé 1120" d="M69.494,350.926H92.1v-30.69l-22.6-.957Z" transform="translate(133.358 -208.142)" fill="#99bccb"/>
      <path id="Tracé_1121" data-name="Tracé 1121" d="M69.031,352.449h3.552V321.781l-3.552-.165Z" transform="translate(153.034 -209.664)" fill="#ccd3d5"/>
      <line id="Ligne_184" data-name="Ligne 184" y2="31.646" transform="translate(214.234 111.139)" fill="none" stroke="#fff" stroke-width="0.464"/>
      <line id="Ligne_185" data-name="Ligne 185" x2="22.604" transform="translate(202.852 126.235)" fill="none" stroke="#fff" stroke-width="0.464"/>
      <path id="Tracé_1122" data-name="Tracé 1122" d="M60.939,370.008H89.367v-.242a.648.648,0,0,0-.648-.647H61.587a.648.648,0,0,0-.648.647Z" transform="translate(139.067 -240.632)" fill="#565656"/>
      <rect id="Rectangle_351" data-name="Rectangle 351" width="0.589" height="14.479" transform="translate(227.845 129.377)" fill="#565656"/>
      <rect id="Rectangle_352" data-name="Rectangle 352" width="0.589" height="14.479" transform="translate(225.314 129.377)" fill="#565656"/>
      <rect id="Rectangle_353" data-name="Rectangle 353" width="0.589" height="14.479" transform="translate(222.783 129.377)" fill="#565656"/>
      <rect id="Rectangle_354" data-name="Rectangle 354" width="0.589" height="14.479" transform="translate(220.252 129.377)" fill="#565656"/>
      <rect id="Rectangle_355" data-name="Rectangle 355" width="0.589" height="14.479" transform="translate(217.721 129.377)" fill="#565656"/>
      <rect id="Rectangle_356" data-name="Rectangle 356" width="0.589" height="14.479" transform="translate(215.191 129.377)" fill="#565656"/>
      <rect id="Rectangle_357" data-name="Rectangle 357" width="0.589" height="14.479" transform="translate(212.66 129.377)" fill="#565656"/>
      <rect id="Rectangle_358" data-name="Rectangle 358" width="0.589" height="14.479" transform="translate(210.129 129.377)" fill="#565656"/>
      <rect id="Rectangle_359" data-name="Rectangle 359" width="0.589" height="14.479" transform="translate(207.599 129.377)" fill="#565656"/>
      <rect id="Rectangle_360" data-name="Rectangle 360" width="0.589" height="14.479" transform="translate(205.068 129.377)" fill="#565656"/>
      <rect id="Rectangle_361" data-name="Rectangle 361" width="0.589" height="14.479" transform="translate(202.537 129.377)" fill="#565656"/>
      <rect id="Rectangle_362" data-name="Rectangle 362" width="0.589" height="14.479" transform="translate(200.006 129.377)" fill="#565656"/>
      <path id="Tracé_1123" data-name="Tracé 1123" d="M0,398.152l204.865,5.761v-1.86L0,396.292Z" transform="translate(44.781 -258.346)" fill="#767676"/>
      <path id="Tracé_1124" data-name="Tracé 1124" d="M588.539,401.581l44.781-7.04v-.935l-44.781,7.04Z" transform="translate(-588.539 -256.595)" fill="#ccd3d5"/>
      <path id="Tracé_1125" data-name="Tracé 1125" d="M588.539,405.192l44.781-7.04v-1.859l-44.781,7.04Z" transform="translate(-588.539 -258.346)" fill="#767676"/>
      <path id="Tracé_1126" data-name="Tracé 1126" d="M588.539,255.124l44.781-7.04v-.935l-44.781,7.04Z" transform="translate(-588.539 -161.119)" fill="#ccd3d5"/>
      <path id="Tracé_1127" data-name="Tracé 1127" d="M588.539,258.735l44.781-7.04v-1.859l-44.781,7.04Z" transform="translate(-588.539 -162.87)" fill="#767676"/>
      <path id="Tracé_1128" data-name="Tracé 1128" d="M100.236,164.368h25.8l.777.786H100.236Z" transform="translate(87.94 -107.153)" fill="#f2a392"/>
      <rect id="Rectangle_363" data-name="Rectangle 363" width="0.786" height="34.282" transform="translate(187.391 57.215)" fill="#f2a392"/>
      <rect id="Rectangle_364" data-name="Rectangle 364" width="26.579" height="33.496" transform="translate(188.176 58)" fill="#fbe0db"/>
      <rect id="Rectangle_365" data-name="Rectangle 365" width="22.185" height="31.021" transform="translate(190.385 60.476)" fill="#99bccb"/>
      <rect id="Rectangle_366" data-name="Rectangle 366" width="3.422" height="31.021" transform="translate(209.148 60.476)" fill="#ccd3d5"/>
      <line id="Ligne_186" data-name="Ligne 186" y2="31.021" transform="translate(201.478 60.477)" fill="none" stroke="#fbe0db" stroke-width="0.529"/>
      <line id="Ligne_187" data-name="Ligne 187" x2="22.185" transform="translate(190.373 75.331)" fill="none" stroke="#fbe0db" stroke-width="0.529"/>
      <path id="Tracé_1129" data-name="Tracé 1129" d="M98.265,223.592h27.926v-.226a.648.648,0,0,0-.648-.647H98.913a.648.648,0,0,0-.648.647Z" transform="translate(89.25 -145.192)" fill="#565656"/>
      <rect id="Rectangle_367" data-name="Rectangle 367" width="0.579" height="14.224" transform="translate(214.862 78.4)" fill="#565656"/>
      <rect id="Rectangle_368" data-name="Rectangle 368" width="0.579" height="14.224" transform="translate(212.376 78.4)" fill="#565656"/>
      <rect id="Rectangle_369" data-name="Rectangle 369" width="0.579" height="14.224" transform="translate(209.89 78.4)" fill="#565656"/>
      <rect id="Rectangle_370" data-name="Rectangle 370" width="0.579" height="14.224" transform="translate(207.404 78.4)" fill="#565656"/>
      <rect id="Rectangle_371" data-name="Rectangle 371" width="0.579" height="14.224" transform="translate(204.918 78.4)" fill="#565656"/>
      <rect id="Rectangle_372" data-name="Rectangle 372" width="0.579" height="14.224" transform="translate(202.432 78.4)" fill="#565656"/>
      <rect id="Rectangle_373" data-name="Rectangle 373" width="0.579" height="14.224" transform="translate(199.945 78.4)" fill="#565656"/>
      <rect id="Rectangle_374" data-name="Rectangle 374" width="0.579" height="14.224" transform="translate(197.459 78.4)" fill="#565656"/>
      <rect id="Rectangle_375" data-name="Rectangle 375" width="0.579" height="14.224" transform="translate(194.973 78.4)" fill="#565656"/>
      <rect id="Rectangle_376" data-name="Rectangle 376" width="0.579" height="14.224" transform="translate(192.487 78.4)" fill="#565656"/>
      <rect id="Rectangle_377" data-name="Rectangle 377" width="0.579" height="14.224" transform="translate(190.001 78.4)" fill="#565656"/>
      <rect id="Rectangle_378" data-name="Rectangle 378" width="0.579" height="14.224" transform="translate(187.515 78.4)" fill="#565656"/>
      <path id="Tracé_1130" data-name="Tracé 1130" d="M257.384,158.912h25.8l.777.786H257.384Z" transform="translate(-123.909 -103.596)" fill="#f2a392"/>
      <rect id="Rectangle_379" data-name="Rectangle 379" width="0.786" height="34.282" transform="translate(132.689 55.316)" fill="#f2a392"/>
      <rect id="Rectangle_380" data-name="Rectangle 380" width="26.579" height="33.496" transform="translate(133.475 56.101)" fill="#fbe0db"/>
      <rect id="Rectangle_381" data-name="Rectangle 381" width="22.185" height="31.021" transform="translate(135.684 58.577)" fill="#99bccb"/>
      <rect id="Rectangle_382" data-name="Rectangle 382" width="3.422" height="31.021" transform="translate(154.446 58.577)" fill="#ccd3d5"/>
      <line id="Ligne_188" data-name="Ligne 188" y2="31.021" transform="translate(146.776 58.577)" fill="none" stroke="#fbe0db" stroke-width="0.529"/>
      <line id="Ligne_189" data-name="Ligne 189" x2="22.185" transform="translate(135.671 73.432)" fill="none" stroke="#fbe0db" stroke-width="0.529"/>
      <path id="Tracé_1131" data-name="Tracé 1131" d="M255.413,218.135h27.926v-.226a.648.648,0,0,0-.648-.647H256.061a.648.648,0,0,0-.648.647Z" transform="translate(-122.6 -141.634)" fill="#565656"/>
      <rect id="Rectangle_383" data-name="Rectangle 383" width="0.579" height="14.224" transform="translate(160.16 76.501)" fill="#565656"/>
      <rect id="Rectangle_384" data-name="Rectangle 384" width="0.579" height="14.224" transform="translate(157.674 76.501)" fill="#565656"/>
      <rect id="Rectangle_385" data-name="Rectangle 385" width="0.579" height="14.224" transform="translate(155.188 76.501)" fill="#565656"/>
      <rect id="Rectangle_386" data-name="Rectangle 386" width="0.579" height="14.224" transform="translate(152.702 76.501)" fill="#565656"/>
      <rect id="Rectangle_387" data-name="Rectangle 387" width="0.579" height="14.224" transform="translate(150.216 76.501)" fill="#565656"/>
      <rect id="Rectangle_388" data-name="Rectangle 388" width="0.579" height="14.224" transform="translate(147.73 76.501)" fill="#565656"/>
      <rect id="Rectangle_389" data-name="Rectangle 389" width="0.579" height="14.224" transform="translate(145.244 76.501)" fill="#565656"/>
      <rect id="Rectangle_390" data-name="Rectangle 390" width="0.579" height="14.224" transform="translate(142.757 76.501)" fill="#565656"/>
      <rect id="Rectangle_391" data-name="Rectangle 391" width="0.579" height="14.224" transform="translate(140.271 76.501)" fill="#565656"/>
      <rect id="Rectangle_392" data-name="Rectangle 392" width="0.579" height="14.224" transform="translate(137.785 76.501)" fill="#565656"/>
      <rect id="Rectangle_393" data-name="Rectangle 393" width="0.579" height="14.224" transform="translate(135.299 76.501)" fill="#565656"/>
      <rect id="Rectangle_394" data-name="Rectangle 394" width="0.579" height="14.224" transform="translate(132.813 76.501)" fill="#565656"/>
      <path id="Tracé_1132" data-name="Tracé 1132" d="M461.908,6.617h3.3l-.352-4.6h-2.118Z" transform="translate(-376.345 -1.315)" fill="#78453a"/>
      <path id="Tracé_1133" data-name="Tracé 1133" d="M477.322,5.424h3.3l-.352-4.6h-2.118Z" transform="translate(-397.124 -0.538)" fill="#78453a"/>
      <path id="Tracé_1134" data-name="Tracé 1134" d="M493.625,4.6h3.3L496.57,0h-2.118Z" transform="translate(-419.102 0)" fill="#78453a"/>
      <path id="Tracé_1135" data-name="Tracé 1135" d="M455.043,23.011h16.727V11L455.043,9.725Z" transform="translate(-380.519 -6.34)" fill="#ccd3d5"/>
      <path id="Tracé_1136" data-name="Tracé 1136" d="M507.325,23.01H503.1V11l4.23-1.278Z" transform="translate(-432.802 -6.34)" fill="#bcbcbc"/>
      <path id="Tracé_1137" data-name="Tracé 1137" d="M178.216,35.425h3.3l-.352-4.6h-2.118Z" transform="translate(6.099 -20.096)" fill="#78453a"/>
      <path id="Tracé_1138" data-name="Tracé 1138" d="M193.63,34.233h3.3l-.352-4.6h-2.118Z" transform="translate(-14.681 -19.318)" fill="#78453a"/>
      <path id="Tracé_1139" data-name="Tracé 1139" d="M209.933,33.407h3.3l-.352-4.6h-2.118Z" transform="translate(-36.659 -18.78)" fill="#78453a"/>
      <path id="Tracé_1140" data-name="Tracé 1140" d="M171.35,51.819h16.727V39.811L171.35,38.534Z" transform="translate(1.924 -25.12)" fill="#ccd3d5"/>
      <path id="Tracé_1141" data-name="Tracé 1141" d="M223.632,51.819H219.4V39.811l4.23-1.278Z" transform="translate(-50.358 -25.12)" fill="#bcbcbc"/>
      <path id="Tracé_1142" data-name="Tracé 1142" d="M426.74,153.889h25.8l.777.786H426.74Z" transform="translate(-352.216 -100.321)" fill="#f2a392"/>
      <rect id="Rectangle_395" data-name="Rectangle 395" width="0.786" height="34.282" transform="translate(73.738 53.567)" fill="#f2a392"/>
      <rect id="Rectangle_396" data-name="Rectangle 396" width="26.579" height="33.496" transform="translate(74.523 54.353)" fill="#fbe0db"/>
      <rect id="Rectangle_397" data-name="Rectangle 397" width="22.185" height="31.021" transform="translate(76.732 56.829)" fill="#99bccb"/>
      <rect id="Rectangle_398" data-name="Rectangle 398" width="3.422" height="31.021" transform="translate(95.495 56.829)" fill="#ccd3d5"/>
      <line id="Ligne_190" data-name="Ligne 190" y2="31.021" transform="translate(87.825 56.829)" fill="none" stroke="#fbe0db" stroke-width="0.529"/>
      <line id="Ligne_191" data-name="Ligne 191" x2="22.185" transform="translate(76.72 71.684)" fill="none" stroke="#fbe0db" stroke-width="0.529"/>
      <path id="Tracé_1143" data-name="Tracé 1143" d="M424.768,213.112h27.927v-.226a.648.648,0,0,0-.648-.647h-26.63a.648.648,0,0,0-.648.647Z" transform="translate(-350.906 -138.36)" fill="#565656"/>
      <rect id="Rectangle_399" data-name="Rectangle 399" width="0.579" height="14.224" transform="translate(101.209 74.752)" fill="#565656"/>
      <rect id="Rectangle_400" data-name="Rectangle 400" width="0.579" height="14.224" transform="translate(98.723 74.752)" fill="#565656"/>
      <rect id="Rectangle_401" data-name="Rectangle 401" width="0.579" height="14.224" transform="translate(96.237 74.752)" fill="#565656"/>
      <rect id="Rectangle_402" data-name="Rectangle 402" width="0.579" height="14.224" transform="translate(93.751 74.752)" fill="#565656"/>
      <rect id="Rectangle_403" data-name="Rectangle 403" width="0.579" height="14.224" transform="translate(91.265 74.752)" fill="#565656"/>
      <rect id="Rectangle_404" data-name="Rectangle 404" width="0.579" height="14.224" transform="translate(88.778 74.752)" fill="#565656"/>
      <rect id="Rectangle_405" data-name="Rectangle 405" width="0.579" height="14.224" transform="translate(86.292 74.752)" fill="#565656"/>
      <rect id="Rectangle_406" data-name="Rectangle 406" width="0.579" height="14.224" transform="translate(83.806 74.752)" fill="#565656"/>
      <rect id="Rectangle_407" data-name="Rectangle 407" width="0.579" height="14.224" transform="translate(81.32 74.752)" fill="#565656"/>
      <rect id="Rectangle_408" data-name="Rectangle 408" width="0.579" height="14.224" transform="translate(78.834 74.752)" fill="#565656"/>
      <rect id="Rectangle_409" data-name="Rectangle 409" width="0.579" height="14.224" transform="translate(76.348 74.752)" fill="#565656"/>
      <rect id="Rectangle_410" data-name="Rectangle 410" width="0.579" height="14.224" transform="translate(73.862 74.752)" fill="#565656"/>
      <path id="Tracé_1144" data-name="Tracé 1144" d="M5.719,248.084l202.875,5.658-1.244-.935L5.719,247.149Z" transform="translate(39.062 -161.119)" fill="#bcbcbc"/>
      <path id="Tracé_1145" data-name="Tracé 1145" d="M5.719,251.695l202.875,5.658v-1.859L5.719,249.835Z" transform="translate(39.062 -162.87)" fill="#767676"/>
      <rect id="Rectangle_411" data-name="Rectangle 411" width="9.194" height="3.176" transform="translate(52.348 42.445)" fill="#fbe0db"/>
      <rect id="Rectangle_412" data-name="Rectangle 412" width="9.194" height="3.176" transform="translate(57.238 45.621)" fill="#f2a392"/>
      <rect id="Rectangle_413" data-name="Rectangle 413" width="9.194" height="3.176" transform="translate(155.852 43.231)" fill="#fbe0db"/>
      <rect id="Rectangle_414" data-name="Rectangle 414" width="9.194" height="3.176" transform="translate(160.742 46.408)" fill="#f2a392"/>
      <rect id="Rectangle_415" data-name="Rectangle 415" width="9.194" height="3.176" transform="translate(54.793 76.5)" fill="#fbe0db"/>
      <rect id="Rectangle_416" data-name="Rectangle 416" width="9.194" height="3.176" transform="translate(53.551 79.677)" fill="#f2a392"/>
      <rect id="Rectangle_417" data-name="Rectangle 417" width="9.194" height="3.176" transform="translate(226.52 66.37)" fill="#fbe0db"/>
      <rect id="Rectangle_418" data-name="Rectangle 418" width="9.194" height="3.176" transform="translate(225.278 69.547)" fill="#f2a392"/>
      <rect id="Rectangle_419" data-name="Rectangle 419" width="9.194" height="3.176" transform="translate(110.537 55.627)" fill="#fbe0db"/>
      <rect id="Rectangle_420" data-name="Rectangle 420" width="9.194" height="3.176" transform="translate(115.427 58.803)" fill="#f2a392"/>
      <rect id="Rectangle_421" data-name="Rectangle 421" width="9.194" height="3.176" transform="translate(112.982 52.451)" fill="#f2a392"/>
      <rect id="Rectangle_422" data-name="Rectangle 422" width="9.194" height="3.176" transform="translate(110.537 107.642)" fill="#767676"/>
      <rect id="Rectangle_423" data-name="Rectangle 423" width="9.194" height="3.176" transform="translate(115.427 110.818)" fill="#ccd3d5"/>
      <rect id="Rectangle_424" data-name="Rectangle 424" width="9.194" height="3.176" transform="translate(112.982 104.465)" fill="#ccd3d5"/>
      <rect id="Rectangle_425" data-name="Rectangle 425" width="9.194" height="3.176" transform="translate(173.133 75.938)" fill="#fbe0db"/>
      <rect id="Rectangle_426" data-name="Rectangle 426" width="9.194" height="3.176" transform="translate(168.243 79.114)" fill="#f2a392"/>
      <rect id="Rectangle_427" data-name="Rectangle 427" width="9.194" height="3.176" transform="translate(170.688 72.762)" fill="#f2a392"/>
      <path id="Tracé_1146" data-name="Tracé 1146" d="M14.618,51.673,214.4,62.119,190.279,39.41,23.39,31.745Z" transform="translate(30.161 -20.695)" fill="#78453a"/>
      <path id="Tracé_1147" data-name="Tracé 1147" d="M608.124,51.673,563.345,62.119l34.439-22.326L616.9,31.745Z" transform="translate(-563.345 -20.695)" fill="#5a3932"/>
      <path id="Tracé_1148" data-name="Tracé 1148" d="M612.376,198.916l2.268-.357,9.655-1.521V168.28l-11.433,3.586Z" transform="translate(-587.816 -109.703)" fill="#767676"/>
      <path id="Tracé_1149" data-name="Tracé 1149" d="M671.645,208.155l2.268-.357,9.655-1.521V177.52l-11.433,3.586Z" transform="translate(-667.717 -115.727)" fill="#767676"/>
      <path id="Tracé_1150" data-name="Tracé 1150" d="M612.376,345.286l2.268-.357,9.655-1.521V314.651l-11.433,3.586Z" transform="translate(-587.816 -205.124)" fill="#767676"/>
      <path id="Tracé_1151" data-name="Tracé 1151" d="M671.645,354.526l2.268-.357,9.655-1.521V323.891l-11.433,3.586Z" transform="translate(-667.717 -211.147)" fill="#767676"/>
      <rect id="Rectangle_428" data-name="Rectangle 428" width="9.194" height="3.176" transform="translate(50.098 126.578)" fill="#767676"/>
      <rect id="Rectangle_429" data-name="Rectangle 429" width="9.194" height="3.176" transform="translate(52.543 123.402)" fill="#ccd3d5"/>
      <rect id="Rectangle_430" data-name="Rectangle 430" width="9.194" height="3.176" transform="translate(186.667 105.839)" fill="#767676"/>
      <rect id="Rectangle_431" data-name="Rectangle 431" width="9.194" height="3.176" transform="translate(189.112 102.663)" fill="#ccd3d5"/>
      <rect id="Rectangle_432" data-name="Rectangle 432" width="9.194" height="3.176" transform="translate(197.307 178.257)" fill="#767676"/>
      <rect id="Rectangle_433" data-name="Rectangle 433" width="9.194" height="3.176" transform="translate(199.752 175.081)" fill="#ccd3d5"/>
      <rect id="Rectangle_434" data-name="Rectangle 434" width="9.194" height="3.176" transform="translate(40.903 172.892)" fill="#767676"/>
      <rect id="Rectangle_435" data-name="Rectangle 435" width="9.194" height="3.176" transform="translate(43.348 169.715)" fill="#ccd3d5"/>
      <rect id="Rectangle_436" data-name="Rectangle 436" width="9.194" height="3.176" transform="translate(233.423 135.604)" fill="#767676"/>
      <rect id="Rectangle_437" data-name="Rectangle 437" width="9.194" height="3.176" transform="translate(235.868 132.428)" fill="#ccd3d5"/>
    </g>
  </g>
</svg>
