<svg id="Groupe_205" data-name="Groupe 205" xmlns="http://www.w3.org/2000/svg" xmlns:xlink="http://www.w3.org/1999/xlink" width="92.61" height="188.449" viewBox="0 0 92.61 188.449">
  <defs>
    <clipPath id="clip-path">
      <rect id="Rectangle_572" data-name="Rectangle 572" width="92.61" height="188.449" fill="none"/>
    </clipPath>
  </defs>
  <path id="Tracé_2045" data-name="Tracé 2045" d="M48.985,428.338H39.113V408.83H49.862Z" transform="translate(-23.948 -250.32)" fill="#f7a881"/>
  <g id="Groupe_204" data-name="Groupe 204">
    <g id="Groupe_203" data-name="Groupe 203" clip-path="url(#clip-path)">
      <path id="Tracé_2046" data-name="Tracé 2046" d="M24.21,450.53H17.405a12.819,12.819,0,0,0-6.354,1.69l-9.9,5.645a2.334,2.334,0,0,0-1.017,2.812c.33.92,1.191,1.526,3.227,2.588l21.966-.4c.143-1.1,1.124-2.128,1.124-3.385v-6.644a2.276,2.276,0,0,0-2.245-2.305" transform="translate(0 -275.853)" fill="#333"/>
      <path id="Tracé_2047" data-name="Tracé 2047" d="M43.3,302.839H28.123l-1.316-88.391H44.62Z" transform="translate(-16.413 -131.304)" fill="#004d40"/>
      <path id="Tracé_2048" data-name="Tracé 2048" d="M95.544,428.338h9.872l-1.973-19.508H92.693Z" transform="translate(-56.754 -250.32)" fill="#f7a881"/>
      <path id="Tracé_2049" data-name="Tracé 2049" d="M77.039,304.052H92.22l-5.273-89.6H69.134Z" transform="translate(-42.33 -131.303)" fill="#004d40"/>
      <rect id="Rectangle_568" data-name="Rectangle 568" width="10.584" height="12.115" transform="translate(24.302 29.5)" fill="#eba07b"/>
      <path id="Tracé_2050" data-name="Tracé 2050" d="M26.807,206.527l34.921-.356L57.374,225.4l-22.686,1.64Z" transform="translate(-16.414 -126.236)" fill="#004d40"/>
      <path id="Tracé_2051" data-name="Tracé 2051" d="M3.543,242.448a5.316,5.316,0,0,0,5.244,5.385,5.387,5.387,0,0,0,0-10.77,5.316,5.316,0,0,0-5.244,5.385" transform="translate(-2.169 -145.15)" fill="#f7a881"/>
      <path id="Tracé_2052" data-name="Tracé 2052" d="M16.46,93.657a11.806,11.806,0,0,0-5.449,6.747c-1.572,6.353-5.17,21.053-5.821,25.124-.9,5.635-3.142,26.006-2.923,26.679s10.5-2.242,10.5-2.242,2.469-19.811,2.469-20.932,3.29-23.5,3.618-24.4S25.944,92.044,21.9,92.35a12.665,12.665,0,0,0-5.444,1.308" transform="translate(-1.379 -56.541)" fill="#468e83"/>
      <path id="Tracé_2053" data-name="Tracé 2053" d="M48.585,32.475c.337,2.769,2.812,10.2,9,11.644,0,0,2.746,1.042,7.145-4.784a13.358,13.358,0,0,0,2.926-6.546,71.241,71.241,0,0,0,0-8.085c-.282-3.084-.451-7.87-7.652-8.752s-9.621,2.707-10.352,4.28-1.407,9.473-1.069,12.242" transform="translate(-29.693 -9.684)" fill="#f7a881"/>
      <path id="Tracé_2054" data-name="Tracé 2054" d="M86.482,447.831l-6.773.661a12.817,12.817,0,0,0-6.159,2.3l-9.3,6.58a2.334,2.334,0,0,0-.738,2.9c.418.884,1.334,1.4,3.363,2.372L88.7,460.109c.136-1.222,1.013-2.338.89-3.589l-.646-6.613a2.276,2.276,0,0,0-2.458-2.076" transform="translate(-38.748 -274.194)" fill="#333"/>
      <path id="Tracé_2055" data-name="Tracé 2055" d="M36.182,91.882l5-.5a6.4,6.4,0,0,0,10.584,0h2.745A11.345,11.345,0,0,1,65.6,104.084L62.055,137.2c-.363,4-1.25,4.234-5.715,4.038a75.418,75.418,0,0,0-9.655.2l-11.66.989c-5.979,0-7.206-.391-7.456-6.526l3.514-30.991c-.264-6.507,3.479-12.854,5.1-13.027" transform="translate(-16.88 -55.95)" fill="#67d0c0"/>
      <path id="Tracé_2056" data-name="Tracé 2056" d="M117.627,240.4a5.246,5.246,0,1,1-5.244-5.385,5.316,5.316,0,0,1,5.244,5.385" transform="translate(-65.6 -143.899)" fill="#f7a881"/>
      <path id="Tracé_2057" data-name="Tracé 2057" d="M104.277,93.345a12.525,12.525,0,0,1,5.616,7.99c1.57,6.334,4.589,18.692,5.2,22.53.9,5.635-2.693,27.089-2.911,27.762s-10.5-2.242-10.5-2.242,2.515-20.894,2.515-22.016,1.064-18.142-.616-23.323a58.408,58.408,0,0,0-5.344-12.527c2.472-.5,4.092.651,6.036,1.827" transform="translate(-60.151 -55.961)" fill="#468e83"/>
      <rect id="Rectangle_569" data-name="Rectangle 569" width="5.582" height="18.534" transform="translate(9.073 175.092) rotate(-87.248)" fill="#003a30"/>
      <rect id="Rectangle_570" data-name="Rectangle 570" width="18.534" height="5.582" transform="translate(33.033 169.958)" fill="#003a30"/>
      <path id="Tracé_2058" data-name="Tracé 2058" d="M49.708,15.291c.383.421-1.091,2.388-2.187,3.532-.74.773-2.933,3.062-4.037,2.523-1.226-.6-1.279-4.76.673-7.57,2.433-3.5,7.185-3.757,9.252-3.869,2.284-.123,7.836-.423,10.934,3.532,2.869,3.664,2.614,9.677.5,10.766-1.349.7-2.585-1.074-7.233-3.2C51.237,18.1,46.7,18.3,46.68,16.973c-.019-1.015,2.623-2.127,3.028-1.682" transform="translate(-26.094 -6.03)" fill="#ffd602"/>
      <path id="Tracé_2059" data-name="Tracé 2059" d="M137.752,429.026H127.032v-19.48h11.673Z" transform="translate(-77.78 -250.759)" fill="#f7a881"/>
      <path id="Tracé_2060" data-name="Tracé 2060" d="M110.847,451.186h-7.391a14.869,14.869,0,0,0-6.9,1.688l-10.748,5.637a2.245,2.245,0,0,0-1.1,2.808,2.44,2.44,0,0,0,2.331,1.506l23.855-.4a2.37,2.37,0,0,0,2.395-2.3v-6.635a2.373,2.373,0,0,0-2.438-2.3" transform="translate(-51.771 -276.254)" fill="#005a7d"/>
      <path id="Tracé_2061" data-name="Tracé 2061" d="M131.822,300.549H115.334l-1.667-85.107h19.345Z" transform="translate(-69.597 -131.912)" fill="#005a7d"/>
      <path id="Tracé_2062" data-name="Tracé 2062" d="M188.316,429.026h10.721l-2.143-19.48H185.221Z" transform="translate(-113.408 -250.759)" fill="#f7a881"/>
      <path id="Tracé_2063" data-name="Tracé 2063" d="M168.017,300.549H184.5l-5.525-85.107H159.635Z" transform="translate(-97.742 -131.912)" fill="#005a7d"/>
      <path id="Tracé_2064" data-name="Tracé 2064" d="M151.681,3.118a5.241,5.241,0,0,1,3.04.985,7.714,7.714,0,0,1,2.488,2.617c1.116,1.884.549,2.576,1.413,4.464,1.142,2.5,2.507,2.1,3.224,4.033.888,2.393-1.086,3.31-.829,6.8.228,3.092,1.85,3.42,1.75,6.281-.086,2.486-1.328,2.687-1.627,5.049-.492,3.88,2.638,5.063,2.671,8.744.03,3.239-2.347,7.39-6.265,8.312-3.824.9-9.964-3.206-11.524-6-.75-1.341-13.46-1.418-12.155-8.361,2.065-10.987,7.667-12.384,6.211-15.744-1.888-4.356,4.432-4.49,4.018-8.321-.4-3.685,3.968-7.078,4.606-7.574a5.075,5.075,0,0,1,2.979-1.293" transform="translate(-81.907 -1.907)" fill="#b4523c"/>
      <rect id="Rectangle_571" data-name="Rectangle 571" width="11.494" height="12.097" transform="translate(59.176 29.962)" fill="#eba07b"/>
      <path id="Tracé_2065" data-name="Tracé 2065" d="M120.806,92.548h4.92a7.3,7.3,0,0,0,11.494,0H140.2c7.215,0,12.83,5.917,12.042,12.688l-3.85,33.067c-.675,5.8-5.368,3.831-11.547,3.831l-13.947.178c-6.494,0-6.322.82-6.593-5.306l-7.6-32.542c-.288-6.5,5.215-11.916,12.1-11.916" transform="translate(-66.55 -56.666)" fill="#ffd602"/>
      <path id="Tracé_2066" data-name="Tracé 2066" d="M113.667,207.532l37.925-.355-4.729,19.2-24.638,1.637Z" transform="translate(-69.597 -126.851)" fill="#005a7d"/>
      <path id="Tracé_2067" data-name="Tracé 2067" d="M119.15,91.363l-2.061.073c-6.074.216-10.89,4.91-10.925,10.649,0,0,1.5,19.279,1.755,24.853S105.03,145.2,105.03,145.2l19.841,3.558a236.112,236.112,0,0,1-2.331-29.824c-.255-16.668-3.39-27.575-3.39-27.575" transform="translate(-64.308 -55.94)" fill="#002d3f"/>
      <path id="Tracé_2068" data-name="Tracé 2068" d="M184.4,91.363l2.061.073c8.766-.533,10.89,4.91,10.925,10.649,0,0-2.012,16.646-1.419,25.327a46.5,46.5,0,0,0,3.6,15.079l-18.52,5.734s.189-12.62.443-29.288S184.4,91.363,184.4,91.363" transform="translate(-110.851 -55.94)" fill="#002d3f"/>
      <path id="Tracé_2069" data-name="Tracé 2069" d="M88.4,243.4a5.7,5.7,0,1,0,5.7-5.377,5.543,5.543,0,0,0-5.7,5.377" transform="translate(-54.127 -145.739)" fill="#f7a881"/>
      <path id="Tracé_2070" data-name="Tracé 2070" d="M96.374,101.135s-6.21,22.81-7.12,28.042c-.979,5.627-2.488,25.968-2.251,26.64s11.4-2.239,11.4-2.239,2.681-19.782,2.681-20.9,3.573-23.468,3.929-24.364,2.374-7.709-1.362-9.846c-5.026-2.873-7.277,2.669-7.277,2.669" transform="translate(-53.255 -59.783)" fill="#002d3f"/>
      <path id="Tracé_2071" data-name="Tracé 2071" d="M212.3,241.361a5.7,5.7,0,1,1-5.7-5.377,5.543,5.543,0,0,1,5.7,5.377" transform="translate(-123.014 -144.489)" fill="#f7a881"/>
      <path id="Tracé_2072" data-name="Tracé 2072" d="M205.9,99.094s5.895,22.519,6.8,27.751c.979,5.627-2.925,27.05-3.161,27.722s-11.4-2.239-11.4-2.239,2.732-20.865,2.732-21.984-3.258-23.177-3.614-24.073-2.374-7.709,1.362-9.846c5.026-2.873,7.277,2.669,7.277,2.669" transform="translate(-120.25 -58.534)" fill="#002d3f"/>
      <path id="Tracé_2073" data-name="Tracé 2073" d="M122.75,71.716c1.009-.731,2.926-.247,4.054.8,1.015.942,1.181,2.386,1.474,5.234a16.848,16.848,0,0,1-.123,6.034,8.084,8.084,0,0,1-1.72,3.941,7.31,7.31,0,0,1-3.808,2.155,9,9,0,0,1-5.036-.185,13.087,13.087,0,0,1-.092-5.819c.983-4.439,3.849-5.257,4.391-9.791.1-.83.127-1.839.86-2.37" transform="translate(-71.771 -43.696)" fill="#b4523c"/>
      <path id="Tracé_2074" data-name="Tracé 2074" d="M138.114,33.73c.356,2.766,2.965,10.182,9.487,11.628,0,0,2.894,1.041,7.53-4.777,2.906-3.646,3.083-6.536,3.083-6.536a67.329,67.329,0,0,0,0-8.074c-.3-3.08-.475-7.859-8.064-8.739s-10.139,2.7-10.91,4.274-1.483,9.459-1.127,12.225" transform="translate(-84.507 -10.467)" fill="#f7a881"/>
      <path id="Tracé_2075" data-name="Tracé 2075" d="M113.34,14.129c.078-.451.214-1.092.247-1.478a4.924,4.924,0,0,1,.095-.6c.012-.056.028-.114.049-.189a16.78,16.78,0,0,1,3.405-5.894A18.034,18.034,0,0,1,127.918.164,17.806,17.806,0,0,1,137.193,1.4c-5.338,3.228-6.486,5.5-6.449,7.02a3.73,3.73,0,0,1-.184,1.786c-.57,1.367-1.833,1.409-3.624,3.079-1.014.946-.727,1.043-1.72,1.97-1.874,1.751-2.871,1.339-3.746,2.34-1.767,2.02,1.2,4.9-.246,8.867-.849,2.326-2.115,2.011-2.825,4.372-.983,3.272,1.29,4.406.369,7.081-.928,2.7-3.591,2.577-5.651,6.4a12.173,12.173,0,0,0-1.105,2.894c-3.1-.956-3.827-1.927-3.9-2.648-.161-1.588,2.761-2.812,2.549-5.172-.01-.12-.13-.511-.368-1.293-.678-2.222-.96-2.483-1.167-3.51a4.592,4.592,0,0,1,.062-3.14c.654-1.249,1.882-1.163,2.559-2.6a4.546,4.546,0,0,0,.328-1.707c.167-2.622-1.055-2.85-.614-5.3.366-2.034,1.279-2.249,1.535-4.618.066-.6.16-2.011.346-3.092" transform="translate(-66.191 0)" fill="#f06d50"/>
      <path id="Tracé_2076" data-name="Tracé 2076" d="M178.475,448.491l-7.355.66a14.683,14.683,0,0,0-6.689,2.3l-10.1,6.571a2.218,2.218,0,0,0-.8,2.893,2.486,2.486,0,0,0,2.479,1.29l23.7-2.531a2.324,2.324,0,0,0,2.14-2.5l-.7-6.6a2.42,2.42,0,0,0-2.67-2.073" transform="translate(-93.852 -274.598)" fill="#005a7d"/>
      <path id="Tracé_2077" data-name="Tracé 2077" d="M198.858,127.531c0-.048-.005-.093-.01-.138s-.009-.086-.014-.125c0-.005,0-.01,0-.016l0-.007v0c-.005-.041-.012-.079-.017-.117-.016-.086-.035-.17-.059-.263-.01-.038-.019-.074-.031-.108l-.007-.024c-.014-.046-.029-.1-.047-.142l-.01-.031,0-.031a3.241,3.241,0,0,0,.031-.438c0-.045,0-.09,0-.134s-.005-.088-.009-.131-.009-.086-.016-.127-.01-.086-.019-.125-.016-.09-.024-.129-.021-.089-.031-.132c-.028-.091-.052-.167-.076-.235-.014-.036-.026-.072-.042-.108a1.079,1.079,0,0,0-.043-.1,3.486,3.486,0,0,0-.16-.311c-.019-.033-.038-.064-.059-.095a3.069,3.069,0,0,0-.692-.756c-.029-.022-.059-.045-.09-.065s-.064-.047-.094-.065c-.067-.045-.133-.085-.2-.122l-.028-.014-.036-.021c-.048-.024-.1-.052-.158-.076l-.022-.01c-.021-.01-.042-.019-.064-.028-.04-.017-.074-.031-.11-.045l-.108-.038-.105-.033a3.474,3.474,0,0,0-.486-.1l-.107-.009c-.034,0-.065-.005-.1-.007h-.141c-.064,0-.127,0-.187.005-.117.005-.237.016-.357.033l-.009,0h-.009a.247.247,0,0,1-.04.007l-.038.007c-.052.007-.1.017-.143.026l-.014,0h-.005c-.048.01-.1.021-.146.035s-.095.024-.138.038l-.067.021-.067.019-.016.007-.021.007-.028.01c-.031.01-.062.021-.091.033-.083.031-.15.059-.21.088l-.024.01c-.035.014-.069.029-.1.047a3.432,3.432,0,0,0-.447.259c-.05.033-.1.064-.141.1s-.074.055-.108.082c-.057.041-.108.086-.168.139-.036.033-.071.062-.1.095l-.005.005-.007.005a.07.07,0,0,0-.017.017c-.033.029-.062.059-.089.088-.01.012-.019.019-.026.029l-.007.007c-.031.031-.06.062-.086.093a3.782,3.782,0,0,0-.615.938c-.022.043-.038.079-.053.115s-.038.088-.055.136-.028.069-.038.1l-.017.052-.019.057s-.005.016-.009.026-.005.016-.007.024c-.017.05-.027.095-.039.139v.005l0,.005a.028.028,0,0,0,0,.01l0,.007,0,.007c-.014.05-.024.1-.034.148l0,.005v.007a.04.04,0,0,0-.005.021l0,0v.005a.985.985,0,0,0-.019.108l0,.009,0,.007a.7.7,0,0,0-.014.086c-.014.1-.024.182-.029.261,0,.041-.005.076-.007.112,0,.062,0,.122,0,.184a3.86,3.86,0,0,0,.019.4c.005.045.01.088.017.133.012.091.026.179.045.263.009.043.019.084.028.124s.012.053.019.077a.632.632,0,0,0,.022.072l0,.005v.005c.009.035.021.069.031.1l.009.031c0,.007.005.014.007.019.021.059.038.112.06.163l0,.005,0,0c0,.009.005.014.007.021.019.053.041.1.062.146l.01.026c.026.055.052.11.079.165l.012.021,0,.005,0,0c.022.047.045.088.071.133l0,0,0,.005.022.043c.019.033.041.066.062.1a.718.718,0,0,0,.047.071c.033.052.064.1.095.139s.064.084.1.125c.048.062.1.122.153.182.036.043.074.083.113.122l.041.045c.043.04.083.078.122.115l.134.117c.045.038.089.074.134.109s.069.05.1.072a1.966,1.966,0,0,0,.189.129c.04.026.077.048.113.071l.131.072c.033.019.062.035.091.048.047.022.088.043.129.06l.022.01h0c.045.021.094.041.146.062s.1.04.151.057l.028.01.027.009.054.017.055.017a1.082,1.082,0,0,0,.107.031h.007l.007,0,.036.01c.062.016.118.029.179.04s.108.022.163.031a3.9,3.9,0,0,0,.622.05c.052,0,.1,0,.153-.005s.117-.007.174-.012.083-.009.122-.016.067-.009.094-.014c.048-.009.088-.017.127-.026a1.21,1.21,0,0,0,.121-.028c.055-.014.1-.027.148-.043s.07-.021.1-.033.055-.021.079-.031c.043-.016.078-.028.112-.043s.082-.035.12-.053a3.254,3.254,0,0,0,.411-.232l.1-.072a3.154,3.154,0,0,0,.447-.392l.065-.071c.028-.031.053-.064.079-.093s.059-.073.086-.11c.014-.021.031-.041.048-.064.052-.074.095-.139.132-.2l.01-.019c.019-.033.04-.066.057-.1s.036-.066.052-.1a2.779,2.779,0,0,0,.129-.29c.014-.035.026-.069.038-.1l.01-.029c.012-.035.024-.069.033-.105l0-.005,0-.007a.235.235,0,0,0,.012-.038l0-.01c.009-.029.016-.058.023-.089l0,0v-.005l0-.009,0-.01c.01-.048.019-.091.028-.134s.015-.089.022-.136c0-.014,0-.029.007-.047s0-.034.005-.053a.457.457,0,0,0,.007-.053c.005-.047.009-.093.01-.138s.005-.112.005-.165,0-.1,0-.143m-3.242,1.342-.144-.017a1.333,1.333,0,0,1-.148-.026l-.11-.029a.442.442,0,0,1-.062-.022.209.209,0,0,1-.031-.01,1.469,1.469,0,0,1-.288-.143.453.453,0,0,1-.077-.054c-.033-.022-.067-.048-.1-.076s-.081-.074-.122-.115a.49.49,0,0,1-.06-.067c-.021-.024-.038-.045-.053-.066a.7.7,0,0,1-.052-.069,1.119,1.119,0,0,1-.079-.129,1.494,1.494,0,0,1-.175-.48.856.856,0,0,1-.017-.115.216.216,0,0,1,0-.04,1.163,1.163,0,0,1-.007-.139,1.6,1.6,0,0,1,1.385-1.577l.146-.021Zm0-3.416-.117.012a1.811,1.811,0,0,0-1.639,1.809c0,.033,0,.064,0,.1a.793.793,0,0,0,.009.095c0,.04.009.074.014.107a.708.708,0,0,0,.015.079,1.838,1.838,0,0,0,.554.967c.034.033.07.06.1.084l.014.01.005,0,.005.005a1.7,1.7,0,0,0,.225.146c.038.021.076.04.114.058l.017.007a2.049,2.049,0,0,0,.27.1c.052.014.1.026.149.035s.1.016.148.021l.117.012v.71l-.143-.012c-.035,0-.069-.007-.1-.012l-.043-.005-.033-.005a.224.224,0,0,1-.045-.009.76.76,0,0,1-.086-.016l-.014,0a.849.849,0,0,1-.091-.021l-.017,0a2.941,2.941,0,0,1-.308-.1c-.033-.014-.065-.026-.1-.041l-.1-.048a2.516,2.516,0,0,1-.447-.287c-.028-.021-.055-.043-.083-.067s-.052-.045-.076-.069a2.556,2.556,0,0,1-.534-.72c-.017-.035-.033-.069-.048-.105a1.8,1.8,0,0,1-.083-.209c-.009-.026-.019-.055-.026-.086a.4.4,0,0,1-.022-.074,1.081,1.081,0,0,1-.031-.127l-.016-.079c0-.022-.01-.053-.014-.085a2.473,2.473,0,0,1-.026-.366,2.558,2.558,0,0,1,2.341-2.536l.141-.01Zm0-.969-.122.009a2.775,2.775,0,0,0-2.586,2.763,2.618,2.618,0,0,0,.029.408.726.726,0,0,0,.015.081v.007l0,.007a.588.588,0,0,0,.014.072,1.139,1.139,0,0,0,.028.115c.009.041.019.077.029.112s.022.072.036.1l0,.01,0,.009a.177.177,0,0,0,.014.035l0,.009,0,.009a1.117,1.117,0,0,0,.045.115c.017.043.038.084.057.122s.033.067.048.095a2.5,2.5,0,0,0,.163.266c.026.036.05.071.076.1s.053.069.081.1l.021.026c.054.062.108.119.167.175a2.833,2.833,0,0,0,.373.307c.031.021.064.041.1.064a2.314,2.314,0,0,0,.218.124c.036.019.067.035.1.048s.076.034.113.048.059.024.085.034l.024.009c.048.016.1.033.154.048l.043.012.048.012a2.74,2.74,0,0,0,.292.058l.04.005.038.005.126.01.119.009,0,.12v.479l-.136-.007c-.081-.005-.151-.01-.215-.019-.047-.005-.095-.012-.143-.019a1.279,1.279,0,0,1-.132-.024.9.9,0,0,1-.117-.024h-.027l-.014-.009-.016,0c-.031-.007-.062-.016-.093-.024a2.7,2.7,0,0,1-.282-.089c-.047-.016-.093-.033-.141-.053a3.747,3.747,0,0,1-.5-.247l-.036-.022c-.031-.021-.064-.04-.093-.062a1.12,1.12,0,0,1-.118-.079c-.043-.031-.093-.069-.155-.117-.031-.024-.062-.051-.095-.079-.012-.009-.024-.021-.036-.031l-.019-.016c-.055-.048-.1-.091-.146-.136s-.082-.084-.124-.131a1.74,1.74,0,0,1-.129-.148,1.636,1.636,0,0,1-.107-.134l-.005-.005,0,0-.005-.007q-.054-.069-.108-.155a1.4,1.4,0,0,1-.083-.132c-.009-.012-.016-.024-.022-.034l-.007-.01c-.052-.088-.095-.168-.134-.253a.513.513,0,0,1-.029-.062l-.012-.026c-.01-.021-.019-.043-.028-.064-.017-.036-.031-.072-.045-.106s-.038-.095-.055-.148-.033-.1-.048-.153c-.01-.036-.023-.072-.031-.112s-.021-.081-.029-.119a.076.076,0,0,1-.005-.026,1.59,1.59,0,0,1-.036-.186c-.007-.04-.016-.089-.021-.141l-.005-.041-.005-.041v-.016a.138.138,0,0,1,0-.023c-.005-.052-.009-.1-.01-.154s-.005-.119-.005-.179a3.668,3.668,0,0,1,3.466-3.662l.138-.007Zm.225-1.191.141.014c.065.007.131.017.2.031l.115.024.1.024c.029.007.059.017.088.026a2.66,2.66,0,0,1,.584.254c.059.035.108.066.156.1l.021.016c.029.019.057.038.084.058a1.929,1.929,0,0,1,.156.126c.026.022.053.045.079.069s.024.024.036.035l.035.033c.026.024.05.052.074.077s.028.028.043.045.016.019.022.028l.038.043.027.035a.724.724,0,0,1,.067.086,2.783,2.783,0,0,1,.27.438c.016.028.029.06.045.093.007.017.016.036.024.055l.016.036c.016.04.027.072.04.1l.026.076.007.019.005.021a.682.682,0,0,1,.026.084,1.356,1.356,0,0,1,.036.146c.01.047.019.095.028.139l0,.012.093.516-.321-.414c-.05-.066-.1-.126-.158-.191l-.014-.012,0,0,0,0a1.893,1.893,0,0,0-.132-.136c-.047-.047-.091-.088-.137-.129-.012-.01-.024-.021-.038-.031-.045-.038-.089-.072-.132-.107a.519.519,0,0,1-.043-.031c-.041-.029-.086-.06-.136-.093-.074-.048-.141-.09-.206-.124-.04-.022-.081-.043-.122-.062s-.1-.05-.151-.071-.084-.036-.125-.051-.066-.024-.1-.036a.658.658,0,0,0-.086-.027h-.036l-.016-.016c-.036-.01-.072-.021-.108-.029s-.079-.021-.119-.029a3.082,3.082,0,0,0-.383-.057l-.117-.01Zm0,1.418.142.016c.064.009.124.016.182.026l.035.005c.071.012.131.026.187.04s.1.028.153.045a1.012,1.012,0,0,1,.117.038c.043.014.088.031.127.048l.04.016c.04.017.079.035.117.054a.145.145,0,0,1,.019.009c.057.026.112.057.167.086s.091.055.132.081a.977.977,0,0,1,.095.062l.038.028c.028.019.057.041.084.062l.022.017.086.071a.582.582,0,0,1,.066.057c.029.026.064.057.1.089s.084.086.126.131c.021.022.04.045.058.069s.057.067.088.107.062.083.09.122a.916.916,0,0,1,.069.1c.028.04.05.078.069.11.028.05.055.1.079.149a1.95,1.95,0,0,1,.09.194l.014.035-.007.038a2.8,2.8,0,0,1-.254.737l-.174.344-.067-.38c-.009-.05-.023-.105-.038-.162s-.031-.107-.048-.16-.034-.093-.052-.138a.261.261,0,0,1-.014-.031l-.014-.029-.031-.064,0,0v0l-.016-.029V126.7a.126.126,0,0,1-.009-.016l-.01-.017c-.007-.01-.012-.021-.017-.029a.8.8,0,0,0-.045-.079c-.026-.04-.048-.076-.072-.11a1.889,1.889,0,0,0-.132-.175c-.029-.035-.062-.069-.095-.1l-.071-.071a2.234,2.234,0,0,0-.548-.392l-.088-.043-.088-.038c-.036-.014-.065-.026-.1-.036a2.232,2.232,0,0,0-.486-.115l-.113-.012Zm0,.967.149.026c.054.009.108.019.167.033,0,0,.01,0,.019.005.046.012.1.024.144.041s.095.033.155.059c.043.017.089.04.124.057a.108.108,0,0,0,.022.01l.012.007a1.376,1.376,0,0,1,.136.079,1.735,1.735,0,0,1,.263.2,1.091,1.091,0,0,1,.119.11.691.691,0,0,1,.067.072.745.745,0,0,1,.05.059,2.1,2.1,0,0,1,.319.531l.012.033c.007.017.012.033.019.05l.014.04,0,.01c.007.021.016.047.022.076a.672.672,0,0,1,.017.065c.007.022.012.05.019.076a2.05,2.05,0,0,1,.047.43,1.825,1.825,0,0,1-.012.2l-.005.043-.029.033a2.779,2.779,0,0,1-1.71.845l-.142.017Zm0,3.42.117-.01a2.932,2.932,0,0,0,1.282-.423l.473-.289-.3.468a2.063,2.063,0,0,1-1.428.935l-.148.022Zm2.79-1.287c0,.036,0,.071-.007.107s-.007.076-.012.119-.012.088-.019.132-.012.071-.021.1-.022.1-.034.146c-.017.071-.038.137-.057.194s-.043.119-.065.172-.045.107-.069.156-.06.12-.091.175-.054.091-.088.143c-.021.036-.048.074-.074.112l-.021.029-.005.009-.007.007a3.013,3.013,0,0,1-.2.239l-.035.036c-.028.033-.065.069-.108.11v0l-.01.009c-.033.033-.067.062-.1.089-.012.012-.026.024-.036.033-.038.033-.079.067-.129.1l-.134.1a.2.2,0,0,0-.026.015c-.043.028-.086.054-.133.081a.136.136,0,0,0-.016.01c-.057.033-.1.059-.149.079s-.09.045-.153.071l0,0-.005,0a.013.013,0,0,1-.009,0,2.259,2.259,0,0,1-.333.117c-.04.012-.082.024-.125.033-.079.021-.165.036-.23.047l-.15.019-.142.015v-.6l.113-.014a2.3,2.3,0,0,0,1.98-1.892l.005-.036.024-.028c.04-.048.079-.1.117-.148a2.63,2.63,0,0,0,.213-.318c.033-.055.062-.112.093-.17L198.6,127l.026.476c0,.065.009.134.009.2,0,.048,0,.094-.005.141" transform="translate(-117.428 -75.356)" fill="#fff"/>
    </g>
  </g>
</svg>
