<svg id="Groupe_208" data-name="Groupe 208" xmlns="http://www.w3.org/2000/svg" xmlns:xlink="http://www.w3.org/1999/xlink" width="314.062" height="180.999" viewBox="0 0 314.062 180.999">
  <defs>
    <clipPath id="clip-path">
      <rect id="Rectangle_573" data-name="Rectangle 573" width="314.062" height="180.999" fill="none"/>
    </clipPath>
  </defs>
  <path id="Tracé_2078" data-name="Tracé 2078" d="M207.991,441.855h-9.433V423.7h10.271Z" transform="translate(-126.431 -269.79)" fill="#78453a"/>
  <g id="Groupe_207" data-name="Groupe 207">
    <g id="Groupe_206" data-name="Groupe 206" clip-path="url(#clip-path)">
      <path id="Tracé_2079" data-name="Tracé 2079" d="M189.825,465.119h-6.5a11.01,11.01,0,0,0-5.665,1.573s-4.694,4.1-5.672,5.253-1.337,1.625-.971,2.617a2.146,2.146,0,0,0,2.051,1.4l16.8-.373a2.145,2.145,0,0,0,2.107-2.145v-6.183a2.145,2.145,0,0,0-2.145-2.145" transform="translate(-108.804 -296.163)" fill="#333"/>
      <path id="Tracé_2080" data-name="Tracé 2080" d="M201.773,311.624H188.314l-2.3-80.985h17.02Z" transform="translate(-118.441 -146.858)" fill="#003c54"/>
      <path id="Tracé_2081" data-name="Tracé 2081" d="M245.3,441.855h9.433L252.852,423.7H242.581Z" transform="translate(-154.462 -269.79)" fill="#78453a"/>
      <path id="Tracé_2082" data-name="Tracé 2082" d="M248.576,465.12h6.761a13.4,13.4,0,0,1,6.312,1.573l9.831,5.253a2.109,2.109,0,0,1,1.009,2.617,2.231,2.231,0,0,1-2.132,1.4l-21.821-.373a2.187,2.187,0,0,1-2.191-2.145v-6.183a2.189,2.189,0,0,1,2.23-2.145" transform="translate(-156.86 -296.163)" fill="#333"/>
      <path id="Tracé_2083" data-name="Tracé 2083" d="M230.121,311.415h13.586l-4.151-80.776H222.536Z" transform="translate(-141.699 -146.858)" fill="#003c54"/>
      <path id="Tracé_2084" data-name="Tracé 2084" d="M332.435,120.088a6.192,6.192,0,1,1-6.192-6.192,6.192,6.192,0,0,1,6.192,6.192" transform="translate(-203.792 -72.523)" fill="#78453a"/>
      <path id="Tracé_2085" data-name="Tracé 2085" d="M266.7,113.795l10.054,20.529L281.836,123l10.449,3.338-9.2,18.771a7.555,7.555,0,0,1-12.722.037l-11.431-17.721Z" transform="translate(-164.876 -72.459)" fill="#003c54"/>
      <path id="Tracé_2086" data-name="Tracé 2086" d="M172.373,154.822l19.389,3.65,1.116-10.051,3.509,10.051,18.1-2.48-3.222-19.459,1.8-26.116c.27-6.83-4.893-12.523-11.369-12.523h-4.615a5.449,5.449,0,0,1-.615.834,6.451,6.451,0,0,1-9.946-.48,4,4,0,0,1-.236-.353h-2.8c-6.771,0-12.052,6.215-11.311,13.331l2.695,25.847Z" transform="translate(-109.587 -62.333)" fill="#002d3f"/>
      <path id="Tracé_2087" data-name="Tracé 2087" d="M215.608,125.53l.429,1.8,5.53-19.587-12.356-.675Z" transform="translate(-133.215 -68.178)" fill="#fff"/>
      <path id="Tracé_2088" data-name="Tracé 2088" d="M211.146,90.682l5.4,2.717,5.4-2.717V81.689h-10.8Z" transform="translate(-134.446 -52.015)" fill="#5a3932"/>
      <path id="Tracé_2089" data-name="Tracé 2089" d="M220.43,34.334c-.349,2.751-2.911,10.129-9.315,11.567,0,0-2.841,1.035-7.394-4.752-2.853-3.626-3.027-6.5-3.027-6.5a67.835,67.835,0,0,1,0-8.032c.291-3.064.466-7.818,7.918-8.693s9.956,2.689,10.713,4.252,1.456,9.41,1.106,12.161" transform="translate(-127.708 -11.324)" fill="#78453a"/>
      <path id="Tracé_2090" data-name="Tracé 2090" d="M199.766,58.132c0,5.071,3.305,13.172,9.336,13.172s11.115-7.834,11.115-12.9c0-3.948-1.544.93-5.755,3.38-1.2.7-.437-1.77-5.36-1.77-4.281,0-4.259,3.005-5.2,2.082-3.2-3.135-4.134-7.94-4.134-3.96" transform="translate(-127.2 -36.055)"/>
      <path id="Tracé_2091" data-name="Tracé 2091" d="M219.417,76.714c0,1.031.984,2.638,2.2,2.638s2.2-1.607,2.2-2.638-.984-1.094-2.2-1.094-2.2.064-2.2,1.094" transform="translate(-139.713 -48.151)" fill="#78453a"/>
      <path id="Tracé_2092" data-name="Tracé 2092" d="M231.467,97.038s1.163,3.121-2,7.291A3.368,3.368,0,0,0,226,103.172Z" transform="translate(-143.908 -61.789)" fill="#ededed"/>
      <path id="Tracé_2093" data-name="Tracé 2093" d="M210.5,97.038s-1.3,3.455,1.862,7.624c1.874-1.978,3.6-1.49,3.6-1.49Z" transform="translate(-133.868 -61.789)" fill="#ededed"/>
      <path id="Tracé_2094" data-name="Tracé 2094" d="M224.938,129.278l-2.385-11.253h-.886l-1.729,10.87,3.6,3.609Z" transform="translate(-140.044 -75.152)" fill="#f06d50"/>
      <path id="Tracé_2095" data-name="Tracé 2095" d="M222.72,114.834c0,.843.106,1.291,1.128,1.291s1.259-.448,1.259-1.291-.237-.9-1.259-.9-1.128.059-1.128.9" transform="translate(-141.816 -72.546)" fill="#f06d50"/>
      <path id="Tracé_2096" data-name="Tracé 2096" d="M236.343,101.861l-1.458-.13.979,1.15c-2.392,5.962-6.868,17.841-7.811,19.1,0-.7,0-2.627-.051-3.579a100.046,100.046,0,0,0,4.946-20.853,8.021,8.021,0,0,1,4.152,1.713c.193.136-.412,1.608-.757,2.6" transform="translate(-145.179 -62.112)" fill="#141919"/>
      <path id="Tracé_2097" data-name="Tracé 2097" d="M200.086,101.861l1.458-.13-.979,1.15c2.392,5.962,8.264,17.841,9.207,19.1,0-.7,0-2.627.05-3.579a47.455,47.455,0,0,1-6.341-20.853,8.021,8.021,0,0,0-4.152,1.713c-.193.136.412,1.608.757,2.6" transform="translate(-126.898 -62.112)" fill="#141919"/>
      <path id="Tracé_2098" data-name="Tracé 2098" d="M227.659,161.707s-1.029,19.906.359,27.347" transform="translate(-144.727 -102.966)" fill="none" stroke="#141919" stroke-width="2.318"/>
      <path id="Tracé_2099" data-name="Tracé 2099" d="M180.09,233.093A6.191,6.191,0,1,1,173.9,226.9a6.192,6.192,0,0,1,6.192,6.192" transform="translate(-106.787 -144.478)" fill="#78453a"/>
      <path id="Tracé_2100" data-name="Tracé 2100" d="M160.284,107.073c-1.954.167-10.373,19.846-10.373,19.846-1.61,3.459-2.678,7.465-1.18,11.143l6.172,21.2,12.647-5.585s-9.89-24.58-9.834-28.146a101.409,101.409,0,0,1,2.568-18.457" transform="translate(-94.247 -68.178)" fill="#003c54"/>
      <path id="Tracé_2101" data-name="Tracé 2101" d="M195.6,20.658c1.063,1.41,3.135.5,7.782.587,7.007.13,8.693,2.314,12.833.82,2.769-1,4.836-2.994,4.6-3.562-.172-.406-1.477.023-1.959-.685-.518-.762.542-1.919.1-2.546-.48-.678-2.3-.146-2.84,0-4.107,1.1-5.318-1.093-13.219-1.077-4.911.01-6.013.862-6.56,1.469-1.219,1.352-1.694,3.718-.732,4.994" transform="translate(-124.224 -9.038)"/>
      <path id="Tracé_2102" data-name="Tracé 2102" d="M252.843,42.484a22.972,22.972,0,0,1-1.57-4.23c-.209-1.371-.22-5.325-.22-5.325l1.138.771a47.624,47.624,0,0,1,.652,8.783" transform="translate(-159.857 -20.967)"/>
      <path id="Tracé_2103" data-name="Tracé 2103" d="M199.624,40.441a23.338,23.338,0,0,0,1.246-3.867,31.967,31.967,0,0,0-.538-5.734l-.784.171a71.622,71.622,0,0,0,.076,9.429" transform="translate(-126.981 -19.637)"/>
      <path id="Tracé_2104" data-name="Tracé 2104" d="M797.357,227.257a6.347,6.347,0,1,0,6.347-6.347,6.347,6.347,0,0,0-6.347,6.347" transform="translate(-507.714 -140.664)" fill="#b97e61"/>
      <path id="Tracé_2105" data-name="Tracé 2105" d="M805.623,107.429l12.426,16.656a12.15,12.15,0,0,1,1.21,11.423L812.1,153.076l-10.808-9.09,7.139-14.876-7.666-8.345Z" transform="translate(-509.886 -68.405)" fill="#141919"/>
      <path id="Tracé_2106" data-name="Tracé 2106" d="M751.094,439.314h-9.669V420.7h10.529Z" transform="translate(-472.099 -267.882)" fill="#f7b9af"/>
      <path id="Tracé_2107" data-name="Tracé 2107" d="M732.471,463.162H725.8A11.29,11.29,0,0,0,720,464.774s-4.812,4.205-5.814,5.385-1.37,1.665-1,2.683a2.2,2.2,0,0,0,2.1,1.438l17.219-.383a2.2,2.2,0,0,0,2.16-2.2v-6.338a2.2,2.2,0,0,0-2.2-2.2" transform="translate(-454.028 -294.917)" fill="#333"/>
      <path id="Tracé_2108" data-name="Tracé 2108" d="M744.718,305.812h-13.8l-2.363-83.019h17.448Z" transform="translate(-463.907 -141.863)" fill="#141919"/>
      <path id="Tracé_2109" data-name="Tracé 2109" d="M789.344,439.314h9.669l-1.933-18.61H786.552Z" transform="translate(-500.834 -267.882)" fill="#f7b9af"/>
      <path id="Tracé_2110" data-name="Tracé 2110" d="M792.7,463.163h6.93a13.743,13.743,0,0,1,6.471,1.612l10.078,5.385a2.162,2.162,0,0,1,1.035,2.683,2.287,2.287,0,0,1-2.186,1.438l-22.369-.383a2.242,2.242,0,0,1-2.246-2.2v-6.338a2.244,2.244,0,0,1,2.286-2.2" transform="translate(-503.292 -294.917)" fill="#333"/>
      <path id="Tracé_2111" data-name="Tracé 2111" d="M773.779,305.6h13.927l-4.255-82.8H766Z" transform="translate(-487.75 -141.862)" fill="#141919"/>
      <path id="Tracé_2112" data-name="Tracé 2112" d="M644.932,120.267a6.347,6.347,0,1,0,6.347-6.347,6.347,6.347,0,0,0-6.347,6.347" transform="translate(-410.658 -72.538)" fill="#b97e61"/>
      <path id="Tracé_2113" data-name="Tracé 2113" d="M678.893,107.814l-14,22.393-5.766-10.779-10.712,3.422,9.427,19.243a7.745,7.745,0,0,0,13.041.038L682.6,123.964Z" transform="translate(-412.877 -68.65)" fill="#141919"/>
      <path id="Tracé_2114" data-name="Tracé 2114" d="M758.172,157.66l-17.18,1.955-.94-10.3-1.319,9.9-17.34-.526,2.4-21.566-1.519-26.771c-.227-7,4.884-12.838,10.341-12.838h3.889a5.673,5.673,0,0,0,.518.855,4.979,4.979,0,0,0,4.031,2.167,5.113,5.113,0,0,0,4.35-2.659c.135-.224.2-.363.2-.363h2.363c5.705,0,10.915,6.371,10.291,13.667l-2.271,26.5Z" transform="translate(-459.344 -62.092)" fill="#0d0f0f"/>
      <path id="Tracé_2115" data-name="Tracé 2115" d="M764.742,125.847l-.44,1.85-5.669-20.079,12.666-.692Z" transform="translate(-483.057 -68.085)" fill="#fff"/>
      <path id="Tracé_2116" data-name="Tracé 2116" d="M772.12,90.122l-5.533,2.785-5.533-2.785V80.9H772.12Z" transform="translate(-484.598 -51.515)" fill="#ae6552"/>
      <path id="Tracé_2117" data-name="Tracé 2117" d="M746.144,32.36c.385,2.82,3.2,10.383,10.255,11.857,0,0,3.128,1.061,8.14-4.871,3.141-3.717,3.333-6.666,3.333-6.666a64.838,64.838,0,0,0,0-8.233c-.32-3.141-.513-8.014-8.717-8.912s-10.96,2.756-11.793,4.358-1.6,9.646-1.218,12.466" transform="translate(-475.039 -9.803)" fill="#b97e61"/>
      <path id="Tracé_2118" data-name="Tracé 2118" d="M760.5,96.639s-1.192,3.2,2.053,7.474a3.452,3.452,0,0,1,3.546-1.185Z" transform="translate(-484.108 -61.534)" fill="#ededed"/>
      <path id="Tracé_2119" data-name="Tracé 2119" d="M781.885,96.639s1.336,3.541-1.909,7.815c-1.921-2.028-3.69-1.527-3.69-1.527Z" transform="translate(-494.297 -61.534)" fill="#ededed"/>
      <path id="Tracé_2120" data-name="Tracé 2120" d="M768.394,129.688l2.445-11.535h.908l1.773,11.142-3.693,3.7Z" transform="translate(-489.272 -75.233)" fill="#002d3f"/>
      <path id="Tracé_2121" data-name="Tracé 2121" d="M775.365,114.883c0,.865-.109,1.324-1.156,1.324s-1.291-.459-1.291-1.324.243-.925,1.291-.925,1.156.06,1.156.925" transform="translate(-492.152 -72.562)" fill="#002d3f"/>
      <path id="Tracé_2122" data-name="Tracé 2122" d="M749.274,101.584l1.494-.133-1,1.179c2.452,6.112,7.041,18.289,8.008,19.576,0-.717,0-2.694.052-3.669a102.591,102.591,0,0,1-5.071-21.376,8.223,8.223,0,0,0-4.256,1.756c-.2.14.422,1.649.776,2.668" transform="translate(-476.579 -61.866)" fill="#141919"/>
      <path id="Tracé_2123" data-name="Tracé 2123" d="M783.934,101.584l-1.494-.133,1,1.179c-2.452,6.112-8.471,18.289-9.438,19.576,0-.717,0-2.694-.052-3.669a48.641,48.641,0,0,0,6.5-21.376,8.223,8.223,0,0,1,4.256,1.756c.2.14-.422,1.649-.776,2.668" transform="translate(-492.812 -61.866)" fill="#141919"/>
      <path id="Tracé_2124" data-name="Tracé 2124" d="M773.286,162.932s1.055,20.406-.368,28.034" transform="translate(-492.152 -103.746)" fill="none" stroke="#141919" stroke-width="2.377"/>
      <path id="Tracé_2125" data-name="Tracé 2125" d="M763.264,9.456c.64,3.428-8.866,7.685-9.636,8.03a30.55,30.55,0,0,1-16.662,2.208c-.05-1.623-.049-7.666,4.216-11.644,7.242-6.753,21.356-2.493,22.083,1.405" transform="translate(-469.254 -2.865)" fill="#3c1c14"/>
      <path id="Tracé_2126" data-name="Tracé 2126" d="M798.239,19.248a21.862,21.862,0,0,1,.6,8.231c-.372,2.994-1.354,5.393-.8,9.235.174,1.217.441,3.079,1.2,3.212,1.479.258,3.66-6.181,4.015-7.227,1.822-5.377,3.307-9.763,1-12.848-.544-.729-1.936-2.236-5.22-2.81" transform="translate(-508.043 -10.85)" fill="#3c1c14"/>
      <path id="Tracé_2127" data-name="Tracé 2127" d="M472.232,444.216h-9.366V426.19h10.2Z" transform="translate(-294.728 -271.375)" fill="#693c33"/>
      <path id="Tracé_2128" data-name="Tracé 2128" d="M464.554,316.834h-9.736l-3.672-39.7-.744-42.653h16.9l-.538,43.238Z" transform="translate(-286.793 -149.307)" fill="#005a7d"/>
      <path id="Tracé_2129" data-name="Tracé 2129" d="M509.283,444.216h9.366l-1.873-18.026h-10.2Z" transform="translate(-322.561 -271.375)" fill="#693c33"/>
      <path id="Tracé_2130" data-name="Tracé 2130" d="M495.658,316.834l9.728-.359-.22-40.816-1.591-41.175h-16.9l3.93,43.441Z" transform="translate(-309.888 -149.307)" fill="#005a7d"/>
      <path id="Tracé_2131" data-name="Tracé 2131" d="M454.548,468.621h-6.456a10.935,10.935,0,0,0-5.625,1.562s-4.661,4.073-5.632,5.216-1.327,1.613-.964,2.6a2.13,2.13,0,0,0,2.036,1.393l16.679-.371a2.13,2.13,0,0,0,2.092-2.13v-6.139a2.13,2.13,0,0,0-2.13-2.13" transform="translate(-277.45 -298.393)" fill="#191919"/>
      <path id="Tracé_2132" data-name="Tracé 2132" d="M497.549,467.661h-6.713a13.311,13.311,0,0,0-6.268,1.562l-9.762,5.216a2.093,2.093,0,0,0-1,2.6,2.214,2.214,0,0,0,2.117,1.393l21.667-.371a2.172,2.172,0,0,0,2.176-2.13v-6.139a2.174,2.174,0,0,0-2.215-2.13" transform="translate(-301.605 -297.781)" fill="#191919"/>
      <path id="Tracé_2133" data-name="Tracé 2133" d="M367.87,112.531a6.2,6.2,0,1,0,6.2-6.2,6.2,6.2,0,0,0-6.2,6.2" transform="translate(-234.24 -67.707)" fill="#f7b9af"/>
      <path id="Tracé_2134" data-name="Tracé 2134" d="M401.034,100.371l-13.67,21.867-5.63-10.526-10.46,3.341,9.206,18.791a7.563,7.563,0,0,0,12.735.037l11.443-17.74Z" transform="translate(-236.407 -63.911)" fill="#f06d50"/>
      <path id="Tracé_2135" data-name="Tracé 2135" d="M606.032,112.531a6.2,6.2,0,1,1-6.2-6.2,6.2,6.2,0,0,1,6.2,6.2" transform="translate(-377.995 -67.707)" fill="#f7b9af"/>
      <path id="Tracé_2136" data-name="Tracé 2136" d="M525.2,97.858l13.67,21.867,8.6-10.526,10.46,3.341-12.179,18.791a7.563,7.563,0,0,1-12.735.037l-11.443-17.74Z" transform="translate(-332.109 -62.311)" fill="#f06d50"/>
      <path id="Tracé_2137" data-name="Tracé 2137" d="M459.015,213.389s-26.05.645-24.59-2.512c2.222-11.862,11.149-29.406,11.149-29.406l22.925,1.2Z" transform="translate(-276.581 -115.55)" fill="#002d3f"/>
      <path id="Tracé_2138" data-name="Tracé 2138" d="M468.251,214.193l27.5-2.511-15.327-27.471H462.241Z" transform="translate(-294.33 -117.295)" fill="#002d3f"/>
      <path id="Tracé_2139" data-name="Tracé 2139" d="M476.278,147.835l-20.689,3.121-.918-10.061-1.288,9.672L432.978,149.3l5.818-20.307-1.483-26.143c-.222-6.837,4.77-12.536,10.1-12.536h3.8a5.567,5.567,0,0,0,.506.835,4.862,4.862,0,0,0,3.936,2.116,4.994,4.994,0,0,0,4.248-2.6c.132-.219.193-.354.193-.354H462.4c5.571,0,10.659,6.221,10.049,13.346l-2.217,25.873Z" transform="translate(-275.697 -57.507)" fill="#f06d50"/>
      <path id="Tracé_2140" data-name="Tracé 2140" d="M490.676,99.823l-6.237,13.926L478.9,90.128l12.036-.106Z" transform="translate(-304.94 -57.321)" fill="#fff"/>
      <path id="Tracé_2141" data-name="Tracé 2141" d="M491.7,80.153l-2.411,2.477a4.281,4.281,0,0,1-6.166-.032l-2.611-2.739.275-5.767h10.807Z" transform="translate(-305.963 -47.178)" fill="#f7b9af"/>
      <path id="Tracé_2142" data-name="Tracé 2142" d="M466.707,26.688c.376,2.754,3.129,10.14,10.014,11.579,0,0,3.055,1.036,7.949-4.757,3.067-3.63,3.255-6.509,3.255-6.509a63.332,63.332,0,0,0,0-8.04c-.313-3.067-.5-7.826-8.512-8.7s-10.7,2.691-11.516,4.256-1.565,9.42-1.189,12.173" transform="translate(-297.11 -6.445)" fill="#f7b9af"/>
      <path id="Tracé_2143" data-name="Tracé 2143" d="M495.021,69.112c0,1.032-.985,2.64-2.2,2.64s-2.2-1.609-2.2-2.64.986-1.1,2.2-1.1,2.2.064,2.2,1.1" transform="translate(-312.4 -43.31)" fill="#f7b9af"/>
      <path id="Tracé_2144" data-name="Tracé 2144" d="M469.762,94.287l1.459-.13-.98,1.151c2.394,5.969,6.875,17.86,7.819,19.116,0-.7,0-2.63.051-3.583a100.178,100.178,0,0,1-4.952-20.874A8.026,8.026,0,0,0,469,91.682c-.193.136.413,1.61.758,2.6" transform="translate(-298.613 -57.286)" fill="#b4523c"/>
      <path id="Tracé_2145" data-name="Tracé 2145" d="M503.608,94.287l-1.459-.13.98,1.151c-2.394,5.969-8.272,17.86-9.216,19.116,0-.7,0-2.63-.051-3.583a47.5,47.5,0,0,0,6.349-20.874,8.026,8.026,0,0,1,4.156,1.715c.193.136-.413,1.61-.758,2.6" transform="translate(-314.465 -57.286)" fill="#b4523c"/>
      <path id="Tracé_2146" data-name="Tracé 2146" d="M493.212,154.194s1.03,19.927-.36,27.376" transform="translate(-313.822 -98.182)" fill="none" stroke="#b4523c" stroke-width="2.321"/>
      <path id="Tracé_2147" data-name="Tracé 2147" d="M475.206,8.193a16.73,16.73,0,0,1-6.151,2.377c-6.126,1.275-8.325,8.934-7.866,10.488a26.889,26.889,0,0,0,1.887,4.117c-.159.115-2.2-1.573-3.455-4.19-1.97-4.108-1.015-8.448-.221-12.056.841-3.82,3.447-10.879,19.76-8.419,3.939.594,6.585,4.821,6.8,6.045.839,4.813-7.157-.557-10.753,1.64" transform="translate(-291.92 0)" fill="#783728"/>
      <path id="Tracé_2148" data-name="Tracé 2148" d="M530.759,15.794c1.253-.612,3.468-.812,4.025-.183,3.724,4.2-.04,11.8-.351,13.189-.617,2.743-2.867,8.193-2.281,10.542,1.373,5.509,8.053,6.945,7.329,9.522-.481,1.71-4.3,6.141-6.862,5.618-3.61-.736-5.368-4.358-6.792-7.291-.734-1.512.4-12.777-.829-19.3-.99-5.256,3.636-11.062,5.761-12.1" transform="translate(-334.203 -9.696)" fill="#783728"/>
      <path id="Tracé_2149" data-name="Tracé 2149" d="M526.348,17.5c.889-.668,2.978.119,3.97,1.47.291.4.79,1.253-.073,6.47-.763,4.613-1.678,7.13-2.568,8.006-.154.152-1.695,1.648-2.352,1.25-.889-.538,1.474-4.987,1.539-9.771.058-4.294-1.608-6.6-.515-7.425" transform="translate(-334.371 -10.989)" fill="#5a291e"/>
      <path id="Tracé_2150" data-name="Tracé 2150" d="M513.614,14.031c.879,3.421,2.491,5.992,2.255,7.891-.363,2.924-1.322,5.266-.784,9.018.17,1.188.431,3.007,1.176,3.137,1.444.252,3.575-6.036,3.921-7.057,1.779-5.25,3.23-9.534.98-12.547-.531-.712-1.89-2.184-5.1-2.744Z" transform="translate(-327.042 -7.468)" fill="#783728"/>
      <path id="Tracé_2151" data-name="Tracé 2151" d="M530.558,16.828a1.83,1.83,0,0,1-.426-1.372c.11-.793.3-1.776,1.235-1.923a4.11,4.11,0,0,1,2.142.576,1.893,1.893,0,0,1,.6.6,2.858,2.858,0,0,0-1.2.911,2.537,2.537,0,0,0,.07,2.757,25.906,25.906,0,0,0-2.421-1.543" transform="translate(-337.55 -8.605)" fill="#005a7d"/>
      <path id="Tracé_2152" data-name="Tracé 2152" d="M102.036,445.088H92.917V427.537h9.93Z" transform="translate(-59.164 -272.233)" fill="#f7b9af"/>
      <path id="Tracé_2153" data-name="Tracé 2153" d="M94.561,321.06H85.082l-3.575-38.652-.724-41.529H97.239l-.524,42.1Z" transform="translate(-51.438 -153.379)" fill="#004d40"/>
      <path id="Tracé_2154" data-name="Tracé 2154" d="M138.112,445.088h9.119l-1.823-17.551h-9.93Z" transform="translate(-86.265 -272.233)" fill="#f7b9af"/>
      <path id="Tracé_2155" data-name="Tracé 2155" d="M124.846,321.06l9.472-.349L134.1,280.97l-1.549-40.091H116.1l3.827,42.3Z" transform="translate(-73.926 -153.379)" fill="#004d40"/>
      <path id="Tracé_2156" data-name="Tracé 2156" d="M84.818,468.851H78.532a10.646,10.646,0,0,0-5.477,1.521s-4.538,3.966-5.484,5.079-1.292,1.571-.939,2.53a2.074,2.074,0,0,0,1.983,1.357l16.24-.361a2.074,2.074,0,0,0,2.037-2.073v-5.978a2.074,2.074,0,0,0-2.074-2.074" transform="translate(-42.341 -298.539)" fill="#191919"/>
      <path id="Tracé_2157" data-name="Tracé 2157" d="M126.687,467.916h-6.536a12.958,12.958,0,0,0-6.1,1.521l-9.505,5.079a2.039,2.039,0,0,0-.976,2.53,2.156,2.156,0,0,0,2.061,1.357l21.1-.361a2.115,2.115,0,0,0,2.118-2.073V469.99a2.116,2.116,0,0,0-2.156-2.074" transform="translate(-65.861 -297.944)" fill="#191919"/>
      <path id="Tracé_2158" data-name="Tracé 2158" d="M125.852,24.572c.014-.054,8.982-.293,12.741,5.011.793,1.118.625,1.454,2.577,10.307,1.423,6.456,1.539,6.4,1.575,7.587.177,5.991-2.964,6.827-2.863,11.882.131,6.591,4.909,8.41,3.579,13.027a9,9,0,0,1-7.3,6.013c-2.478.3-5.659-.6-6.156-2.29-.473-1.61,1.6-3.522,1-4.152-.438-.457-1.7.38-2,0-.413-.514,1.806-2.165,2.577-4.438.989-2.917-1.226-4.44-1.861-8.589-.43-2.807.481-2.783,1.861-10.737.85-4.9,1.27-7.41,1-10.307-.342-3.7-.56-6.055-2.148-8.59-.458-.732-.464-2.2-1.575-3.293a5.506,5.506,0,0,0-3.006-1.432" transform="translate(-80.136 -15.634)" fill="#f06d50"/>
      <path id="Tracé_2159" data-name="Tracé 2159" d="M90.244,34c-1.07,3.193-.155,6.108,1.432,11.166,1.66,5.292,2.653,4.5,2.863,7.158.4,5.111-3.372,6.748-2.577,11.453.547,3.239,2.521,3.555,2.291,6.156-.262,2.958-3.168,6.526-6.872,6.442a6.378,6.378,0,0,1-5.44-3.436c-.812-1.685-.432-3.278-.143-5.01.346-2.072.358-5.058.429-11.023a69.748,69.748,0,0,0-.716-11.739c-.737-4.878-1.312-4.789-1.145-6.872.473-5.894,5.48-11.541,8.718-10.983a3.259,3.259,0,0,1,2.3,1.821c.67,1.53-.5,2.928-1.145,4.867" transform="translate(-51.154 -17.363)" fill="#f06d50"/>
      <path id="Tracé_2160" data-name="Tracé 2160" d="M105.888,34c-1.627,3.193,5.338,1.855,7.752,6.913,2.525,5.293-.925,13.865-.606,16.522.614,5.111-5.742,1.637-4.533,6.342.833,3.239,3.835,3.555,3.484,6.156-.4,2.958-4.818,6.526-10.452,6.442-3.495-.052-6.856-1.5-8.274-3.436-1.235-1.685-.657-3.278-.218-5.01.526-2.072.544-5.058.653-11.023a46.271,46.271,0,0,0-1.089-11.739c-1.121-4.878-2-4.789-1.742-6.872.719-5.894,8.335-11.541,13.26-10.983a5.094,5.094,0,0,1,3.506,1.821c1.019,1.53-.754,2.928-1.742,4.867" transform="translate(-57.829 -17.363)" fill="#b4523c"/>
      <path id="Tracé_2161" data-name="Tracé 2161" d="M146.171,228.967a6.035,6.035,0,1,0,6.035-6.035,6.035,6.035,0,0,0-6.035,6.035" transform="translate(-93.074 -141.951)" fill="#f7b9af"/>
      <path id="Tracé_2162" data-name="Tracé 2162" d="M0,130.156a6.035,6.035,0,1,0,6.035-6.035A6.035,6.035,0,0,0,0,130.156" transform="translate(0 -79.034)" fill="#f7b9af"/>
      <path id="Tracé_2163" data-name="Tracé 2163" d="M33.753,112.779l-15.3,24.094-4.95-11.04L3.313,129.087l8.963,18.3a7.364,7.364,0,0,0,12.4.036l11.142-17.273Z" transform="translate(-2.11 -71.812)" fill="#004d40"/>
      <path id="Tracé_2164" data-name="Tracé 2164" d="M154.031,115.033l11.814,15.836A11.553,11.553,0,0,1,167,141.73l-6.8,16.7-10.276-8.644,6.788-14.144-7.289-7.935Z" transform="translate(-95.139 -73.247)" fill="#004d40"/>
      <path id="Tracé_2165" data-name="Tracé 2165" d="M105.9,164.243l-17.659,3.324-1.088-9.8-1.525,9.417-16.766-1.749.367-19.256-1.766-19.256c-.263-6.657,4.779-18.4,11.092-18.4h4.5a5.313,5.313,0,0,0,.6.813,6.288,6.288,0,0,0,9.694-.468,3.842,3.842,0,0,0,.23-.345h2.734c6.6,0,12.118,9.965,11.4,16.9l-3,21.285Z" transform="translate(-42.952 -69.101)" fill="#003a30"/>
      <path id="Tracé_2166" data-name="Tracé 2166" d="M120.932,101.493l-5.261,2.648-5.261-2.648V92.728h10.522Z" transform="translate(-70.303 -59.044)" fill="#f7b9af"/>
      <path id="Tracé_2167" data-name="Tracé 2167" d="M96.234,46.573c.366,2.682,3.047,9.873,9.75,11.274,0,0,2.974,1.009,7.739-4.631,2.986-3.534,3.169-6.338,3.169-6.338a61.606,61.606,0,0,0,0-7.828c-.3-2.986-.487-7.62-8.288-8.473S98.184,33.2,97.392,34.72s-1.524,9.171-1.158,11.853" transform="translate(-61.215 -19.384)" fill="#f7b9af"/>
      <path id="Tracé_2168" data-name="Tracé 2168" d="M123.8,87.88c0,1-.959,2.571-2.143,2.571s-2.143-1.566-2.143-2.571.959-1.067,2.143-1.067,2.143.062,2.143,1.067" transform="translate(-76.102 -55.278)" fill="#f7b9af"/>
      <path id="Tracé_2169" data-name="Tracé 2169" d="M108.465,107.689s-2.581,4,.5,9.333a10.9,10.9,0,0,1,4.82-3.354Z" transform="translate(-68.421 -68.571)" fill="#ededed"/>
      <path id="Tracé_2170" data-name="Tracé 2170" d="M130.216,107.689a9.855,9.855,0,0,1-.368,9.76,12.677,12.677,0,0,0-4.956-3.781Z" transform="translate(-79.525 -68.571)" fill="#ededed"/>
      <path id="Tracé_2171" data-name="Tracé 2171" d="M110.239,27.006c.007,1.239-1.316,2.552-2.577,3.006-1.914.69-3-.844-4.724-.143-1.887.765-10.355,6.687-11.166,7.731-2.579,3.316-3.95,5.079-4.438,7.3a10.792,10.792,0,0,0,.572,5.583c-.244.072-3.429-5.78-3.436-13.457,0-4.194-.007-8.165,2.863-11.453,3.823-4.379,9.821-4.2,11.453-4.152,5.381.161,11.437,2.943,11.453,5.583" transform="translate(-53.786 -13.631)" fill="#f06d50"/>
    </g>
  </g>
</svg>
